<svg class="main-svg" xmlns="http://www.w3.org/2000/svg" xmlns:xlink="http://www.w3.org/1999/xlink" width="2200" height="546" style="" viewBox="0 0 1100 273"><rect x="0" y="0" width="1100" height="273" style="fill: rgb(255, 255, 255); fill-opacity: 1;"/><defs id="defs-e7ed51"><g class="clips"><clipPath id="clipe7ed51xyplot" class="plotclip"><rect width="1005" height="42.230769230769226"/></clipPath><clipPath id="clipe7ed51x2y2plot" class="plotclip"><rect width="1005" height="42.230769230769226"/></clipPath><clipPath id="clipe7ed51x3y3plot" class="plotclip"><rect width="1005" height="42.230769230769226"/></clipPath><clipPath class="axesclip" id="clipe7ed51x"><rect x="80" y="0" width="1005" height="273"/></clipPath><clipPath class="axesclip" id="clipe7ed51y"><rect x="0" y="50.00000000000002" width="1100" height="42.230769230769226"/></clipPath><clipPath class="axesclip" id="clipe7ed51xy"><rect x="80" y="50.00000000000002" width="1005" height="42.230769230769226"/></clipPath><clipPath class="axesclip" id="clipe7ed51y2"><rect x="0" y="120.3846153846154" width="1100" height="42.230769230769226"/></clipPath><clipPath class="axesclip" id="clipe7ed51xy2"><rect x="80" y="120.3846153846154" width="1005" height="42.230769230769226"/></clipPath><clipPath class="axesclip" id="clipe7ed51y3"><rect x="0" y="190.76923076923077" width="1100" height="42.230769230769226"/></clipPath><clipPath class="axesclip" id="clipe7ed51xy3"><rect x="80" y="190.76923076923077" width="1005" height="42.230769230769226"/></clipPath><clipPath class="axesclip" id="clipe7ed51x2"><rect x="80" y="0" width="1005" height="273"/></clipPath><clipPath class="axesclip" id="clipe7ed51x2y"><rect x="80" y="50.00000000000002" width="1005" height="42.230769230769226"/></clipPath><clipPath class="axesclip" id="clipe7ed51x2y2"><rect x="80" y="120.3846153846154" width="1005" height="42.230769230769226"/></clipPath><clipPath class="axesclip" id="clipe7ed51x2y3"><rect x="80" y="190.76923076923077" width="1005" height="42.230769230769226"/></clipPath><clipPath class="axesclip" id="clipe7ed51x3"><rect x="80" y="0" width="1005" height="273"/></clipPath><clipPath class="axesclip" id="clipe7ed51x3y"><rect x="80" y="50.00000000000002" width="1005" height="42.230769230769226"/></clipPath><clipPath class="axesclip" id="clipe7ed51x3y2"><rect x="80" y="120.3846153846154" width="1005" height="42.230769230769226"/></clipPath><clipPath class="axesclip" id="clipe7ed51x3y3"><rect x="80" y="190.76923076923077" width="1005" height="42.230769230769226"/></clipPath></g><g class="gradients"/><g class="patterns"/></defs><g class="bglayer"/><g class="layer-below"><g class="imagelayer"/><g class="shapelayer"/></g><g class="cartesianlayer"><g class="subplot xy"><g class="layer-subplot"><g class="shapelayer"/><g class="imagelayer"/></g><g class="minor-gridlayer"><g class="x"/><g class="y"/></g><g class="gridlayer"><g class="x"><path class="xgrid crisp" transform="translate(198.05,0)" d="M0,50.00000000000002v42.230769230769226" style="stroke: rgb(0, 0, 0); stroke-opacity: 0.1; stroke-width: 1px;"/><path class="xgrid crisp" transform="translate(311.12,0)" d="M0,50.00000000000002v42.230769230769226" style="stroke: rgb(0, 0, 0); stroke-opacity: 0.1; stroke-width: 1px;"/><path class="xgrid crisp" transform="translate(424.19,0)" d="M0,50.00000000000002v42.230769230769226" style="stroke: rgb(0, 0, 0); stroke-opacity: 0.1; stroke-width: 1px;"/><path class="xgrid crisp" transform="translate(537.26,0)" d="M0,50.00000000000002v42.230769230769226" style="stroke: rgb(0, 0, 0); stroke-opacity: 0.1; stroke-width: 1px;"/><path class="xgrid crisp" transform="translate(650.33,0)" d="M0,50.00000000000002v42.230769230769226" style="stroke: rgb(0, 0, 0); stroke-opacity: 0.1; stroke-width: 1px;"/><path class="xgrid crisp" transform="translate(763.4,0)" d="M0,50.00000000000002v42.230769230769226" style="stroke: rgb(0, 0, 0); stroke-opacity: 0.1; stroke-width: 1px;"/><path class="xgrid crisp" transform="translate(876.47,0)" d="M0,50.00000000000002v42.230769230769226" style="stroke: rgb(0, 0, 0); stroke-opacity: 0.1; stroke-width: 1px;"/><path class="xgrid crisp" transform="translate(989.54,0)" d="M0,50.00000000000002v42.230769230769226" style="stroke: rgb(0, 0, 0); stroke-opacity: 0.1; stroke-width: 1px;"/></g><g class="y"><path class="ygrid crisp" transform="translate(0,71.12000000000002)" d="M80,0h1005" style="stroke: rgb(0, 0, 0); stroke-opacity: 0.1; stroke-width: 1px;"/></g></g><g class="zerolinelayer"><path class="xzl zl crisp" transform="translate(84.98,0)" d="M0,50.00000000000002v42.230769230769226" style="stroke: rgb(0, 0, 0); stroke-opacity: 0.1; stroke-width: 2px;"/></g><g class="layer-between"><g class="shapelayer"/><g class="imagelayer"/></g><path class="xlines-below"/><path class="ylines-below"/><g class="overlines-below"/><g class="xaxislayer-below"/><g class="yaxislayer-below"/><g class="overaxes-below"/><g class="overplot"><g class="xy" transform="translate(80,50.00000000000002)" clip-path="url(#clipe7ed51xyplot)"><g class="violinlayer mlayer"><g class="trace violins" style="opacity: 0.5;"><path class="violin" d="M62.65,20.68Q71.22,20.44 75.5,20.25C79.79,20.06 84.08,19.85 88.36,19.56C92.65,19.27 96.93,18.93 101.21,18.51C105.5,18.09 109.78,17.6 114.06,17.05C118.35,16.5 122.63,15.86 126.91,15.19C131.2,14.52 135.49,13.76 139.77,13.02C144.06,12.28 148.33,11.48 152.62,10.75C156.9,10.03 161.18,9.28 165.47,8.67C169.75,8.06 174.03,7.5 178.32,7.11C182.6,6.72 186.89,6.45 191.18,6.33C195.46,6.21 199.75,6.26 204.03,6.41C208.32,6.56 212.6,6.87 216.88,7.21C221.17,7.56 225.45,8.02 229.73,8.48C234.02,8.94 238.3,9.46 242.59,9.96C246.87,10.46 251.16,10.98 255.44,11.49C259.72,11.99 264.01,12.49 268.29,12.99C272.58,13.49 276.86,13.99 281.15,14.48C285.43,14.97 289.72,15.47 294,15.94C298.28,16.41 302.57,16.89 306.85,17.32C311.13,17.75 315.41,18.17 319.7,18.53C323.98,18.89 328.27,19.22 332.56,19.49C336.84,19.76 341.13,19.99 345.41,20.17C349.69,20.35 353.98,20.48 358.26,20.58C362.54,20.68 366.83,20.73 371.11,20.77C375.4,20.81 379.68,20.81 383.97,20.79C388.25,20.77 392.54,20.73 396.82,20.67C401.1,20.61 405.39,20.53 409.67,20.45C413.95,20.37 418.24,20.27 422.52,20.19C426.81,20.1 431.09,20.01 435.38,19.94C439.66,19.87 443.95,19.81 448.23,19.78C452.51,19.75 456.8,19.74 461.08,19.75C465.37,19.76 469.65,19.8 473.94,19.86C478.22,19.91 482.51,20 486.79,20.08C491.07,20.16 495.36,20.26 499.64,20.35C503.92,20.44 508.21,20.53 512.49,20.61C516.78,20.69 521.06,20.76 525.35,20.82C529.63,20.88 533.92,20.92 538.2,20.96C542.48,21 546.77,21.02 551.05,21.04C555.33,21.06 559.62,21.07 563.9,21.08C568.19,21.09 572.47,21.09 576.76,21.1C581.04,21.1 585.33,21.11 589.61,21.11C593.89,21.11 598.18,21.11 602.46,21.11C606.74,21.11 611.03,21.11 615.31,21.11C619.6,21.11 623.88,21.12 628.17,21.12C632.45,21.12 636.74,21.11 641.02,21.11C645.3,21.11 649.59,21.11 653.87,21.11C658.16,21.11 662.44,21.11 666.73,21.11C671.01,21.11 675.3,21.1 679.58,21.1C683.86,21.09 688.15,21.09 692.43,21.08C696.71,21.07 701,21.05 705.28,21.03C709.57,21 713.85,20.97 718.14,20.93C722.42,20.89 726.71,20.84 730.99,20.78C735.27,20.72 739.56,20.63 743.84,20.55C748.12,20.46 752.41,20.37 756.69,20.27C760.98,20.17 765.26,20.06 769.55,19.96C773.83,19.86 778.12,19.76 782.4,19.68C786.68,19.6 790.97,19.52 795.25,19.46C799.53,19.4 803.82,19.34 808.1,19.31C812.39,19.27 816.67,19.26 820.96,19.25C825.24,19.24 829.53,19.23 833.81,19.23C838.09,19.23 842.38,19.25 846.66,19.27C850.94,19.3 855.23,19.33 859.51,19.38C863.8,19.43 868.08,19.49 872.37,19.56C876.65,19.63 880.94,19.71 885.22,19.8C889.5,19.89 893.79,19.99 898.07,20.08C902.36,20.17 906.64,20.25 910.93,20.32C915.21,20.39 919.5,20.45 923.78,20.48C928.06,20.51 932.35,20.51 936.63,20.5C940.91,20.49 945.2,20.44 949.48,20.39C953.77,20.34 958.05,20.26 962.34,20.19C966.62,20.12 970.91,20.04 975.19,19.97C979.47,19.91 983.76,19.84 988.04,19.8C992.32,19.76 996.61,19.74 1000.89,19.74C1005.18,19.74 1009.46,19.77 1013.75,19.82C1018.03,19.87 1022.32,19.95 1026.6,20.03C1030.88,20.11 1035.17,20.2 1039.45,20.29C1043.73,20.38 1048.02,20.48 1052.3,20.56C1056.59,20.64 1060.87,20.72 1065.16,20.78Q1069.44,20.84 1078.01,20.93L1078.01,21.3Q1069.44,21.4 1065.16,21.46C1060.87,21.52 1056.59,21.59 1052.3,21.67C1048.02,21.75 1043.73,21.85 1039.45,21.94C1035.17,22.03 1030.88,22.12 1026.6,22.2C1022.32,22.28 1018.03,22.36 1013.75,22.41C1009.46,22.46 1005.18,22.49 1000.89,22.49C996.61,22.49 992.32,22.48 988.04,22.44C983.76,22.4 979.47,22.33 975.19,22.26C970.91,22.19 966.62,22.11 962.34,22.04C958.05,21.97 953.77,21.89 949.48,21.84C945.2,21.79 940.91,21.74 936.63,21.73C932.35,21.72 928.06,21.73 923.78,21.76C919.5,21.79 915.21,21.85 910.93,21.91C906.64,21.98 902.36,22.06 898.07,22.15C893.79,22.24 889.5,22.34 885.22,22.43C880.94,22.52 876.65,22.6 872.37,22.67C868.08,22.74 863.8,22.8 859.51,22.85C855.23,22.9 850.94,22.93 846.66,22.96C842.38,22.98 838.09,23 833.81,23C829.53,23 825.24,22.99 820.96,22.98C816.67,22.97 812.39,22.95 808.1,22.92C803.82,22.89 799.53,22.84 795.25,22.78C790.97,22.72 786.68,22.63 782.4,22.55C778.12,22.46 773.83,22.37 769.55,22.27C765.26,22.17 760.98,22.06 756.69,21.96C752.41,21.86 748.12,21.76 743.84,21.68C739.56,21.6 735.27,21.52 730.99,21.46C726.71,21.4 722.42,21.34 718.14,21.3C713.85,21.26 709.57,21.24 705.28,21.21C701,21.19 696.71,21.16 692.43,21.15C688.15,21.14 683.86,21.14 679.58,21.13C675.3,21.13 671.01,21.12 666.73,21.12C662.44,21.12 658.16,21.12 653.87,21.12C649.59,21.12 645.3,21.12 641.02,21.12C636.74,21.12 632.45,21.12 628.17,21.12C623.88,21.12 619.6,21.12 615.31,21.12C611.03,21.12 606.74,21.12 602.46,21.12C598.18,21.12 593.89,21.12 589.61,21.12C585.33,21.12 581.04,21.13 576.76,21.13C572.47,21.14 568.19,21.14 563.9,21.15C559.62,21.16 555.33,21.17 551.05,21.19C546.77,21.21 542.48,21.23 538.2,21.27C533.92,21.31 529.63,21.35 525.35,21.41C521.06,21.47 516.78,21.54 512.49,21.62C508.21,21.7 503.92,21.79 499.64,21.88C495.36,21.97 491.07,22.07 486.79,22.15C482.51,22.23 478.22,22.32 473.94,22.37C469.65,22.43 465.37,22.47 461.08,22.48C456.8,22.49 452.51,22.48 448.23,22.45C443.95,22.42 439.66,22.36 435.38,22.29C431.09,22.22 426.81,22.13 422.52,22.04C418.24,21.96 413.95,21.86 409.67,21.78C405.39,21.7 401.1,21.62 396.82,21.56C392.54,21.5 388.25,21.46 383.97,21.44C379.68,21.42 375.4,21.42 371.11,21.46C366.83,21.5 362.54,21.55 358.26,21.65C353.98,21.75 349.69,21.88 345.41,22.06C341.13,22.24 336.84,22.47 332.56,22.74C328.27,23.01 323.98,23.34 319.7,23.7C315.41,24.06 311.13,24.48 306.85,24.91C302.57,25.34 298.28,25.82 294,26.29C289.72,26.76 285.43,27.26 281.15,27.75C276.86,28.24 272.58,28.74 268.29,29.24C264.01,29.74 259.72,30.24 255.44,30.74C251.16,31.25 246.87,31.77 242.59,32.27C238.3,32.77 234.02,33.29 229.73,33.75C225.45,34.21 221.17,34.67 216.88,35.02C212.6,35.36 208.32,35.67 204.03,35.82C199.75,35.97 195.46,36.02 191.18,35.9C186.89,35.78 182.6,35.51 178.32,35.12C174.03,34.73 169.75,34.18 165.47,33.57C161.18,32.96 156.9,32.21 152.62,31.48C148.33,30.75 144.06,29.95 139.77,29.21C135.49,28.47 131.2,27.71 126.91,27.04C122.63,26.37 118.35,25.73 114.06,25.18C109.78,24.63 105.5,24.14 101.21,23.72C96.93,23.3 92.65,22.96 88.36,22.67C84.08,22.38 79.79,22.17 75.5,21.98Q71.22,21.79 62.65,21.55Z" style="vector-effect: none; stroke-width: 2px; stroke: rgb(181, 181, 181); stroke-opacity: 1; fill: rgb(181, 181, 181); fill-opacity: 1;"/><path class="box" d="M219.81,24.81V17.42M185.89,24.81V17.42H276.35V24.81ZM185.89,21.12H140.66M276.35,21.12H276.35" style="vector-effect: non-scaling-stroke; stroke-width: 2px; stroke: rgb(181, 181, 181); stroke-opacity: 1; fill: rgb(181, 181, 181); fill-opacity: 1;"/><path class="mean" d="M321.57,24.81V17.42" style="fill: none; vector-effect: non-scaling-stroke; stroke-width: 2px; stroke-dasharray: 4px, 2px; stroke: rgb(181, 181, 181); stroke-opacity: 1;"/></g></g><g class="scatterlayer mlayer"><g class="trace scatter tracecc16f8" style="stroke-miterlimit: 2; opacity: 1;"><g class="fills"/><g class="errorbars"/><g class="lines"/><g class="points"><path class="point" transform="translate(1000,21.12)" d="M2,0A2,2 0 1,1 0,-2A2,2 0 0,1 2,0Z" style="opacity: 1; stroke-width: 0px; fill: rgb(11, 121, 230); fill-opacity: 1;"/></g><g class="text"/></g><g class="trace scatter trace8ee876" style="stroke-miterlimit: 2; opacity: 1;"><g class="fills"/><g class="errorbars"/><g class="lines"/><g class="points"><path class="point" transform="translate(864.31,21.12)" d="M2,0A2,2 0 1,1 0,-2A2,2 0 0,1 2,0Z" style="opacity: 1; stroke-width: 0px; fill: rgb(11, 121, 230); fill-opacity: 1;"/></g><g class="text"/></g><g class="trace scatter trace875e78" style="stroke-miterlimit: 2; opacity: 1;"><g class="fills"/><g class="errorbars"/><g class="lines"/><g class="points"><path class="point" transform="translate(796.47,21.12)" d="M2,0A2,2 0 1,1 0,-2A2,2 0 0,1 2,0Z" style="opacity: 1; stroke-width: 0px; fill: rgb(11, 121, 230); fill-opacity: 1;"/></g><g class="text"/></g><g class="trace scatter tracebfe72d" style="stroke-miterlimit: 2; opacity: 1;"><g class="fills"/><g class="errorbars"/><g class="lines"/><g class="points"><path class="point" transform="translate(457.26,21.12)" d="M2,0A2,2 0 1,1 0,-2A2,2 0 0,1 2,0Z" style="opacity: 1; stroke-width: 0px; fill: rgb(11, 121, 230); fill-opacity: 1;"/></g><g class="text"/></g><g class="trace scatter trace93ec77" style="stroke-miterlimit: 2; opacity: 1;"><g class="fills"/><g class="errorbars"/><g class="lines"/><g class="points"><path class="point" transform="translate(276.35,21.12)" d="M2,0A2,2 0 1,1 0,-2A2,2 0 0,1 2,0Z" style="opacity: 1; stroke-width: 0px; fill: rgb(11, 121, 230); fill-opacity: 1;"/></g><g class="text"/></g><g class="trace scatter tracee19638" style="stroke-miterlimit: 2; opacity: 1;"><g class="fills"/><g class="errorbars"/><g class="lines"/><g class="points"><path class="point" transform="translate(276.35,21.12)" d="M2,0A2,2 0 1,1 0,-2A2,2 0 0,1 2,0Z" style="opacity: 1; stroke-width: 0px; fill: rgb(11, 121, 230); fill-opacity: 1;"/></g><g class="text"/></g><g class="trace scatter trace8a9be2" style="stroke-miterlimit: 2; opacity: 1;"><g class="fills"/><g class="errorbars"/><g class="lines"/><g class="points"><path class="point" transform="translate(276.35,21.12)" d="M2,0A2,2 0 1,1 0,-2A2,2 0 0,1 2,0Z" style="opacity: 1; stroke-width: 0px; fill: rgb(11, 121, 230); fill-opacity: 1;"/></g><g class="text"/></g><g class="trace scatter traced716ba" style="stroke-miterlimit: 2; opacity: 1;"><g class="fills"/><g class="errorbars"/><g class="lines"/><g class="points"><path class="point" transform="translate(231.12,21.12)" d="M2,0A2,2 0 1,1 0,-2A2,2 0 0,1 2,0Z" style="opacity: 1; stroke-width: 0px; fill: rgb(11, 121, 230); fill-opacity: 1;"/></g><g class="text"/></g><g class="trace scatter trace01f3da" style="stroke-miterlimit: 2; opacity: 1;"><g class="fills"/><g class="errorbars"/><g class="lines"/><g class="points"><path class="point" transform="translate(231.12,21.12)" d="M2,0A2,2 0 1,1 0,-2A2,2 0 0,1 2,0Z" style="opacity: 1; stroke-width: 0px; fill: rgb(11, 121, 230); fill-opacity: 1;"/></g><g class="text"/></g><g class="trace scatter traceb85687" style="stroke-miterlimit: 2; opacity: 1;"><g class="fills"/><g class="errorbars"/><g class="lines"/><g class="points"><path class="point" transform="translate(231.12,21.12)" d="M2,0A2,2 0 1,1 0,-2A2,2 0 0,1 2,0Z" style="opacity: 1; stroke-width: 0px; fill: rgb(11, 121, 230); fill-opacity: 1;"/></g><g class="text"/></g><g class="trace scatter traced0e2ce" style="stroke-miterlimit: 2; opacity: 1;"><g class="fills"/><g class="errorbars"/><g class="lines"/><g class="points"><path class="point" transform="translate(208.5,21.12)" d="M2,0A2,2 0 1,1 0,-2A2,2 0 0,1 2,0Z" style="opacity: 1; stroke-width: 0px; fill: rgb(11, 121, 230); fill-opacity: 1;"/></g><g class="text"/></g><g class="trace scatter traceb96a93" style="stroke-miterlimit: 2; opacity: 1;"><g class="fills"/><g class="errorbars"/><g class="lines"/><g class="points"><path class="point" transform="translate(185.89,21.12)" d="M2,0A2,2 0 1,1 0,-2A2,2 0 0,1 2,0Z" style="opacity: 1; stroke-width: 0px; fill: rgb(11, 121, 230); fill-opacity: 1;"/></g><g class="text"/></g><g class="trace scatter traceba6247" style="stroke-miterlimit: 2; opacity: 1;"><g class="fills"/><g class="errorbars"/><g class="lines"/><g class="points"><path class="point" transform="translate(185.89,21.12)" d="M2,0A2,2 0 1,1 0,-2A2,2 0 0,1 2,0Z" style="opacity: 1; stroke-width: 0px; fill: rgb(11, 121, 230); fill-opacity: 1;"/></g><g class="text"/></g><g class="trace scatter traceaf61ec" style="stroke-miterlimit: 2; opacity: 1;"><g class="fills"/><g class="errorbars"/><g class="lines"/><g class="points"><path class="point" transform="translate(185.89,21.12)" d="M2,0A2,2 0 1,1 0,-2A2,2 0 0,1 2,0Z" style="opacity: 1; stroke-width: 0px; fill: rgb(11, 121, 230); fill-opacity: 1;"/></g><g class="text"/></g><g class="trace scatter tracef2ff62" style="stroke-miterlimit: 2; opacity: 1;"><g class="fills"/><g class="errorbars"/><g class="lines"/><g class="points"><path class="point" transform="translate(185.89,21.12)" d="M2,0A2,2 0 1,1 0,-2A2,2 0 0,1 2,0Z" style="opacity: 1; stroke-width: 0px; fill: rgb(11, 121, 230); fill-opacity: 1;"/></g><g class="text"/></g><g class="trace scatter tracefb2ef0" style="stroke-miterlimit: 2; opacity: 1;"><g class="fills"/><g class="errorbars"/><g class="lines"/><g class="points"><path class="point" transform="translate(185.89,21.12)" d="M2,0A2,2 0 1,1 0,-2A2,2 0 0,1 2,0Z" style="opacity: 1; stroke-width: 0px; fill: rgb(11, 121, 230); fill-opacity: 1;"/></g><g class="text"/></g><g class="trace scatter trace9516c6" style="stroke-miterlimit: 2; opacity: 1;"><g class="fills"/><g class="errorbars"/><g class="lines"/><g class="points"><path class="point" transform="translate(185.89,21.12)" d="M2,0A2,2 0 1,1 0,-2A2,2 0 0,1 2,0Z" style="opacity: 1; stroke-width: 0px; fill: rgb(11, 121, 230); fill-opacity: 1;"/></g><g class="text"/></g><g class="trace scatter traceac4fc1" style="stroke-miterlimit: 2; opacity: 1;"><g class="fills"/><g class="errorbars"/><g class="lines"/><g class="points"><path class="point" transform="translate(185.89,21.12)" d="M2,0A2,2 0 1,1 0,-2A2,2 0 0,1 2,0Z" style="opacity: 1; stroke-width: 0px; fill: rgb(11, 121, 230); fill-opacity: 1;"/></g><g class="text"/></g><g class="trace scatter tracec1020f" style="stroke-miterlimit: 2; opacity: 1;"><g class="fills"/><g class="errorbars"/><g class="lines"/><g class="points"><path class="point" transform="translate(140.66,21.12)" d="M2,0A2,2 0 1,1 0,-2A2,2 0 0,1 2,0Z" style="opacity: 1; stroke-width: 0px; fill: rgb(11, 121, 230); fill-opacity: 1;"/></g><g class="text"/></g><g class="trace scatter trace73cf5a" style="stroke-miterlimit: 2; opacity: 1;"><g class="fills"/><g class="errorbars"/><g class="lines"/><g class="points"><path class="point" transform="translate(140.66,21.12)" d="M2,0A2,2 0 1,1 0,-2A2,2 0 0,1 2,0Z" style="opacity: 1; stroke-width: 0px; fill: rgb(11, 121, 230); fill-opacity: 1;"/></g><g class="text"/></g></g></g></g><path class="xlines-above crisp" d="M0,0" style="fill: none;"/><path class="ylines-above crisp" d="M0,0" style="fill: none;"/><g class="overlines-above"/><g class="xaxislayer-above"><g class="xtick"><text text-anchor="middle" x="0" y="102.23076923076925" transform="translate(84.98,0)" style="font-family: 'Lucida Grande', 'Open Sans', verdana, arial, sans-serif; font-size: 9px; fill: rgb(0, 0, 0); fill-opacity: 0.5; white-space: pre; opacity: 1;">0</text></g><g class="xtick"><text text-anchor="middle" x="0" y="102.23076923076925" style="font-family: 'Lucida Grande', 'Open Sans', verdana, arial, sans-serif; font-size: 9px; fill: rgb(0, 0, 0); fill-opacity: 0.5; white-space: pre; opacity: 1;" transform="translate(198.05,0)">5</text></g><g class="xtick"><text text-anchor="middle" x="0" y="102.23076923076925" style="font-family: 'Lucida Grande', 'Open Sans', verdana, arial, sans-serif; font-size: 9px; fill: rgb(0, 0, 0); fill-opacity: 0.5; white-space: pre; opacity: 1;" transform="translate(311.12,0)">10</text></g><g class="xtick"><text text-anchor="middle" x="0" y="102.23076923076925" style="font-family: 'Lucida Grande', 'Open Sans', verdana, arial, sans-serif; font-size: 9px; fill: rgb(0, 0, 0); fill-opacity: 0.5; white-space: pre; opacity: 1;" transform="translate(424.19,0)">15</text></g><g class="xtick"><text text-anchor="middle" x="0" y="102.23076923076925" style="font-family: 'Lucida Grande', 'Open Sans', verdana, arial, sans-serif; font-size: 9px; fill: rgb(0, 0, 0); fill-opacity: 0.5; white-space: pre; opacity: 1;" transform="translate(537.26,0)">20</text></g><g class="xtick"><text text-anchor="middle" x="0" y="102.23076923076925" style="font-family: 'Lucida Grande', 'Open Sans', verdana, arial, sans-serif; font-size: 9px; fill: rgb(0, 0, 0); fill-opacity: 0.5; white-space: pre; opacity: 1;" transform="translate(650.33,0)">25</text></g><g class="xtick"><text text-anchor="middle" x="0" y="102.23076923076925" style="font-family: 'Lucida Grande', 'Open Sans', verdana, arial, sans-serif; font-size: 9px; fill: rgb(0, 0, 0); fill-opacity: 0.5; white-space: pre; opacity: 1;" transform="translate(763.4,0)">30</text></g><g class="xtick"><text text-anchor="middle" x="0" y="102.23076923076925" style="font-family: 'Lucida Grande', 'Open Sans', verdana, arial, sans-serif; font-size: 9px; fill: rgb(0, 0, 0); fill-opacity: 0.5; white-space: pre; opacity: 1;" transform="translate(876.47,0)">35</text></g><g class="xtick"><text text-anchor="middle" x="0" y="102.23076923076925" style="font-family: 'Lucida Grande', 'Open Sans', verdana, arial, sans-serif; font-size: 9px; fill: rgb(0, 0, 0); fill-opacity: 0.5; white-space: pre; opacity: 1;" transform="translate(989.54,0)">40</text></g></g><g class="yaxislayer-above"><g class="ytick"><text text-anchor="end" x="79" y="3.15" transform="translate(0,71.12000000000002)" style="font-family: 'Lucida Grande', 'Open Sans', verdana, arial, sans-serif; font-size: 9px; fill: rgb(0, 0, 0); fill-opacity: 0.5; white-space: pre; opacity: 1;">Reports  </text></g></g><g class="overaxes-above"/></g><g class="subplot x2y2"><g class="layer-subplot"><g class="shapelayer"/><g class="imagelayer"/></g><g class="minor-gridlayer"><g class="x2"/><g class="y2"/></g><g class="gridlayer"><g class="x2"><path class="x2grid crisp" transform="translate(252.46,0)" d="M0,120.3846153846154v42.230769230769226" style="stroke: rgb(0, 0, 0); stroke-opacity: 0.1; stroke-width: 1px;"/><path class="x2grid crisp" transform="translate(419.95,0)" d="M0,120.3846153846154v42.230769230769226" style="stroke: rgb(0, 0, 0); stroke-opacity: 0.1; stroke-width: 1px;"/><path class="x2grid crisp" transform="translate(587.4300000000001,0)" d="M0,120.3846153846154v42.230769230769226" style="stroke: rgb(0, 0, 0); stroke-opacity: 0.1; stroke-width: 1px;"/><path class="x2grid crisp" transform="translate(754.92,0)" d="M0,120.3846153846154v42.230769230769226" style="stroke: rgb(0, 0, 0); stroke-opacity: 0.1; stroke-width: 1px;"/><path class="x2grid crisp" transform="translate(922.41,0)" d="M0,120.3846153846154v42.230769230769226" style="stroke: rgb(0, 0, 0); stroke-opacity: 0.1; stroke-width: 1px;"/></g><g class="y2"><path class="y2grid crisp" transform="translate(0,141.5046153846154)" d="M80,0h1005" style="stroke: rgb(0, 0, 0); stroke-opacity: 0.1; stroke-width: 1px;"/></g></g><g class="zerolinelayer"><path class="x2zl zl crisp" transform="translate(84.98,0)" d="M0,120.3846153846154v42.230769230769226" style="stroke: rgb(0, 0, 0); stroke-opacity: 0.1; stroke-width: 2px;"/></g><g class="layer-between"><g class="shapelayer"/><g class="imagelayer"/></g><path class="xlines-below"/><path class="ylines-below"/><g class="overlines-below"/><g class="xaxislayer-below"/><g class="yaxislayer-below"/><g class="overaxes-below"/><g class="overplot"><g class="x2y2" transform="translate(80,120.3846153846154)" clip-path="url(#clipe7ed51x2y2plot)"><g class="violinlayer mlayer"><g class="trace violins" style="opacity: 0.5;"><path class="violin" d="M-14.95,20.27Q-10.99,19.79 -9.02,19.42C-7.03,19.04 -5.05,18.58 -3.08,18.02C-1.09,17.45 0.89,16.76 2.85,16.02C4.84,15.27 6.82,14.39 8.79,13.53C10.77,12.67 12.73,11.7 14.72,10.86C16.69,10.02 18.66,9.16 20.66,8.49C22.62,7.84 24.61,7.24 26.6,6.88C28.56,6.53 30.55,6.34 32.53,6.33C34.51,6.32 36.5,6.54 38.47,6.84C40.46,7.14 42.43,7.63 44.4,8.13C46.39,8.63 48.36,9.26 50.34,9.85C52.32,10.44 54.29,11.08 56.27,11.68C58.25,12.28 60.23,12.88 62.21,13.44C64.18,14 66.16,14.54 68.14,15.05C70.12,15.56 72.1,16.05 74.08,16.51C76.06,16.97 78.04,17.4 80.02,17.79C81.99,18.18 83.97,18.55 85.95,18.87C87.93,19.19 89.91,19.46 91.89,19.7C93.87,19.93 95.84,20.13 97.82,20.28C99.8,20.43 101.78,20.54 103.76,20.62C105.74,20.7 107.71,20.74 109.69,20.76C111.67,20.78 113.65,20.77 115.63,20.74C117.61,20.71 119.58,20.66 121.56,20.6C123.54,20.54 125.52,20.45 127.5,20.36C129.48,20.27 131.45,20.17 133.43,20.08C135.41,19.99 137.39,19.89 139.37,19.81C141.35,19.73 143.33,19.65 145.31,19.59C147.29,19.53 149.26,19.48 151.24,19.44C153.22,19.4 155.2,19.37 157.18,19.36C159.16,19.35 161.13,19.35 163.11,19.36C165.09,19.37 167.07,19.39 169.05,19.43C171.03,19.47 173,19.52 174.98,19.58C176.96,19.64 178.94,19.72 180.92,19.8C182.9,19.88 184.87,19.99 186.85,20.08C188.83,20.18 190.81,20.28 192.79,20.37C194.77,20.46 196.75,20.54 198.73,20.62C200.71,20.69 202.68,20.76 204.66,20.82C206.64,20.88 208.62,20.92 210.6,20.96C212.58,21 214.55,21.02 216.53,21.04C218.51,21.06 220.49,21.07 222.47,21.08C224.45,21.09 226.42,21.1 228.4,21.1C230.38,21.11 232.36,21.11 234.34,21.11C236.32,21.11 238.29,21.11 240.27,21.11C242.25,21.11 244.23,21.12 246.21,21.12C248.19,21.12 250.17,21.12 252.15,21.12C254.13,21.12 256.1,21.12 258.08,21.12C260.06,21.12 262.04,21.12 264.02,21.12C266,21.12 267.97,21.12 269.95,21.12C271.93,21.12 273.91,21.12 275.89,21.12C277.87,21.12 279.84,21.12 281.82,21.12C283.8,21.12 285.78,21.12 287.76,21.12C289.74,21.12 291.71,21.12 293.69,21.12C295.67,21.12 297.65,21.12 299.63,21.12C301.61,21.12 303.58,21.12 305.56,21.12C307.54,21.12 309.52,21.12 311.5,21.12C313.48,21.12 315.46,21.12 317.44,21.12C319.42,21.12 321.39,21.12 323.37,21.12C325.35,21.12 327.33,21.12 329.31,21.12C331.29,21.12 333.26,21.12 335.24,21.12C337.22,21.12 339.2,21.12 341.18,21.12C343.16,21.12 345.13,21.12 347.11,21.12C349.09,21.12 351.07,21.12 353.05,21.12C355.03,21.12 357,21.12 358.98,21.12C360.96,21.12 362.94,21.12 364.92,21.12C366.9,21.12 368.88,21.12 370.86,21.12C372.84,21.12 374.81,21.12 376.79,21.12C378.77,21.12 380.75,21.12 382.73,21.12C384.71,21.12 386.68,21.12 388.66,21.12C390.64,21.12 392.62,21.11 394.6,21.11C396.58,21.11 398.55,21.11 400.53,21.11C402.51,21.11 404.49,21.11 406.47,21.11C408.45,21.11 410.42,21.11 412.4,21.1C414.38,21.09 416.36,21.08 418.34,21.07C420.32,21.06 422.3,21.05 424.28,21.02C426.26,21 428.23,20.96 430.21,20.92C432.19,20.88 434.17,20.83 436.15,20.77C438.13,20.71 440.1,20.63 442.08,20.56C444.06,20.48 446.04,20.4 448.02,20.32C450,20.24 451.97,20.16 453.95,20.1C455.93,20.04 457.91,19.97 459.89,19.94C461.87,19.91 463.84,19.9 465.82,19.91C467.8,19.92 469.78,19.95 471.76,20C473.74,20.05 475.71,20.13 477.69,20.2C479.67,20.27 481.65,20.36 483.63,20.44C485.61,20.52 487.59,20.6 489.57,20.67C491.55,20.74 493.52,20.8 495.5,20.85C497.48,20.9 499.46,20.95 501.44,20.98C503.42,21.01 505.39,21.03 507.37,21.05C509.35,21.07 511.33,21.08 513.31,21.09C515.29,21.1 517.26,21.1 519.24,21.1C521.22,21.1 523.2,21.11 525.18,21.11C527.16,21.11 529.13,21.11 531.11,21.11C533.09,21.11 535.07,21.12 537.05,21.12C539.03,21.12 541.01,21.12 542.99,21.12C544.97,21.12 546.94,21.12 548.92,21.12C550.9,21.12 552.88,21.12 554.86,21.12C556.84,21.12 558.81,21.12 560.79,21.12C562.77,21.12 564.75,21.12 566.73,21.12C568.71,21.12 570.68,21.12 572.66,21.12C574.64,21.12 576.62,21.12 578.6,21.12C580.58,21.12 582.55,21.12 584.53,21.12C586.51,21.12 588.49,21.12 590.47,21.12C592.45,21.12 594.43,21.12 596.41,21.12C598.39,21.12 600.36,21.12 602.34,21.12C604.32,21.12 606.3,21.12 608.28,21.12C610.26,21.12 612.23,21.12 614.21,21.12C616.19,21.12 618.17,21.12 620.15,21.12C622.13,21.12 624.1,21.12 626.08,21.12C628.06,21.12 630.04,21.12 632.02,21.12C634,21.12 635.97,21.12 637.95,21.12C639.93,21.12 641.91,21.12 643.89,21.12C645.87,21.12 647.84,21.12 649.82,21.12C651.8,21.12 653.78,21.12 655.76,21.12C657.74,21.12 659.72,21.12 661.7,21.12C663.68,21.12 665.65,21.12 667.63,21.12C669.61,21.12 671.59,21.12 673.57,21.12C675.55,21.12 677.52,21.12 679.5,21.12C681.48,21.12 683.46,21.12 685.44,21.12C687.42,21.12 689.39,21.12 691.37,21.12C693.35,21.12 695.33,21.12 697.31,21.12C699.29,21.12 701.26,21.12 703.24,21.12C705.22,21.12 707.2,21.12 709.18,21.12C711.16,21.12 713.14,21.12 715.12,21.12C717.1,21.12 719.07,21.12 721.05,21.12C723.03,21.12 725.01,21.12 726.99,21.12C728.97,21.12 730.94,21.12 732.92,21.12C734.9,21.12 736.88,21.12 738.86,21.12C740.84,21.12 742.81,21.12 744.79,21.12C746.77,21.12 748.75,21.12 750.73,21.12C752.71,21.12 754.68,21.12 756.66,21.12C758.64,21.12 760.62,21.12 762.6,21.12C764.58,21.12 766.56,21.12 768.54,21.12C770.52,21.12 772.49,21.12 774.47,21.12C776.45,21.12 778.43,21.12 780.41,21.12C782.39,21.12 784.36,21.12 786.34,21.12C788.32,21.12 790.3,21.12 792.28,21.12C794.26,21.12 796.23,21.12 798.21,21.12C800.19,21.12 802.17,21.12 804.15,21.12C806.13,21.12 808.1,21.12 810.08,21.12C812.06,21.12 814.04,21.12 816.02,21.12C818,21.12 819.97,21.12 821.95,21.12C823.93,21.12 825.91,21.12 827.89,21.12C829.87,21.12 831.85,21.12 833.83,21.12C835.81,21.12 837.78,21.12 839.76,21.12C841.74,21.12 843.72,21.12 845.7,21.12C847.68,21.12 849.65,21.12 851.63,21.12C853.61,21.12 855.59,21.12 857.57,21.12C859.55,21.12 861.52,21.12 863.5,21.12C865.48,21.12 867.46,21.12 869.44,21.12C871.42,21.12 873.39,21.12 875.37,21.12C877.35,21.12 879.33,21.12 881.31,21.12C883.29,21.12 885.27,21.12 887.25,21.12C889.23,21.12 891.2,21.12 893.18,21.12C895.16,21.12 897.14,21.12 899.12,21.12C901.1,21.12 903.07,21.12 905.05,21.12C907.03,21.12 909.01,21.12 910.99,21.12C912.97,21.12 914.94,21.12 916.92,21.12C918.9,21.12 920.88,21.12 922.86,21.12C924.84,21.12 926.81,21.11 928.79,21.11C930.77,21.11 932.75,21.11 934.73,21.11C936.71,21.11 938.68,21.11 940.66,21.11C942.64,21.11 944.62,21.1 946.6,21.1C948.58,21.09 950.56,21.09 952.54,21.08C954.52,21.07 956.49,21.06 958.47,21.04C960.45,21.02 962.43,20.99 964.41,20.95C966.39,20.91 968.36,20.86 970.34,20.81C972.32,20.75 974.3,20.69 976.28,20.62C978.26,20.55 980.23,20.46 982.21,20.38C984.19,20.3 986.17,20.22 988.15,20.15C990.13,20.08 992.1,20.01 994.08,19.97C996.06,19.93 998.04,19.91 1000.02,19.91C1002,19.91 1003.98,19.93 1005.96,19.97C1007.94,20.01 1009.91,20.08 1011.89,20.15C1013.87,20.22 1015.85,20.3 1017.83,20.38C1019.81,20.46 1021.78,20.55 1023.76,20.62C1025.74,20.69 1027.72,20.75 1029.7,20.81Q1031.68,20.86 1035.63,20.95L1035.63,21.28Q1031.68,21.37 1029.7,21.42C1027.72,21.48 1025.74,21.54 1023.76,21.61C1021.78,21.68 1019.81,21.77 1017.83,21.85C1015.85,21.93 1013.87,22.01 1011.89,22.08C1009.91,22.15 1007.94,22.22 1005.96,22.26C1003.98,22.3 1002,22.33 1000.02,22.33C998.04,22.33 996.06,22.3 994.08,22.26C992.1,22.22 990.13,22.16 988.15,22.09C986.17,22.02 984.19,21.93 982.21,21.85C980.23,21.77 978.26,21.68 976.28,21.61C974.3,21.54 972.32,21.48 970.34,21.42C968.36,21.37 966.39,21.32 964.41,21.28C962.43,21.24 960.45,21.22 958.47,21.2C956.49,21.18 954.52,21.16 952.54,21.15C950.56,21.14 948.58,21.14 946.6,21.13C944.62,21.13 942.64,21.12 940.66,21.12C938.68,21.12 936.71,21.12 934.73,21.12C932.75,21.12 930.77,21.12 928.79,21.12C926.81,21.12 924.84,21.12 922.86,21.12C920.88,21.12 918.9,21.12 916.92,21.12C914.94,21.12 912.97,21.12 910.99,21.12C909.01,21.12 907.03,21.12 905.05,21.12C903.07,21.12 901.1,21.12 899.12,21.12C897.14,21.12 895.16,21.12 893.18,21.12C891.2,21.12 889.23,21.12 887.25,21.12C885.27,21.12 883.29,21.12 881.31,21.12C879.33,21.12 877.35,21.12 875.37,21.12C873.39,21.12 871.42,21.12 869.44,21.12C867.46,21.12 865.48,21.12 863.5,21.12C861.52,21.12 859.55,21.12 857.57,21.12C855.59,21.12 853.61,21.12 851.63,21.12C849.65,21.12 847.68,21.12 845.7,21.12C843.72,21.12 841.74,21.12 839.76,21.12C837.78,21.12 835.81,21.12 833.83,21.12C831.85,21.12 829.87,21.12 827.89,21.12C825.91,21.12 823.93,21.12 821.95,21.12C819.97,21.12 818,21.12 816.02,21.12C814.04,21.12 812.06,21.12 810.08,21.12C808.1,21.12 806.13,21.12 804.15,21.12C802.17,21.12 800.19,21.12 798.21,21.12C796.23,21.12 794.26,21.12 792.28,21.12C790.3,21.12 788.32,21.12 786.34,21.12C784.36,21.12 782.39,21.12 780.41,21.12C778.43,21.12 776.45,21.12 774.47,21.12C772.49,21.12 770.52,21.12 768.54,21.12C766.56,21.12 764.58,21.12 762.6,21.12C760.62,21.12 758.64,21.12 756.66,21.12C754.68,21.12 752.71,21.12 750.73,21.12C748.75,21.12 746.77,21.12 744.79,21.12C742.81,21.12 740.84,21.12 738.86,21.12C736.88,21.12 734.9,21.12 732.92,21.12C730.94,21.12 728.97,21.12 726.99,21.12C725.01,21.12 723.03,21.12 721.05,21.12C719.07,21.12 717.1,21.12 715.12,21.12C713.14,21.12 711.16,21.12 709.18,21.12C707.2,21.12 705.22,21.12 703.24,21.12C701.26,21.12 699.29,21.12 697.31,21.12C695.33,21.12 693.35,21.12 691.37,21.12C689.39,21.12 687.42,21.12 685.44,21.12C683.46,21.12 681.48,21.12 679.5,21.12C677.52,21.12 675.55,21.12 673.57,21.12C671.59,21.12 669.61,21.12 667.63,21.12C665.65,21.12 663.68,21.12 661.7,21.12C659.72,21.12 657.74,21.12 655.76,21.12C653.78,21.12 651.8,21.12 649.82,21.12C647.84,21.12 645.87,21.12 643.89,21.12C641.91,21.12 639.93,21.12 637.95,21.12C635.97,21.12 634,21.12 632.02,21.12C630.04,21.12 628.06,21.12 626.08,21.12C624.1,21.12 622.13,21.12 620.15,21.12C618.17,21.12 616.19,21.12 614.21,21.12C612.23,21.12 610.26,21.12 608.28,21.12C606.3,21.12 604.32,21.12 602.34,21.12C600.36,21.12 598.39,21.12 596.41,21.12C594.43,21.12 592.45,21.12 590.47,21.12C588.49,21.12 586.51,21.12 584.53,21.12C582.55,21.12 580.58,21.12 578.6,21.12C576.62,21.12 574.64,21.12 572.66,21.12C570.68,21.12 568.71,21.12 566.73,21.12C564.75,21.12 562.77,21.12 560.79,21.12C558.81,21.12 556.84,21.12 554.86,21.12C552.88,21.12 550.9,21.12 548.92,21.12C546.94,21.12 544.97,21.12 542.99,21.12C541.01,21.12 539.03,21.12 537.05,21.12C535.07,21.12 533.09,21.12 531.11,21.12C529.13,21.12 527.16,21.12 525.18,21.12C523.2,21.12 521.22,21.13 519.24,21.13C517.26,21.13 515.29,21.13 513.31,21.14C511.33,21.15 509.35,21.16 507.37,21.18C505.39,21.2 503.42,21.23 501.44,21.26C499.46,21.29 497.48,21.33 495.5,21.38C493.52,21.43 491.55,21.49 489.57,21.56C487.59,21.63 485.61,21.71 483.63,21.79C481.65,21.87 479.67,21.96 477.69,22.03C475.71,22.1 473.74,22.18 471.76,22.23C469.78,22.28 467.8,22.31 465.82,22.32C463.84,22.33 461.87,22.32 459.89,22.29C457.91,22.26 455.93,22.19 453.95,22.13C451.97,22.07 450,21.99 448.02,21.91C446.04,21.83 444.06,21.75 442.08,21.67C440.1,21.6 438.13,21.52 436.15,21.46C434.17,21.4 432.19,21.35 430.21,21.31C428.23,21.27 426.26,21.23 424.28,21.21C422.3,21.18 420.32,21.17 418.34,21.16C416.36,21.15 414.38,21.14 412.4,21.13C410.42,21.12 408.45,21.12 406.47,21.12C404.49,21.12 402.51,21.12 400.53,21.12C398.55,21.12 396.58,21.12 394.6,21.12C392.62,21.12 390.64,21.12 388.66,21.12C386.68,21.12 384.71,21.12 382.73,21.12C380.75,21.12 378.77,21.12 376.79,21.12C374.81,21.12 372.84,21.12 370.86,21.12C368.88,21.12 366.9,21.12 364.92,21.12C362.94,21.12 360.96,21.12 358.98,21.12C357,21.12 355.03,21.12 353.05,21.12C351.07,21.12 349.09,21.12 347.11,21.12C345.13,21.12 343.16,21.12 341.18,21.12C339.2,21.12 337.22,21.12 335.24,21.12C333.26,21.12 331.29,21.12 329.31,21.12C327.33,21.12 325.35,21.12 323.37,21.12C321.39,21.12 319.42,21.12 317.44,21.12C315.46,21.12 313.48,21.12 311.5,21.12C309.52,21.12 307.54,21.12 305.56,21.12C303.58,21.12 301.61,21.12 299.63,21.12C297.65,21.12 295.67,21.12 293.69,21.12C291.71,21.12 289.74,21.12 287.76,21.12C285.78,21.12 283.8,21.12 281.82,21.12C279.84,21.12 277.87,21.12 275.89,21.12C273.91,21.12 271.93,21.12 269.95,21.12C267.97,21.12 266,21.12 264.02,21.12C262.04,21.12 260.06,21.12 258.08,21.12C256.1,21.12 254.13,21.12 252.15,21.12C250.17,21.12 248.19,21.12 246.21,21.12C244.23,21.12 242.25,21.12 240.27,21.12C238.29,21.12 236.32,21.12 234.34,21.12C232.36,21.12 230.38,21.12 228.4,21.13C226.42,21.13 224.45,21.14 222.47,21.15C220.49,21.16 218.51,21.17 216.53,21.19C214.55,21.21 212.58,21.23 210.6,21.27C208.62,21.31 206.64,21.35 204.66,21.41C202.68,21.47 200.71,21.53 198.73,21.61C196.75,21.69 194.77,21.78 192.79,21.87C190.81,21.96 188.83,22.06 186.85,22.15C184.87,22.24 182.9,22.35 180.92,22.43C178.94,22.51 176.96,22.59 174.98,22.65C173,22.71 171.03,22.76 169.05,22.8C167.07,22.84 165.09,22.86 163.11,22.87C161.13,22.88 159.16,22.88 157.18,22.87C155.2,22.86 153.22,22.83 151.24,22.79C149.26,22.75 147.29,22.7 145.31,22.64C143.33,22.58 141.35,22.5 139.37,22.42C137.39,22.34 135.41,22.24 133.43,22.15C131.45,22.06 129.48,21.96 127.5,21.87C125.52,21.78 123.54,21.69 121.56,21.63C119.58,21.57 117.61,21.52 115.63,21.49C113.65,21.46 111.67,21.45 109.69,21.47C107.71,21.49 105.74,21.53 103.76,21.61C101.78,21.69 99.8,21.8 97.82,21.95C95.84,22.1 93.86,22.29 91.89,22.53C89.91,22.77 87.93,23.05 85.95,23.37C83.97,23.69 81.99,24.05 80.02,24.44C78.04,24.83 76.06,25.26 74.08,25.72C72.1,26.18 70.12,26.67 68.14,27.18C66.16,27.69 64.18,28.23 62.21,28.79C60.23,29.35 58.25,29.95 56.27,30.55C54.29,31.15 52.32,31.79 50.34,32.38C48.36,32.97 46.39,33.6 44.4,34.1C42.43,34.6 40.46,35.09 38.47,35.39C36.5,35.69 34.51,35.91 32.53,35.9C30.55,35.89 28.56,35.7 26.6,35.35C24.61,34.99 22.62,34.4 20.66,33.75C18.66,33.08 16.69,32.21 14.72,31.37C12.73,30.53 10.77,29.56 8.79,28.7C6.82,27.84 4.84,26.96 2.85,26.21C0.89,25.47 -1.09,24.78 -3.08,24.21C-5.05,23.65 -7.03,23.19 -9.02,22.81Q-10.99,22.44 -14.95,21.96Z" style="vector-effect: none; stroke-width: 2px; stroke: rgb(181, 181, 181); stroke-opacity: 1; fill: rgb(181, 181, 181); fill-opacity: 1;"/><path class="box" d="M38.24,24.81V17.42M27.52,24.81V17.42H68.84V24.81ZM27.52,21.12H20.68M68.84,21.12H69.42" style="vector-effect: non-scaling-stroke; stroke-width: 2px; stroke: rgb(181, 181, 181); stroke-opacity: 1; fill: rgb(181, 181, 181); fill-opacity: 1;"/><path class="mean" d="M119.48,24.81V17.42" style="fill: none; vector-effect: non-scaling-stroke; stroke-width: 2px; stroke-dasharray: 4px, 2px; stroke: rgb(181, 181, 181); stroke-opacity: 1;"/></g></g><g class="scatterlayer mlayer"><g class="trace scatter trace233721" style="stroke-miterlimit: 2; opacity: 1;"><g class="fills"/><g class="errorbars"/><g class="lines"/><g class="points"><path class="point" transform="translate(1000,21.12)" d="M2,0A2,2 0 1,1 0,-2A2,2 0 0,1 2,0Z" style="opacity: 1; stroke-width: 0px; fill: rgb(11, 121, 230); fill-opacity: 1;"/></g><g class="text"/></g><g class="trace scatter trace56b5d3" style="stroke-miterlimit: 2; opacity: 1;"><g class="fills"/><g class="errorbars"/><g class="lines"/><g class="points"><path class="point" transform="translate(464.43,21.12)" d="M2,0A2,2 0 1,1 0,-2A2,2 0 0,1 2,0Z" style="opacity: 1; stroke-width: 0px; fill: rgb(11, 121, 230); fill-opacity: 1;"/></g><g class="text"/></g><g class="trace scatter tracea1f365" style="stroke-miterlimit: 2; opacity: 1;"><g class="fills"/><g class="errorbars"/><g class="lines"/><g class="points"><path class="point" transform="translate(174.43,21.12)" d="M2,0A2,2 0 1,1 0,-2A2,2 0 0,1 2,0Z" style="opacity: 1; stroke-width: 0px; fill: rgb(11, 121, 230); fill-opacity: 1;"/></g><g class="text"/></g><g class="trace scatter tracec1ac94" style="stroke-miterlimit: 2; opacity: 1;"><g class="fills"/><g class="errorbars"/><g class="lines"/><g class="points"><path class="point" transform="translate(146.06,21.12)" d="M2,0A2,2 0 1,1 0,-2A2,2 0 0,1 2,0Z" style="opacity: 1; stroke-width: 0px; fill: rgb(11, 121, 230); fill-opacity: 1;"/></g><g class="text"/></g><g class="trace scatter trace40633a" style="stroke-miterlimit: 2; opacity: 1;"><g class="fills"/><g class="errorbars"/><g class="lines"/><g class="points"><path class="point" transform="translate(68.27,21.12)" d="M2,0A2,2 0 1,1 0,-2A2,2 0 0,1 2,0Z" style="opacity: 1; stroke-width: 0px; fill: rgb(11, 121, 230); fill-opacity: 1;"/></g><g class="text"/></g><g class="trace scatter trace9d6529" style="stroke-miterlimit: 2; opacity: 1;"><g class="fills"/><g class="errorbars"/><g class="lines"/><g class="points"><path class="point" transform="translate(51.35,21.12)" d="M2,0A2,2 0 1,1 0,-2A2,2 0 0,1 2,0Z" style="opacity: 1; stroke-width: 0px; fill: rgb(11, 121, 230); fill-opacity: 1;"/></g><g class="text"/></g><g class="trace scatter trace2d5c5c" style="stroke-miterlimit: 2; opacity: 1;"><g class="fills"/><g class="errorbars"/><g class="lines"/><g class="points"><path class="point" transform="translate(28.23,21.12)" d="M2,0A2,2 0 1,1 0,-2A2,2 0 0,1 2,0Z" style="opacity: 1; stroke-width: 0px; fill: rgb(11, 121, 230); fill-opacity: 1;"/></g><g class="text"/></g><g class="trace scatter tracef200be" style="stroke-miterlimit: 2; opacity: 1;"><g class="fills"/><g class="errorbars"/><g class="lines"/><g class="points"><path class="point" transform="translate(42.9,21.12)" d="M2,0A2,2 0 1,1 0,-2A2,2 0 0,1 2,0Z" style="opacity: 1; stroke-width: 0px; fill: rgb(11, 121, 230); fill-opacity: 1;"/></g><g class="text"/></g><g class="trace scatter traced0babb" style="stroke-miterlimit: 2; opacity: 1;"><g class="fills"/><g class="errorbars"/><g class="lines"/><g class="points"><path class="point" transform="translate(43.39,21.12)" d="M2,0A2,2 0 1,1 0,-2A2,2 0 0,1 2,0Z" style="opacity: 1; stroke-width: 0px; fill: rgb(11, 121, 230); fill-opacity: 1;"/></g><g class="text"/></g><g class="trace scatter traced1a779" style="stroke-miterlimit: 2; opacity: 1;"><g class="fills"/><g class="errorbars"/><g class="lines"/><g class="points"><path class="point" transform="translate(25.76,21.12)" d="M2,0A2,2 0 1,1 0,-2A2,2 0 0,1 2,0Z" style="opacity: 1; stroke-width: 0px; fill: rgb(11, 121, 230); fill-opacity: 1;"/></g><g class="text"/></g><g class="trace scatter trace979338" style="stroke-miterlimit: 2; opacity: 1;"><g class="fills"/><g class="errorbars"/><g class="lines"/><g class="points"><path class="point" transform="translate(26.82,21.12)" d="M2,0A2,2 0 1,1 0,-2A2,2 0 0,1 2,0Z" style="opacity: 1; stroke-width: 0px; fill: rgb(11, 121, 230); fill-opacity: 1;"/></g><g class="text"/></g><g class="trace scatter traceea0e0d" style="stroke-miterlimit: 2; opacity: 1;"><g class="fills"/><g class="errorbars"/><g class="lines"/><g class="points"><path class="point" transform="translate(69.42,21.12)" d="M2,0A2,2 0 1,1 0,-2A2,2 0 0,1 2,0Z" style="opacity: 1; stroke-width: 0px; fill: rgb(11, 121, 230); fill-opacity: 1;"/></g><g class="text"/></g><g class="trace scatter trace91dd3c" style="stroke-miterlimit: 2; opacity: 1;"><g class="fills"/><g class="errorbars"/><g class="lines"/><g class="points"><path class="point" transform="translate(57.38,21.12)" d="M2,0A2,2 0 1,1 0,-2A2,2 0 0,1 2,0Z" style="opacity: 1; stroke-width: 0px; fill: rgb(11, 121, 230); fill-opacity: 1;"/></g><g class="text"/></g><g class="trace scatter trace60dd5a" style="stroke-miterlimit: 2; opacity: 1;"><g class="fills"/><g class="errorbars"/><g class="lines"/><g class="points"><path class="point" transform="translate(21.43,21.12)" d="M2,0A2,2 0 1,1 0,-2A2,2 0 0,1 2,0Z" style="opacity: 1; stroke-width: 0px; fill: rgb(11, 121, 230); fill-opacity: 1;"/></g><g class="text"/></g><g class="trace scatter trace82e18d" style="stroke-miterlimit: 2; opacity: 1;"><g class="fills"/><g class="errorbars"/><g class="lines"/><g class="points"><path class="point" transform="translate(23.93,21.12)" d="M2,0A2,2 0 1,1 0,-2A2,2 0 0,1 2,0Z" style="opacity: 1; stroke-width: 0px; fill: rgb(11, 121, 230); fill-opacity: 1;"/></g><g class="text"/></g><g class="trace scatter traced67f67" style="stroke-miterlimit: 2; opacity: 1;"><g class="fills"/><g class="errorbars"/><g class="lines"/><g class="points"><path class="point" transform="translate(29.87,21.12)" d="M2,0A2,2 0 1,1 0,-2A2,2 0 0,1 2,0Z" style="opacity: 1; stroke-width: 0px; fill: rgb(11, 121, 230); fill-opacity: 1;"/></g><g class="text"/></g><g class="trace scatter traceddf7c2" style="stroke-miterlimit: 2; opacity: 1;"><g class="fills"/><g class="errorbars"/><g class="lines"/><g class="points"><path class="point" transform="translate(29.68,21.12)" d="M2,0A2,2 0 1,1 0,-2A2,2 0 0,1 2,0Z" style="opacity: 1; stroke-width: 0px; fill: rgb(11, 121, 230); fill-opacity: 1;"/></g><g class="text"/></g><g class="trace scatter trace87e4f9" style="stroke-miterlimit: 2; opacity: 1;"><g class="fills"/><g class="errorbars"/><g class="lines"/><g class="points"><path class="point" transform="translate(31.97,21.12)" d="M2,0A2,2 0 1,1 0,-2A2,2 0 0,1 2,0Z" style="opacity: 1; stroke-width: 0px; fill: rgb(11, 121, 230); fill-opacity: 1;"/></g><g class="text"/></g><g class="trace scatter trace290afe" style="stroke-miterlimit: 2; opacity: 1;"><g class="fills"/><g class="errorbars"/><g class="lines"/><g class="points"><path class="point" transform="translate(33.59,21.12)" d="M2,0A2,2 0 1,1 0,-2A2,2 0 0,1 2,0Z" style="opacity: 1; stroke-width: 0px; fill: rgb(11, 121, 230); fill-opacity: 1;"/></g><g class="text"/></g><g class="trace scatter trace1a30bc" style="stroke-miterlimit: 2; opacity: 1;"><g class="fills"/><g class="errorbars"/><g class="lines"/><g class="points"><path class="point" transform="translate(20.68,21.12)" d="M2,0A2,2 0 1,1 0,-2A2,2 0 0,1 2,0Z" style="opacity: 1; stroke-width: 0px; fill: rgb(11, 121, 230); fill-opacity: 1;"/></g><g class="text"/></g></g></g></g><path class="xlines-above crisp" d="M0,0" style="fill: none;"/><path class="ylines-above crisp" d="M0,0" style="fill: none;"/><g class="overlines-above"/><g class="xaxislayer-above"><g class="x2tick"><text text-anchor="middle" x="0" y="172.61538461538464" transform="translate(84.98,0)" style="font-family: 'Lucida Grande', 'Open Sans', verdana, arial, sans-serif; font-size: 9px; fill: rgb(0, 0, 0); fill-opacity: 0.5; white-space: pre; opacity: 1;">0</text></g><g class="x2tick"><text text-anchor="middle" x="0" y="172.61538461538464" style="font-family: 'Lucida Grande', 'Open Sans', verdana, arial, sans-serif; font-size: 9px; fill: rgb(0, 0, 0); fill-opacity: 0.5; white-space: pre; opacity: 1;" transform="translate(252.46,0)">1M</text></g><g class="x2tick"><text text-anchor="middle" x="0" y="172.61538461538464" style="font-family: 'Lucida Grande', 'Open Sans', verdana, arial, sans-serif; font-size: 9px; fill: rgb(0, 0, 0); fill-opacity: 0.5; white-space: pre; opacity: 1;" transform="translate(419.95,0)">2M</text></g><g class="x2tick"><text text-anchor="middle" x="0" y="172.61538461538464" style="font-family: 'Lucida Grande', 'Open Sans', verdana, arial, sans-serif; font-size: 9px; fill: rgb(0, 0, 0); fill-opacity: 0.5; white-space: pre; opacity: 1;" transform="translate(587.4300000000001,0)">3M</text></g><g class="x2tick"><text text-anchor="middle" x="0" y="172.61538461538464" style="font-family: 'Lucida Grande', 'Open Sans', verdana, arial, sans-serif; font-size: 9px; fill: rgb(0, 0, 0); fill-opacity: 0.5; white-space: pre; opacity: 1;" transform="translate(754.92,0)">4M</text></g><g class="x2tick"><text text-anchor="middle" x="0" y="172.61538461538464" style="font-family: 'Lucida Grande', 'Open Sans', verdana, arial, sans-serif; font-size: 9px; fill: rgb(0, 0, 0); fill-opacity: 0.5; white-space: pre; opacity: 1;" transform="translate(922.41,0)">5M</text></g></g><g class="yaxislayer-above"><g class="y2tick"><text text-anchor="end" x="79" y="3.15" transform="translate(0,141.5046153846154)" style="font-family: 'Lucida Grande', 'Open Sans', verdana, arial, sans-serif; font-size: 9px; fill: rgb(0, 0, 0); fill-opacity: 0.5; white-space: pre; opacity: 1;">Occurrences  </text></g></g><g class="overaxes-above"/></g><g class="subplot x3y3"><g class="layer-subplot"><g class="shapelayer"/><g class="imagelayer"/></g><g class="minor-gridlayer"><g class="x3"/><g class="y3"/></g><g class="gridlayer"><g class="x3"><path class="x3grid crisp" transform="translate(283.98,0)" d="M0,190.76923076923077v42.230769230769226" style="stroke: rgb(0, 0, 0); stroke-opacity: 0.1; stroke-width: 1px;"/><path class="x3grid crisp" transform="translate(482.99,0)" d="M0,190.76923076923077v42.230769230769226" style="stroke: rgb(0, 0, 0); stroke-opacity: 0.1; stroke-width: 1px;"/><path class="x3grid crisp" transform="translate(681.99,0)" d="M0,190.76923076923077v42.230769230769226" style="stroke: rgb(0, 0, 0); stroke-opacity: 0.1; stroke-width: 1px;"/><path class="x3grid crisp" transform="translate(881,0)" d="M0,190.76923076923077v42.230769230769226" style="stroke: rgb(0, 0, 0); stroke-opacity: 0.1; stroke-width: 1px;"/><path class="x3grid crisp" transform="translate(1080,0)" d="M0,190.76923076923077v42.230769230769226" style="stroke: rgb(0, 0, 0); stroke-opacity: 0.1; stroke-width: 1px;"/></g><g class="y3"><path class="y3grid crisp" transform="translate(0,211.88923076923078)" d="M80,0h1005" style="stroke: rgb(0, 0, 0); stroke-opacity: 0.1; stroke-width: 1px;"/></g></g><g class="zerolinelayer"><path class="x3zl zl crisp" transform="translate(84.98,0)" d="M0,190.76923076923077v42.230769230769226" style="stroke: rgb(0, 0, 0); stroke-opacity: 0.1; stroke-width: 2px;"/></g><g class="layer-between"><g class="shapelayer"/><g class="imagelayer"/></g><path class="xlines-below"/><path class="ylines-below"/><g class="overlines-below"/><g class="xaxislayer-below"/><g class="yaxislayer-below"/><g class="overaxes-below"/><g class="overplot"><g class="x3y3" transform="translate(80,190.76923076923077)" clip-path="url(#clipe7ed51x3y3plot)"><g class="violinlayer mlayer"><g class="trace violins" style="opacity: 0.5;"><path class="violin" d="M4.86,20.27Q4.89,19.74 4.9,19.42C4.91,19.01 4.92,18.53 4.93,18.02C4.94,17.41 4.95,16.72 4.96,16.02C4.97,15.24 4.99,14.37 5,13.53C5.01,12.66 5.02,11.72 5.03,10.86C5.04,10.05 5.05,9.2 5.06,8.49C5.07,7.9 5.08,7.28 5.1,6.88C5.11,6.65 5.12,6.33 5.13,6.33C5.14,6.33 5.15,6.63 5.16,6.84C5.17,7.17 5.19,7.67 5.2,8.13C5.21,8.66 5.22,9.27 5.23,9.85C5.24,10.45 5.25,11.08 5.26,11.68C5.27,12.27 5.29,12.87 5.3,13.44C5.31,13.99 5.32,14.53 5.33,15.05C5.34,15.55 5.35,16.04 5.36,16.51C5.37,16.95 5.39,17.38 5.4,17.79C5.41,18.17 5.42,18.53 5.43,18.87C5.44,19.16 5.46,19.45 5.47,19.7C5.48,19.91 5.49,20.11 5.5,20.28C5.51,20.41 5.51,20.53 5.53,20.62C5.54,20.68 5.55,20.75 5.57,20.76C5.58,20.76 5.59,20.75 5.6,20.74C5.62,20.72 5.62,20.65 5.63,20.6C5.64,20.53 5.66,20.44 5.67,20.36C5.68,20.27 5.69,20.17 5.7,20.08C5.71,19.99 5.72,19.9 5.73,19.81C5.74,19.73 5.76,19.66 5.77,19.59C5.78,19.54 5.79,19.48 5.8,19.44C5.81,19.41 5.81,19.37 5.83,19.36C5.84,19.35 5.86,19.35 5.87,19.36C5.88,19.37 5.89,19.4 5.9,19.43C5.91,19.47 5.92,19.53 5.93,19.58C5.94,19.65 5.96,19.72 5.97,19.8C5.98,19.89 5.99,19.99 6,20.08C6.01,20.18 6.02,20.28 6.03,20.37C6.04,20.46 6.06,20.54 6.07,20.62C6.08,20.69 6.09,20.76 6.1,20.82C6.11,20.87 6.12,20.92 6.13,20.96C6.14,20.99 6.16,21.02 6.17,21.04C6.18,21.06 6.19,21.07 6.2,21.08C6.21,21.09 6.22,21.1 6.23,21.1C6.24,21.11 6.26,21.11 6.27,21.11C6.28,21.11 6.29,21.11 6.3,21.11C6.31,21.11 6.32,21.12 6.33,21.12C6.34,21.12 6.36,21.12 6.37,21.12C6.38,21.12 6.39,21.12 6.4,21.12C6.41,21.12 6.43,21.12 6.44,21.12C6.45,21.12 6.46,21.12 6.47,21.12C6.48,21.12 6.49,21.12 6.5,21.12C6.51,21.12 6.53,21.12 6.54,21.12C6.55,21.12 6.56,21.12 6.57,21.12C6.58,21.12 6.59,21.12 6.6,21.12C6.61,21.12 6.63,21.12 6.64,21.12C6.65,21.12 6.66,21.12 6.67,21.12C6.68,21.12 6.69,21.12 6.7,21.12C6.71,21.12 6.73,21.12 6.74,21.12C6.75,21.12 6.76,21.12 6.77,21.12C6.78,21.12 6.79,21.12 6.8,21.12C6.81,21.12 6.83,21.12 6.84,21.12C6.85,21.12 6.86,21.12 6.87,21.12C6.88,21.12 6.89,21.12 6.9,21.12C6.91,21.12 6.93,21.12 6.94,21.12C6.95,21.12 6.96,21.12 6.97,21.12C6.98,21.12 6.99,21.12 7,21.12C7.01,21.12 7.03,21.12 7.04,21.12C7.05,21.12 7.06,21.12 7.07,21.12C7.08,21.12 7.09,21.12 7.1,21.12C7.11,21.12 7.13,21.12 7.14,21.12C7.15,21.12 7.16,21.11 7.17,21.11C7.18,21.11 7.19,21.11 7.2,21.11C7.21,21.11 7.23,21.11 7.24,21.11C7.25,21.11 7.26,21.11 7.27,21.1C7.28,21.09 7.3,21.08 7.31,21.07C7.32,21.06 7.33,21.04 7.34,21.02C7.35,20.99 7.36,20.96 7.37,20.92C7.38,20.88 7.4,20.82 7.41,20.77C7.42,20.71 7.43,20.63 7.44,20.56C7.45,20.48 7.46,20.4 7.47,20.32C7.48,20.24 7.5,20.17 7.51,20.1C7.52,20.04 7.52,19.97 7.54,19.94C7.55,19.92 7.56,19.91 7.57,19.91C7.58,19.91 7.6,19.96 7.61,20C7.63,20.05 7.63,20.13 7.64,20.2C7.65,20.28 7.66,20.36 7.67,20.44C7.68,20.52 7.7,20.6 7.71,20.67C7.72,20.73 7.73,20.8 7.74,20.85C7.75,20.9 7.76,20.94 7.77,20.98C7.78,21.01 7.8,21.03 7.81,21.05C7.82,21.07 7.83,21.08 7.84,21.09C7.85,21.1 7.86,21.1 7.87,21.1C7.88,21.1 7.9,21.11 7.91,21.11C7.92,21.11 7.93,21.11 7.94,21.11C7.95,21.11 7.96,21.12 7.97,21.12C7.98,21.12 8,21.12 8.01,21.12C8.02,21.12 8.03,21.12 8.04,21.12C8.05,21.12 8.06,21.12 8.07,21.12C8.08,21.12 8.1,21.12 8.11,21.12C8.12,21.12 8.13,21.12 8.14,21.12C8.15,21.12 8.17,21.12 8.18,21.12C8.19,21.12 8.2,21.12 8.21,21.12C8.22,21.12 8.23,21.12 8.24,21.12C8.25,21.12 8.27,21.12 8.28,21.12C8.29,21.12 8.3,21.12 8.31,21.12C8.32,21.12 8.33,21.12 8.34,21.12C8.35,21.12 8.37,21.12 8.38,21.12C8.39,21.12 8.4,21.12 8.41,21.12C8.42,21.12 8.43,21.12 8.44,21.12C8.45,21.12 8.47,21.12 8.48,21.12C8.49,21.12 8.5,21.12 8.51,21.12C8.52,21.12 8.53,21.12 8.54,21.12C8.55,21.12 8.57,21.12 8.58,21.12C8.59,21.12 8.6,21.12 8.61,21.12C8.62,21.12 8.63,21.12 8.64,21.12C8.65,21.12 8.67,21.12 8.68,21.12C8.69,21.12 8.7,21.12 8.71,21.12C8.72,21.12 8.73,21.12 8.74,21.12C8.75,21.12 8.77,21.12 8.78,21.12C8.79,21.12 8.8,21.12 8.81,21.12C8.82,21.12 8.83,21.12 8.84,21.12C8.85,21.12 8.87,21.12 8.88,21.12C8.89,21.12 8.9,21.12 8.91,21.12C8.92,21.12 8.93,21.12 8.94,21.12C8.95,21.12 8.97,21.12 8.98,21.12C8.99,21.12 9,21.12 9.01,21.12C9.02,21.12 9.04,21.12 9.05,21.12C9.06,21.12 9.07,21.12 9.08,21.12C9.09,21.12 9.1,21.12 9.11,21.12C9.12,21.12 9.14,21.12 9.15,21.12C9.16,21.12 9.17,21.12 9.18,21.12C9.19,21.12 9.2,21.12 9.21,21.12C9.22,21.12 9.24,21.12 9.25,21.12C9.26,21.12 9.27,21.12 9.28,21.12C9.29,21.12 9.3,21.12 9.31,21.12C9.32,21.12 9.34,21.12 9.35,21.12C9.36,21.12 9.37,21.12 9.38,21.12C9.39,21.12 9.4,21.12 9.41,21.12C9.42,21.12 9.44,21.12 9.45,21.12C9.46,21.12 9.47,21.12 9.48,21.12C9.49,21.12 9.5,21.12 9.51,21.12C9.52,21.12 9.54,21.12 9.55,21.12C9.56,21.12 9.57,21.12 9.58,21.12C9.59,21.12 9.6,21.12 9.61,21.12C9.62,21.12 9.64,21.12 9.65,21.12C9.66,21.12 9.67,21.12 9.68,21.12C9.69,21.12 9.7,21.12 9.71,21.12C9.72,21.12 9.74,21.12 9.75,21.12C9.76,21.12 9.77,21.12 9.78,21.12C9.79,21.12 9.8,21.12 9.81,21.12C9.82,21.12 9.84,21.12 9.85,21.12C9.86,21.12 9.87,21.12 9.88,21.12C9.89,21.12 9.91,21.12 9.92,21.12C9.93,21.12 9.94,21.12 9.95,21.12C9.96,21.12 9.97,21.12 9.98,21.12C9.99,21.12 10.01,21.12 10.02,21.12C10.03,21.12 10.04,21.12 10.05,21.12C10.06,21.12 10.07,21.12 10.08,21.12C10.09,21.12 10.11,21.12 10.12,21.12C10.13,21.12 10.14,21.12 10.15,21.12C10.16,21.12 10.17,21.11 10.18,21.11C10.19,21.11 10.21,21.11 10.22,21.11C10.23,21.11 10.24,21.11 10.25,21.11C10.26,21.11 10.27,21.1 10.28,21.1C10.29,21.09 10.31,21.09 10.32,21.08C10.33,21.07 10.34,21.06 10.35,21.04C10.36,21.02 10.37,20.98 10.38,20.95C10.39,20.91 10.41,20.86 10.42,20.81C10.43,20.75 10.44,20.69 10.45,20.62C10.46,20.54 10.47,20.46 10.48,20.38C10.49,20.3 10.51,20.22 10.52,20.15C10.53,20.09 10.54,20.01 10.55,19.97C10.56,19.94 10.57,19.91 10.58,19.91C10.59,19.91 10.61,19.94 10.62,19.97C10.64,20.01 10.64,20.09 10.65,20.15C10.66,20.22 10.67,20.3 10.68,20.38C10.69,20.46 10.71,20.54 10.72,20.62C10.73,20.69 10.74,20.75 10.75,20.81Q10.76,20.86 10.79,20.95L10.79,21.28Q10.76,21.37 10.75,21.42C10.74,21.48 10.73,21.54 10.72,21.61C10.71,21.69 10.69,21.77 10.68,21.85C10.67,21.93 10.66,22.01 10.65,22.08C10.64,22.14 10.64,22.21 10.62,22.26C10.61,22.29 10.59,22.33 10.58,22.33C10.57,22.33 10.56,22.29 10.55,22.26C10.54,22.22 10.53,22.15 10.52,22.09C10.51,22.02 10.49,21.93 10.48,21.85C10.47,21.77 10.46,21.69 10.45,21.61C10.44,21.54 10.43,21.48 10.42,21.42C10.41,21.37 10.39,21.32 10.38,21.28C10.37,21.25 10.36,21.22 10.35,21.2C10.34,21.18 10.33,21.16 10.32,21.15C10.31,21.14 10.29,21.14 10.28,21.13C10.27,21.13 10.26,21.12 10.25,21.12C10.24,21.12 10.23,21.12 10.22,21.12C10.21,21.12 10.19,21.12 10.18,21.12C10.17,21.12 10.16,21.12 10.15,21.12C10.14,21.12 10.13,21.12 10.12,21.12C10.11,21.12 10.09,21.12 10.08,21.12C10.07,21.12 10.06,21.12 10.05,21.12C10.04,21.12 10.03,21.12 10.02,21.12C10.01,21.12 9.99,21.12 9.98,21.12C9.97,21.12 9.96,21.12 9.95,21.12C9.94,21.12 9.93,21.12 9.92,21.12C9.91,21.12 9.89,21.12 9.88,21.12C9.87,21.12 9.86,21.12 9.85,21.12C9.84,21.12 9.82,21.12 9.81,21.12C9.8,21.12 9.79,21.12 9.78,21.12C9.77,21.12 9.76,21.12 9.75,21.12C9.74,21.12 9.72,21.12 9.71,21.12C9.7,21.12 9.69,21.12 9.68,21.12C9.67,21.12 9.66,21.12 9.65,21.12C9.64,21.12 9.62,21.12 9.61,21.12C9.6,21.12 9.59,21.12 9.58,21.12C9.57,21.12 9.56,21.12 9.55,21.12C9.54,21.12 9.52,21.12 9.51,21.12C9.5,21.12 9.49,21.12 9.48,21.12C9.47,21.12 9.46,21.12 9.45,21.12C9.44,21.12 9.42,21.12 9.41,21.12C9.4,21.12 9.39,21.12 9.38,21.12C9.37,21.12 9.36,21.12 9.35,21.12C9.34,21.12 9.32,21.12 9.31,21.12C9.3,21.12 9.29,21.12 9.28,21.12C9.27,21.12 9.26,21.12 9.25,21.12C9.24,21.12 9.22,21.12 9.21,21.12C9.2,21.12 9.19,21.12 9.18,21.12C9.17,21.12 9.16,21.12 9.15,21.12C9.14,21.12 9.12,21.12 9.11,21.12C9.1,21.12 9.09,21.12 9.08,21.12C9.07,21.12 9.06,21.12 9.05,21.12C9.04,21.12 9.02,21.12 9.01,21.12C9,21.12 8.99,21.12 8.98,21.12C8.97,21.12 8.95,21.12 8.94,21.12C8.93,21.12 8.92,21.12 8.91,21.12C8.9,21.12 8.89,21.12 8.88,21.12C8.87,21.12 8.85,21.12 8.84,21.12C8.83,21.12 8.82,21.12 8.81,21.12C8.8,21.12 8.79,21.12 8.78,21.12C8.77,21.12 8.75,21.12 8.74,21.12C8.73,21.12 8.72,21.12 8.71,21.12C8.7,21.12 8.69,21.12 8.68,21.12C8.67,21.12 8.65,21.12 8.64,21.12C8.63,21.12 8.62,21.12 8.61,21.12C8.6,21.12 8.59,21.12 8.58,21.12C8.57,21.12 8.55,21.12 8.54,21.12C8.53,21.12 8.52,21.12 8.51,21.12C8.5,21.12 8.49,21.12 8.48,21.12C8.47,21.12 8.45,21.12 8.44,21.12C8.43,21.12 8.42,21.12 8.41,21.12C8.4,21.12 8.39,21.12 8.38,21.12C8.37,21.12 8.35,21.12 8.34,21.12C8.33,21.12 8.32,21.12 8.31,21.12C8.3,21.12 8.29,21.12 8.28,21.12C8.27,21.12 8.25,21.12 8.24,21.12C8.23,21.12 8.22,21.12 8.21,21.12C8.2,21.12 8.19,21.12 8.18,21.12C8.17,21.12 8.15,21.12 8.14,21.12C8.13,21.12 8.12,21.12 8.11,21.12C8.1,21.12 8.08,21.12 8.07,21.12C8.06,21.12 8.05,21.12 8.04,21.12C8.03,21.12 8.02,21.12 8.01,21.12C8,21.12 7.98,21.12 7.97,21.12C7.96,21.12 7.95,21.12 7.94,21.12C7.93,21.12 7.92,21.12 7.91,21.12C7.9,21.12 7.88,21.13 7.87,21.13C7.86,21.13 7.85,21.13 7.84,21.14C7.83,21.15 7.82,21.16 7.81,21.18C7.8,21.2 7.78,21.23 7.77,21.26C7.76,21.3 7.75,21.34 7.74,21.38C7.73,21.43 7.72,21.5 7.71,21.56C7.7,21.63 7.68,21.71 7.67,21.79C7.66,21.87 7.65,21.95 7.64,22.03C7.63,22.1 7.63,22.18 7.61,22.23C7.6,22.27 7.58,22.32 7.57,22.32C7.56,22.32 7.55,22.31 7.54,22.29C7.52,22.26 7.52,22.19 7.51,22.13C7.5,22.06 7.48,21.99 7.47,21.91C7.46,21.83 7.45,21.75 7.44,21.67C7.43,21.6 7.42,21.52 7.41,21.46C7.4,21.41 7.38,21.35 7.37,21.31C7.36,21.27 7.35,21.24 7.34,21.21C7.33,21.19 7.32,21.17 7.31,21.16C7.3,21.15 7.28,21.14 7.27,21.13C7.26,21.12 7.25,21.12 7.24,21.12C7.23,21.12 7.21,21.12 7.2,21.12C7.19,21.12 7.18,21.12 7.17,21.12C7.16,21.12 7.15,21.12 7.14,21.12C7.13,21.12 7.11,21.12 7.1,21.12C7.09,21.12 7.08,21.12 7.07,21.12C7.06,21.12 7.05,21.12 7.04,21.12C7.03,21.12 7.01,21.12 7,21.12C6.99,21.12 6.98,21.12 6.97,21.12C6.96,21.12 6.95,21.12 6.94,21.12C6.93,21.12 6.91,21.12 6.9,21.12C6.89,21.12 6.88,21.12 6.87,21.12C6.86,21.12 6.85,21.12 6.84,21.12C6.83,21.12 6.81,21.12 6.8,21.12C6.79,21.12 6.78,21.12 6.77,21.12C6.76,21.12 6.75,21.12 6.74,21.12C6.73,21.12 6.71,21.12 6.7,21.12C6.69,21.12 6.68,21.12 6.67,21.12C6.66,21.12 6.65,21.12 6.64,21.12C6.63,21.12 6.61,21.12 6.6,21.12C6.59,21.12 6.58,21.12 6.57,21.12C6.56,21.12 6.55,21.12 6.54,21.12C6.53,21.12 6.51,21.12 6.5,21.12C6.49,21.12 6.48,21.12 6.47,21.12C6.46,21.12 6.45,21.12 6.44,21.12C6.43,21.12 6.41,21.12 6.4,21.12C6.39,21.12 6.38,21.12 6.37,21.12C6.36,21.12 6.34,21.12 6.33,21.12C6.32,21.12 6.31,21.12 6.3,21.12C6.29,21.12 6.28,21.12 6.27,21.12C6.26,21.12 6.24,21.12 6.23,21.13C6.22,21.13 6.21,21.14 6.2,21.15C6.19,21.16 6.18,21.17 6.17,21.19C6.16,21.21 6.14,21.24 6.13,21.27C6.12,21.31 6.11,21.36 6.1,21.41C6.09,21.47 6.08,21.54 6.07,21.61C6.06,21.69 6.04,21.78 6.03,21.87C6.02,21.96 6.01,22.06 6,22.15C5.99,22.24 5.98,22.34 5.97,22.43C5.96,22.51 5.94,22.58 5.93,22.65C5.92,22.7 5.91,22.76 5.9,22.8C5.89,22.83 5.88,22.86 5.87,22.87C5.86,22.88 5.84,22.88 5.83,22.87C5.81,22.86 5.81,22.82 5.8,22.79C5.79,22.75 5.78,22.69 5.77,22.64C5.76,22.57 5.74,22.5 5.73,22.42C5.72,22.33 5.71,22.24 5.7,22.15C5.69,22.06 5.68,21.96 5.67,21.87C5.66,21.79 5.64,21.7 5.63,21.63C5.62,21.58 5.62,21.51 5.6,21.49C5.59,21.48 5.58,21.47 5.57,21.47C5.55,21.48 5.54,21.55 5.53,21.61C5.51,21.7 5.51,21.82 5.5,21.95C5.49,22.12 5.48,22.32 5.47,22.53C5.46,22.78 5.44,23.07 5.43,23.37C5.42,23.71 5.41,24.07 5.4,24.44C5.39,24.85 5.37,25.28 5.36,25.72C5.35,26.19 5.34,26.68 5.33,27.18C5.32,27.7 5.31,28.24 5.3,28.79C5.29,29.36 5.27,29.96 5.26,30.55C5.25,31.15 5.24,31.78 5.23,32.38C5.22,32.96 5.21,33.57 5.2,34.1C5.19,34.56 5.17,35.06 5.16,35.39C5.15,35.6 5.14,35.9 5.13,35.9C5.12,35.9 5.11,35.58 5.1,35.35C5.08,34.96 5.07,34.34 5.06,33.75C5.05,33.04 5.04,32.19 5.03,31.37C5.02,30.51 5.01,29.57 5,28.7C4.99,27.86 4.97,26.99 4.96,26.21C4.95,25.51 4.94,24.82 4.93,24.21C4.92,23.7 4.91,23.22 4.9,22.81Q4.89,22.49 4.86,21.96Z" style="vector-effect: none; stroke-width: 2px; stroke: rgb(181, 181, 181); stroke-opacity: 1; fill: rgb(181, 181, 181); fill-opacity: 1;"/><path class="box" d="M5.16,24.81V17.42M5.1,24.81V17.42H5.34V24.81ZM5.1,21.12H5.06M5.34,21.12H5.34" style="vector-effect: non-scaling-stroke; stroke-width: 2px; stroke: rgb(181, 181, 181); stroke-opacity: 1; fill: rgb(181, 181, 181); fill-opacity: 1;"/><path class="mean" d="M5.62,24.81V17.42" style="fill: none; vector-effect: non-scaling-stroke; stroke-width: 2px; stroke-dasharray: 4px, 2px; stroke: rgb(181, 181, 181); stroke-opacity: 1;"/></g></g><g class="scatterlayer mlayer"><g class="trace scatter trace51743e" style="stroke-miterlimit: 2; opacity: 1;"><g class="fills"/><g class="errorbars"/><g class="lines"/><g class="points"><path class="point" transform="translate(10.58,21.12)" d="M2,0A2,2 0 1,1 0,-2A2,2 0 0,1 2,0Z" style="opacity: 1; stroke-width: 0px; fill: rgb(11, 121, 230); fill-opacity: 1;"/></g><g class="text"/></g><g class="trace scatter trace0dc9d4" style="stroke-miterlimit: 2; opacity: 1;"><g class="fills"/><g class="errorbars"/><g class="lines"/><g class="points"><path class="point" transform="translate(7.57,21.12)" d="M2,0A2,2 0 1,1 0,-2A2,2 0 0,1 2,0Z" style="opacity: 1; stroke-width: 0px; fill: rgb(11, 121, 230); fill-opacity: 1;"/></g><g class="text"/></g><g class="trace scatter tracebc5e1c" style="stroke-miterlimit: 2; opacity: 1;"><g class="fills"/><g class="errorbars"/><g class="lines"/><g class="points"><path class="point" transform="translate(5.93,21.12)" d="M2,0A2,2 0 1,1 0,-2A2,2 0 0,1 2,0Z" style="opacity: 1; stroke-width: 0px; fill: rgb(11, 121, 230); fill-opacity: 1;"/></g><g class="text"/></g><g class="trace scatter trace37ce29" style="stroke-miterlimit: 2; opacity: 1;"><g class="fills"/><g class="errorbars"/><g class="lines"/><g class="points"><path class="point" transform="translate(5.77,21.12)" d="M2,0A2,2 0 1,1 0,-2A2,2 0 0,1 2,0Z" style="opacity: 1; stroke-width: 0px; fill: rgb(11, 121, 230); fill-opacity: 1;"/></g><g class="text"/></g><g class="trace scatter tracea5bbf7" style="stroke-miterlimit: 2; opacity: 1;"><g class="fills"/><g class="errorbars"/><g class="lines"/><g class="points"><path class="point" transform="translate(5.33,21.12)" d="M2,0A2,2 0 1,1 0,-2A2,2 0 0,1 2,0Z" style="opacity: 1; stroke-width: 0px; fill: rgb(11, 121, 230); fill-opacity: 1;"/></g><g class="text"/></g><g class="trace scatter tracebd31f0" style="stroke-miterlimit: 2; opacity: 1;"><g class="fills"/><g class="errorbars"/><g class="lines"/><g class="points"><path class="point" transform="translate(5.24,21.12)" d="M2,0A2,2 0 1,1 0,-2A2,2 0 0,1 2,0Z" style="opacity: 1; stroke-width: 0px; fill: rgb(11, 121, 230); fill-opacity: 1;"/></g><g class="text"/></g><g class="trace scatter traceaf50ad" style="stroke-miterlimit: 2; opacity: 1;"><g class="fills"/><g class="errorbars"/><g class="lines"/><g class="points"><path class="point" transform="translate(5.11,21.12)" d="M2,0A2,2 0 1,1 0,-2A2,2 0 0,1 2,0Z" style="opacity: 1; stroke-width: 0px; fill: rgb(11, 121, 230); fill-opacity: 1;"/></g><g class="text"/></g><g class="trace scatter trace0dcb7e" style="stroke-miterlimit: 2; opacity: 1;"><g class="fills"/><g class="errorbars"/><g class="lines"/><g class="points"><path class="point" transform="translate(5.19,21.12)" d="M2,0A2,2 0 1,1 0,-2A2,2 0 0,1 2,0Z" style="opacity: 1; stroke-width: 0px; fill: rgb(11, 121, 230); fill-opacity: 1;"/></g><g class="text"/></g><g class="trace scatter traced07aa6" style="stroke-miterlimit: 2; opacity: 1;"><g class="fills"/><g class="errorbars"/><g class="lines"/><g class="points"><path class="point" transform="translate(5.19,21.12)" d="M2,0A2,2 0 1,1 0,-2A2,2 0 0,1 2,0Z" style="opacity: 1; stroke-width: 0px; fill: rgb(11, 121, 230); fill-opacity: 1;"/></g><g class="text"/></g><g class="trace scatter trace22f2b6" style="stroke-miterlimit: 2; opacity: 1;"><g class="fills"/><g class="errorbars"/><g class="lines"/><g class="points"><path class="point" transform="translate(5.09,21.12)" d="M2,0A2,2 0 1,1 0,-2A2,2 0 0,1 2,0Z" style="opacity: 1; stroke-width: 0px; fill: rgb(11, 121, 230); fill-opacity: 1;"/></g><g class="text"/></g><g class="trace scatter tracebd26a0" style="stroke-miterlimit: 2; opacity: 1;"><g class="fills"/><g class="errorbars"/><g class="lines"/><g class="points"><path class="point" transform="translate(5.1,21.12)" d="M2,0A2,2 0 1,1 0,-2A2,2 0 0,1 2,0Z" style="opacity: 1; stroke-width: 0px; fill: rgb(11, 121, 230); fill-opacity: 1;"/></g><g class="text"/></g><g class="trace scatter trace919241" style="stroke-miterlimit: 2; opacity: 1;"><g class="fills"/><g class="errorbars"/><g class="lines"/><g class="points"><path class="point" transform="translate(5.34,21.12)" d="M2,0A2,2 0 1,1 0,-2A2,2 0 0,1 2,0Z" style="opacity: 1; stroke-width: 0px; fill: rgb(11, 121, 230); fill-opacity: 1;"/></g><g class="text"/></g><g class="trace scatter trace20b4b8" style="stroke-miterlimit: 2; opacity: 1;"><g class="fills"/><g class="errorbars"/><g class="lines"/><g class="points"><path class="point" transform="translate(5.27,21.12)" d="M2,0A2,2 0 1,1 0,-2A2,2 0 0,1 2,0Z" style="opacity: 1; stroke-width: 0px; fill: rgb(11, 121, 230); fill-opacity: 1;"/></g><g class="text"/></g><g class="trace scatter trace559f55" style="stroke-miterlimit: 2; opacity: 1;"><g class="fills"/><g class="errorbars"/><g class="lines"/><g class="points"><path class="point" transform="translate(5.07,21.12)" d="M2,0A2,2 0 1,1 0,-2A2,2 0 0,1 2,0Z" style="opacity: 1; stroke-width: 0px; fill: rgb(11, 121, 230); fill-opacity: 1;"/></g><g class="text"/></g><g class="trace scatter trace369570" style="stroke-miterlimit: 2; opacity: 1;"><g class="fills"/><g class="errorbars"/><g class="lines"/><g class="points"><path class="point" transform="translate(5.08,21.12)" d="M2,0A2,2 0 1,1 0,-2A2,2 0 0,1 2,0Z" style="opacity: 1; stroke-width: 0px; fill: rgb(11, 121, 230); fill-opacity: 1;"/></g><g class="text"/></g><g class="trace scatter trace7b88f0" style="stroke-miterlimit: 2; opacity: 1;"><g class="fills"/><g class="errorbars"/><g class="lines"/><g class="points"><path class="point" transform="translate(5.12,21.12)" d="M2,0A2,2 0 1,1 0,-2A2,2 0 0,1 2,0Z" style="opacity: 1; stroke-width: 0px; fill: rgb(11, 121, 230); fill-opacity: 1;"/></g><g class="text"/></g><g class="trace scatter trace53c277" style="stroke-miterlimit: 2; opacity: 1;"><g class="fills"/><g class="errorbars"/><g class="lines"/><g class="points"><path class="point" transform="translate(5.11,21.12)" d="M2,0A2,2 0 1,1 0,-2A2,2 0 0,1 2,0Z" style="opacity: 1; stroke-width: 0px; fill: rgb(11, 121, 230); fill-opacity: 1;"/></g><g class="text"/></g><g class="trace scatter tracefd609d" style="stroke-miterlimit: 2; opacity: 1;"><g class="fills"/><g class="errorbars"/><g class="lines"/><g class="points"><path class="point" transform="translate(5.13,21.12)" d="M2,0A2,2 0 1,1 0,-2A2,2 0 0,1 2,0Z" style="opacity: 1; stroke-width: 0px; fill: rgb(11, 121, 230); fill-opacity: 1;"/></g><g class="text"/></g><g class="trace scatter trace8c87e0" style="stroke-miterlimit: 2; opacity: 1;"><g class="fills"/><g class="errorbars"/><g class="lines"/><g class="points"><path class="point" transform="translate(5.14,21.12)" d="M2,0A2,2 0 1,1 0,-2A2,2 0 0,1 2,0Z" style="opacity: 1; stroke-width: 0px; fill: rgb(11, 121, 230); fill-opacity: 1;"/></g><g class="text"/></g><g class="trace scatter trace04966c" style="stroke-miterlimit: 2; opacity: 1;"><g class="fills"/><g class="errorbars"/><g class="lines"/><g class="points"><path class="point" transform="translate(5.06,21.12)" d="M2,0A2,2 0 1,1 0,-2A2,2 0 0,1 2,0Z" style="opacity: 1; stroke-width: 0px; fill: rgb(11, 121, 230); fill-opacity: 1;"/></g><g class="text"/></g></g></g></g><path class="xlines-above crisp" d="M0,0" style="fill: none;"/><path class="ylines-above crisp" d="M0,0" style="fill: none;"/><g class="overlines-above"/><g class="xaxislayer-above"><g class="x3tick"><text text-anchor="middle" x="0" y="243" transform="translate(84.98,0)" style="font-family: 'Lucida Grande', 'Open Sans', verdana, arial, sans-serif; font-size: 9px; fill: rgb(0, 0, 0); fill-opacity: 0.5; white-space: pre; opacity: 1;">0%</text></g><g class="x3tick"><text text-anchor="middle" x="0" y="243" style="font-family: 'Lucida Grande', 'Open Sans', verdana, arial, sans-serif; font-size: 9px; fill: rgb(0, 0, 0); fill-opacity: 0.5; white-space: pre; opacity: 1;" transform="translate(283.98,0)">20%</text></g><g class="x3tick"><text text-anchor="middle" x="0" y="243" style="font-family: 'Lucida Grande', 'Open Sans', verdana, arial, sans-serif; font-size: 9px; fill: rgb(0, 0, 0); fill-opacity: 0.5; white-space: pre; opacity: 1;" transform="translate(482.99,0)">40%</text></g><g class="x3tick"><text text-anchor="middle" x="0" y="243" style="font-family: 'Lucida Grande', 'Open Sans', verdana, arial, sans-serif; font-size: 9px; fill: rgb(0, 0, 0); fill-opacity: 0.5; white-space: pre; opacity: 1;" transform="translate(681.99,0)">60%</text></g><g class="x3tick"><text text-anchor="middle" x="0" y="243" style="font-family: 'Lucida Grande', 'Open Sans', verdana, arial, sans-serif; font-size: 9px; fill: rgb(0, 0, 0); fill-opacity: 0.5; white-space: pre; opacity: 1;" transform="translate(881,0)">80%</text></g><g class="x3tick"><text text-anchor="middle" x="0" y="243" style="font-family: 'Lucida Grande', 'Open Sans', verdana, arial, sans-serif; font-size: 9px; fill: rgb(0, 0, 0); fill-opacity: 0.5; white-space: pre; opacity: 1;" transform="translate(1080,0)">100%</text></g></g><g class="yaxislayer-above"><g class="y3tick"><text text-anchor="end" x="79" y="3.15" transform="translate(0,211.88923076923078)" style="font-family: 'Lucida Grande', 'Open Sans', verdana, arial, sans-serif; font-size: 9px; fill: rgb(0, 0, 0); fill-opacity: 0.5; white-space: pre; opacity: 1;">% of all reads  </text></g></g><g class="overaxes-above"/></g></g><g class="polarlayer"/><g class="smithlayer"/><g class="ternarylayer"/><g class="geolayer"/><g class="funnelarealayer"/><g class="pielayer"/><g class="iciclelayer"/><g class="treemaplayer"/><g class="sunburstlayer"/><g class="glimages"/><defs id="topdefs-e7ed51"><g class="clips"/></defs><g class="layer-above"><g class="imagelayer"/><g class="shapelayer"/></g><g class="infolayer"><g class="g-gtitle"><text class="gtitle" x="550" y="25" text-anchor="middle" dy="0em" style="opacity: 1; font-family: 'Lucida Grande', 'Open Sans', verdana, arial, sans-serif; font-size: 20px; fill: rgb(42, 63, 95); fill-opacity: 1; white-space: pre;"><tspan class="line" dy="0em" x="550" y="25">FastQC: Top overrepresented sequences</tspan><tspan class="line" dy="1.3em" x="550" y="25"><tspan style="font-size:70%" dy="-0.6em">20 samples</tspan><tspan dy="0.42em"></tspan></tspan></text></g><g class="g-xtitle"/><g class="g-x2title"/><g class="g-x3title"/><g class="g-ytitle"/><g class="g-y2title"/><g class="g-y3title"/></g></svg>