<svg class="main-svg" xmlns="http://www.w3.org/2000/svg" xmlns:xlink="http://www.w3.org/1999/xlink" width="2200" height="546" style="" viewBox="0 0 1100 273"><rect x="0" y="0" width="1100" height="273" style="fill: rgb(255, 255, 255); fill-opacity: 1;"/><defs id="defs-09e996"><g class="clips"><clipPath id="clip09e996xyplot" class="plotclip"><rect width="1005" height="42.230769230769226"/></clipPath><clipPath id="clip09e996x2y2plot" class="plotclip"><rect width="1005" height="42.230769230769226"/></clipPath><clipPath id="clip09e996x3y3plot" class="plotclip"><rect width="1005" height="42.230769230769226"/></clipPath><clipPath class="axesclip" id="clip09e996x"><rect x="80" y="0" width="1005" height="273"/></clipPath><clipPath class="axesclip" id="clip09e996y"><rect x="0" y="50.00000000000002" width="1100" height="42.230769230769226"/></clipPath><clipPath class="axesclip" id="clip09e996xy"><rect x="80" y="50.00000000000002" width="1005" height="42.230769230769226"/></clipPath><clipPath class="axesclip" id="clip09e996y2"><rect x="0" y="120.3846153846154" width="1100" height="42.230769230769226"/></clipPath><clipPath class="axesclip" id="clip09e996xy2"><rect x="80" y="120.3846153846154" width="1005" height="42.230769230769226"/></clipPath><clipPath class="axesclip" id="clip09e996y3"><rect x="0" y="190.76923076923077" width="1100" height="42.230769230769226"/></clipPath><clipPath class="axesclip" id="clip09e996xy3"><rect x="80" y="190.76923076923077" width="1005" height="42.230769230769226"/></clipPath><clipPath class="axesclip" id="clip09e996x2"><rect x="80" y="0" width="1005" height="273"/></clipPath><clipPath class="axesclip" id="clip09e996x2y"><rect x="80" y="50.00000000000002" width="1005" height="42.230769230769226"/></clipPath><clipPath class="axesclip" id="clip09e996x2y2"><rect x="80" y="120.3846153846154" width="1005" height="42.230769230769226"/></clipPath><clipPath class="axesclip" id="clip09e996x2y3"><rect x="80" y="190.76923076923077" width="1005" height="42.230769230769226"/></clipPath><clipPath class="axesclip" id="clip09e996x3"><rect x="80" y="0" width="1005" height="273"/></clipPath><clipPath class="axesclip" id="clip09e996x3y"><rect x="80" y="50.00000000000002" width="1005" height="42.230769230769226"/></clipPath><clipPath class="axesclip" id="clip09e996x3y2"><rect x="80" y="120.3846153846154" width="1005" height="42.230769230769226"/></clipPath><clipPath class="axesclip" id="clip09e996x3y3"><rect x="80" y="190.76923076923077" width="1005" height="42.230769230769226"/></clipPath></g><g class="gradients"/><g class="patterns"/></defs><g class="bglayer"/><g class="layer-below"><g class="imagelayer"/><g class="shapelayer"/></g><g class="cartesianlayer"><g class="subplot xy"><g class="layer-subplot"><g class="shapelayer"/><g class="imagelayer"/></g><g class="minor-gridlayer"><g class="x"/><g class="y"/></g><g class="gridlayer"><g class="x"><path class="xgrid crisp" transform="translate(193.13,0)" d="M0,50.00000000000002v42.230769230769226" style="stroke: rgb(0, 0, 0); stroke-opacity: 0.1; stroke-width: 1px;"/><path class="xgrid crisp" transform="translate(301.28,0)" d="M0,50.00000000000002v42.230769230769226" style="stroke: rgb(0, 0, 0); stroke-opacity: 0.1; stroke-width: 1px;"/><path class="xgrid crisp" transform="translate(409.44,0)" d="M0,50.00000000000002v42.230769230769226" style="stroke: rgb(0, 0, 0); stroke-opacity: 0.1; stroke-width: 1px;"/><path class="xgrid crisp" transform="translate(517.5899999999999,0)" d="M0,50.00000000000002v42.230769230769226" style="stroke: rgb(0, 0, 0); stroke-opacity: 0.1; stroke-width: 1px;"/><path class="xgrid crisp" transform="translate(625.75,0)" d="M0,50.00000000000002v42.230769230769226" style="stroke: rgb(0, 0, 0); stroke-opacity: 0.1; stroke-width: 1px;"/><path class="xgrid crisp" transform="translate(733.9,0)" d="M0,50.00000000000002v42.230769230769226" style="stroke: rgb(0, 0, 0); stroke-opacity: 0.1; stroke-width: 1px;"/><path class="xgrid crisp" transform="translate(842.06,0)" d="M0,50.00000000000002v42.230769230769226" style="stroke: rgb(0, 0, 0); stroke-opacity: 0.1; stroke-width: 1px;"/><path class="xgrid crisp" transform="translate(950.21,0)" d="M0,50.00000000000002v42.230769230769226" style="stroke: rgb(0, 0, 0); stroke-opacity: 0.1; stroke-width: 1px;"/><path class="xgrid crisp" transform="translate(1058.37,0)" d="M0,50.00000000000002v42.230769230769226" style="stroke: rgb(0, 0, 0); stroke-opacity: 0.1; stroke-width: 1px;"/></g><g class="y"><path class="ygrid crisp" transform="translate(0,71.12000000000002)" d="M80,0h1005" style="stroke: rgb(0, 0, 0); stroke-opacity: 0.1; stroke-width: 1px;"/></g></g><g class="zerolinelayer"><path class="xzl zl crisp" transform="translate(84.98,0)" d="M0,50.00000000000002v42.230769230769226" style="stroke: rgb(0, 0, 0); stroke-opacity: 0.1; stroke-width: 2px;"/></g><g class="layer-between"><g class="shapelayer"/><g class="imagelayer"/></g><path class="xlines-below"/><path class="ylines-below"/><g class="overlines-below"/><g class="xaxislayer-below"/><g class="yaxislayer-below"/><g class="overaxes-below"/><g class="overplot"><g class="xy" transform="translate(80,50.00000000000002)" clip-path="url(#clip09e996xyplot)"><g class="violinlayer mlayer"><g class="trace violins" style="opacity: 0.5;"><path class="violin" d="M84.75,19.98Q95.1,19.39 100.27,18.97C105.44,18.55 110.61,18.04 115.78,17.45C120.96,16.86 126.13,16.16 131.3,15.44C136.47,14.72 141.64,13.89 146.81,13.11C151.98,12.33 157.15,11.49 162.33,10.75C167.5,10.01 172.66,9.28 177.84,8.69C183.01,8.1 188.18,7.59 193.36,7.21C198.53,6.83 203.71,6.57 208.88,6.42C214.05,6.27 219.22,6.25 224.39,6.33C229.56,6.41 234.74,6.61 239.91,6.89C245.08,7.17 250.25,7.57 255.42,8.03C260.6,8.49 265.77,9.04 270.94,9.63C276.11,10.22 281.28,10.91 286.45,11.58C291.62,12.25 296.8,12.98 301.97,13.66C307.14,14.34 312.31,15.03 317.49,15.64C322.66,16.25 327.83,16.84 333,17.33C338.17,17.82 343.35,18.24 348.52,18.58C353.69,18.92 358.86,19.18 364.03,19.38C369.2,19.58 374.38,19.7 379.55,19.78C384.72,19.86 389.89,19.88 395.06,19.89C400.23,19.9 405.41,19.86 410.58,19.84C415.75,19.82 420.93,19.79 426.1,19.78C431.27,19.77 436.44,19.77 441.61,19.79C446.78,19.81 451.96,19.85 457.13,19.91C462.3,19.97 467.47,20.05 472.64,20.13C477.81,20.21 482.99,20.3 488.16,20.39C493.33,20.47 498.5,20.57 503.67,20.64C508.84,20.71 514.02,20.77 519.19,20.83C524.36,20.88 529.54,20.93 534.71,20.97C539.88,21 545.05,21.02 550.22,21.04C555.39,21.06 560.57,21.08 565.74,21.09C570.91,21.1 576.08,21.1 581.25,21.1C586.42,21.1 591.6,21.11 596.77,21.11C601.94,21.11 607.12,21.11 612.29,21.11C617.46,21.11 622.63,21.11 627.8,21.11C632.97,21.11 638.15,21.11 643.32,21.1C648.49,21.09 653.66,21.08 658.83,21.07C664,21.05 669.18,21.04 674.35,21.01C679.52,20.98 684.69,20.94 689.86,20.88C695.03,20.82 700.21,20.75 705.38,20.66C710.55,20.57 715.73,20.46 720.9,20.33C726.07,20.2 731.24,20.04 736.41,19.89C741.58,19.73 746.76,19.56 751.93,19.4C757.1,19.24 762.27,19.07 767.44,18.94C772.61,18.81 777.79,18.7 782.96,18.64C788.13,18.58 793.3,18.56 798.47,18.58C803.64,18.6 808.82,18.67 813.99,18.77C819.16,18.87 824.34,19.01 829.51,19.16C834.68,19.31 839.85,19.49 845.02,19.65C850.19,19.81 855.37,19.98 860.54,20.12C865.71,20.26 870.88,20.38 876.05,20.48C881.22,20.58 886.4,20.65 891.57,20.7C896.74,20.75 901.91,20.78 907.08,20.78C912.25,20.78 917.43,20.75 922.6,20.71C927.77,20.67 932.95,20.62 938.12,20.55C943.29,20.48 948.46,20.39 953.63,20.31C958.8,20.23 963.98,20.13 969.15,20.06C974.32,19.99 979.49,19.92 984.66,19.88C989.83,19.84 995.01,19.81 1000.18,19.81C1005.35,19.81 1010.52,19.84 1015.69,19.88C1020.86,19.92 1026.04,20 1031.21,20.07C1036.38,20.14 1041.56,20.23 1046.73,20.32C1051.9,20.4 1057.07,20.5 1062.24,20.58C1067.41,20.66 1072.59,20.73 1077.76,20.79Q1082.93,20.85 1093.27,20.94L1093.27,21.29Q1082.93,21.38 1077.76,21.44C1072.59,21.5 1067.41,21.57 1062.24,21.65C1057.07,21.73 1051.9,21.83 1046.73,21.91C1041.56,22 1036.38,22.09 1031.21,22.16C1026.04,22.23 1020.86,22.31 1015.69,22.35C1010.52,22.39 1005.35,22.42 1000.18,22.42C995.01,22.42 989.83,22.39 984.66,22.35C979.49,22.31 974.32,22.24 969.15,22.17C963.98,22.1 958.8,22 953.63,21.92C948.46,21.84 943.29,21.76 938.12,21.69C932.95,21.62 927.77,21.56 922.6,21.52C917.43,21.48 912.25,21.46 907.08,21.46C901.91,21.46 896.74,21.48 891.57,21.53C886.4,21.58 881.22,21.65 876.05,21.75C870.88,21.85 865.71,21.98 860.54,22.12C855.37,22.26 850.19,22.42 845.02,22.58C839.85,22.74 834.68,22.92 829.51,23.07C824.34,23.22 819.16,23.36 813.99,23.46C808.82,23.56 803.64,23.63 798.47,23.65C793.3,23.67 788.13,23.65 782.96,23.59C777.79,23.53 772.61,23.42 767.44,23.29C762.27,23.16 757.1,22.99 751.93,22.83C746.76,22.67 741.58,22.5 736.41,22.34C731.24,22.19 726.07,22.03 720.9,21.9C715.73,21.77 710.55,21.66 705.38,21.57C700.21,21.48 695.03,21.41 689.86,21.35C684.69,21.29 679.52,21.25 674.35,21.22C669.18,21.19 664,21.18 658.83,21.16C653.66,21.15 648.49,21.14 643.32,21.13C638.15,21.12 632.97,21.12 627.8,21.12C622.63,21.12 617.46,21.12 612.29,21.12C607.12,21.12 601.94,21.12 596.77,21.12C591.6,21.12 586.42,21.12 581.25,21.13C576.08,21.13 570.91,21.14 565.74,21.15C560.57,21.16 555.39,21.17 550.22,21.19C545.05,21.21 539.88,21.23 534.71,21.26C529.54,21.3 524.36,21.35 519.19,21.4C514.02,21.46 508.84,21.52 503.67,21.59C498.5,21.66 493.33,21.76 488.16,21.84C482.99,21.93 477.81,22.02 472.64,22.1C467.47,22.18 462.3,22.26 457.13,22.32C451.96,22.38 446.78,22.42 441.61,22.44C436.44,22.46 431.27,22.46 426.1,22.45C420.93,22.44 415.75,22.41 410.58,22.39C405.41,22.37 400.23,22.33 395.06,22.34C389.89,22.35 384.72,22.37 379.55,22.45C374.38,22.53 369.2,22.65 364.03,22.85C358.86,23.05 353.69,23.31 348.52,23.65C343.34,23.99 338.17,24.42 333,24.91C327.83,25.4 322.66,25.98 317.49,26.59C312.31,27.2 307.14,27.89 301.97,28.57C296.8,29.25 291.62,29.98 286.45,30.65C281.28,31.32 276.11,32.01 270.94,32.6C265.77,33.19 260.6,33.75 255.42,34.21C250.25,34.67 245.08,35.06 239.91,35.34C234.74,35.62 229.56,35.82 224.39,35.9C219.22,35.98 214.05,35.96 208.88,35.81C203.71,35.66 198.53,35.4 193.36,35.02C188.18,34.64 183.01,34.13 177.84,33.54C172.66,32.95 167.5,32.22 162.33,31.48C157.15,30.74 151.98,29.9 146.81,29.12C141.64,28.34 136.47,27.51 131.3,26.79C126.13,26.07 120.96,25.37 115.78,24.78C110.61,24.19 105.44,23.68 100.27,23.26Q95.1,22.84 84.75,22.25Z" style="vector-effect: none; stroke-width: 2px; stroke: rgb(181, 181, 181); stroke-opacity: 1; fill: rgb(181, 181, 181); fill-opacity: 1;"/><path class="box" d="M242.92,24.81V17.42M178.02,24.81V17.42H286.18V24.81ZM178.02,21.12H178.02M286.18,21.12H437.59" style="vector-effect: non-scaling-stroke; stroke-width: 2px; stroke: rgb(181, 181, 181); stroke-opacity: 1; fill: rgb(181, 181, 181); fill-opacity: 1;"/><path class="mean" d="M330.52,24.81V17.42" style="fill: none; vector-effect: non-scaling-stroke; stroke-width: 2px; stroke-dasharray: 4px, 2px; stroke: rgb(181, 181, 181); stroke-opacity: 1;"/></g></g><g class="scatterlayer mlayer"><g class="trace scatter tracec3e146" style="stroke-miterlimit: 2; opacity: 1;"><g class="fills"/><g class="errorbars"/><g class="lines"/><g class="points"><path class="point" transform="translate(1000,21.12)" d="M2,0A2,2 0 1,1 0,-2A2,2 0 0,1 2,0Z" style="opacity: 1; stroke-width: 0px; fill: rgb(11, 121, 230); fill-opacity: 1;"/></g><g class="text"/></g><g class="trace scatter trace252d34" style="stroke-miterlimit: 2; opacity: 1;"><g class="fills"/><g class="errorbars"/><g class="lines"/><g class="points"><path class="point" transform="translate(805.32,21.12)" d="M2,0A2,2 0 1,1 0,-2A2,2 0 0,1 2,0Z" style="opacity: 1; stroke-width: 0px; fill: rgb(11, 121, 230); fill-opacity: 1;"/></g><g class="text"/></g><g class="trace scatter trace6503af" style="stroke-miterlimit: 2; opacity: 1;"><g class="fills"/><g class="errorbars"/><g class="lines"/><g class="points"><path class="point" transform="translate(783.69,21.12)" d="M2,0A2,2 0 1,1 0,-2A2,2 0 0,1 2,0Z" style="opacity: 1; stroke-width: 0px; fill: rgb(11, 121, 230); fill-opacity: 1;"/></g><g class="text"/></g><g class="trace scatter tracef3144b" style="stroke-miterlimit: 2; opacity: 1;"><g class="fills"/><g class="errorbars"/><g class="lines"/><g class="points"><path class="point" transform="translate(437.59,21.12)" d="M2,0A2,2 0 1,1 0,-2A2,2 0 0,1 2,0Z" style="opacity: 1; stroke-width: 0px; fill: rgb(11, 121, 230); fill-opacity: 1;"/></g><g class="text"/></g><g class="trace scatter traceb513ee" style="stroke-miterlimit: 2; opacity: 1;"><g class="fills"/><g class="errorbars"/><g class="lines"/><g class="points"><path class="point" transform="translate(307.81,21.12)" d="M2,0A2,2 0 1,1 0,-2A2,2 0 0,1 2,0Z" style="opacity: 1; stroke-width: 0px; fill: rgb(11, 121, 230); fill-opacity: 1;"/></g><g class="text"/></g><g class="trace scatter traceb99a6d" style="stroke-miterlimit: 2; opacity: 1;"><g class="fills"/><g class="errorbars"/><g class="lines"/><g class="points"><path class="point" transform="translate(264.55,21.12)" d="M2,0A2,2 0 1,1 0,-2A2,2 0 0,1 2,0Z" style="opacity: 1; stroke-width: 0px; fill: rgb(11, 121, 230); fill-opacity: 1;"/></g><g class="text"/></g><g class="trace scatter trace7ecce9" style="stroke-miterlimit: 2; opacity: 1;"><g class="fills"/><g class="errorbars"/><g class="lines"/><g class="points"><path class="point" transform="translate(264.55,21.12)" d="M2,0A2,2 0 1,1 0,-2A2,2 0 0,1 2,0Z" style="opacity: 1; stroke-width: 0px; fill: rgb(11, 121, 230); fill-opacity: 1;"/></g><g class="text"/></g><g class="trace scatter trace4f898c" style="stroke-miterlimit: 2; opacity: 1;"><g class="fills"/><g class="errorbars"/><g class="lines"/><g class="points"><path class="point" transform="translate(264.55,21.12)" d="M2,0A2,2 0 1,1 0,-2A2,2 0 0,1 2,0Z" style="opacity: 1; stroke-width: 0px; fill: rgb(11, 121, 230); fill-opacity: 1;"/></g><g class="text"/></g><g class="trace scatter tracec1d226" style="stroke-miterlimit: 2; opacity: 1;"><g class="fills"/><g class="errorbars"/><g class="lines"/><g class="points"><path class="point" transform="translate(264.55,21.12)" d="M2,0A2,2 0 1,1 0,-2A2,2 0 0,1 2,0Z" style="opacity: 1; stroke-width: 0px; fill: rgb(11, 121, 230); fill-opacity: 1;"/></g><g class="text"/></g><g class="trace scatter tracee9f183" style="stroke-miterlimit: 2; opacity: 1;"><g class="fills"/><g class="errorbars"/><g class="lines"/><g class="points"><path class="point" transform="translate(264.55,21.12)" d="M2,0A2,2 0 1,1 0,-2A2,2 0 0,1 2,0Z" style="opacity: 1; stroke-width: 0px; fill: rgb(11, 121, 230); fill-opacity: 1;"/></g><g class="text"/></g><g class="trace scatter traceb63ea6" style="stroke-miterlimit: 2; opacity: 1;"><g class="fills"/><g class="errorbars"/><g class="lines"/><g class="points"><path class="point" transform="translate(221.28,21.12)" d="M2,0A2,2 0 1,1 0,-2A2,2 0 0,1 2,0Z" style="opacity: 1; stroke-width: 0px; fill: rgb(11, 121, 230); fill-opacity: 1;"/></g><g class="text"/></g><g class="trace scatter traceaccef0" style="stroke-miterlimit: 2; opacity: 1;"><g class="fills"/><g class="errorbars"/><g class="lines"/><g class="points"><path class="point" transform="translate(221.28,21.12)" d="M2,0A2,2 0 1,1 0,-2A2,2 0 0,1 2,0Z" style="opacity: 1; stroke-width: 0px; fill: rgb(11, 121, 230); fill-opacity: 1;"/></g><g class="text"/></g><g class="trace scatter trace7074f5" style="stroke-miterlimit: 2; opacity: 1;"><g class="fills"/><g class="errorbars"/><g class="lines"/><g class="points"><path class="point" transform="translate(221.28,21.12)" d="M2,0A2,2 0 1,1 0,-2A2,2 0 0,1 2,0Z" style="opacity: 1; stroke-width: 0px; fill: rgb(11, 121, 230); fill-opacity: 1;"/></g><g class="text"/></g><g class="trace scatter tracedfe429" style="stroke-miterlimit: 2; opacity: 1;"><g class="fills"/><g class="errorbars"/><g class="lines"/><g class="points"><path class="point" transform="translate(221.28,21.12)" d="M2,0A2,2 0 1,1 0,-2A2,2 0 0,1 2,0Z" style="opacity: 1; stroke-width: 0px; fill: rgb(11, 121, 230); fill-opacity: 1;"/></g><g class="text"/></g><g class="trace scatter tracec8cffc" style="stroke-miterlimit: 2; opacity: 1;"><g class="fills"/><g class="errorbars"/><g class="lines"/><g class="points"><path class="point" transform="translate(178.02,21.12)" d="M2,0A2,2 0 1,1 0,-2A2,2 0 0,1 2,0Z" style="opacity: 1; stroke-width: 0px; fill: rgb(11, 121, 230); fill-opacity: 1;"/></g><g class="text"/></g><g class="trace scatter trace957332" style="stroke-miterlimit: 2; opacity: 1;"><g class="fills"/><g class="errorbars"/><g class="lines"/><g class="points"><path class="point" transform="translate(178.02,21.12)" d="M2,0A2,2 0 1,1 0,-2A2,2 0 0,1 2,0Z" style="opacity: 1; stroke-width: 0px; fill: rgb(11, 121, 230); fill-opacity: 1;"/></g><g class="text"/></g><g class="trace scatter tracebb4d10" style="stroke-miterlimit: 2; opacity: 1;"><g class="fills"/><g class="errorbars"/><g class="lines"/><g class="points"><path class="point" transform="translate(178.02,21.12)" d="M2,0A2,2 0 1,1 0,-2A2,2 0 0,1 2,0Z" style="opacity: 1; stroke-width: 0px; fill: rgb(11, 121, 230); fill-opacity: 1;"/></g><g class="text"/></g><g class="trace scatter trace24e189" style="stroke-miterlimit: 2; opacity: 1;"><g class="fills"/><g class="errorbars"/><g class="lines"/><g class="points"><path class="point" transform="translate(178.02,21.12)" d="M2,0A2,2 0 1,1 0,-2A2,2 0 0,1 2,0Z" style="opacity: 1; stroke-width: 0px; fill: rgb(11, 121, 230); fill-opacity: 1;"/></g><g class="text"/></g><g class="trace scatter trace487d55" style="stroke-miterlimit: 2; opacity: 1;"><g class="fills"/><g class="errorbars"/><g class="lines"/><g class="points"><path class="point" transform="translate(178.02,21.12)" d="M2,0A2,2 0 1,1 0,-2A2,2 0 0,1 2,0Z" style="opacity: 1; stroke-width: 0px; fill: rgb(11, 121, 230); fill-opacity: 1;"/></g><g class="text"/></g><g class="trace scatter trace9d8af8" style="stroke-miterlimit: 2; opacity: 1;"><g class="fills"/><g class="errorbars"/><g class="lines"/><g class="points"><path class="point" transform="translate(178.02,21.12)" d="M2,0A2,2 0 1,1 0,-2A2,2 0 0,1 2,0Z" style="opacity: 1; stroke-width: 0px; fill: rgb(11, 121, 230); fill-opacity: 1;"/></g><g class="text"/></g></g></g></g><path class="xlines-above crisp" d="M0,0" style="fill: none;"/><path class="ylines-above crisp" d="M0,0" style="fill: none;"/><g class="overlines-above"/><g class="xaxislayer-above"><g class="xtick"><text text-anchor="middle" x="0" y="102.23076923076925" transform="translate(84.98,0)" style="font-family: 'Lucida Grande', 'Open Sans', verdana, arial, sans-serif; font-size: 9px; fill: rgb(0, 0, 0); fill-opacity: 0.5; white-space: pre; opacity: 1;">0</text></g><g class="xtick"><text text-anchor="middle" x="0" y="102.23076923076925" style="font-family: 'Lucida Grande', 'Open Sans', verdana, arial, sans-serif; font-size: 9px; fill: rgb(0, 0, 0); fill-opacity: 0.5; white-space: pre; opacity: 1;" transform="translate(193.13,0)">5</text></g><g class="xtick"><text text-anchor="middle" x="0" y="102.23076923076925" style="font-family: 'Lucida Grande', 'Open Sans', verdana, arial, sans-serif; font-size: 9px; fill: rgb(0, 0, 0); fill-opacity: 0.5; white-space: pre; opacity: 1;" transform="translate(301.28,0)">10</text></g><g class="xtick"><text text-anchor="middle" x="0" y="102.23076923076925" style="font-family: 'Lucida Grande', 'Open Sans', verdana, arial, sans-serif; font-size: 9px; fill: rgb(0, 0, 0); fill-opacity: 0.5; white-space: pre; opacity: 1;" transform="translate(409.44,0)">15</text></g><g class="xtick"><text text-anchor="middle" x="0" y="102.23076923076925" style="font-family: 'Lucida Grande', 'Open Sans', verdana, arial, sans-serif; font-size: 9px; fill: rgb(0, 0, 0); fill-opacity: 0.5; white-space: pre; opacity: 1;" transform="translate(517.5899999999999,0)">20</text></g><g class="xtick"><text text-anchor="middle" x="0" y="102.23076923076925" style="font-family: 'Lucida Grande', 'Open Sans', verdana, arial, sans-serif; font-size: 9px; fill: rgb(0, 0, 0); fill-opacity: 0.5; white-space: pre; opacity: 1;" transform="translate(625.75,0)">25</text></g><g class="xtick"><text text-anchor="middle" x="0" y="102.23076923076925" style="font-family: 'Lucida Grande', 'Open Sans', verdana, arial, sans-serif; font-size: 9px; fill: rgb(0, 0, 0); fill-opacity: 0.5; white-space: pre; opacity: 1;" transform="translate(733.9,0)">30</text></g><g class="xtick"><text text-anchor="middle" x="0" y="102.23076923076925" style="font-family: 'Lucida Grande', 'Open Sans', verdana, arial, sans-serif; font-size: 9px; fill: rgb(0, 0, 0); fill-opacity: 0.5; white-space: pre; opacity: 1;" transform="translate(842.06,0)">35</text></g><g class="xtick"><text text-anchor="middle" x="0" y="102.23076923076925" style="font-family: 'Lucida Grande', 'Open Sans', verdana, arial, sans-serif; font-size: 9px; fill: rgb(0, 0, 0); fill-opacity: 0.5; white-space: pre; opacity: 1;" transform="translate(950.21,0)">40</text></g><g class="xtick"><text text-anchor="middle" x="0" y="102.23076923076925" style="font-family: 'Lucida Grande', 'Open Sans', verdana, arial, sans-serif; font-size: 9px; fill: rgb(0, 0, 0); fill-opacity: 0.5; white-space: pre; opacity: 1;" transform="translate(1058.37,0)">45</text></g></g><g class="yaxislayer-above"><g class="ytick"><text text-anchor="end" x="79" y="3.15" transform="translate(0,71.12000000000002)" style="font-family: 'Lucida Grande', 'Open Sans', verdana, arial, sans-serif; font-size: 9px; fill: rgb(0, 0, 0); fill-opacity: 0.5; white-space: pre; opacity: 1;">Reports  </text></g></g><g class="overaxes-above"/></g><g class="subplot x2y2"><g class="layer-subplot"><g class="shapelayer"/><g class="imagelayer"/></g><g class="minor-gridlayer"><g class="x2"/><g class="y2"/></g><g class="gridlayer"><g class="x2"><path class="x2grid crisp" transform="translate(256,0)" d="M0,120.3846153846154v42.230769230769226" style="stroke: rgb(0, 0, 0); stroke-opacity: 0.1; stroke-width: 1px;"/><path class="x2grid crisp" transform="translate(427.03,0)" d="M0,120.3846153846154v42.230769230769226" style="stroke: rgb(0, 0, 0); stroke-opacity: 0.1; stroke-width: 1px;"/><path class="x2grid crisp" transform="translate(598.06,0)" d="M0,120.3846153846154v42.230769230769226" style="stroke: rgb(0, 0, 0); stroke-opacity: 0.1; stroke-width: 1px;"/><path class="x2grid crisp" transform="translate(769.09,0)" d="M0,120.3846153846154v42.230769230769226" style="stroke: rgb(0, 0, 0); stroke-opacity: 0.1; stroke-width: 1px;"/><path class="x2grid crisp" transform="translate(940.11,0)" d="M0,120.3846153846154v42.230769230769226" style="stroke: rgb(0, 0, 0); stroke-opacity: 0.1; stroke-width: 1px;"/></g><g class="y2"><path class="y2grid crisp" transform="translate(0,141.5046153846154)" d="M80,0h1005" style="stroke: rgb(0, 0, 0); stroke-opacity: 0.1; stroke-width: 1px;"/></g></g><g class="zerolinelayer"><path class="x2zl zl crisp" transform="translate(84.98,0)" d="M0,120.3846153846154v42.230769230769226" style="stroke: rgb(0, 0, 0); stroke-opacity: 0.1; stroke-width: 2px;"/></g><g class="layer-between"><g class="shapelayer"/><g class="imagelayer"/></g><path class="xlines-below"/><path class="ylines-below"/><g class="overlines-below"/><g class="xaxislayer-below"/><g class="yaxislayer-below"/><g class="overaxes-below"/><g class="overplot"><g class="x2y2" transform="translate(80,120.3846153846154)" clip-path="url(#clip09e996x2y2plot)"><g class="violinlayer mlayer"><g class="trace violins" style="opacity: 0.5;"><path class="violin" d="M-28.49,20.25Q-23.04,19.75 -20.32,19.37C-17.59,18.99 -14.87,18.53 -12.16,17.96C-9.43,17.39 -6.71,16.69 -4,15.94C-1.27,15.18 1.44,14.29 4.16,13.43C6.89,12.57 9.6,11.6 12.33,10.76C15.04,9.92 17.75,9.06 20.49,8.4C23.2,7.75 25.92,7.17 28.65,6.83C31.36,6.49 34.1,6.32 36.82,6.33C39.54,6.34 42.27,6.58 44.98,6.9C47.71,7.22 50.43,7.74 53.14,8.26C55.87,8.78 58.59,9.42 61.31,10.01C64.03,10.6 66.75,11.23 69.47,11.8C72.19,12.37 74.91,12.93 77.63,13.44C80.35,13.95 83.07,14.42 85.8,14.86C88.52,15.3 91.24,15.71 93.96,16.08C96.68,16.45 99.4,16.79 102.12,17.1C104.84,17.41 107.56,17.69 110.28,17.93C113,18.17 115.73,18.37 118.45,18.55C121.17,18.72 123.89,18.86 126.61,18.98C129.33,19.1 132.05,19.19 134.77,19.27C137.49,19.35 140.22,19.41 142.94,19.46C145.66,19.51 148.38,19.55 151.1,19.58C153.82,19.61 156.54,19.63 159.26,19.65C161.98,19.67 164.71,19.66 167.43,19.67C170.15,19.68 172.87,19.68 175.59,19.69C178.31,19.7 181.03,19.72 183.75,19.75C186.47,19.78 189.2,19.83 191.92,19.89C194.64,19.95 197.36,20.03 200.08,20.11C202.8,20.19 205.52,20.28 208.24,20.36C210.96,20.44 213.68,20.54 216.4,20.61C219.12,20.69 221.85,20.75 224.57,20.81C227.29,20.87 230.01,20.91 232.73,20.95C235.45,20.99 238.17,21.01 240.89,21.03C243.61,21.05 246.34,21.07 249.06,21.08C251.78,21.09 254.5,21.09 257.22,21.1C259.94,21.1 262.66,21.11 265.38,21.11C268.1,21.11 270.83,21.11 273.55,21.11C276.27,21.11 278.99,21.11 281.71,21.11C284.43,21.11 287.15,21.12 289.87,21.12C292.59,21.12 295.32,21.12 298.04,21.12C300.76,21.12 303.48,21.12 306.2,21.12C308.92,21.12 311.64,21.12 314.36,21.12C317.08,21.12 319.8,21.12 322.52,21.12C325.24,21.12 327.97,21.12 330.69,21.12C333.41,21.12 336.13,21.12 338.85,21.12C341.57,21.12 344.29,21.12 347.01,21.12C349.73,21.12 352.46,21.12 355.18,21.12C357.9,21.12 360.62,21.12 363.34,21.12C366.06,21.12 368.78,21.11 371.5,21.11C374.22,21.11 376.95,21.11 379.67,21.11C382.39,21.11 385.11,21.11 387.83,21.11C390.55,21.11 393.27,21.1 395.99,21.09C398.71,21.08 401.44,21.08 404.16,21.06C406.88,21.05 409.6,21.03 412.32,21C415.04,20.97 417.76,20.93 420.48,20.88C423.2,20.83 425.92,20.77 428.64,20.71C431.36,20.64 434.09,20.57 436.81,20.49C439.53,20.41 442.25,20.33 444.97,20.25C447.69,20.18 450.41,20.09 453.13,20.04C455.85,19.98 458.58,19.94 461.3,19.92C464.02,19.9 466.74,19.9 469.46,19.92C472.18,19.94 474.9,19.99 477.62,20.05C480.34,20.11 483.07,20.19 485.79,20.27C488.51,20.35 491.23,20.43 493.95,20.51C496.67,20.59 499.39,20.67 502.11,20.73C504.83,20.79 507.56,20.84 510.28,20.89C513,20.93 515.72,20.97 518.44,21C521.16,21.03 523.88,21.04 526.6,21.06C529.32,21.07 532.04,21.08 534.76,21.09C537.48,21.1 540.21,21.11 542.93,21.11C545.65,21.11 548.37,21.11 551.09,21.11C553.81,21.11 556.53,21.11 559.25,21.11C561.97,21.11 564.7,21.12 567.42,21.12C570.14,21.12 572.86,21.12 575.58,21.12C578.3,21.12 581.02,21.12 583.74,21.12C586.46,21.12 589.19,21.12 591.91,21.12C594.63,21.12 597.35,21.12 600.07,21.12C602.79,21.12 605.51,21.12 608.23,21.12C610.95,21.12 613.68,21.12 616.4,21.12C619.12,21.12 621.84,21.12 624.56,21.12C627.28,21.12 630,21.12 632.72,21.12C635.44,21.12 638.17,21.12 640.89,21.12C643.61,21.12 646.33,21.12 649.05,21.12C651.77,21.12 654.49,21.12 657.21,21.12C659.93,21.12 662.65,21.12 665.37,21.12C668.09,21.12 670.82,21.12 673.54,21.12C676.26,21.12 678.98,21.12 681.7,21.12C684.42,21.12 687.14,21.12 689.86,21.12C692.58,21.12 695.31,21.12 698.03,21.12C700.75,21.12 703.47,21.12 706.19,21.12C708.91,21.12 711.63,21.12 714.35,21.12C717.07,21.12 719.8,21.12 722.52,21.12C725.24,21.12 727.96,21.12 730.68,21.12C733.4,21.12 736.12,21.12 738.84,21.12C741.56,21.12 744.29,21.12 747.01,21.12C749.73,21.12 752.45,21.12 755.17,21.12C757.89,21.12 760.61,21.12 763.33,21.12C766.05,21.12 768.77,21.12 771.49,21.12C774.21,21.12 776.94,21.12 779.66,21.12C782.38,21.12 785.1,21.12 787.82,21.12C790.54,21.12 793.26,21.12 795.98,21.12C798.7,21.12 801.43,21.12 804.15,21.12C806.87,21.12 809.59,21.12 812.31,21.12C815.03,21.12 817.75,21.12 820.47,21.12C823.19,21.12 825.92,21.12 828.64,21.12C831.36,21.12 834.08,21.12 836.8,21.12C839.52,21.12 842.24,21.12 844.96,21.12C847.68,21.12 850.41,21.12 853.13,21.12C855.85,21.12 858.57,21.12 861.29,21.12C864.01,21.12 866.73,21.12 869.45,21.12C872.17,21.12 874.89,21.12 877.61,21.12C880.33,21.12 883.06,21.12 885.78,21.12C888.5,21.12 891.22,21.12 893.94,21.12C896.66,21.12 899.38,21.11 902.1,21.11C904.82,21.11 907.55,21.11 910.27,21.11C912.99,21.11 915.71,21.11 918.43,21.11C921.15,21.11 923.87,21.1 926.59,21.1C929.31,21.09 932.04,21.09 934.76,21.08C937.48,21.07 940.2,21.05 942.92,21.03C945.64,21.01 948.36,20.99 951.08,20.95C953.8,20.91 956.53,20.87 959.25,20.81C961.97,20.75 964.69,20.68 967.41,20.61C970.13,20.54 972.85,20.46 975.57,20.38C978.29,20.3 981.01,20.21 983.73,20.14C986.45,20.07 989.18,20.01 991.9,19.97C994.62,19.93 997.34,19.9 1000.06,19.9C1002.78,19.9 1005.5,19.93 1008.22,19.97C1010.94,20.01 1013.67,20.07 1016.39,20.14C1019.11,20.21 1021.83,20.3 1024.55,20.38C1027.27,20.46 1029.99,20.55 1032.71,20.62C1035.43,20.69 1038.16,20.75 1040.88,20.81Q1043.6,20.86 1049.04,20.95L1049.04,21.28Q1043.6,21.37 1040.88,21.42C1038.16,21.48 1035.43,21.54 1032.71,21.61C1029.99,21.68 1027.27,21.77 1024.55,21.85C1021.83,21.93 1019.11,22.02 1016.39,22.09C1013.67,22.16 1010.94,22.22 1008.22,22.26C1005.5,22.3 1002.78,22.33 1000.06,22.33C997.34,22.33 994.62,22.31 991.9,22.27C989.18,22.23 986.45,22.16 983.73,22.09C981.01,22.02 978.29,21.93 975.57,21.85C972.85,21.77 970.13,21.69 967.41,21.62C964.69,21.55 961.97,21.48 959.25,21.42C956.53,21.36 953.8,21.32 951.08,21.28C948.36,21.24 945.64,21.22 942.92,21.2C940.2,21.18 937.48,21.16 934.76,21.15C932.04,21.14 929.31,21.14 926.59,21.13C923.87,21.13 921.15,21.12 918.43,21.12C915.71,21.12 912.99,21.12 910.27,21.12C907.55,21.12 904.82,21.12 902.1,21.12C899.38,21.12 896.66,21.12 893.94,21.12C891.22,21.12 888.5,21.12 885.78,21.12C883.06,21.12 880.33,21.12 877.61,21.12C874.89,21.12 872.17,21.12 869.45,21.12C866.73,21.12 864.01,21.12 861.29,21.12C858.57,21.12 855.85,21.12 853.13,21.12C850.41,21.12 847.68,21.12 844.96,21.12C842.24,21.12 839.52,21.12 836.8,21.12C834.08,21.12 831.36,21.12 828.64,21.12C825.92,21.12 823.19,21.12 820.47,21.12C817.75,21.12 815.03,21.12 812.31,21.12C809.59,21.12 806.87,21.12 804.15,21.12C801.43,21.12 798.7,21.12 795.98,21.12C793.26,21.12 790.54,21.12 787.82,21.12C785.1,21.12 782.38,21.12 779.66,21.12C776.94,21.12 774.21,21.12 771.49,21.12C768.77,21.12 766.05,21.12 763.33,21.12C760.61,21.12 757.89,21.12 755.17,21.12C752.45,21.12 749.73,21.12 747.01,21.12C744.29,21.12 741.56,21.12 738.84,21.12C736.12,21.12 733.4,21.12 730.68,21.12C727.96,21.12 725.24,21.12 722.52,21.12C719.8,21.12 717.07,21.12 714.35,21.12C711.63,21.12 708.91,21.12 706.19,21.12C703.47,21.12 700.75,21.12 698.03,21.12C695.31,21.12 692.58,21.12 689.86,21.12C687.14,21.12 684.42,21.12 681.7,21.12C678.98,21.12 676.26,21.12 673.54,21.12C670.82,21.12 668.09,21.12 665.37,21.12C662.65,21.12 659.93,21.12 657.21,21.12C654.49,21.12 651.77,21.12 649.05,21.12C646.33,21.12 643.61,21.12 640.89,21.12C638.17,21.12 635.44,21.12 632.72,21.12C630,21.12 627.28,21.12 624.56,21.12C621.84,21.12 619.12,21.12 616.4,21.12C613.68,21.12 610.95,21.12 608.23,21.12C605.51,21.12 602.79,21.12 600.07,21.12C597.35,21.12 594.63,21.12 591.91,21.12C589.19,21.12 586.46,21.12 583.74,21.12C581.02,21.12 578.3,21.12 575.58,21.12C572.86,21.12 570.14,21.12 567.42,21.12C564.7,21.12 561.97,21.12 559.25,21.12C556.53,21.12 553.81,21.12 551.09,21.12C548.37,21.12 545.65,21.12 542.93,21.12C540.21,21.12 537.48,21.13 534.76,21.14C532.04,21.15 529.32,21.16 526.6,21.17C523.88,21.19 521.16,21.2 518.44,21.23C515.72,21.26 513,21.3 510.28,21.34C507.56,21.39 504.83,21.44 502.11,21.5C499.39,21.56 496.67,21.64 493.95,21.72C491.23,21.8 488.51,21.88 485.79,21.96C483.07,22.04 480.34,22.12 477.62,22.18C474.9,22.24 472.18,22.29 469.46,22.31C466.74,22.33 464.02,22.34 461.3,22.32C458.58,22.3 455.85,22.25 453.13,22.19C450.41,22.13 447.69,22.05 444.97,21.98C442.25,21.9 439.53,21.82 436.81,21.74C434.09,21.66 431.36,21.59 428.64,21.52C425.92,21.46 423.2,21.4 420.48,21.35C417.76,21.3 415.04,21.27 412.32,21.24C409.6,21.21 406.88,21.19 404.16,21.17C401.44,21.15 398.71,21.15 395.99,21.14C393.27,21.13 390.55,21.12 387.83,21.12C385.11,21.12 382.39,21.12 379.67,21.12C376.95,21.12 374.22,21.12 371.5,21.12C368.78,21.12 366.06,21.12 363.34,21.12C360.62,21.12 357.9,21.12 355.18,21.12C352.46,21.12 349.73,21.12 347.01,21.12C344.29,21.12 341.57,21.12 338.85,21.12C336.13,21.12 333.41,21.12 330.69,21.12C327.97,21.12 325.24,21.12 322.52,21.12C319.8,21.12 317.08,21.12 314.36,21.12C311.64,21.12 308.92,21.12 306.2,21.12C303.48,21.12 300.76,21.12 298.04,21.12C295.32,21.12 292.59,21.12 289.87,21.12C287.15,21.12 284.43,21.12 281.71,21.12C278.99,21.12 276.27,21.12 273.55,21.12C270.83,21.12 268.1,21.12 265.38,21.12C262.66,21.12 259.94,21.13 257.22,21.13C254.5,21.14 251.78,21.14 249.06,21.15C246.34,21.16 243.61,21.18 240.89,21.2C238.17,21.22 235.45,21.24 232.73,21.28C230.01,21.32 227.29,21.36 224.57,21.42C221.85,21.48 219.12,21.54 216.4,21.62C213.68,21.69 210.96,21.79 208.24,21.87C205.52,21.95 202.8,22.04 200.08,22.12C197.36,22.2 194.64,22.28 191.92,22.34C189.2,22.4 186.47,22.45 183.75,22.48C181.03,22.51 178.31,22.53 175.59,22.54C172.87,22.55 170.15,22.55 167.43,22.56C164.71,22.57 161.98,22.57 159.26,22.59C156.54,22.6 153.82,22.62 151.1,22.65C148.38,22.68 145.66,22.72 142.94,22.77C140.22,22.82 137.49,22.88 134.77,22.96C132.05,23.04 129.33,23.13 126.61,23.25C123.89,23.37 121.17,23.52 118.45,23.69C115.73,23.87 113,24.06 110.28,24.3C107.56,24.54 104.84,24.82 102.12,25.13C99.4,25.44 96.68,25.78 93.96,26.15C91.24,26.52 88.52,26.93 85.8,27.37C83.07,27.81 80.35,28.28 77.63,28.79C74.91,29.3 72.19,29.86 69.47,30.43C66.75,31 64.03,31.63 61.31,32.22C58.59,32.81 55.87,33.45 53.14,33.97C50.43,34.49 47.71,35.01 44.98,35.33C42.27,35.65 39.54,35.89 36.82,35.9C34.1,35.91 31.36,35.74 28.65,35.4C25.92,35.06 23.2,34.48 20.49,33.83C17.75,33.17 15.04,32.31 12.33,31.47C9.6,30.63 6.89,29.66 4.16,28.8C1.44,27.94 -1.27,27.05 -4,26.29C-6.71,25.54 -9.43,24.84 -12.16,24.27C-14.87,23.7 -17.59,23.24 -20.32,22.86Q-23.04,22.48 -28.49,21.98Z" style="vector-effect: none; stroke-width: 2px; stroke: rgb(181, 181, 181); stroke-opacity: 1; fill: rgb(181, 181, 181); fill-opacity: 1;"/><path class="box" d="M46.6,24.81V17.42M29.88,24.81V17.42H86.74V24.81ZM29.88,21.12H20.55M86.74,21.12H133.46" style="vector-effect: non-scaling-stroke; stroke-width: 2px; stroke: rgb(181, 181, 181); stroke-opacity: 1; fill: rgb(181, 181, 181); fill-opacity: 1;"/><path class="mean" d="M124.43,24.81V17.42" style="fill: none; vector-effect: non-scaling-stroke; stroke-width: 2px; stroke-dasharray: 4px, 2px; stroke: rgb(181, 181, 181); stroke-opacity: 1;"/></g></g><g class="scatterlayer mlayer"><g class="trace scatter trace99fdea" style="stroke-miterlimit: 2; opacity: 1;"><g class="fills"/><g class="errorbars"/><g class="lines"/><g class="points"><path class="point" transform="translate(1000,21.12)" d="M2,0A2,2 0 1,1 0,-2A2,2 0 0,1 2,0Z" style="opacity: 1; stroke-width: 0px; fill: rgb(11, 121, 230); fill-opacity: 1;"/></g><g class="text"/></g><g class="trace scatter tracebdf589" style="stroke-miterlimit: 2; opacity: 1;"><g class="fills"/><g class="errorbars"/><g class="lines"/><g class="points"><path class="point" transform="translate(183.86,21.12)" d="M2,0A2,2 0 1,1 0,-2A2,2 0 0,1 2,0Z" style="opacity: 1; stroke-width: 0px; fill: rgb(11, 121, 230); fill-opacity: 1;"/></g><g class="text"/></g><g class="trace scatter trace39a963" style="stroke-miterlimit: 2; opacity: 1;"><g class="fills"/><g class="errorbars"/><g class="lines"/><g class="points"><path class="point" transform="translate(465.05,21.12)" d="M2,0A2,2 0 1,1 0,-2A2,2 0 0,1 2,0Z" style="opacity: 1; stroke-width: 0px; fill: rgb(11, 121, 230); fill-opacity: 1;"/></g><g class="text"/></g><g class="trace scatter tracec37549" style="stroke-miterlimit: 2; opacity: 1;"><g class="fills"/><g class="errorbars"/><g class="lines"/><g class="points"><path class="point" transform="translate(133.46,21.12)" d="M2,0A2,2 0 1,1 0,-2A2,2 0 0,1 2,0Z" style="opacity: 1; stroke-width: 0px; fill: rgb(11, 121, 230); fill-opacity: 1;"/></g><g class="text"/></g><g class="trace scatter trace36a848" style="stroke-miterlimit: 2; opacity: 1;"><g class="fills"/><g class="errorbars"/><g class="lines"/><g class="points"><path class="point" transform="translate(88,21.12)" d="M2,0A2,2 0 1,1 0,-2A2,2 0 0,1 2,0Z" style="opacity: 1; stroke-width: 0px; fill: rgb(11, 121, 230); fill-opacity: 1;"/></g><g class="text"/></g><g class="trace scatter traced5dca8" style="stroke-miterlimit: 2; opacity: 1;"><g class="fills"/><g class="errorbars"/><g class="lines"/><g class="points"><path class="point" transform="translate(56.99,21.12)" d="M2,0A2,2 0 1,1 0,-2A2,2 0 0,1 2,0Z" style="opacity: 1; stroke-width: 0px; fill: rgb(11, 121, 230); fill-opacity: 1;"/></g><g class="text"/></g><g class="trace scatter trace4aab54" style="stroke-miterlimit: 2; opacity: 1;"><g class="fills"/><g class="errorbars"/><g class="lines"/><g class="points"><path class="point" transform="translate(48.74,21.12)" d="M2,0A2,2 0 1,1 0,-2A2,2 0 0,1 2,0Z" style="opacity: 1; stroke-width: 0px; fill: rgb(11, 121, 230); fill-opacity: 1;"/></g><g class="text"/></g><g class="trace scatter trace569c0c" style="stroke-miterlimit: 2; opacity: 1;"><g class="fills"/><g class="errorbars"/><g class="lines"/><g class="points"><path class="point" transform="translate(29.51,21.12)" d="M2,0A2,2 0 1,1 0,-2A2,2 0 0,1 2,0Z" style="opacity: 1; stroke-width: 0px; fill: rgb(11, 121, 230); fill-opacity: 1;"/></g><g class="text"/></g><g class="trace scatter trace895ae3" style="stroke-miterlimit: 2; opacity: 1;"><g class="fills"/><g class="errorbars"/><g class="lines"/><g class="points"><path class="point" transform="translate(26.69,21.12)" d="M2,0A2,2 0 1,1 0,-2A2,2 0 0,1 2,0Z" style="opacity: 1; stroke-width: 0px; fill: rgb(11, 121, 230); fill-opacity: 1;"/></g><g class="text"/></g><g class="trace scatter trace07b056" style="stroke-miterlimit: 2; opacity: 1;"><g class="fills"/><g class="errorbars"/><g class="lines"/><g class="points"><path class="point" transform="translate(50.87,21.12)" d="M2,0A2,2 0 1,1 0,-2A2,2 0 0,1 2,0Z" style="opacity: 1; stroke-width: 0px; fill: rgb(11, 121, 230); fill-opacity: 1;"/></g><g class="text"/></g><g class="trace scatter trace903c0c" style="stroke-miterlimit: 2; opacity: 1;"><g class="fills"/><g class="errorbars"/><g class="lines"/><g class="points"><path class="point" transform="translate(85.49,21.12)" d="M2,0A2,2 0 1,1 0,-2A2,2 0 0,1 2,0Z" style="opacity: 1; stroke-width: 0px; fill: rgb(11, 121, 230); fill-opacity: 1;"/></g><g class="text"/></g><g class="trace scatter tracea41699" style="stroke-miterlimit: 2; opacity: 1;"><g class="fills"/><g class="errorbars"/><g class="lines"/><g class="points"><path class="point" transform="translate(34.57,21.12)" d="M2,0A2,2 0 1,1 0,-2A2,2 0 0,1 2,0Z" style="opacity: 1; stroke-width: 0px; fill: rgb(11, 121, 230); fill-opacity: 1;"/></g><g class="text"/></g><g class="trace scatter trace864783" style="stroke-miterlimit: 2; opacity: 1;"><g class="fills"/><g class="errorbars"/><g class="lines"/><g class="points"><path class="point" transform="translate(79.56,21.12)" d="M2,0A2,2 0 1,1 0,-2A2,2 0 0,1 2,0Z" style="opacity: 1; stroke-width: 0px; fill: rgb(11, 121, 230); fill-opacity: 1;"/></g><g class="text"/></g><g class="trace scatter trace162350" style="stroke-miterlimit: 2; opacity: 1;"><g class="fills"/><g class="errorbars"/><g class="lines"/><g class="points"><path class="point" transform="translate(30.26,21.12)" d="M2,0A2,2 0 1,1 0,-2A2,2 0 0,1 2,0Z" style="opacity: 1; stroke-width: 0px; fill: rgb(11, 121, 230); fill-opacity: 1;"/></g><g class="text"/></g><g class="trace scatter traceafaf15" style="stroke-miterlimit: 2; opacity: 1;"><g class="fills"/><g class="errorbars"/><g class="lines"/><g class="points"><path class="point" transform="translate(31.58,21.12)" d="M2,0A2,2 0 1,1 0,-2A2,2 0 0,1 2,0Z" style="opacity: 1; stroke-width: 0px; fill: rgb(11, 121, 230); fill-opacity: 1;"/></g><g class="text"/></g><g class="trace scatter trace34a9a3" style="stroke-miterlimit: 2; opacity: 1;"><g class="fills"/><g class="errorbars"/><g class="lines"/><g class="points"><path class="point" transform="translate(23.36,21.12)" d="M2,0A2,2 0 1,1 0,-2A2,2 0 0,1 2,0Z" style="opacity: 1; stroke-width: 0px; fill: rgb(11, 121, 230); fill-opacity: 1;"/></g><g class="text"/></g><g class="trace scatter trace7d11b8" style="stroke-miterlimit: 2; opacity: 1;"><g class="fills"/><g class="errorbars"/><g class="lines"/><g class="points"><path class="point" transform="translate(20.55,21.12)" d="M2,0A2,2 0 1,1 0,-2A2,2 0 0,1 2,0Z" style="opacity: 1; stroke-width: 0px; fill: rgb(11, 121, 230); fill-opacity: 1;"/></g><g class="text"/></g><g class="trace scatter trace72a4b5" style="stroke-miterlimit: 2; opacity: 1;"><g class="fills"/><g class="errorbars"/><g class="lines"/><g class="points"><path class="point" transform="translate(21.78,21.12)" d="M2,0A2,2 0 1,1 0,-2A2,2 0 0,1 2,0Z" style="opacity: 1; stroke-width: 0px; fill: rgb(11, 121, 230); fill-opacity: 1;"/></g><g class="text"/></g><g class="trace scatter trace639ef1" style="stroke-miterlimit: 2; opacity: 1;"><g class="fills"/><g class="errorbars"/><g class="lines"/><g class="points"><path class="point" transform="translate(44.47,21.12)" d="M2,0A2,2 0 1,1 0,-2A2,2 0 0,1 2,0Z" style="opacity: 1; stroke-width: 0px; fill: rgb(11, 121, 230); fill-opacity: 1;"/></g><g class="text"/></g><g class="trace scatter tracea71c02" style="stroke-miterlimit: 2; opacity: 1;"><g class="fills"/><g class="errorbars"/><g class="lines"/><g class="points"><path class="point" transform="translate(33.8,21.12)" d="M2,0A2,2 0 1,1 0,-2A2,2 0 0,1 2,0Z" style="opacity: 1; stroke-width: 0px; fill: rgb(11, 121, 230); fill-opacity: 1;"/></g><g class="text"/></g></g></g></g><path class="xlines-above crisp" d="M0,0" style="fill: none;"/><path class="ylines-above crisp" d="M0,0" style="fill: none;"/><g class="overlines-above"/><g class="xaxislayer-above"><g class="x2tick"><text text-anchor="middle" x="0" y="172.61538461538464" transform="translate(84.98,0)" style="font-family: 'Lucida Grande', 'Open Sans', verdana, arial, sans-serif; font-size: 9px; fill: rgb(0, 0, 0); fill-opacity: 0.5; white-space: pre; opacity: 1;">0</text></g><g class="x2tick"><text text-anchor="middle" x="0" y="172.61538461538464" style="font-family: 'Lucida Grande', 'Open Sans', verdana, arial, sans-serif; font-size: 9px; fill: rgb(0, 0, 0); fill-opacity: 0.5; white-space: pre; opacity: 1;" transform="translate(256,0)">1M</text></g><g class="x2tick"><text text-anchor="middle" x="0" y="172.61538461538464" style="font-family: 'Lucida Grande', 'Open Sans', verdana, arial, sans-serif; font-size: 9px; fill: rgb(0, 0, 0); fill-opacity: 0.5; white-space: pre; opacity: 1;" transform="translate(427.03,0)">2M</text></g><g class="x2tick"><text text-anchor="middle" x="0" y="172.61538461538464" style="font-family: 'Lucida Grande', 'Open Sans', verdana, arial, sans-serif; font-size: 9px; fill: rgb(0, 0, 0); fill-opacity: 0.5; white-space: pre; opacity: 1;" transform="translate(598.06,0)">3M</text></g><g class="x2tick"><text text-anchor="middle" x="0" y="172.61538461538464" style="font-family: 'Lucida Grande', 'Open Sans', verdana, arial, sans-serif; font-size: 9px; fill: rgb(0, 0, 0); fill-opacity: 0.5; white-space: pre; opacity: 1;" transform="translate(769.09,0)">4M</text></g><g class="x2tick"><text text-anchor="middle" x="0" y="172.61538461538464" style="font-family: 'Lucida Grande', 'Open Sans', verdana, arial, sans-serif; font-size: 9px; fill: rgb(0, 0, 0); fill-opacity: 0.5; white-space: pre; opacity: 1;" transform="translate(940.11,0)">5M</text></g></g><g class="yaxislayer-above"><g class="y2tick"><text text-anchor="end" x="79" y="3.15" transform="translate(0,141.5046153846154)" style="font-family: 'Lucida Grande', 'Open Sans', verdana, arial, sans-serif; font-size: 9px; fill: rgb(0, 0, 0); fill-opacity: 0.5; white-space: pre; opacity: 1;">Occurrences  </text></g></g><g class="overaxes-above"/></g><g class="subplot x3y3"><g class="layer-subplot"><g class="shapelayer"/><g class="imagelayer"/></g><g class="minor-gridlayer"><g class="x3"/><g class="y3"/></g><g class="gridlayer"><g class="x3"><path class="x3grid crisp" transform="translate(283.98,0)" d="M0,190.76923076923077v42.230769230769226" style="stroke: rgb(0, 0, 0); stroke-opacity: 0.1; stroke-width: 1px;"/><path class="x3grid crisp" transform="translate(482.99,0)" d="M0,190.76923076923077v42.230769230769226" style="stroke: rgb(0, 0, 0); stroke-opacity: 0.1; stroke-width: 1px;"/><path class="x3grid crisp" transform="translate(681.99,0)" d="M0,190.76923076923077v42.230769230769226" style="stroke: rgb(0, 0, 0); stroke-opacity: 0.1; stroke-width: 1px;"/><path class="x3grid crisp" transform="translate(881,0)" d="M0,190.76923076923077v42.230769230769226" style="stroke: rgb(0, 0, 0); stroke-opacity: 0.1; stroke-width: 1px;"/><path class="x3grid crisp" transform="translate(1080,0)" d="M0,190.76923076923077v42.230769230769226" style="stroke: rgb(0, 0, 0); stroke-opacity: 0.1; stroke-width: 1px;"/></g><g class="y3"><path class="y3grid crisp" transform="translate(0,211.88923076923078)" d="M80,0h1005" style="stroke: rgb(0, 0, 0); stroke-opacity: 0.1; stroke-width: 1px;"/></g></g><g class="zerolinelayer"><path class="x3zl zl crisp" transform="translate(84.98,0)" d="M0,190.76923076923077v42.230769230769226" style="stroke: rgb(0, 0, 0); stroke-opacity: 0.1; stroke-width: 2px;"/></g><g class="layer-between"><g class="shapelayer"/><g class="imagelayer"/></g><path class="xlines-below"/><path class="ylines-below"/><g class="overlines-below"/><g class="xaxislayer-below"/><g class="yaxislayer-below"/><g class="overaxes-below"/><g class="overplot"><g class="x3y3" transform="translate(80,190.76923076923077)" clip-path="url(#clip09e996x3y3plot)"><g class="violinlayer mlayer"><g class="trace violins" style="opacity: 0.5;"><path class="violin" d="M4.8,20.25Q4.83,19.7 4.84,19.37C4.86,18.96 4.87,18.47 4.88,17.96C4.9,17.35 4.92,16.65 4.93,15.94C4.95,15.15 4.96,14.28 4.97,13.43C4.98,12.55 4.99,11.62 5.01,10.76C5.02,9.95 5.04,9.11 5.06,8.4C5.07,7.82 5.08,7.21 5.1,6.83C5.11,6.62 5.13,6.33 5.14,6.33C5.16,6.33 5.18,6.67 5.19,6.9C5.21,7.26 5.22,7.78 5.23,8.26C5.25,8.81 5.27,9.42 5.28,10.01C5.3,10.6 5.31,11.22 5.32,11.8C5.33,12.36 5.34,12.91 5.36,13.44C5.37,13.93 5.39,14.4 5.41,14.86C5.42,15.28 5.44,15.69 5.45,16.08C5.46,16.44 5.47,16.78 5.49,17.1C5.5,17.39 5.52,17.67 5.54,17.93C5.55,18.15 5.57,18.36 5.58,18.55C5.59,18.71 5.6,18.85 5.62,18.98C5.63,19.09 5.65,19.18 5.67,19.27C5.68,19.34 5.69,19.4 5.71,19.46C5.72,19.5 5.73,19.55 5.75,19.58C5.76,19.61 5.78,19.63 5.8,19.65C5.81,19.66 5.83,19.66 5.84,19.67C5.86,19.68 5.88,19.68 5.89,19.69C5.91,19.7 5.92,19.72 5.93,19.75C5.95,19.79 5.96,19.84 5.97,19.89C5.99,19.95 6.01,20.03 6.02,20.11C6.04,20.19 6.05,20.28 6.06,20.36C6.07,20.44 6.08,20.53 6.1,20.61C6.11,20.68 6.13,20.75 6.15,20.81C6.16,20.86 6.17,20.91 6.19,20.95C6.2,20.98 6.21,21.01 6.23,21.03C6.24,21.05 6.26,21.07 6.28,21.08C6.29,21.09 6.31,21.09 6.32,21.1C6.33,21.1 6.35,21.11 6.36,21.11C6.38,21.11 6.39,21.11 6.41,21.11C6.42,21.11 6.44,21.11 6.45,21.11C6.46,21.11 6.48,21.12 6.49,21.12C6.51,21.12 6.52,21.12 6.54,21.12C6.55,21.12 6.57,21.12 6.58,21.12C6.6,21.12 6.61,21.12 6.63,21.12C6.64,21.12 6.66,21.12 6.67,21.12C6.68,21.12 6.7,21.12 6.71,21.12C6.73,21.12 6.74,21.12 6.76,21.12C6.77,21.12 6.79,21.12 6.8,21.12C6.81,21.12 6.83,21.12 6.84,21.12C6.86,21.12 6.87,21.12 6.89,21.12C6.9,21.12 6.92,21.11 6.93,21.11C6.94,21.11 6.96,21.11 6.97,21.11C6.99,21.11 7,21.11 7.02,21.11C7.03,21.11 7.05,21.1 7.06,21.09C7.07,21.08 7.09,21.07 7.1,21.06C7.12,21.04 7.14,21.03 7.15,21C7.17,20.97 7.18,20.92 7.19,20.88C7.2,20.83 7.22,20.77 7.23,20.71C7.25,20.64 7.27,20.57 7.28,20.49C7.3,20.41 7.3,20.33 7.32,20.25C7.33,20.18 7.35,20.1 7.37,20.04C7.38,19.99 7.39,19.93 7.41,19.92C7.42,19.91 7.44,19.91 7.45,19.92C7.47,19.94 7.49,20 7.5,20.05C7.52,20.11 7.53,20.2 7.54,20.27C7.55,20.35 7.56,20.43 7.58,20.51C7.59,20.59 7.61,20.66 7.63,20.73C7.64,20.79 7.66,20.84 7.67,20.89C7.68,20.93 7.69,20.97 7.71,21C7.72,21.02 7.74,21.04 7.76,21.06C7.77,21.07 7.79,21.08 7.8,21.09C7.81,21.1 7.83,21.11 7.84,21.11C7.86,21.11 7.87,21.11 7.89,21.11C7.9,21.11 7.92,21.11 7.93,21.11C7.94,21.11 7.96,21.12 7.97,21.12C7.99,21.12 8,21.12 8.02,21.12C8.03,21.12 8.05,21.12 8.06,21.12C8.08,21.12 8.09,21.12 8.11,21.12C8.12,21.12 8.14,21.12 8.15,21.12C8.16,21.12 8.18,21.12 8.19,21.12C8.21,21.12 8.22,21.12 8.24,21.12C8.25,21.12 8.27,21.12 8.28,21.12C8.29,21.12 8.31,21.12 8.32,21.12C8.34,21.12 8.35,21.12 8.37,21.12C8.38,21.12 8.4,21.12 8.41,21.12C8.42,21.12 8.44,21.12 8.45,21.12C8.47,21.12 8.48,21.12 8.5,21.12C8.51,21.12 8.53,21.12 8.54,21.12C8.55,21.12 8.57,21.12 8.58,21.12C8.6,21.12 8.61,21.12 8.63,21.12C8.64,21.12 8.66,21.12 8.67,21.12C8.68,21.12 8.7,21.12 8.71,21.12C8.73,21.12 8.74,21.12 8.76,21.12C8.77,21.12 8.79,21.12 8.8,21.12C8.82,21.12 8.83,21.12 8.85,21.12C8.86,21.12 8.88,21.12 8.89,21.12C8.9,21.12 8.92,21.12 8.93,21.12C8.95,21.12 8.96,21.12 8.98,21.12C8.99,21.12 9.01,21.12 9.02,21.12C9.03,21.12 9.05,21.12 9.06,21.12C9.08,21.12 9.09,21.12 9.11,21.12C9.12,21.12 9.14,21.12 9.15,21.12C9.16,21.12 9.18,21.12 9.19,21.12C9.21,21.12 9.22,21.12 9.24,21.12C9.25,21.12 9.27,21.12 9.28,21.12C9.29,21.12 9.31,21.12 9.32,21.12C9.34,21.12 9.35,21.12 9.37,21.12C9.38,21.12 9.4,21.12 9.41,21.12C9.42,21.12 9.44,21.12 9.45,21.12C9.47,21.12 9.48,21.12 9.5,21.12C9.51,21.12 9.53,21.12 9.54,21.12C9.56,21.12 9.57,21.12 9.59,21.12C9.6,21.12 9.62,21.12 9.63,21.12C9.64,21.12 9.66,21.12 9.67,21.12C9.69,21.12 9.7,21.12 9.72,21.12C9.73,21.12 9.75,21.11 9.76,21.11C9.77,21.11 9.79,21.11 9.8,21.11C9.82,21.11 9.83,21.11 9.85,21.11C9.86,21.11 9.88,21.1 9.89,21.1C9.9,21.09 9.92,21.09 9.93,21.08C9.95,21.07 9.97,21.05 9.98,21.03C10,21.01 10.01,20.98 10.02,20.95C10.04,20.91 10.05,20.86 10.06,20.81C10.08,20.75 10.1,20.68 10.11,20.61C10.13,20.54 10.14,20.46 10.15,20.38C10.16,20.3 10.17,20.21 10.19,20.14C10.2,20.08 10.22,20.01 10.24,19.97C10.25,19.94 10.27,19.9 10.28,19.9C10.3,19.9 10.32,19.94 10.33,19.97C10.35,20.01 10.36,20.08 10.37,20.14C10.38,20.21 10.4,20.3 10.41,20.38C10.43,20.46 10.44,20.54 10.46,20.62C10.47,20.69 10.49,20.75 10.5,20.81Q10.51,20.86 10.54,20.95L10.54,21.28Q10.51,21.37 10.5,21.42C10.49,21.48 10.47,21.54 10.46,21.61C10.44,21.69 10.43,21.77 10.41,21.85C10.4,21.93 10.38,22.02 10.37,22.09C10.36,22.15 10.35,22.22 10.33,22.26C10.32,22.29 10.3,22.33 10.28,22.33C10.27,22.33 10.25,22.3 10.24,22.27C10.22,22.23 10.2,22.15 10.19,22.09C10.17,22.02 10.16,21.93 10.15,21.85C10.14,21.77 10.13,21.69 10.11,21.62C10.1,21.55 10.08,21.48 10.06,21.42C10.05,21.37 10.04,21.32 10.02,21.28C10.01,21.25 10,21.22 9.98,21.2C9.97,21.18 9.95,21.16 9.93,21.15C9.92,21.14 9.9,21.14 9.89,21.13C9.88,21.13 9.86,21.12 9.85,21.12C9.83,21.12 9.82,21.12 9.8,21.12C9.79,21.12 9.77,21.12 9.76,21.12C9.75,21.12 9.73,21.12 9.72,21.12C9.7,21.12 9.69,21.12 9.67,21.12C9.66,21.12 9.64,21.12 9.63,21.12C9.62,21.12 9.6,21.12 9.59,21.12C9.57,21.12 9.56,21.12 9.54,21.12C9.53,21.12 9.51,21.12 9.5,21.12C9.48,21.12 9.47,21.12 9.45,21.12C9.44,21.12 9.42,21.12 9.41,21.12C9.4,21.12 9.38,21.12 9.37,21.12C9.35,21.12 9.34,21.12 9.32,21.12C9.31,21.12 9.29,21.12 9.28,21.12C9.27,21.12 9.25,21.12 9.24,21.12C9.22,21.12 9.21,21.12 9.19,21.12C9.18,21.12 9.16,21.12 9.15,21.12C9.14,21.12 9.12,21.12 9.11,21.12C9.09,21.12 9.08,21.12 9.06,21.12C9.05,21.12 9.03,21.12 9.02,21.12C9.01,21.12 8.99,21.12 8.98,21.12C8.96,21.12 8.95,21.12 8.93,21.12C8.92,21.12 8.9,21.12 8.89,21.12C8.88,21.12 8.86,21.12 8.85,21.12C8.83,21.12 8.82,21.12 8.8,21.12C8.79,21.12 8.77,21.12 8.76,21.12C8.74,21.12 8.73,21.12 8.71,21.12C8.7,21.12 8.68,21.12 8.67,21.12C8.66,21.12 8.64,21.12 8.63,21.12C8.61,21.12 8.6,21.12 8.58,21.12C8.57,21.12 8.55,21.12 8.54,21.12C8.53,21.12 8.51,21.12 8.5,21.12C8.48,21.12 8.47,21.12 8.45,21.12C8.44,21.12 8.42,21.12 8.41,21.12C8.4,21.12 8.38,21.12 8.37,21.12C8.35,21.12 8.34,21.12 8.32,21.12C8.31,21.12 8.29,21.12 8.28,21.12C8.27,21.12 8.25,21.12 8.24,21.12C8.22,21.12 8.21,21.12 8.19,21.12C8.18,21.12 8.16,21.12 8.15,21.12C8.14,21.12 8.12,21.12 8.11,21.12C8.09,21.12 8.08,21.12 8.06,21.12C8.05,21.12 8.03,21.12 8.02,21.12C8,21.12 7.99,21.12 7.97,21.12C7.96,21.12 7.94,21.12 7.93,21.12C7.92,21.12 7.9,21.12 7.89,21.12C7.87,21.12 7.86,21.12 7.84,21.12C7.83,21.12 7.81,21.13 7.8,21.14C7.79,21.15 7.77,21.16 7.76,21.17C7.74,21.19 7.72,21.21 7.71,21.23C7.69,21.26 7.68,21.3 7.67,21.34C7.66,21.39 7.64,21.44 7.63,21.5C7.61,21.57 7.59,21.64 7.58,21.72C7.56,21.8 7.55,21.88 7.54,21.96C7.53,22.03 7.52,22.12 7.5,22.18C7.49,22.23 7.47,22.29 7.45,22.31C7.44,22.32 7.42,22.33 7.41,22.32C7.39,22.31 7.38,22.24 7.37,22.19C7.35,22.13 7.33,22.05 7.32,21.98C7.3,21.9 7.3,21.82 7.28,21.74C7.27,21.66 7.25,21.59 7.23,21.52C7.22,21.46 7.2,21.4 7.19,21.35C7.18,21.31 7.17,21.27 7.15,21.24C7.14,21.21 7.12,21.19 7.1,21.17C7.09,21.16 7.07,21.15 7.06,21.14C7.05,21.13 7.03,21.12 7.02,21.12C7,21.12 6.99,21.12 6.97,21.12C6.96,21.12 6.94,21.12 6.93,21.12C6.92,21.12 6.9,21.12 6.89,21.12C6.87,21.12 6.86,21.12 6.84,21.12C6.83,21.12 6.81,21.12 6.8,21.12C6.79,21.12 6.77,21.12 6.76,21.12C6.74,21.12 6.73,21.12 6.71,21.12C6.7,21.12 6.68,21.12 6.67,21.12C6.66,21.12 6.64,21.12 6.63,21.12C6.61,21.12 6.6,21.12 6.58,21.12C6.57,21.12 6.55,21.12 6.54,21.12C6.52,21.12 6.51,21.12 6.49,21.12C6.48,21.12 6.46,21.12 6.45,21.12C6.44,21.12 6.42,21.12 6.41,21.12C6.39,21.12 6.38,21.12 6.36,21.12C6.35,21.12 6.33,21.13 6.32,21.13C6.31,21.14 6.29,21.14 6.28,21.15C6.26,21.16 6.24,21.18 6.23,21.2C6.21,21.22 6.2,21.25 6.19,21.28C6.17,21.32 6.16,21.37 6.15,21.42C6.13,21.48 6.11,21.55 6.1,21.62C6.08,21.7 6.07,21.79 6.06,21.87C6.05,21.95 6.04,22.04 6.02,22.12C6.01,22.2 5.99,22.28 5.97,22.34C5.96,22.39 5.95,22.44 5.93,22.48C5.92,22.51 5.91,22.53 5.89,22.54C5.88,22.55 5.86,22.55 5.84,22.56C5.83,22.57 5.81,22.58 5.8,22.59C5.78,22.61 5.76,22.62 5.75,22.65C5.73,22.68 5.72,22.73 5.71,22.77C5.69,22.83 5.68,22.89 5.67,22.96C5.65,23.05 5.63,23.14 5.62,23.25C5.6,23.38 5.59,23.53 5.58,23.69C5.57,23.88 5.55,24.08 5.54,24.3C5.52,24.56 5.5,24.84 5.49,25.13C5.47,25.45 5.46,25.79 5.45,26.15C5.44,26.54 5.42,26.95 5.41,27.37C5.39,27.83 5.37,28.3 5.36,28.79C5.34,29.32 5.33,29.87 5.32,30.43C5.31,31.01 5.3,31.63 5.28,32.22C5.27,32.81 5.25,33.42 5.23,33.97C5.22,34.45 5.21,34.97 5.19,35.33C5.18,35.56 5.16,35.9 5.14,35.9C5.13,35.9 5.11,35.61 5.1,35.4C5.08,35.02 5.07,34.41 5.06,33.83C5.04,33.12 5.02,32.28 5.01,31.47C4.99,30.61 4.98,29.68 4.97,28.8C4.96,27.95 4.95,27.08 4.93,26.29C4.92,25.58 4.9,24.88 4.88,24.27C4.87,23.76 4.86,23.27 4.84,22.86Q4.83,22.53 4.8,21.98Z" style="vector-effect: none; stroke-width: 2px; stroke: rgb(181, 181, 181); stroke-opacity: 1; fill: rgb(181, 181, 181); fill-opacity: 1;"/><path class="box" d="M5.2,24.81V17.42M5.11,24.81V17.42H5.41V24.81ZM5.11,21.12H5.06M5.41,21.12H5.66" style="vector-effect: non-scaling-stroke; stroke-width: 2px; stroke: rgb(181, 181, 181); stroke-opacity: 1; fill: rgb(181, 181, 181); fill-opacity: 1;"/><path class="mean" d="M5.61,24.81V17.42" style="fill: none; vector-effect: non-scaling-stroke; stroke-width: 2px; stroke-dasharray: 4px, 2px; stroke: rgb(181, 181, 181); stroke-opacity: 1;"/></g></g><g class="scatterlayer mlayer"><g class="trace scatter trace2acb23" style="stroke-miterlimit: 2; opacity: 1;"><g class="fills"/><g class="errorbars"/><g class="lines"/><g class="points"><path class="point" transform="translate(10.28,21.12)" d="M2,0A2,2 0 1,1 0,-2A2,2 0 0,1 2,0Z" style="opacity: 1; stroke-width: 0px; fill: rgb(11, 121, 230); fill-opacity: 1;"/></g><g class="text"/></g><g class="trace scatter trace19cbbf" style="stroke-miterlimit: 2; opacity: 1;"><g class="fills"/><g class="errorbars"/><g class="lines"/><g class="points"><path class="point" transform="translate(5.93,21.12)" d="M2,0A2,2 0 1,1 0,-2A2,2 0 0,1 2,0Z" style="opacity: 1; stroke-width: 0px; fill: rgb(11, 121, 230); fill-opacity: 1;"/></g><g class="text"/></g><g class="trace scatter trace0da6c0" style="stroke-miterlimit: 2; opacity: 1;"><g class="fills"/><g class="errorbars"/><g class="lines"/><g class="points"><path class="point" transform="translate(7.43,21.12)" d="M2,0A2,2 0 1,1 0,-2A2,2 0 0,1 2,0Z" style="opacity: 1; stroke-width: 0px; fill: rgb(11, 121, 230); fill-opacity: 1;"/></g><g class="text"/></g><g class="trace scatter trace575111" style="stroke-miterlimit: 2; opacity: 1;"><g class="fills"/><g class="errorbars"/><g class="lines"/><g class="points"><path class="point" transform="translate(5.66,21.12)" d="M2,0A2,2 0 1,1 0,-2A2,2 0 0,1 2,0Z" style="opacity: 1; stroke-width: 0px; fill: rgb(11, 121, 230); fill-opacity: 1;"/></g><g class="text"/></g><g class="trace scatter trace8d439c" style="stroke-miterlimit: 2; opacity: 1;"><g class="fills"/><g class="errorbars"/><g class="lines"/><g class="points"><path class="point" transform="translate(5.42,21.12)" d="M2,0A2,2 0 1,1 0,-2A2,2 0 0,1 2,0Z" style="opacity: 1; stroke-width: 0px; fill: rgb(11, 121, 230); fill-opacity: 1;"/></g><g class="text"/></g><g class="trace scatter trace01543e" style="stroke-miterlimit: 2; opacity: 1;"><g class="fills"/><g class="errorbars"/><g class="lines"/><g class="points"><path class="point" transform="translate(5.25,21.12)" d="M2,0A2,2 0 1,1 0,-2A2,2 0 0,1 2,0Z" style="opacity: 1; stroke-width: 0px; fill: rgb(11, 121, 230); fill-opacity: 1;"/></g><g class="text"/></g><g class="trace scatter trace913c67" style="stroke-miterlimit: 2; opacity: 1;"><g class="fills"/><g class="errorbars"/><g class="lines"/><g class="points"><path class="point" transform="translate(5.21,21.12)" d="M2,0A2,2 0 1,1 0,-2A2,2 0 0,1 2,0Z" style="opacity: 1; stroke-width: 0px; fill: rgb(11, 121, 230); fill-opacity: 1;"/></g><g class="text"/></g><g class="trace scatter trace6d3c49" style="stroke-miterlimit: 2; opacity: 1;"><g class="fills"/><g class="errorbars"/><g class="lines"/><g class="points"><path class="point" transform="translate(5.11,21.12)" d="M2,0A2,2 0 1,1 0,-2A2,2 0 0,1 2,0Z" style="opacity: 1; stroke-width: 0px; fill: rgb(11, 121, 230); fill-opacity: 1;"/></g><g class="text"/></g><g class="trace scatter trace5aba86" style="stroke-miterlimit: 2; opacity: 1;"><g class="fills"/><g class="errorbars"/><g class="lines"/><g class="points"><path class="point" transform="translate(5.09,21.12)" d="M2,0A2,2 0 1,1 0,-2A2,2 0 0,1 2,0Z" style="opacity: 1; stroke-width: 0px; fill: rgb(11, 121, 230); fill-opacity: 1;"/></g><g class="text"/></g><g class="trace scatter trace711b3b" style="stroke-miterlimit: 2; opacity: 1;"><g class="fills"/><g class="errorbars"/><g class="lines"/><g class="points"><path class="point" transform="translate(5.22,21.12)" d="M2,0A2,2 0 1,1 0,-2A2,2 0 0,1 2,0Z" style="opacity: 1; stroke-width: 0px; fill: rgb(11, 121, 230); fill-opacity: 1;"/></g><g class="text"/></g><g class="trace scatter trace9cb117" style="stroke-miterlimit: 2; opacity: 1;"><g class="fills"/><g class="errorbars"/><g class="lines"/><g class="points"><path class="point" transform="translate(5.4,21.12)" d="M2,0A2,2 0 1,1 0,-2A2,2 0 0,1 2,0Z" style="opacity: 1; stroke-width: 0px; fill: rgb(11, 121, 230); fill-opacity: 1;"/></g><g class="text"/></g><g class="trace scatter trace966ee1" style="stroke-miterlimit: 2; opacity: 1;"><g class="fills"/><g class="errorbars"/><g class="lines"/><g class="points"><path class="point" transform="translate(5.13,21.12)" d="M2,0A2,2 0 1,1 0,-2A2,2 0 0,1 2,0Z" style="opacity: 1; stroke-width: 0px; fill: rgb(11, 121, 230); fill-opacity: 1;"/></g><g class="text"/></g><g class="trace scatter trace90a8c3" style="stroke-miterlimit: 2; opacity: 1;"><g class="fills"/><g class="errorbars"/><g class="lines"/><g class="points"><path class="point" transform="translate(5.37,21.12)" d="M2,0A2,2 0 1,1 0,-2A2,2 0 0,1 2,0Z" style="opacity: 1; stroke-width: 0px; fill: rgb(11, 121, 230); fill-opacity: 1;"/></g><g class="text"/></g><g class="trace scatter trace18eeb4" style="stroke-miterlimit: 2; opacity: 1;"><g class="fills"/><g class="errorbars"/><g class="lines"/><g class="points"><path class="point" transform="translate(5.11,21.12)" d="M2,0A2,2 0 1,1 0,-2A2,2 0 0,1 2,0Z" style="opacity: 1; stroke-width: 0px; fill: rgb(11, 121, 230); fill-opacity: 1;"/></g><g class="text"/></g><g class="trace scatter trace7c4a57" style="stroke-miterlimit: 2; opacity: 1;"><g class="fills"/><g class="errorbars"/><g class="lines"/><g class="points"><path class="point" transform="translate(5.12,21.12)" d="M2,0A2,2 0 1,1 0,-2A2,2 0 0,1 2,0Z" style="opacity: 1; stroke-width: 0px; fill: rgb(11, 121, 230); fill-opacity: 1;"/></g><g class="text"/></g><g class="trace scatter trace27834b" style="stroke-miterlimit: 2; opacity: 1;"><g class="fills"/><g class="errorbars"/><g class="lines"/><g class="points"><path class="point" transform="translate(5.07,21.12)" d="M2,0A2,2 0 1,1 0,-2A2,2 0 0,1 2,0Z" style="opacity: 1; stroke-width: 0px; fill: rgb(11, 121, 230); fill-opacity: 1;"/></g><g class="text"/></g><g class="trace scatter traceb8148e" style="stroke-miterlimit: 2; opacity: 1;"><g class="fills"/><g class="errorbars"/><g class="lines"/><g class="points"><path class="point" transform="translate(5.06,21.12)" d="M2,0A2,2 0 1,1 0,-2A2,2 0 0,1 2,0Z" style="opacity: 1; stroke-width: 0px; fill: rgb(11, 121, 230); fill-opacity: 1;"/></g><g class="text"/></g><g class="trace scatter trace75ef31" style="stroke-miterlimit: 2; opacity: 1;"><g class="fills"/><g class="errorbars"/><g class="lines"/><g class="points"><path class="point" transform="translate(5.06,21.12)" d="M2,0A2,2 0 1,1 0,-2A2,2 0 0,1 2,0Z" style="opacity: 1; stroke-width: 0px; fill: rgb(11, 121, 230); fill-opacity: 1;"/></g><g class="text"/></g><g class="trace scatter trace670f6e" style="stroke-miterlimit: 2; opacity: 1;"><g class="fills"/><g class="errorbars"/><g class="lines"/><g class="points"><path class="point" transform="translate(5.19,21.12)" d="M2,0A2,2 0 1,1 0,-2A2,2 0 0,1 2,0Z" style="opacity: 1; stroke-width: 0px; fill: rgb(11, 121, 230); fill-opacity: 1;"/></g><g class="text"/></g><g class="trace scatter trace4f2b82" style="stroke-miterlimit: 2; opacity: 1;"><g class="fills"/><g class="errorbars"/><g class="lines"/><g class="points"><path class="point" transform="translate(5.13,21.12)" d="M2,0A2,2 0 1,1 0,-2A2,2 0 0,1 2,0Z" style="opacity: 1; stroke-width: 0px; fill: rgb(11, 121, 230); fill-opacity: 1;"/></g><g class="text"/></g></g></g></g><path class="xlines-above crisp" d="M0,0" style="fill: none;"/><path class="ylines-above crisp" d="M0,0" style="fill: none;"/><g class="overlines-above"/><g class="xaxislayer-above"><g class="x3tick"><text text-anchor="middle" x="0" y="243" transform="translate(84.98,0)" style="font-family: 'Lucida Grande', 'Open Sans', verdana, arial, sans-serif; font-size: 9px; fill: rgb(0, 0, 0); fill-opacity: 0.5; white-space: pre; opacity: 1;">0%</text></g><g class="x3tick"><text text-anchor="middle" x="0" y="243" style="font-family: 'Lucida Grande', 'Open Sans', verdana, arial, sans-serif; font-size: 9px; fill: rgb(0, 0, 0); fill-opacity: 0.5; white-space: pre; opacity: 1;" transform="translate(283.98,0)">20%</text></g><g class="x3tick"><text text-anchor="middle" x="0" y="243" style="font-family: 'Lucida Grande', 'Open Sans', verdana, arial, sans-serif; font-size: 9px; fill: rgb(0, 0, 0); fill-opacity: 0.5; white-space: pre; opacity: 1;" transform="translate(482.99,0)">40%</text></g><g class="x3tick"><text text-anchor="middle" x="0" y="243" style="font-family: 'Lucida Grande', 'Open Sans', verdana, arial, sans-serif; font-size: 9px; fill: rgb(0, 0, 0); fill-opacity: 0.5; white-space: pre; opacity: 1;" transform="translate(681.99,0)">60%</text></g><g class="x3tick"><text text-anchor="middle" x="0" y="243" style="font-family: 'Lucida Grande', 'Open Sans', verdana, arial, sans-serif; font-size: 9px; fill: rgb(0, 0, 0); fill-opacity: 0.5; white-space: pre; opacity: 1;" transform="translate(881,0)">80%</text></g><g class="x3tick"><text text-anchor="middle" x="0" y="243" style="font-family: 'Lucida Grande', 'Open Sans', verdana, arial, sans-serif; font-size: 9px; fill: rgb(0, 0, 0); fill-opacity: 0.5; white-space: pre; opacity: 1;" transform="translate(1080,0)">100%</text></g></g><g class="yaxislayer-above"><g class="y3tick"><text text-anchor="end" x="79" y="3.15" transform="translate(0,211.88923076923078)" style="font-family: 'Lucida Grande', 'Open Sans', verdana, arial, sans-serif; font-size: 9px; fill: rgb(0, 0, 0); fill-opacity: 0.5; white-space: pre; opacity: 1;">% of all reads  </text></g></g><g class="overaxes-above"/></g></g><g class="polarlayer"/><g class="smithlayer"/><g class="ternarylayer"/><g class="geolayer"/><g class="funnelarealayer"/><g class="pielayer"/><g class="iciclelayer"/><g class="treemaplayer"/><g class="sunburstlayer"/><g class="glimages"/><defs id="topdefs-09e996"><g class="clips"/></defs><g class="layer-above"><g class="imagelayer"/><g class="shapelayer"/></g><g class="infolayer"><g class="g-gtitle"><text class="gtitle" x="550" y="25" text-anchor="middle" dy="0em" style="opacity: 1; font-family: 'Lucida Grande', 'Open Sans', verdana, arial, sans-serif; font-size: 20px; fill: rgb(42, 63, 95); fill-opacity: 1; white-space: pre;"><tspan class="line" dy="0em" x="550" y="25">FastQC: Top overrepresented sequences</tspan><tspan class="line" dy="1.3em" x="550" y="25"><tspan style="font-size:70%" dy="-0.6em">20 samples</tspan><tspan dy="0.42em"></tspan></tspan></text></g><g class="g-xtitle"/><g class="g-x2title"/><g class="g-x3title"/><g class="g-ytitle"/><g class="g-y2title"/><g class="g-y3title"/></g></svg>