<svg class="main-svg" xmlns="http://www.w3.org/2000/svg" xmlns:xlink="http://www.w3.org/1999/xlink" width="2200" height="546" style="" viewBox="0 0 1100 273"><rect x="0" y="0" width="1100" height="273" style="fill: rgb(255, 255, 255); fill-opacity: 1;"/><defs id="defs-172a46"><g class="clips"><clipPath id="clip172a46xyplot" class="plotclip"><rect width="1005" height="42.230769230769226"/></clipPath><clipPath id="clip172a46x2y2plot" class="plotclip"><rect width="1005" height="42.230769230769226"/></clipPath><clipPath id="clip172a46x3y3plot" class="plotclip"><rect width="1005" height="42.230769230769226"/></clipPath><clipPath class="axesclip" id="clip172a46x"><rect x="80" y="0" width="1005" height="273"/></clipPath><clipPath class="axesclip" id="clip172a46y"><rect x="0" y="50.00000000000002" width="1100" height="42.230769230769226"/></clipPath><clipPath class="axesclip" id="clip172a46xy"><rect x="80" y="50.00000000000002" width="1005" height="42.230769230769226"/></clipPath><clipPath class="axesclip" id="clip172a46y2"><rect x="0" y="120.3846153846154" width="1100" height="42.230769230769226"/></clipPath><clipPath class="axesclip" id="clip172a46xy2"><rect x="80" y="120.3846153846154" width="1005" height="42.230769230769226"/></clipPath><clipPath class="axesclip" id="clip172a46y3"><rect x="0" y="190.76923076923077" width="1100" height="42.230769230769226"/></clipPath><clipPath class="axesclip" id="clip172a46xy3"><rect x="80" y="190.76923076923077" width="1005" height="42.230769230769226"/></clipPath><clipPath class="axesclip" id="clip172a46x2"><rect x="80" y="0" width="1005" height="273"/></clipPath><clipPath class="axesclip" id="clip172a46x2y"><rect x="80" y="50.00000000000002" width="1005" height="42.230769230769226"/></clipPath><clipPath class="axesclip" id="clip172a46x2y2"><rect x="80" y="120.3846153846154" width="1005" height="42.230769230769226"/></clipPath><clipPath class="axesclip" id="clip172a46x2y3"><rect x="80" y="190.76923076923077" width="1005" height="42.230769230769226"/></clipPath><clipPath class="axesclip" id="clip172a46x3"><rect x="80" y="0" width="1005" height="273"/></clipPath><clipPath class="axesclip" id="clip172a46x3y"><rect x="80" y="50.00000000000002" width="1005" height="42.230769230769226"/></clipPath><clipPath class="axesclip" id="clip172a46x3y2"><rect x="80" y="120.3846153846154" width="1005" height="42.230769230769226"/></clipPath><clipPath class="axesclip" id="clip172a46x3y3"><rect x="80" y="190.76923076923077" width="1005" height="42.230769230769226"/></clipPath></g><g class="gradients"/><g class="patterns"/></defs><g class="bglayer"/><g class="layer-below"><g class="imagelayer"/><g class="shapelayer"/></g><g class="cartesianlayer"><g class="subplot xy"><g class="layer-subplot"><g class="shapelayer"/><g class="imagelayer"/></g><g class="minor-gridlayer"><g class="x"/><g class="y"/></g><g class="gridlayer"><g class="x"><path class="xgrid crisp" transform="translate(256.53,0)" d="M0,50.00000000000002v42.230769230769226" style="stroke: rgb(0, 0, 0); stroke-opacity: 0.1; stroke-width: 1px;"/><path class="xgrid crisp" transform="translate(428.09,0)" d="M0,50.00000000000002v42.230769230769226" style="stroke: rgb(0, 0, 0); stroke-opacity: 0.1; stroke-width: 1px;"/><path class="xgrid crisp" transform="translate(599.64,0)" d="M0,50.00000000000002v42.230769230769226" style="stroke: rgb(0, 0, 0); stroke-opacity: 0.1; stroke-width: 1px;"/><path class="xgrid crisp" transform="translate(771.2,0)" d="M0,50.00000000000002v42.230769230769226" style="stroke: rgb(0, 0, 0); stroke-opacity: 0.1; stroke-width: 1px;"/><path class="xgrid crisp" transform="translate(942.76,0)" d="M0,50.00000000000002v42.230769230769226" style="stroke: rgb(0, 0, 0); stroke-opacity: 0.1; stroke-width: 1px;"/></g><g class="y"><path class="ygrid crisp" transform="translate(0,71.12000000000002)" d="M80,0h1005" style="stroke: rgb(0, 0, 0); stroke-opacity: 0.1; stroke-width: 1px;"/></g></g><g class="zerolinelayer"><path class="xzl zl crisp" transform="translate(84.98,0)" d="M0,50.00000000000002v42.230769230769226" style="stroke: rgb(0, 0, 0); stroke-opacity: 0.1; stroke-width: 2px;"/></g><g class="layer-between"><g class="shapelayer"/><g class="imagelayer"/></g><path class="xlines-below"/><path class="ylines-below"/><g class="overlines-below"/><g class="xaxislayer-below"/><g class="yaxislayer-below"/><g class="overaxes-below"/><g class="overplot"><g class="xy" transform="translate(80,50.00000000000002)" clip-path="url(#clip172a46xyplot)"><g class="violinlayer mlayer"><g class="trace violins" style="opacity: 0.5;"><path class="violin" d="M-50.11,20.42Q-28.88,20.02 -18.26,19.7C-7.64,19.38 2.98,19 13.6,18.51C24.22,18.02 34.84,17.42 45.46,16.75C56.08,16.07 66.7,15.27 77.32,14.46C87.94,13.65 98.55,12.72 109.17,11.87C119.79,11.02 130.41,10.1 141.03,9.35C151.65,8.6 162.27,7.88 172.89,7.38C183.51,6.88 194.13,6.5 204.75,6.33C215.37,6.16 225.98,6.19 236.6,6.36C247.22,6.53 257.84,6.92 268.46,7.36C279.08,7.8 289.7,8.41 300.32,9C310.94,9.59 321.56,10.28 332.18,10.91C342.8,11.54 353.42,12.18 364.04,12.76C374.66,13.34 385.27,13.89 395.89,14.37C406.51,14.85 417.13,15.28 427.75,15.66C438.37,16.04 448.99,16.37 459.61,16.65C470.23,16.93 480.85,17.16 491.47,17.36C502.09,17.56 512.7,17.72 523.32,17.86C533.94,18 544.56,18.1 555.18,18.2C565.8,18.3 576.42,18.37 587.04,18.45C597.66,18.52 608.28,18.58 618.9,18.65C629.52,18.71 640.13,18.78 650.75,18.84C661.37,18.9 671.99,18.96 682.61,19.02C693.23,19.08 703.85,19.13 714.47,19.18C725.09,19.22 735.71,19.26 746.33,19.29C756.95,19.32 767.56,19.34 778.18,19.36C788.8,19.38 799.42,19.38 810.04,19.39C820.66,19.4 831.28,19.4 841.9,19.41C852.52,19.42 863.14,19.42 873.76,19.43C884.38,19.44 895,19.45 905.62,19.46C916.24,19.47 926.85,19.48 937.47,19.49C948.09,19.51 958.71,19.52 969.33,19.55C979.95,19.58 990.57,19.62 1001.19,19.67C1011.81,19.72 1022.43,19.79 1033.05,19.86C1043.67,19.93 1054.28,20.02 1064.9,20.1C1075.52,20.19 1086.14,20.28 1096.76,20.37C1107.38,20.45 1118,20.54 1128.62,20.61C1139.24,20.68 1149.86,20.75 1160.48,20.81Q1171.1,20.87 1192.33,20.95L1192.33,21.28Q1171.1,21.36 1160.48,21.42C1149.86,21.48 1139.24,21.55 1128.62,21.62C1118,21.7 1107.38,21.79 1096.76,21.87C1086.14,21.96 1075.52,22.04 1064.9,22.13C1054.28,22.21 1043.67,22.31 1033.05,22.38C1022.43,22.45 1011.81,22.51 1001.19,22.56C990.57,22.61 979.95,22.65 969.33,22.68C958.71,22.71 948.09,22.72 937.47,22.74C926.85,22.75 916.24,22.76 905.62,22.77C895,22.78 884.38,22.79 873.76,22.8C863.14,22.81 852.52,22.81 841.9,22.82C831.28,22.83 820.66,22.83 810.04,22.84C799.42,22.85 788.8,22.85 778.18,22.87C767.56,22.89 756.95,22.91 746.33,22.94C735.71,22.97 725.09,23.01 714.47,23.05C703.85,23.1 693.23,23.15 682.61,23.21C671.99,23.27 661.37,23.33 650.75,23.39C640.13,23.45 629.52,23.52 618.9,23.58C608.28,23.65 597.66,23.71 587.04,23.78C576.42,23.86 565.8,23.93 555.18,24.03C544.56,24.13 533.94,24.23 523.32,24.37C512.7,24.51 502.09,24.67 491.47,24.87C480.85,25.07 470.23,25.3 459.61,25.58C448.99,25.86 438.37,26.19 427.75,26.57C417.13,26.95 406.51,27.38 395.89,27.86C385.27,28.34 374.66,28.89 364.04,29.47C353.42,30.05 342.8,30.69 332.18,31.32C321.56,31.95 310.94,32.64 300.32,33.23C289.7,33.82 279.08,34.43 268.46,34.87C257.84,35.31 247.22,35.7 236.6,35.87C225.98,36.04 215.37,36.07 204.75,35.9C194.13,35.73 183.51,35.35 172.89,34.85C162.27,34.35 151.65,33.63 141.03,32.88C130.41,32.13 119.79,31.21 109.17,30.36C98.55,29.51 87.94,28.58 77.32,27.77C66.7,26.96 56.08,26.16 45.46,25.48C34.84,24.81 24.22,24.21 13.6,23.72C2.98,23.23 -7.64,22.85 -18.26,22.53Q-28.88,22.21 -50.11,21.81Z" style="vector-effect: none; stroke-width: 2px; stroke: rgb(181, 181, 181); stroke-opacity: 1; fill: rgb(181, 181, 181); fill-opacity: 1;"/><path class="box" d="M245.15,24.81V17.42M193.69,24.81V17.42H416.71V24.81ZM193.69,21.12H142.22M416.71,21.12H656.89" style="vector-effect: non-scaling-stroke; stroke-width: 2px; stroke: rgb(181, 181, 181); stroke-opacity: 1; fill: rgb(181, 181, 181); fill-opacity: 1;"/><path class="mean" d="M346.37,24.81V17.42" style="fill: none; vector-effect: non-scaling-stroke; stroke-width: 2px; stroke-dasharray: 4px, 2px; stroke: rgb(181, 181, 181); stroke-opacity: 1;"/></g></g><g class="scatterlayer mlayer"><g class="trace scatter trace9392e7" style="stroke-miterlimit: 2; opacity: 1;"><g class="fills"/><g class="errorbars"/><g class="lines"/><g class="points"><path class="point" transform="translate(1000,21.12)" d="M2,0A2,2 0 1,1 0,-2A2,2 0 0,1 2,0Z" style="opacity: 1; stroke-width: 0px; fill: rgb(11, 121, 230); fill-opacity: 1;"/></g><g class="text"/></g><g class="trace scatter trace7f5b53" style="stroke-miterlimit: 2; opacity: 1;"><g class="fills"/><g class="errorbars"/><g class="lines"/><g class="points"><path class="point" transform="translate(828.44,21.12)" d="M2,0A2,2 0 1,1 0,-2A2,2 0 0,1 2,0Z" style="opacity: 1; stroke-width: 0px; fill: rgb(11, 121, 230); fill-opacity: 1;"/></g><g class="text"/></g><g class="trace scatter trace60e410" style="stroke-miterlimit: 2; opacity: 1;"><g class="fills"/><g class="errorbars"/><g class="lines"/><g class="points"><path class="point" transform="translate(656.89,21.12)" d="M2,0A2,2 0 1,1 0,-2A2,2 0 0,1 2,0Z" style="opacity: 1; stroke-width: 0px; fill: rgb(11, 121, 230); fill-opacity: 1;"/></g><g class="text"/></g><g class="trace scatter trace161c1c" style="stroke-miterlimit: 2; opacity: 1;"><g class="fills"/><g class="errorbars"/><g class="lines"/><g class="points"><path class="point" transform="translate(553.95,21.12)" d="M2,0A2,2 0 1,1 0,-2A2,2 0 0,1 2,0Z" style="opacity: 1; stroke-width: 0px; fill: rgb(11, 121, 230); fill-opacity: 1;"/></g><g class="text"/></g><g class="trace scatter trace061737" style="stroke-miterlimit: 2; opacity: 1;"><g class="fills"/><g class="errorbars"/><g class="lines"/><g class="points"><path class="point" transform="translate(416.71,21.12)" d="M2,0A2,2 0 1,1 0,-2A2,2 0 0,1 2,0Z" style="opacity: 1; stroke-width: 0px; fill: rgb(11, 121, 230); fill-opacity: 1;"/></g><g class="text"/></g><g class="trace scatter tracef848e7" style="stroke-miterlimit: 2; opacity: 1;"><g class="fills"/><g class="errorbars"/><g class="lines"/><g class="points"><path class="point" transform="translate(416.71,21.12)" d="M2,0A2,2 0 1,1 0,-2A2,2 0 0,1 2,0Z" style="opacity: 1; stroke-width: 0px; fill: rgb(11, 121, 230); fill-opacity: 1;"/></g><g class="text"/></g><g class="trace scatter trace20ea7c" style="stroke-miterlimit: 2; opacity: 1;"><g class="fills"/><g class="errorbars"/><g class="lines"/><g class="points"><path class="point" transform="translate(313.78,21.12)" d="M2,0A2,2 0 1,1 0,-2A2,2 0 0,1 2,0Z" style="opacity: 1; stroke-width: 0px; fill: rgb(11, 121, 230); fill-opacity: 1;"/></g><g class="text"/></g><g class="trace scatter tracee8815b" style="stroke-miterlimit: 2; opacity: 1;"><g class="fills"/><g class="errorbars"/><g class="lines"/><g class="points"><path class="point" transform="translate(313.78,21.12)" d="M2,0A2,2 0 1,1 0,-2A2,2 0 0,1 2,0Z" style="opacity: 1; stroke-width: 0px; fill: rgb(11, 121, 230); fill-opacity: 1;"/></g><g class="text"/></g><g class="trace scatter trace88b2c6" style="stroke-miterlimit: 2; opacity: 1;"><g class="fills"/><g class="errorbars"/><g class="lines"/><g class="points"><path class="point" transform="translate(279.46,21.12)" d="M2,0A2,2 0 1,1 0,-2A2,2 0 0,1 2,0Z" style="opacity: 1; stroke-width: 0px; fill: rgb(11, 121, 230); fill-opacity: 1;"/></g><g class="text"/></g><g class="trace scatter traceaefb7a" style="stroke-miterlimit: 2; opacity: 1;"><g class="fills"/><g class="errorbars"/><g class="lines"/><g class="points"><path class="point" transform="translate(245.15,21.12)" d="M2,0A2,2 0 1,1 0,-2A2,2 0 0,1 2,0Z" style="opacity: 1; stroke-width: 0px; fill: rgb(11, 121, 230); fill-opacity: 1;"/></g><g class="text"/></g><g class="trace scatter traced67948" style="stroke-miterlimit: 2; opacity: 1;"><g class="fills"/><g class="errorbars"/><g class="lines"/><g class="points"><path class="point" transform="translate(245.15,21.12)" d="M2,0A2,2 0 1,1 0,-2A2,2 0 0,1 2,0Z" style="opacity: 1; stroke-width: 0px; fill: rgb(11, 121, 230); fill-opacity: 1;"/></g><g class="text"/></g><g class="trace scatter trace0f2e23" style="stroke-miterlimit: 2; opacity: 1;"><g class="fills"/><g class="errorbars"/><g class="lines"/><g class="points"><path class="point" transform="translate(210.84,21.12)" d="M2,0A2,2 0 1,1 0,-2A2,2 0 0,1 2,0Z" style="opacity: 1; stroke-width: 0px; fill: rgb(11, 121, 230); fill-opacity: 1;"/></g><g class="text"/></g><g class="trace scatter trace52661a" style="stroke-miterlimit: 2; opacity: 1;"><g class="fills"/><g class="errorbars"/><g class="lines"/><g class="points"><path class="point" transform="translate(210.84,21.12)" d="M2,0A2,2 0 1,1 0,-2A2,2 0 0,1 2,0Z" style="opacity: 1; stroke-width: 0px; fill: rgb(11, 121, 230); fill-opacity: 1;"/></g><g class="text"/></g><g class="trace scatter trace727b09" style="stroke-miterlimit: 2; opacity: 1;"><g class="fills"/><g class="errorbars"/><g class="lines"/><g class="points"><path class="point" transform="translate(210.84,21.12)" d="M2,0A2,2 0 1,1 0,-2A2,2 0 0,1 2,0Z" style="opacity: 1; stroke-width: 0px; fill: rgb(11, 121, 230); fill-opacity: 1;"/></g><g class="text"/></g><g class="trace scatter trace3747f2" style="stroke-miterlimit: 2; opacity: 1;"><g class="fills"/><g class="errorbars"/><g class="lines"/><g class="points"><path class="point" transform="translate(210.84,21.12)" d="M2,0A2,2 0 1,1 0,-2A2,2 0 0,1 2,0Z" style="opacity: 1; stroke-width: 0px; fill: rgb(11, 121, 230); fill-opacity: 1;"/></g><g class="text"/></g><g class="trace scatter tracec6cb4b" style="stroke-miterlimit: 2; opacity: 1;"><g class="fills"/><g class="errorbars"/><g class="lines"/><g class="points"><path class="point" transform="translate(176.53,21.12)" d="M2,0A2,2 0 1,1 0,-2A2,2 0 0,1 2,0Z" style="opacity: 1; stroke-width: 0px; fill: rgb(11, 121, 230); fill-opacity: 1;"/></g><g class="text"/></g><g class="trace scatter tracebe7f89" style="stroke-miterlimit: 2; opacity: 1;"><g class="fills"/><g class="errorbars"/><g class="lines"/><g class="points"><path class="point" transform="translate(176.53,21.12)" d="M2,0A2,2 0 1,1 0,-2A2,2 0 0,1 2,0Z" style="opacity: 1; stroke-width: 0px; fill: rgb(11, 121, 230); fill-opacity: 1;"/></g><g class="text"/></g><g class="trace scatter trace0df70d" style="stroke-miterlimit: 2; opacity: 1;"><g class="fills"/><g class="errorbars"/><g class="lines"/><g class="points"><path class="point" transform="translate(176.53,21.12)" d="M2,0A2,2 0 1,1 0,-2A2,2 0 0,1 2,0Z" style="opacity: 1; stroke-width: 0px; fill: rgb(11, 121, 230); fill-opacity: 1;"/></g><g class="text"/></g><g class="trace scatter trace6ac43c" style="stroke-miterlimit: 2; opacity: 1;"><g class="fills"/><g class="errorbars"/><g class="lines"/><g class="points"><path class="point" transform="translate(142.22,21.12)" d="M2,0A2,2 0 1,1 0,-2A2,2 0 0,1 2,0Z" style="opacity: 1; stroke-width: 0px; fill: rgb(11, 121, 230); fill-opacity: 1;"/></g><g class="text"/></g><g class="trace scatter trace2dcb0f" style="stroke-miterlimit: 2; opacity: 1;"><g class="fills"/><g class="errorbars"/><g class="lines"/><g class="points"><path class="point" transform="translate(142.22,21.12)" d="M2,0A2,2 0 1,1 0,-2A2,2 0 0,1 2,0Z" style="opacity: 1; stroke-width: 0px; fill: rgb(11, 121, 230); fill-opacity: 1;"/></g><g class="text"/></g></g></g></g><path class="xlines-above crisp" d="M0,0" style="fill: none;"/><path class="ylines-above crisp" d="M0,0" style="fill: none;"/><g class="overlines-above"/><g class="xaxislayer-above"><g class="xtick"><text text-anchor="middle" x="0" y="102.23076923076925" transform="translate(84.98,0)" style="font-family: 'Lucida Grande', 'Open Sans', verdana, arial, sans-serif; font-size: 9px; fill: rgb(0, 0, 0); fill-opacity: 0.5; white-space: pre; opacity: 1;">0</text></g><g class="xtick"><text text-anchor="middle" x="0" y="102.23076923076925" style="font-family: 'Lucida Grande', 'Open Sans', verdana, arial, sans-serif; font-size: 9px; fill: rgb(0, 0, 0); fill-opacity: 0.5; white-space: pre; opacity: 1;" transform="translate(256.53,0)">5</text></g><g class="xtick"><text text-anchor="middle" x="0" y="102.23076923076925" style="font-family: 'Lucida Grande', 'Open Sans', verdana, arial, sans-serif; font-size: 9px; fill: rgb(0, 0, 0); fill-opacity: 0.5; white-space: pre; opacity: 1;" transform="translate(428.09,0)">10</text></g><g class="xtick"><text text-anchor="middle" x="0" y="102.23076923076925" style="font-family: 'Lucida Grande', 'Open Sans', verdana, arial, sans-serif; font-size: 9px; fill: rgb(0, 0, 0); fill-opacity: 0.5; white-space: pre; opacity: 1;" transform="translate(599.64,0)">15</text></g><g class="xtick"><text text-anchor="middle" x="0" y="102.23076923076925" style="font-family: 'Lucida Grande', 'Open Sans', verdana, arial, sans-serif; font-size: 9px; fill: rgb(0, 0, 0); fill-opacity: 0.5; white-space: pre; opacity: 1;" transform="translate(771.2,0)">20</text></g><g class="xtick"><text text-anchor="middle" x="0" y="102.23076923076925" style="font-family: 'Lucida Grande', 'Open Sans', verdana, arial, sans-serif; font-size: 9px; fill: rgb(0, 0, 0); fill-opacity: 0.5; white-space: pre; opacity: 1;" transform="translate(942.76,0)">25</text></g></g><g class="yaxislayer-above"><g class="ytick"><text text-anchor="end" x="79" y="3.15" transform="translate(0,71.12000000000002)" style="font-family: 'Lucida Grande', 'Open Sans', verdana, arial, sans-serif; font-size: 9px; fill: rgb(0, 0, 0); fill-opacity: 0.5; white-space: pre; opacity: 1;">Reports  </text></g></g><g class="overaxes-above"/></g><g class="subplot x2y2"><g class="layer-subplot"><g class="shapelayer"/><g class="imagelayer"/></g><g class="minor-gridlayer"><g class="x2"/><g class="y2"/></g><g class="gridlayer"><g class="x2"><path class="x2grid crisp" transform="translate(228.5,0)" d="M0,120.3846153846154v42.230769230769226" style="stroke: rgb(0, 0, 0); stroke-opacity: 0.1; stroke-width: 1px;"/><path class="x2grid crisp" transform="translate(372.03,0)" d="M0,120.3846153846154v42.230769230769226" style="stroke: rgb(0, 0, 0); stroke-opacity: 0.1; stroke-width: 1px;"/><path class="x2grid crisp" transform="translate(515.55,0)" d="M0,120.3846153846154v42.230769230769226" style="stroke: rgb(0, 0, 0); stroke-opacity: 0.1; stroke-width: 1px;"/><path class="x2grid crisp" transform="translate(659.08,0)" d="M0,120.3846153846154v42.230769230769226" style="stroke: rgb(0, 0, 0); stroke-opacity: 0.1; stroke-width: 1px;"/><path class="x2grid crisp" transform="translate(802.61,0)" d="M0,120.3846153846154v42.230769230769226" style="stroke: rgb(0, 0, 0); stroke-opacity: 0.1; stroke-width: 1px;"/><path class="x2grid crisp" transform="translate(946.13,0)" d="M0,120.3846153846154v42.230769230769226" style="stroke: rgb(0, 0, 0); stroke-opacity: 0.1; stroke-width: 1px;"/></g><g class="y2"><path class="y2grid crisp" transform="translate(0,141.5046153846154)" d="M80,0h1005" style="stroke: rgb(0, 0, 0); stroke-opacity: 0.1; stroke-width: 1px;"/></g></g><g class="zerolinelayer"><path class="x2zl zl crisp" transform="translate(84.98,0)" d="M0,120.3846153846154v42.230769230769226" style="stroke: rgb(0, 0, 0); stroke-opacity: 0.1; stroke-width: 2px;"/></g><g class="layer-between"><g class="shapelayer"/><g class="imagelayer"/></g><path class="xlines-below"/><path class="ylines-below"/><g class="overlines-below"/><g class="xaxislayer-below"/><g class="yaxislayer-below"/><g class="overaxes-below"/><g class="overplot"><g class="x2y2" transform="translate(80,120.3846153846154)" clip-path="url(#clip172a46x2y2plot)"><g class="violinlayer mlayer"><g class="trace violins" style="opacity: 0.5;"><path class="violin" d="M-16.23,20.59Q-12.09,20.28 -10.03,20.03C-7.96,19.78 -5.89,19.47 -3.83,19.07C-1.76,18.67 0.31,18.18 2.37,17.61C4.45,17.03 6.52,16.36 8.57,15.63C10.65,14.9 12.7,14.05 14.76,13.23C16.83,12.41 18.89,11.52 20.96,10.73C23.02,9.94 25.08,9.13 27.16,8.5C29.21,7.88 31.28,7.32 33.36,6.96C35.41,6.6 37.48,6.38 39.55,6.33C41.61,6.28 43.69,6.43 45.75,6.66C47.82,6.89 49.89,7.3 51.95,7.72C54.02,8.15 56.09,8.69 58.15,9.21C60.22,9.73 62.27,10.3 64.34,10.84C66.4,11.38 68.47,11.91 70.54,12.43C72.61,12.95 74.67,13.46 76.74,13.96C78.81,14.46 80.87,14.94 82.94,15.41C85.01,15.88 87.07,16.35 89.14,16.78C91.2,17.21 93.26,17.63 95.33,18.01C97.39,18.39 99.46,18.75 101.53,19.05C103.59,19.35 105.66,19.61 107.73,19.82C109.79,20.03 111.86,20.2 113.93,20.32C115.99,20.44 118.06,20.51 120.12,20.56C122.19,20.61 124.25,20.61 126.32,20.59C128.39,20.57 130.45,20.52 132.52,20.46C134.59,20.4 136.65,20.32 138.72,20.25C140.79,20.18 142.85,20.09 144.92,20.02C146.98,19.96 149.05,19.9 151.11,19.86C153.18,19.82 155.24,19.8 157.31,19.8C159.38,19.8 161.44,19.84 163.51,19.87C165.58,19.91 167.64,19.96 169.71,20.01C171.77,20.06 173.84,20.11 175.9,20.15C177.97,20.19 180.03,20.22 182.1,20.23C184.17,20.24 186.23,20.22 188.3,20.2C190.37,20.18 192.43,20.13 194.5,20.08C196.56,20.03 198.63,19.96 200.69,19.92C202.76,19.88 204.82,19.84 206.89,19.82C208.96,19.8 211.02,19.8 213.09,19.82C215.16,19.84 217.22,19.88 219.29,19.94C221.36,20 223.42,20.08 225.49,20.16C227.55,20.24 229.62,20.34 231.68,20.42C233.75,20.5 235.81,20.59 237.88,20.66C239.95,20.73 242.01,20.8 244.08,20.85C246.15,20.9 248.21,20.94 250.28,20.97C252.34,21 254.41,21.03 256.47,21.05C258.54,21.07 260.6,21.08 262.67,21.09C264.74,21.1 266.8,21.1 268.87,21.1C270.94,21.1 273,21.11 275.07,21.11C277.13,21.11 279.2,21.11 281.26,21.11C283.33,21.11 285.39,21.12 287.46,21.12C289.53,21.12 291.59,21.12 293.66,21.12C295.73,21.12 297.79,21.12 299.86,21.12C301.93,21.12 303.99,21.12 306.06,21.12C308.12,21.12 310.19,21.12 312.25,21.12C314.32,21.12 316.38,21.12 318.45,21.12C320.52,21.12 322.58,21.12 324.65,21.12C326.72,21.12 328.78,21.12 330.85,21.12C332.91,21.12 334.98,21.12 337.04,21.12C339.11,21.12 341.17,21.12 343.24,21.12C345.31,21.12 347.37,21.12 349.44,21.12C351.51,21.12 353.57,21.12 355.64,21.12C357.71,21.12 359.77,21.11 361.84,21.11C363.9,21.11 365.97,21.11 368.03,21.11C370.1,21.11 372.16,21.11 374.23,21.11C376.3,21.11 378.36,21.1 380.43,21.1C382.5,21.09 384.56,21.09 386.63,21.08C388.69,21.07 390.76,21.06 392.82,21.04C394.89,21.02 396.95,20.99 399.02,20.95C401.09,20.91 403.15,20.87 405.22,20.81C407.29,20.75 409.35,20.69 411.42,20.61C413.48,20.54 415.55,20.44 417.61,20.36C419.68,20.28 421.74,20.19 423.81,20.11C425.88,20.04 427.94,19.96 430.01,19.91C432.08,19.86 434.14,19.83 436.21,19.82C438.28,19.81 440.34,19.83 442.41,19.87C444.47,19.91 446.54,19.97 448.6,20.04C450.67,20.11 452.73,20.21 454.8,20.29C456.87,20.37 458.93,20.46 461,20.54C463.07,20.62 465.13,20.7 467.2,20.76C469.26,20.82 471.33,20.88 473.39,20.92C475.46,20.96 477.52,20.99 479.59,21.02C481.66,21.04 483.72,21.06 485.79,21.07C487.86,21.08 489.92,21.09 491.99,21.1C494.05,21.11 496.12,21.11 498.18,21.11C500.25,21.11 502.31,21.11 504.38,21.11C506.45,21.11 508.51,21.11 510.58,21.11C512.65,21.11 514.71,21.12 516.78,21.12C518.85,21.12 520.91,21.12 522.98,21.12C525.04,21.12 527.11,21.12 529.17,21.12C531.24,21.12 533.3,21.12 535.37,21.12C537.44,21.12 539.5,21.12 541.57,21.12C543.64,21.12 545.7,21.12 547.77,21.12C549.83,21.12 551.9,21.12 553.96,21.12C556.03,21.12 558.09,21.12 560.16,21.12C562.23,21.12 564.29,21.12 566.36,21.12C568.43,21.12 570.49,21.12 572.56,21.12C574.63,21.12 576.69,21.12 578.76,21.12C580.82,21.12 582.89,21.12 584.95,21.12C587.02,21.12 589.08,21.12 591.15,21.12C593.22,21.12 595.28,21.12 597.35,21.12C599.42,21.12 601.48,21.12 603.55,21.12C605.61,21.12 607.68,21.12 609.74,21.12C611.81,21.12 613.87,21.12 615.94,21.12C618.01,21.12 620.07,21.12 622.14,21.12C624.21,21.12 626.27,21.12 628.34,21.12C630.4,21.12 632.47,21.12 634.53,21.12C636.6,21.12 638.66,21.12 640.73,21.12C642.8,21.12 644.86,21.12 646.93,21.12C649,21.12 651.06,21.12 653.13,21.12C655.2,21.12 657.26,21.12 659.33,21.12C661.39,21.12 663.46,21.12 665.52,21.12C667.59,21.12 669.65,21.12 671.72,21.12C673.79,21.12 675.85,21.12 677.92,21.12C679.99,21.12 682.05,21.12 684.12,21.12C686.18,21.12 688.25,21.12 690.31,21.12C692.38,21.12 694.44,21.12 696.51,21.12C698.58,21.12 700.64,21.12 702.71,21.12C704.78,21.12 706.84,21.12 708.91,21.12C710.97,21.12 713.04,21.12 715.1,21.12C717.17,21.12 719.23,21.12 721.3,21.12C723.37,21.12 725.43,21.12 727.5,21.12C729.57,21.12 731.63,21.12 733.7,21.12C735.77,21.12 737.83,21.12 739.9,21.12C741.96,21.12 744.03,21.12 746.09,21.12C748.16,21.12 750.22,21.12 752.29,21.12C754.36,21.12 756.42,21.12 758.49,21.12C760.56,21.12 762.62,21.12 764.69,21.12C766.75,21.12 768.82,21.12 770.88,21.12C772.95,21.12 775.01,21.12 777.08,21.12C779.15,21.12 781.21,21.12 783.28,21.12C785.35,21.12 787.41,21.12 789.48,21.12C791.55,21.12 793.61,21.12 795.68,21.12C797.74,21.12 799.81,21.12 801.87,21.12C803.94,21.12 806,21.12 808.07,21.12C810.14,21.12 812.2,21.12 814.27,21.12C816.34,21.12 818.4,21.12 820.47,21.12C822.53,21.12 824.6,21.12 826.66,21.12C828.73,21.12 830.79,21.12 832.86,21.12C834.93,21.12 836.99,21.12 839.06,21.12C841.13,21.12 843.19,21.12 845.26,21.12C847.32,21.12 849.39,21.12 851.45,21.12C853.52,21.12 855.58,21.12 857.65,21.12C859.72,21.12 861.78,21.12 863.85,21.12C865.92,21.12 867.98,21.12 870.05,21.12C872.12,21.12 874.18,21.12 876.25,21.12C878.31,21.12 880.38,21.12 882.44,21.12C884.51,21.12 886.57,21.12 888.64,21.12C890.71,21.12 892.77,21.12 894.84,21.12C896.91,21.12 898.97,21.12 901.04,21.12C903.1,21.12 905.17,21.12 907.23,21.12C909.3,21.12 911.36,21.12 913.43,21.12C915.5,21.12 917.56,21.12 919.63,21.12C921.7,21.12 923.76,21.11 925.83,21.11C927.89,21.11 929.96,21.11 932.02,21.11C934.09,21.11 936.15,21.11 938.22,21.11C940.29,21.11 942.35,21.1 944.42,21.1C946.49,21.09 948.55,21.09 950.62,21.08C952.69,21.07 954.75,21.06 956.82,21.03C958.88,21.01 960.95,20.97 963.01,20.93C965.08,20.89 967.14,20.84 969.21,20.78C971.28,20.72 973.34,20.65 975.41,20.57C977.48,20.49 979.54,20.4 981.61,20.32C983.67,20.24 985.74,20.14 987.8,20.07C989.87,20 991.93,19.93 994,19.89C996.07,19.85 998.13,19.82 1000.2,19.82C1002.27,19.82 1004.33,19.86 1006.4,19.9C1008.47,19.94 1010.53,20.01 1012.6,20.08C1014.66,20.15 1016.73,20.25 1018.79,20.33C1020.86,20.42 1022.92,20.51 1024.99,20.59C1027.06,20.67 1029.12,20.73 1031.19,20.79Q1033.26,20.85 1037.39,20.94L1037.39,21.29Q1033.26,21.38 1031.19,21.44C1029.12,21.5 1027.06,21.56 1024.99,21.64C1022.92,21.72 1020.86,21.81 1018.79,21.9C1016.73,21.98 1014.66,22.08 1012.6,22.15C1010.53,22.22 1008.47,22.3 1006.4,22.34C1004.33,22.38 1002.27,22.41 1000.2,22.41C998.13,22.41 996.07,22.38 994,22.34C991.93,22.3 989.87,22.23 987.8,22.16C985.74,22.09 983.67,21.99 981.61,21.91C979.54,21.83 977.48,21.74 975.41,21.66C973.34,21.58 971.28,21.51 969.21,21.45C967.14,21.39 965.08,21.34 963.01,21.3C960.95,21.26 958.88,21.23 956.82,21.21C954.75,21.18 952.69,21.16 950.62,21.15C948.55,21.14 946.49,21.14 944.42,21.13C942.35,21.13 940.29,21.12 938.22,21.12C936.15,21.12 934.09,21.12 932.02,21.12C929.96,21.12 927.89,21.12 925.83,21.12C923.76,21.12 921.7,21.12 919.63,21.12C917.56,21.12 915.5,21.12 913.43,21.12C911.36,21.12 909.3,21.12 907.23,21.12C905.17,21.12 903.1,21.12 901.04,21.12C898.97,21.12 896.91,21.12 894.84,21.12C892.77,21.12 890.71,21.12 888.64,21.12C886.57,21.12 884.51,21.12 882.44,21.12C880.38,21.12 878.31,21.12 876.25,21.12C874.18,21.12 872.12,21.12 870.05,21.12C867.98,21.12 865.92,21.12 863.85,21.12C861.78,21.12 859.72,21.12 857.65,21.12C855.58,21.12 853.52,21.12 851.45,21.12C849.39,21.12 847.32,21.12 845.26,21.12C843.19,21.12 841.13,21.12 839.06,21.12C836.99,21.12 834.93,21.12 832.86,21.12C830.79,21.12 828.73,21.12 826.66,21.12C824.6,21.12 822.53,21.12 820.47,21.12C818.4,21.12 816.34,21.12 814.27,21.12C812.2,21.12 810.14,21.12 808.07,21.12C806,21.12 803.94,21.12 801.87,21.12C799.81,21.12 797.74,21.12 795.68,21.12C793.61,21.12 791.55,21.12 789.48,21.12C787.41,21.12 785.35,21.12 783.28,21.12C781.21,21.12 779.15,21.12 777.08,21.12C775.01,21.12 772.95,21.12 770.88,21.12C768.82,21.12 766.75,21.12 764.69,21.12C762.62,21.12 760.56,21.12 758.49,21.12C756.42,21.12 754.36,21.12 752.29,21.12C750.22,21.12 748.16,21.12 746.09,21.12C744.03,21.12 741.96,21.12 739.9,21.12C737.83,21.12 735.77,21.12 733.7,21.12C731.63,21.12 729.57,21.12 727.5,21.12C725.43,21.12 723.37,21.12 721.3,21.12C719.23,21.12 717.17,21.12 715.1,21.12C713.04,21.12 710.97,21.12 708.91,21.12C706.84,21.12 704.78,21.12 702.71,21.12C700.64,21.12 698.58,21.12 696.51,21.12C694.44,21.12 692.38,21.12 690.31,21.12C688.25,21.12 686.18,21.12 684.12,21.12C682.05,21.12 679.99,21.12 677.92,21.12C675.85,21.12 673.79,21.12 671.72,21.12C669.65,21.12 667.59,21.12 665.52,21.12C663.46,21.12 661.39,21.12 659.33,21.12C657.26,21.12 655.2,21.12 653.13,21.12C651.06,21.12 649,21.12 646.93,21.12C644.86,21.12 642.8,21.12 640.73,21.12C638.66,21.12 636.6,21.12 634.53,21.12C632.47,21.12 630.4,21.12 628.34,21.12C626.27,21.12 624.21,21.12 622.14,21.12C620.07,21.12 618.01,21.12 615.94,21.12C613.87,21.12 611.81,21.12 609.74,21.12C607.68,21.12 605.61,21.12 603.55,21.12C601.48,21.12 599.42,21.12 597.35,21.12C595.28,21.12 593.22,21.12 591.15,21.12C589.08,21.12 587.02,21.12 584.95,21.12C582.89,21.12 580.82,21.12 578.76,21.12C576.69,21.12 574.63,21.12 572.56,21.12C570.49,21.12 568.43,21.12 566.36,21.12C564.29,21.12 562.23,21.12 560.16,21.12C558.09,21.12 556.03,21.12 553.96,21.12C551.9,21.12 549.83,21.12 547.77,21.12C545.7,21.12 543.64,21.12 541.57,21.12C539.5,21.12 537.44,21.12 535.37,21.12C533.3,21.12 531.24,21.12 529.17,21.12C527.11,21.12 525.04,21.12 522.98,21.12C520.91,21.12 518.85,21.12 516.78,21.12C514.71,21.12 512.65,21.12 510.58,21.12C508.51,21.12 506.45,21.12 504.38,21.12C502.31,21.12 500.25,21.12 498.18,21.12C496.12,21.12 494.05,21.12 491.99,21.13C489.92,21.14 487.86,21.15 485.79,21.16C483.72,21.17 481.66,21.19 479.59,21.21C477.52,21.24 475.46,21.27 473.39,21.31C471.33,21.35 469.26,21.41 467.2,21.47C465.13,21.53 463.07,21.61 461,21.69C458.93,21.77 456.87,21.86 454.8,21.94C452.73,22.02 450.67,22.12 448.6,22.19C446.54,22.26 444.47,22.32 442.41,22.36C440.34,22.4 438.28,22.42 436.21,22.41C434.14,22.4 432.08,22.37 430.01,22.32C427.94,22.27 425.88,22.19 423.81,22.12C421.74,22.04 419.68,21.95 417.61,21.87C415.55,21.79 413.48,21.69 411.42,21.62C409.35,21.54 407.29,21.48 405.22,21.42C403.15,21.36 401.09,21.32 399.02,21.28C396.95,21.24 394.89,21.21 392.82,21.19C390.76,21.17 388.69,21.16 386.63,21.15C384.56,21.14 382.5,21.14 380.43,21.13C378.36,21.13 376.3,21.12 374.23,21.12C372.16,21.12 370.1,21.12 368.03,21.12C365.97,21.12 363.9,21.12 361.84,21.12C359.77,21.12 357.71,21.12 355.64,21.12C353.57,21.12 351.51,21.12 349.44,21.12C347.37,21.12 345.31,21.12 343.24,21.12C341.17,21.12 339.11,21.12 337.04,21.12C334.98,21.12 332.91,21.12 330.85,21.12C328.78,21.12 326.72,21.12 324.65,21.12C322.58,21.12 320.52,21.12 318.45,21.12C316.38,21.12 314.32,21.12 312.25,21.12C310.19,21.12 308.12,21.12 306.06,21.12C303.99,21.12 301.93,21.12 299.86,21.12C297.79,21.12 295.73,21.12 293.66,21.12C291.59,21.12 289.53,21.12 287.46,21.12C285.39,21.12 283.33,21.12 281.26,21.12C279.2,21.12 277.13,21.12 275.07,21.12C273,21.12 270.94,21.13 268.87,21.13C266.8,21.13 264.74,21.13 262.67,21.14C260.6,21.15 258.54,21.16 256.47,21.18C254.41,21.2 252.34,21.23 250.28,21.26C248.21,21.29 246.15,21.33 244.08,21.38C242.01,21.43 239.95,21.5 237.88,21.57C235.81,21.64 233.75,21.73 231.68,21.81C229.62,21.89 227.55,21.99 225.49,22.07C223.42,22.15 221.36,22.23 219.29,22.29C217.22,22.35 215.16,22.39 213.09,22.41C211.02,22.43 208.96,22.43 206.89,22.41C204.82,22.39 202.76,22.35 200.69,22.31C198.63,22.27 196.56,22.2 194.5,22.15C192.43,22.1 190.37,22.05 188.3,22.03C186.23,22.01 184.17,21.99 182.1,22C180.03,22.01 177.97,22.04 175.9,22.08C173.84,22.12 171.77,22.17 169.71,22.22C167.64,22.27 165.58,22.33 163.51,22.37C161.44,22.4 159.38,22.43 157.31,22.43C155.24,22.43 153.18,22.41 151.11,22.37C149.05,22.33 146.98,22.27 144.92,22.21C142.85,22.14 140.79,22.05 138.72,21.98C136.65,21.91 134.59,21.83 132.52,21.77C130.45,21.71 128.39,21.66 126.32,21.64C124.25,21.62 122.19,21.62 120.12,21.67C118.06,21.72 115.99,21.79 113.93,21.91C111.86,22.03 109.79,22.2 107.73,22.41C105.66,22.62 103.59,22.88 101.53,23.18C99.46,23.48 97.39,23.84 95.33,24.22C93.26,24.6 91.2,25.02 89.14,25.45C87.07,25.88 85.01,26.35 82.94,26.82C80.87,27.29 78.81,27.77 76.74,28.27C74.67,28.77 72.61,29.28 70.54,29.8C68.47,30.32 66.41,30.86 64.34,31.4C62.28,31.94 60.22,32.5 58.15,33.02C56.09,33.54 54.02,34.08 51.95,34.51C49.89,34.93 47.82,35.34 45.75,35.57C43.69,35.8 41.61,35.95 39.55,35.9C37.48,35.85 35.41,35.63 33.36,35.27C31.28,34.91 29.21,34.35 27.16,33.73C25.08,33.1 23.02,32.29 20.96,31.5C18.89,30.71 16.83,29.82 14.76,29C12.7,28.19 10.64,27.34 8.57,26.61C6.51,25.88 4.45,25.2 2.37,24.62C0.31,24.05 -1.76,23.56 -3.83,23.16C-5.89,22.76 -7.96,22.45 -10.03,22.2Q-12.09,21.95 -16.23,21.64Z" style="vector-effect: none; stroke-width: 2px; stroke: rgb(181, 181, 181); stroke-opacity: 1; fill: rgb(181, 181, 181); fill-opacity: 1;"/><path class="box" d="M46.73,24.81V17.42M36.2,24.81V17.42H79.55V24.81ZM36.2,21.12H21.16M79.55,21.12H84.46" style="vector-effect: non-scaling-stroke; stroke-width: 2px; stroke: rgb(181, 181, 181); stroke-opacity: 1; fill: rgb(181, 181, 181); fill-opacity: 1;"/><path class="mean" d="M127.43,24.81V17.42" style="fill: none; vector-effect: non-scaling-stroke; stroke-width: 2px; stroke-dasharray: 4px, 2px; stroke: rgb(181, 181, 181); stroke-opacity: 1;"/></g></g><g class="scatterlayer mlayer"><g class="trace scatter tracec35f13" style="stroke-miterlimit: 2; opacity: 1;"><g class="fills"/><g class="errorbars"/><g class="lines"/><g class="points"><path class="point" transform="translate(1000,21.12)" d="M2,0A2,2 0 1,1 0,-2A2,2 0 0,1 2,0Z" style="opacity: 1; stroke-width: 0px; fill: rgb(11, 121, 230); fill-opacity: 1;"/></g><g class="text"/></g><g class="trace scatter trace44644b" style="stroke-miterlimit: 2; opacity: 1;"><g class="fills"/><g class="errorbars"/><g class="lines"/><g class="points"><path class="point" transform="translate(437.11,21.12)" d="M2,0A2,2 0 1,1 0,-2A2,2 0 0,1 2,0Z" style="opacity: 1; stroke-width: 0px; fill: rgb(11, 121, 230); fill-opacity: 1;"/></g><g class="text"/></g><g class="trace scatter tracef51767" style="stroke-miterlimit: 2; opacity: 1;"><g class="fills"/><g class="errorbars"/><g class="lines"/><g class="points"><path class="point" transform="translate(156.16,21.12)" d="M2,0A2,2 0 1,1 0,-2A2,2 0 0,1 2,0Z" style="opacity: 1; stroke-width: 0px; fill: rgb(11, 121, 230); fill-opacity: 1;"/></g><g class="text"/></g><g class="trace scatter traced527c6" style="stroke-miterlimit: 2; opacity: 1;"><g class="fills"/><g class="errorbars"/><g class="lines"/><g class="points"><path class="point" transform="translate(210.89,21.12)" d="M2,0A2,2 0 1,1 0,-2A2,2 0 0,1 2,0Z" style="opacity: 1; stroke-width: 0px; fill: rgb(11, 121, 230); fill-opacity: 1;"/></g><g class="text"/></g><g class="trace scatter trace6a0460" style="stroke-miterlimit: 2; opacity: 1;"><g class="fills"/><g class="errorbars"/><g class="lines"/><g class="points"><path class="point" transform="translate(84.46,21.12)" d="M2,0A2,2 0 1,1 0,-2A2,2 0 0,1 2,0Z" style="opacity: 1; stroke-width: 0px; fill: rgb(11, 121, 230); fill-opacity: 1;"/></g><g class="text"/></g><g class="trace scatter tracec494d1" style="stroke-miterlimit: 2; opacity: 1;"><g class="fills"/><g class="errorbars"/><g class="lines"/><g class="points"><path class="point" transform="translate(44.83,21.12)" d="M2,0A2,2 0 1,1 0,-2A2,2 0 0,1 2,0Z" style="opacity: 1; stroke-width: 0px; fill: rgb(11, 121, 230); fill-opacity: 1;"/></g><g class="text"/></g><g class="trace scatter traced3ba2c" style="stroke-miterlimit: 2; opacity: 1;"><g class="fills"/><g class="errorbars"/><g class="lines"/><g class="points"><path class="point" transform="translate(42.41,21.12)" d="M2,0A2,2 0 1,1 0,-2A2,2 0 0,1 2,0Z" style="opacity: 1; stroke-width: 0px; fill: rgb(11, 121, 230); fill-opacity: 1;"/></g><g class="text"/></g><g class="trace scatter trace31874f" style="stroke-miterlimit: 2; opacity: 1;"><g class="fills"/><g class="errorbars"/><g class="lines"/><g class="points"><path class="point" transform="translate(35.42,21.12)" d="M2,0A2,2 0 1,1 0,-2A2,2 0 0,1 2,0Z" style="opacity: 1; stroke-width: 0px; fill: rgb(11, 121, 230); fill-opacity: 1;"/></g><g class="text"/></g><g class="trace scatter tracecf01b5" style="stroke-miterlimit: 2; opacity: 1;"><g class="fills"/><g class="errorbars"/><g class="lines"/><g class="points"><path class="point" transform="translate(51.24,21.12)" d="M2,0A2,2 0 1,1 0,-2A2,2 0 0,1 2,0Z" style="opacity: 1; stroke-width: 0px; fill: rgb(11, 121, 230); fill-opacity: 1;"/></g><g class="text"/></g><g class="trace scatter tracef07afa" style="stroke-miterlimit: 2; opacity: 1;"><g class="fills"/><g class="errorbars"/><g class="lines"/><g class="points"><path class="point" transform="translate(74.65,21.12)" d="M2,0A2,2 0 1,1 0,-2A2,2 0 0,1 2,0Z" style="opacity: 1; stroke-width: 0px; fill: rgb(11, 121, 230); fill-opacity: 1;"/></g><g class="text"/></g><g class="trace scatter tracef8d5a3" style="stroke-miterlimit: 2; opacity: 1;"><g class="fills"/><g class="errorbars"/><g class="lines"/><g class="points"><path class="point" transform="translate(38.26,21.12)" d="M2,0A2,2 0 1,1 0,-2A2,2 0 0,1 2,0Z" style="opacity: 1; stroke-width: 0px; fill: rgb(11, 121, 230); fill-opacity: 1;"/></g><g class="text"/></g><g class="trace scatter trace7b6756" style="stroke-miterlimit: 2; opacity: 1;"><g class="fills"/><g class="errorbars"/><g class="lines"/><g class="points"><path class="point" transform="translate(29.27,21.12)" d="M2,0A2,2 0 1,1 0,-2A2,2 0 0,1 2,0Z" style="opacity: 1; stroke-width: 0px; fill: rgb(11, 121, 230); fill-opacity: 1;"/></g><g class="text"/></g><g class="trace scatter trace695adc" style="stroke-miterlimit: 2; opacity: 1;"><g class="fills"/><g class="errorbars"/><g class="lines"/><g class="points"><path class="point" transform="translate(43.49,21.12)" d="M2,0A2,2 0 1,1 0,-2A2,2 0 0,1 2,0Z" style="opacity: 1; stroke-width: 0px; fill: rgb(11, 121, 230); fill-opacity: 1;"/></g><g class="text"/></g><g class="trace scatter trace74c78f" style="stroke-miterlimit: 2; opacity: 1;"><g class="fills"/><g class="errorbars"/><g class="lines"/><g class="points"><path class="point" transform="translate(48.63,21.12)" d="M2,0A2,2 0 1,1 0,-2A2,2 0 0,1 2,0Z" style="opacity: 1; stroke-width: 0px; fill: rgb(11, 121, 230); fill-opacity: 1;"/></g><g class="text"/></g><g class="trace scatter trace59cc23" style="stroke-miterlimit: 2; opacity: 1;"><g class="fills"/><g class="errorbars"/><g class="lines"/><g class="points"><path class="point" transform="translate(36.98,21.12)" d="M2,0A2,2 0 1,1 0,-2A2,2 0 0,1 2,0Z" style="opacity: 1; stroke-width: 0px; fill: rgb(11, 121, 230); fill-opacity: 1;"/></g><g class="text"/></g><g class="trace scatter trace28726f" style="stroke-miterlimit: 2; opacity: 1;"><g class="fills"/><g class="errorbars"/><g class="lines"/><g class="points"><path class="point" transform="translate(72.54,21.12)" d="M2,0A2,2 0 1,1 0,-2A2,2 0 0,1 2,0Z" style="opacity: 1; stroke-width: 0px; fill: rgb(11, 121, 230); fill-opacity: 1;"/></g><g class="text"/></g><g class="trace scatter traced8bb58" style="stroke-miterlimit: 2; opacity: 1;"><g class="fills"/><g class="errorbars"/><g class="lines"/><g class="points"><path class="point" transform="translate(67.57,21.12)" d="M2,0A2,2 0 1,1 0,-2A2,2 0 0,1 2,0Z" style="opacity: 1; stroke-width: 0px; fill: rgb(11, 121, 230); fill-opacity: 1;"/></g><g class="text"/></g><g class="trace scatter trace020c6b" style="stroke-miterlimit: 2; opacity: 1;"><g class="fills"/><g class="errorbars"/><g class="lines"/><g class="points"><path class="point" transform="translate(26.19,21.12)" d="M2,0A2,2 0 1,1 0,-2A2,2 0 0,1 2,0Z" style="opacity: 1; stroke-width: 0px; fill: rgb(11, 121, 230); fill-opacity: 1;"/></g><g class="text"/></g><g class="trace scatter tracecccea1" style="stroke-miterlimit: 2; opacity: 1;"><g class="fills"/><g class="errorbars"/><g class="lines"/><g class="points"><path class="point" transform="translate(27.38,21.12)" d="M2,0A2,2 0 1,1 0,-2A2,2 0 0,1 2,0Z" style="opacity: 1; stroke-width: 0px; fill: rgb(11, 121, 230); fill-opacity: 1;"/></g><g class="text"/></g><g class="trace scatter trace250cde" style="stroke-miterlimit: 2; opacity: 1;"><g class="fills"/><g class="errorbars"/><g class="lines"/><g class="points"><path class="point" transform="translate(21.16,21.12)" d="M2,0A2,2 0 1,1 0,-2A2,2 0 0,1 2,0Z" style="opacity: 1; stroke-width: 0px; fill: rgb(11, 121, 230); fill-opacity: 1;"/></g><g class="text"/></g></g></g></g><path class="xlines-above crisp" d="M0,0" style="fill: none;"/><path class="ylines-above crisp" d="M0,0" style="fill: none;"/><g class="overlines-above"/><g class="xaxislayer-above"><g class="x2tick"><text text-anchor="middle" x="0" y="172.61538461538464" transform="translate(84.98,0)" style="font-family: 'Lucida Grande', 'Open Sans', verdana, arial, sans-serif; font-size: 9px; fill: rgb(0, 0, 0); fill-opacity: 0.5; white-space: pre; opacity: 1;">0</text></g><g class="x2tick"><text text-anchor="middle" x="0" y="172.61538461538464" style="font-family: 'Lucida Grande', 'Open Sans', verdana, arial, sans-serif; font-size: 9px; fill: rgb(0, 0, 0); fill-opacity: 0.5; white-space: pre; opacity: 1;" transform="translate(228.5,0)">0.5M</text></g><g class="x2tick"><text text-anchor="middle" x="0" y="172.61538461538464" style="font-family: 'Lucida Grande', 'Open Sans', verdana, arial, sans-serif; font-size: 9px; fill: rgb(0, 0, 0); fill-opacity: 0.5; white-space: pre; opacity: 1;" transform="translate(372.03,0)">1M</text></g><g class="x2tick"><text text-anchor="middle" x="0" y="172.61538461538464" style="font-family: 'Lucida Grande', 'Open Sans', verdana, arial, sans-serif; font-size: 9px; fill: rgb(0, 0, 0); fill-opacity: 0.5; white-space: pre; opacity: 1;" transform="translate(515.55,0)">1.5M</text></g><g class="x2tick"><text text-anchor="middle" x="0" y="172.61538461538464" style="font-family: 'Lucida Grande', 'Open Sans', verdana, arial, sans-serif; font-size: 9px; fill: rgb(0, 0, 0); fill-opacity: 0.5; white-space: pre; opacity: 1;" transform="translate(659.08,0)">2M</text></g><g class="x2tick"><text text-anchor="middle" x="0" y="172.61538461538464" style="font-family: 'Lucida Grande', 'Open Sans', verdana, arial, sans-serif; font-size: 9px; fill: rgb(0, 0, 0); fill-opacity: 0.5; white-space: pre; opacity: 1;" transform="translate(802.61,0)">2.5M</text></g><g class="x2tick"><text text-anchor="middle" x="0" y="172.61538461538464" style="font-family: 'Lucida Grande', 'Open Sans', verdana, arial, sans-serif; font-size: 9px; fill: rgb(0, 0, 0); fill-opacity: 0.5; white-space: pre; opacity: 1;" transform="translate(946.13,0)">3M</text></g></g><g class="yaxislayer-above"><g class="y2tick"><text text-anchor="end" x="79" y="3.15" transform="translate(0,141.5046153846154)" style="font-family: 'Lucida Grande', 'Open Sans', verdana, arial, sans-serif; font-size: 9px; fill: rgb(0, 0, 0); fill-opacity: 0.5; white-space: pre; opacity: 1;">Occurrences  </text></g></g><g class="overaxes-above"/></g><g class="subplot x3y3"><g class="layer-subplot"><g class="shapelayer"/><g class="imagelayer"/></g><g class="minor-gridlayer"><g class="x3"/><g class="y3"/></g><g class="gridlayer"><g class="x3"><path class="x3grid crisp" transform="translate(283.98,0)" d="M0,190.76923076923077v42.230769230769226" style="stroke: rgb(0, 0, 0); stroke-opacity: 0.1; stroke-width: 1px;"/><path class="x3grid crisp" transform="translate(482.99,0)" d="M0,190.76923076923077v42.230769230769226" style="stroke: rgb(0, 0, 0); stroke-opacity: 0.1; stroke-width: 1px;"/><path class="x3grid crisp" transform="translate(681.99,0)" d="M0,190.76923076923077v42.230769230769226" style="stroke: rgb(0, 0, 0); stroke-opacity: 0.1; stroke-width: 1px;"/><path class="x3grid crisp" transform="translate(881,0)" d="M0,190.76923076923077v42.230769230769226" style="stroke: rgb(0, 0, 0); stroke-opacity: 0.1; stroke-width: 1px;"/><path class="x3grid crisp" transform="translate(1080,0)" d="M0,190.76923076923077v42.230769230769226" style="stroke: rgb(0, 0, 0); stroke-opacity: 0.1; stroke-width: 1px;"/></g><g class="y3"><path class="y3grid crisp" transform="translate(0,211.88923076923078)" d="M80,0h1005" style="stroke: rgb(0, 0, 0); stroke-opacity: 0.1; stroke-width: 1px;"/></g></g><g class="zerolinelayer"><path class="x3zl zl crisp" transform="translate(84.98,0)" d="M0,190.76923076923077v42.230769230769226" style="stroke: rgb(0, 0, 0); stroke-opacity: 0.1; stroke-width: 2px;"/></g><g class="layer-between"><g class="shapelayer"/><g class="imagelayer"/></g><path class="xlines-below"/><path class="ylines-below"/><g class="overlines-below"/><g class="xaxislayer-below"/><g class="yaxislayer-below"/><g class="overaxes-below"/><g class="overplot"><g class="x3y3" transform="translate(80,190.76923076923077)" clip-path="url(#clip172a46x3y3plot)"><g class="violinlayer mlayer"><g class="trace violins" style="opacity: 0.5;"><path class="violin" d="M4.86,20.59Q4.89,20.24 4.9,20.03C4.91,19.75 4.92,19.42 4.93,19.07C4.94,18.63 4.95,18.13 4.96,17.61C4.97,17 4.98,16.32 4.99,15.63C5,14.87 5.02,14.04 5.03,13.23C5.04,12.41 5.05,11.54 5.06,10.73C5.07,9.97 5.08,9.17 5.09,8.5C5.1,7.94 5.12,7.36 5.13,6.96C5.14,6.7 5.15,6.33 5.16,6.33C5.17,6.33 5.18,6.52 5.19,6.66C5.21,6.91 5.21,7.34 5.22,7.72C5.23,8.17 5.25,8.7 5.26,9.21C5.27,9.74 5.28,10.3 5.29,10.84C5.3,11.37 5.31,11.91 5.32,12.43C5.33,12.94 5.35,13.46 5.36,13.96C5.37,14.45 5.38,14.93 5.39,15.41C5.4,15.87 5.41,16.34 5.42,16.78C5.43,17.2 5.44,17.62 5.45,18.01C5.46,18.37 5.48,18.73 5.49,19.05C5.5,19.33 5.51,19.59 5.52,19.82C5.53,20 5.53,20.18 5.55,20.32C5.56,20.41 5.57,20.52 5.59,20.56C5.6,20.58 5.61,20.59 5.62,20.59C5.63,20.59 5.64,20.51 5.65,20.46C5.66,20.4 5.67,20.32 5.68,20.25C5.69,20.17 5.71,20.09 5.72,20.02C5.73,19.96 5.74,19.9 5.75,19.86C5.76,19.83 5.77,19.8 5.78,19.8C5.79,19.8 5.81,19.84 5.82,19.87C5.83,19.91 5.84,19.96 5.85,20.01C5.86,20.06 5.87,20.11 5.88,20.15C5.89,20.18 5.9,20.23 5.91,20.23C5.92,20.23 5.94,20.22 5.95,20.2C5.97,20.17 5.97,20.12 5.98,20.08C5.99,20.03 6,19.97 6.01,19.92C6.02,19.88 6.03,19.83 6.05,19.82C6.06,19.81 6.07,19.81 6.08,19.82C6.1,19.83 6.1,19.89 6.11,19.94C6.12,20 6.13,20.08 6.14,20.16C6.15,20.24 6.17,20.33 6.18,20.42C6.19,20.5 6.2,20.58 6.21,20.66C6.22,20.73 6.23,20.79 6.24,20.85C6.25,20.89 6.26,20.93 6.27,20.97C6.28,21 6.3,21.03 6.31,21.05C6.32,21.07 6.33,21.08 6.34,21.09C6.35,21.1 6.36,21.1 6.37,21.1C6.38,21.1 6.4,21.11 6.41,21.11C6.42,21.11 6.43,21.11 6.44,21.11C6.45,21.11 6.46,21.12 6.47,21.12C6.48,21.12 6.49,21.12 6.5,21.12C6.51,21.12 6.53,21.12 6.54,21.12C6.55,21.12 6.56,21.12 6.57,21.12C6.58,21.12 6.59,21.12 6.6,21.12C6.61,21.12 6.63,21.12 6.64,21.12C6.65,21.12 6.66,21.12 6.67,21.12C6.68,21.12 6.69,21.12 6.7,21.12C6.71,21.12 6.72,21.12 6.73,21.12C6.74,21.12 6.76,21.12 6.77,21.12C6.78,21.12 6.79,21.12 6.8,21.12C6.81,21.12 6.82,21.12 6.83,21.12C6.84,21.12 6.86,21.11 6.87,21.11C6.88,21.11 6.89,21.11 6.9,21.11C6.91,21.11 6.92,21.11 6.93,21.11C6.94,21.11 6.95,21.1 6.96,21.1C6.97,21.09 6.99,21.09 7,21.08C7.01,21.07 7.02,21.06 7.03,21.04C7.04,21.02 7.05,20.98 7.06,20.95C7.07,20.91 7.09,20.86 7.1,20.81C7.11,20.75 7.12,20.68 7.13,20.61C7.14,20.53 7.15,20.44 7.16,20.36C7.17,20.28 7.18,20.19 7.19,20.11C7.2,20.04 7.22,19.96 7.23,19.91C7.24,19.87 7.25,19.82 7.26,19.82C7.27,19.82 7.28,19.85 7.29,19.87C7.31,19.91 7.32,19.98 7.33,20.04C7.34,20.11 7.35,20.21 7.36,20.29C7.37,20.37 7.38,20.46 7.39,20.54C7.4,20.62 7.41,20.69 7.42,20.76C7.43,20.82 7.45,20.87 7.46,20.92C7.47,20.96 7.48,20.99 7.49,21.02C7.5,21.04 7.51,21.06 7.52,21.07C7.53,21.08 7.55,21.09 7.56,21.1C7.57,21.11 7.58,21.11 7.59,21.11C7.6,21.11 7.61,21.11 7.62,21.11C7.63,21.11 7.64,21.11 7.65,21.11C7.66,21.11 7.68,21.12 7.69,21.12C7.7,21.12 7.71,21.12 7.72,21.12C7.73,21.12 7.74,21.12 7.75,21.12C7.76,21.12 7.78,21.12 7.79,21.12C7.8,21.12 7.81,21.12 7.82,21.12C7.83,21.12 7.84,21.12 7.85,21.12C7.86,21.12 7.87,21.12 7.88,21.12C7.89,21.12 7.91,21.12 7.92,21.12C7.93,21.12 7.94,21.12 7.95,21.12C7.96,21.12 7.97,21.12 7.98,21.12C7.99,21.12 8.01,21.12 8.02,21.12C8.03,21.12 8.04,21.12 8.05,21.12C8.06,21.12 8.07,21.12 8.08,21.12C8.09,21.12 8.1,21.12 8.11,21.12C8.12,21.12 8.14,21.12 8.15,21.12C8.16,21.12 8.17,21.12 8.18,21.12C8.19,21.12 8.2,21.12 8.21,21.12C8.22,21.12 8.24,21.12 8.25,21.12C8.26,21.12 8.27,21.12 8.28,21.12C8.29,21.12 8.3,21.12 8.31,21.12C8.32,21.12 8.33,21.12 8.34,21.12C8.35,21.12 8.37,21.12 8.38,21.12C8.39,21.12 8.4,21.12 8.41,21.12C8.42,21.12 8.43,21.12 8.44,21.12C8.45,21.12 8.47,21.12 8.48,21.12C8.49,21.12 8.5,21.12 8.51,21.12C8.52,21.12 8.53,21.12 8.54,21.12C8.55,21.12 8.56,21.12 8.57,21.12C8.58,21.12 8.6,21.12 8.61,21.12C8.62,21.12 8.63,21.12 8.64,21.12C8.65,21.12 8.66,21.12 8.67,21.12C8.68,21.12 8.7,21.12 8.71,21.12C8.72,21.12 8.73,21.12 8.74,21.12C8.75,21.12 8.76,21.12 8.77,21.12C8.78,21.12 8.79,21.12 8.8,21.12C8.81,21.12 8.83,21.12 8.84,21.12C8.85,21.12 8.86,21.12 8.87,21.12C8.88,21.12 8.89,21.12 8.9,21.12C8.91,21.12 8.93,21.12 8.94,21.12C8.95,21.12 8.96,21.12 8.97,21.12C8.98,21.12 8.99,21.12 9,21.12C9.01,21.12 9.02,21.12 9.03,21.12C9.04,21.12 9.06,21.12 9.07,21.12C9.08,21.12 9.09,21.12 9.1,21.12C9.11,21.12 9.12,21.12 9.13,21.12C9.14,21.12 9.16,21.12 9.17,21.12C9.18,21.12 9.19,21.12 9.2,21.12C9.21,21.12 9.22,21.12 9.23,21.12C9.24,21.12 9.25,21.12 9.26,21.12C9.27,21.12 9.29,21.12 9.3,21.12C9.31,21.12 9.32,21.12 9.33,21.12C9.34,21.12 9.35,21.12 9.36,21.12C9.37,21.12 9.39,21.12 9.4,21.12C9.41,21.12 9.42,21.12 9.43,21.12C9.44,21.12 9.45,21.12 9.46,21.12C9.47,21.12 9.48,21.12 9.49,21.12C9.5,21.12 9.52,21.12 9.53,21.12C9.54,21.12 9.55,21.12 9.56,21.12C9.57,21.12 9.58,21.12 9.59,21.12C9.6,21.12 9.61,21.12 9.62,21.12C9.63,21.12 9.65,21.12 9.66,21.12C9.67,21.12 9.68,21.12 9.69,21.12C9.7,21.12 9.71,21.12 9.72,21.12C9.73,21.12 9.75,21.12 9.76,21.12C9.77,21.12 9.78,21.12 9.79,21.12C9.8,21.12 9.81,21.12 9.82,21.12C9.83,21.12 9.84,21.11 9.85,21.11C9.86,21.11 9.88,21.11 9.89,21.11C9.9,21.11 9.91,21.11 9.92,21.11C9.93,21.11 9.94,21.1 9.95,21.1C9.96,21.09 9.98,21.09 9.99,21.08C10,21.07 10.01,21.05 10.02,21.03C10.03,21 10.04,20.97 10.05,20.93C10.06,20.89 10.07,20.83 10.08,20.78C10.09,20.72 10.11,20.64 10.12,20.57C10.13,20.49 10.14,20.4 10.15,20.32C10.16,20.24 10.17,20.15 10.18,20.07C10.19,20 10.21,19.94 10.22,19.89C10.23,19.86 10.24,19.82 10.25,19.82C10.26,19.82 10.27,19.87 10.28,19.9C10.29,19.95 10.3,20.02 10.31,20.08C10.32,20.16 10.34,20.25 10.35,20.33C10.36,20.42 10.37,20.51 10.38,20.59C10.39,20.66 10.4,20.73 10.41,20.79Q10.42,20.84 10.45,20.94L10.45,21.29Q10.42,21.39 10.41,21.44C10.4,21.5 10.39,21.57 10.38,21.64C10.37,21.72 10.36,21.81 10.35,21.9C10.34,21.98 10.32,22.07 10.31,22.15C10.3,22.22 10.29,22.29 10.28,22.34C10.27,22.37 10.26,22.41 10.25,22.41C10.24,22.41 10.23,22.37 10.22,22.34C10.21,22.29 10.19,22.23 10.18,22.16C10.17,22.08 10.16,21.99 10.15,21.91C10.14,21.83 10.13,21.74 10.12,21.66C10.11,21.59 10.09,21.51 10.08,21.45C10.07,21.4 10.06,21.34 10.05,21.3C10.04,21.27 10.03,21.24 10.02,21.21C10.01,21.19 10,21.16 9.99,21.15C9.98,21.14 9.96,21.14 9.95,21.13C9.94,21.13 9.93,21.12 9.92,21.12C9.91,21.12 9.9,21.12 9.89,21.12C9.88,21.12 9.86,21.12 9.85,21.12C9.84,21.12 9.83,21.12 9.82,21.12C9.81,21.12 9.8,21.12 9.79,21.12C9.78,21.12 9.77,21.12 9.76,21.12C9.75,21.12 9.73,21.12 9.72,21.12C9.71,21.12 9.7,21.12 9.69,21.12C9.68,21.12 9.67,21.12 9.66,21.12C9.65,21.12 9.63,21.12 9.62,21.12C9.61,21.12 9.6,21.12 9.59,21.12C9.58,21.12 9.57,21.12 9.56,21.12C9.55,21.12 9.54,21.12 9.53,21.12C9.52,21.12 9.5,21.12 9.49,21.12C9.48,21.12 9.47,21.12 9.46,21.12C9.45,21.12 9.44,21.12 9.43,21.12C9.42,21.12 9.41,21.12 9.4,21.12C9.39,21.12 9.37,21.12 9.36,21.12C9.35,21.12 9.34,21.12 9.33,21.12C9.32,21.12 9.31,21.12 9.3,21.12C9.29,21.12 9.27,21.12 9.26,21.12C9.25,21.12 9.24,21.12 9.23,21.12C9.22,21.12 9.21,21.12 9.2,21.12C9.19,21.12 9.18,21.12 9.17,21.12C9.16,21.12 9.14,21.12 9.13,21.12C9.12,21.12 9.11,21.12 9.1,21.12C9.09,21.12 9.08,21.12 9.07,21.12C9.06,21.12 9.04,21.12 9.03,21.12C9.02,21.12 9.01,21.12 9,21.12C8.99,21.12 8.98,21.12 8.97,21.12C8.96,21.12 8.95,21.12 8.94,21.12C8.93,21.12 8.91,21.12 8.9,21.12C8.89,21.12 8.88,21.12 8.87,21.12C8.86,21.12 8.85,21.12 8.84,21.12C8.83,21.12 8.81,21.12 8.8,21.12C8.79,21.12 8.78,21.12 8.77,21.12C8.76,21.12 8.75,21.12 8.74,21.12C8.73,21.12 8.72,21.12 8.71,21.12C8.7,21.12 8.68,21.12 8.67,21.12C8.66,21.12 8.65,21.12 8.64,21.12C8.63,21.12 8.62,21.12 8.61,21.12C8.6,21.12 8.58,21.12 8.57,21.12C8.56,21.12 8.55,21.12 8.54,21.12C8.53,21.12 8.52,21.12 8.51,21.12C8.5,21.12 8.49,21.12 8.48,21.12C8.47,21.12 8.45,21.12 8.44,21.12C8.43,21.12 8.42,21.12 8.41,21.12C8.4,21.12 8.39,21.12 8.38,21.12C8.37,21.12 8.35,21.12 8.34,21.12C8.33,21.12 8.32,21.12 8.31,21.12C8.3,21.12 8.29,21.12 8.28,21.12C8.27,21.12 8.26,21.12 8.25,21.12C8.24,21.12 8.22,21.12 8.21,21.12C8.2,21.12 8.19,21.12 8.18,21.12C8.17,21.12 8.16,21.12 8.15,21.12C8.14,21.12 8.12,21.12 8.11,21.12C8.1,21.12 8.09,21.12 8.08,21.12C8.07,21.12 8.06,21.12 8.05,21.12C8.04,21.12 8.03,21.12 8.02,21.12C8.01,21.12 7.99,21.12 7.98,21.12C7.97,21.12 7.96,21.12 7.95,21.12C7.94,21.12 7.93,21.12 7.92,21.12C7.91,21.12 7.89,21.12 7.88,21.12C7.87,21.12 7.86,21.12 7.85,21.12C7.84,21.12 7.83,21.12 7.82,21.12C7.81,21.12 7.8,21.12 7.79,21.12C7.78,21.12 7.76,21.12 7.75,21.12C7.74,21.12 7.73,21.12 7.72,21.12C7.71,21.12 7.7,21.12 7.69,21.12C7.68,21.12 7.66,21.12 7.65,21.12C7.64,21.12 7.63,21.12 7.62,21.12C7.61,21.12 7.6,21.12 7.59,21.12C7.58,21.12 7.57,21.12 7.56,21.13C7.55,21.14 7.53,21.15 7.52,21.16C7.51,21.17 7.5,21.19 7.49,21.21C7.48,21.24 7.47,21.27 7.46,21.31C7.45,21.36 7.43,21.41 7.42,21.47C7.41,21.54 7.4,21.61 7.39,21.69C7.38,21.77 7.37,21.86 7.36,21.94C7.35,22.02 7.34,22.12 7.33,22.19C7.32,22.25 7.31,22.32 7.29,22.36C7.28,22.38 7.27,22.41 7.26,22.41C7.25,22.41 7.24,22.36 7.23,22.32C7.22,22.27 7.2,22.19 7.19,22.12C7.18,22.04 7.17,21.95 7.16,21.87C7.15,21.79 7.14,21.7 7.13,21.62C7.12,21.55 7.11,21.48 7.1,21.42C7.09,21.37 7.07,21.32 7.06,21.28C7.05,21.25 7.04,21.21 7.03,21.19C7.02,21.17 7.01,21.16 7,21.15C6.99,21.14 6.97,21.14 6.96,21.13C6.95,21.13 6.94,21.12 6.93,21.12C6.92,21.12 6.91,21.12 6.9,21.12C6.89,21.12 6.88,21.12 6.87,21.12C6.86,21.12 6.84,21.12 6.83,21.12C6.82,21.12 6.81,21.12 6.8,21.12C6.79,21.12 6.78,21.12 6.77,21.12C6.76,21.12 6.74,21.12 6.73,21.12C6.72,21.12 6.71,21.12 6.7,21.12C6.69,21.12 6.68,21.12 6.67,21.12C6.66,21.12 6.65,21.12 6.64,21.12C6.63,21.12 6.61,21.12 6.6,21.12C6.59,21.12 6.58,21.12 6.57,21.12C6.56,21.12 6.55,21.12 6.54,21.12C6.53,21.12 6.51,21.12 6.5,21.12C6.49,21.12 6.48,21.12 6.47,21.12C6.46,21.12 6.45,21.12 6.44,21.12C6.43,21.12 6.42,21.12 6.41,21.12C6.4,21.12 6.38,21.13 6.37,21.13C6.36,21.13 6.35,21.13 6.34,21.14C6.33,21.15 6.32,21.16 6.31,21.18C6.3,21.2 6.28,21.23 6.27,21.26C6.26,21.3 6.25,21.34 6.24,21.38C6.23,21.44 6.22,21.5 6.21,21.57C6.2,21.65 6.19,21.73 6.18,21.81C6.17,21.9 6.15,21.99 6.14,22.07C6.13,22.15 6.12,22.23 6.11,22.29C6.1,22.34 6.1,22.4 6.08,22.41C6.07,22.42 6.06,22.42 6.05,22.41C6.03,22.4 6.02,22.35 6.01,22.31C6,22.26 5.99,22.2 5.98,22.15C5.97,22.11 5.97,22.06 5.95,22.03C5.94,22.01 5.92,22 5.91,22C5.9,22 5.89,22.05 5.88,22.08C5.87,22.12 5.86,22.17 5.85,22.22C5.84,22.27 5.84,22.33 5.82,22.37C5.81,22.4 5.79,22.43 5.78,22.43C5.77,22.43 5.76,22.4 5.75,22.37C5.74,22.33 5.73,22.27 5.72,22.21C5.71,22.14 5.69,22.06 5.68,21.98C5.67,21.91 5.66,21.83 5.65,21.77C5.64,21.72 5.63,21.64 5.62,21.64C5.61,21.64 5.6,21.65 5.59,21.67C5.57,21.71 5.56,21.82 5.55,21.91C5.53,22.05 5.53,22.23 5.52,22.41C5.51,22.64 5.5,22.9 5.49,23.18C5.48,23.5 5.46,23.86 5.45,24.22C5.44,24.61 5.43,25.03 5.42,25.45C5.41,25.89 5.4,26.36 5.39,26.82C5.38,27.3 5.37,27.78 5.36,28.27C5.35,28.77 5.33,29.28 5.32,29.8C5.31,30.33 5.3,30.87 5.29,31.4C5.28,31.94 5.27,32.49 5.26,33.02C5.25,33.53 5.23,34.06 5.22,34.51C5.21,34.89 5.21,35.32 5.19,35.57C5.18,35.71 5.17,35.9 5.16,35.9C5.15,35.9 5.14,35.53 5.13,35.27C5.12,34.87 5.1,34.29 5.09,33.73C5.08,33.06 5.07,32.26 5.06,31.5C5.05,30.69 5.04,29.82 5.03,29C5.02,28.19 5,27.37 4.99,26.61C4.98,25.92 4.97,25.23 4.96,24.62C4.95,24.1 4.94,23.6 4.93,23.16C4.92,22.81 4.91,22.48 4.9,22.2Q4.89,21.99 4.86,21.64Z" style="vector-effect: none; stroke-width: 2px; stroke: rgb(181, 181, 181); stroke-opacity: 1; fill: rgb(181, 181, 181); fill-opacity: 1;"/><path class="box" d="M5.2,24.81V17.42M5.14,24.81V17.42H5.37V24.81ZM5.14,21.12H5.06M5.37,21.12H5.4" style="vector-effect: non-scaling-stroke; stroke-width: 2px; stroke: rgb(181, 181, 181); stroke-opacity: 1; fill: rgb(181, 181, 181); fill-opacity: 1;"/><path class="mean" d="M5.62,24.81V17.42" style="fill: none; vector-effect: non-scaling-stroke; stroke-width: 2px; stroke-dasharray: 4px, 2px; stroke: rgb(181, 181, 181); stroke-opacity: 1;"/></g></g><g class="scatterlayer mlayer"><g class="trace scatter tracea22c1a" style="stroke-miterlimit: 2; opacity: 1;"><g class="fills"/><g class="errorbars"/><g class="lines"/><g class="points"><path class="point" transform="translate(10.25,21.12)" d="M2,0A2,2 0 1,1 0,-2A2,2 0 0,1 2,0Z" style="opacity: 1; stroke-width: 0px; fill: rgb(11, 121, 230); fill-opacity: 1;"/></g><g class="text"/></g><g class="trace scatter tracefd7b86" style="stroke-miterlimit: 2; opacity: 1;"><g class="fills"/><g class="errorbars"/><g class="lines"/><g class="points"><path class="point" transform="translate(7.27,21.12)" d="M2,0A2,2 0 1,1 0,-2A2,2 0 0,1 2,0Z" style="opacity: 1; stroke-width: 0px; fill: rgb(11, 121, 230); fill-opacity: 1;"/></g><g class="text"/></g><g class="trace scatter trace6ca311" style="stroke-miterlimit: 2; opacity: 1;"><g class="fills"/><g class="errorbars"/><g class="lines"/><g class="points"><path class="point" transform="translate(5.78,21.12)" d="M2,0A2,2 0 1,1 0,-2A2,2 0 0,1 2,0Z" style="opacity: 1; stroke-width: 0px; fill: rgb(11, 121, 230); fill-opacity: 1;"/></g><g class="text"/></g><g class="trace scatter tracea71566" style="stroke-miterlimit: 2; opacity: 1;"><g class="fills"/><g class="errorbars"/><g class="lines"/><g class="points"><path class="point" transform="translate(6.07,21.12)" d="M2,0A2,2 0 1,1 0,-2A2,2 0 0,1 2,0Z" style="opacity: 1; stroke-width: 0px; fill: rgb(11, 121, 230); fill-opacity: 1;"/></g><g class="text"/></g><g class="trace scatter trace89c917" style="stroke-miterlimit: 2; opacity: 1;"><g class="fills"/><g class="errorbars"/><g class="lines"/><g class="points"><path class="point" transform="translate(5.4,21.12)" d="M2,0A2,2 0 1,1 0,-2A2,2 0 0,1 2,0Z" style="opacity: 1; stroke-width: 0px; fill: rgb(11, 121, 230); fill-opacity: 1;"/></g><g class="text"/></g><g class="trace scatter trace3cf98c" style="stroke-miterlimit: 2; opacity: 1;"><g class="fills"/><g class="errorbars"/><g class="lines"/><g class="points"><path class="point" transform="translate(5.19,21.12)" d="M2,0A2,2 0 1,1 0,-2A2,2 0 0,1 2,0Z" style="opacity: 1; stroke-width: 0px; fill: rgb(11, 121, 230); fill-opacity: 1;"/></g><g class="text"/></g><g class="trace scatter tracee9d03d" style="stroke-miterlimit: 2; opacity: 1;"><g class="fills"/><g class="errorbars"/><g class="lines"/><g class="points"><path class="point" transform="translate(5.17,21.12)" d="M2,0A2,2 0 1,1 0,-2A2,2 0 0,1 2,0Z" style="opacity: 1; stroke-width: 0px; fill: rgb(11, 121, 230); fill-opacity: 1;"/></g><g class="text"/></g><g class="trace scatter trace3ad3f5" style="stroke-miterlimit: 2; opacity: 1;"><g class="fills"/><g class="errorbars"/><g class="lines"/><g class="points"><path class="point" transform="translate(5.14,21.12)" d="M2,0A2,2 0 1,1 0,-2A2,2 0 0,1 2,0Z" style="opacity: 1; stroke-width: 0px; fill: rgb(11, 121, 230); fill-opacity: 1;"/></g><g class="text"/></g><g class="trace scatter trace30ee72" style="stroke-miterlimit: 2; opacity: 1;"><g class="fills"/><g class="errorbars"/><g class="lines"/><g class="points"><path class="point" transform="translate(5.22,21.12)" d="M2,0A2,2 0 1,1 0,-2A2,2 0 0,1 2,0Z" style="opacity: 1; stroke-width: 0px; fill: rgb(11, 121, 230); fill-opacity: 1;"/></g><g class="text"/></g><g class="trace scatter trace686507" style="stroke-miterlimit: 2; opacity: 1;"><g class="fills"/><g class="errorbars"/><g class="lines"/><g class="points"><path class="point" transform="translate(5.34,21.12)" d="M2,0A2,2 0 1,1 0,-2A2,2 0 0,1 2,0Z" style="opacity: 1; stroke-width: 0px; fill: rgb(11, 121, 230); fill-opacity: 1;"/></g><g class="text"/></g><g class="trace scatter trace514ab2" style="stroke-miterlimit: 2; opacity: 1;"><g class="fills"/><g class="errorbars"/><g class="lines"/><g class="points"><path class="point" transform="translate(5.15,21.12)" d="M2,0A2,2 0 1,1 0,-2A2,2 0 0,1 2,0Z" style="opacity: 1; stroke-width: 0px; fill: rgb(11, 121, 230); fill-opacity: 1;"/></g><g class="text"/></g><g class="trace scatter trace015d2c" style="stroke-miterlimit: 2; opacity: 1;"><g class="fills"/><g class="errorbars"/><g class="lines"/><g class="points"><path class="point" transform="translate(5.1,21.12)" d="M2,0A2,2 0 1,1 0,-2A2,2 0 0,1 2,0Z" style="opacity: 1; stroke-width: 0px; fill: rgb(11, 121, 230); fill-opacity: 1;"/></g><g class="text"/></g><g class="trace scatter trace3b5749" style="stroke-miterlimit: 2; opacity: 1;"><g class="fills"/><g class="errorbars"/><g class="lines"/><g class="points"><path class="point" transform="translate(5.18,21.12)" d="M2,0A2,2 0 1,1 0,-2A2,2 0 0,1 2,0Z" style="opacity: 1; stroke-width: 0px; fill: rgb(11, 121, 230); fill-opacity: 1;"/></g><g class="text"/></g><g class="trace scatter trace5c4365" style="stroke-miterlimit: 2; opacity: 1;"><g class="fills"/><g class="errorbars"/><g class="lines"/><g class="points"><path class="point" transform="translate(5.21,21.12)" d="M2,0A2,2 0 1,1 0,-2A2,2 0 0,1 2,0Z" style="opacity: 1; stroke-width: 0px; fill: rgb(11, 121, 230); fill-opacity: 1;"/></g><g class="text"/></g><g class="trace scatter tracefa5a52" style="stroke-miterlimit: 2; opacity: 1;"><g class="fills"/><g class="errorbars"/><g class="lines"/><g class="points"><path class="point" transform="translate(5.14,21.12)" d="M2,0A2,2 0 1,1 0,-2A2,2 0 0,1 2,0Z" style="opacity: 1; stroke-width: 0px; fill: rgb(11, 121, 230); fill-opacity: 1;"/></g><g class="text"/></g><g class="trace scatter trace185939" style="stroke-miterlimit: 2; opacity: 1;"><g class="fills"/><g class="errorbars"/><g class="lines"/><g class="points"><path class="point" transform="translate(5.33,21.12)" d="M2,0A2,2 0 1,1 0,-2A2,2 0 0,1 2,0Z" style="opacity: 1; stroke-width: 0px; fill: rgb(11, 121, 230); fill-opacity: 1;"/></g><g class="text"/></g><g class="trace scatter tracec97083" style="stroke-miterlimit: 2; opacity: 1;"><g class="fills"/><g class="errorbars"/><g class="lines"/><g class="points"><path class="point" transform="translate(5.31,21.12)" d="M2,0A2,2 0 1,1 0,-2A2,2 0 0,1 2,0Z" style="opacity: 1; stroke-width: 0px; fill: rgb(11, 121, 230); fill-opacity: 1;"/></g><g class="text"/></g><g class="trace scatter trace52073a" style="stroke-miterlimit: 2; opacity: 1;"><g class="fills"/><g class="errorbars"/><g class="lines"/><g class="points"><path class="point" transform="translate(5.09,21.12)" d="M2,0A2,2 0 1,1 0,-2A2,2 0 0,1 2,0Z" style="opacity: 1; stroke-width: 0px; fill: rgb(11, 121, 230); fill-opacity: 1;"/></g><g class="text"/></g><g class="trace scatter tracee42fbe" style="stroke-miterlimit: 2; opacity: 1;"><g class="fills"/><g class="errorbars"/><g class="lines"/><g class="points"><path class="point" transform="translate(5.09,21.12)" d="M2,0A2,2 0 1,1 0,-2A2,2 0 0,1 2,0Z" style="opacity: 1; stroke-width: 0px; fill: rgb(11, 121, 230); fill-opacity: 1;"/></g><g class="text"/></g><g class="trace scatter trace14a5e2" style="stroke-miterlimit: 2; opacity: 1;"><g class="fills"/><g class="errorbars"/><g class="lines"/><g class="points"><path class="point" transform="translate(5.06,21.12)" d="M2,0A2,2 0 1,1 0,-2A2,2 0 0,1 2,0Z" style="opacity: 1; stroke-width: 0px; fill: rgb(11, 121, 230); fill-opacity: 1;"/></g><g class="text"/></g></g></g></g><path class="xlines-above crisp" d="M0,0" style="fill: none;"/><path class="ylines-above crisp" d="M0,0" style="fill: none;"/><g class="overlines-above"/><g class="xaxislayer-above"><g class="x3tick"><text text-anchor="middle" x="0" y="243" transform="translate(84.98,0)" style="font-family: 'Lucida Grande', 'Open Sans', verdana, arial, sans-serif; font-size: 9px; fill: rgb(0, 0, 0); fill-opacity: 0.5; white-space: pre; opacity: 1;">0%</text></g><g class="x3tick"><text text-anchor="middle" x="0" y="243" style="font-family: 'Lucida Grande', 'Open Sans', verdana, arial, sans-serif; font-size: 9px; fill: rgb(0, 0, 0); fill-opacity: 0.5; white-space: pre; opacity: 1;" transform="translate(283.98,0)">20%</text></g><g class="x3tick"><text text-anchor="middle" x="0" y="243" style="font-family: 'Lucida Grande', 'Open Sans', verdana, arial, sans-serif; font-size: 9px; fill: rgb(0, 0, 0); fill-opacity: 0.5; white-space: pre; opacity: 1;" transform="translate(482.99,0)">40%</text></g><g class="x3tick"><text text-anchor="middle" x="0" y="243" style="font-family: 'Lucida Grande', 'Open Sans', verdana, arial, sans-serif; font-size: 9px; fill: rgb(0, 0, 0); fill-opacity: 0.5; white-space: pre; opacity: 1;" transform="translate(681.99,0)">60%</text></g><g class="x3tick"><text text-anchor="middle" x="0" y="243" style="font-family: 'Lucida Grande', 'Open Sans', verdana, arial, sans-serif; font-size: 9px; fill: rgb(0, 0, 0); fill-opacity: 0.5; white-space: pre; opacity: 1;" transform="translate(881,0)">80%</text></g><g class="x3tick"><text text-anchor="middle" x="0" y="243" style="font-family: 'Lucida Grande', 'Open Sans', verdana, arial, sans-serif; font-size: 9px; fill: rgb(0, 0, 0); fill-opacity: 0.5; white-space: pre; opacity: 1;" transform="translate(1080,0)">100%</text></g></g><g class="yaxislayer-above"><g class="y3tick"><text text-anchor="end" x="79" y="3.15" transform="translate(0,211.88923076923078)" style="font-family: 'Lucida Grande', 'Open Sans', verdana, arial, sans-serif; font-size: 9px; fill: rgb(0, 0, 0); fill-opacity: 0.5; white-space: pre; opacity: 1;">% of all reads  </text></g></g><g class="overaxes-above"/></g></g><g class="polarlayer"/><g class="smithlayer"/><g class="ternarylayer"/><g class="geolayer"/><g class="funnelarealayer"/><g class="pielayer"/><g class="iciclelayer"/><g class="treemaplayer"/><g class="sunburstlayer"/><g class="glimages"/><defs id="topdefs-172a46"><g class="clips"/></defs><g class="layer-above"><g class="imagelayer"/><g class="shapelayer"/></g><g class="infolayer"><g class="g-gtitle"><text class="gtitle" x="550" y="25" text-anchor="middle" dy="0em" style="opacity: 1; font-family: 'Lucida Grande', 'Open Sans', verdana, arial, sans-serif; font-size: 20px; fill: rgb(42, 63, 95); fill-opacity: 1; white-space: pre;"><tspan class="line" dy="0em" x="550" y="25">FastQC: Top overrepresented sequences</tspan><tspan class="line" dy="1.3em" x="550" y="25"><tspan style="font-size:70%" dy="-0.6em">20 samples</tspan><tspan dy="0.42em"></tspan></tspan></text></g><g class="g-xtitle"/><g class="g-x2title"/><g class="g-x3title"/><g class="g-ytitle"/><g class="g-y2title"/><g class="g-y3title"/></g></svg>