<svg class="main-svg" xmlns="http://www.w3.org/2000/svg" xmlns:xlink="http://www.w3.org/1999/xlink" width="2200" height="546" style="" viewBox="0 0 1100 273"><rect x="0" y="0" width="1100" height="273" style="fill: rgb(255, 255, 255); fill-opacity: 1;"/><defs id="defs-769fe3"><g class="clips"><clipPath id="clip769fe3xyplot" class="plotclip"><rect width="1005" height="42.230769230769226"/></clipPath><clipPath id="clip769fe3x2y2plot" class="plotclip"><rect width="1005" height="42.230769230769226"/></clipPath><clipPath id="clip769fe3x3y3plot" class="plotclip"><rect width="1005" height="42.230769230769226"/></clipPath><clipPath class="axesclip" id="clip769fe3x"><rect x="80" y="0" width="1005" height="273"/></clipPath><clipPath class="axesclip" id="clip769fe3y"><rect x="0" y="50.00000000000002" width="1100" height="42.230769230769226"/></clipPath><clipPath class="axesclip" id="clip769fe3xy"><rect x="80" y="50.00000000000002" width="1005" height="42.230769230769226"/></clipPath><clipPath class="axesclip" id="clip769fe3y2"><rect x="0" y="120.3846153846154" width="1100" height="42.230769230769226"/></clipPath><clipPath class="axesclip" id="clip769fe3xy2"><rect x="80" y="120.3846153846154" width="1005" height="42.230769230769226"/></clipPath><clipPath class="axesclip" id="clip769fe3y3"><rect x="0" y="190.76923076923077" width="1100" height="42.230769230769226"/></clipPath><clipPath class="axesclip" id="clip769fe3xy3"><rect x="80" y="190.76923076923077" width="1005" height="42.230769230769226"/></clipPath><clipPath class="axesclip" id="clip769fe3x2"><rect x="80" y="0" width="1005" height="273"/></clipPath><clipPath class="axesclip" id="clip769fe3x2y"><rect x="80" y="50.00000000000002" width="1005" height="42.230769230769226"/></clipPath><clipPath class="axesclip" id="clip769fe3x2y2"><rect x="80" y="120.3846153846154" width="1005" height="42.230769230769226"/></clipPath><clipPath class="axesclip" id="clip769fe3x2y3"><rect x="80" y="190.76923076923077" width="1005" height="42.230769230769226"/></clipPath><clipPath class="axesclip" id="clip769fe3x3"><rect x="80" y="0" width="1005" height="273"/></clipPath><clipPath class="axesclip" id="clip769fe3x3y"><rect x="80" y="50.00000000000002" width="1005" height="42.230769230769226"/></clipPath><clipPath class="axesclip" id="clip769fe3x3y2"><rect x="80" y="120.3846153846154" width="1005" height="42.230769230769226"/></clipPath><clipPath class="axesclip" id="clip769fe3x3y3"><rect x="80" y="190.76923076923077" width="1005" height="42.230769230769226"/></clipPath></g><g class="gradients"/><g class="patterns"/></defs><g class="bglayer"/><g class="layer-below"><g class="imagelayer"/><g class="shapelayer"/></g><g class="cartesianlayer"><g class="subplot xy"><g class="layer-subplot"><g class="shapelayer"/><g class="imagelayer"/></g><g class="minor-gridlayer"><g class="x"/><g class="y"/></g><g class="gridlayer"><g class="x"><path class="xgrid crisp" transform="translate(198.05,0)" d="M0,50.00000000000002v42.230769230769226" style="stroke: rgb(0, 0, 0); stroke-opacity: 0.1; stroke-width: 1px;"/><path class="xgrid crisp" transform="translate(311.12,0)" d="M0,50.00000000000002v42.230769230769226" style="stroke: rgb(0, 0, 0); stroke-opacity: 0.1; stroke-width: 1px;"/><path class="xgrid crisp" transform="translate(424.19,0)" d="M0,50.00000000000002v42.230769230769226" style="stroke: rgb(0, 0, 0); stroke-opacity: 0.1; stroke-width: 1px;"/><path class="xgrid crisp" transform="translate(537.26,0)" d="M0,50.00000000000002v42.230769230769226" style="stroke: rgb(0, 0, 0); stroke-opacity: 0.1; stroke-width: 1px;"/><path class="xgrid crisp" transform="translate(650.33,0)" d="M0,50.00000000000002v42.230769230769226" style="stroke: rgb(0, 0, 0); stroke-opacity: 0.1; stroke-width: 1px;"/><path class="xgrid crisp" transform="translate(763.4,0)" d="M0,50.00000000000002v42.230769230769226" style="stroke: rgb(0, 0, 0); stroke-opacity: 0.1; stroke-width: 1px;"/><path class="xgrid crisp" transform="translate(876.47,0)" d="M0,50.00000000000002v42.230769230769226" style="stroke: rgb(0, 0, 0); stroke-opacity: 0.1; stroke-width: 1px;"/><path class="xgrid crisp" transform="translate(989.54,0)" d="M0,50.00000000000002v42.230769230769226" style="stroke: rgb(0, 0, 0); stroke-opacity: 0.1; stroke-width: 1px;"/></g><g class="y"><path class="ygrid crisp" transform="translate(0,71.12000000000002)" d="M80,0h1005" style="stroke: rgb(0, 0, 0); stroke-opacity: 0.1; stroke-width: 1px;"/></g></g><g class="zerolinelayer"><path class="xzl zl crisp" transform="translate(84.98,0)" d="M0,50.00000000000002v42.230769230769226" style="stroke: rgb(0, 0, 0); stroke-opacity: 0.1; stroke-width: 2px;"/></g><g class="layer-between"><g class="shapelayer"/><g class="imagelayer"/></g><path class="xlines-below"/><path class="ylines-below"/><g class="overlines-below"/><g class="xaxislayer-below"/><g class="yaxislayer-below"/><g class="overaxes-below"/><g class="overplot"><g class="xy" transform="translate(80,50.00000000000002)" clip-path="url(#clip769fe3xyplot)"><g class="violinlayer mlayer"><g class="trace violins" style="opacity: 0.5;"><path class="violin" d="M62.65,20.68Q71.22,20.44 75.5,20.25C79.79,20.06 84.08,19.85 88.36,19.56C92.65,19.27 96.93,18.93 101.21,18.51C105.5,18.09 109.78,17.6 114.06,17.05C118.35,16.5 122.63,15.86 126.91,15.19C131.2,14.52 135.49,13.76 139.77,13.02C144.06,12.28 148.33,11.48 152.62,10.75C156.9,10.03 161.18,9.28 165.47,8.67C169.75,8.06 174.03,7.5 178.32,7.11C182.6,6.72 186.89,6.45 191.18,6.33C195.46,6.21 199.75,6.26 204.03,6.41C208.32,6.56 212.6,6.87 216.88,7.21C221.17,7.56 225.45,8.02 229.73,8.48C234.02,8.94 238.3,9.46 242.59,9.96C246.87,10.46 251.16,10.98 255.44,11.49C259.72,11.99 264.01,12.49 268.29,12.99C272.58,13.49 276.86,13.99 281.15,14.48C285.43,14.97 289.72,15.47 294,15.94C298.28,16.41 302.57,16.89 306.85,17.32C311.13,17.75 315.41,18.17 319.7,18.53C323.98,18.89 328.27,19.22 332.56,19.49C336.84,19.76 341.13,19.99 345.41,20.17C349.69,20.35 353.98,20.48 358.26,20.58C362.54,20.68 366.83,20.73 371.11,20.77C375.4,20.81 379.68,20.81 383.97,20.79C388.25,20.77 392.54,20.73 396.82,20.67C401.1,20.61 405.39,20.53 409.67,20.45C413.95,20.37 418.24,20.27 422.52,20.19C426.81,20.1 431.09,20.01 435.38,19.94C439.66,19.87 443.95,19.81 448.23,19.78C452.51,19.75 456.8,19.74 461.08,19.75C465.37,19.76 469.65,19.8 473.94,19.86C478.22,19.91 482.51,20 486.79,20.08C491.07,20.16 495.36,20.26 499.64,20.35C503.92,20.44 508.21,20.53 512.49,20.61C516.78,20.69 521.06,20.76 525.35,20.82C529.63,20.88 533.92,20.92 538.2,20.96C542.48,21 546.77,21.02 551.05,21.04C555.33,21.06 559.62,21.07 563.9,21.08C568.19,21.09 572.47,21.09 576.76,21.1C581.04,21.1 585.33,21.11 589.61,21.11C593.89,21.11 598.18,21.11 602.46,21.11C606.74,21.11 611.03,21.11 615.31,21.11C619.6,21.11 623.88,21.12 628.17,21.12C632.45,21.12 636.74,21.11 641.02,21.11C645.3,21.11 649.59,21.11 653.87,21.11C658.16,21.11 662.44,21.11 666.73,21.11C671.01,21.11 675.3,21.1 679.58,21.1C683.86,21.09 688.15,21.09 692.43,21.08C696.71,21.07 701,21.05 705.28,21.03C709.57,21 713.85,20.97 718.14,20.93C722.42,20.89 726.71,20.84 730.99,20.78C735.27,20.72 739.56,20.63 743.84,20.55C748.12,20.46 752.41,20.37 756.69,20.27C760.98,20.17 765.26,20.06 769.55,19.96C773.83,19.86 778.12,19.76 782.4,19.68C786.68,19.6 790.97,19.52 795.25,19.46C799.53,19.4 803.82,19.34 808.1,19.31C812.39,19.27 816.67,19.26 820.96,19.25C825.24,19.24 829.53,19.23 833.81,19.23C838.09,19.23 842.38,19.25 846.66,19.27C850.94,19.3 855.23,19.33 859.51,19.38C863.8,19.43 868.08,19.49 872.37,19.56C876.65,19.63 880.94,19.71 885.22,19.8C889.5,19.89 893.79,19.99 898.07,20.08C902.36,20.17 906.64,20.25 910.93,20.32C915.21,20.39 919.5,20.45 923.78,20.48C928.06,20.51 932.35,20.51 936.63,20.5C940.91,20.49 945.2,20.44 949.48,20.39C953.77,20.34 958.05,20.26 962.34,20.19C966.62,20.12 970.91,20.04 975.19,19.97C979.47,19.91 983.76,19.84 988.04,19.8C992.32,19.76 996.61,19.74 1000.89,19.74C1005.18,19.74 1009.46,19.77 1013.75,19.82C1018.03,19.87 1022.32,19.95 1026.6,20.03C1030.88,20.11 1035.17,20.2 1039.45,20.29C1043.73,20.38 1048.02,20.48 1052.3,20.56C1056.59,20.64 1060.87,20.72 1065.16,20.78Q1069.44,20.84 1078.01,20.93L1078.01,21.3Q1069.44,21.4 1065.16,21.46C1060.87,21.52 1056.59,21.59 1052.3,21.67C1048.02,21.75 1043.73,21.85 1039.45,21.94C1035.17,22.03 1030.88,22.12 1026.6,22.2C1022.32,22.28 1018.03,22.36 1013.75,22.41C1009.46,22.46 1005.18,22.49 1000.89,22.49C996.61,22.49 992.32,22.48 988.04,22.44C983.76,22.4 979.47,22.33 975.19,22.26C970.91,22.19 966.62,22.11 962.34,22.04C958.05,21.97 953.77,21.89 949.48,21.84C945.2,21.79 940.91,21.74 936.63,21.73C932.35,21.72 928.06,21.73 923.78,21.76C919.5,21.79 915.21,21.85 910.93,21.91C906.64,21.98 902.36,22.06 898.07,22.15C893.79,22.24 889.5,22.34 885.22,22.43C880.94,22.52 876.65,22.6 872.37,22.67C868.08,22.74 863.8,22.8 859.51,22.85C855.23,22.9 850.94,22.93 846.66,22.96C842.38,22.98 838.09,23 833.81,23C829.53,23 825.24,22.99 820.96,22.98C816.67,22.97 812.39,22.95 808.1,22.92C803.82,22.89 799.53,22.84 795.25,22.78C790.97,22.72 786.68,22.63 782.4,22.55C778.12,22.46 773.83,22.37 769.55,22.27C765.26,22.17 760.98,22.06 756.69,21.96C752.41,21.86 748.12,21.76 743.84,21.68C739.56,21.6 735.27,21.52 730.99,21.46C726.71,21.4 722.42,21.34 718.14,21.3C713.85,21.26 709.57,21.24 705.28,21.21C701,21.19 696.71,21.16 692.43,21.15C688.15,21.14 683.86,21.14 679.58,21.13C675.3,21.13 671.01,21.12 666.73,21.12C662.44,21.12 658.16,21.12 653.87,21.12C649.59,21.12 645.3,21.12 641.02,21.12C636.74,21.12 632.45,21.12 628.17,21.12C623.88,21.12 619.6,21.12 615.31,21.12C611.03,21.12 606.74,21.12 602.46,21.12C598.18,21.12 593.89,21.12 589.61,21.12C585.33,21.12 581.04,21.13 576.76,21.13C572.47,21.14 568.19,21.14 563.9,21.15C559.62,21.16 555.33,21.17 551.05,21.19C546.77,21.21 542.48,21.23 538.2,21.27C533.92,21.31 529.63,21.35 525.35,21.41C521.06,21.47 516.78,21.54 512.49,21.62C508.21,21.7 503.92,21.79 499.64,21.88C495.36,21.97 491.07,22.07 486.79,22.15C482.51,22.23 478.22,22.32 473.94,22.37C469.65,22.43 465.37,22.47 461.08,22.48C456.8,22.49 452.51,22.48 448.23,22.45C443.95,22.42 439.66,22.36 435.38,22.29C431.09,22.22 426.81,22.13 422.52,22.04C418.24,21.96 413.95,21.86 409.67,21.78C405.39,21.7 401.1,21.62 396.82,21.56C392.54,21.5 388.25,21.46 383.97,21.44C379.68,21.42 375.4,21.42 371.11,21.46C366.83,21.5 362.54,21.55 358.26,21.65C353.98,21.75 349.69,21.88 345.41,22.06C341.13,22.24 336.84,22.47 332.56,22.74C328.27,23.01 323.98,23.34 319.7,23.7C315.41,24.06 311.13,24.48 306.85,24.91C302.57,25.34 298.28,25.82 294,26.29C289.72,26.76 285.43,27.26 281.15,27.75C276.86,28.24 272.58,28.74 268.29,29.24C264.01,29.74 259.72,30.24 255.44,30.74C251.16,31.25 246.87,31.77 242.59,32.27C238.3,32.77 234.02,33.29 229.73,33.75C225.45,34.21 221.17,34.67 216.88,35.02C212.6,35.36 208.32,35.67 204.03,35.82C199.75,35.97 195.46,36.02 191.18,35.9C186.89,35.78 182.6,35.51 178.32,35.12C174.03,34.73 169.75,34.18 165.47,33.57C161.18,32.96 156.9,32.21 152.62,31.48C148.33,30.75 144.06,29.95 139.77,29.21C135.49,28.47 131.2,27.71 126.91,27.04C122.63,26.37 118.35,25.73 114.06,25.18C109.78,24.63 105.5,24.14 101.21,23.72C96.93,23.3 92.65,22.96 88.36,22.67C84.08,22.38 79.79,22.17 75.5,21.98Q71.22,21.79 62.65,21.55Z" style="vector-effect: none; stroke-width: 2px; stroke: rgb(181, 181, 181); stroke-opacity: 1; fill: rgb(181, 181, 181); fill-opacity: 1;"/><path class="box" d="M219.81,24.81V17.42M185.89,24.81V17.42H276.35V24.81ZM185.89,21.12H140.66M276.35,21.12H276.35" style="vector-effect: non-scaling-stroke; stroke-width: 2px; stroke: rgb(181, 181, 181); stroke-opacity: 1; fill: rgb(181, 181, 181); fill-opacity: 1;"/><path class="mean" d="M321.57,24.81V17.42" style="fill: none; vector-effect: non-scaling-stroke; stroke-width: 2px; stroke-dasharray: 4px, 2px; stroke: rgb(181, 181, 181); stroke-opacity: 1;"/></g></g><g class="scatterlayer mlayer"><g class="trace scatter tracea5dfb0" style="stroke-miterlimit: 2; opacity: 1;"><g class="fills"/><g class="errorbars"/><g class="lines"/><g class="points"><path class="point" transform="translate(1000,21.12)" d="M2,0A2,2 0 1,1 0,-2A2,2 0 0,1 2,0Z" style="opacity: 1; stroke-width: 0px; fill: rgb(11, 121, 230); fill-opacity: 1;"/></g><g class="text"/></g><g class="trace scatter trace5d620e" style="stroke-miterlimit: 2; opacity: 1;"><g class="fills"/><g class="errorbars"/><g class="lines"/><g class="points"><path class="point" transform="translate(864.31,21.12)" d="M2,0A2,2 0 1,1 0,-2A2,2 0 0,1 2,0Z" style="opacity: 1; stroke-width: 0px; fill: rgb(11, 121, 230); fill-opacity: 1;"/></g><g class="text"/></g><g class="trace scatter trace755620" style="stroke-miterlimit: 2; opacity: 1;"><g class="fills"/><g class="errorbars"/><g class="lines"/><g class="points"><path class="point" transform="translate(796.47,21.12)" d="M2,0A2,2 0 1,1 0,-2A2,2 0 0,1 2,0Z" style="opacity: 1; stroke-width: 0px; fill: rgb(11, 121, 230); fill-opacity: 1;"/></g><g class="text"/></g><g class="trace scatter trace6daebe" style="stroke-miterlimit: 2; opacity: 1;"><g class="fills"/><g class="errorbars"/><g class="lines"/><g class="points"><path class="point" transform="translate(457.26,21.12)" d="M2,0A2,2 0 1,1 0,-2A2,2 0 0,1 2,0Z" style="opacity: 1; stroke-width: 0px; fill: rgb(11, 121, 230); fill-opacity: 1;"/></g><g class="text"/></g><g class="trace scatter tracec8be14" style="stroke-miterlimit: 2; opacity: 1;"><g class="fills"/><g class="errorbars"/><g class="lines"/><g class="points"><path class="point" transform="translate(276.35,21.12)" d="M2,0A2,2 0 1,1 0,-2A2,2 0 0,1 2,0Z" style="opacity: 1; stroke-width: 0px; fill: rgb(11, 121, 230); fill-opacity: 1;"/></g><g class="text"/></g><g class="trace scatter trace488ffe" style="stroke-miterlimit: 2; opacity: 1;"><g class="fills"/><g class="errorbars"/><g class="lines"/><g class="points"><path class="point" transform="translate(276.35,21.12)" d="M2,0A2,2 0 1,1 0,-2A2,2 0 0,1 2,0Z" style="opacity: 1; stroke-width: 0px; fill: rgb(11, 121, 230); fill-opacity: 1;"/></g><g class="text"/></g><g class="trace scatter trace9e011c" style="stroke-miterlimit: 2; opacity: 1;"><g class="fills"/><g class="errorbars"/><g class="lines"/><g class="points"><path class="point" transform="translate(276.35,21.12)" d="M2,0A2,2 0 1,1 0,-2A2,2 0 0,1 2,0Z" style="opacity: 1; stroke-width: 0px; fill: rgb(11, 121, 230); fill-opacity: 1;"/></g><g class="text"/></g><g class="trace scatter trace301afb" style="stroke-miterlimit: 2; opacity: 1;"><g class="fills"/><g class="errorbars"/><g class="lines"/><g class="points"><path class="point" transform="translate(231.12,21.12)" d="M2,0A2,2 0 1,1 0,-2A2,2 0 0,1 2,0Z" style="opacity: 1; stroke-width: 0px; fill: rgb(11, 121, 230); fill-opacity: 1;"/></g><g class="text"/></g><g class="trace scatter tracedd324e" style="stroke-miterlimit: 2; opacity: 1;"><g class="fills"/><g class="errorbars"/><g class="lines"/><g class="points"><path class="point" transform="translate(231.12,21.12)" d="M2,0A2,2 0 1,1 0,-2A2,2 0 0,1 2,0Z" style="opacity: 1; stroke-width: 0px; fill: rgb(11, 121, 230); fill-opacity: 1;"/></g><g class="text"/></g><g class="trace scatter trace8be853" style="stroke-miterlimit: 2; opacity: 1;"><g class="fills"/><g class="errorbars"/><g class="lines"/><g class="points"><path class="point" transform="translate(231.12,21.12)" d="M2,0A2,2 0 1,1 0,-2A2,2 0 0,1 2,0Z" style="opacity: 1; stroke-width: 0px; fill: rgb(11, 121, 230); fill-opacity: 1;"/></g><g class="text"/></g><g class="trace scatter tracebf433c" style="stroke-miterlimit: 2; opacity: 1;"><g class="fills"/><g class="errorbars"/><g class="lines"/><g class="points"><path class="point" transform="translate(208.5,21.12)" d="M2,0A2,2 0 1,1 0,-2A2,2 0 0,1 2,0Z" style="opacity: 1; stroke-width: 0px; fill: rgb(11, 121, 230); fill-opacity: 1;"/></g><g class="text"/></g><g class="trace scatter tracef17e5d" style="stroke-miterlimit: 2; opacity: 1;"><g class="fills"/><g class="errorbars"/><g class="lines"/><g class="points"><path class="point" transform="translate(185.89,21.12)" d="M2,0A2,2 0 1,1 0,-2A2,2 0 0,1 2,0Z" style="opacity: 1; stroke-width: 0px; fill: rgb(11, 121, 230); fill-opacity: 1;"/></g><g class="text"/></g><g class="trace scatter trace93ac02" style="stroke-miterlimit: 2; opacity: 1;"><g class="fills"/><g class="errorbars"/><g class="lines"/><g class="points"><path class="point" transform="translate(185.89,21.12)" d="M2,0A2,2 0 1,1 0,-2A2,2 0 0,1 2,0Z" style="opacity: 1; stroke-width: 0px; fill: rgb(11, 121, 230); fill-opacity: 1;"/></g><g class="text"/></g><g class="trace scatter trace0f64bb" style="stroke-miterlimit: 2; opacity: 1;"><g class="fills"/><g class="errorbars"/><g class="lines"/><g class="points"><path class="point" transform="translate(185.89,21.12)" d="M2,0A2,2 0 1,1 0,-2A2,2 0 0,1 2,0Z" style="opacity: 1; stroke-width: 0px; fill: rgb(11, 121, 230); fill-opacity: 1;"/></g><g class="text"/></g><g class="trace scatter trace2618d3" style="stroke-miterlimit: 2; opacity: 1;"><g class="fills"/><g class="errorbars"/><g class="lines"/><g class="points"><path class="point" transform="translate(185.89,21.12)" d="M2,0A2,2 0 1,1 0,-2A2,2 0 0,1 2,0Z" style="opacity: 1; stroke-width: 0px; fill: rgb(11, 121, 230); fill-opacity: 1;"/></g><g class="text"/></g><g class="trace scatter traceb50127" style="stroke-miterlimit: 2; opacity: 1;"><g class="fills"/><g class="errorbars"/><g class="lines"/><g class="points"><path class="point" transform="translate(185.89,21.12)" d="M2,0A2,2 0 1,1 0,-2A2,2 0 0,1 2,0Z" style="opacity: 1; stroke-width: 0px; fill: rgb(11, 121, 230); fill-opacity: 1;"/></g><g class="text"/></g><g class="trace scatter trace4912ff" style="stroke-miterlimit: 2; opacity: 1;"><g class="fills"/><g class="errorbars"/><g class="lines"/><g class="points"><path class="point" transform="translate(185.89,21.12)" d="M2,0A2,2 0 1,1 0,-2A2,2 0 0,1 2,0Z" style="opacity: 1; stroke-width: 0px; fill: rgb(11, 121, 230); fill-opacity: 1;"/></g><g class="text"/></g><g class="trace scatter trace7b7e78" style="stroke-miterlimit: 2; opacity: 1;"><g class="fills"/><g class="errorbars"/><g class="lines"/><g class="points"><path class="point" transform="translate(185.89,21.12)" d="M2,0A2,2 0 1,1 0,-2A2,2 0 0,1 2,0Z" style="opacity: 1; stroke-width: 0px; fill: rgb(11, 121, 230); fill-opacity: 1;"/></g><g class="text"/></g><g class="trace scatter trace04d1c3" style="stroke-miterlimit: 2; opacity: 1;"><g class="fills"/><g class="errorbars"/><g class="lines"/><g class="points"><path class="point" transform="translate(140.66,21.12)" d="M2,0A2,2 0 1,1 0,-2A2,2 0 0,1 2,0Z" style="opacity: 1; stroke-width: 0px; fill: rgb(11, 121, 230); fill-opacity: 1;"/></g><g class="text"/></g><g class="trace scatter tracee00c4a" style="stroke-miterlimit: 2; opacity: 1;"><g class="fills"/><g class="errorbars"/><g class="lines"/><g class="points"><path class="point" transform="translate(140.66,21.12)" d="M2,0A2,2 0 1,1 0,-2A2,2 0 0,1 2,0Z" style="opacity: 1; stroke-width: 0px; fill: rgb(11, 121, 230); fill-opacity: 1;"/></g><g class="text"/></g></g></g></g><path class="xlines-above crisp" d="M0,0" style="fill: none;"/><path class="ylines-above crisp" d="M0,0" style="fill: none;"/><g class="overlines-above"/><g class="xaxislayer-above"><g class="xtick"><text text-anchor="middle" x="0" y="102.23076923076925" transform="translate(84.98,0)" style="font-family: 'Lucida Grande', 'Open Sans', verdana, arial, sans-serif; font-size: 9px; fill: rgb(0, 0, 0); fill-opacity: 0.5; white-space: pre; opacity: 1;">0</text></g><g class="xtick"><text text-anchor="middle" x="0" y="102.23076923076925" style="font-family: 'Lucida Grande', 'Open Sans', verdana, arial, sans-serif; font-size: 9px; fill: rgb(0, 0, 0); fill-opacity: 0.5; white-space: pre; opacity: 1;" transform="translate(198.05,0)">5</text></g><g class="xtick"><text text-anchor="middle" x="0" y="102.23076923076925" style="font-family: 'Lucida Grande', 'Open Sans', verdana, arial, sans-serif; font-size: 9px; fill: rgb(0, 0, 0); fill-opacity: 0.5; white-space: pre; opacity: 1;" transform="translate(311.12,0)">10</text></g><g class="xtick"><text text-anchor="middle" x="0" y="102.23076923076925" style="font-family: 'Lucida Grande', 'Open Sans', verdana, arial, sans-serif; font-size: 9px; fill: rgb(0, 0, 0); fill-opacity: 0.5; white-space: pre; opacity: 1;" transform="translate(424.19,0)">15</text></g><g class="xtick"><text text-anchor="middle" x="0" y="102.23076923076925" style="font-family: 'Lucida Grande', 'Open Sans', verdana, arial, sans-serif; font-size: 9px; fill: rgb(0, 0, 0); fill-opacity: 0.5; white-space: pre; opacity: 1;" transform="translate(537.26,0)">20</text></g><g class="xtick"><text text-anchor="middle" x="0" y="102.23076923076925" style="font-family: 'Lucida Grande', 'Open Sans', verdana, arial, sans-serif; font-size: 9px; fill: rgb(0, 0, 0); fill-opacity: 0.5; white-space: pre; opacity: 1;" transform="translate(650.33,0)">25</text></g><g class="xtick"><text text-anchor="middle" x="0" y="102.23076923076925" style="font-family: 'Lucida Grande', 'Open Sans', verdana, arial, sans-serif; font-size: 9px; fill: rgb(0, 0, 0); fill-opacity: 0.5; white-space: pre; opacity: 1;" transform="translate(763.4,0)">30</text></g><g class="xtick"><text text-anchor="middle" x="0" y="102.23076923076925" style="font-family: 'Lucida Grande', 'Open Sans', verdana, arial, sans-serif; font-size: 9px; fill: rgb(0, 0, 0); fill-opacity: 0.5; white-space: pre; opacity: 1;" transform="translate(876.47,0)">35</text></g><g class="xtick"><text text-anchor="middle" x="0" y="102.23076923076925" style="font-family: 'Lucida Grande', 'Open Sans', verdana, arial, sans-serif; font-size: 9px; fill: rgb(0, 0, 0); fill-opacity: 0.5; white-space: pre; opacity: 1;" transform="translate(989.54,0)">40</text></g></g><g class="yaxislayer-above"><g class="ytick"><text text-anchor="end" x="79" y="3.15" transform="translate(0,71.12000000000002)" style="font-family: 'Lucida Grande', 'Open Sans', verdana, arial, sans-serif; font-size: 9px; fill: rgb(0, 0, 0); fill-opacity: 0.5; white-space: pre; opacity: 1;">Reports  </text></g></g><g class="overaxes-above"/></g><g class="subplot x2y2"><g class="layer-subplot"><g class="shapelayer"/><g class="imagelayer"/></g><g class="minor-gridlayer"><g class="x2"/><g class="y2"/></g><g class="gridlayer"><g class="x2"><path class="x2grid crisp" transform="translate(252.46,0)" d="M0,120.3846153846154v42.230769230769226" style="stroke: rgb(0, 0, 0); stroke-opacity: 0.1; stroke-width: 1px;"/><path class="x2grid crisp" transform="translate(419.95,0)" d="M0,120.3846153846154v42.230769230769226" style="stroke: rgb(0, 0, 0); stroke-opacity: 0.1; stroke-width: 1px;"/><path class="x2grid crisp" transform="translate(587.4300000000001,0)" d="M0,120.3846153846154v42.230769230769226" style="stroke: rgb(0, 0, 0); stroke-opacity: 0.1; stroke-width: 1px;"/><path class="x2grid crisp" transform="translate(754.92,0)" d="M0,120.3846153846154v42.230769230769226" style="stroke: rgb(0, 0, 0); stroke-opacity: 0.1; stroke-width: 1px;"/><path class="x2grid crisp" transform="translate(922.41,0)" d="M0,120.3846153846154v42.230769230769226" style="stroke: rgb(0, 0, 0); stroke-opacity: 0.1; stroke-width: 1px;"/></g><g class="y2"><path class="y2grid crisp" transform="translate(0,141.5046153846154)" d="M80,0h1005" style="stroke: rgb(0, 0, 0); stroke-opacity: 0.1; stroke-width: 1px;"/></g></g><g class="zerolinelayer"><path class="x2zl zl crisp" transform="translate(84.98,0)" d="M0,120.3846153846154v42.230769230769226" style="stroke: rgb(0, 0, 0); stroke-opacity: 0.1; stroke-width: 2px;"/></g><g class="layer-between"><g class="shapelayer"/><g class="imagelayer"/></g><path class="xlines-below"/><path class="ylines-below"/><g class="overlines-below"/><g class="xaxislayer-below"/><g class="yaxislayer-below"/><g class="overaxes-below"/><g class="overplot"><g class="x2y2" transform="translate(80,120.3846153846154)" clip-path="url(#clip769fe3x2y2plot)"><g class="violinlayer mlayer"><g class="trace violins" style="opacity: 0.5;"><path class="violin" d="M-12.97,20.35Q-9.15,19.9 -7.25,19.55C-5.34,19.19 -3.42,18.76 -1.53,18.22C0.39,17.67 2.31,17.02 4.2,16.29C6.12,15.55 8.02,14.68 9.92,13.83C11.83,12.97 13.72,12 15.64,11.14C17.54,10.29 19.44,9.4 21.37,8.7C23.26,8.02 25.17,7.39 27.09,6.99C28.98,6.6 30.9,6.37 32.81,6.33C34.72,6.29 36.64,6.49 38.54,6.77C40.46,7.06 42.36,7.54 44.26,8.04C46.18,8.54 48.08,9.17 49.98,9.77C51.89,10.37 53.8,11.02 55.71,11.62C57.62,12.22 59.52,12.82 61.43,13.38C63.33,13.94 65.24,14.47 67.15,14.98C69.06,15.48 70.97,15.96 72.88,16.41C74.78,16.86 76.69,17.29 78.6,17.68C80.51,18.07 82.42,18.43 84.33,18.75C86.23,19.07 88.14,19.36 90.05,19.61C91.95,19.85 93.86,20.05 95.77,20.22C97.68,20.38 99.59,20.5 101.5,20.6C103.41,20.69 105.31,20.75 107.22,20.79C109.13,20.83 111.03,20.84 112.94,20.83C114.85,20.82 116.76,20.78 118.67,20.73C120.58,20.68 122.48,20.61 124.39,20.54C126.3,20.46 128.2,20.37 130.11,20.28C132.02,20.19 133.93,20.1 135.84,20.01C137.75,19.92 139.65,19.83 141.56,19.76C143.47,19.69 145.37,19.62 147.28,19.57C149.19,19.52 151.1,19.48 153.01,19.45C154.92,19.42 156.82,19.4 158.73,19.4C160.64,19.4 162.54,19.4 164.45,19.42C166.36,19.44 168.27,19.46 170.18,19.5C172.09,19.54 173.99,19.59 175.9,19.65C177.81,19.71 179.71,19.79 181.62,19.87C183.53,19.95 185.44,20.05 187.35,20.14C189.26,20.23 191.16,20.33 193.07,20.42C194.98,20.51 196.88,20.59 198.79,20.66C200.7,20.73 202.61,20.8 204.52,20.85C206.43,20.9 208.33,20.95 210.24,20.98C212.15,21.01 214.05,21.03 215.96,21.05C217.87,21.07 219.78,21.08 221.69,21.09C223.6,21.1 225.5,21.1 227.41,21.1C229.32,21.1 231.22,21.11 233.13,21.11C235.04,21.11 236.95,21.11 238.86,21.11C240.77,21.11 242.67,21.12 244.58,21.12C246.49,21.12 248.39,21.12 250.3,21.12C252.21,21.12 254.12,21.12 256.03,21.12C257.94,21.12 259.84,21.12 261.75,21.12C263.66,21.12 265.56,21.12 267.47,21.12C269.38,21.12 271.29,21.12 273.2,21.12C275.11,21.12 277.01,21.12 278.92,21.12C280.83,21.12 282.73,21.12 284.64,21.12C286.55,21.12 288.46,21.12 290.37,21.12C292.28,21.12 294.18,21.12 296.09,21.12C298,21.12 299.9,21.12 301.81,21.12C303.72,21.12 305.63,21.12 307.54,21.12C309.45,21.12 311.35,21.12 313.26,21.12C315.17,21.12 317.07,21.12 318.98,21.12C320.89,21.12 322.8,21.12 324.71,21.12C326.62,21.12 328.52,21.12 330.43,21.12C332.34,21.12 334.24,21.12 336.15,21.12C338.06,21.12 339.97,21.12 341.88,21.12C343.79,21.12 345.69,21.12 347.6,21.12C349.51,21.12 351.41,21.12 353.32,21.12C355.23,21.12 357.14,21.12 359.05,21.12C360.96,21.12 362.86,21.12 364.77,21.12C366.68,21.12 368.58,21.12 370.49,21.12C372.4,21.12 374.31,21.12 376.22,21.12C378.13,21.12 380.03,21.12 381.94,21.12C383.85,21.12 385.75,21.12 387.66,21.12C389.57,21.12 391.48,21.12 393.39,21.12C395.3,21.12 397.2,21.11 399.11,21.11C401.02,21.11 402.92,21.11 404.83,21.11C406.74,21.11 408.65,21.11 410.56,21.11C412.47,21.11 414.37,21.1 416.28,21.09C418.19,21.08 420.09,21.08 422,21.06C423.91,21.04 425.82,21.02 427.73,20.99C429.64,20.96 431.54,20.93 433.45,20.88C435.36,20.83 437.26,20.78 439.17,20.71C441.08,20.64 442.99,20.56 444.9,20.48C446.81,20.4 448.71,20.31 450.62,20.24C452.53,20.17 454.43,20.09 456.34,20.04C458.25,19.99 460.16,19.94 462.07,19.92C463.98,19.9 465.88,19.91 467.79,19.93C469.7,19.95 471.6,20.01 473.51,20.07C475.42,20.13 477.33,20.2 479.24,20.28C481.15,20.35 483.05,20.44 484.96,20.52C486.87,20.6 488.77,20.68 490.68,20.74C492.59,20.8 494.5,20.85 496.41,20.9C498.32,20.94 500.22,20.98 502.13,21.01C504.04,21.04 505.94,21.06 507.85,21.07C509.76,21.09 511.67,21.09 513.58,21.1C515.49,21.11 517.39,21.11 519.3,21.11C521.21,21.11 523.11,21.11 525.02,21.11C526.93,21.11 528.84,21.11 530.75,21.11C532.66,21.11 534.56,21.12 536.47,21.12C538.38,21.12 540.28,21.12 542.19,21.12C544.1,21.12 546.01,21.12 547.92,21.12C549.83,21.12 551.73,21.12 553.64,21.12C555.55,21.12 557.45,21.12 559.36,21.12C561.27,21.12 563.18,21.12 565.09,21.12C567,21.12 568.9,21.12 570.81,21.12C572.72,21.12 574.62,21.12 576.53,21.12C578.44,21.12 580.35,21.12 582.26,21.12C584.17,21.12 586.07,21.12 587.98,21.12C589.89,21.12 591.79,21.12 593.7,21.12C595.61,21.12 597.52,21.12 599.43,21.12C601.34,21.12 603.24,21.12 605.15,21.12C607.06,21.12 608.96,21.12 610.87,21.12C612.78,21.12 614.69,21.12 616.6,21.12C618.51,21.12 620.41,21.12 622.32,21.12C624.23,21.12 626.13,21.12 628.04,21.12C629.95,21.12 631.86,21.12 633.77,21.12C635.68,21.12 637.58,21.12 639.49,21.12C641.4,21.12 643.3,21.12 645.21,21.12C647.12,21.12 649.03,21.12 650.94,21.12C652.85,21.12 654.75,21.12 656.66,21.12C658.57,21.12 660.47,21.12 662.38,21.12C664.29,21.12 666.2,21.12 668.11,21.12C670.02,21.12 671.92,21.12 673.83,21.12C675.74,21.12 677.64,21.12 679.55,21.12C681.46,21.12 683.37,21.12 685.28,21.12C687.19,21.12 689.09,21.12 691,21.12C692.91,21.12 694.81,21.12 696.72,21.12C698.63,21.12 700.54,21.12 702.45,21.12C704.36,21.12 706.26,21.12 708.17,21.12C710.08,21.12 711.98,21.12 713.89,21.12C715.8,21.12 717.71,21.12 719.62,21.12C721.53,21.12 723.43,21.12 725.34,21.12C727.25,21.12 729.15,21.12 731.06,21.12C732.97,21.12 734.88,21.12 736.79,21.12C738.7,21.12 740.6,21.12 742.51,21.12C744.42,21.12 746.32,21.12 748.23,21.12C750.14,21.12 752.05,21.12 753.96,21.12C755.87,21.12 757.77,21.12 759.68,21.12C761.59,21.12 763.49,21.12 765.4,21.12C767.31,21.12 769.22,21.12 771.13,21.12C773.04,21.12 774.94,21.12 776.85,21.12C778.76,21.12 780.66,21.12 782.57,21.12C784.48,21.12 786.39,21.12 788.3,21.12C790.21,21.12 792.11,21.12 794.02,21.12C795.93,21.12 797.83,21.12 799.74,21.12C801.65,21.12 803.56,21.12 805.47,21.12C807.38,21.12 809.28,21.12 811.19,21.12C813.1,21.12 815,21.12 816.91,21.12C818.82,21.12 820.73,21.12 822.64,21.12C824.55,21.12 826.45,21.12 828.36,21.12C830.27,21.12 832.17,21.12 834.08,21.12C835.99,21.12 837.9,21.12 839.81,21.12C841.72,21.12 843.62,21.12 845.53,21.12C847.44,21.12 849.34,21.12 851.25,21.12C853.16,21.12 855.07,21.12 856.98,21.12C858.89,21.12 860.79,21.12 862.7,21.12C864.61,21.12 866.51,21.12 868.42,21.12C870.33,21.12 872.24,21.12 874.15,21.12C876.06,21.12 877.96,21.12 879.87,21.12C881.78,21.12 883.68,21.12 885.59,21.12C887.5,21.12 889.41,21.12 891.32,21.12C893.23,21.12 895.13,21.12 897.04,21.12C898.95,21.12 900.85,21.12 902.76,21.12C904.67,21.12 906.58,21.12 908.49,21.12C910.4,21.12 912.3,21.12 914.21,21.12C916.12,21.12 918.02,21.12 919.93,21.12C921.84,21.12 923.75,21.12 925.66,21.12C927.57,21.12 929.47,21.11 931.38,21.11C933.29,21.11 935.19,21.11 937.1,21.11C939.01,21.11 940.92,21.11 942.83,21.11C944.74,21.11 946.64,21.1 948.55,21.1C950.46,21.09 952.36,21.09 954.27,21.08C956.18,21.07 958.09,21.05 960,21.03C961.91,21.01 963.81,20.99 965.72,20.95C967.63,20.91 969.53,20.86 971.44,20.81C973.35,20.75 975.26,20.69 977.17,20.62C979.08,20.55 980.98,20.46 982.89,20.38C984.8,20.3 986.7,20.22 988.61,20.15C990.52,20.08 992.43,20.02 994.34,19.98C996.25,19.94 998.15,19.91 1000.06,19.91C1001.97,19.91 1003.87,19.94 1005.78,19.98C1007.69,20.02 1009.6,20.08 1011.51,20.15C1013.42,20.22 1015.32,20.31 1017.23,20.39C1019.14,20.47 1021.04,20.55 1022.95,20.62C1024.86,20.69 1026.77,20.76 1028.68,20.82Q1030.59,20.87 1034.4,20.95L1034.4,21.28Q1030.59,21.37 1028.68,21.42C1026.77,21.48 1024.86,21.54 1022.95,21.61C1021.04,21.68 1019.14,21.76 1017.23,21.84C1015.32,21.92 1013.42,22.01 1011.51,22.08C1009.6,22.15 1007.69,22.21 1005.78,22.25C1003.87,22.29 1001.97,22.32 1000.06,22.32C998.15,22.32 996.25,22.3 994.34,22.26C992.43,22.22 990.52,22.15 988.61,22.08C986.7,22.01 984.8,21.93 982.89,21.85C980.98,21.77 979.08,21.68 977.17,21.61C975.26,21.54 973.35,21.48 971.44,21.42C969.53,21.37 967.63,21.32 965.72,21.28C963.81,21.24 961.91,21.22 960,21.2C958.09,21.18 956.18,21.16 954.27,21.15C952.36,21.14 950.46,21.14 948.55,21.13C946.64,21.13 944.74,21.12 942.83,21.12C940.92,21.12 939.01,21.12 937.1,21.12C935.19,21.12 933.29,21.12 931.38,21.12C929.47,21.12 927.57,21.12 925.66,21.12C923.75,21.12 921.84,21.12 919.93,21.12C918.02,21.12 916.12,21.12 914.21,21.12C912.3,21.12 910.4,21.12 908.49,21.12C906.58,21.12 904.67,21.12 902.76,21.12C900.85,21.12 898.95,21.12 897.04,21.12C895.13,21.12 893.23,21.12 891.32,21.12C889.41,21.12 887.5,21.12 885.59,21.12C883.68,21.12 881.78,21.12 879.87,21.12C877.96,21.12 876.06,21.12 874.15,21.12C872.24,21.12 870.33,21.12 868.42,21.12C866.51,21.12 864.61,21.12 862.7,21.12C860.79,21.12 858.89,21.12 856.98,21.12C855.07,21.12 853.16,21.12 851.25,21.12C849.34,21.12 847.44,21.12 845.53,21.12C843.62,21.12 841.72,21.12 839.81,21.12C837.9,21.12 835.99,21.12 834.08,21.12C832.17,21.12 830.27,21.12 828.36,21.12C826.45,21.12 824.55,21.12 822.64,21.12C820.73,21.12 818.82,21.12 816.91,21.12C815,21.12 813.1,21.12 811.19,21.12C809.28,21.12 807.38,21.12 805.47,21.12C803.56,21.12 801.65,21.12 799.74,21.12C797.83,21.12 795.93,21.12 794.02,21.12C792.11,21.12 790.21,21.12 788.3,21.12C786.39,21.12 784.48,21.12 782.57,21.12C780.66,21.12 778.76,21.12 776.85,21.12C774.94,21.12 773.04,21.12 771.13,21.12C769.22,21.12 767.31,21.12 765.4,21.12C763.49,21.12 761.59,21.12 759.68,21.12C757.77,21.12 755.87,21.12 753.96,21.12C752.05,21.12 750.14,21.12 748.23,21.12C746.32,21.12 744.42,21.12 742.51,21.12C740.6,21.12 738.7,21.12 736.79,21.12C734.88,21.12 732.97,21.12 731.06,21.12C729.15,21.12 727.25,21.12 725.34,21.12C723.43,21.12 721.53,21.12 719.62,21.12C717.71,21.12 715.8,21.12 713.89,21.12C711.98,21.12 710.08,21.12 708.17,21.12C706.26,21.12 704.36,21.12 702.45,21.12C700.54,21.12 698.63,21.12 696.72,21.12C694.81,21.12 692.91,21.12 691,21.12C689.09,21.12 687.19,21.12 685.28,21.12C683.37,21.12 681.46,21.12 679.55,21.12C677.64,21.12 675.74,21.12 673.83,21.12C671.92,21.12 670.02,21.12 668.11,21.12C666.2,21.12 664.29,21.12 662.38,21.12C660.47,21.12 658.57,21.12 656.66,21.12C654.75,21.12 652.85,21.12 650.94,21.12C649.03,21.12 647.12,21.12 645.21,21.12C643.3,21.12 641.4,21.12 639.49,21.12C637.58,21.12 635.68,21.12 633.77,21.12C631.86,21.12 629.95,21.12 628.04,21.12C626.13,21.12 624.23,21.12 622.32,21.12C620.41,21.12 618.51,21.12 616.6,21.12C614.69,21.12 612.78,21.12 610.87,21.12C608.96,21.12 607.06,21.12 605.15,21.12C603.24,21.12 601.34,21.12 599.43,21.12C597.52,21.12 595.61,21.12 593.7,21.12C591.79,21.12 589.89,21.12 587.98,21.12C586.07,21.12 584.17,21.12 582.26,21.12C580.35,21.12 578.44,21.12 576.53,21.12C574.62,21.12 572.72,21.12 570.81,21.12C568.9,21.12 567,21.12 565.09,21.12C563.18,21.12 561.27,21.12 559.36,21.12C557.45,21.12 555.55,21.12 553.64,21.12C551.73,21.12 549.83,21.12 547.92,21.12C546.01,21.12 544.1,21.12 542.19,21.12C540.28,21.12 538.38,21.12 536.47,21.12C534.56,21.12 532.66,21.12 530.75,21.12C528.84,21.12 526.93,21.12 525.02,21.12C523.11,21.12 521.21,21.12 519.3,21.12C517.39,21.12 515.49,21.13 513.58,21.14C511.67,21.15 509.76,21.16 507.85,21.17C505.94,21.18 504.04,21.19 502.13,21.22C500.22,21.25 498.32,21.29 496.41,21.33C494.5,21.38 492.59,21.43 490.68,21.49C488.77,21.55 486.87,21.63 484.96,21.71C483.05,21.79 481.15,21.88 479.24,21.95C477.33,22.03 475.42,22.1 473.51,22.16C471.6,22.22 469.7,22.28 467.79,22.3C465.88,22.32 463.98,22.33 462.07,22.31C460.16,22.29 458.25,22.24 456.34,22.19C454.43,22.14 452.53,22.06 450.62,21.99C448.71,21.92 446.81,21.83 444.9,21.75C442.99,21.67 441.08,21.59 439.17,21.52C437.26,21.45 435.36,21.4 433.45,21.35C431.54,21.3 429.64,21.27 427.73,21.24C425.82,21.21 423.91,21.19 422,21.17C420.09,21.15 418.19,21.15 416.28,21.14C414.37,21.13 412.47,21.12 410.56,21.12C408.65,21.12 406.74,21.12 404.83,21.12C402.92,21.12 401.02,21.12 399.11,21.12C397.2,21.12 395.3,21.12 393.39,21.12C391.48,21.12 389.57,21.12 387.66,21.12C385.75,21.12 383.85,21.12 381.94,21.12C380.03,21.12 378.13,21.12 376.22,21.12C374.31,21.12 372.4,21.12 370.49,21.12C368.58,21.12 366.68,21.12 364.77,21.12C362.86,21.12 360.96,21.12 359.05,21.12C357.14,21.12 355.23,21.12 353.32,21.12C351.41,21.12 349.51,21.12 347.6,21.12C345.69,21.12 343.79,21.12 341.88,21.12C339.97,21.12 338.06,21.12 336.15,21.12C334.24,21.12 332.34,21.12 330.43,21.12C328.52,21.12 326.62,21.12 324.71,21.12C322.8,21.12 320.89,21.12 318.98,21.12C317.07,21.12 315.17,21.12 313.26,21.12C311.35,21.12 309.45,21.12 307.54,21.12C305.63,21.12 303.72,21.12 301.81,21.12C299.9,21.12 298,21.12 296.09,21.12C294.18,21.12 292.28,21.12 290.37,21.12C288.46,21.12 286.55,21.12 284.64,21.12C282.73,21.12 280.83,21.12 278.92,21.12C277.01,21.12 275.11,21.12 273.2,21.12C271.29,21.12 269.38,21.12 267.47,21.12C265.56,21.12 263.66,21.12 261.75,21.12C259.84,21.12 257.94,21.12 256.03,21.12C254.12,21.12 252.21,21.12 250.3,21.12C248.39,21.12 246.49,21.12 244.58,21.12C242.67,21.12 240.77,21.12 238.86,21.12C236.95,21.12 235.04,21.12 233.13,21.12C231.22,21.12 229.32,21.13 227.41,21.13C225.5,21.13 223.6,21.13 221.69,21.14C219.78,21.15 217.87,21.16 215.96,21.18C214.05,21.2 212.15,21.22 210.24,21.25C208.33,21.28 206.43,21.33 204.52,21.38C202.61,21.43 200.7,21.5 198.79,21.57C196.88,21.64 194.98,21.72 193.07,21.81C191.16,21.9 189.26,22 187.35,22.09C185.44,22.18 183.53,22.28 181.62,22.36C179.71,22.44 177.81,22.52 175.9,22.58C173.99,22.64 172.09,22.69 170.18,22.73C168.27,22.77 166.36,22.79 164.45,22.81C162.54,22.83 160.64,22.83 158.73,22.83C156.82,22.83 154.92,22.81 153.01,22.78C151.1,22.75 149.19,22.71 147.28,22.66C145.37,22.61 143.47,22.54 141.56,22.47C139.65,22.4 137.75,22.31 135.84,22.22C133.93,22.13 132.02,22.04 130.11,21.95C128.2,21.86 126.3,21.77 124.39,21.69C122.48,21.62 120.58,21.55 118.67,21.5C116.76,21.45 114.85,21.42 112.94,21.41C111.03,21.4 109.13,21.4 107.22,21.44C105.31,21.48 103.41,21.54 101.5,21.63C99.59,21.73 97.68,21.85 95.77,22.01C93.86,22.18 91.95,22.38 90.05,22.62C88.14,22.87 86.23,23.16 84.33,23.48C82.42,23.8 80.51,24.16 78.6,24.55C76.69,24.94 74.78,25.37 72.88,25.82C70.97,26.27 69.06,26.75 67.15,27.25C65.24,27.76 63.33,28.29 61.43,28.85C59.52,29.41 57.62,30.01 55.71,30.61C53.8,31.21 51.89,31.86 49.98,32.46C48.08,33.06 46.18,33.7 44.26,34.2C42.36,34.7 40.46,35.19 38.54,35.47C36.64,35.75 34.72,35.94 32.81,35.9C30.9,35.86 28.98,35.63 27.09,35.24C25.17,34.84 23.26,34.21 21.37,33.53C19.44,32.83 17.54,31.94 15.64,31.09C13.72,30.23 11.83,29.26 9.92,28.4C8.02,27.55 6.12,26.68 4.2,25.94C2.31,25.21 0.39,24.56 -1.53,24.01C-3.42,23.47 -5.34,23.04 -7.25,22.68Q-9.15,22.33 -12.97,21.88Z" style="vector-effect: none; stroke-width: 2px; stroke: rgb(181, 181, 181); stroke-opacity: 1; fill: rgb(181, 181, 181); fill-opacity: 1;"/><path class="box" d="M38.24,24.81V17.42M28.95,24.81V17.42H68.84V24.81ZM28.95,21.12H21.43M68.84,21.12H69.42" style="vector-effect: non-scaling-stroke; stroke-width: 2px; stroke: rgb(181, 181, 181); stroke-opacity: 1; fill: rgb(181, 181, 181); fill-opacity: 1;"/><path class="mean" d="M120.03,24.81V17.42" style="fill: none; vector-effect: non-scaling-stroke; stroke-width: 2px; stroke-dasharray: 4px, 2px; stroke: rgb(181, 181, 181); stroke-opacity: 1;"/></g></g><g class="scatterlayer mlayer"><g class="trace scatter trace388357" style="stroke-miterlimit: 2; opacity: 1;"><g class="fills"/><g class="errorbars"/><g class="lines"/><g class="points"><path class="point" transform="translate(1000,21.12)" d="M2,0A2,2 0 1,1 0,-2A2,2 0 0,1 2,0Z" style="opacity: 1; stroke-width: 0px; fill: rgb(11, 121, 230); fill-opacity: 1;"/></g><g class="text"/></g><g class="trace scatter traced4ce5d" style="stroke-miterlimit: 2; opacity: 1;"><g class="fills"/><g class="errorbars"/><g class="lines"/><g class="points"><path class="point" transform="translate(464.43,21.12)" d="M2,0A2,2 0 1,1 0,-2A2,2 0 0,1 2,0Z" style="opacity: 1; stroke-width: 0px; fill: rgb(11, 121, 230); fill-opacity: 1;"/></g><g class="text"/></g><g class="trace scatter traceb51629" style="stroke-miterlimit: 2; opacity: 1;"><g class="fills"/><g class="errorbars"/><g class="lines"/><g class="points"><path class="point" transform="translate(174.43,21.12)" d="M2,0A2,2 0 1,1 0,-2A2,2 0 0,1 2,0Z" style="opacity: 1; stroke-width: 0px; fill: rgb(11, 121, 230); fill-opacity: 1;"/></g><g class="text"/></g><g class="trace scatter trace1a705a" style="stroke-miterlimit: 2; opacity: 1;"><g class="fills"/><g class="errorbars"/><g class="lines"/><g class="points"><path class="point" transform="translate(146.06,21.12)" d="M2,0A2,2 0 1,1 0,-2A2,2 0 0,1 2,0Z" style="opacity: 1; stroke-width: 0px; fill: rgb(11, 121, 230); fill-opacity: 1;"/></g><g class="text"/></g><g class="trace scatter trace6c4963" style="stroke-miterlimit: 2; opacity: 1;"><g class="fills"/><g class="errorbars"/><g class="lines"/><g class="points"><path class="point" transform="translate(51.35,21.12)" d="M2,0A2,2 0 1,1 0,-2A2,2 0 0,1 2,0Z" style="opacity: 1; stroke-width: 0px; fill: rgb(11, 121, 230); fill-opacity: 1;"/></g><g class="text"/></g><g class="trace scatter tracea15139" style="stroke-miterlimit: 2; opacity: 1;"><g class="fills"/><g class="errorbars"/><g class="lines"/><g class="points"><path class="point" transform="translate(28.23,21.12)" d="M2,0A2,2 0 1,1 0,-2A2,2 0 0,1 2,0Z" style="opacity: 1; stroke-width: 0px; fill: rgb(11, 121, 230); fill-opacity: 1;"/></g><g class="text"/></g><g class="trace scatter trace3028a4" style="stroke-miterlimit: 2; opacity: 1;"><g class="fills"/><g class="errorbars"/><g class="lines"/><g class="points"><path class="point" transform="translate(68.27,21.12)" d="M2,0A2,2 0 1,1 0,-2A2,2 0 0,1 2,0Z" style="opacity: 1; stroke-width: 0px; fill: rgb(11, 121, 230); fill-opacity: 1;"/></g><g class="text"/></g><g class="trace scatter trace5042f1" style="stroke-miterlimit: 2; opacity: 1;"><g class="fills"/><g class="errorbars"/><g class="lines"/><g class="points"><path class="point" transform="translate(25.76,21.12)" d="M2,0A2,2 0 1,1 0,-2A2,2 0 0,1 2,0Z" style="opacity: 1; stroke-width: 0px; fill: rgb(11, 121, 230); fill-opacity: 1;"/></g><g class="text"/></g><g class="trace scatter tracecbfbcf" style="stroke-miterlimit: 2; opacity: 1;"><g class="fills"/><g class="errorbars"/><g class="lines"/><g class="points"><path class="point" transform="translate(43.39,21.12)" d="M2,0A2,2 0 1,1 0,-2A2,2 0 0,1 2,0Z" style="opacity: 1; stroke-width: 0px; fill: rgb(11, 121, 230); fill-opacity: 1;"/></g><g class="text"/></g><g class="trace scatter trace83a6e0" style="stroke-miterlimit: 2; opacity: 1;"><g class="fills"/><g class="errorbars"/><g class="lines"/><g class="points"><path class="point" transform="translate(42.9,21.12)" d="M2,0A2,2 0 1,1 0,-2A2,2 0 0,1 2,0Z" style="opacity: 1; stroke-width: 0px; fill: rgb(11, 121, 230); fill-opacity: 1;"/></g><g class="text"/></g><g class="trace scatter trace17af47" style="stroke-miterlimit: 2; opacity: 1;"><g class="fills"/><g class="errorbars"/><g class="lines"/><g class="points"><path class="point" transform="translate(26.82,21.12)" d="M2,0A2,2 0 1,1 0,-2A2,2 0 0,1 2,0Z" style="opacity: 1; stroke-width: 0px; fill: rgb(11, 121, 230); fill-opacity: 1;"/></g><g class="text"/></g><g class="trace scatter tracea2f2e7" style="stroke-miterlimit: 2; opacity: 1;"><g class="fills"/><g class="errorbars"/><g class="lines"/><g class="points"><path class="point" transform="translate(29.87,21.12)" d="M2,0A2,2 0 1,1 0,-2A2,2 0 0,1 2,0Z" style="opacity: 1; stroke-width: 0px; fill: rgb(11, 121, 230); fill-opacity: 1;"/></g><g class="text"/></g><g class="trace scatter tracebb3ad6" style="stroke-miterlimit: 2; opacity: 1;"><g class="fills"/><g class="errorbars"/><g class="lines"/><g class="points"><path class="point" transform="translate(29.68,21.12)" d="M2,0A2,2 0 1,1 0,-2A2,2 0 0,1 2,0Z" style="opacity: 1; stroke-width: 0px; fill: rgb(11, 121, 230); fill-opacity: 1;"/></g><g class="text"/></g><g class="trace scatter trace517319" style="stroke-miterlimit: 2; opacity: 1;"><g class="fills"/><g class="errorbars"/><g class="lines"/><g class="points"><path class="point" transform="translate(57.38,21.12)" d="M2,0A2,2 0 1,1 0,-2A2,2 0 0,1 2,0Z" style="opacity: 1; stroke-width: 0px; fill: rgb(11, 121, 230); fill-opacity: 1;"/></g><g class="text"/></g><g class="trace scatter tracee415bd" style="stroke-miterlimit: 2; opacity: 1;"><g class="fills"/><g class="errorbars"/><g class="lines"/><g class="points"><path class="point" transform="translate(69.42,21.12)" d="M2,0A2,2 0 1,1 0,-2A2,2 0 0,1 2,0Z" style="opacity: 1; stroke-width: 0px; fill: rgb(11, 121, 230); fill-opacity: 1;"/></g><g class="text"/></g><g class="trace scatter traceb7bf24" style="stroke-miterlimit: 2; opacity: 1;"><g class="fills"/><g class="errorbars"/><g class="lines"/><g class="points"><path class="point" transform="translate(23.93,21.12)" d="M2,0A2,2 0 1,1 0,-2A2,2 0 0,1 2,0Z" style="opacity: 1; stroke-width: 0px; fill: rgb(11, 121, 230); fill-opacity: 1;"/></g><g class="text"/></g><g class="trace scatter tracebf55b6" style="stroke-miterlimit: 2; opacity: 1;"><g class="fills"/><g class="errorbars"/><g class="lines"/><g class="points"><path class="point" transform="translate(31.97,21.12)" d="M2,0A2,2 0 1,1 0,-2A2,2 0 0,1 2,0Z" style="opacity: 1; stroke-width: 0px; fill: rgb(11, 121, 230); fill-opacity: 1;"/></g><g class="text"/></g><g class="trace scatter tracecfbba7" style="stroke-miterlimit: 2; opacity: 1;"><g class="fills"/><g class="errorbars"/><g class="lines"/><g class="points"><path class="point" transform="translate(21.43,21.12)" d="M2,0A2,2 0 1,1 0,-2A2,2 0 0,1 2,0Z" style="opacity: 1; stroke-width: 0px; fill: rgb(11, 121, 230); fill-opacity: 1;"/></g><g class="text"/></g><g class="trace scatter trace8ccdb6" style="stroke-miterlimit: 2; opacity: 1;"><g class="fills"/><g class="errorbars"/><g class="lines"/><g class="points"><path class="point" transform="translate(31.71,21.12)" d="M2,0A2,2 0 1,1 0,-2A2,2 0 0,1 2,0Z" style="opacity: 1; stroke-width: 0px; fill: rgb(11, 121, 230); fill-opacity: 1;"/></g><g class="text"/></g><g class="trace scatter trace5758bc" style="stroke-miterlimit: 2; opacity: 1;"><g class="fills"/><g class="errorbars"/><g class="lines"/><g class="points"><path class="point" transform="translate(33.59,21.12)" d="M2,0A2,2 0 1,1 0,-2A2,2 0 0,1 2,0Z" style="opacity: 1; stroke-width: 0px; fill: rgb(11, 121, 230); fill-opacity: 1;"/></g><g class="text"/></g></g></g></g><path class="xlines-above crisp" d="M0,0" style="fill: none;"/><path class="ylines-above crisp" d="M0,0" style="fill: none;"/><g class="overlines-above"/><g class="xaxislayer-above"><g class="x2tick"><text text-anchor="middle" x="0" y="172.61538461538464" transform="translate(84.98,0)" style="font-family: 'Lucida Grande', 'Open Sans', verdana, arial, sans-serif; font-size: 9px; fill: rgb(0, 0, 0); fill-opacity: 0.5; white-space: pre; opacity: 1;">0</text></g><g class="x2tick"><text text-anchor="middle" x="0" y="172.61538461538464" style="font-family: 'Lucida Grande', 'Open Sans', verdana, arial, sans-serif; font-size: 9px; fill: rgb(0, 0, 0); fill-opacity: 0.5; white-space: pre; opacity: 1;" transform="translate(252.46,0)">1M</text></g><g class="x2tick"><text text-anchor="middle" x="0" y="172.61538461538464" style="font-family: 'Lucida Grande', 'Open Sans', verdana, arial, sans-serif; font-size: 9px; fill: rgb(0, 0, 0); fill-opacity: 0.5; white-space: pre; opacity: 1;" transform="translate(419.95,0)">2M</text></g><g class="x2tick"><text text-anchor="middle" x="0" y="172.61538461538464" style="font-family: 'Lucida Grande', 'Open Sans', verdana, arial, sans-serif; font-size: 9px; fill: rgb(0, 0, 0); fill-opacity: 0.5; white-space: pre; opacity: 1;" transform="translate(587.4300000000001,0)">3M</text></g><g class="x2tick"><text text-anchor="middle" x="0" y="172.61538461538464" style="font-family: 'Lucida Grande', 'Open Sans', verdana, arial, sans-serif; font-size: 9px; fill: rgb(0, 0, 0); fill-opacity: 0.5; white-space: pre; opacity: 1;" transform="translate(754.92,0)">4M</text></g><g class="x2tick"><text text-anchor="middle" x="0" y="172.61538461538464" style="font-family: 'Lucida Grande', 'Open Sans', verdana, arial, sans-serif; font-size: 9px; fill: rgb(0, 0, 0); fill-opacity: 0.5; white-space: pre; opacity: 1;" transform="translate(922.41,0)">5M</text></g></g><g class="yaxislayer-above"><g class="y2tick"><text text-anchor="end" x="79" y="3.15" transform="translate(0,141.5046153846154)" style="font-family: 'Lucida Grande', 'Open Sans', verdana, arial, sans-serif; font-size: 9px; fill: rgb(0, 0, 0); fill-opacity: 0.5; white-space: pre; opacity: 1;">Occurrences  </text></g></g><g class="overaxes-above"/></g><g class="subplot x3y3"><g class="layer-subplot"><g class="shapelayer"/><g class="imagelayer"/></g><g class="minor-gridlayer"><g class="x3"/><g class="y3"/></g><g class="gridlayer"><g class="x3"><path class="x3grid crisp" transform="translate(283.98,0)" d="M0,190.76923076923077v42.230769230769226" style="stroke: rgb(0, 0, 0); stroke-opacity: 0.1; stroke-width: 1px;"/><path class="x3grid crisp" transform="translate(482.99,0)" d="M0,190.76923076923077v42.230769230769226" style="stroke: rgb(0, 0, 0); stroke-opacity: 0.1; stroke-width: 1px;"/><path class="x3grid crisp" transform="translate(681.99,0)" d="M0,190.76923076923077v42.230769230769226" style="stroke: rgb(0, 0, 0); stroke-opacity: 0.1; stroke-width: 1px;"/><path class="x3grid crisp" transform="translate(881,0)" d="M0,190.76923076923077v42.230769230769226" style="stroke: rgb(0, 0, 0); stroke-opacity: 0.1; stroke-width: 1px;"/><path class="x3grid crisp" transform="translate(1080,0)" d="M0,190.76923076923077v42.230769230769226" style="stroke: rgb(0, 0, 0); stroke-opacity: 0.1; stroke-width: 1px;"/></g><g class="y3"><path class="y3grid crisp" transform="translate(0,211.88923076923078)" d="M80,0h1005" style="stroke: rgb(0, 0, 0); stroke-opacity: 0.1; stroke-width: 1px;"/></g></g><g class="zerolinelayer"><path class="x3zl zl crisp" transform="translate(84.98,0)" d="M0,190.76923076923077v42.230769230769226" style="stroke: rgb(0, 0, 0); stroke-opacity: 0.1; stroke-width: 2px;"/></g><g class="layer-between"><g class="shapelayer"/><g class="imagelayer"/></g><path class="xlines-below"/><path class="ylines-below"/><g class="overlines-below"/><g class="xaxislayer-below"/><g class="yaxislayer-below"/><g class="overaxes-below"/><g class="overplot"><g class="x3y3" transform="translate(80,190.76923076923077)" clip-path="url(#clip769fe3x3y3plot)"><g class="violinlayer mlayer"><g class="trace violins" style="opacity: 0.5;"><path class="violin" d="M4.87,20.35Q4.9,19.85 4.91,19.55C4.92,19.16 4.93,18.7 4.94,18.22C4.95,17.64 4.96,16.97 4.97,16.29C4.98,15.52 4.99,14.67 5,13.83C5.01,12.95 5.03,12.01 5.04,11.14C5.05,10.31 5.06,9.44 5.07,8.7C5.08,8.08 5.09,7.43 5.1,6.99C5.11,6.72 5.12,6.33 5.13,6.33C5.14,6.33 5.15,6.59 5.16,6.77C5.18,7.08 5.19,7.58 5.2,8.04C5.21,8.57 5.22,9.18 5.23,9.77C5.24,10.38 5.25,11.01 5.26,11.62C5.27,12.21 5.28,12.81 5.29,13.38C5.3,13.93 5.32,14.46 5.33,14.98C5.34,15.47 5.35,15.95 5.36,16.41C5.37,16.85 5.38,17.27 5.39,17.68C5.4,18.05 5.41,18.41 5.42,18.75C5.43,19.05 5.44,19.35 5.45,19.61C5.46,19.83 5.48,20.04 5.49,20.22C5.5,20.36 5.51,20.5 5.52,20.6C5.53,20.67 5.53,20.75 5.55,20.79C5.56,20.81 5.57,20.83 5.58,20.83C5.59,20.83 5.61,20.77 5.62,20.73C5.63,20.68 5.64,20.61 5.65,20.54C5.66,20.46 5.67,20.37 5.68,20.28C5.69,20.19 5.7,20.1 5.71,20.01C5.72,19.92 5.74,19.84 5.75,19.76C5.76,19.69 5.77,19.63 5.78,19.57C5.79,19.53 5.8,19.48 5.81,19.45C5.82,19.43 5.83,19.4 5.84,19.4C5.85,19.4 5.86,19.41 5.87,19.42C5.88,19.44 5.9,19.47 5.91,19.5C5.92,19.54 5.93,19.6 5.94,19.65C5.95,19.72 5.96,19.79 5.97,19.87C5.98,19.96 5.99,20.05 6,20.14C6.01,20.23 6.03,20.33 6.04,20.42C6.05,20.5 6.06,20.58 6.07,20.66C6.08,20.73 6.09,20.79 6.1,20.85C6.11,20.9 6.12,20.94 6.13,20.98C6.14,21.01 6.15,21.03 6.16,21.05C6.17,21.07 6.19,21.08 6.2,21.09C6.21,21.1 6.22,21.1 6.23,21.1C6.24,21.1 6.25,21.11 6.26,21.11C6.27,21.11 6.28,21.11 6.29,21.11C6.3,21.11 6.32,21.12 6.33,21.12C6.34,21.12 6.35,21.12 6.36,21.12C6.37,21.12 6.38,21.12 6.39,21.12C6.4,21.12 6.41,21.12 6.42,21.12C6.43,21.12 6.44,21.12 6.45,21.12C6.46,21.12 6.48,21.12 6.49,21.12C6.5,21.12 6.51,21.12 6.52,21.12C6.53,21.12 6.54,21.12 6.55,21.12C6.56,21.12 6.57,21.12 6.58,21.12C6.59,21.12 6.61,21.12 6.62,21.12C6.63,21.12 6.64,21.12 6.65,21.12C6.66,21.12 6.67,21.12 6.68,21.12C6.69,21.12 6.7,21.12 6.71,21.12C6.72,21.12 6.74,21.12 6.75,21.12C6.76,21.12 6.77,21.12 6.78,21.12C6.79,21.12 6.8,21.12 6.81,21.12C6.82,21.12 6.83,21.12 6.84,21.12C6.85,21.12 6.86,21.12 6.87,21.12C6.88,21.12 6.9,21.12 6.91,21.12C6.92,21.12 6.93,21.12 6.94,21.12C6.95,21.12 6.96,21.12 6.97,21.12C6.98,21.12 6.99,21.12 7,21.12C7.01,21.12 7.03,21.12 7.04,21.12C7.05,21.12 7.06,21.12 7.07,21.12C7.08,21.12 7.09,21.12 7.1,21.12C7.11,21.12 7.12,21.12 7.13,21.12C7.14,21.12 7.15,21.12 7.16,21.12C7.17,21.12 7.19,21.11 7.2,21.11C7.21,21.11 7.22,21.11 7.23,21.11C7.24,21.11 7.25,21.11 7.26,21.11C7.27,21.11 7.28,21.1 7.29,21.09C7.3,21.08 7.32,21.07 7.33,21.06C7.34,21.04 7.35,21.02 7.36,20.99C7.37,20.96 7.38,20.92 7.39,20.88C7.4,20.83 7.41,20.77 7.42,20.71C7.43,20.64 7.45,20.56 7.46,20.48C7.47,20.4 7.48,20.32 7.49,20.24C7.5,20.17 7.51,20.1 7.52,20.04C7.53,19.99 7.53,19.93 7.55,19.92C7.56,19.92 7.57,19.92 7.58,19.93C7.6,19.95 7.61,20.02 7.62,20.07C7.63,20.13 7.64,20.21 7.65,20.28C7.66,20.36 7.67,20.44 7.68,20.52C7.69,20.59 7.7,20.67 7.71,20.74C7.72,20.8 7.74,20.85 7.75,20.9C7.76,20.94 7.77,20.98 7.78,21.01C7.79,21.03 7.8,21.05 7.81,21.07C7.82,21.08 7.83,21.09 7.84,21.1C7.85,21.11 7.86,21.11 7.87,21.11C7.88,21.11 7.9,21.11 7.91,21.11C7.92,21.11 7.93,21.11 7.94,21.11C7.95,21.11 7.96,21.12 7.97,21.12C7.98,21.12 7.99,21.12 8,21.12C8.01,21.12 8.03,21.12 8.04,21.12C8.05,21.12 8.06,21.12 8.07,21.12C8.08,21.12 8.09,21.12 8.1,21.12C8.11,21.12 8.12,21.12 8.13,21.12C8.14,21.12 8.15,21.12 8.16,21.12C8.17,21.12 8.19,21.12 8.2,21.12C8.21,21.12 8.22,21.12 8.23,21.12C8.24,21.12 8.25,21.12 8.26,21.12C8.27,21.12 8.28,21.12 8.29,21.12C8.3,21.12 8.32,21.12 8.33,21.12C8.34,21.12 8.35,21.12 8.36,21.12C8.37,21.12 8.38,21.12 8.39,21.12C8.4,21.12 8.41,21.12 8.42,21.12C8.43,21.12 8.45,21.12 8.46,21.12C8.47,21.12 8.48,21.12 8.49,21.12C8.5,21.12 8.51,21.12 8.52,21.12C8.53,21.12 8.54,21.12 8.55,21.12C8.56,21.12 8.57,21.12 8.58,21.12C8.59,21.12 8.61,21.12 8.62,21.12C8.63,21.12 8.64,21.12 8.65,21.12C8.66,21.12 8.67,21.12 8.68,21.12C8.69,21.12 8.7,21.12 8.71,21.12C8.72,21.12 8.74,21.12 8.75,21.12C8.76,21.12 8.77,21.12 8.78,21.12C8.79,21.12 8.8,21.12 8.81,21.12C8.82,21.12 8.83,21.12 8.84,21.12C8.85,21.12 8.86,21.12 8.87,21.12C8.88,21.12 8.9,21.12 8.91,21.12C8.92,21.12 8.93,21.12 8.94,21.12C8.95,21.12 8.96,21.12 8.97,21.12C8.98,21.12 8.99,21.12 9,21.12C9.01,21.12 9.03,21.12 9.04,21.12C9.05,21.12 9.06,21.12 9.07,21.12C9.08,21.12 9.09,21.12 9.1,21.12C9.11,21.12 9.12,21.12 9.13,21.12C9.14,21.12 9.15,21.12 9.16,21.12C9.17,21.12 9.19,21.12 9.2,21.12C9.21,21.12 9.22,21.12 9.23,21.12C9.24,21.12 9.25,21.12 9.26,21.12C9.27,21.12 9.28,21.12 9.29,21.12C9.3,21.12 9.32,21.12 9.33,21.12C9.34,21.12 9.35,21.12 9.36,21.12C9.37,21.12 9.38,21.12 9.39,21.12C9.4,21.12 9.41,21.12 9.42,21.12C9.43,21.12 9.45,21.12 9.46,21.12C9.47,21.12 9.48,21.12 9.49,21.12C9.5,21.12 9.51,21.12 9.52,21.12C9.53,21.12 9.54,21.12 9.55,21.12C9.56,21.12 9.57,21.12 9.58,21.12C9.59,21.12 9.61,21.12 9.62,21.12C9.63,21.12 9.64,21.12 9.65,21.12C9.66,21.12 9.67,21.12 9.68,21.12C9.69,21.12 9.7,21.12 9.71,21.12C9.72,21.12 9.74,21.12 9.75,21.12C9.76,21.12 9.77,21.12 9.78,21.12C9.79,21.12 9.8,21.12 9.81,21.12C9.82,21.12 9.83,21.12 9.84,21.12C9.85,21.12 9.86,21.12 9.87,21.12C9.88,21.12 9.9,21.12 9.91,21.12C9.92,21.12 9.93,21.12 9.94,21.12C9.95,21.12 9.96,21.12 9.97,21.12C9.98,21.12 9.99,21.12 10,21.12C10.01,21.12 10.03,21.12 10.04,21.12C10.05,21.12 10.06,21.12 10.07,21.12C10.08,21.12 10.09,21.12 10.1,21.12C10.11,21.12 10.12,21.12 10.13,21.12C10.14,21.12 10.16,21.12 10.17,21.12C10.18,21.12 10.19,21.11 10.2,21.11C10.21,21.11 10.22,21.11 10.23,21.11C10.24,21.11 10.25,21.11 10.26,21.11C10.27,21.11 10.28,21.1 10.29,21.1C10.3,21.09 10.32,21.09 10.33,21.08C10.34,21.07 10.35,21.05 10.36,21.03C10.37,21.01 10.38,20.98 10.39,20.95C10.4,20.91 10.41,20.86 10.42,20.81C10.43,20.75 10.45,20.69 10.46,20.62C10.47,20.54 10.48,20.46 10.49,20.38C10.5,20.3 10.51,20.22 10.52,20.15C10.53,20.09 10.54,20.02 10.55,19.98C10.56,19.95 10.57,19.91 10.58,19.91C10.59,19.91 10.61,19.95 10.62,19.98C10.64,20.02 10.64,20.09 10.65,20.15C10.66,20.22 10.67,20.31 10.68,20.39C10.69,20.47 10.7,20.55 10.71,20.62C10.72,20.69 10.74,20.76 10.75,20.82Q10.76,20.87 10.78,20.95L10.78,21.28Q10.76,21.37 10.75,21.42C10.74,21.48 10.72,21.54 10.71,21.61C10.7,21.68 10.69,21.76 10.68,21.84C10.67,21.92 10.66,22.01 10.65,22.08C10.64,22.14 10.64,22.21 10.62,22.25C10.61,22.28 10.59,22.32 10.58,22.32C10.57,22.32 10.56,22.29 10.55,22.26C10.54,22.22 10.53,22.14 10.52,22.08C10.51,22.01 10.5,21.93 10.49,21.85C10.48,21.77 10.47,21.69 10.46,21.61C10.45,21.54 10.43,21.48 10.42,21.42C10.41,21.37 10.4,21.32 10.39,21.28C10.38,21.25 10.37,21.22 10.36,21.2C10.35,21.18 10.34,21.16 10.33,21.15C10.32,21.14 10.3,21.14 10.29,21.13C10.28,21.13 10.27,21.12 10.26,21.12C10.25,21.12 10.24,21.12 10.23,21.12C10.22,21.12 10.21,21.12 10.2,21.12C10.19,21.12 10.18,21.12 10.17,21.12C10.16,21.12 10.14,21.12 10.13,21.12C10.12,21.12 10.11,21.12 10.1,21.12C10.09,21.12 10.08,21.12 10.07,21.12C10.06,21.12 10.05,21.12 10.04,21.12C10.03,21.12 10.01,21.12 10,21.12C9.99,21.12 9.98,21.12 9.97,21.12C9.96,21.12 9.95,21.12 9.94,21.12C9.93,21.12 9.92,21.12 9.91,21.12C9.9,21.12 9.88,21.12 9.87,21.12C9.86,21.12 9.85,21.12 9.84,21.12C9.83,21.12 9.82,21.12 9.81,21.12C9.8,21.12 9.79,21.12 9.78,21.12C9.77,21.12 9.76,21.12 9.75,21.12C9.74,21.12 9.72,21.12 9.71,21.12C9.7,21.12 9.69,21.12 9.68,21.12C9.67,21.12 9.66,21.12 9.65,21.12C9.64,21.12 9.63,21.12 9.62,21.12C9.61,21.12 9.59,21.12 9.58,21.12C9.57,21.12 9.56,21.12 9.55,21.12C9.54,21.12 9.53,21.12 9.52,21.12C9.51,21.12 9.5,21.12 9.49,21.12C9.48,21.12 9.47,21.12 9.46,21.12C9.45,21.12 9.43,21.12 9.42,21.12C9.41,21.12 9.4,21.12 9.39,21.12C9.38,21.12 9.37,21.12 9.36,21.12C9.35,21.12 9.34,21.12 9.33,21.12C9.32,21.12 9.3,21.12 9.29,21.12C9.28,21.12 9.27,21.12 9.26,21.12C9.25,21.12 9.24,21.12 9.23,21.12C9.22,21.12 9.21,21.12 9.2,21.12C9.19,21.12 9.17,21.12 9.16,21.12C9.15,21.12 9.14,21.12 9.13,21.12C9.12,21.12 9.11,21.12 9.1,21.12C9.09,21.12 9.08,21.12 9.07,21.12C9.06,21.12 9.05,21.12 9.04,21.12C9.03,21.12 9.01,21.12 9,21.12C8.99,21.12 8.98,21.12 8.97,21.12C8.96,21.12 8.95,21.12 8.94,21.12C8.93,21.12 8.92,21.12 8.91,21.12C8.9,21.12 8.88,21.12 8.87,21.12C8.86,21.12 8.85,21.12 8.84,21.12C8.83,21.12 8.82,21.12 8.81,21.12C8.8,21.12 8.79,21.12 8.78,21.12C8.77,21.12 8.76,21.12 8.75,21.12C8.74,21.12 8.72,21.12 8.71,21.12C8.7,21.12 8.69,21.12 8.68,21.12C8.67,21.12 8.66,21.12 8.65,21.12C8.64,21.12 8.63,21.12 8.62,21.12C8.61,21.12 8.59,21.12 8.58,21.12C8.57,21.12 8.56,21.12 8.55,21.12C8.54,21.12 8.53,21.12 8.52,21.12C8.51,21.12 8.5,21.12 8.49,21.12C8.48,21.12 8.47,21.12 8.46,21.12C8.45,21.12 8.43,21.12 8.42,21.12C8.41,21.12 8.4,21.12 8.39,21.12C8.38,21.12 8.37,21.12 8.36,21.12C8.35,21.12 8.34,21.12 8.33,21.12C8.32,21.12 8.3,21.12 8.29,21.12C8.28,21.12 8.27,21.12 8.26,21.12C8.25,21.12 8.24,21.12 8.23,21.12C8.22,21.12 8.21,21.12 8.2,21.12C8.19,21.12 8.17,21.12 8.16,21.12C8.15,21.12 8.14,21.12 8.13,21.12C8.12,21.12 8.11,21.12 8.1,21.12C8.09,21.12 8.08,21.12 8.07,21.12C8.06,21.12 8.05,21.12 8.04,21.12C8.03,21.12 8.01,21.12 8,21.12C7.99,21.12 7.98,21.12 7.97,21.12C7.96,21.12 7.95,21.12 7.94,21.12C7.93,21.12 7.92,21.12 7.91,21.12C7.9,21.12 7.88,21.12 7.87,21.12C7.86,21.12 7.85,21.13 7.84,21.14C7.83,21.15 7.82,21.16 7.81,21.17C7.8,21.18 7.79,21.2 7.78,21.22C7.77,21.25 7.76,21.29 7.75,21.33C7.74,21.38 7.72,21.43 7.71,21.49C7.7,21.56 7.69,21.64 7.68,21.71C7.67,21.79 7.66,21.87 7.65,21.95C7.64,22.02 7.63,22.1 7.62,22.16C7.61,22.21 7.6,22.28 7.58,22.3C7.57,22.31 7.56,22.31 7.55,22.31C7.53,22.3 7.53,22.24 7.52,22.19C7.51,22.13 7.5,22.06 7.49,21.99C7.48,21.91 7.47,21.83 7.46,21.75C7.45,21.67 7.43,21.59 7.42,21.52C7.41,21.46 7.4,21.4 7.39,21.35C7.38,21.31 7.37,21.27 7.36,21.24C7.35,21.21 7.34,21.19 7.33,21.17C7.32,21.16 7.3,21.15 7.29,21.14C7.28,21.13 7.27,21.12 7.26,21.12C7.25,21.12 7.24,21.12 7.23,21.12C7.22,21.12 7.21,21.12 7.2,21.12C7.19,21.12 7.17,21.12 7.16,21.12C7.15,21.12 7.14,21.12 7.13,21.12C7.12,21.12 7.11,21.12 7.1,21.12C7.09,21.12 7.08,21.12 7.07,21.12C7.06,21.12 7.05,21.12 7.04,21.12C7.03,21.12 7.01,21.12 7,21.12C6.99,21.12 6.98,21.12 6.97,21.12C6.96,21.12 6.95,21.12 6.94,21.12C6.93,21.12 6.92,21.12 6.91,21.12C6.9,21.12 6.88,21.12 6.87,21.12C6.86,21.12 6.85,21.12 6.84,21.12C6.83,21.12 6.82,21.12 6.81,21.12C6.8,21.12 6.79,21.12 6.78,21.12C6.77,21.12 6.76,21.12 6.75,21.12C6.74,21.12 6.72,21.12 6.71,21.12C6.7,21.12 6.69,21.12 6.68,21.12C6.67,21.12 6.66,21.12 6.65,21.12C6.64,21.12 6.63,21.12 6.62,21.12C6.61,21.12 6.59,21.12 6.58,21.12C6.57,21.12 6.56,21.12 6.55,21.12C6.54,21.12 6.53,21.12 6.52,21.12C6.51,21.12 6.5,21.12 6.49,21.12C6.48,21.12 6.46,21.12 6.45,21.12C6.44,21.12 6.43,21.12 6.42,21.12C6.41,21.12 6.4,21.12 6.39,21.12C6.38,21.12 6.37,21.12 6.36,21.12C6.35,21.12 6.34,21.12 6.33,21.12C6.32,21.12 6.3,21.12 6.29,21.12C6.28,21.12 6.27,21.12 6.26,21.12C6.25,21.12 6.24,21.13 6.23,21.13C6.22,21.13 6.21,21.13 6.2,21.14C6.19,21.15 6.17,21.16 6.16,21.18C6.15,21.2 6.14,21.22 6.13,21.25C6.12,21.29 6.11,21.33 6.1,21.38C6.09,21.44 6.08,21.5 6.07,21.57C6.06,21.65 6.05,21.73 6.04,21.81C6.03,21.9 6.01,22 6,22.09C5.99,22.18 5.98,22.27 5.97,22.36C5.96,22.44 5.95,22.51 5.94,22.58C5.93,22.63 5.92,22.69 5.91,22.73C5.9,22.76 5.88,22.79 5.87,22.81C5.86,22.82 5.85,22.83 5.84,22.83C5.83,22.83 5.82,22.8 5.81,22.78C5.8,22.75 5.79,22.7 5.78,22.66C5.77,22.6 5.76,22.54 5.75,22.47C5.74,22.39 5.72,22.31 5.71,22.22C5.7,22.13 5.69,22.04 5.68,21.95C5.67,21.86 5.66,21.77 5.65,21.69C5.64,21.62 5.64,21.55 5.62,21.5C5.61,21.46 5.59,21.41 5.58,21.41C5.57,21.41 5.56,21.42 5.55,21.44C5.53,21.47 5.53,21.56 5.52,21.63C5.51,21.73 5.5,21.87 5.49,22.01C5.48,22.19 5.46,22.4 5.45,22.62C5.44,22.88 5.43,23.18 5.42,23.48C5.41,23.82 5.4,24.18 5.39,24.55C5.38,24.96 5.37,25.38 5.36,25.82C5.35,26.28 5.34,26.76 5.33,27.25C5.32,27.77 5.3,28.3 5.29,28.85C5.28,29.42 5.27,30.02 5.26,30.61C5.25,31.22 5.24,31.85 5.23,32.46C5.22,33.05 5.21,33.67 5.2,34.2C5.19,34.66 5.18,35.16 5.16,35.47C5.15,35.65 5.14,35.9 5.13,35.9C5.12,35.9 5.11,35.51 5.1,35.24C5.09,34.8 5.08,34.15 5.07,33.53C5.06,32.79 5.05,31.92 5.04,31.09C5.03,30.22 5.01,29.28 5,28.4C4.99,27.56 4.98,26.71 4.97,25.94C4.96,25.26 4.95,24.59 4.94,24.01C4.93,23.53 4.92,23.07 4.91,22.68Q4.9,22.38 4.87,21.88Z" style="vector-effect: none; stroke-width: 2px; stroke: rgb(181, 181, 181); stroke-opacity: 1; fill: rgb(181, 181, 181); fill-opacity: 1;"/><path class="box" d="M5.16,24.81V17.42M5.11,24.81V17.42H5.34V24.81ZM5.11,21.12H5.07M5.34,21.12H5.34" style="vector-effect: non-scaling-stroke; stroke-width: 2px; stroke: rgb(181, 181, 181); stroke-opacity: 1; fill: rgb(181, 181, 181); fill-opacity: 1;"/><path class="mean" d="M5.62,24.81V17.42" style="fill: none; vector-effect: non-scaling-stroke; stroke-width: 2px; stroke-dasharray: 4px, 2px; stroke: rgb(181, 181, 181); stroke-opacity: 1;"/></g></g><g class="scatterlayer mlayer"><g class="trace scatter trace5513db" style="stroke-miterlimit: 2; opacity: 1;"><g class="fills"/><g class="errorbars"/><g class="lines"/><g class="points"><path class="point" transform="translate(10.58,21.12)" d="M2,0A2,2 0 1,1 0,-2A2,2 0 0,1 2,0Z" style="opacity: 1; stroke-width: 0px; fill: rgb(11, 121, 230); fill-opacity: 1;"/></g><g class="text"/></g><g class="trace scatter traced35982" style="stroke-miterlimit: 2; opacity: 1;"><g class="fills"/><g class="errorbars"/><g class="lines"/><g class="points"><path class="point" transform="translate(7.57,21.12)" d="M2,0A2,2 0 1,1 0,-2A2,2 0 0,1 2,0Z" style="opacity: 1; stroke-width: 0px; fill: rgb(11, 121, 230); fill-opacity: 1;"/></g><g class="text"/></g><g class="trace scatter trace4fb9e8" style="stroke-miterlimit: 2; opacity: 1;"><g class="fills"/><g class="errorbars"/><g class="lines"/><g class="points"><path class="point" transform="translate(5.93,21.12)" d="M2,0A2,2 0 1,1 0,-2A2,2 0 0,1 2,0Z" style="opacity: 1; stroke-width: 0px; fill: rgb(11, 121, 230); fill-opacity: 1;"/></g><g class="text"/></g><g class="trace scatter trace4d900a" style="stroke-miterlimit: 2; opacity: 1;"><g class="fills"/><g class="errorbars"/><g class="lines"/><g class="points"><path class="point" transform="translate(5.77,21.12)" d="M2,0A2,2 0 1,1 0,-2A2,2 0 0,1 2,0Z" style="opacity: 1; stroke-width: 0px; fill: rgb(11, 121, 230); fill-opacity: 1;"/></g><g class="text"/></g><g class="trace scatter tracec61fcc" style="stroke-miterlimit: 2; opacity: 1;"><g class="fills"/><g class="errorbars"/><g class="lines"/><g class="points"><path class="point" transform="translate(5.24,21.12)" d="M2,0A2,2 0 1,1 0,-2A2,2 0 0,1 2,0Z" style="opacity: 1; stroke-width: 0px; fill: rgb(11, 121, 230); fill-opacity: 1;"/></g><g class="text"/></g><g class="trace scatter trace200cb4" style="stroke-miterlimit: 2; opacity: 1;"><g class="fills"/><g class="errorbars"/><g class="lines"/><g class="points"><path class="point" transform="translate(5.11,21.12)" d="M2,0A2,2 0 1,1 0,-2A2,2 0 0,1 2,0Z" style="opacity: 1; stroke-width: 0px; fill: rgb(11, 121, 230); fill-opacity: 1;"/></g><g class="text"/></g><g class="trace scatter trace274cdf" style="stroke-miterlimit: 2; opacity: 1;"><g class="fills"/><g class="errorbars"/><g class="lines"/><g class="points"><path class="point" transform="translate(5.33,21.12)" d="M2,0A2,2 0 1,1 0,-2A2,2 0 0,1 2,0Z" style="opacity: 1; stroke-width: 0px; fill: rgb(11, 121, 230); fill-opacity: 1;"/></g><g class="text"/></g><g class="trace scatter tracef9b6e5" style="stroke-miterlimit: 2; opacity: 1;"><g class="fills"/><g class="errorbars"/><g class="lines"/><g class="points"><path class="point" transform="translate(5.09,21.12)" d="M2,0A2,2 0 1,1 0,-2A2,2 0 0,1 2,0Z" style="opacity: 1; stroke-width: 0px; fill: rgb(11, 121, 230); fill-opacity: 1;"/></g><g class="text"/></g><g class="trace scatter trace575ecc" style="stroke-miterlimit: 2; opacity: 1;"><g class="fills"/><g class="errorbars"/><g class="lines"/><g class="points"><path class="point" transform="translate(5.19,21.12)" d="M2,0A2,2 0 1,1 0,-2A2,2 0 0,1 2,0Z" style="opacity: 1; stroke-width: 0px; fill: rgb(11, 121, 230); fill-opacity: 1;"/></g><g class="text"/></g><g class="trace scatter tracebf9d23" style="stroke-miterlimit: 2; opacity: 1;"><g class="fills"/><g class="errorbars"/><g class="lines"/><g class="points"><path class="point" transform="translate(5.19,21.12)" d="M2,0A2,2 0 1,1 0,-2A2,2 0 0,1 2,0Z" style="opacity: 1; stroke-width: 0px; fill: rgb(11, 121, 230); fill-opacity: 1;"/></g><g class="text"/></g><g class="trace scatter trace7d0a4f" style="stroke-miterlimit: 2; opacity: 1;"><g class="fills"/><g class="errorbars"/><g class="lines"/><g class="points"><path class="point" transform="translate(5.1,21.12)" d="M2,0A2,2 0 1,1 0,-2A2,2 0 0,1 2,0Z" style="opacity: 1; stroke-width: 0px; fill: rgb(11, 121, 230); fill-opacity: 1;"/></g><g class="text"/></g><g class="trace scatter trace05151c" style="stroke-miterlimit: 2; opacity: 1;"><g class="fills"/><g class="errorbars"/><g class="lines"/><g class="points"><path class="point" transform="translate(5.12,21.12)" d="M2,0A2,2 0 1,1 0,-2A2,2 0 0,1 2,0Z" style="opacity: 1; stroke-width: 0px; fill: rgb(11, 121, 230); fill-opacity: 1;"/></g><g class="text"/></g><g class="trace scatter tracefdea98" style="stroke-miterlimit: 2; opacity: 1;"><g class="fills"/><g class="errorbars"/><g class="lines"/><g class="points"><path class="point" transform="translate(5.11,21.12)" d="M2,0A2,2 0 1,1 0,-2A2,2 0 0,1 2,0Z" style="opacity: 1; stroke-width: 0px; fill: rgb(11, 121, 230); fill-opacity: 1;"/></g><g class="text"/></g><g class="trace scatter tracee0636b" style="stroke-miterlimit: 2; opacity: 1;"><g class="fills"/><g class="errorbars"/><g class="lines"/><g class="points"><path class="point" transform="translate(5.27,21.12)" d="M2,0A2,2 0 1,1 0,-2A2,2 0 0,1 2,0Z" style="opacity: 1; stroke-width: 0px; fill: rgb(11, 121, 230); fill-opacity: 1;"/></g><g class="text"/></g><g class="trace scatter trace361005" style="stroke-miterlimit: 2; opacity: 1;"><g class="fills"/><g class="errorbars"/><g class="lines"/><g class="points"><path class="point" transform="translate(5.34,21.12)" d="M2,0A2,2 0 1,1 0,-2A2,2 0 0,1 2,0Z" style="opacity: 1; stroke-width: 0px; fill: rgb(11, 121, 230); fill-opacity: 1;"/></g><g class="text"/></g><g class="trace scatter tracee1e31a" style="stroke-miterlimit: 2; opacity: 1;"><g class="fills"/><g class="errorbars"/><g class="lines"/><g class="points"><path class="point" transform="translate(5.08,21.12)" d="M2,0A2,2 0 1,1 0,-2A2,2 0 0,1 2,0Z" style="opacity: 1; stroke-width: 0px; fill: rgb(11, 121, 230); fill-opacity: 1;"/></g><g class="text"/></g><g class="trace scatter trace6dfe1a" style="stroke-miterlimit: 2; opacity: 1;"><g class="fills"/><g class="errorbars"/><g class="lines"/><g class="points"><path class="point" transform="translate(5.13,21.12)" d="M2,0A2,2 0 1,1 0,-2A2,2 0 0,1 2,0Z" style="opacity: 1; stroke-width: 0px; fill: rgb(11, 121, 230); fill-opacity: 1;"/></g><g class="text"/></g><g class="trace scatter trace8c5a06" style="stroke-miterlimit: 2; opacity: 1;"><g class="fills"/><g class="errorbars"/><g class="lines"/><g class="points"><path class="point" transform="translate(5.07,21.12)" d="M2,0A2,2 0 1,1 0,-2A2,2 0 0,1 2,0Z" style="opacity: 1; stroke-width: 0px; fill: rgb(11, 121, 230); fill-opacity: 1;"/></g><g class="text"/></g><g class="trace scatter traceb33aeb" style="stroke-miterlimit: 2; opacity: 1;"><g class="fills"/><g class="errorbars"/><g class="lines"/><g class="points"><path class="point" transform="translate(5.13,21.12)" d="M2,0A2,2 0 1,1 0,-2A2,2 0 0,1 2,0Z" style="opacity: 1; stroke-width: 0px; fill: rgb(11, 121, 230); fill-opacity: 1;"/></g><g class="text"/></g><g class="trace scatter tracee0c95a" style="stroke-miterlimit: 2; opacity: 1;"><g class="fills"/><g class="errorbars"/><g class="lines"/><g class="points"><path class="point" transform="translate(5.14,21.12)" d="M2,0A2,2 0 1,1 0,-2A2,2 0 0,1 2,0Z" style="opacity: 1; stroke-width: 0px; fill: rgb(11, 121, 230); fill-opacity: 1;"/></g><g class="text"/></g></g></g></g><path class="xlines-above crisp" d="M0,0" style="fill: none;"/><path class="ylines-above crisp" d="M0,0" style="fill: none;"/><g class="overlines-above"/><g class="xaxislayer-above"><g class="x3tick"><text text-anchor="middle" x="0" y="243" transform="translate(84.98,0)" style="font-family: 'Lucida Grande', 'Open Sans', verdana, arial, sans-serif; font-size: 9px; fill: rgb(0, 0, 0); fill-opacity: 0.5; white-space: pre; opacity: 1;">0%</text></g><g class="x3tick"><text text-anchor="middle" x="0" y="243" style="font-family: 'Lucida Grande', 'Open Sans', verdana, arial, sans-serif; font-size: 9px; fill: rgb(0, 0, 0); fill-opacity: 0.5; white-space: pre; opacity: 1;" transform="translate(283.98,0)">20%</text></g><g class="x3tick"><text text-anchor="middle" x="0" y="243" style="font-family: 'Lucida Grande', 'Open Sans', verdana, arial, sans-serif; font-size: 9px; fill: rgb(0, 0, 0); fill-opacity: 0.5; white-space: pre; opacity: 1;" transform="translate(482.99,0)">40%</text></g><g class="x3tick"><text text-anchor="middle" x="0" y="243" style="font-family: 'Lucida Grande', 'Open Sans', verdana, arial, sans-serif; font-size: 9px; fill: rgb(0, 0, 0); fill-opacity: 0.5; white-space: pre; opacity: 1;" transform="translate(681.99,0)">60%</text></g><g class="x3tick"><text text-anchor="middle" x="0" y="243" style="font-family: 'Lucida Grande', 'Open Sans', verdana, arial, sans-serif; font-size: 9px; fill: rgb(0, 0, 0); fill-opacity: 0.5; white-space: pre; opacity: 1;" transform="translate(881,0)">80%</text></g><g class="x3tick"><text text-anchor="middle" x="0" y="243" style="font-family: 'Lucida Grande', 'Open Sans', verdana, arial, sans-serif; font-size: 9px; fill: rgb(0, 0, 0); fill-opacity: 0.5; white-space: pre; opacity: 1;" transform="translate(1080,0)">100%</text></g></g><g class="yaxislayer-above"><g class="y3tick"><text text-anchor="end" x="79" y="3.15" transform="translate(0,211.88923076923078)" style="font-family: 'Lucida Grande', 'Open Sans', verdana, arial, sans-serif; font-size: 9px; fill: rgb(0, 0, 0); fill-opacity: 0.5; white-space: pre; opacity: 1;">% of all reads  </text></g></g><g class="overaxes-above"/></g></g><g class="polarlayer"/><g class="smithlayer"/><g class="ternarylayer"/><g class="geolayer"/><g class="funnelarealayer"/><g class="pielayer"/><g class="iciclelayer"/><g class="treemaplayer"/><g class="sunburstlayer"/><g class="glimages"/><defs id="topdefs-769fe3"><g class="clips"/></defs><g class="layer-above"><g class="imagelayer"/><g class="shapelayer"/></g><g class="infolayer"><g class="g-gtitle"><text class="gtitle" x="550" y="25" text-anchor="middle" dy="0em" style="opacity: 1; font-family: 'Lucida Grande', 'Open Sans', verdana, arial, sans-serif; font-size: 20px; fill: rgb(42, 63, 95); fill-opacity: 1; white-space: pre;"><tspan class="line" dy="0em" x="550" y="25">FastQC: Top overrepresented sequences</tspan><tspan class="line" dy="1.3em" x="550" y="25"><tspan style="font-size:70%" dy="-0.6em">20 samples</tspan><tspan dy="0.42em"></tspan></tspan></text></g><g class="g-xtitle"/><g class="g-x2title"/><g class="g-x3title"/><g class="g-ytitle"/><g class="g-y2title"/><g class="g-y3title"/></g></svg>