<svg class="main-svg" xmlns="http://www.w3.org/2000/svg" xmlns:xlink="http://www.w3.org/1999/xlink" width="2200" height="1000" style="" viewBox="0 0 1100 500"><rect x="0" y="0" width="1100" height="500" style="fill: rgb(255, 255, 255); fill-opacity: 1;"/><defs id="defs-1416fa"><g class="clips"><clipPath id="clip1416faxyplot" class="plotclip"><rect width="1014" height="385"/></clipPath><clipPath class="axesclip" id="clip1416fax"><rect x="60" y="0" width="1014" height="500"/></clipPath><clipPath class="axesclip" id="clip1416fay"><rect x="0" y="50" width="1100" height="385"/></clipPath><clipPath class="axesclip" id="clip1416faxy"><rect x="60" y="50" width="1014" height="385"/></clipPath></g><g class="gradients"/><g class="patterns"/></defs><g class="bglayer"/><g class="layer-below"><g class="imagelayer"/><g class="shapelayer"/></g><g class="cartesianlayer"><g class="subplot xy"><g class="layer-subplot"><g class="shapelayer"/><g class="imagelayer"/></g><g class="minor-gridlayer"><g class="x"/><g class="y"/></g><g class="gridlayer"><g class="x"><path class="xgrid crisp" transform="translate(262.8,0)" d="M0,50v385" style="stroke: rgb(0, 0, 0); stroke-opacity: 0.05; stroke-width: 1px;"/><path class="xgrid crisp" transform="translate(465.6,0)" d="M0,50v385" style="stroke: rgb(0, 0, 0); stroke-opacity: 0.05; stroke-width: 1px;"/><path class="xgrid crisp" transform="translate(668.4,0)" d="M0,50v385" style="stroke: rgb(0, 0, 0); stroke-opacity: 0.05; stroke-width: 1px;"/><path class="xgrid crisp" transform="translate(871.2,0)" d="M0,50v385" style="stroke: rgb(0, 0, 0); stroke-opacity: 0.05; stroke-width: 1px;"/></g><g class="y"><path class="ygrid crisp" transform="translate(0,382.93)" d="M60,0h1014" style="stroke: rgb(0, 0, 0); stroke-opacity: 0.05; stroke-width: 1px;"/><path class="ygrid crisp" transform="translate(0,330.86)" d="M60,0h1014" style="stroke: rgb(0, 0, 0); stroke-opacity: 0.05; stroke-width: 1px;"/><path class="ygrid crisp" transform="translate(0,278.78999999999996)" d="M60,0h1014" style="stroke: rgb(0, 0, 0); stroke-opacity: 0.05; stroke-width: 1px;"/><path class="ygrid crisp" transform="translate(0,226.72)" d="M60,0h1014" style="stroke: rgb(0, 0, 0); stroke-opacity: 0.05; stroke-width: 1px;"/><path class="ygrid crisp" transform="translate(0,174.65)" d="M60,0h1014" style="stroke: rgb(0, 0, 0); stroke-opacity: 0.05; stroke-width: 1px;"/><path class="ygrid crisp" transform="translate(0,122.58)" d="M60,0h1014" style="stroke: rgb(0, 0, 0); stroke-opacity: 0.05; stroke-width: 1px;"/><path class="ygrid crisp" transform="translate(0,70.51)" d="M60,0h1014" style="stroke: rgb(0, 0, 0); stroke-opacity: 0.05; stroke-width: 1px;"/></g></g><g class="zerolinelayer"><path class="xzl zl crisp" transform="translate(60,0)" d="M0,50v385" style="stroke: rgb(0, 0, 0); stroke-opacity: 0.05; stroke-width: 2px;"/><path class="yzl zl crisp" transform="translate(0,435)" d="M60,0h1014" style="stroke: rgb(0, 0, 0); stroke-opacity: 0.05; stroke-width: 2px;"/></g><g class="layer-between"><g class="shapelayer"/><g class="imagelayer"/></g><path class="xlines-below"/><path class="ylines-below"/><g class="overlines-below"/><g class="xaxislayer-below"/><g class="yaxislayer-below"/><g class="overaxes-below"/><g class="overplot"><g class="xy" transform="translate(60,50)" clip-path="url(#clip1416faxyplot)"><g class="scatterlayer mlayer"><g class="trace scatter tracef63430" style="stroke-miterlimit: 2; opacity: 1;"><g class="fills"/><g class="errorbars"/><g class="lines"><path class="js-line" d="M0,380.72L10.14,379.59L20.28,377.37L30.42,375.4L40.56,372.18L50.7,361.7L60.84,337.14L70.98,305.52L81.12,290.19L91.26,302.6L101.4,327.75L111.54,346.35L121.68,353.95L131.82,355.2L141.96,353.37L152.1,350.08L162.24,345.83L172.38,340.62L182.52,334.55L202.8,320.92L212.94,313.43L243.36,289.94L253.5,281.9L273.78,266.2L283.92,258.92L304.2,245.56L314.34,239.93L334.62,230.84L344.76,227.6L365.04,223.55L375.18,223.14L385.32,223.86L395.46,226.1L405.6,230.37L415.74,236.47L425.88,244.19L436.02,253.11L456.3,272.09L466.44,280.41L476.58,287.76L486.72,293.23L517.14,307.52L527.28,313.02L577.98,345.35L588.12,351.15L598.26,356.54L608.4,360.9L628.68,366.81L638.82,368.98L659.1,372.99L669.24,375.5L689.52,382.15L699.66,383.23L740.22,383.21L750.36,383.13L780.78,383.94L790.92,384.38L831.48,384.98L841.62,384.99L1014,384.99" style="vector-effect: none; fill: none; stroke: rgb(240, 173, 78); stroke-opacity: 1; stroke-width: 2px; opacity: 1;"/></g><g class="points"/><g class="text"/></g><g class="trace scatter tracecbe39c" style="stroke-miterlimit: 2; opacity: 1;"><g class="fills"/><g class="errorbars"/><g class="lines"><path class="js-line" d="M0,336.62L20.28,362.89L30.42,358.8L40.56,350.98L50.7,345.39L60.84,343.19L70.98,345.26L91.26,354.84L101.4,358.23L111.54,360.13L121.68,361.12L141.96,362.59L152.1,362.94L182.52,365.15L192.66,364.92L212.94,363.05L223.08,361.26L243.36,355.2L253.5,350.91L273.78,337.08L283.92,330.6L304.2,318.54L314.34,307.11L334.62,277.02L344.76,263.97L354.9,254.19L365.04,249.92L375.18,250.09L385.32,248.23L395.46,245.48L405.6,246.05L415.74,250.65L425.88,256.92L436.02,263.11L446.16,267.66L456.3,271.11L466.44,273.23L476.58,276.44L486.72,280.45L507,285.24L517.14,289.01L527.28,291.9L537.42,293.94L547.56,295.32L557.7,295.4L567.84,295.08L577.98,296.25L588.12,299.47L598.26,300.96L608.4,305.59L618.54,313.96L628.68,317.01L638.82,311.39L648.96,315.21L659.1,330.15L669.24,334.44L679.38,328.98L689.52,326.18L699.66,328.47L709.8,331.04L719.94,331.62L730.08,338.34L740.22,343.24L750.36,336.25L760.5,327.65L770.64,340.6L780.78,364.17L790.92,374.97L801.06,380.53L821.34,382.91L831.48,383.29L861.9,383.77L872.04,383.98L892.32,384.64L902.46,384.69L1003.86,384.54L1014,382.82" style="vector-effect: none; fill: none; stroke: rgb(217, 83, 79); stroke-opacity: 1; stroke-width: 2px; opacity: 1;"/></g><g class="points"/><g class="text"/></g><g class="trace scatter trace7c2d82" style="stroke-miterlimit: 2; opacity: 1;"><g class="fills"/><g class="errorbars"/><g class="lines"><path class="js-line" d="M0,381.01L10.14,379.92L20.28,377.75L30.42,375.78L40.56,372.75L50.7,362.57L60.84,338.64L70.98,307.96L81.12,292.37L91.26,303.23L101.4,327.08L111.54,345.41L121.68,353.12L131.82,354.25L141.96,352.43L152.1,348.96L162.24,344.47L182.52,333.05L192.66,326.43L223.08,303.86L233.22,296.15L273.78,264.21L283.92,257.04L304.2,244.3L314.34,238.77L324.48,233.98L334.62,230.02L344.76,226.96L354.9,224.79L365.04,223.53L375.18,223.53L385.32,224.85L395.46,227.97L405.6,232.71L415.74,238.8L425.88,246.38L436.02,255.06L456.3,273.25L466.44,281.08L476.58,288.03L486.72,293.73L527.28,314.13L537.42,320.11L577.98,346.2L588.12,351.92L608.4,361.31L618.54,364.6L638.82,369.17L648.96,370.96L669.24,375.64L679.38,379.13L689.52,382.07L699.66,383.2L730.08,383.32L740.22,383.26L770.64,383.61L780.78,384.02L821.34,384.95L831.48,384.98L1014,384.95" style="vector-effect: none; fill: none; stroke: rgb(92, 184, 92); stroke-opacity: 1; stroke-width: 2px; opacity: 1;"/></g><g class="points"/><g class="text"/></g><g class="trace scatter trace16029c" style="stroke-miterlimit: 2; opacity: 1;"><g class="fills"/><g class="errorbars"/><g class="lines"><path class="js-line" d="M0,338.58L20.28,362.76L30.42,359.43L40.56,352.26L50.7,346.79L60.84,344.49L70.98,346.26L91.26,355.34L101.4,358.69L111.54,360.51L121.68,361.54L141.96,363.15L152.1,363.39L182.52,365.41L192.66,365.32L212.94,362.92L223.08,361.12L233.22,358.51L243.36,355.1L253.5,350.74L263.64,343.5L283.92,329.77L294.06,323.88L304.2,317.83L314.34,306.02L334.62,275.65L344.76,262.71L354.9,252.93L365.04,248.64L375.18,248.62L385.32,247.27L395.46,244.73L405.6,245.64L415.74,250.49L425.88,256.93L436.02,262.94L446.16,267.66L456.3,270.91L466.44,272.75L486.72,280.32L496.86,282.1L507,284.53L517.14,288.55L527.28,291.61L537.42,293.88L547.56,295.23L557.7,295.13L567.84,294.76L577.98,296.14L588.12,299.82L598.26,301.57L608.4,306.02L618.54,314.05L628.68,316.71L638.82,311.31L648.96,315.75L659.1,330.21L669.24,333.99L679.38,328.84L689.52,326.5L699.66,328.77L709.8,331.38L719.94,332.24L730.08,338.48L740.22,343L750.36,336.56L760.5,329.23L770.64,341.88L780.78,364.12L790.92,374.74L801.06,380.37L811.2,382.09L821.34,382.94L861.9,383.78L872.04,384.01L892.32,384.63L902.46,384.66L993.72,384.68L1003.86,384.5L1014,382.96" style="vector-effect: none; fill: none; stroke: rgb(217, 83, 79); stroke-opacity: 1; stroke-width: 2px; opacity: 1;"/></g><g class="points"/><g class="text"/></g><g class="trace scatter trace650506" style="stroke-miterlimit: 2; opacity: 1;"><g class="fills"/><g class="errorbars"/><g class="lines"><path class="js-line" d="M0,383.42L20.28,382.37L30.42,381.58L40.56,379.15L50.7,369.83L60.84,347.72L70.98,319.53L81.12,304.63L91.26,311.93L101.4,329.79L111.54,342.52L121.68,345.99L131.82,343.93L141.96,338.91L152.1,331.92L172.38,316.07L182.52,307.47L223.08,270.57L233.22,261.87L243.36,253.69L253.5,246.57L273.78,235.14L283.92,230.99L304.2,226.38L314.34,225.42L334.62,227.44L344.76,229.56L365.04,235.29L375.18,239.6L395.46,249.94L405.6,256.04L446.16,280.3L456.3,285.87L476.58,296.73L486.72,301.63L507,312.06L517.14,318.65L537.42,332.98L547.56,340.58L567.84,354.68L577.98,360.44L598.26,369.72L608.4,373.11L628.68,378.07L638.82,379.65L669.24,382.27L679.38,382.77L699.66,383.18L709.8,382.94L760.5,381.78L770.64,382.3L811.2,384.77L821.34,384.92L953.16,385L963.3,385L1014,384.99" style="vector-effect: none; fill: none; stroke: rgb(92, 184, 92); stroke-opacity: 1; stroke-width: 2px; opacity: 1;"/></g><g class="points"/><g class="text"/></g><g class="trace scatter tracea9b802" style="stroke-miterlimit: 2; opacity: 1;"><g class="fills"/><g class="errorbars"/><g class="lines"><path class="js-line" d="M0,356.75L10.14,363.85L20.28,369.85L30.42,364.93L40.56,357.25L50.7,351.84L60.84,349.54L70.98,351.37L81.12,356.55L91.26,360.95L101.4,364.32L111.54,366.2L121.68,366.95L141.96,368.07L152.1,368.28L182.52,370.07L192.66,370.25L212.94,368.68L223.08,367.17L243.36,361.87L253.5,357.88L263.64,348.23L273.78,340.92L294.06,333.28L304.2,330.9L314.34,321.11L324.48,312.48L334.62,307.03L344.76,299.25L354.9,290.76L365.04,284.65L395.46,270.76L405.6,265.61L425.88,263.91L436.02,261.81L476.58,253.66L486.72,253.59L496.86,253.78L507,254.74L517.14,256.87L527.28,260.19L537.42,263.91L547.56,268.51L567.84,280.04L577.98,284.98L588.12,289.23L598.26,290.81L608.4,296.39L618.54,305.35L628.68,307.87L638.82,297.74L648.96,298.82L659.1,319.4L669.24,328.09L679.38,320.27L689.52,313.85L699.66,314.93L709.8,319.76L719.94,318.74L730.08,326.7L740.22,338.12L760.5,329.04L770.64,341.18L780.78,360.19L790.92,371.39L801.06,377.78L811.2,379.79L831.48,382.31L841.62,382.97L861.9,383.58L872.04,383.88L892.32,384.49L902.46,384.54L993.72,384.62L1003.86,384.41L1014,382.28" style="vector-effect: none; fill: none; stroke: rgb(240, 173, 78); stroke-opacity: 1; stroke-width: 2px; opacity: 1;"/></g><g class="points"/><g class="text"/></g><g class="trace scatter trace09b83f" style="stroke-miterlimit: 2; opacity: 1;"><g class="fills"/><g class="errorbars"/><g class="lines"><path class="js-line" d="M0,383.53L30.42,381.69L40.56,379.24L50.7,370.17L60.84,348.86L70.98,321.19L81.12,305.93L91.26,312.21L101.4,329.01L111.54,341.38L121.68,344.77L131.82,342.34L141.96,336.96L162.24,322.51L172.38,314.07L223.08,268.59L233.22,260.54L253.5,245.47L263.64,239.61L273.78,234.64L283.92,230.76L304.2,226.42L314.34,226.07L334.62,228.3L344.76,230.78L365.04,236.53L375.18,240.74L395.46,251L405.6,257.06L425.88,269.29L436.02,275.08L456.3,287.15L466.44,292.4L507,312.39L517.14,319.03L567.84,354.81L577.98,360.69L588.12,365.78L598.26,370.03L618.54,376.1L628.68,378.13L648.96,380.75L659.1,381.65L689.52,383.07L699.66,383.09L760.5,381.94L770.64,382.5L811.2,384.78L821.34,384.92L983.58,384.98L993.72,384.97L1014,384.96" style="vector-effect: none; fill: none; stroke: rgb(92, 184, 92); stroke-opacity: 1; stroke-width: 2px; opacity: 1;"/></g><g class="points"/><g class="text"/></g><g class="trace scatter trace960efb" style="stroke-miterlimit: 2; opacity: 1;"><g class="fills"/><g class="errorbars"/><g class="lines"><path class="js-line" d="M0,357.77L20.28,369.76L30.42,365.37L40.56,357.96L50.7,352.3L60.84,350L70.98,352.16L91.26,361.2L101.4,364.66L111.54,366.57L121.68,367.37L192.66,370.32L202.8,369.95L223.08,367.2L233.22,364.77L243.36,361.8L253.5,357.85L263.64,348.45L273.78,341.21L294.06,333.1L304.2,330.26L314.34,320.45L324.48,311.88L334.62,306.4L344.76,298.96L354.9,290.5L365.04,284.51L385.32,275.44L395.46,270.53L405.6,265.86L415.74,264.32L425.88,263.41L436.02,261.63L476.58,253.42L486.72,252.88L496.86,252.59L507,254.09L527.28,259.4L537.42,263.59L547.56,268.62L557.7,274.5L577.98,284.72L588.12,289.19L598.26,291.05L608.4,296.72L618.54,305.76L628.68,307.66L638.82,297.42L648.96,299.17L659.1,319.32L669.24,327.55L679.38,319.75L689.52,313.82L699.66,315.25L709.8,319.45L719.94,318.71L730.08,326.69L740.22,337.77L750.36,333.74L760.5,330.39L770.64,342.22L780.78,360.36L790.92,371.48L801.06,377.77L811.2,379.81L831.48,382.39L841.62,382.99L861.9,383.57L872.04,383.84L892.32,384.45L902.46,384.5L993.72,384.57L1003.86,384.32L1014,382.32" style="vector-effect: none; fill: none; stroke: rgb(240, 173, 78); stroke-opacity: 1; stroke-width: 2px; opacity: 1;"/></g><g class="points"/><g class="text"/></g><g class="trace scatter trace76a657" style="stroke-miterlimit: 2; opacity: 1;"><g class="fills"/><g class="errorbars"/><g class="lines"><path class="js-line" d="M0,384.34L30.42,383.94L40.56,381L50.7,372.42L60.84,359.45L70.98,349.06L81.12,347.49L91.26,354.57L101.4,365.24L111.54,374.67L121.68,379.36L131.82,380.1L141.96,380.07L172.38,378.88L182.52,378.12L202.8,375.69L212.94,373.77L233.22,368.04L243.36,363.98L253.5,359.01L263.64,352.95L273.78,345.7L283.92,337.18L294.06,327.49L304.2,316.52L324.48,290.93L334.62,276.63L354.9,245.05L365.04,228.02L385.32,194.22L395.46,178.82L405.6,164.75L415.74,152.67L425.88,143.31L436.02,137.42L446.16,136.66L456.3,141.53L466.44,152.06L476.58,167.56L486.72,186.72L496.86,208.47L527.28,275.16L537.42,295.34L547.56,313.02L557.7,327.63L567.84,339.63L577.98,349.45L588.12,357.25L598.26,363.29L608.4,367.87L618.54,371.26L628.68,373.59L638.82,375.08L659.1,376.18L669.24,375.93L689.52,374.44L699.66,372.8L709.8,369.88L719.94,365.68L730.08,360.92L740.22,357.07L750.36,355.09L760.5,354.96L770.64,356.57L780.78,359.49L790.92,362.9L801.06,367.71L811.2,377.8L821.34,384.88L912.6,384.99L922.74,384.99L1014,385" style="vector-effect: none; fill: none; stroke: rgb(217, 83, 79); stroke-opacity: 1; stroke-width: 2px; opacity: 1;"/></g><g class="points"/><g class="text"/></g><g class="trace scatter trace2e5ef9" style="stroke-miterlimit: 2; opacity: 1;"><g class="fills"/><g class="errorbars"/><g class="lines"><path class="js-line" d="M0,375.23L10.14,376.21L20.28,369.17L30.42,367.24L40.56,371.18L50.7,374.76L60.84,376.59L91.26,380.35L101.4,381.02L131.82,381.99L141.96,382.17L192.66,382.25L202.8,382.12L233.22,380.99L243.36,380.1L253.5,378.82L263.64,376.77L283.92,370.8L294.06,367.53L304.2,362.65L314.34,358.88L324.48,353.69L334.62,347.48L365.04,325.45L375.18,316.17L385.32,306.52L395.46,298.81L405.6,292.33L415.74,288.2L456.3,275.24L466.44,273.1L486.72,271.06L496.86,270.98L507,272.42L517.14,275.03L527.28,276.24L537.42,274.88L557.7,272.26L567.84,271.19L577.98,270.06L588.12,266.87L598.26,264.06L608.4,257.18L618.54,247.96L628.68,231.92L638.82,213L648.96,200.39L659.1,180.19L669.24,169.7L679.38,179.56L689.52,208.8L709.8,298.41L719.94,326.66L730.08,343.97L740.22,355.37L750.36,360.97L760.5,364.58L770.64,366.23L780.78,366.58L790.92,365.88L801.06,361.04L821.34,329.87L831.48,325.89L841.62,330.76L851.76,356.7L861.9,383.67L872.04,384.54L953.16,384.77L963.3,384.77L993.72,384.4L1003.86,383.44L1014,380.64" style="vector-effect: none; fill: none; stroke: rgb(217, 83, 79); stroke-opacity: 1; stroke-width: 2px; opacity: 1;"/></g><g class="points"/><g class="text"/></g><g class="trace scatter trace9a9050" style="stroke-miterlimit: 2; opacity: 1;"><g class="fills"/><g class="errorbars"/><g class="lines"><path class="js-line" d="M0,384.74L30.42,384.56L40.56,383.8L50.7,381.59L60.84,378.06L70.98,374.91L81.12,374.04L91.26,375.62L101.4,378.46L111.54,381.24L121.68,382.62L152.1,382.5L162.24,382.18L192.66,380.29L202.8,379.03L223.08,375.02L233.22,371.99L243.36,367.94L253.5,362.9L263.64,356.66L273.78,348.97L283.92,339.85L294.06,329.02L304.2,316.71L314.34,302.74L334.62,270.3L344.76,252.05L365.04,210.98L375.18,189.18L395.46,144.99L405.6,125.17L415.74,108.87L425.88,97.96L436.02,94.64L446.16,99.7L456.3,112.87L466.44,132.7L486.72,182.2L496.86,208.09L517.14,255.78L527.28,277.11L537.42,295.88L547.56,312.29L557.7,326.13L567.84,337.26L577.98,346.19L588.12,353.12L598.26,358.28L608.4,362.17L628.68,367.67L638.82,369.95L689.52,381.08L699.66,382.37L719.94,383.74L730.08,384.09L790.92,384.88L801.06,384.92L1014,385" style="vector-effect: none; fill: none; stroke: rgb(240, 173, 78); stroke-opacity: 1; stroke-width: 2px; opacity: 1;"/></g><g class="points"/><g class="text"/></g><g class="trace scatter trace4a709f" style="stroke-miterlimit: 2; opacity: 1;"><g class="fills"/><g class="errorbars"/><g class="lines"><path class="js-line" d="M0,381.9L10.14,382.67L20.28,381.16L30.42,380.67L40.56,381.53L60.84,382.77L70.98,383.16L121.68,384.02L131.82,384.06L202.8,383.62L212.94,383.35L233.22,382.19L243.36,381.17L253.5,379.63L263.64,377.26L283.92,370.09L294.06,366.37L304.2,360.51L314.34,355.58L334.62,341.86L344.76,333.8L365.04,315.25L375.18,303.32L385.32,290.41L395.46,281.28L405.6,274.12L415.74,269.56L425.88,266.76L436.02,262.58L446.16,257.21L456.3,253.44L476.58,246.44L486.72,244.16L496.86,244.1L507,246.02L517.14,248.6L527.28,250.14L557.7,249.77L567.84,252.92L577.98,256.13L588.12,256.05L598.26,256.84L608.4,255.25L618.54,251.84L628.68,237.92L638.82,224.63L648.96,230.7L659.1,221.24L669.24,214.41L679.38,219.02L689.52,235.45L699.66,263.74L709.8,303.77L719.94,329.69L730.08,346.57L740.22,358.97L750.36,365.01L760.5,368.32L770.64,369.98L790.92,372.04L801.06,371.3L821.34,363.2L831.48,363.57L841.62,366.38L851.76,375.13L861.9,384.07L872.04,384.44L973.44,384.64L983.58,384.53L1003.86,383.22L1014,379.77" style="vector-effect: none; fill: none; stroke: rgb(217, 83, 79); stroke-opacity: 1; stroke-width: 2px; opacity: 1;"/></g><g class="points"/><g class="text"/></g><g class="trace scatter trace74b003" style="stroke-miterlimit: 2; opacity: 1;"><g class="fills"/><g class="errorbars"/><g class="lines"><path class="js-line" d="M0,384.94L50.7,384.46L60.84,383.93L81.12,383.43L91.26,383.66L131.82,384.44L141.96,384.38L202.8,383.15L212.94,382.62L233.22,380.86L243.36,379.55L263.64,375.86L273.78,373L283.92,369.23L294.06,364.17L304.2,357.04L314.34,346.9L324.48,332.64L334.62,313.19L344.76,287.78L354.9,256.64L365.04,220.74L375.18,181.82L385.32,142.79L395.46,108.15L405.6,81.93L415.74,66.32L425.88,62.18L436.02,67.8L446.16,80.13L456.3,95.98L466.44,113.88L476.58,133.93L486.72,156.17L496.86,181.13L527.28,265.16L537.42,289.83L547.56,310.47L557.7,326.15L567.84,338.42L577.98,348.09L588.12,355.14L598.26,360.14L608.4,363.6L618.54,365.62L638.82,367.39L648.96,367.67L669.24,369.31L679.38,371.01L740.22,382.3L750.36,383.3L780.78,384.69L790.92,384.85L882.18,384.99L892.32,384.99L1014,385" style="vector-effect: none; fill: none; stroke: rgb(240, 173, 78); stroke-opacity: 1; stroke-width: 2px; opacity: 1;"/></g><g class="points"/><g class="text"/></g><g class="trace scatter traced385ad" style="stroke-miterlimit: 2; opacity: 1;"><g class="fills"/><g class="errorbars"/><g class="lines"><path class="js-line" d="M0,384.32L30.42,384.82L40.56,384.81L212.94,384.68L223.08,384.57L263.64,383.51L273.78,382.89L304.2,379.71L314.34,378.04L354.9,369.28L365.04,366.21L375.18,361.95L385.32,356.64L395.46,348.84L405.6,337.33L415.74,320.2L425.88,297.82L446.16,246.53L456.3,224.8L466.44,201.59L476.58,166.18L486.72,105.17L496.86,75.19L507,86.85L517.14,90.46L527.28,67.01L537.42,60.87L547.56,114.77L557.7,116.66L567.84,121.19L577.98,195.59L588.12,222.96L598.26,253.8L608.4,279.99L618.54,269.4L628.68,272.64L638.82,306.34L648.96,337.48L659.1,349.78L669.24,355.5L679.38,358.61L689.52,363.17L699.66,365.52L709.8,365.29L719.94,366.67L730.08,369.03L740.22,369.68L760.5,368.41L770.64,366.6L780.78,363.44L790.92,361.44L801.06,359.9L811.2,355.06L821.34,353.05L831.48,361.94L851.76,378.08L861.9,384.44L912.6,384.71L922.74,384.73L993.72,384.36L1003.86,383.73L1014,380.67" style="vector-effect: none; fill: none; stroke: rgb(217, 83, 79); stroke-opacity: 1; stroke-width: 2px; opacity: 1;"/></g><g class="points"/><g class="text"/></g><g class="trace scatter trace289cdf" style="stroke-miterlimit: 2; opacity: 1;"><g class="fills"/><g class="errorbars"/><g class="lines"><path class="js-line" d="M0,384.89L40.56,384.62L50.7,383.98L81.12,381.96L91.26,382.42L121.68,384.19L131.82,384.19L192.66,383.05L202.8,382.6L223.08,381.16L233.22,380.02L253.5,376.68L263.64,374.25L273.78,371.09L283.92,366.93L294.06,361.47L304.2,354.08L314.34,343.93L324.48,330.06L334.62,311.55L344.76,287.24L354.9,257.28L365.04,223L395.46,114.29L405.6,85.99L415.74,67.27L425.88,58.72L436.02,59.74L446.16,68.89L456.3,84.09L466.44,103.52L476.58,126.27L486.72,152.59L527.28,268.46L537.42,292.92L547.56,314L557.7,330.04L567.84,342.87L577.98,353.25L588.12,360.56L598.26,365.83L608.4,369.6L618.54,372.23L628.68,373.92L638.82,374.83L699.66,376.14L709.8,376.14L730.08,376.33L740.22,377.14L780.78,382.08L790.92,382.81L821.34,384.98L831.48,384.99L1014,385" style="vector-effect: none; fill: none; stroke: rgb(240, 173, 78); stroke-opacity: 1; stroke-width: 2px; opacity: 1;"/></g><g class="points"/><g class="text"/></g><g class="trace scatter traceeb78f3" style="stroke-miterlimit: 2; opacity: 1;"><g class="fills"/><g class="errorbars"/><g class="lines"><path class="js-line" d="M0,383.58L20.28,384.65L30.42,384.65L233.22,384.09L243.36,383.78L273.78,381.91L283.92,380.79L304.2,377.8L314.34,375.71L344.76,368.01L354.9,365.6L365.04,362.3L375.18,357.37L385.32,351.33L395.46,344.01L405.6,333.69L415.74,319.45L425.88,300.54L436.02,278.98L446.16,255.34L456.3,236.27L466.44,216.36L476.58,177.57L486.72,97.09L496.86,57.15L507,76.24L517.14,84L527.28,47.92L537.42,31.79L547.56,85.78L557.7,77.61L567.84,79.87L577.98,188.33L588.12,228.95L598.26,260.81L608.4,284.88L618.54,278.9L628.68,282.81L638.82,315.53L648.96,350.4L659.1,359.53L669.24,364.74L679.38,367.48L689.52,370.43L699.66,371.91L709.8,371.92L719.94,373.38L730.08,375.1L740.22,375.09L760.5,372.74L770.64,370.63L780.78,368.59L790.92,368.26L801.06,368.6L811.2,367.21L821.34,367.25L831.48,372.27L861.9,384.39L872.04,384.53L983.58,384.55L993.72,384.17L1003.86,383.42L1014,380.2" style="vector-effect: none; fill: none; stroke: rgb(217, 83, 79); stroke-opacity: 1; stroke-width: 2px; opacity: 1;"/></g><g class="points"/><g class="text"/></g><g class="trace scatter trace70699d" style="stroke-miterlimit: 2; opacity: 1;"><g class="fills"/><g class="errorbars"/><g class="lines"><path class="js-line" d="M0,384.58L30.42,384.02L40.56,383.03L70.98,377.19L81.12,376.92L101.4,379.95L111.54,381.54L131.82,382.34L141.96,382.23L192.66,380.9L202.8,380.51L243.36,377.61L253.5,376.3L273.78,372.48L283.92,369.49L294.06,365.2L304.2,359.01L314.34,350.46L324.48,337.87L334.62,320.87L344.76,299.6L354.9,273.7L365.04,244.31L395.46,145.34L405.6,117.42L415.74,96.32L425.88,84.42L436.02,79.49L446.16,79.05L456.3,84.17L466.44,95.24L476.58,110.58L486.72,131.21L496.86,155.15L507,181.42L527.28,239.32L537.42,265.5L547.56,288.66L557.7,306.73L567.84,322.99L577.98,337.17L588.12,347.66L598.26,356.46L608.4,363.58L618.54,368.91L628.68,372.83L638.82,375.64L659.1,377.56L669.24,378.49L689.52,380.79L699.66,381.74L719.94,383.6L730.08,384.02L780.78,384.9L790.92,384.94L1014,384.99" style="vector-effect: none; fill: none; stroke: rgb(240, 173, 78); stroke-opacity: 1; stroke-width: 2px; opacity: 1;"/></g><g class="points"/><g class="text"/></g><g class="trace scatter trace9d3cbd" style="stroke-miterlimit: 2; opacity: 1;"><g class="fills"/><g class="errorbars"/><g class="lines"><path class="js-line" d="M0,377.52L10.14,382.21L20.28,382.73L40.56,382.81L50.7,383.33L91.26,383.99L101.4,383.97L182.52,383.77L192.66,383.68L263.64,381.74L273.78,381.17L294.06,379.42L304.2,378.2L334.62,373.7L344.76,371.69L365.04,367.08L375.18,363.78L385.32,359.22L395.46,353.16L405.6,344.54L415.74,331.13L425.88,313.09L436.02,291.26L446.16,267.83L456.3,246.83L466.44,225.33L476.58,192.96L486.72,153.11L496.86,127.3L507,119.32L517.14,121.16L527.28,108.03L537.42,108.64L547.56,142.94L557.7,141.32L567.84,137.02L577.98,167.26L588.12,194.29L598.26,218.43L608.4,241.59L618.54,239.56L628.68,249.38L638.82,280.29L648.96,294.87L659.1,296.39L669.24,281.29L679.38,263.9L689.52,284.48L699.66,334.16L709.8,358.2L719.94,366.65L730.08,370.46L740.22,373.37L750.36,376.26L760.5,377.15L780.78,376.27L790.92,377L801.06,379.06L811.2,380.18L821.34,380.3L831.48,381.21L861.9,384.47L872.04,384.52L993.72,384.17L1003.86,383.3L1014,380.02" style="vector-effect: none; fill: none; stroke: rgb(217, 83, 79); stroke-opacity: 1; stroke-width: 2px; opacity: 1;"/></g><g class="points"/><g class="text"/></g><g class="trace scatter traced0ef15" style="stroke-miterlimit: 2; opacity: 1;"><g class="fills"/><g class="errorbars"/><g class="lines"><path class="js-line" d="M0,384.52L30.42,383.74L40.56,382.19L50.7,379.27L60.84,375.22L70.98,371.69L81.12,370.76L91.26,372.6L101.4,375.62L111.54,378.15L121.68,379.23L152.1,378.49L162.24,377.99L202.8,375.06L212.94,373.88L233.22,370.45L243.36,368L263.64,361.23L273.78,356.64L283.92,350.94L294.06,344.12L304.2,336.13L314.34,326.54L324.48,315.37L334.62,302.36L344.76,287.09L354.9,269.51L365.04,249.25L375.18,226.52L385.32,201.53L395.46,173.71L415.74,116.06L425.88,92L436.02,75.62L446.16,70.67L456.3,77.8L466.44,95.28L476.58,120.8L486.72,150.13L517.14,241.12L527.28,267.53L537.42,290.7L547.56,310.09L557.7,326.05L567.84,338.7L577.98,348.42L588.12,355.71L598.26,360.77L608.4,363.95L618.54,365.62L628.68,366.42L659.1,367.57L669.24,368.97L689.52,374.15L699.66,377.16L719.94,381.82L730.08,383.11L750.36,384.34L760.5,384.61L831.48,384.97L841.62,384.97L1014,385" style="vector-effect: none; fill: none; stroke: rgb(240, 173, 78); stroke-opacity: 1; stroke-width: 2px; opacity: 1;"/></g><g class="points"/><g class="text"/></g><g class="trace scatter tracee6538b" style="stroke-miterlimit: 2; opacity: 1;"><g class="fills"/><g class="errorbars"/><g class="lines"><path class="js-line" d="M0,377.84L10.14,381.67L20.28,381.28L30.42,380.52L40.56,380.82L60.84,381.86L70.98,382.06L111.54,383.36L121.68,383.38L202.8,382.95L212.94,382.68L243.36,381.13L253.5,380.12L273.78,376.65L283.92,374.31L294.06,371.68L304.2,368.24L324.48,360.26L334.62,355.65L344.76,350.84L354.9,345.14L395.46,324.41L405.6,320.31L425.88,313.37L436.02,310.55L456.3,307.02L466.44,306.48L486.72,305.79L496.86,306.08L517.14,305.82L527.28,303.47L537.42,299.67L547.56,294.45L557.7,288.15L567.84,280.81L577.98,271.81L588.12,260.78L598.26,248.57L608.4,233.45L618.54,214.1L628.68,185.95L638.82,150.8L648.96,112.94L659.1,73.89L669.24,50.87L679.38,63.04L689.52,116.02L709.8,262.93L719.94,309.14L730.08,336.2L740.22,351.68L750.36,360.4L760.5,365.96L770.64,369L780.78,370.57L790.92,370.87L801.06,369.23L811.2,364.07L821.34,356.16L831.48,352.2L841.62,353.85L851.76,369.79L861.9,384.15L882.18,384.72L892.32,384.75L993.72,384.52L1003.86,383.59L1014,381.53" style="vector-effect: none; fill: none; stroke: rgb(217, 83, 79); stroke-opacity: 1; stroke-width: 2px; opacity: 1;"/></g><g class="points"/><g class="text"/></g><g class="trace scatter trace699a6d" style="stroke-miterlimit: 2; opacity: 1;"><g class="fills"/><g class="errorbars"/><g class="lines"><path class="js-line" d="M0,384.55L30.42,383.92L40.56,383.02L70.98,378.49L81.12,378.33L101.4,380.79L111.54,382.1L131.82,382.91L141.96,382.86L192.66,381.78L202.8,381.41L233.22,379.81L243.36,378.89L263.64,376.19L273.78,374.1L283.92,371.25L294.06,367.19L304.2,361.35L314.34,352.98L324.48,341.17L334.62,324.85L344.76,304.22L354.9,279.28L375.18,218.44L385.32,186.16L395.46,154.83L405.6,127.6L415.74,106.03L425.88,91.21L436.02,83.53L446.16,82.41L456.3,85.9L466.44,94.22L476.58,108.35L486.72,128.07L496.86,151.98L507,178.55L527.28,233.41L537.42,259.05L547.56,282.53L557.7,301.51L567.84,318.27L577.98,332.79L588.12,343.97L598.26,352.89L608.4,360.11L618.54,365.46L628.68,369.02L638.82,371.33L659.1,372.93L669.24,373.68L740.22,382.47L750.36,383.28L780.78,384.54L790.92,384.76L851.76,384.98L861.9,384.99L1014,384.99" style="vector-effect: none; fill: none; stroke: rgb(240, 173, 78); stroke-opacity: 1; stroke-width: 2px; opacity: 1;"/></g><g class="points"/><g class="text"/></g><g class="trace scatter trace5ae6f9" style="stroke-miterlimit: 2; opacity: 1;"><g class="fills"/><g class="errorbars"/><g class="lines"><path class="js-line" d="M0,378.25L10.14,382.54L20.28,383.06L40.56,383.08L50.7,383.64L91.26,384.26L101.4,384.31L233.22,383.56L243.36,383.32L283.92,381.52L294.06,380.7L314.34,378.55L324.48,376.96L354.9,371.14L365.04,368.68L375.18,364.72L385.32,358.74L395.46,352.08L405.6,342.86L415.74,328.92L425.88,310.84L436.02,290.04L446.16,267.04L466.44,224.91L476.58,195.19L486.72,157.38L496.86,134.62L507,129.18L517.14,130.34L527.28,125.01L537.42,126.84L547.56,156.09L557.7,153.84L567.84,151.38L577.98,178.45L608.4,247.33L618.54,245.07L628.68,250.02L638.82,275.93L648.96,291.81L659.1,293.48L669.24,276.89L679.38,252.49L689.52,268.78L699.66,318.49L709.8,347.47L719.94,358.88L730.08,363.74L740.22,367.23L750.36,370.76L760.5,371.88L780.78,370.3L790.92,370.62L801.06,371.23L811.2,370.96L821.34,370.77L831.48,373.02L841.62,375.45L851.76,379.77L861.9,384.35L872.04,384.56L993.72,384.25L1003.86,383.41L1014,380.32" style="vector-effect: none; fill: none; stroke: rgb(217, 83, 79); stroke-opacity: 1; stroke-width: 2px; opacity: 1;"/></g><g class="points"/><g class="text"/></g><g class="trace scatter trace2a2766" style="stroke-miterlimit: 2; opacity: 1;"><g class="fills"/><g class="errorbars"/><g class="lines"><path class="js-line" d="M0,384.38L20.28,384.05L30.42,383.25L40.56,381.6L50.7,378.77L70.98,372.28L81.12,371.63L91.26,373.37L101.4,376.17L111.54,378.6L121.68,379.8L152.1,379.37L162.24,379L202.8,376.83L212.94,375.92L233.22,373.42L243.36,371.62L263.64,366.22L273.78,362.48L283.92,357.9L294.06,352.41L304.2,345.56L314.34,336.96L324.48,326.44L334.62,313.74L344.76,298.31L354.9,280.03L365.04,258.76L375.18,234L385.32,205.94L395.46,175.27L415.74,112.12L425.88,85.84L436.02,68.92L446.16,64.96L456.3,74.15L466.44,94.04L476.58,121.5L486.72,152.86L507,214.76L517.14,242.14L527.28,266.61L537.42,287.97L547.56,306.12L557.7,321.02L567.84,332.98L577.98,342.65L588.12,350.12L598.26,355.54L608.4,359.15L618.54,361.01L628.68,361.72L638.82,361.66L659.1,360.94L669.24,361.44L679.38,362.73L689.52,365.31L719.94,376.81L730.08,379.46L750.36,382.67L760.5,383.54L790.92,384.75L801.06,384.87L973.44,384.99L983.58,384.99L1014,384.99" style="vector-effect: none; fill: none; stroke: rgb(217, 83, 79); stroke-opacity: 1; stroke-width: 2px; opacity: 1;"/></g><g class="points"/><g class="text"/></g><g class="trace scatter trace1c31d2" style="stroke-miterlimit: 2; opacity: 1;"><g class="fills"/><g class="errorbars"/><g class="lines"><path class="js-line" d="M0,376.99L10.14,381.49L20.28,381.22L30.42,380.49L40.56,380.89L91.26,383.11L101.4,383.32L152.1,383.56L162.24,383.54L223.08,382.83L233.22,382.4L263.64,380.21L273.78,378.86L294.06,375.13L304.2,372.68L324.48,366.34L334.62,362.4L354.9,353.52L365.04,348.99L375.18,343.54L385.32,336.83L395.46,332.33L405.6,329.55L425.88,324.21L436.02,322.41L456.3,318.06L466.44,316.51L486.72,313.68L496.86,313.14L517.14,312.6L527.28,310.86L537.42,306.98L547.56,301.79L557.7,295.59L567.84,288.19L577.98,279.77L588.12,269.35L598.26,256.63L608.4,240.39L618.54,219.41L628.68,188.29L648.96,107.53L659.1,62.36L669.24,30.75L679.38,37.21L689.52,89.54L699.66,168.63L709.8,244.52L719.94,293.79L730.08,322.82L740.22,339.9L750.36,350.33L760.5,357.28L770.64,361.39L780.78,362.91L790.92,362.69L801.06,360.34L811.2,353.59L821.34,344.35L831.48,340.78L841.62,343.34L861.9,383.97L872.04,384.6L963.3,384.84L973.44,384.85L993.72,384.61L1003.86,383.92L1014,382.04" style="vector-effect: none; fill: none; stroke: rgb(217, 83, 79); stroke-opacity: 1; stroke-width: 2px; opacity: 1;"/></g><g class="points"/><g class="text"/></g><g class="trace scatter trace4c416c" style="stroke-miterlimit: 2; opacity: 1;"><g class="fills"/><g class="errorbars"/><g class="lines"><path class="js-line" d="M0,383.81L30.42,383.6L40.56,382.62L70.98,377.72L81.12,377.73L121.68,383.57L131.82,383.71L162.24,383.17L172.38,382.69L192.66,380.88L202.8,379.27L212.94,376.84L223.08,373.55L233.22,369.29L243.36,363.91L253.5,357.35L263.64,349.82L273.78,341.33L283.92,331.85L294.06,321.22L304.2,309.45L324.48,283.31L334.62,268.84L344.76,252.22L354.9,234.03L385.32,175.1L395.46,157.69L405.6,144.57L415.74,136.84L425.88,134.5L436.02,137.17L446.16,143.03L456.3,150.36L466.44,159.3L476.58,170.37L486.72,184.4L496.86,200.85L507,219.06L517.14,238.84L537.42,278.07L547.56,295.48L557.7,309.13L567.84,321.14L577.98,331.83L588.12,339.49L608.4,352.59L618.54,359.3L628.68,364.49L638.82,367.91L659.1,372.61L669.24,374.01L689.52,376.09L699.66,376.66L740.22,380.17L750.36,381.68L770.64,383.3L780.78,383.62L821.34,384.97L831.48,384.97L1014,384.99" style="vector-effect: none; fill: none; stroke: rgb(92, 184, 92); stroke-opacity: 1; stroke-width: 2px; opacity: 1;"/></g><g class="points"/><g class="text"/></g><g class="trace scatter tracee81785" style="stroke-miterlimit: 2; opacity: 1;"><g class="fills"/><g class="errorbars"/><g class="lines"><path class="js-line" d="M0,370.17L10.14,380.74L20.28,382.71L40.56,382.96L50.7,383.66L81.12,384.36L91.26,384.42L192.66,384.05L202.8,383.82L233.22,381.88L243.36,380.53L263.64,376.47L273.78,373.24L294.06,364.97L304.2,359.83L314.34,354.1L324.48,347.05L334.62,339.95L344.76,334.94L405.6,301.19L415.74,294.95L425.88,285.57L436.02,274.74L456.3,252.44L466.44,242.19L476.58,224.55L486.72,199.25L496.86,178.2L507,169.66L517.14,171.96L527.28,158.65L537.42,146.05L547.56,167.73L557.7,165.59L567.84,161.53L577.98,201.04L588.12,227.02L608.4,261.09L618.54,270.35L628.68,279.72L638.82,301.84L648.96,319.17L659.1,327.1L669.24,321.41L679.38,307.5L689.52,316.51L699.66,337.75L709.8,345.75L719.94,345.44L740.22,339.58L750.36,340.17L760.5,346.15L770.64,353.37L801.06,369.42L811.2,371.5L821.34,374.27L831.48,378.48L861.9,384.38L872.04,384.47L993.72,384.1L1003.86,383.22L1014,379.92" style="vector-effect: none; fill: none; stroke: rgb(240, 173, 78); stroke-opacity: 1; stroke-width: 2px; opacity: 1;"/></g><g class="points"/><g class="text"/></g><g class="trace scatter trace706bbd" style="stroke-miterlimit: 2; opacity: 1;"><g class="fills"/><g class="errorbars"/><g class="lines"><path class="js-line" d="M0,382.25L20.28,382.91L30.42,382.27L40.56,380.96L50.7,378.77L70.98,374.05L81.12,373.99L91.26,376.05L101.4,378.92L111.54,381.28L121.68,382.42L141.96,382.53L152.1,382.22L172.38,380.68L182.52,379.03L192.66,376.51L202.8,372.79L212.94,367.37L223.08,359.86L233.22,349.71L243.36,337.24L253.5,322.69L263.64,306.22L273.78,288.07L283.92,268.16L314.34,207.82L324.48,190.35L334.62,176.64L344.76,165.84L354.9,157.94L365.04,153.31L375.18,151.69L385.32,152.32L395.46,155.42L405.6,161.05L415.74,168.15L425.88,176.74L436.02,187.1L446.16,199.04L456.3,212.2L466.44,227.21L507,291.9L517.14,305.54L527.28,317.73L537.42,328.22L547.56,337.14L557.7,344.81L577.98,356.97L588.12,361.85L608.4,369.28L618.54,371.94L638.82,375.26L648.96,376.25L679.38,376.96L689.52,376.94L719.94,378.15L730.08,379.02L790.92,384.1L801.06,384.58L831.48,384.99L841.62,384.99L1014,385" style="vector-effect: none; fill: none; stroke: rgb(240, 173, 78); stroke-opacity: 1; stroke-width: 2px; opacity: 1;"/></g><g class="points"/><g class="text"/></g><g class="trace scatter trace6646b4" style="stroke-miterlimit: 2; opacity: 1;"><g class="fills"/><g class="errorbars"/><g class="lines"><path class="js-line" d="M0,366.84L10.14,379.32L20.28,380.59L30.42,379.8L40.56,379.9L60.84,381.06L70.98,382.11L91.26,383.62L101.4,383.85L162.24,383.8L172.38,383.71L202.8,382.42L212.94,381.33L223.08,379.62L233.22,376.85L243.36,373.28L253.5,368.61L263.64,362.45L273.78,354.24L294.06,333.98L304.2,319.94L314.34,310.8L324.48,298.77L334.62,285.86L344.76,274.36L354.9,261.76L365.04,251.32L385.32,231.85L395.46,224.99L405.6,219.62L415.74,217.84L436.02,216.49L446.16,217.66L456.3,218.91L466.44,223.63L486.72,233.07L496.86,240.01L507,248.43L517.14,258.66L527.28,268.37L537.42,276.43L547.56,285.31L557.7,291.12L567.84,297.42L577.98,304.95L588.12,314.03L598.26,324.99L608.4,332.83L618.54,336.62L628.68,335.77L638.82,330.26L648.96,323.32L659.1,311.87L669.24,301.24L679.38,296.61L689.52,302.24L699.66,315.23L709.8,325.5L719.94,328.87L730.08,326.87L740.22,322.17L750.36,319.56L760.5,326.82L780.78,358.09L790.92,369.11L801.06,374.02L811.2,372.35L821.34,368.69L831.48,368.38L841.62,369.46L851.76,377.2L861.9,384.3L872.04,384.52L993.72,384.19L1003.86,383.4L1014,380.38" style="vector-effect: none; fill: none; stroke: rgb(217, 83, 79); stroke-opacity: 1; stroke-width: 2px; opacity: 1;"/></g><g class="points"/><g class="text"/></g><g class="trace scatter trace9d4d22" style="stroke-miterlimit: 2; opacity: 1;"><g class="fills"/><g class="errorbars"/><g class="lines"><path class="js-line" d="M0,379.92L20.28,380.78L30.42,379.34L40.56,376.6L50.7,372.96L60.84,369.5L70.98,367.3L81.12,367.75L91.26,371.13L111.54,379.38L121.68,381.41L141.96,382.24L152.1,382.14L172.38,381.29L182.52,380.37L202.8,377.14L212.94,374.32L223.08,370.58L233.22,365.78L243.36,359.95L253.5,353.11L273.78,336.6L283.92,327.03L304.2,306.04L314.34,294.16L324.48,284.04L334.62,275.88L354.9,256.99L365.04,246.7L405.6,202.62L415.74,193.94L425.88,187.33L436.02,182.72L456.3,177.53L466.44,176.17L476.58,176.58L486.72,179.84L496.86,185.38L507,194.02L517.14,204.93L527.28,217.66L537.42,232.63L547.56,249.47L577.98,302.32L588.12,316.81L608.4,339.91L618.54,349.99L628.68,357.25L638.82,361.92L659.1,368.67L669.24,370.87L709.8,379.02L719.94,380.58L750.36,383.77L760.5,384.37L801.06,384.93L811.2,384.95L1014,385" style="vector-effect: none; fill: none; stroke: rgb(240, 173, 78); stroke-opacity: 1; stroke-width: 2px; opacity: 1;"/></g><g class="points"/><g class="text"/></g><g class="trace scatter trace135d75" style="stroke-miterlimit: 2; opacity: 1;"><g class="fills"/><g class="errorbars"/><g class="lines"><path class="js-line" d="M0,339.63L10.14,372.71L20.28,377.63L30.42,376.51L40.56,377.13L50.7,380.36L60.84,382.26L91.26,383.45L101.4,383.67L172.38,383.6L182.52,383.5L212.94,382.51L223.08,381.79L243.36,379.17L253.5,377.3L263.64,374.75L273.78,371.23L294.06,362.87L304.2,357.86L314.34,352.57L324.48,345.75L334.62,339.39L344.76,335.08L375.18,320.07L385.32,314.76L395.46,310.27L405.6,306.85L415.74,303.8L425.88,299.19L446.16,289.3L456.3,284.41L466.44,279.8L476.58,272.23L496.86,252.4L507,247.12L517.14,247.38L527.28,241.18L537.42,237.05L547.56,246.29L557.7,247.99L567.84,246.32L588.12,278.77L598.26,291.36L608.4,301.61L618.54,309.37L628.68,315.31L638.82,325.42L648.96,334.02L659.1,339.56L669.24,334.87L679.38,321.46L689.52,312.06L699.66,304.43L709.8,287.18L719.94,267.99L730.08,247.02L740.22,217.26L750.36,177.42L760.5,156.17L770.64,181.26L780.78,240.84L790.92,306.08L801.06,343.91L811.2,354.64L821.34,360.94L831.48,369.16L841.62,371.05L851.76,377.03L861.9,384.15L902.46,384.54L912.6,384.59L993.72,384.29L1003.86,383.51L1014,380.75" style="vector-effect: none; fill: none; stroke: rgb(217, 83, 79); stroke-opacity: 1; stroke-width: 2px; opacity: 1;"/></g><g class="points"/><g class="text"/></g><g class="trace scatter trace777b80" style="stroke-miterlimit: 2; opacity: 1;"><g class="fills"/><g class="errorbars"/><g class="lines"><path class="js-line" d="M0,371.39L20.28,374.95L30.42,372.61L40.56,367.1L50.7,357.79L60.84,346.32L70.98,337.64L81.12,337.44L91.26,346.15L101.4,358.86L111.54,369.92L121.68,375.85L131.82,377.79L152.1,378.58L162.24,378.17L182.52,375.52L192.66,372.78L202.8,368.49L212.94,362.25L223.08,353.95L233.22,343.33L243.36,330.34L253.5,315.03L273.78,279.68L283.92,260.08L304.2,220.44L314.34,201.28L324.48,186.74L334.62,178.18L344.76,171.8L354.9,168.17L365.04,167.38L375.18,168.72L385.32,171.94L395.46,176.99L405.6,183.04L415.74,190.24L425.88,198.78L436.02,208.8L456.3,232.59L466.44,245.83L517.14,312.23L527.28,323.76L537.42,334.44L547.56,343.84L557.7,351.93L567.84,358.6L577.98,363.73L588.12,367.48L598.26,369.96L608.4,371.44L628.68,371.85L638.82,371.66L659.1,372.03L669.24,373.34L709.8,381.92L719.94,383.18L740.22,384.42L750.36,384.67L841.62,384.96L851.76,384.96L1014,385" style="vector-effect: none; fill: none; stroke: rgb(217, 83, 79); stroke-opacity: 1; stroke-width: 2px; opacity: 1;"/></g><g class="points"/><g class="text"/></g><g class="trace scatter traced797ad" style="stroke-miterlimit: 2; opacity: 1;"><g class="fills"/><g class="errorbars"/><g class="lines"><path class="js-line" d="M0,281.02L10.14,354.26L20.28,366.53L30.42,364.47L40.56,364.83L50.7,366.31L60.84,369.34L81.12,377.68L91.26,380.37L111.54,381.31L121.68,381.46L172.38,381.34L182.52,381.1L202.8,379.73L212.94,378.48L223.08,376.59L233.22,373.73L243.36,369.75L253.5,364.4L263.64,357.41L273.78,348.21L294.06,326.43L304.2,312.12L314.34,304.01L324.48,291.6L334.62,278.03L344.76,266.84L354.9,254.28L365.04,245.06L385.32,228.95L395.46,224.11L405.6,221L415.74,221.05L425.88,222.46L436.02,222.67L456.3,229.25L466.44,235.68L486.72,246.11L496.86,252.01L507,259.98L517.14,269.87L527.28,279.64L537.42,287.4L547.56,295.94L557.7,301.07L567.84,306.26L577.98,312.64L588.12,321.59L598.26,332.57L608.4,340.91L618.54,346.52L628.68,350.35L638.82,351.09L648.96,352L659.1,350.1L669.24,346.37L679.38,341.18L709.8,324.77L719.94,316.88L730.08,309.6L740.22,303.53L750.36,302.28L760.5,313.84L780.78,354.49L790.92,368.02L801.06,374.33L811.2,373.15L831.48,362.14L841.62,359.49L861.9,384.15L872.04,384.51L993.72,384.07L1003.86,383.06L1014,379.7" style="vector-effect: none; fill: none; stroke: rgb(217, 83, 79); stroke-opacity: 1; stroke-width: 2px; opacity: 1;"/></g><g class="points"/><g class="text"/></g><g class="trace scatter trace38eaf7" style="stroke-miterlimit: 2; opacity: 1;"><g class="fills"/><g class="errorbars"/><g class="lines"><path class="js-line" d="M0,381.04L20.28,382.01L30.42,381.35L40.56,379.41L50.7,375.73L60.84,371.52L70.98,368.59L81.12,368.79L91.26,371.98L111.54,379.9L121.68,381.69L141.96,381.9L152.1,381.46L172.38,379.59L182.52,377.97L192.66,375.55L202.8,372.13L212.94,367.29L223.08,360.63L233.22,352.11L243.36,341.65L253.5,329.3L263.64,315.23L283.92,283.22L294.06,265.28L314.34,229.86L324.48,213.71L344.76,185.52L354.9,174.15L365.04,165.6L375.18,159.18L385.32,155.39L395.46,154.24L405.6,156.08L415.74,161.58L425.88,170.53L436.02,181.18L456.3,205.29L466.44,217.5L476.58,229.45L486.72,243.12L527.28,303.82L537.42,317.42L547.56,329.79L557.7,339.11L567.84,346.46L577.98,352.55L588.12,356.13L598.26,358.51L608.4,362.67L618.54,367.71L628.68,371.13L638.82,372.96L659.1,376.64L669.24,377.66L719.94,382.34L730.08,382.78L770.64,384.74L780.78,384.86L922.74,384.99L932.88,384.99L1014,385" style="vector-effect: none; fill: none; stroke: rgb(240, 173, 78); stroke-opacity: 1; stroke-width: 2px; opacity: 1;"/></g><g class="points"/><g class="text"/></g><g class="trace scatter trace930d27" style="stroke-miterlimit: 2; opacity: 1;"><g class="fills"/><g class="errorbars"/><g class="lines"><path class="js-line" d="M0,348.29L10.14,375.2L20.28,380.33L40.56,381.49L50.7,382.68L70.98,383.4L81.12,383.53L152.1,383.49L162.24,383.39L202.8,382.3L212.94,381.57L233.22,378.84L243.36,376.71L253.5,373.89L263.64,370.05L273.78,364.64L283.92,358.16L294.06,351.46L304.2,343.53L314.34,334.31L324.48,321.96L334.62,310.49L344.76,303.84L365.04,287.04L375.18,279.02L385.32,271.84L395.46,266.13L415.74,258.7L425.88,252.93L456.3,233.2L466.44,228.65L476.58,220.35L486.72,207.49L496.86,196.05L507,191.63L517.14,194.53L527.28,186.55L537.42,180.57L547.56,197.46L557.7,200.89L567.84,201.49L577.98,226.99L588.12,247.08L608.4,281.03L618.54,294.05L628.68,304.85L638.82,321.42L648.96,333.83L659.1,341.58L669.24,339.38L679.38,330.51L689.52,335.59L699.66,349.78L709.8,356.17L719.94,358.4L730.08,358.57L740.22,357.72L750.36,357.17L760.5,359.49L780.78,368.27L790.92,371.32L801.06,374.24L811.2,374.8L821.34,375.82L831.48,378.68L861.9,384.31L872.04,384.36L983.58,384.32L993.72,383.81L1003.86,382.82L1014,378.72" style="vector-effect: none; fill: none; stroke: rgb(240, 173, 78); stroke-opacity: 1; stroke-width: 2px; opacity: 1;"/></g><g class="points"/><g class="text"/></g><g class="trace scatter tracebf61e3" style="stroke-miterlimit: 2; opacity: 1;"><g class="fills"/><g class="errorbars"/><g class="lines"><path class="js-line" d="M0,377.02L20.28,379.85L30.42,379.35L40.56,376.94L50.7,371.64L60.84,365.06L70.98,360.57L81.12,361.1L91.26,366.16L101.4,372.7L111.54,378.16L121.68,380.84L131.82,381.39L152.1,380.77L162.24,379.7L172.38,378.05L182.52,375.4L192.66,371.35L202.8,365.41L212.94,356.87L223.08,345.23L233.22,330.23L243.36,311.82L253.5,290.41L263.64,266.56L283.92,214.7L294.06,187.91L304.2,162.51L314.34,139.58L324.48,121.37L334.62,109.32L344.76,102.82L354.9,102.23L365.04,107.09L375.18,117.09L385.32,131.85L395.46,149.66L405.6,169.71L415.74,191.61L446.16,256.88L456.3,276.65L466.44,294.8L476.58,310.84L486.72,324.82L496.86,336.41L507,345.91L517.14,353.74L527.28,359.94L537.42,364.93L547.56,368.96L557.7,372.17L577.98,376.71L588.12,378.32L608.4,380.49L618.54,381.1L659.1,381.85L669.24,381.84L709.8,382.5L719.94,383.04L760.5,384.51L770.64,384.68L841.62,384.99L851.76,384.99L1014,385" style="vector-effect: none; fill: none; stroke: rgb(240, 173, 78); stroke-opacity: 1; stroke-width: 2px; opacity: 1;"/></g><g class="points"/><g class="text"/></g><g class="trace scatter trace81705c" style="stroke-miterlimit: 2; opacity: 1;"><g class="fills"/><g class="errorbars"/><g class="lines"><path class="js-line" d="M0,333.88L10.14,371.15L20.28,376.87L30.42,376.99L40.56,377.89L91.26,382.82L101.4,383.01L172.38,382.73L182.52,382.47L202.8,381.19L212.94,379.88L223.08,377.76L233.22,374.49L243.36,370.09L253.5,364.27L263.64,356.74L273.78,346.1L294.06,319.46L304.2,299.32L314.34,289.91L324.48,274.87L334.62,257.53L344.76,242.42L354.9,226.12L365.04,213.94L385.32,195.1L395.46,189.27L405.6,184.84L415.74,184.98L425.88,186.43L436.02,185.86L456.3,190.94L466.44,199.2L486.72,212.12L496.86,220.45L507,230.1L517.14,242L537.42,263.61L547.56,275.92L557.7,283.99L567.84,294.46L588.12,313.78L598.26,326L608.4,337.21L618.54,346.07L628.68,352.69L638.82,356.04L648.96,360.08L659.1,361.96L689.52,363.94L699.66,365.96L719.94,369.69L730.08,371.3L750.36,373.28L760.5,375.35L780.78,380.87L790.92,382.03L801.06,382.2L811.2,381.22L831.48,378.99L841.62,378.46L861.9,384.39L872.04,384.49L983.58,384.35L993.72,383.87L1003.86,382.92L1014,378.9" style="vector-effect: none; fill: none; stroke: rgb(240, 173, 78); stroke-opacity: 1; stroke-width: 2px; opacity: 1;"/></g><g class="points"/><g class="text"/></g><g class="trace scatter traceda7c87" style="stroke-miterlimit: 2; opacity: 1;"><g class="fills"/><g class="errorbars"/><g class="lines"><path class="js-line" d="M0,337.63L10.14,343.92L20.28,343.65L30.42,330.67L40.56,311.58L50.7,287.07L60.84,269.38L70.98,266.41L81.12,280.36L101.4,332.75L111.54,353.59L121.68,365.03L131.82,369.48L141.96,371.69L152.1,372.88L172.38,373.3L182.52,373.02L192.66,372.09L202.8,370.38L212.94,368.08L223.08,364.92L243.36,356.12L253.5,350.62L263.64,344.16L273.78,336.61L294.06,318.96L304.2,309.71L324.48,292.02L334.62,284.24L375.18,256.76L385.32,250.28L395.46,245.79L405.6,242.86L415.74,241.11L425.88,241.15L446.16,243.25L456.3,242.99L476.58,241.37L486.72,242.82L496.86,246.89L507,252.69L527.28,269.43L537.42,278.85L547.56,288.76L557.7,297.54L577.98,315.54L588.12,323.01L618.54,342.88L628.68,347.68L648.96,352.08L659.1,353.09L669.24,353.42L679.38,354.8L709.8,361.77L719.94,365.06L760.5,379.55L770.64,381.67L790.92,383.78L801.06,384.29L841.62,384.83L851.76,384.83L1014,384.99" style="vector-effect: none; fill: none; stroke: rgb(217, 83, 79); stroke-opacity: 1; stroke-width: 2px; opacity: 1;"/></g><g class="points"/><g class="text"/></g><g class="trace scatter trace053268" style="stroke-miterlimit: 2; opacity: 1;"><g class="fills"/><g class="errorbars"/><g class="lines"><path class="js-line" d="M0,19.25L10.14,296.69L20.28,334.81L30.42,329.65L40.56,337.55L50.7,358.75L60.84,368.09L70.98,371.64L81.12,373.71L101.4,376.7L111.54,377.41L162.24,377.92L172.38,377.82L223.08,376.4L233.22,375.64L253.5,373.21L263.64,371.46L283.92,365.67L294.06,362.24L304.2,358.52L314.34,353.9L334.62,341.62L344.76,337.56L395.46,312.47L405.6,308.31L446.16,297.08L456.3,293.62L476.58,287.59L486.72,283.08L496.86,279.94L507,278.93L517.14,280.26L527.28,278.34L537.42,277.07L547.56,279.17L557.7,275.54L567.84,268.18L577.98,272.83L588.12,287.01L598.26,304.88L608.4,316.26L618.54,323.81L628.68,329.16L648.96,338.47L659.1,341.04L669.24,337.18L679.38,326.6L689.52,315.24L699.66,301.13L709.8,282.13L719.94,265.54L730.08,252.95L740.22,243.22L750.36,238.57L760.5,250.57L780.78,309.53L790.92,328.92L801.06,334.1L811.2,327.45L821.34,328.48L831.48,344.24L841.62,350.13L851.76,366.25L861.9,383.89L872.04,384.44L973.44,384.65L983.58,384.56L1003.86,382.92L1014,379.17" style="vector-effect: none; fill: none; stroke: rgb(217, 83, 79); stroke-opacity: 1; stroke-width: 2px; opacity: 1;"/></g><g class="points"/><g class="text"/></g><g class="trace scatter trace7a126f" style="stroke-miterlimit: 2; opacity: 1;"><g class="fills"/><g class="errorbars"/><g class="lines"><path class="js-line" d="M0,316.51L20.28,340.52L30.42,337.7L40.56,328.5L50.7,312.89L60.84,301.77L70.98,301.96L81.12,312.92L91.26,330.19L101.4,347.86L111.54,361.44L121.68,368.96L131.82,372.25L141.96,373.97L152.1,374.79L172.38,374.59L182.52,373.43L192.66,371.47L202.8,368.39L212.94,363.95L223.08,357.68L233.22,349.49L243.36,339.9L253.5,328.73L263.64,316.12L283.92,288.63L294.06,274.29L304.2,260.67L314.34,248.83L324.48,239.6L334.62,232.65L344.76,228.23L354.9,225.79L375.18,221.86L385.32,218.91L395.46,216.37L405.6,214.73L415.74,213.68L425.88,215.47L436.02,219.88L446.16,226.47L466.44,241.51L476.58,250.68L496.86,271.06L507,283.17L537.42,321.76L547.56,333.22L557.7,343.24L567.84,351.37L577.98,357.62L588.12,361.78L598.26,363.81L608.4,363.83L618.54,362.16L628.68,359.68L648.96,354.39L659.1,353.29L669.24,354.12L679.38,357.12L699.66,368.01L709.8,373.33L719.94,377.57L730.08,380.47L750.36,383.44L760.5,384.13L790.92,384.84L801.06,384.88L1014,385" style="vector-effect: none; fill: none; stroke: rgb(217, 83, 79); stroke-opacity: 1; stroke-width: 2px; opacity: 1;"/></g><g class="points"/><g class="text"/></g><g class="trace scatter traced97519" style="stroke-miterlimit: 2; opacity: 1;"><g class="fills"/><g class="errorbars"/><g class="lines"><path class="js-line" d="M0,120.46L10.14,326.5L20.28,349.85L30.42,345.63L40.56,345.97L50.7,348L60.84,352.28L70.98,359.55L81.12,368.98L91.26,376.23L101.4,377.92L131.82,378.93L141.96,378.96L192.66,378.58L202.8,378.07L223.08,375.84L233.22,373.74L243.36,371.17L253.5,367.82L263.64,363.41L273.78,357.32L294.06,342.44L304.2,331.76L314.34,326.14L324.48,317.85L344.76,299.77L354.9,291.07L365.04,285.25L375.18,281L385.32,275.67L395.46,272.64L405.6,270.16L415.74,269.93L425.88,270.48L436.02,270.12L456.3,272.9L466.44,276.88L486.72,284.77L496.86,289.18L517.14,299.99L527.28,305.46L537.42,310.48L547.56,313.96L557.7,311.95L567.84,308.13L577.98,309.22L588.12,318.95L598.26,334.77L608.4,344.27L618.54,348.95L628.68,352.15L648.96,352.94L659.1,351.12L669.24,345.99L679.38,335.72L689.52,319.65L699.66,299.16L709.8,276.4L719.94,257.83L730.08,246.67L740.22,240.15L750.36,237.97L760.5,256.31L780.78,333.2L790.92,355.91L801.06,363.26L811.2,353.72L821.34,334.86L831.48,320.45L841.62,314.52L851.76,350.29L861.9,383.62L872.04,384.51L983.58,384.56L993.72,384.25L1003.86,383.4L1014,380.04" style="vector-effect: none; fill: none; stroke: rgb(217, 83, 79); stroke-opacity: 1; stroke-width: 2px; opacity: 1;"/></g><g class="points"/><g class="text"/></g><g class="trace scatter trace65eabc" style="stroke-miterlimit: 2; opacity: 1;"><g class="fills"/><g class="errorbars"/><g class="lines"><path class="js-line" d="M0,384.34L30.42,383.94L40.56,381L50.7,372.42L60.84,359.45L70.98,349.06L81.12,347.49L91.26,354.57L101.4,365.24L111.54,374.67L121.68,379.36L131.82,380.1L141.96,380.07L172.38,378.88L182.52,378.12L202.8,375.69L212.94,373.77L233.22,368.04L243.36,363.98L253.5,359.01L263.64,352.95L273.78,345.7L283.92,337.18L294.06,327.49L304.2,316.52L324.48,290.93L334.62,276.63L354.9,245.05L365.04,228.02L385.32,194.22L395.46,178.82L405.6,164.75L415.74,152.67L425.88,143.31L436.02,137.42L446.16,136.66L456.3,141.53L466.44,152.06L476.58,167.56L486.72,186.72L496.86,208.47L527.28,275.16L537.42,295.34L547.56,313.02L557.7,327.63L567.84,339.63L577.98,349.45L588.12,357.25L598.26,363.29L608.4,367.87L618.54,371.26L628.68,373.59L638.82,375.08L659.1,376.18L669.24,375.93L689.52,374.44L699.66,372.8L709.8,369.88L719.94,365.68L730.08,360.92L740.22,357.07L750.36,355.09L760.5,354.96L770.64,356.57L780.78,359.49L790.92,362.9L801.06,367.71L811.2,377.8L821.34,384.88L912.6,384.99L922.74,384.99L1014,385" style="vector-effect: none; fill: none; stroke: rgb(217, 83, 79); stroke-opacity: 1; stroke-width: 2px; opacity: 1;"/></g><g class="points"/><g class="text"/></g><g class="trace scatter trace4ab152" style="stroke-miterlimit: 2; opacity: 1;"><g class="fills"/><g class="errorbars"/><g class="lines"><path class="js-line" d="M0,375.23L10.14,376.21L20.28,369.17L30.42,367.24L40.56,371.18L50.7,374.76L60.84,376.59L91.26,380.35L101.4,381.02L131.82,381.99L141.96,382.17L192.66,382.25L202.8,382.12L233.22,380.99L243.36,380.1L253.5,378.82L263.64,376.77L283.92,370.8L294.06,367.53L304.2,362.65L314.34,358.88L324.48,353.69L334.62,347.48L365.04,325.45L375.18,316.17L385.32,306.52L395.46,298.81L405.6,292.33L415.74,288.2L456.3,275.24L466.44,273.1L486.72,271.06L496.86,270.98L507,272.42L517.14,275.03L527.28,276.24L537.42,274.88L557.7,272.26L567.84,271.19L577.98,270.06L588.12,266.87L598.26,264.06L608.4,257.18L618.54,247.96L628.68,231.92L638.82,213L648.96,200.39L659.1,180.19L669.24,169.7L679.38,179.56L689.52,208.8L709.8,298.41L719.94,326.66L730.08,343.97L740.22,355.37L750.36,360.97L760.5,364.58L770.64,366.23L780.78,366.58L790.92,365.88L801.06,361.04L821.34,329.87L831.48,325.89L841.62,330.76L851.76,356.7L861.9,383.67L872.04,384.54L953.16,384.77L963.3,384.77L993.72,384.4L1003.86,383.44L1014,380.64" style="vector-effect: none; fill: none; stroke: rgb(217, 83, 79); stroke-opacity: 1; stroke-width: 2px; opacity: 1;"/></g><g class="points"/><g class="text"/></g><g class="trace scatter traceea0e15" style="stroke-miterlimit: 2; opacity: 1;"><g class="fills"/><g class="errorbars"/><g class="lines"><path class="js-line" d="M0,384.94L50.7,384.46L60.84,383.93L81.12,383.43L91.26,383.66L131.82,384.44L141.96,384.38L202.8,383.15L212.94,382.62L233.22,380.86L243.36,379.55L263.64,375.86L273.78,373L283.92,369.23L294.06,364.17L304.2,357.04L314.34,346.9L324.48,332.64L334.62,313.19L344.76,287.78L354.9,256.64L365.04,220.74L375.18,181.82L385.32,142.79L395.46,108.15L405.6,81.93L415.74,66.32L425.88,62.18L436.02,67.8L446.16,80.13L456.3,95.98L466.44,113.88L476.58,133.93L486.72,156.17L496.86,181.13L527.28,265.16L537.42,289.83L547.56,310.47L557.7,326.15L567.84,338.42L577.98,348.09L588.12,355.14L598.26,360.14L608.4,363.6L618.54,365.62L638.82,367.39L648.96,367.67L669.24,369.31L679.38,371.01L740.22,382.3L750.36,383.3L780.78,384.69L790.92,384.85L882.18,384.99L892.32,384.99L1014,385" style="vector-effect: none; fill: none; stroke: rgb(240, 173, 78); stroke-opacity: 1; stroke-width: 2px; opacity: 1;"/></g><g class="points"/><g class="text"/></g><g class="trace scatter tracebf3e25" style="stroke-miterlimit: 2; opacity: 1;"><g class="fills"/><g class="errorbars"/><g class="lines"><path class="js-line" d="M0,384.32L30.42,384.82L40.56,384.81L212.94,384.68L223.08,384.57L263.64,383.51L273.78,382.89L304.2,379.71L314.34,378.04L354.9,369.28L365.04,366.21L375.18,361.95L385.32,356.64L395.46,348.84L405.6,337.33L415.74,320.2L425.88,297.82L446.16,246.53L456.3,224.8L466.44,201.59L476.58,166.18L486.72,105.17L496.86,75.19L507,86.85L517.14,90.46L527.28,67.01L537.42,60.87L547.56,114.77L557.7,116.66L567.84,121.19L577.98,195.59L588.12,222.96L598.26,253.8L608.4,279.99L618.54,269.4L628.68,272.64L638.82,306.34L648.96,337.48L659.1,349.78L669.24,355.5L679.38,358.61L689.52,363.17L699.66,365.52L709.8,365.29L719.94,366.67L730.08,369.03L740.22,369.68L760.5,368.41L770.64,366.6L780.78,363.44L790.92,361.44L801.06,359.9L811.2,355.06L821.34,353.05L831.48,361.94L851.76,378.08L861.9,384.44L912.6,384.71L922.74,384.73L993.72,384.36L1003.86,383.73L1014,380.67" style="vector-effect: none; fill: none; stroke: rgb(217, 83, 79); stroke-opacity: 1; stroke-width: 2px; opacity: 1;"/></g><g class="points"/><g class="text"/></g><g class="trace scatter traceca7cda" style="stroke-miterlimit: 2; opacity: 1;"><g class="fills"/><g class="errorbars"/><g class="lines"><path class="js-line" d="M0,384.74L30.42,384.56L40.56,383.8L50.7,381.59L60.84,378.06L70.98,374.91L81.12,374.04L91.26,375.62L101.4,378.46L111.54,381.24L121.68,382.62L152.1,382.5L162.24,382.18L192.66,380.29L202.8,379.03L223.08,375.02L233.22,371.99L243.36,367.94L253.5,362.9L263.64,356.66L273.78,348.97L283.92,339.85L294.06,329.02L304.2,316.71L314.34,302.74L334.62,270.3L344.76,252.05L365.04,210.98L375.18,189.18L395.46,144.99L405.6,125.17L415.74,108.87L425.88,97.96L436.02,94.64L446.16,99.7L456.3,112.87L466.44,132.7L486.72,182.2L496.86,208.09L517.14,255.78L527.28,277.11L537.42,295.88L547.56,312.29L557.7,326.13L567.84,337.26L577.98,346.19L588.12,353.12L598.26,358.28L608.4,362.17L628.68,367.67L638.82,369.95L689.52,381.08L699.66,382.37L719.94,383.74L730.08,384.09L790.92,384.88L801.06,384.92L1014,385" style="vector-effect: none; fill: none; stroke: rgb(240, 173, 78); stroke-opacity: 1; stroke-width: 2px; opacity: 1;"/></g><g class="points"/><g class="text"/></g><g class="trace scatter trace229281" style="stroke-miterlimit: 2; opacity: 1;"><g class="fills"/><g class="errorbars"/><g class="lines"><path class="js-line" d="M0,381.9L10.14,382.67L20.28,381.16L30.42,380.67L40.56,381.53L60.84,382.77L70.98,383.16L121.68,384.02L131.82,384.06L202.8,383.62L212.94,383.35L233.22,382.19L243.36,381.17L253.5,379.63L263.64,377.26L283.92,370.09L294.06,366.37L304.2,360.51L314.34,355.58L334.62,341.86L344.76,333.8L365.04,315.25L375.18,303.32L385.32,290.41L395.46,281.28L405.6,274.12L415.74,269.56L425.88,266.76L436.02,262.58L446.16,257.21L456.3,253.44L476.58,246.44L486.72,244.16L496.86,244.1L507,246.02L517.14,248.6L527.28,250.14L557.7,249.77L567.84,252.92L577.98,256.13L588.12,256.05L598.26,256.84L608.4,255.25L618.54,251.84L628.68,237.92L638.82,224.63L648.96,230.7L659.1,221.24L669.24,214.41L679.38,219.02L689.52,235.45L699.66,263.74L709.8,303.77L719.94,329.69L730.08,346.57L740.22,358.97L750.36,365.01L760.5,368.32L770.64,369.98L790.92,372.04L801.06,371.3L821.34,363.2L831.48,363.57L841.62,366.38L851.76,375.13L861.9,384.07L872.04,384.44L973.44,384.64L983.58,384.53L1003.86,383.22L1014,379.77" style="vector-effect: none; fill: none; stroke: rgb(217, 83, 79); stroke-opacity: 1; stroke-width: 2px; opacity: 1;"/></g><g class="points"/><g class="text"/></g><g class="trace scatter tracea4376c" style="stroke-miterlimit: 2; opacity: 1;"><g class="fills"/><g class="errorbars"/><g class="lines"><path class="js-line" d="M0,384.89L40.56,384.62L50.7,383.98L81.12,381.96L91.26,382.42L121.68,384.19L131.82,384.19L192.66,383.05L202.8,382.6L223.08,381.16L233.22,380.02L253.5,376.68L263.64,374.25L273.78,371.09L283.92,366.93L294.06,361.47L304.2,354.08L314.34,343.93L324.48,330.06L334.62,311.55L344.76,287.24L354.9,257.28L365.04,223L395.46,114.29L405.6,85.99L415.74,67.27L425.88,58.72L436.02,59.74L446.16,68.89L456.3,84.09L466.44,103.52L476.58,126.27L486.72,152.59L527.28,268.46L537.42,292.92L547.56,314L557.7,330.04L567.84,342.87L577.98,353.25L588.12,360.56L598.26,365.83L608.4,369.6L618.54,372.23L628.68,373.92L638.82,374.83L699.66,376.14L709.8,376.14L730.08,376.33L740.22,377.14L780.78,382.08L790.92,382.81L821.34,384.98L831.48,384.99L1014,385" style="vector-effect: none; fill: none; stroke: rgb(240, 173, 78); stroke-opacity: 1; stroke-width: 2px; opacity: 1;"/></g><g class="points"/><g class="text"/></g><g class="trace scatter trace596a1c" style="stroke-miterlimit: 2; opacity: 1;"><g class="fills"/><g class="errorbars"/><g class="lines"><path class="js-line" d="M0,383.58L20.28,384.65L30.42,384.65L233.22,384.09L243.36,383.78L273.78,381.91L283.92,380.79L304.2,377.8L314.34,375.71L344.76,368.01L354.9,365.6L365.04,362.3L375.18,357.37L385.32,351.33L395.46,344.01L405.6,333.69L415.74,319.45L425.88,300.54L436.02,278.98L446.16,255.34L456.3,236.27L466.44,216.36L476.58,177.57L486.72,97.09L496.86,57.15L507,76.24L517.14,84L527.28,47.92L537.42,31.79L547.56,85.78L557.7,77.61L567.84,79.87L577.98,188.33L588.12,228.95L598.26,260.81L608.4,284.88L618.54,278.9L628.68,282.81L638.82,315.53L648.96,350.4L659.1,359.53L669.24,364.74L679.38,367.48L689.52,370.43L699.66,371.91L709.8,371.92L719.94,373.38L730.08,375.1L740.22,375.09L760.5,372.74L770.64,370.63L780.78,368.59L790.92,368.26L801.06,368.6L811.2,367.21L821.34,367.25L831.48,372.27L861.9,384.39L872.04,384.53L983.58,384.55L993.72,384.17L1003.86,383.42L1014,380.2" style="vector-effect: none; fill: none; stroke: rgb(217, 83, 79); stroke-opacity: 1; stroke-width: 2px; opacity: 1;"/></g><g class="points"/><g class="text"/></g><g class="trace scatter trace7fadb7" style="stroke-miterlimit: 2; opacity: 1;"><g class="fills"/><g class="errorbars"/><g class="lines"><path class="js-line" d="M0,384.52L30.42,383.74L40.56,382.19L50.7,379.27L60.84,375.22L70.98,371.69L81.12,370.76L91.26,372.6L101.4,375.62L111.54,378.15L121.68,379.23L152.1,378.49L162.24,377.99L202.8,375.06L212.94,373.88L233.22,370.45L243.36,368L263.64,361.23L273.78,356.64L283.92,350.94L294.06,344.12L304.2,336.13L314.34,326.54L324.48,315.37L334.62,302.36L344.76,287.09L354.9,269.51L365.04,249.25L375.18,226.52L385.32,201.53L395.46,173.71L415.74,116.06L425.88,92L436.02,75.62L446.16,70.67L456.3,77.8L466.44,95.28L476.58,120.8L486.72,150.13L517.14,241.12L527.28,267.53L537.42,290.7L547.56,310.09L557.7,326.05L567.84,338.7L577.98,348.42L588.12,355.71L598.26,360.77L608.4,363.95L618.54,365.62L628.68,366.42L659.1,367.57L669.24,368.97L689.52,374.15L699.66,377.16L719.94,381.82L730.08,383.11L750.36,384.34L760.5,384.61L831.48,384.97L841.62,384.97L1014,385" style="vector-effect: none; fill: none; stroke: rgb(240, 173, 78); stroke-opacity: 1; stroke-width: 2px; opacity: 1;"/></g><g class="points"/><g class="text"/></g><g class="trace scatter trace0c6ba5" style="stroke-miterlimit: 2; opacity: 1;"><g class="fills"/><g class="errorbars"/><g class="lines"><path class="js-line" d="M0,377.84L10.14,381.67L20.28,381.28L30.42,380.52L40.56,380.82L60.84,381.86L70.98,382.06L111.54,383.36L121.68,383.38L202.8,382.95L212.94,382.68L243.36,381.13L253.5,380.12L273.78,376.65L283.92,374.31L294.06,371.68L304.2,368.24L324.48,360.26L334.62,355.65L344.76,350.84L354.9,345.14L395.46,324.41L405.6,320.31L425.88,313.37L436.02,310.55L456.3,307.02L466.44,306.48L486.72,305.79L496.86,306.08L517.14,305.82L527.28,303.47L537.42,299.67L547.56,294.45L557.7,288.15L567.84,280.81L577.98,271.81L588.12,260.78L598.26,248.57L608.4,233.45L618.54,214.1L628.68,185.95L638.82,150.8L648.96,112.94L659.1,73.89L669.24,50.87L679.38,63.04L689.52,116.02L709.8,262.93L719.94,309.14L730.08,336.2L740.22,351.68L750.36,360.4L760.5,365.96L770.64,369L780.78,370.57L790.92,370.87L801.06,369.23L811.2,364.07L821.34,356.16L831.48,352.2L841.62,353.85L851.76,369.79L861.9,384.15L882.18,384.72L892.32,384.75L993.72,384.52L1003.86,383.59L1014,381.53" style="vector-effect: none; fill: none; stroke: rgb(217, 83, 79); stroke-opacity: 1; stroke-width: 2px; opacity: 1;"/></g><g class="points"/><g class="text"/></g><g class="trace scatter trace2e7c7f" style="stroke-miterlimit: 2; opacity: 1;"><g class="fills"/><g class="errorbars"/><g class="lines"><path class="js-line" d="M0,384.58L30.42,384.02L40.56,383.03L70.98,377.19L81.12,376.92L101.4,379.95L111.54,381.54L131.82,382.34L141.96,382.23L192.66,380.9L202.8,380.51L243.36,377.61L253.5,376.3L273.78,372.48L283.92,369.49L294.06,365.2L304.2,359.01L314.34,350.46L324.48,337.87L334.62,320.87L344.76,299.6L354.9,273.7L365.04,244.31L395.46,145.34L405.6,117.42L415.74,96.32L425.88,84.42L436.02,79.49L446.16,79.05L456.3,84.17L466.44,95.24L476.58,110.58L486.72,131.21L496.86,155.15L507,181.42L527.28,239.32L537.42,265.5L547.56,288.66L557.7,306.73L567.84,322.99L577.98,337.17L588.12,347.66L598.26,356.46L608.4,363.58L618.54,368.91L628.68,372.83L638.82,375.64L659.1,377.56L669.24,378.49L689.52,380.79L699.66,381.74L719.94,383.6L730.08,384.02L780.78,384.9L790.92,384.94L1014,384.99" style="vector-effect: none; fill: none; stroke: rgb(240, 173, 78); stroke-opacity: 1; stroke-width: 2px; opacity: 1;"/></g><g class="points"/><g class="text"/></g><g class="trace scatter tracec4c28c" style="stroke-miterlimit: 2; opacity: 1;"><g class="fills"/><g class="errorbars"/><g class="lines"><path class="js-line" d="M0,377.52L10.14,382.21L20.28,382.73L40.56,382.81L50.7,383.33L91.26,383.99L101.4,383.97L182.52,383.77L192.66,383.68L263.64,381.74L273.78,381.17L294.06,379.42L304.2,378.2L334.62,373.7L344.76,371.69L365.04,367.08L375.18,363.78L385.32,359.22L395.46,353.16L405.6,344.54L415.74,331.13L425.88,313.09L436.02,291.26L446.16,267.83L456.3,246.83L466.44,225.33L476.58,192.96L486.72,153.11L496.86,127.3L507,119.32L517.14,121.16L527.28,108.03L537.42,108.64L547.56,142.94L557.7,141.32L567.84,137.02L577.98,167.26L588.12,194.29L598.26,218.43L608.4,241.59L618.54,239.56L628.68,249.38L638.82,280.29L648.96,294.87L659.1,296.39L669.24,281.29L679.38,263.9L689.52,284.48L699.66,334.16L709.8,358.2L719.94,366.65L730.08,370.46L740.22,373.37L750.36,376.26L760.5,377.15L780.78,376.27L790.92,377L801.06,379.06L811.2,380.18L821.34,380.3L831.48,381.21L861.9,384.47L872.04,384.52L993.72,384.17L1003.86,383.3L1014,380.02" style="vector-effect: none; fill: none; stroke: rgb(217, 83, 79); stroke-opacity: 1; stroke-width: 2px; opacity: 1;"/></g><g class="points"/><g class="text"/></g><g class="trace scatter tracea69099" style="stroke-miterlimit: 2; opacity: 1;"><g class="fills"/><g class="errorbars"/><g class="lines"><path class="js-line" d="M0,384.38L20.28,384.05L30.42,383.25L40.56,381.6L50.7,378.77L70.98,372.28L81.12,371.63L91.26,373.37L101.4,376.17L111.54,378.6L121.68,379.8L152.1,379.37L162.24,379L202.8,376.83L212.94,375.92L233.22,373.42L243.36,371.62L263.64,366.22L273.78,362.48L283.92,357.9L294.06,352.41L304.2,345.56L314.34,336.96L324.48,326.44L334.62,313.74L344.76,298.31L354.9,280.03L365.04,258.76L375.18,234L385.32,205.94L395.46,175.27L415.74,112.12L425.88,85.84L436.02,68.92L446.16,64.96L456.3,74.15L466.44,94.04L476.58,121.5L486.72,152.86L507,214.76L517.14,242.14L527.28,266.61L537.42,287.97L547.56,306.12L557.7,321.02L567.84,332.98L577.98,342.65L588.12,350.12L598.26,355.54L608.4,359.15L618.54,361.01L628.68,361.72L638.82,361.66L659.1,360.94L669.24,361.44L679.38,362.73L689.52,365.31L719.94,376.81L730.08,379.46L750.36,382.67L760.5,383.54L790.92,384.75L801.06,384.87L973.44,384.99L983.58,384.99L1014,384.99" style="vector-effect: none; fill: none; stroke: rgb(217, 83, 79); stroke-opacity: 1; stroke-width: 2px; opacity: 1;"/></g><g class="points"/><g class="text"/></g><g class="trace scatter trace0c3e92" style="stroke-miterlimit: 2; opacity: 1;"><g class="fills"/><g class="errorbars"/><g class="lines"><path class="js-line" d="M0,376.99L10.14,381.49L20.28,381.22L30.42,380.49L40.56,380.89L91.26,383.11L101.4,383.32L152.1,383.56L162.24,383.54L223.08,382.83L233.22,382.4L263.64,380.21L273.78,378.86L294.06,375.13L304.2,372.68L324.48,366.34L334.62,362.4L354.9,353.52L365.04,348.99L375.18,343.54L385.32,336.83L395.46,332.33L405.6,329.55L425.88,324.21L436.02,322.41L456.3,318.06L466.44,316.51L486.72,313.68L496.86,313.14L517.14,312.6L527.28,310.86L537.42,306.98L547.56,301.79L557.7,295.59L567.84,288.19L577.98,279.77L588.12,269.35L598.26,256.63L608.4,240.39L618.54,219.41L628.68,188.29L648.96,107.53L659.1,62.36L669.24,30.75L679.38,37.21L689.52,89.54L699.66,168.63L709.8,244.52L719.94,293.79L730.08,322.82L740.22,339.9L750.36,350.33L760.5,357.28L770.64,361.39L780.78,362.91L790.92,362.69L801.06,360.34L811.2,353.59L821.34,344.35L831.48,340.78L841.62,343.34L861.9,383.97L872.04,384.6L963.3,384.84L973.44,384.85L993.72,384.61L1003.86,383.92L1014,382.04" style="vector-effect: none; fill: none; stroke: rgb(217, 83, 79); stroke-opacity: 1; stroke-width: 2px; opacity: 1;"/></g><g class="points"/><g class="text"/></g><g class="trace scatter traced39258" style="stroke-miterlimit: 2; opacity: 1;"><g class="fills"/><g class="errorbars"/><g class="lines"><path class="js-line" d="M0,384.55L30.42,383.92L40.56,383.02L70.98,378.49L81.12,378.33L101.4,380.79L111.54,382.1L131.82,382.91L141.96,382.86L192.66,381.78L202.8,381.41L233.22,379.81L243.36,378.89L263.64,376.19L273.78,374.1L283.92,371.25L294.06,367.19L304.2,361.35L314.34,352.98L324.48,341.17L334.62,324.85L344.76,304.22L354.9,279.28L375.18,218.44L385.32,186.16L395.46,154.83L405.6,127.6L415.74,106.03L425.88,91.21L436.02,83.53L446.16,82.41L456.3,85.9L466.44,94.22L476.58,108.35L486.72,128.07L496.86,151.98L507,178.55L527.28,233.41L537.42,259.05L547.56,282.53L557.7,301.51L567.84,318.27L577.98,332.79L588.12,343.97L598.26,352.89L608.4,360.11L618.54,365.46L628.68,369.02L638.82,371.33L659.1,372.93L669.24,373.68L740.22,382.47L750.36,383.28L780.78,384.54L790.92,384.76L851.76,384.98L861.9,384.99L1014,384.99" style="vector-effect: none; fill: none; stroke: rgb(240, 173, 78); stroke-opacity: 1; stroke-width: 2px; opacity: 1;"/></g><g class="points"/><g class="text"/></g><g class="trace scatter trace0a4845" style="stroke-miterlimit: 2; opacity: 1;"><g class="fills"/><g class="errorbars"/><g class="lines"><path class="js-line" d="M0,378.25L10.14,382.54L20.28,383.06L40.56,383.08L50.7,383.64L91.26,384.26L101.4,384.31L233.22,383.56L243.36,383.32L283.92,381.52L294.06,380.7L314.34,378.55L324.48,376.96L354.9,371.14L365.04,368.68L375.18,364.72L385.32,358.74L395.46,352.08L405.6,342.86L415.74,328.92L425.88,310.84L436.02,290.04L446.16,267.04L466.44,224.91L476.58,195.19L486.72,157.38L496.86,134.62L507,129.18L517.14,130.34L527.28,125.01L537.42,126.84L547.56,156.09L557.7,153.84L567.84,151.38L577.98,178.45L608.4,247.33L618.54,245.07L628.68,250.02L638.82,275.93L648.96,291.81L659.1,293.48L669.24,276.89L679.38,252.49L689.52,268.78L699.66,318.49L709.8,347.47L719.94,358.88L730.08,363.74L740.22,367.23L750.36,370.76L760.5,371.88L780.78,370.3L790.92,370.62L801.06,371.23L811.2,370.96L821.34,370.77L831.48,373.02L841.62,375.45L851.76,379.77L861.9,384.35L872.04,384.56L993.72,384.25L1003.86,383.41L1014,380.32" style="vector-effect: none; fill: none; stroke: rgb(217, 83, 79); stroke-opacity: 1; stroke-width: 2px; opacity: 1;"/></g><g class="points"/><g class="text"/></g><g class="trace scatter trace824ed5" style="stroke-miterlimit: 2; opacity: 1;"><g class="fills"/><g class="errorbars"/><g class="lines"><path class="js-line" d="M0,382.25L20.28,382.91L30.42,382.27L40.56,380.96L50.7,378.77L70.98,374.05L81.12,373.99L91.26,376.05L101.4,378.92L111.54,381.28L121.68,382.42L141.96,382.53L152.1,382.22L172.38,380.68L182.52,379.03L192.66,376.51L202.8,372.79L212.94,367.37L223.08,359.86L233.22,349.71L243.36,337.24L253.5,322.69L263.64,306.22L273.78,288.07L283.92,268.16L314.34,207.82L324.48,190.35L334.62,176.64L344.76,165.84L354.9,157.94L365.04,153.31L375.18,151.69L385.32,152.32L395.46,155.42L405.6,161.05L415.74,168.15L425.88,176.74L436.02,187.1L446.16,199.04L456.3,212.2L466.44,227.21L507,291.9L517.14,305.54L527.28,317.73L537.42,328.22L547.56,337.14L557.7,344.81L577.98,356.97L588.12,361.85L608.4,369.28L618.54,371.94L638.82,375.26L648.96,376.25L679.38,376.96L689.52,376.94L719.94,378.15L730.08,379.02L790.92,384.1L801.06,384.58L831.48,384.99L841.62,384.99L1014,385" style="vector-effect: none; fill: none; stroke: rgb(240, 173, 78); stroke-opacity: 1; stroke-width: 2px; opacity: 1;"/></g><g class="points"/><g class="text"/></g><g class="trace scatter trace7585c9" style="stroke-miterlimit: 2; opacity: 1;"><g class="fills"/><g class="errorbars"/><g class="lines"><path class="js-line" d="M0,366.84L10.14,379.32L20.28,380.59L30.42,379.8L40.56,379.9L60.84,381.06L70.98,382.11L91.26,383.62L101.4,383.85L162.24,383.8L172.38,383.71L202.8,382.42L212.94,381.33L223.08,379.62L233.22,376.85L243.36,373.28L253.5,368.61L263.64,362.45L273.78,354.24L294.06,333.98L304.2,319.94L314.34,310.8L324.48,298.77L334.62,285.86L344.76,274.36L354.9,261.76L365.04,251.32L385.32,231.85L395.46,224.99L405.6,219.62L415.74,217.84L436.02,216.49L446.16,217.66L456.3,218.91L466.44,223.63L486.72,233.07L496.86,240.01L507,248.43L517.14,258.66L527.28,268.37L537.42,276.43L547.56,285.31L557.7,291.12L567.84,297.42L577.98,304.95L588.12,314.03L598.26,324.99L608.4,332.83L618.54,336.62L628.68,335.77L638.82,330.26L648.96,323.32L659.1,311.87L669.24,301.24L679.38,296.61L689.52,302.24L699.66,315.23L709.8,325.5L719.94,328.87L730.08,326.87L740.22,322.17L750.36,319.56L760.5,326.82L780.78,358.09L790.92,369.11L801.06,374.02L811.2,372.35L821.34,368.69L831.48,368.38L841.62,369.46L851.76,377.2L861.9,384.3L872.04,384.52L993.72,384.19L1003.86,383.4L1014,380.38" style="vector-effect: none; fill: none; stroke: rgb(217, 83, 79); stroke-opacity: 1; stroke-width: 2px; opacity: 1;"/></g><g class="points"/><g class="text"/></g><g class="trace scatter trace741eee" style="stroke-miterlimit: 2; opacity: 1;"><g class="fills"/><g class="errorbars"/><g class="lines"><path class="js-line" d="M0,383.81L30.42,383.6L40.56,382.62L70.98,377.72L81.12,377.73L121.68,383.57L131.82,383.71L162.24,383.17L172.38,382.69L192.66,380.88L202.8,379.27L212.94,376.84L223.08,373.55L233.22,369.29L243.36,363.91L253.5,357.35L263.64,349.82L273.78,341.33L283.92,331.85L294.06,321.22L304.2,309.45L324.48,283.31L334.62,268.84L344.76,252.22L354.9,234.03L385.32,175.1L395.46,157.69L405.6,144.57L415.74,136.84L425.88,134.5L436.02,137.17L446.16,143.03L456.3,150.36L466.44,159.3L476.58,170.37L486.72,184.4L496.86,200.85L507,219.06L517.14,238.84L537.42,278.07L547.56,295.48L557.7,309.13L567.84,321.14L577.98,331.83L588.12,339.49L608.4,352.59L618.54,359.3L628.68,364.49L638.82,367.91L659.1,372.61L669.24,374.01L689.52,376.09L699.66,376.66L740.22,380.17L750.36,381.68L770.64,383.3L780.78,383.62L821.34,384.97L831.48,384.97L1014,384.99" style="vector-effect: none; fill: none; stroke: rgb(92, 184, 92); stroke-opacity: 1; stroke-width: 2px; opacity: 1;"/></g><g class="points"/><g class="text"/></g><g class="trace scatter trace94e7b2" style="stroke-miterlimit: 2; opacity: 1;"><g class="fills"/><g class="errorbars"/><g class="lines"><path class="js-line" d="M0,370.17L10.14,380.74L20.28,382.71L40.56,382.96L50.7,383.66L81.12,384.36L91.26,384.42L192.66,384.05L202.8,383.82L233.22,381.88L243.36,380.53L263.64,376.47L273.78,373.24L294.06,364.97L304.2,359.83L314.34,354.1L324.48,347.05L334.62,339.95L344.76,334.94L405.6,301.19L415.74,294.95L425.88,285.57L436.02,274.74L456.3,252.44L466.44,242.19L476.58,224.55L486.72,199.25L496.86,178.2L507,169.66L517.14,171.96L527.28,158.65L537.42,146.05L547.56,167.73L557.7,165.59L567.84,161.53L577.98,201.04L588.12,227.02L608.4,261.09L618.54,270.35L628.68,279.72L638.82,301.84L648.96,319.17L659.1,327.1L669.24,321.41L679.38,307.5L689.52,316.51L699.66,337.75L709.8,345.75L719.94,345.44L740.22,339.58L750.36,340.17L760.5,346.15L770.64,353.37L801.06,369.42L811.2,371.5L821.34,374.27L831.48,378.48L861.9,384.38L872.04,384.47L993.72,384.1L1003.86,383.22L1014,379.92" style="vector-effect: none; fill: none; stroke: rgb(240, 173, 78); stroke-opacity: 1; stroke-width: 2px; opacity: 1;"/></g><g class="points"/><g class="text"/></g><g class="trace scatter tracef4ca69" style="stroke-miterlimit: 2; opacity: 1;"><g class="fills"/><g class="errorbars"/><g class="lines"><path class="js-line" d="M0,371.39L20.28,374.95L30.42,372.61L40.56,367.1L50.7,357.79L60.84,346.32L70.98,337.64L81.12,337.44L91.26,346.15L101.4,358.86L111.54,369.92L121.68,375.85L131.82,377.79L152.1,378.58L162.24,378.17L182.52,375.52L192.66,372.78L202.8,368.49L212.94,362.25L223.08,353.95L233.22,343.33L243.36,330.34L253.5,315.03L273.78,279.68L283.92,260.08L304.2,220.44L314.34,201.28L324.48,186.74L334.62,178.18L344.76,171.8L354.9,168.17L365.04,167.38L375.18,168.72L385.32,171.94L395.46,176.99L405.6,183.04L415.74,190.24L425.88,198.78L436.02,208.8L456.3,232.59L466.44,245.83L517.14,312.23L527.28,323.76L537.42,334.44L547.56,343.84L557.7,351.93L567.84,358.6L577.98,363.73L588.12,367.48L598.26,369.96L608.4,371.44L628.68,371.85L638.82,371.66L659.1,372.03L669.24,373.34L709.8,381.92L719.94,383.18L740.22,384.42L750.36,384.67L841.62,384.96L851.76,384.96L1014,385" style="vector-effect: none; fill: none; stroke: rgb(217, 83, 79); stroke-opacity: 1; stroke-width: 2px; opacity: 1;"/></g><g class="points"/><g class="text"/></g><g class="trace scatter trace622402" style="stroke-miterlimit: 2; opacity: 1;"><g class="fills"/><g class="errorbars"/><g class="lines"><path class="js-line" d="M0,281.02L10.14,354.26L20.28,366.53L30.42,364.47L40.56,364.83L50.7,366.31L60.84,369.34L81.12,377.68L91.26,380.37L111.54,381.31L121.68,381.46L172.38,381.34L182.52,381.1L202.8,379.73L212.94,378.48L223.08,376.59L233.22,373.73L243.36,369.75L253.5,364.4L263.64,357.41L273.78,348.21L294.06,326.43L304.2,312.12L314.34,304.01L324.48,291.6L334.62,278.03L344.76,266.84L354.9,254.28L365.04,245.06L385.32,228.95L395.46,224.11L405.6,221L415.74,221.05L425.88,222.46L436.02,222.67L456.3,229.25L466.44,235.68L486.72,246.11L496.86,252.01L507,259.98L517.14,269.87L527.28,279.64L537.42,287.4L547.56,295.94L557.7,301.07L567.84,306.26L577.98,312.64L588.12,321.59L598.26,332.57L608.4,340.91L618.54,346.52L628.68,350.35L638.82,351.09L648.96,352L659.1,350.1L669.24,346.37L679.38,341.18L709.8,324.77L719.94,316.88L730.08,309.6L740.22,303.53L750.36,302.28L760.5,313.84L780.78,354.49L790.92,368.02L801.06,374.33L811.2,373.15L831.48,362.14L841.62,359.49L861.9,384.15L872.04,384.51L993.72,384.07L1003.86,383.06L1014,379.7" style="vector-effect: none; fill: none; stroke: rgb(217, 83, 79); stroke-opacity: 1; stroke-width: 2px; opacity: 1;"/></g><g class="points"/><g class="text"/></g><g class="trace scatter trace99bc8b" style="stroke-miterlimit: 2; opacity: 1;"><g class="fills"/><g class="errorbars"/><g class="lines"><path class="js-line" d="M0,379.92L20.28,380.78L30.42,379.34L40.56,376.6L50.7,372.96L60.84,369.5L70.98,367.3L81.12,367.75L91.26,371.13L111.54,379.38L121.68,381.41L141.96,382.24L152.1,382.14L172.38,381.29L182.52,380.37L202.8,377.14L212.94,374.32L223.08,370.58L233.22,365.78L243.36,359.95L253.5,353.11L273.78,336.6L283.92,327.03L304.2,306.04L314.34,294.16L324.48,284.04L334.62,275.88L354.9,256.99L365.04,246.7L405.6,202.62L415.74,193.94L425.88,187.33L436.02,182.72L456.3,177.53L466.44,176.17L476.58,176.58L486.72,179.84L496.86,185.38L507,194.02L517.14,204.93L527.28,217.66L537.42,232.63L547.56,249.47L577.98,302.32L588.12,316.81L608.4,339.91L618.54,349.99L628.68,357.25L638.82,361.92L659.1,368.67L669.24,370.87L709.8,379.02L719.94,380.58L750.36,383.77L760.5,384.37L801.06,384.93L811.2,384.95L1014,385" style="vector-effect: none; fill: none; stroke: rgb(240, 173, 78); stroke-opacity: 1; stroke-width: 2px; opacity: 1;"/></g><g class="points"/><g class="text"/></g><g class="trace scatter trace08ad4f" style="stroke-miterlimit: 2; opacity: 1;"><g class="fills"/><g class="errorbars"/><g class="lines"><path class="js-line" d="M0,339.63L10.14,372.71L20.28,377.63L30.42,376.51L40.56,377.13L50.7,380.36L60.84,382.26L91.26,383.45L101.4,383.67L172.38,383.6L182.52,383.5L212.94,382.51L223.08,381.79L243.36,379.17L253.5,377.3L263.64,374.75L273.78,371.23L294.06,362.87L304.2,357.86L314.34,352.57L324.48,345.75L334.62,339.39L344.76,335.08L375.18,320.07L385.32,314.76L395.46,310.27L405.6,306.85L415.74,303.8L425.88,299.19L446.16,289.3L456.3,284.41L466.44,279.8L476.58,272.23L496.86,252.4L507,247.12L517.14,247.38L527.28,241.18L537.42,237.05L547.56,246.29L557.7,247.99L567.84,246.32L588.12,278.77L598.26,291.36L608.4,301.61L618.54,309.37L628.68,315.31L638.82,325.42L648.96,334.02L659.1,339.56L669.24,334.87L679.38,321.46L689.52,312.06L699.66,304.43L709.8,287.18L719.94,267.99L730.08,247.02L740.22,217.26L750.36,177.42L760.5,156.17L770.64,181.26L780.78,240.84L790.92,306.08L801.06,343.91L811.2,354.64L821.34,360.94L831.48,369.16L841.62,371.05L851.76,377.03L861.9,384.15L902.46,384.54L912.6,384.59L993.72,384.29L1003.86,383.51L1014,380.75" style="vector-effect: none; fill: none; stroke: rgb(217, 83, 79); stroke-opacity: 1; stroke-width: 2px; opacity: 1;"/></g><g class="points"/><g class="text"/></g><g class="trace scatter tracedb33c0" style="stroke-miterlimit: 2; opacity: 1;"><g class="fills"/><g class="errorbars"/><g class="lines"><path class="js-line" d="M0,377.02L20.28,379.85L30.42,379.35L40.56,376.94L50.7,371.64L60.84,365.06L70.98,360.57L81.12,361.1L91.26,366.16L101.4,372.7L111.54,378.16L121.68,380.84L131.82,381.39L152.1,380.77L162.24,379.7L172.38,378.05L182.52,375.4L192.66,371.35L202.8,365.41L212.94,356.87L223.08,345.23L233.22,330.23L243.36,311.82L253.5,290.41L263.64,266.56L283.92,214.7L294.06,187.91L304.2,162.51L314.34,139.58L324.48,121.37L334.62,109.32L344.76,102.82L354.9,102.23L365.04,107.09L375.18,117.09L385.32,131.85L395.46,149.66L405.6,169.71L415.74,191.61L446.16,256.88L456.3,276.65L466.44,294.8L476.58,310.84L486.72,324.82L496.86,336.41L507,345.91L517.14,353.74L527.28,359.94L537.42,364.93L547.56,368.96L557.7,372.17L577.98,376.71L588.12,378.32L608.4,380.49L618.54,381.1L659.1,381.85L669.24,381.84L709.8,382.5L719.94,383.04L760.5,384.51L770.64,384.68L841.62,384.99L851.76,384.99L1014,385" style="vector-effect: none; fill: none; stroke: rgb(240, 173, 78); stroke-opacity: 1; stroke-width: 2px; opacity: 1;"/></g><g class="points"/><g class="text"/></g><g class="trace scatter trace18d1d3" style="stroke-miterlimit: 2; opacity: 1;"><g class="fills"/><g class="errorbars"/><g class="lines"><path class="js-line" d="M0,333.88L10.14,371.15L20.28,376.87L30.42,376.99L40.56,377.89L91.26,382.82L101.4,383.01L172.38,382.73L182.52,382.47L202.8,381.19L212.94,379.88L223.08,377.76L233.22,374.49L243.36,370.09L253.5,364.27L263.64,356.74L273.78,346.1L294.06,319.46L304.2,299.32L314.34,289.91L324.48,274.87L334.62,257.53L344.76,242.42L354.9,226.12L365.04,213.94L385.32,195.1L395.46,189.27L405.6,184.84L415.74,184.98L425.88,186.43L436.02,185.86L456.3,190.94L466.44,199.2L486.72,212.12L496.86,220.45L507,230.1L517.14,242L537.42,263.61L547.56,275.92L557.7,283.99L567.84,294.46L588.12,313.78L598.26,326L608.4,337.21L618.54,346.07L628.68,352.69L638.82,356.04L648.96,360.08L659.1,361.96L689.52,363.94L699.66,365.96L719.94,369.69L730.08,371.3L750.36,373.28L760.5,375.35L780.78,380.87L790.92,382.03L801.06,382.2L811.2,381.22L831.48,378.99L841.62,378.46L861.9,384.39L872.04,384.49L983.58,384.35L993.72,383.87L1003.86,382.92L1014,378.9" style="vector-effect: none; fill: none; stroke: rgb(240, 173, 78); stroke-opacity: 1; stroke-width: 2px; opacity: 1;"/></g><g class="points"/><g class="text"/></g><g class="trace scatter trace6a9fec" style="stroke-miterlimit: 2; opacity: 1;"><g class="fills"/><g class="errorbars"/><g class="lines"><path class="js-line" d="M0,381.04L20.28,382.01L30.42,381.35L40.56,379.41L50.7,375.73L60.84,371.52L70.98,368.59L81.12,368.79L91.26,371.98L111.54,379.9L121.68,381.69L141.96,381.9L152.1,381.46L172.38,379.59L182.52,377.97L192.66,375.55L202.8,372.13L212.94,367.29L223.08,360.63L233.22,352.11L243.36,341.65L253.5,329.3L263.64,315.23L283.92,283.22L294.06,265.28L314.34,229.86L324.48,213.71L344.76,185.52L354.9,174.15L365.04,165.6L375.18,159.18L385.32,155.39L395.46,154.24L405.6,156.08L415.74,161.58L425.88,170.53L436.02,181.18L456.3,205.29L466.44,217.5L476.58,229.45L486.72,243.12L527.28,303.82L537.42,317.42L547.56,329.79L557.7,339.11L567.84,346.46L577.98,352.55L588.12,356.13L598.26,358.51L608.4,362.67L618.54,367.71L628.68,371.13L638.82,372.96L659.1,376.64L669.24,377.66L719.94,382.34L730.08,382.78L770.64,384.74L780.78,384.86L922.74,384.99L932.88,384.99L1014,385" style="vector-effect: none; fill: none; stroke: rgb(240, 173, 78); stroke-opacity: 1; stroke-width: 2px; opacity: 1;"/></g><g class="points"/><g class="text"/></g><g class="trace scatter trace15ace3" style="stroke-miterlimit: 2; opacity: 1;"><g class="fills"/><g class="errorbars"/><g class="lines"><path class="js-line" d="M0,348.29L10.14,375.2L20.28,380.33L40.56,381.49L50.7,382.68L70.98,383.4L81.12,383.53L152.1,383.49L162.24,383.39L202.8,382.3L212.94,381.57L233.22,378.84L243.36,376.71L253.5,373.89L263.64,370.05L273.78,364.64L283.92,358.16L294.06,351.46L304.2,343.53L314.34,334.31L324.48,321.96L334.62,310.49L344.76,303.84L365.04,287.04L375.18,279.02L385.32,271.84L395.46,266.13L415.74,258.7L425.88,252.93L456.3,233.2L466.44,228.65L476.58,220.35L486.72,207.49L496.86,196.05L507,191.63L517.14,194.53L527.28,186.55L537.42,180.57L547.56,197.46L557.7,200.89L567.84,201.49L577.98,226.99L588.12,247.08L608.4,281.03L618.54,294.05L628.68,304.85L638.82,321.42L648.96,333.83L659.1,341.58L669.24,339.38L679.38,330.51L689.52,335.59L699.66,349.78L709.8,356.17L719.94,358.4L730.08,358.57L740.22,357.72L750.36,357.17L760.5,359.49L780.78,368.27L790.92,371.32L801.06,374.24L811.2,374.8L821.34,375.82L831.48,378.68L861.9,384.31L872.04,384.36L983.58,384.32L993.72,383.81L1003.86,382.82L1014,378.72" style="vector-effect: none; fill: none; stroke: rgb(240, 173, 78); stroke-opacity: 1; stroke-width: 2px; opacity: 1;"/></g><g class="points"/><g class="text"/></g><g class="trace scatter traceebd6d7" style="stroke-miterlimit: 2; opacity: 1;"><g class="fills"/><g class="errorbars"/><g class="lines"><path class="js-line" d="M0,316.51L20.28,340.52L30.42,337.7L40.56,328.5L50.7,312.89L60.84,301.77L70.98,301.96L81.12,312.92L91.26,330.19L101.4,347.86L111.54,361.44L121.68,368.96L131.82,372.25L141.96,373.97L152.1,374.79L172.38,374.59L182.52,373.43L192.66,371.47L202.8,368.39L212.94,363.95L223.08,357.68L233.22,349.49L243.36,339.9L253.5,328.73L263.64,316.12L283.92,288.63L294.06,274.29L304.2,260.67L314.34,248.83L324.48,239.6L334.62,232.65L344.76,228.23L354.9,225.79L375.18,221.86L385.32,218.91L395.46,216.37L405.6,214.73L415.74,213.68L425.88,215.47L436.02,219.88L446.16,226.47L466.44,241.51L476.58,250.68L496.86,271.06L507,283.17L537.42,321.76L547.56,333.22L557.7,343.24L567.84,351.37L577.98,357.62L588.12,361.78L598.26,363.81L608.4,363.83L618.54,362.16L628.68,359.68L648.96,354.39L659.1,353.29L669.24,354.12L679.38,357.12L699.66,368.01L709.8,373.33L719.94,377.57L730.08,380.47L750.36,383.44L760.5,384.13L790.92,384.84L801.06,384.88L1014,385" style="vector-effect: none; fill: none; stroke: rgb(217, 83, 79); stroke-opacity: 1; stroke-width: 2px; opacity: 1;"/></g><g class="points"/><g class="text"/></g><g class="trace scatter trace29ffa7" style="stroke-miterlimit: 2; opacity: 1;"><g class="fills"/><g class="errorbars"/><g class="lines"><path class="js-line" d="M0,120.46L10.14,326.5L20.28,349.85L30.42,345.63L40.56,345.97L50.7,348L60.84,352.28L70.98,359.55L81.12,368.98L91.26,376.23L101.4,377.92L131.82,378.93L141.96,378.96L192.66,378.58L202.8,378.07L223.08,375.84L233.22,373.74L243.36,371.17L253.5,367.82L263.64,363.41L273.78,357.32L294.06,342.44L304.2,331.76L314.34,326.14L324.48,317.85L344.76,299.77L354.9,291.07L365.04,285.25L375.18,281L385.32,275.67L395.46,272.64L405.6,270.16L415.74,269.93L425.88,270.48L436.02,270.12L456.3,272.9L466.44,276.88L486.72,284.77L496.86,289.18L517.14,299.99L527.28,305.46L537.42,310.48L547.56,313.96L557.7,311.95L567.84,308.13L577.98,309.22L588.12,318.95L598.26,334.77L608.4,344.27L618.54,348.95L628.68,352.15L648.96,352.94L659.1,351.12L669.24,345.99L679.38,335.72L689.52,319.65L699.66,299.16L709.8,276.4L719.94,257.83L730.08,246.67L740.22,240.15L750.36,237.97L760.5,256.31L780.78,333.2L790.92,355.91L801.06,363.26L811.2,353.72L821.34,334.86L831.48,320.45L841.62,314.52L851.76,350.29L861.9,383.62L872.04,384.51L983.58,384.56L993.72,384.25L1003.86,383.4L1014,380.04" style="vector-effect: none; fill: none; stroke: rgb(217, 83, 79); stroke-opacity: 1; stroke-width: 2px; opacity: 1;"/></g><g class="points"/><g class="text"/></g><g class="trace scatter trace47b6e5" style="stroke-miterlimit: 2; opacity: 1;"><g class="fills"/><g class="errorbars"/><g class="lines"><path class="js-line" d="M0,337.63L10.14,343.92L20.28,343.65L30.42,330.67L40.56,311.58L50.7,287.07L60.84,269.38L70.98,266.41L81.12,280.36L101.4,332.75L111.54,353.59L121.68,365.03L131.82,369.48L141.96,371.69L152.1,372.88L172.38,373.3L182.52,373.02L192.66,372.09L202.8,370.38L212.94,368.08L223.08,364.92L243.36,356.12L253.5,350.62L263.64,344.16L273.78,336.61L294.06,318.96L304.2,309.71L324.48,292.02L334.62,284.24L375.18,256.76L385.32,250.28L395.46,245.79L405.6,242.86L415.74,241.11L425.88,241.15L446.16,243.25L456.3,242.99L476.58,241.37L486.72,242.82L496.86,246.89L507,252.69L527.28,269.43L537.42,278.85L547.56,288.76L557.7,297.54L577.98,315.54L588.12,323.01L618.54,342.88L628.68,347.68L648.96,352.08L659.1,353.09L669.24,353.42L679.38,354.8L709.8,361.77L719.94,365.06L760.5,379.55L770.64,381.67L790.92,383.78L801.06,384.29L841.62,384.83L851.76,384.83L1014,384.99" style="vector-effect: none; fill: none; stroke: rgb(217, 83, 79); stroke-opacity: 1; stroke-width: 2px; opacity: 1;"/></g><g class="points"/><g class="text"/></g><g class="trace scatter traceef898a" style="stroke-miterlimit: 2; opacity: 1;"><g class="fills"/><g class="errorbars"/><g class="lines"><path class="js-line" d="M0,19.25L10.14,296.69L20.28,334.81L30.42,329.65L40.56,337.55L50.7,358.75L60.84,368.09L70.98,371.64L81.12,373.71L101.4,376.7L111.54,377.41L162.24,377.92L172.38,377.82L223.08,376.4L233.22,375.64L253.5,373.21L263.64,371.46L283.92,365.67L294.06,362.24L304.2,358.52L314.34,353.9L334.62,341.62L344.76,337.56L395.46,312.47L405.6,308.31L446.16,297.08L456.3,293.62L476.58,287.59L486.72,283.08L496.86,279.94L507,278.93L517.14,280.26L527.28,278.34L537.42,277.07L547.56,279.17L557.7,275.54L567.84,268.18L577.98,272.83L588.12,287.01L598.26,304.88L608.4,316.26L618.54,323.81L628.68,329.16L648.96,338.47L659.1,341.04L669.24,337.18L679.38,326.6L689.52,315.24L699.66,301.13L709.8,282.13L719.94,265.54L730.08,252.95L740.22,243.22L750.36,238.57L760.5,250.57L780.78,309.53L790.92,328.92L801.06,334.1L811.2,327.45L821.34,328.48L831.48,344.24L841.62,350.13L851.76,366.25L861.9,383.89L872.04,384.44L973.44,384.65L983.58,384.56L1003.86,382.92L1014,379.17" style="vector-effect: none; fill: none; stroke: rgb(217, 83, 79); stroke-opacity: 1; stroke-width: 2px; opacity: 1;"/></g><g class="points"/><g class="text"/></g></g></g></g><path class="xlines-above crisp" d="M0,0" style="fill: none;"/><path class="ylines-above crisp" d="M0,0" style="fill: none;"/><g class="overlines-above"/><g class="xaxislayer-above"><g class="xtick"><text text-anchor="middle" x="0" y="451" transform="translate(60,0)" style="font-family: 'Lucida Grande', 'Open Sans', verdana, arial, sans-serif; font-size: 10px; fill: rgb(0, 0, 0); fill-opacity: 1; white-space: pre; opacity: 1;">0%</text></g><g class="xtick"><text text-anchor="middle" x="0" y="451" style="font-family: 'Lucida Grande', 'Open Sans', verdana, arial, sans-serif; font-size: 10px; fill: rgb(0, 0, 0); fill-opacity: 1; white-space: pre; opacity: 1;" transform="translate(262.8,0)">20%</text></g><g class="xtick"><text text-anchor="middle" x="0" y="451" style="font-family: 'Lucida Grande', 'Open Sans', verdana, arial, sans-serif; font-size: 10px; fill: rgb(0, 0, 0); fill-opacity: 1; white-space: pre; opacity: 1;" transform="translate(465.6,0)">40%</text></g><g class="xtick"><text text-anchor="middle" x="0" y="451" style="font-family: 'Lucida Grande', 'Open Sans', verdana, arial, sans-serif; font-size: 10px; fill: rgb(0, 0, 0); fill-opacity: 1; white-space: pre; opacity: 1;" transform="translate(668.4,0)">60%</text></g><g class="xtick"><text text-anchor="middle" x="0" y="451" style="font-family: 'Lucida Grande', 'Open Sans', verdana, arial, sans-serif; font-size: 10px; fill: rgb(0, 0, 0); fill-opacity: 1; white-space: pre; opacity: 1;" transform="translate(871.2,0)">80%</text></g><g class="xtick"><text text-anchor="middle" x="0" y="451" style="font-family: 'Lucida Grande', 'Open Sans', verdana, arial, sans-serif; font-size: 10px; fill: rgb(0, 0, 0); fill-opacity: 1; white-space: pre; opacity: 1;" transform="translate(1074,0)">100%</text></g></g><g class="yaxislayer-above"><g class="ytick"><text text-anchor="end" x="54" y="3.5" transform="translate(0,435)" style="font-family: 'Lucida Grande', 'Open Sans', verdana, arial, sans-serif; font-size: 10px; fill: rgb(0, 0, 0); fill-opacity: 1; white-space: pre; opacity: 1;">0%</text></g><g class="ytick"><text text-anchor="end" x="54" y="3.5" style="font-family: 'Lucida Grande', 'Open Sans', verdana, arial, sans-serif; font-size: 10px; fill: rgb(0, 0, 0); fill-opacity: 1; white-space: pre; opacity: 1;" transform="translate(0,382.93)">1%</text></g><g class="ytick"><text text-anchor="end" x="54" y="3.5" style="font-family: 'Lucida Grande', 'Open Sans', verdana, arial, sans-serif; font-size: 10px; fill: rgb(0, 0, 0); fill-opacity: 1; white-space: pre; opacity: 1;" transform="translate(0,330.86)">2%</text></g><g class="ytick"><text text-anchor="end" x="54" y="3.5" style="font-family: 'Lucida Grande', 'Open Sans', verdana, arial, sans-serif; font-size: 10px; fill: rgb(0, 0, 0); fill-opacity: 1; white-space: pre; opacity: 1;" transform="translate(0,278.78999999999996)">3%</text></g><g class="ytick"><text text-anchor="end" x="54" y="3.5" style="font-family: 'Lucida Grande', 'Open Sans', verdana, arial, sans-serif; font-size: 10px; fill: rgb(0, 0, 0); fill-opacity: 1; white-space: pre; opacity: 1;" transform="translate(0,226.72)">4%</text></g><g class="ytick"><text text-anchor="end" x="54" y="3.5" style="font-family: 'Lucida Grande', 'Open Sans', verdana, arial, sans-serif; font-size: 10px; fill: rgb(0, 0, 0); fill-opacity: 1; white-space: pre; opacity: 1;" transform="translate(0,174.65)">5%</text></g><g class="ytick"><text text-anchor="end" x="54" y="3.5" style="font-family: 'Lucida Grande', 'Open Sans', verdana, arial, sans-serif; font-size: 10px; fill: rgb(0, 0, 0); fill-opacity: 1; white-space: pre; opacity: 1;" transform="translate(0,122.58)">6%</text></g><g class="ytick"><text text-anchor="end" x="54" y="3.5" style="font-family: 'Lucida Grande', 'Open Sans', verdana, arial, sans-serif; font-size: 10px; fill: rgb(0, 0, 0); fill-opacity: 1; white-space: pre; opacity: 1;" transform="translate(0,70.51)">7%</text></g></g><g class="overaxes-above"/></g></g><g class="polarlayer"/><g class="smithlayer"/><g class="ternarylayer"/><g class="geolayer"/><g class="funnelarealayer"/><g class="pielayer"/><g class="iciclelayer"/><g class="treemaplayer"/><g class="sunburstlayer"/><g class="glimages"/><defs id="topdefs-1416fa"><g class="clips"/></defs><g class="layer-above"><g class="imagelayer"/><g class="shapelayer"/></g><g class="infolayer"><g class="g-gtitle"><text class="gtitle" x="550" y="25" text-anchor="middle" dy="0em" style="opacity: 1; font-family: 'Lucida Grande', 'Open Sans', verdana, arial, sans-serif; font-size: 20px; fill: rgb(42, 63, 95); fill-opacity: 1; white-space: pre;"><tspan class="line" dy="0em" x="550" y="25">FastQC: Per Sequence GC Content</tspan><tspan class="line" dy="1.3em" x="550" y="25"><tspan style="font-size:70%" dy="-0.6em">Percentages, 72 samples</tspan><tspan dy="0.42em"></tspan></tspan></text></g><g class="g-xtitle"><text class="xtitle" x="567" y="472.3" text-anchor="middle" style="opacity: 0.3; font-family: 'Lucida Grande', 'Open Sans', verdana, arial, sans-serif; font-size: 14px; fill: rgb(0, 0, 0); fill-opacity: 1; white-space: pre;">% GC</text></g><g class="g-ytitle"><text class="ytitle" transform="rotate(-90,23.725,242.5)" x="23.725" y="242.5" text-anchor="middle" style="opacity: 0.3; font-family: 'Lucida Grande', 'Open Sans', verdana, arial, sans-serif; font-size: 14px; fill: rgb(0, 0, 0); fill-opacity: 1; white-space: pre;">Percentage</text></g></g></svg>