<svg class="main-svg" xmlns="http://www.w3.org/2000/svg" xmlns:xlink="http://www.w3.org/1999/xlink" width="2200" height="1000" style="" viewBox="0 0 1100 500"><rect x="0" y="0" width="1100" height="500" style="fill: rgb(255, 255, 255); fill-opacity: 1;"/><defs id="defs-dd1896"><g class="clips"><clipPath id="clipdd1896xyplot" class="plotclip"><rect width="999" height="385"/></clipPath><clipPath class="axesclip" id="clipdd1896x"><rect x="71" y="0" width="999" height="500"/></clipPath><clipPath class="axesclip" id="clipdd1896y"><rect x="0" y="50" width="1100" height="385"/></clipPath><clipPath class="axesclip" id="clipdd1896xy"><rect x="71" y="50" width="999" height="385"/></clipPath></g><g class="gradients"/><g class="patterns"/></defs><g class="bglayer"/><g class="layer-below"><g class="imagelayer"/><g class="shapelayer"/></g><g class="cartesianlayer"><g class="subplot xy"><g class="layer-subplot"><g class="shapelayer"/><g class="imagelayer"/></g><g class="minor-gridlayer"><g class="x"/><g class="y"/></g><g class="gridlayer"><g class="x"><path class="xgrid crisp" transform="translate(137.6,0)" d="M0,50v385" style="stroke: rgb(0, 0, 0); stroke-opacity: 0.05; stroke-width: 1px;"/><path class="xgrid crisp" transform="translate(204.2,0)" d="M0,50v385" style="stroke: rgb(0, 0, 0); stroke-opacity: 0.05; stroke-width: 1px;"/><path class="xgrid crisp" transform="translate(270.8,0)" d="M0,50v385" style="stroke: rgb(0, 0, 0); stroke-opacity: 0.05; stroke-width: 1px;"/><path class="xgrid crisp" transform="translate(337.4,0)" d="M0,50v385" style="stroke: rgb(0, 0, 0); stroke-opacity: 0.05; stroke-width: 1px;"/><path class="xgrid crisp" transform="translate(404,0)" d="M0,50v385" style="stroke: rgb(0, 0, 0); stroke-opacity: 0.05; stroke-width: 1px;"/><path class="xgrid crisp" transform="translate(470.6,0)" d="M0,50v385" style="stroke: rgb(0, 0, 0); stroke-opacity: 0.05; stroke-width: 1px;"/><path class="xgrid crisp" transform="translate(537.2,0)" d="M0,50v385" style="stroke: rgb(0, 0, 0); stroke-opacity: 0.05; stroke-width: 1px;"/><path class="xgrid crisp" transform="translate(603.8,0)" d="M0,50v385" style="stroke: rgb(0, 0, 0); stroke-opacity: 0.05; stroke-width: 1px;"/><path class="xgrid crisp" transform="translate(670.4,0)" d="M0,50v385" style="stroke: rgb(0, 0, 0); stroke-opacity: 0.05; stroke-width: 1px;"/><path class="xgrid crisp" transform="translate(737,0)" d="M0,50v385" style="stroke: rgb(0, 0, 0); stroke-opacity: 0.05; stroke-width: 1px;"/><path class="xgrid crisp" transform="translate(803.6,0)" d="M0,50v385" style="stroke: rgb(0, 0, 0); stroke-opacity: 0.05; stroke-width: 1px;"/><path class="xgrid crisp" transform="translate(870.2,0)" d="M0,50v385" style="stroke: rgb(0, 0, 0); stroke-opacity: 0.05; stroke-width: 1px;"/><path class="xgrid crisp" transform="translate(936.8,0)" d="M0,50v385" style="stroke: rgb(0, 0, 0); stroke-opacity: 0.05; stroke-width: 1px;"/><path class="xgrid crisp" transform="translate(1003.4,0)" d="M0,50v385" style="stroke: rgb(0, 0, 0); stroke-opacity: 0.05; stroke-width: 1px;"/></g><g class="y"><path class="ygrid crisp" transform="translate(0,358)" d="M71,0h999" style="stroke: rgb(0, 0, 0); stroke-opacity: 0.05; stroke-width: 1px;"/><path class="ygrid crisp" transform="translate(0,281)" d="M71,0h999" style="stroke: rgb(0, 0, 0); stroke-opacity: 0.05; stroke-width: 1px;"/><path class="ygrid crisp" transform="translate(0,204)" d="M71,0h999" style="stroke: rgb(0, 0, 0); stroke-opacity: 0.05; stroke-width: 1px;"/><path class="ygrid crisp" transform="translate(0,127)" d="M71,0h999" style="stroke: rgb(0, 0, 0); stroke-opacity: 0.05; stroke-width: 1px;"/></g></g><g class="zerolinelayer"><path class="yzl zl crisp" transform="translate(0,435)" d="M71,0h999" style="stroke: rgb(0, 0, 0); stroke-opacity: 0.05; stroke-width: 2px;"/></g><g class="layer-between"><g class="shapelayer"/><g class="imagelayer"/></g><path class="xlines-below"/><path class="ylines-below"/><g class="overlines-below"/><g class="xaxislayer-below"/><g class="yaxislayer-below"/><g class="overaxes-below"/><g class="overplot"><g class="xy" transform="translate(71,50)" clip-path="url(#clipdd1896xyplot)"><g class="scatterlayer mlayer"><g class="trace scatter tracee1f827" style="stroke-miterlimit: 2; opacity: 1;"><g class="fills"/><g class="errorbars"/><g class="lines"><path class="js-line" d="M0,21.74L66.6,374.37L133.2,381.32L199.8,383.11L266.4,384.05L466.2,384.8L532.8,384.81L599.4,383.75L666,384.68L732.6,384.26L799.2,384.63L865.8,384.37L932.4,385L999,385" style="vector-effect: none; fill: none; stroke: rgb(92, 184, 92); stroke-opacity: 1; stroke-width: 2px; opacity: 1;"/></g><g class="points"/><g class="text"/></g><g class="trace scatter trace747907" style="stroke-miterlimit: 2; opacity: 1;"><g class="fills"/><g class="errorbars"/><g class="lines"><path class="js-line" d="M0,142.46L66.6,366.05L133.2,378.22L199.8,380.79L266.4,382.03L466.2,383.24L532.8,383.38L599.4,359.71L666,373.91L732.6,363.57L799.2,376.56L865.8,370.35L932.4,377.79L999,371.39" style="vector-effect: none; fill: none; stroke: rgb(240, 173, 78); stroke-opacity: 1; stroke-width: 2px; opacity: 1;"/></g><g class="points"/><g class="text"/></g><g class="trace scatter trace13e575" style="stroke-miterlimit: 2; opacity: 1;"><g class="fills"/><g class="errorbars"/><g class="lines"><path class="js-line" d="M0,22.19L66.6,373.79L133.2,381.1L199.8,383.21L266.4,384.05L466.2,384.78L532.8,384.85L599.4,383.7L666,384.76L732.6,384.27L799.2,384.69L932.4,385L999,385" style="vector-effect: none; fill: none; stroke: rgb(92, 184, 92); stroke-opacity: 1; stroke-width: 2px; opacity: 1;"/></g><g class="points"/><g class="text"/></g><g class="trace scatter trace1316bf" style="stroke-miterlimit: 2; opacity: 1;"><g class="fills"/><g class="errorbars"/><g class="lines"><path class="js-line" d="M0,139.05L66.6,365.85L133.2,378.45L199.8,381.12L266.4,381.95L532.8,383.38L599.4,359.86L666,373.83L732.6,364.51L799.2,376.85L865.8,370.55L932.4,378.78L999,372.15" style="vector-effect: none; fill: none; stroke: rgb(240, 173, 78); stroke-opacity: 1; stroke-width: 2px; opacity: 1;"/></g><g class="points"/><g class="text"/></g><g class="trace scatter trace5b9ece" style="stroke-miterlimit: 2; opacity: 1;"><g class="fills"/><g class="errorbars"/><g class="lines"><path class="js-line" d="M0,21.61L66.6,375.27L133.2,381.73L266.4,383.85L333,384.17L532.8,384.58L599.4,382.38L666,384.88L732.6,384.87L999,385" style="vector-effect: none; fill: none; stroke: rgb(92, 184, 92); stroke-opacity: 1; stroke-width: 2px; opacity: 1;"/></g><g class="points"/><g class="text"/></g><g class="trace scatter trace6dbd3e" style="stroke-miterlimit: 2; opacity: 1;"><g class="fills"/><g class="errorbars"/><g class="lines"><path class="js-line" d="M0,134.86L66.6,358.07L133.2,376.86L199.8,380.48L266.4,381.85L466.2,383.3L532.8,383.71L599.4,363.59L666,375.08L732.6,364.65L799.2,378.59L865.8,370.03L932.4,381.5L999,377.07" style="vector-effect: none; fill: none; stroke: rgb(92, 184, 92); stroke-opacity: 1; stroke-width: 2px; opacity: 1;"/></g><g class="points"/><g class="text"/></g><g class="trace scatter trace700c10" style="stroke-miterlimit: 2; opacity: 1;"><g class="fills"/><g class="errorbars"/><g class="lines"><path class="js-line" d="M0,22.8L66.6,374.85L133.2,381.32L199.8,383.14L266.4,383.7L532.8,384.41L599.4,382.54L666,384.92L732.6,384.87L999,385" style="vector-effect: none; fill: none; stroke: rgb(92, 184, 92); stroke-opacity: 1; stroke-width: 2px; opacity: 1;"/></g><g class="points"/><g class="text"/></g><g class="trace scatter tracec0b637" style="stroke-miterlimit: 2; opacity: 1;"><g class="fills"/><g class="errorbars"/><g class="lines"><path class="js-line" d="M0,132.65L66.6,357.64L133.2,376.57L199.8,380.57L266.4,382.03L466.2,383.42L532.8,383.34L599.4,363.93L666,375.15L732.6,365.61L799.2,378.51L865.8,370.77L932.4,381.9L999,377.42" style="vector-effect: none; fill: none; stroke: rgb(92, 184, 92); stroke-opacity: 1; stroke-width: 2px; opacity: 1;"/></g><g class="points"/><g class="text"/></g><g class="trace scatter tracef76d8d" style="stroke-miterlimit: 2; opacity: 1;"><g class="fills"/><g class="errorbars"/><g class="lines"><path class="js-line" d="M0,42.73L66.6,371.62L133.2,380.27L199.8,382.09L266.4,383.07L399.6,384L466.2,384.16L532.8,384.31L599.4,376.95L666,382.47L732.6,382.11L799.2,384.47L865.8,384.03L932.4,384.69L999,384.33" style="vector-effect: none; fill: none; stroke: rgb(92, 184, 92); stroke-opacity: 1; stroke-width: 2px; opacity: 1;"/></g><g class="points"/><g class="text"/></g><g class="trace scatter tracef20e9e" style="stroke-miterlimit: 2; opacity: 1;"><g class="fills"/><g class="errorbars"/><g class="lines"><path class="js-line" d="M0,144.89L66.6,361.08L133.2,376.39L199.8,380.07L266.4,381.56L466.2,382.95L532.8,383.33L599.4,360.2L666,374.66L732.6,361.08L799.2,376.66L865.8,370.34L932.4,380.54L999,376.32" style="vector-effect: none; fill: none; stroke: rgb(240, 173, 78); stroke-opacity: 1; stroke-width: 2px; opacity: 1;"/></g><g class="points"/><g class="text"/></g><g class="trace scatter trace328e1d" style="stroke-miterlimit: 2; opacity: 1;"><g class="fills"/><g class="errorbars"/><g class="lines"><path class="js-line" d="M0,16.16L66.6,376.71L133.2,382.86L266.4,384.31L333,384.49L532.8,384.82L599.4,383.38L666,384.69L732.6,384.5L932.4,385L999,385" style="vector-effect: none; fill: none; stroke: rgb(92, 184, 92); stroke-opacity: 1; stroke-width: 2px; opacity: 1;"/></g><g class="points"/><g class="text"/></g><g class="trace scatter trace62d620" style="stroke-miterlimit: 2; opacity: 1;"><g class="fills"/><g class="errorbars"/><g class="lines"><path class="js-line" d="M0,153.36L66.6,360.01L133.2,376.49L199.8,380.19L266.4,381.78L532.8,383.4L599.4,362.46L666,375.52L732.6,362.19L799.2,375.61L865.8,365.3L932.4,377.98L999,372.53" style="vector-effect: none; fill: none; stroke: rgb(240, 173, 78); stroke-opacity: 1; stroke-width: 2px; opacity: 1;"/></g><g class="points"/><g class="text"/></g><g class="trace scatter tracead5a7e" style="stroke-miterlimit: 2; opacity: 1;"><g class="fills"/><g class="errorbars"/><g class="lines"><path class="js-line" d="M0,18.53L66.6,374.93L133.2,382.55L199.8,383.95L266.4,384.25L466.2,384.73L532.8,384.77L599.4,383.2L666,384.66L865.8,384.69L932.4,385L999,385" style="vector-effect: none; fill: none; stroke: rgb(92, 184, 92); stroke-opacity: 1; stroke-width: 2px; opacity: 1;"/></g><g class="points"/><g class="text"/></g><g class="trace scatter tracea784d1" style="stroke-miterlimit: 2; opacity: 1;"><g class="fills"/><g class="errorbars"/><g class="lines"><path class="js-line" d="M0,284.73L66.6,372.79L133.2,379.75L199.8,381.46L266.4,382.1L466.2,383.18L532.8,383.34L599.4,356.22L666,369.12L732.6,332.82L799.2,352.6L865.8,303.91L932.4,363.06L999,364.3" style="vector-effect: none; fill: none; stroke: rgb(217, 83, 79); stroke-opacity: 1; stroke-width: 2px; opacity: 1;"/></g><g class="points"/><g class="text"/></g><g class="trace scatter traceace048" style="stroke-miterlimit: 2; opacity: 1;"><g class="fills"/><g class="errorbars"/><g class="lines"><path class="js-line" d="M0,10.74L66.6,378.79L133.2,383.92L266.4,384.71L333,384.77L532.8,384.92L599.4,384.08L732.6,384.6L799.2,384.88L999,385" style="vector-effect: none; fill: none; stroke: rgb(92, 184, 92); stroke-opacity: 1; stroke-width: 2px; opacity: 1;"/></g><g class="points"/><g class="text"/></g><g class="trace scatter trace235d6e" style="stroke-miterlimit: 2; opacity: 1;"><g class="fills"/><g class="errorbars"/><g class="lines"><path class="js-line" d="M0,291.45L66.6,372.59L133.2,379.55L199.8,381.49L266.4,382.17L466.2,383.13L532.8,383.38L599.4,355.17L666,368.56L732.6,334.11L799.2,354.47L865.8,299.69L932.4,364.55L999,359.05" style="vector-effect: none; fill: none; stroke: rgb(217, 83, 79); stroke-opacity: 1; stroke-width: 2px; opacity: 1;"/></g><g class="points"/><g class="text"/></g><g class="trace scatter tracea8876a" style="stroke-miterlimit: 2; opacity: 1;"><g class="fills"/><g class="errorbars"/><g class="lines"><path class="js-line" d="M0,12.12L66.6,378.25L133.2,383.95L266.4,384.72L333,384.76L532.8,384.93L599.4,383.7L666,384.47L732.6,384.12L799.2,384.93L865.8,384.81L999,385" style="vector-effect: none; fill: none; stroke: rgb(92, 184, 92); stroke-opacity: 1; stroke-width: 2px; opacity: 1;"/></g><g class="points"/><g class="text"/></g><g class="trace scatter traceb673cd" style="stroke-miterlimit: 2; opacity: 1;"><g class="fills"/><g class="errorbars"/><g class="lines"><path class="js-line" d="M0,271.16L66.6,367.41L133.2,376.65L199.8,379.09L266.4,380.26L466.2,381.89L532.8,382.35L599.4,337.08L666,362.49L732.6,309.97L799.2,345.67L865.8,353.04L932.4,383.13L999,382.31" style="vector-effect: none; fill: none; stroke: rgb(217, 83, 79); stroke-opacity: 1; stroke-width: 2px; opacity: 1;"/></g><g class="points"/><g class="text"/></g><g class="trace scatter traceba5f89" style="stroke-miterlimit: 2; opacity: 1;"><g class="fills"/><g class="errorbars"/><g class="lines"><path class="js-line" d="M0,21.06L66.6,376.14L133.2,382.09L199.8,383.55L266.4,384.11L532.8,384.72L599.4,382.42L666,384.32L732.6,383.93L799.2,384.71L865.8,384.55L999,385" style="vector-effect: none; fill: none; stroke: rgb(92, 184, 92); stroke-opacity: 1; stroke-width: 2px; opacity: 1;"/></g><g class="points"/><g class="text"/></g><g class="trace scatter trace2fd4fd" style="stroke-miterlimit: 2; opacity: 1;"><g class="fills"/><g class="errorbars"/><g class="lines"><path class="js-line" d="M0,127.33L66.6,367.85L133.2,378.28L199.8,380.88L266.4,382.12L532.8,383.46L599.4,361.69L666,374.38L732.6,361.38L799.2,376.75L865.8,371.21L932.4,382L999,378.79" style="vector-effect: none; fill: none; stroke: rgb(92, 184, 92); stroke-opacity: 1; stroke-width: 2px; opacity: 1;"/></g><g class="points"/><g class="text"/></g><g class="trace scatter trace011842" style="stroke-miterlimit: 2; opacity: 1;"><g class="fills"/><g class="errorbars"/><g class="lines"><path class="js-line" d="M0,14.11L66.6,378.33L133.2,383.71L266.4,384.57L333,384.75L532.8,384.86L599.4,383.4L666,384.39L732.6,383.8L799.2,384.68L865.8,384.53L999,385" style="vector-effect: none; fill: none; stroke: rgb(92, 184, 92); stroke-opacity: 1; stroke-width: 2px; opacity: 1;"/></g><g class="points"/><g class="text"/></g><g class="trace scatter trace51d474" style="stroke-miterlimit: 2; opacity: 1;"><g class="fills"/><g class="errorbars"/><g class="lines"><path class="js-line" d="M0,276.68L66.6,369.41L133.2,377.59L199.8,379.89L266.4,380.95L466.2,382.4L532.8,382.71L599.4,344.72L666,365.46L732.6,325.48L799.2,349.69L865.8,321.22L932.4,375.37L999,379.84" style="vector-effect: none; fill: none; stroke: rgb(217, 83, 79); stroke-opacity: 1; stroke-width: 2px; opacity: 1;"/></g><g class="points"/><g class="text"/></g><g class="trace scatter traceec7896" style="stroke-miterlimit: 2; opacity: 1;"><g class="fills"/><g class="errorbars"/><g class="lines"><path class="js-line" d="M0,18.18L66.6,377.97L133.2,382.99L266.4,384.28L333,384.57L532.8,384.74L599.4,382.53L666,384.23L732.6,383.77L799.2,384.61L865.8,384.28L932.4,385L999,384.55" style="vector-effect: none; fill: none; stroke: rgb(92, 184, 92); stroke-opacity: 1; stroke-width: 2px; opacity: 1;"/></g><g class="points"/><g class="text"/></g><g class="trace scatter traceb24011" style="stroke-miterlimit: 2; opacity: 1;"><g class="fills"/><g class="errorbars"/><g class="lines"><path class="js-line" d="M0,115.38L66.6,369.76L133.2,379.11L199.8,380.9L266.4,381.91L399.6,383.03L466.2,383.33L532.8,383.44L599.4,360.91L666,374.81L732.6,364.48L799.2,377.43L865.8,374.83L932.4,382.92L999,380.05" style="vector-effect: none; fill: none; stroke: rgb(92, 184, 92); stroke-opacity: 1; stroke-width: 2px; opacity: 1;"/></g><g class="points"/><g class="text"/></g><g class="trace scatter traced0fc50" style="stroke-miterlimit: 2; opacity: 1;"><g class="fills"/><g class="errorbars"/><g class="lines"><path class="js-line" d="M0,19.52L66.6,375.41L133.2,382.78L266.4,384.4L333,384.54L532.8,384.79L599.4,382.96L666,384.47L732.6,383.76L799.2,384.63L865.8,384.48L999,385" style="vector-effect: none; fill: none; stroke: rgb(92, 184, 92); stroke-opacity: 1; stroke-width: 2px; opacity: 1;"/></g><g class="points"/><g class="text"/></g><g class="trace scatter trace9699f7" style="stroke-miterlimit: 2; opacity: 1;"><g class="fills"/><g class="errorbars"/><g class="lines"><path class="js-line" d="M0,226.39L66.6,362.98L133.2,376.28L199.8,379.49L266.4,381.09L532.8,382.85L599.4,350.99L666,370.02L732.6,346.87L799.2,362.78L865.8,332.89L932.4,378.53L999,377.41" style="vector-effect: none; fill: none; stroke: rgb(217, 83, 79); stroke-opacity: 1; stroke-width: 2px; opacity: 1;"/></g><g class="points"/><g class="text"/></g><g class="trace scatter trace66451f" style="stroke-miterlimit: 2; opacity: 1;"><g class="fills"/><g class="errorbars"/><g class="lines"><path class="js-line" d="M0,25.13L66.6,373.2L133.2,382.15L199.8,383.58L266.4,383.97L532.8,384.64L599.4,382.36L666,384.36L732.6,383.84L799.2,384.55L865.8,384.31L999,384.76" style="vector-effect: none; fill: none; stroke: rgb(92, 184, 92); stroke-opacity: 1; stroke-width: 2px; opacity: 1;"/></g><g class="points"/><g class="text"/></g><g class="trace scatter trace069174" style="stroke-miterlimit: 2; opacity: 1;"><g class="fills"/><g class="errorbars"/><g class="lines"><path class="js-line" d="M0,134.54L66.6,349.04L133.2,371.13L199.8,377.13L266.4,379.52L399.6,381.95L466.2,382.46L532.8,382.78L599.4,358.44L666,376.32L732.6,373.34L799.2,382.58L865.8,381.46L932.4,384.49L999,378.82" style="vector-effect: none; fill: none; stroke: rgb(92, 184, 92); stroke-opacity: 1; stroke-width: 2px; opacity: 1;"/></g><g class="points"/><g class="text"/></g><g class="trace scatter traceb5c178" style="stroke-miterlimit: 2; opacity: 1;"><g class="fills"/><g class="errorbars"/><g class="lines"><path class="js-line" d="M0,44.06L66.6,366.31L133.2,379.47L199.8,382.43L266.4,383.29L466.2,384.21L532.8,384.31L599.4,378.99L666,383.92L732.6,383.21L799.2,384.19L865.8,383.32L932.4,384.79L999,384.56" style="vector-effect: none; fill: none; stroke: rgb(92, 184, 92); stroke-opacity: 1; stroke-width: 2px; opacity: 1;"/></g><g class="points"/><g class="text"/></g><g class="trace scatter tracec4705b" style="stroke-miterlimit: 2; opacity: 1;"><g class="fills"/><g class="errorbars"/><g class="lines"><path class="js-line" d="M0,162.12L66.6,353.14L133.2,372.6L199.8,377.82L266.4,380.23L399.6,382.14L466.2,382.54L532.8,383.05L599.4,358.06L666,375.59L732.6,361.05L799.2,373.21L865.8,371.9L932.4,383.26L999,376.97" style="vector-effect: none; fill: none; stroke: rgb(240, 173, 78); stroke-opacity: 1; stroke-width: 2px; opacity: 1;"/></g><g class="points"/><g class="text"/></g><g class="trace scatter traceabe10b" style="stroke-miterlimit: 2; opacity: 1;"><g class="fills"/><g class="errorbars"/><g class="lines"><path class="js-line" d="M0,51.04L66.6,364.5L133.2,379.23L199.8,382.25L266.4,383.02L399.6,383.85L466.2,384.09L532.8,384.23L599.4,376.9L666,383.75L732.6,382.89L799.2,384.17L865.8,383.18L932.4,384.65L999,383.61" style="vector-effect: none; fill: none; stroke: rgb(92, 184, 92); stroke-opacity: 1; stroke-width: 2px; opacity: 1;"/></g><g class="points"/><g class="text"/></g><g class="trace scatter trace54656b" style="stroke-miterlimit: 2; opacity: 1;"><g class="fills"/><g class="errorbars"/><g class="lines"><path class="js-line" d="M0,163.77L66.6,346.28L133.2,369.37L199.8,375.76L266.4,378.54L399.6,381.05L466.2,381.7L532.8,381.99L599.4,353.88L666,375.87L732.6,371.34L799.2,381.86L865.8,381.62L932.4,383L999,368.84" style="vector-effect: none; fill: none; stroke: rgb(240, 173, 78); stroke-opacity: 1; stroke-width: 2px; opacity: 1;"/></g><g class="points"/><g class="text"/></g><g class="trace scatter traceca6dc5" style="stroke-miterlimit: 2; opacity: 1;"><g class="fills"/><g class="errorbars"/><g class="lines"><path class="js-line" d="M0,22.76L66.6,374.56L133.2,382.44L199.8,383.64L266.4,384.07L532.8,384.73L599.4,382.64L666,384.27L732.6,383.56L799.2,384.64L865.8,384.56L999,385" style="vector-effect: none; fill: none; stroke: rgb(92, 184, 92); stroke-opacity: 1; stroke-width: 2px; opacity: 1;"/></g><g class="points"/><g class="text"/></g><g class="trace scatter trace75fbdd" style="stroke-miterlimit: 2; opacity: 1;"><g class="fills"/><g class="errorbars"/><g class="lines"><path class="js-line" d="M0,193.4L66.6,353.42L133.2,372.36L199.8,377.3L266.4,379.17L333,380.59L399.6,381.15L532.8,382.2L599.4,346.51L666,371.85L732.6,351.16L799.2,369.91L865.8,373.36L932.4,383.93L999,376.74" style="vector-effect: none; fill: none; stroke: rgb(240, 173, 78); stroke-opacity: 1; stroke-width: 2px; opacity: 1;"/></g><g class="points"/><g class="text"/></g><g class="trace scatter trace6eb458" style="stroke-miterlimit: 2; opacity: 1;"><g class="fills"/><g class="errorbars"/><g class="lines"><path class="js-line" d="M0,30.07L66.6,369.43L133.2,381.42L199.8,383.32L266.4,384L532.8,384.58L599.4,382.2L666,384.5L732.6,384.1L799.2,384.67L865.8,384.29L932.4,384.88L999,384.31" style="vector-effect: none; fill: none; stroke: rgb(92, 184, 92); stroke-opacity: 1; stroke-width: 2px; opacity: 1;"/></g><g class="points"/><g class="text"/></g><g class="trace scatter trace992e29" style="stroke-miterlimit: 2; opacity: 1;"><g class="fills"/><g class="errorbars"/><g class="lines"><path class="js-line" d="M0,187.16L66.6,344.42L133.2,367.33L199.8,374.23L266.4,377.32L333,379.27L399.6,380L532.8,381.74L599.4,344.82L666,372.08L732.6,365.76L799.2,381.12L865.8,380.64L932.4,383.82L999,374.05" style="vector-effect: none; fill: none; stroke: rgb(240, 173, 78); stroke-opacity: 1; stroke-width: 2px; opacity: 1;"/></g><g class="points"/><g class="text"/></g><g class="trace scatter traced98e7a" style="stroke-miterlimit: 2; opacity: 1;"><g class="fills"/><g class="errorbars"/><g class="lines"><path class="js-line" d="M0,71.49L66.6,367.4L133.2,379.78L199.8,381.99L266.4,382.89L399.6,383.78L466.2,384L532.8,384.16L599.4,374.65L666,382.21L732.6,378.73L799.2,382.23L865.8,377.6L932.4,381.95L999,378.6" style="vector-effect: none; fill: none; stroke: rgb(92, 184, 92); stroke-opacity: 1; stroke-width: 2px; opacity: 1;"/></g><g class="points"/><g class="text"/></g><g class="trace scatter traceb5b795" style="stroke-miterlimit: 2; opacity: 1;"><g class="fills"/><g class="errorbars"/><g class="lines"><path class="js-line" d="M0,158.73L66.6,359.87L133.2,376.05L199.8,379.58L266.4,381.22L466.2,383.16L532.8,383.42L599.4,365.14L666,377.72L732.6,369.39L799.2,381.46L865.8,380.7L932.4,382.6L999,331.19" style="vector-effect: none; fill: none; stroke: rgb(240, 173, 78); stroke-opacity: 1; stroke-width: 2px; opacity: 1;"/></g><g class="points"/><g class="text"/></g><g class="trace scatter trace0ce445" style="stroke-miterlimit: 2; opacity: 1;"><g class="fills"/><g class="errorbars"/><g class="lines"><path class="js-line" d="M0,76.9L66.6,365.02L133.2,378.87L199.8,381.86L266.4,382.96L532.8,384.11L599.4,374.11L666,382.04L732.6,378.72L799.2,381.92L865.8,379.79L932.4,381.65L999,376.13" style="vector-effect: none; fill: none; stroke: rgb(92, 184, 92); stroke-opacity: 1; stroke-width: 2px; opacity: 1;"/></g><g class="points"/><g class="text"/></g><g class="trace scatter tracef4f54c" style="stroke-miterlimit: 2; opacity: 1;"><g class="fills"/><g class="errorbars"/><g class="lines"><path class="js-line" d="M0,155.31L66.6,353.3L133.2,372.65L199.8,377.85L266.4,380.03L399.6,382.17L466.2,382.55L532.8,382.99L599.4,361.69L666,379.1L732.6,375.22L799.2,382.81L865.8,380.77L932.4,382.47L999,344.75" style="vector-effect: none; fill: none; stroke: rgb(240, 173, 78); stroke-opacity: 1; stroke-width: 2px; opacity: 1;"/></g><g class="points"/><g class="text"/></g><g class="trace scatter trace542fd4" style="stroke-miterlimit: 2; opacity: 1;"><g class="fills"/><g class="errorbars"/><g class="lines"><path class="js-line" d="M0,42.73L66.6,371.62L133.2,380.27L199.8,382.09L266.4,383.07L399.6,384L466.2,384.16L532.8,384.31L599.4,376.95L666,382.47L732.6,382.11L799.2,384.47L865.8,384.03L932.4,384.69L999,384.33" style="vector-effect: none; fill: none; stroke: rgb(92, 184, 92); stroke-opacity: 1; stroke-width: 2px; opacity: 1;"/></g><g class="points"/><g class="text"/></g><g class="trace scatter traceec0512" style="stroke-miterlimit: 2; opacity: 1;"><g class="fills"/><g class="errorbars"/><g class="lines"><path class="js-line" d="M0,144.89L66.6,361.08L133.2,376.39L199.8,380.07L266.4,381.56L466.2,382.95L532.8,383.33L599.4,360.2L666,374.66L732.6,361.08L799.2,376.66L865.8,370.34L932.4,380.54L999,376.32" style="vector-effect: none; fill: none; stroke: rgb(240, 173, 78); stroke-opacity: 1; stroke-width: 2px; opacity: 1;"/></g><g class="points"/><g class="text"/></g><g class="trace scatter trace4d66c6" style="stroke-miterlimit: 2; opacity: 1;"><g class="fills"/><g class="errorbars"/><g class="lines"><path class="js-line" d="M0,18.53L66.6,374.93L133.2,382.55L199.8,383.95L266.4,384.25L466.2,384.73L532.8,384.77L599.4,383.2L666,384.66L865.8,384.69L932.4,385L999,385" style="vector-effect: none; fill: none; stroke: rgb(92, 184, 92); stroke-opacity: 1; stroke-width: 2px; opacity: 1;"/></g><g class="points"/><g class="text"/></g><g class="trace scatter trace6b7c31" style="stroke-miterlimit: 2; opacity: 1;"><g class="fills"/><g class="errorbars"/><g class="lines"><path class="js-line" d="M0,284.73L66.6,372.79L133.2,379.75L199.8,381.46L266.4,382.1L466.2,383.18L532.8,383.34L599.4,356.22L666,369.12L732.6,332.82L799.2,352.6L865.8,303.91L932.4,363.06L999,364.3" style="vector-effect: none; fill: none; stroke: rgb(217, 83, 79); stroke-opacity: 1; stroke-width: 2px; opacity: 1;"/></g><g class="points"/><g class="text"/></g><g class="trace scatter tracee43a67" style="stroke-miterlimit: 2; opacity: 1;"><g class="fills"/><g class="errorbars"/><g class="lines"><path class="js-line" d="M0,16.16L66.6,376.71L133.2,382.86L266.4,384.31L333,384.49L532.8,384.82L599.4,383.38L666,384.69L732.6,384.5L932.4,385L999,385" style="vector-effect: none; fill: none; stroke: rgb(92, 184, 92); stroke-opacity: 1; stroke-width: 2px; opacity: 1;"/></g><g class="points"/><g class="text"/></g><g class="trace scatter tracef2ea81" style="stroke-miterlimit: 2; opacity: 1;"><g class="fills"/><g class="errorbars"/><g class="lines"><path class="js-line" d="M0,153.36L66.6,360.01L133.2,376.49L199.8,380.19L266.4,381.78L532.8,383.4L599.4,362.46L666,375.52L732.6,362.19L799.2,375.61L865.8,365.3L932.4,377.98L999,372.53" style="vector-effect: none; fill: none; stroke: rgb(240, 173, 78); stroke-opacity: 1; stroke-width: 2px; opacity: 1;"/></g><g class="points"/><g class="text"/></g><g class="trace scatter traceb25436" style="stroke-miterlimit: 2; opacity: 1;"><g class="fills"/><g class="errorbars"/><g class="lines"><path class="js-line" d="M0,10.74L66.6,378.79L133.2,383.92L266.4,384.71L333,384.77L532.8,384.92L599.4,384.08L732.6,384.6L799.2,384.88L999,385" style="vector-effect: none; fill: none; stroke: rgb(92, 184, 92); stroke-opacity: 1; stroke-width: 2px; opacity: 1;"/></g><g class="points"/><g class="text"/></g><g class="trace scatter trace3e86ab" style="stroke-miterlimit: 2; opacity: 1;"><g class="fills"/><g class="errorbars"/><g class="lines"><path class="js-line" d="M0,291.45L66.6,372.59L133.2,379.55L199.8,381.49L266.4,382.17L466.2,383.13L532.8,383.38L599.4,355.17L666,368.56L732.6,334.11L799.2,354.47L865.8,299.69L932.4,364.55L999,359.05" style="vector-effect: none; fill: none; stroke: rgb(217, 83, 79); stroke-opacity: 1; stroke-width: 2px; opacity: 1;"/></g><g class="points"/><g class="text"/></g><g class="trace scatter trace10900e" style="stroke-miterlimit: 2; opacity: 1;"><g class="fills"/><g class="errorbars"/><g class="lines"><path class="js-line" d="M0,21.06L66.6,376.14L133.2,382.09L199.8,383.55L266.4,384.11L532.8,384.72L599.4,382.42L666,384.32L732.6,383.93L799.2,384.71L865.8,384.55L999,385" style="vector-effect: none; fill: none; stroke: rgb(92, 184, 92); stroke-opacity: 1; stroke-width: 2px; opacity: 1;"/></g><g class="points"/><g class="text"/></g><g class="trace scatter trace934e23" style="stroke-miterlimit: 2; opacity: 1;"><g class="fills"/><g class="errorbars"/><g class="lines"><path class="js-line" d="M0,127.33L66.6,367.85L133.2,378.28L199.8,380.88L266.4,382.12L532.8,383.46L599.4,361.69L666,374.38L732.6,361.38L799.2,376.75L865.8,371.21L932.4,382L999,378.79" style="vector-effect: none; fill: none; stroke: rgb(92, 184, 92); stroke-opacity: 1; stroke-width: 2px; opacity: 1;"/></g><g class="points"/><g class="text"/></g><g class="trace scatter trace7f015a" style="stroke-miterlimit: 2; opacity: 1;"><g class="fills"/><g class="errorbars"/><g class="lines"><path class="js-line" d="M0,12.12L66.6,378.25L133.2,383.95L266.4,384.72L333,384.76L532.8,384.93L599.4,383.7L666,384.47L732.6,384.12L799.2,384.93L865.8,384.81L999,385" style="vector-effect: none; fill: none; stroke: rgb(92, 184, 92); stroke-opacity: 1; stroke-width: 2px; opacity: 1;"/></g><g class="points"/><g class="text"/></g><g class="trace scatter trace7e3d57" style="stroke-miterlimit: 2; opacity: 1;"><g class="fills"/><g class="errorbars"/><g class="lines"><path class="js-line" d="M0,271.16L66.6,367.41L133.2,376.65L199.8,379.09L266.4,380.26L466.2,381.89L532.8,382.35L599.4,337.08L666,362.49L732.6,309.97L799.2,345.67L865.8,353.04L932.4,383.13L999,382.31" style="vector-effect: none; fill: none; stroke: rgb(217, 83, 79); stroke-opacity: 1; stroke-width: 2px; opacity: 1;"/></g><g class="points"/><g class="text"/></g><g class="trace scatter trace67319a" style="stroke-miterlimit: 2; opacity: 1;"><g class="fills"/><g class="errorbars"/><g class="lines"><path class="js-line" d="M0,18.18L66.6,377.97L133.2,382.99L266.4,384.28L333,384.57L532.8,384.74L599.4,382.53L666,384.23L732.6,383.77L799.2,384.61L865.8,384.28L932.4,385L999,384.55" style="vector-effect: none; fill: none; stroke: rgb(92, 184, 92); stroke-opacity: 1; stroke-width: 2px; opacity: 1;"/></g><g class="points"/><g class="text"/></g><g class="trace scatter tracef988be" style="stroke-miterlimit: 2; opacity: 1;"><g class="fills"/><g class="errorbars"/><g class="lines"><path class="js-line" d="M0,115.38L66.6,369.76L133.2,379.11L199.8,380.9L266.4,381.91L399.6,383.03L466.2,383.33L532.8,383.44L599.4,360.91L666,374.81L732.6,364.48L799.2,377.43L865.8,374.83L932.4,382.92L999,380.05" style="vector-effect: none; fill: none; stroke: rgb(92, 184, 92); stroke-opacity: 1; stroke-width: 2px; opacity: 1;"/></g><g class="points"/><g class="text"/></g><g class="trace scatter trace3cc122" style="stroke-miterlimit: 2; opacity: 1;"><g class="fills"/><g class="errorbars"/><g class="lines"><path class="js-line" d="M0,14.11L66.6,378.33L133.2,383.71L266.4,384.57L333,384.75L532.8,384.86L599.4,383.4L666,384.39L732.6,383.8L799.2,384.68L865.8,384.53L999,385" style="vector-effect: none; fill: none; stroke: rgb(92, 184, 92); stroke-opacity: 1; stroke-width: 2px; opacity: 1;"/></g><g class="points"/><g class="text"/></g><g class="trace scatter trace5bcea0" style="stroke-miterlimit: 2; opacity: 1;"><g class="fills"/><g class="errorbars"/><g class="lines"><path class="js-line" d="M0,276.68L66.6,369.41L133.2,377.59L199.8,379.89L266.4,380.95L466.2,382.4L532.8,382.71L599.4,344.72L666,365.46L732.6,325.48L799.2,349.69L865.8,321.22L932.4,375.37L999,379.84" style="vector-effect: none; fill: none; stroke: rgb(217, 83, 79); stroke-opacity: 1; stroke-width: 2px; opacity: 1;"/></g><g class="points"/><g class="text"/></g><g class="trace scatter trace6e2904" style="stroke-miterlimit: 2; opacity: 1;"><g class="fills"/><g class="errorbars"/><g class="lines"><path class="js-line" d="M0,25.13L66.6,373.2L133.2,382.15L199.8,383.58L266.4,383.97L532.8,384.64L599.4,382.36L666,384.36L732.6,383.84L799.2,384.55L865.8,384.31L999,384.76" style="vector-effect: none; fill: none; stroke: rgb(92, 184, 92); stroke-opacity: 1; stroke-width: 2px; opacity: 1;"/></g><g class="points"/><g class="text"/></g><g class="trace scatter trace473590" style="stroke-miterlimit: 2; opacity: 1;"><g class="fills"/><g class="errorbars"/><g class="lines"><path class="js-line" d="M0,134.54L66.6,349.04L133.2,371.13L199.8,377.13L266.4,379.52L399.6,381.95L466.2,382.46L532.8,382.78L599.4,358.44L666,376.32L732.6,373.34L799.2,382.58L865.8,381.46L932.4,384.49L999,378.82" style="vector-effect: none; fill: none; stroke: rgb(92, 184, 92); stroke-opacity: 1; stroke-width: 2px; opacity: 1;"/></g><g class="points"/><g class="text"/></g><g class="trace scatter tracef872d0" style="stroke-miterlimit: 2; opacity: 1;"><g class="fills"/><g class="errorbars"/><g class="lines"><path class="js-line" d="M0,19.52L66.6,375.41L133.2,382.78L266.4,384.4L333,384.54L532.8,384.79L599.4,382.96L666,384.47L732.6,383.76L799.2,384.63L865.8,384.48L999,385" style="vector-effect: none; fill: none; stroke: rgb(92, 184, 92); stroke-opacity: 1; stroke-width: 2px; opacity: 1;"/></g><g class="points"/><g class="text"/></g><g class="trace scatter trace85fb5b" style="stroke-miterlimit: 2; opacity: 1;"><g class="fills"/><g class="errorbars"/><g class="lines"><path class="js-line" d="M0,226.39L66.6,362.98L133.2,376.28L199.8,379.49L266.4,381.09L532.8,382.85L599.4,350.99L666,370.02L732.6,346.87L799.2,362.78L865.8,332.89L932.4,378.53L999,377.41" style="vector-effect: none; fill: none; stroke: rgb(217, 83, 79); stroke-opacity: 1; stroke-width: 2px; opacity: 1;"/></g><g class="points"/><g class="text"/></g><g class="trace scatter tracef29a5b" style="stroke-miterlimit: 2; opacity: 1;"><g class="fills"/><g class="errorbars"/><g class="lines"><path class="js-line" d="M0,51.04L66.6,364.5L133.2,379.23L199.8,382.25L266.4,383.02L399.6,383.85L466.2,384.09L532.8,384.23L599.4,376.9L666,383.75L732.6,382.89L799.2,384.17L865.8,383.18L932.4,384.65L999,383.61" style="vector-effect: none; fill: none; stroke: rgb(92, 184, 92); stroke-opacity: 1; stroke-width: 2px; opacity: 1;"/></g><g class="points"/><g class="text"/></g><g class="trace scatter tracef3a3f2" style="stroke-miterlimit: 2; opacity: 1;"><g class="fills"/><g class="errorbars"/><g class="lines"><path class="js-line" d="M0,163.77L66.6,346.28L133.2,369.37L199.8,375.76L266.4,378.54L399.6,381.05L466.2,381.7L532.8,381.99L599.4,353.88L666,375.87L732.6,371.34L799.2,381.86L865.8,381.62L932.4,383L999,368.84" style="vector-effect: none; fill: none; stroke: rgb(240, 173, 78); stroke-opacity: 1; stroke-width: 2px; opacity: 1;"/></g><g class="points"/><g class="text"/></g><g class="trace scatter trace4212f0" style="stroke-miterlimit: 2; opacity: 1;"><g class="fills"/><g class="errorbars"/><g class="lines"><path class="js-line" d="M0,44.06L66.6,366.31L133.2,379.47L199.8,382.43L266.4,383.29L466.2,384.21L532.8,384.31L599.4,378.99L666,383.92L732.6,383.21L799.2,384.19L865.8,383.32L932.4,384.79L999,384.56" style="vector-effect: none; fill: none; stroke: rgb(92, 184, 92); stroke-opacity: 1; stroke-width: 2px; opacity: 1;"/></g><g class="points"/><g class="text"/></g><g class="trace scatter trace0d217d" style="stroke-miterlimit: 2; opacity: 1;"><g class="fills"/><g class="errorbars"/><g class="lines"><path class="js-line" d="M0,162.12L66.6,353.14L133.2,372.6L199.8,377.82L266.4,380.23L399.6,382.14L466.2,382.54L532.8,383.05L599.4,358.06L666,375.59L732.6,361.05L799.2,373.21L865.8,371.9L932.4,383.26L999,376.97" style="vector-effect: none; fill: none; stroke: rgb(240, 173, 78); stroke-opacity: 1; stroke-width: 2px; opacity: 1;"/></g><g class="points"/><g class="text"/></g><g class="trace scatter trace6a83a9" style="stroke-miterlimit: 2; opacity: 1;"><g class="fills"/><g class="errorbars"/><g class="lines"><path class="js-line" d="M0,30.07L66.6,369.43L133.2,381.42L199.8,383.32L266.4,384L532.8,384.58L599.4,382.2L666,384.5L732.6,384.1L799.2,384.67L865.8,384.29L932.4,384.88L999,384.31" style="vector-effect: none; fill: none; stroke: rgb(92, 184, 92); stroke-opacity: 1; stroke-width: 2px; opacity: 1;"/></g><g class="points"/><g class="text"/></g><g class="trace scatter traceed77bc" style="stroke-miterlimit: 2; opacity: 1;"><g class="fills"/><g class="errorbars"/><g class="lines"><path class="js-line" d="M0,187.16L66.6,344.42L133.2,367.33L199.8,374.23L266.4,377.32L333,379.27L399.6,380L532.8,381.74L599.4,344.82L666,372.08L732.6,365.76L799.2,381.12L865.8,380.64L932.4,383.82L999,374.05" style="vector-effect: none; fill: none; stroke: rgb(240, 173, 78); stroke-opacity: 1; stroke-width: 2px; opacity: 1;"/></g><g class="points"/><g class="text"/></g><g class="trace scatter trace00cefa" style="stroke-miterlimit: 2; opacity: 1;"><g class="fills"/><g class="errorbars"/><g class="lines"><path class="js-line" d="M0,22.76L66.6,374.56L133.2,382.44L199.8,383.64L266.4,384.07L532.8,384.73L599.4,382.64L666,384.27L732.6,383.56L799.2,384.64L865.8,384.56L999,385" style="vector-effect: none; fill: none; stroke: rgb(92, 184, 92); stroke-opacity: 1; stroke-width: 2px; opacity: 1;"/></g><g class="points"/><g class="text"/></g><g class="trace scatter tracee3d552" style="stroke-miterlimit: 2; opacity: 1;"><g class="fills"/><g class="errorbars"/><g class="lines"><path class="js-line" d="M0,193.4L66.6,353.42L133.2,372.36L199.8,377.3L266.4,379.17L333,380.59L399.6,381.15L532.8,382.2L599.4,346.51L666,371.85L732.6,351.16L799.2,369.91L865.8,373.36L932.4,383.93L999,376.74" style="vector-effect: none; fill: none; stroke: rgb(240, 173, 78); stroke-opacity: 1; stroke-width: 2px; opacity: 1;"/></g><g class="points"/><g class="text"/></g><g class="trace scatter trace8de8e6" style="stroke-miterlimit: 2; opacity: 1;"><g class="fills"/><g class="errorbars"/><g class="lines"><path class="js-line" d="M0,76.9L66.6,365.02L133.2,378.87L199.8,381.86L266.4,382.96L532.8,384.11L599.4,374.11L666,382.04L732.6,378.72L799.2,381.92L865.8,379.79L932.4,381.65L999,376.13" style="vector-effect: none; fill: none; stroke: rgb(92, 184, 92); stroke-opacity: 1; stroke-width: 2px; opacity: 1;"/></g><g class="points"/><g class="text"/></g><g class="trace scatter trace779b70" style="stroke-miterlimit: 2; opacity: 1;"><g class="fills"/><g class="errorbars"/><g class="lines"><path class="js-line" d="M0,155.31L66.6,353.3L133.2,372.65L199.8,377.85L266.4,380.03L399.6,382.17L466.2,382.55L532.8,382.99L599.4,361.69L666,379.1L732.6,375.22L799.2,382.81L865.8,380.77L932.4,382.47L999,344.75" style="vector-effect: none; fill: none; stroke: rgb(240, 173, 78); stroke-opacity: 1; stroke-width: 2px; opacity: 1;"/></g><g class="points"/><g class="text"/></g><g class="trace scatter trace8bb546" style="stroke-miterlimit: 2; opacity: 1;"><g class="fills"/><g class="errorbars"/><g class="lines"><path class="js-line" d="M0,71.49L66.6,367.4L133.2,379.78L199.8,381.99L266.4,382.89L399.6,383.78L466.2,384L532.8,384.16L599.4,374.65L666,382.21L732.6,378.73L799.2,382.23L865.8,377.6L932.4,381.95L999,378.6" style="vector-effect: none; fill: none; stroke: rgb(92, 184, 92); stroke-opacity: 1; stroke-width: 2px; opacity: 1;"/></g><g class="points"/><g class="text"/></g><g class="trace scatter trace214fcd" style="stroke-miterlimit: 2; opacity: 1;"><g class="fills"/><g class="errorbars"/><g class="lines"><path class="js-line" d="M0,158.73L66.6,359.87L133.2,376.05L199.8,379.58L266.4,381.22L466.2,383.16L532.8,383.42L599.4,365.14L666,377.72L732.6,369.39L799.2,381.46L865.8,380.7L932.4,382.6L999,331.19" style="vector-effect: none; fill: none; stroke: rgb(240, 173, 78); stroke-opacity: 1; stroke-width: 2px; opacity: 1;"/></g><g class="points"/><g class="text"/></g></g></g></g><path class="xlines-above crisp" d="M0,0" style="fill: none;"/><path class="ylines-above crisp" d="M0,0" style="fill: none;"/><g class="overlines-above"/><g class="xaxislayer-above"><g class="xtick"><text text-anchor="middle" x="0" y="451" transform="translate(71,0)" style="font-family: 'Lucida Grande', 'Open Sans', verdana, arial, sans-serif; font-size: 10px; fill: rgb(0, 0, 0); fill-opacity: 1; white-space: pre; opacity: 1;">1</text></g><g class="xtick"><text text-anchor="middle" x="0" y="451" transform="translate(137.6,0)" style="font-family: 'Lucida Grande', 'Open Sans', verdana, arial, sans-serif; font-size: 10px; fill: rgb(0, 0, 0); fill-opacity: 1; white-space: pre; opacity: 1;">2</text></g><g class="xtick"><text text-anchor="middle" x="0" y="451" transform="translate(204.2,0)" style="font-family: 'Lucida Grande', 'Open Sans', verdana, arial, sans-serif; font-size: 10px; fill: rgb(0, 0, 0); fill-opacity: 1; white-space: pre; opacity: 1;">3</text></g><g class="xtick"><text text-anchor="middle" x="0" y="451" transform="translate(270.8,0)" style="font-family: 'Lucida Grande', 'Open Sans', verdana, arial, sans-serif; font-size: 10px; fill: rgb(0, 0, 0); fill-opacity: 1; white-space: pre; opacity: 1;">4</text></g><g class="xtick"><text text-anchor="middle" x="0" y="451" transform="translate(337.4,0)" style="font-family: 'Lucida Grande', 'Open Sans', verdana, arial, sans-serif; font-size: 10px; fill: rgb(0, 0, 0); fill-opacity: 1; white-space: pre; opacity: 1;">5</text></g><g class="xtick"><text text-anchor="middle" x="0" y="451" transform="translate(404,0)" style="font-family: 'Lucida Grande', 'Open Sans', verdana, arial, sans-serif; font-size: 10px; fill: rgb(0, 0, 0); fill-opacity: 1; white-space: pre; opacity: 1;">6</text></g><g class="xtick"><text text-anchor="middle" x="0" y="451" transform="translate(470.6,0)" style="font-family: 'Lucida Grande', 'Open Sans', verdana, arial, sans-serif; font-size: 10px; fill: rgb(0, 0, 0); fill-opacity: 1; white-space: pre; opacity: 1;">7</text></g><g class="xtick"><text text-anchor="middle" x="0" y="451" transform="translate(537.2,0)" style="font-family: 'Lucida Grande', 'Open Sans', verdana, arial, sans-serif; font-size: 10px; fill: rgb(0, 0, 0); fill-opacity: 1; white-space: pre; opacity: 1;">8</text></g><g class="xtick"><text text-anchor="middle" x="0" y="451" transform="translate(603.8,0)" style="font-family: 'Lucida Grande', 'Open Sans', verdana, arial, sans-serif; font-size: 10px; fill: rgb(0, 0, 0); fill-opacity: 1; white-space: pre; opacity: 1;">9</text></g><g class="xtick"><text text-anchor="middle" x="0" y="451" transform="translate(670.4,0)" style="font-family: 'Lucida Grande', 'Open Sans', verdana, arial, sans-serif; font-size: 10px; fill: rgb(0, 0, 0); fill-opacity: 1; white-space: pre; opacity: 1;">>10</text></g><g class="xtick"><text text-anchor="middle" x="0" y="451" transform="translate(737,0)" style="font-family: 'Lucida Grande', 'Open Sans', verdana, arial, sans-serif; font-size: 10px; fill: rgb(0, 0, 0); fill-opacity: 1; white-space: pre; opacity: 1;">>50</text></g><g class="xtick"><text text-anchor="middle" x="0" y="451" transform="translate(803.6,0)" style="font-family: 'Lucida Grande', 'Open Sans', verdana, arial, sans-serif; font-size: 10px; fill: rgb(0, 0, 0); fill-opacity: 1; white-space: pre; opacity: 1;">>100</text></g><g class="xtick"><text text-anchor="middle" x="0" y="451" transform="translate(870.2,0)" style="font-family: 'Lucida Grande', 'Open Sans', verdana, arial, sans-serif; font-size: 10px; fill: rgb(0, 0, 0); fill-opacity: 1; white-space: pre; opacity: 1;">>500</text></g><g class="xtick"><text text-anchor="middle" x="0" y="451" transform="translate(936.8,0)" style="font-family: 'Lucida Grande', 'Open Sans', verdana, arial, sans-serif; font-size: 10px; fill: rgb(0, 0, 0); fill-opacity: 1; white-space: pre; opacity: 1;">>1k</text></g><g class="xtick"><text text-anchor="middle" x="0" y="451" transform="translate(1003.4,0)" style="font-family: 'Lucida Grande', 'Open Sans', verdana, arial, sans-serif; font-size: 10px; fill: rgb(0, 0, 0); fill-opacity: 1; white-space: pre; opacity: 1;">>5k</text></g><g class="xtick"><text text-anchor="middle" x="0" y="451" transform="translate(1070,0)" style="font-family: 'Lucida Grande', 'Open Sans', verdana, arial, sans-serif; font-size: 10px; fill: rgb(0, 0, 0); fill-opacity: 1; white-space: pre; opacity: 1;">>10k+</text></g></g><g class="yaxislayer-above"><g class="ytick"><text text-anchor="end" x="65" y="3.5" transform="translate(0,435)" style="font-family: 'Lucida Grande', 'Open Sans', verdana, arial, sans-serif; font-size: 10px; fill: rgb(0, 0, 0); fill-opacity: 1; white-space: pre; opacity: 1;">0%</text></g><g class="ytick"><text text-anchor="end" x="65" y="3.5" style="font-family: 'Lucida Grande', 'Open Sans', verdana, arial, sans-serif; font-size: 10px; fill: rgb(0, 0, 0); fill-opacity: 1; white-space: pre; opacity: 1;" transform="translate(0,358)">20%</text></g><g class="ytick"><text text-anchor="end" x="65" y="3.5" style="font-family: 'Lucida Grande', 'Open Sans', verdana, arial, sans-serif; font-size: 10px; fill: rgb(0, 0, 0); fill-opacity: 1; white-space: pre; opacity: 1;" transform="translate(0,281)">40%</text></g><g class="ytick"><text text-anchor="end" x="65" y="3.5" style="font-family: 'Lucida Grande', 'Open Sans', verdana, arial, sans-serif; font-size: 10px; fill: rgb(0, 0, 0); fill-opacity: 1; white-space: pre; opacity: 1;" transform="translate(0,204)">60%</text></g><g class="ytick"><text text-anchor="end" x="65" y="3.5" style="font-family: 'Lucida Grande', 'Open Sans', verdana, arial, sans-serif; font-size: 10px; fill: rgb(0, 0, 0); fill-opacity: 1; white-space: pre; opacity: 1;" transform="translate(0,127)">80%</text></g><g class="ytick"><text text-anchor="end" x="65" y="3.5" style="font-family: 'Lucida Grande', 'Open Sans', verdana, arial, sans-serif; font-size: 10px; fill: rgb(0, 0, 0); fill-opacity: 1; white-space: pre; opacity: 1;" transform="translate(0,50)">100%</text></g></g><g class="overaxes-above"/></g></g><g class="polarlayer"/><g class="smithlayer"/><g class="ternarylayer"/><g class="geolayer"/><g class="funnelarealayer"/><g class="pielayer"/><g class="iciclelayer"/><g class="treemaplayer"/><g class="sunburstlayer"/><g class="glimages"/><defs id="topdefs-dd1896"><g class="clips"/></defs><g class="layer-above"><g class="imagelayer"/><g class="shapelayer"/></g><g class="infolayer"><g class="g-gtitle"><text class="gtitle" x="550" y="25" text-anchor="middle" dy="0em" style="opacity: 1; font-family: 'Lucida Grande', 'Open Sans', verdana, arial, sans-serif; font-size: 20px; fill: rgb(42, 63, 95); fill-opacity: 1; white-space: pre;"><tspan class="line" dy="0em" x="550" y="25">FastQC: Sequence Duplication Levels</tspan><tspan class="line" dy="1.3em" x="550" y="25">​<tspan style="font-size:70%" dy="-0.6em">72 samples</tspan><tspan dy="0.42em">​</tspan></tspan></text></g><g class="g-xtitle"><text class="xtitle" x="570.5" y="472.3" text-anchor="middle" style="opacity: 0.3; font-family: 'Lucida Grande', 'Open Sans', verdana, arial, sans-serif; font-size: 14px; fill: rgb(0, 0, 0); fill-opacity: 1; white-space: pre;">Sequence Duplication Level</text></g><g class="g-ytitle"><text class="ytitle" transform="rotate(-90,22.00625,242.5)" x="22.00625" y="242.5" text-anchor="middle" style="opacity: 0.3; font-family: 'Lucida Grande', 'Open Sans', verdana, arial, sans-serif; font-size: 14px; fill: rgb(0, 0, 0); fill-opacity: 1; white-space: pre;">% of Library</text></g></g></svg>