<svg class="main-svg" xmlns="http://www.w3.org/2000/svg" xmlns:xlink="http://www.w3.org/1999/xlink" width="2200" height="546" style="" viewBox="0 0 1100 273"><rect x="0" y="0" width="1100" height="273" style="fill: rgb(255, 255, 255); fill-opacity: 1;"/><defs id="defs-03e342"><g class="clips"><clipPath id="clip03e342xyplot" class="plotclip"><rect width="1005" height="42.230769230769226"/></clipPath><clipPath id="clip03e342x2y2plot" class="plotclip"><rect width="1005" height="42.230769230769226"/></clipPath><clipPath id="clip03e342x3y3plot" class="plotclip"><rect width="1005" height="42.230769230769226"/></clipPath><clipPath class="axesclip" id="clip03e342x"><rect x="80" y="0" width="1005" height="273"/></clipPath><clipPath class="axesclip" id="clip03e342y"><rect x="0" y="50.00000000000002" width="1100" height="42.230769230769226"/></clipPath><clipPath class="axesclip" id="clip03e342xy"><rect x="80" y="50.00000000000002" width="1005" height="42.230769230769226"/></clipPath><clipPath class="axesclip" id="clip03e342y2"><rect x="0" y="120.3846153846154" width="1100" height="42.230769230769226"/></clipPath><clipPath class="axesclip" id="clip03e342xy2"><rect x="80" y="120.3846153846154" width="1005" height="42.230769230769226"/></clipPath><clipPath class="axesclip" id="clip03e342y3"><rect x="0" y="190.76923076923077" width="1100" height="42.230769230769226"/></clipPath><clipPath class="axesclip" id="clip03e342xy3"><rect x="80" y="190.76923076923077" width="1005" height="42.230769230769226"/></clipPath><clipPath class="axesclip" id="clip03e342x2"><rect x="80" y="0" width="1005" height="273"/></clipPath><clipPath class="axesclip" id="clip03e342x2y"><rect x="80" y="50.00000000000002" width="1005" height="42.230769230769226"/></clipPath><clipPath class="axesclip" id="clip03e342x2y2"><rect x="80" y="120.3846153846154" width="1005" height="42.230769230769226"/></clipPath><clipPath class="axesclip" id="clip03e342x2y3"><rect x="80" y="190.76923076923077" width="1005" height="42.230769230769226"/></clipPath><clipPath class="axesclip" id="clip03e342x3"><rect x="80" y="0" width="1005" height="273"/></clipPath><clipPath class="axesclip" id="clip03e342x3y"><rect x="80" y="50.00000000000002" width="1005" height="42.230769230769226"/></clipPath><clipPath class="axesclip" id="clip03e342x3y2"><rect x="80" y="120.3846153846154" width="1005" height="42.230769230769226"/></clipPath><clipPath class="axesclip" id="clip03e342x3y3"><rect x="80" y="190.76923076923077" width="1005" height="42.230769230769226"/></clipPath></g><g class="gradients"/><g class="patterns"/></defs><g class="bglayer"/><g class="layer-below"><g class="imagelayer"/><g class="shapelayer"/></g><g class="cartesianlayer"><g class="subplot xy"><g class="layer-subplot"><g class="shapelayer"/><g class="imagelayer"/></g><g class="minor-gridlayer"><g class="x"/><g class="y"/></g><g class="gridlayer"><g class="x"><path class="xgrid crisp" transform="translate(256.53,0)" d="M0,50.00000000000002v42.230769230769226" style="stroke: rgb(0, 0, 0); stroke-opacity: 0.1; stroke-width: 1px;"/><path class="xgrid crisp" transform="translate(428.09,0)" d="M0,50.00000000000002v42.230769230769226" style="stroke: rgb(0, 0, 0); stroke-opacity: 0.1; stroke-width: 1px;"/><path class="xgrid crisp" transform="translate(599.64,0)" d="M0,50.00000000000002v42.230769230769226" style="stroke: rgb(0, 0, 0); stroke-opacity: 0.1; stroke-width: 1px;"/><path class="xgrid crisp" transform="translate(771.2,0)" d="M0,50.00000000000002v42.230769230769226" style="stroke: rgb(0, 0, 0); stroke-opacity: 0.1; stroke-width: 1px;"/><path class="xgrid crisp" transform="translate(942.76,0)" d="M0,50.00000000000002v42.230769230769226" style="stroke: rgb(0, 0, 0); stroke-opacity: 0.1; stroke-width: 1px;"/></g><g class="y"><path class="ygrid crisp" transform="translate(0,71.12000000000002)" d="M80,0h1005" style="stroke: rgb(0, 0, 0); stroke-opacity: 0.1; stroke-width: 1px;"/></g></g><g class="zerolinelayer"><path class="xzl zl crisp" transform="translate(84.98,0)" d="M0,50.00000000000002v42.230769230769226" style="stroke: rgb(0, 0, 0); stroke-opacity: 0.1; stroke-width: 2px;"/></g><g class="layer-between"><g class="shapelayer"/><g class="imagelayer"/></g><path class="xlines-below"/><path class="ylines-below"/><g class="overlines-below"/><g class="xaxislayer-below"/><g class="yaxislayer-below"/><g class="overaxes-below"/><g class="overplot"><g class="xy" transform="translate(80,50.00000000000002)" clip-path="url(#clip03e342xyplot)"><g class="violinlayer mlayer"><g class="trace violins" style="opacity: 0.5;"><path class="violin" d="M-50.11,20.42Q-28.88,20.02 -18.26,19.7C-7.64,19.38 2.98,19 13.6,18.51C24.22,18.02 34.84,17.42 45.46,16.75C56.08,16.07 66.7,15.27 77.32,14.46C87.94,13.65 98.55,12.72 109.17,11.87C119.79,11.02 130.41,10.1 141.03,9.35C151.65,8.6 162.27,7.88 172.89,7.38C183.51,6.88 194.13,6.5 204.75,6.33C215.37,6.16 225.98,6.19 236.6,6.36C247.22,6.53 257.84,6.92 268.46,7.36C279.08,7.8 289.7,8.41 300.32,9C310.94,9.59 321.56,10.28 332.18,10.91C342.8,11.54 353.42,12.18 364.04,12.76C374.66,13.34 385.27,13.89 395.89,14.37C406.51,14.85 417.13,15.28 427.75,15.66C438.37,16.04 448.99,16.37 459.61,16.65C470.23,16.93 480.85,17.16 491.47,17.36C502.09,17.56 512.7,17.72 523.32,17.86C533.94,18 544.56,18.1 555.18,18.2C565.8,18.3 576.42,18.37 587.04,18.45C597.66,18.52 608.28,18.58 618.9,18.65C629.52,18.71 640.13,18.78 650.75,18.84C661.37,18.9 671.99,18.96 682.61,19.02C693.23,19.08 703.85,19.13 714.47,19.18C725.09,19.22 735.71,19.26 746.33,19.29C756.95,19.32 767.56,19.34 778.18,19.36C788.8,19.38 799.42,19.38 810.04,19.39C820.66,19.4 831.28,19.4 841.9,19.41C852.52,19.42 863.14,19.42 873.76,19.43C884.38,19.44 895,19.45 905.62,19.46C916.24,19.47 926.85,19.48 937.47,19.49C948.09,19.51 958.71,19.52 969.33,19.55C979.95,19.58 990.57,19.62 1001.19,19.67C1011.81,19.72 1022.43,19.79 1033.05,19.86C1043.67,19.93 1054.28,20.02 1064.9,20.1C1075.52,20.19 1086.14,20.28 1096.76,20.37C1107.38,20.45 1118,20.54 1128.62,20.61C1139.24,20.68 1149.86,20.75 1160.48,20.81Q1171.1,20.87 1192.33,20.95L1192.33,21.28Q1171.1,21.36 1160.48,21.42C1149.86,21.48 1139.24,21.55 1128.62,21.62C1118,21.7 1107.38,21.79 1096.76,21.87C1086.14,21.96 1075.52,22.04 1064.9,22.13C1054.28,22.21 1043.67,22.31 1033.05,22.38C1022.43,22.45 1011.81,22.51 1001.19,22.56C990.57,22.61 979.95,22.65 969.33,22.68C958.71,22.71 948.09,22.72 937.47,22.74C926.85,22.75 916.24,22.76 905.62,22.77C895,22.78 884.38,22.79 873.76,22.8C863.14,22.81 852.52,22.81 841.9,22.82C831.28,22.83 820.66,22.83 810.04,22.84C799.42,22.85 788.8,22.85 778.18,22.87C767.56,22.89 756.95,22.91 746.33,22.94C735.71,22.97 725.09,23.01 714.47,23.05C703.85,23.1 693.23,23.15 682.61,23.21C671.99,23.27 661.37,23.33 650.75,23.39C640.13,23.45 629.52,23.52 618.9,23.58C608.28,23.65 597.66,23.71 587.04,23.78C576.42,23.86 565.8,23.93 555.18,24.03C544.56,24.13 533.94,24.23 523.32,24.37C512.7,24.51 502.09,24.67 491.47,24.87C480.85,25.07 470.23,25.3 459.61,25.58C448.99,25.86 438.37,26.19 427.75,26.57C417.13,26.95 406.51,27.38 395.89,27.86C385.27,28.34 374.66,28.89 364.04,29.47C353.42,30.05 342.8,30.69 332.18,31.32C321.56,31.95 310.94,32.64 300.32,33.23C289.7,33.82 279.08,34.43 268.46,34.87C257.84,35.31 247.22,35.7 236.6,35.87C225.98,36.04 215.37,36.07 204.75,35.9C194.13,35.73 183.51,35.35 172.89,34.85C162.27,34.35 151.65,33.63 141.03,32.88C130.41,32.13 119.79,31.21 109.17,30.36C98.55,29.51 87.94,28.58 77.32,27.77C66.7,26.96 56.08,26.16 45.46,25.48C34.84,24.81 24.22,24.21 13.6,23.72C2.98,23.23 -7.64,22.85 -18.26,22.53Q-28.88,22.21 -50.11,21.81Z" style="vector-effect: none; stroke-width: 2px; stroke: rgb(181, 181, 181); stroke-opacity: 1; fill: rgb(181, 181, 181); fill-opacity: 1;"/><path class="box" d="M245.15,24.81V17.42M193.69,24.81V17.42H416.71V24.81ZM193.69,21.12H142.22M416.71,21.12H656.89" style="vector-effect: non-scaling-stroke; stroke-width: 2px; stroke: rgb(181, 181, 181); stroke-opacity: 1; fill: rgb(181, 181, 181); fill-opacity: 1;"/><path class="mean" d="M346.37,24.81V17.42" style="fill: none; vector-effect: non-scaling-stroke; stroke-width: 2px; stroke-dasharray: 4px, 2px; stroke: rgb(181, 181, 181); stroke-opacity: 1;"/></g></g><g class="scatterlayer mlayer"><g class="trace scatter trace51bb91" style="stroke-miterlimit: 2; opacity: 1;"><g class="fills"/><g class="errorbars"/><g class="lines"/><g class="points"><path class="point" transform="translate(1000,21.12)" d="M2,0A2,2 0 1,1 0,-2A2,2 0 0,1 2,0Z" style="opacity: 1; stroke-width: 0px; fill: rgb(11, 121, 230); fill-opacity: 1;"/></g><g class="text"/></g><g class="trace scatter trace8002de" style="stroke-miterlimit: 2; opacity: 1;"><g class="fills"/><g class="errorbars"/><g class="lines"/><g class="points"><path class="point" transform="translate(828.44,21.12)" d="M2,0A2,2 0 1,1 0,-2A2,2 0 0,1 2,0Z" style="opacity: 1; stroke-width: 0px; fill: rgb(11, 121, 230); fill-opacity: 1;"/></g><g class="text"/></g><g class="trace scatter trace65c255" style="stroke-miterlimit: 2; opacity: 1;"><g class="fills"/><g class="errorbars"/><g class="lines"/><g class="points"><path class="point" transform="translate(656.89,21.12)" d="M2,0A2,2 0 1,1 0,-2A2,2 0 0,1 2,0Z" style="opacity: 1; stroke-width: 0px; fill: rgb(11, 121, 230); fill-opacity: 1;"/></g><g class="text"/></g><g class="trace scatter trace25669e" style="stroke-miterlimit: 2; opacity: 1;"><g class="fills"/><g class="errorbars"/><g class="lines"/><g class="points"><path class="point" transform="translate(553.95,21.12)" d="M2,0A2,2 0 1,1 0,-2A2,2 0 0,1 2,0Z" style="opacity: 1; stroke-width: 0px; fill: rgb(11, 121, 230); fill-opacity: 1;"/></g><g class="text"/></g><g class="trace scatter trace2ffe83" style="stroke-miterlimit: 2; opacity: 1;"><g class="fills"/><g class="errorbars"/><g class="lines"/><g class="points"><path class="point" transform="translate(416.71,21.12)" d="M2,0A2,2 0 1,1 0,-2A2,2 0 0,1 2,0Z" style="opacity: 1; stroke-width: 0px; fill: rgb(11, 121, 230); fill-opacity: 1;"/></g><g class="text"/></g><g class="trace scatter tracee041b1" style="stroke-miterlimit: 2; opacity: 1;"><g class="fills"/><g class="errorbars"/><g class="lines"/><g class="points"><path class="point" transform="translate(416.71,21.12)" d="M2,0A2,2 0 1,1 0,-2A2,2 0 0,1 2,0Z" style="opacity: 1; stroke-width: 0px; fill: rgb(11, 121, 230); fill-opacity: 1;"/></g><g class="text"/></g><g class="trace scatter trace886f50" style="stroke-miterlimit: 2; opacity: 1;"><g class="fills"/><g class="errorbars"/><g class="lines"/><g class="points"><path class="point" transform="translate(313.78,21.12)" d="M2,0A2,2 0 1,1 0,-2A2,2 0 0,1 2,0Z" style="opacity: 1; stroke-width: 0px; fill: rgb(11, 121, 230); fill-opacity: 1;"/></g><g class="text"/></g><g class="trace scatter trace036fc7" style="stroke-miterlimit: 2; opacity: 1;"><g class="fills"/><g class="errorbars"/><g class="lines"/><g class="points"><path class="point" transform="translate(313.78,21.12)" d="M2,0A2,2 0 1,1 0,-2A2,2 0 0,1 2,0Z" style="opacity: 1; stroke-width: 0px; fill: rgb(11, 121, 230); fill-opacity: 1;"/></g><g class="text"/></g><g class="trace scatter traceb12511" style="stroke-miterlimit: 2; opacity: 1;"><g class="fills"/><g class="errorbars"/><g class="lines"/><g class="points"><path class="point" transform="translate(279.46,21.12)" d="M2,0A2,2 0 1,1 0,-2A2,2 0 0,1 2,0Z" style="opacity: 1; stroke-width: 0px; fill: rgb(11, 121, 230); fill-opacity: 1;"/></g><g class="text"/></g><g class="trace scatter trace4a4a7f" style="stroke-miterlimit: 2; opacity: 1;"><g class="fills"/><g class="errorbars"/><g class="lines"/><g class="points"><path class="point" transform="translate(245.15,21.12)" d="M2,0A2,2 0 1,1 0,-2A2,2 0 0,1 2,0Z" style="opacity: 1; stroke-width: 0px; fill: rgb(11, 121, 230); fill-opacity: 1;"/></g><g class="text"/></g><g class="trace scatter trace6f9f48" style="stroke-miterlimit: 2; opacity: 1;"><g class="fills"/><g class="errorbars"/><g class="lines"/><g class="points"><path class="point" transform="translate(245.15,21.12)" d="M2,0A2,2 0 1,1 0,-2A2,2 0 0,1 2,0Z" style="opacity: 1; stroke-width: 0px; fill: rgb(11, 121, 230); fill-opacity: 1;"/></g><g class="text"/></g><g class="trace scatter trace6571f8" style="stroke-miterlimit: 2; opacity: 1;"><g class="fills"/><g class="errorbars"/><g class="lines"/><g class="points"><path class="point" transform="translate(210.84,21.12)" d="M2,0A2,2 0 1,1 0,-2A2,2 0 0,1 2,0Z" style="opacity: 1; stroke-width: 0px; fill: rgb(11, 121, 230); fill-opacity: 1;"/></g><g class="text"/></g><g class="trace scatter trace38e5d5" style="stroke-miterlimit: 2; opacity: 1;"><g class="fills"/><g class="errorbars"/><g class="lines"/><g class="points"><path class="point" transform="translate(210.84,21.12)" d="M2,0A2,2 0 1,1 0,-2A2,2 0 0,1 2,0Z" style="opacity: 1; stroke-width: 0px; fill: rgb(11, 121, 230); fill-opacity: 1;"/></g><g class="text"/></g><g class="trace scatter tracecd579d" style="stroke-miterlimit: 2; opacity: 1;"><g class="fills"/><g class="errorbars"/><g class="lines"/><g class="points"><path class="point" transform="translate(210.84,21.12)" d="M2,0A2,2 0 1,1 0,-2A2,2 0 0,1 2,0Z" style="opacity: 1; stroke-width: 0px; fill: rgb(11, 121, 230); fill-opacity: 1;"/></g><g class="text"/></g><g class="trace scatter traceb62087" style="stroke-miterlimit: 2; opacity: 1;"><g class="fills"/><g class="errorbars"/><g class="lines"/><g class="points"><path class="point" transform="translate(210.84,21.12)" d="M2,0A2,2 0 1,1 0,-2A2,2 0 0,1 2,0Z" style="opacity: 1; stroke-width: 0px; fill: rgb(11, 121, 230); fill-opacity: 1;"/></g><g class="text"/></g><g class="trace scatter traceed3e73" style="stroke-miterlimit: 2; opacity: 1;"><g class="fills"/><g class="errorbars"/><g class="lines"/><g class="points"><path class="point" transform="translate(176.53,21.12)" d="M2,0A2,2 0 1,1 0,-2A2,2 0 0,1 2,0Z" style="opacity: 1; stroke-width: 0px; fill: rgb(11, 121, 230); fill-opacity: 1;"/></g><g class="text"/></g><g class="trace scatter tracec86935" style="stroke-miterlimit: 2; opacity: 1;"><g class="fills"/><g class="errorbars"/><g class="lines"/><g class="points"><path class="point" transform="translate(176.53,21.12)" d="M2,0A2,2 0 1,1 0,-2A2,2 0 0,1 2,0Z" style="opacity: 1; stroke-width: 0px; fill: rgb(11, 121, 230); fill-opacity: 1;"/></g><g class="text"/></g><g class="trace scatter tracea3fef0" style="stroke-miterlimit: 2; opacity: 1;"><g class="fills"/><g class="errorbars"/><g class="lines"/><g class="points"><path class="point" transform="translate(176.53,21.12)" d="M2,0A2,2 0 1,1 0,-2A2,2 0 0,1 2,0Z" style="opacity: 1; stroke-width: 0px; fill: rgb(11, 121, 230); fill-opacity: 1;"/></g><g class="text"/></g><g class="trace scatter tracef78dd5" style="stroke-miterlimit: 2; opacity: 1;"><g class="fills"/><g class="errorbars"/><g class="lines"/><g class="points"><path class="point" transform="translate(142.22,21.12)" d="M2,0A2,2 0 1,1 0,-2A2,2 0 0,1 2,0Z" style="opacity: 1; stroke-width: 0px; fill: rgb(11, 121, 230); fill-opacity: 1;"/></g><g class="text"/></g><g class="trace scatter trace3d2cc5" style="stroke-miterlimit: 2; opacity: 1;"><g class="fills"/><g class="errorbars"/><g class="lines"/><g class="points"><path class="point" transform="translate(142.22,21.12)" d="M2,0A2,2 0 1,1 0,-2A2,2 0 0,1 2,0Z" style="opacity: 1; stroke-width: 0px; fill: rgb(11, 121, 230); fill-opacity: 1;"/></g><g class="text"/></g></g></g></g><path class="xlines-above crisp" d="M0,0" style="fill: none;"/><path class="ylines-above crisp" d="M0,0" style="fill: none;"/><g class="overlines-above"/><g class="xaxislayer-above"><g class="xtick"><text text-anchor="middle" x="0" y="102.23076923076925" transform="translate(84.98,0)" style="font-family: 'Lucida Grande', 'Open Sans', verdana, arial, sans-serif; font-size: 9px; fill: rgb(0, 0, 0); fill-opacity: 0.5; white-space: pre; opacity: 1;">0</text></g><g class="xtick"><text text-anchor="middle" x="0" y="102.23076923076925" style="font-family: 'Lucida Grande', 'Open Sans', verdana, arial, sans-serif; font-size: 9px; fill: rgb(0, 0, 0); fill-opacity: 0.5; white-space: pre; opacity: 1;" transform="translate(256.53,0)">5</text></g><g class="xtick"><text text-anchor="middle" x="0" y="102.23076923076925" style="font-family: 'Lucida Grande', 'Open Sans', verdana, arial, sans-serif; font-size: 9px; fill: rgb(0, 0, 0); fill-opacity: 0.5; white-space: pre; opacity: 1;" transform="translate(428.09,0)">10</text></g><g class="xtick"><text text-anchor="middle" x="0" y="102.23076923076925" style="font-family: 'Lucida Grande', 'Open Sans', verdana, arial, sans-serif; font-size: 9px; fill: rgb(0, 0, 0); fill-opacity: 0.5; white-space: pre; opacity: 1;" transform="translate(599.64,0)">15</text></g><g class="xtick"><text text-anchor="middle" x="0" y="102.23076923076925" style="font-family: 'Lucida Grande', 'Open Sans', verdana, arial, sans-serif; font-size: 9px; fill: rgb(0, 0, 0); fill-opacity: 0.5; white-space: pre; opacity: 1;" transform="translate(771.2,0)">20</text></g><g class="xtick"><text text-anchor="middle" x="0" y="102.23076923076925" style="font-family: 'Lucida Grande', 'Open Sans', verdana, arial, sans-serif; font-size: 9px; fill: rgb(0, 0, 0); fill-opacity: 0.5; white-space: pre; opacity: 1;" transform="translate(942.76,0)">25</text></g></g><g class="yaxislayer-above"><g class="ytick"><text text-anchor="end" x="79" y="3.15" transform="translate(0,71.12000000000002)" style="font-family: 'Lucida Grande', 'Open Sans', verdana, arial, sans-serif; font-size: 9px; fill: rgb(0, 0, 0); fill-opacity: 0.5; white-space: pre; opacity: 1;">Reports  </text></g></g><g class="overaxes-above"/></g><g class="subplot x2y2"><g class="layer-subplot"><g class="shapelayer"/><g class="imagelayer"/></g><g class="minor-gridlayer"><g class="x2"/><g class="y2"/></g><g class="gridlayer"><g class="x2"><path class="x2grid crisp" transform="translate(228.5,0)" d="M0,120.3846153846154v42.230769230769226" style="stroke: rgb(0, 0, 0); stroke-opacity: 0.1; stroke-width: 1px;"/><path class="x2grid crisp" transform="translate(372.03,0)" d="M0,120.3846153846154v42.230769230769226" style="stroke: rgb(0, 0, 0); stroke-opacity: 0.1; stroke-width: 1px;"/><path class="x2grid crisp" transform="translate(515.55,0)" d="M0,120.3846153846154v42.230769230769226" style="stroke: rgb(0, 0, 0); stroke-opacity: 0.1; stroke-width: 1px;"/><path class="x2grid crisp" transform="translate(659.08,0)" d="M0,120.3846153846154v42.230769230769226" style="stroke: rgb(0, 0, 0); stroke-opacity: 0.1; stroke-width: 1px;"/><path class="x2grid crisp" transform="translate(802.61,0)" d="M0,120.3846153846154v42.230769230769226" style="stroke: rgb(0, 0, 0); stroke-opacity: 0.1; stroke-width: 1px;"/><path class="x2grid crisp" transform="translate(946.13,0)" d="M0,120.3846153846154v42.230769230769226" style="stroke: rgb(0, 0, 0); stroke-opacity: 0.1; stroke-width: 1px;"/></g><g class="y2"><path class="y2grid crisp" transform="translate(0,141.5046153846154)" d="M80,0h1005" style="stroke: rgb(0, 0, 0); stroke-opacity: 0.1; stroke-width: 1px;"/></g></g><g class="zerolinelayer"><path class="x2zl zl crisp" transform="translate(84.98,0)" d="M0,120.3846153846154v42.230769230769226" style="stroke: rgb(0, 0, 0); stroke-opacity: 0.1; stroke-width: 2px;"/></g><g class="layer-between"><g class="shapelayer"/><g class="imagelayer"/></g><path class="xlines-below"/><path class="ylines-below"/><g class="overlines-below"/><g class="xaxislayer-below"/><g class="yaxislayer-below"/><g class="overaxes-below"/><g class="overplot"><g class="x2y2" transform="translate(80,120.3846153846154)" clip-path="url(#clip03e342x2y2plot)"><g class="violinlayer mlayer"><g class="trace violins" style="opacity: 0.5;"><path class="violin" d="M-16.02,20.58Q-11.89,20.27 -9.83,20.01C-7.76,19.75 -5.69,19.44 -3.63,19.04C-1.56,18.63 0.52,18.14 2.57,17.57C4.65,16.99 6.71,16.3 8.76,15.57C10.84,14.83 12.9,13.99 14.96,13.17C17.03,12.35 19.09,11.45 21.16,10.66C23.22,9.88 25.27,9.07 27.35,8.45C29.4,7.83 31.47,7.28 33.55,6.93C35.6,6.58 37.68,6.37 39.75,6.33C41.81,6.29 43.88,6.44 45.94,6.68C48.01,6.92 50.08,7.33 52.14,7.76C54.21,8.19 56.27,8.74 58.33,9.26C60.4,9.78 62.46,10.35 64.53,10.89C66.6,11.43 68.66,11.97 70.73,12.49C72.79,13.01 74.85,13.52 76.92,14.01C78.98,14.5 81.05,14.98 83.12,15.45C85.19,15.92 87.25,16.39 89.32,16.82C91.38,17.25 93.44,17.67 95.51,18.05C97.57,18.42 99.64,18.77 101.71,19.07C103.77,19.37 105.84,19.63 107.91,19.84C109.97,20.05 112.03,20.21 114.1,20.33C116.16,20.45 118.23,20.52 120.3,20.56C122.37,20.6 124.43,20.61 126.5,20.59C128.56,20.57 130.63,20.52 132.69,20.46C134.76,20.4 136.82,20.32 138.89,20.25C140.96,20.18 143.02,20.09 145.09,20.02C147.15,19.96 149.22,19.9 151.28,19.86C153.35,19.82 155.41,19.8 157.48,19.8C159.55,19.8 161.61,19.83 163.68,19.87C165.74,19.9 167.81,19.96 169.87,20.01C171.94,20.06 174,20.11 176.07,20.15C178.14,20.19 180.2,20.22 182.27,20.23C184.33,20.24 186.4,20.23 188.46,20.2C190.53,20.17 192.59,20.12 194.66,20.07C196.72,20.02 198.79,19.96 200.85,19.92C202.92,19.88 204.98,19.84 207.05,19.82C209.12,19.8 211.18,19.8 213.25,19.82C215.31,19.84 217.38,19.89 219.44,19.95C221.51,20.01 223.57,20.09 225.64,20.17C227.71,20.25 229.77,20.34 231.84,20.42C233.9,20.5 235.97,20.59 238.03,20.66C240.1,20.73 242.16,20.8 244.23,20.85C246.3,20.9 248.36,20.95 250.43,20.98C252.49,21.01 254.56,21.03 256.62,21.05C258.69,21.07 260.75,21.08 262.82,21.09C264.89,21.1 266.95,21.11 269.02,21.11C271.08,21.11 273.15,21.11 275.21,21.11C277.28,21.11 279.34,21.11 281.41,21.11C283.48,21.11 285.54,21.12 287.61,21.12C289.67,21.12 291.74,21.12 293.8,21.12C295.87,21.12 297.93,21.12 300,21.12C302.07,21.12 304.13,21.12 306.2,21.12C308.26,21.12 310.33,21.12 312.39,21.12C314.46,21.12 316.52,21.12 318.59,21.12C320.66,21.12 322.72,21.12 324.79,21.12C326.85,21.12 328.92,21.12 330.98,21.12C333.05,21.12 335.11,21.12 337.18,21.12C339.25,21.12 341.31,21.12 343.38,21.12C345.44,21.12 347.51,21.12 349.57,21.12C351.64,21.12 353.7,21.12 355.77,21.12C357.83,21.12 359.9,21.11 361.96,21.11C364.03,21.11 366.09,21.11 368.16,21.11C370.23,21.11 372.29,21.11 374.36,21.11C376.42,21.11 378.49,21.1 380.55,21.1C382.62,21.09 384.68,21.09 386.75,21.08C388.82,21.07 390.88,21.06 392.95,21.04C395.01,21.02 397.08,20.99 399.14,20.95C401.21,20.91 403.27,20.87 405.34,20.81C407.41,20.75 409.47,20.69 411.54,20.61C413.6,20.54 415.67,20.44 417.73,20.36C419.8,20.28 421.86,20.19 423.93,20.11C426,20.04 428.06,19.96 430.13,19.91C432.19,19.86 434.26,19.83 436.32,19.82C438.39,19.81 440.45,19.84 442.52,19.88C444.59,19.92 446.65,19.98 448.72,20.05C450.78,20.12 452.85,20.21 454.91,20.29C456.98,20.37 459.04,20.47 461.11,20.55C463.18,20.63 465.24,20.7 467.31,20.76C469.37,20.82 471.44,20.88 473.5,20.92C475.57,20.96 477.63,20.99 479.7,21.02C481.77,21.04 483.83,21.06 485.9,21.07C487.96,21.08 490.03,21.09 492.09,21.1C494.16,21.11 496.22,21.11 498.29,21.11C500.35,21.11 502.42,21.11 504.48,21.11C506.55,21.11 508.61,21.11 510.68,21.11C512.75,21.11 514.81,21.12 516.88,21.12C518.94,21.12 521.01,21.12 523.07,21.12C525.14,21.12 527.2,21.12 529.27,21.12C531.34,21.12 533.4,21.12 535.47,21.12C537.53,21.12 539.6,21.12 541.66,21.12C543.73,21.12 545.79,21.12 547.86,21.12C549.93,21.12 551.99,21.12 554.06,21.12C556.12,21.12 558.19,21.12 560.25,21.12C562.32,21.12 564.38,21.12 566.45,21.12C568.52,21.12 570.58,21.12 572.65,21.12C574.71,21.12 576.78,21.12 578.84,21.12C580.91,21.12 582.97,21.12 585.04,21.12C587.11,21.12 589.17,21.12 591.24,21.12C593.3,21.12 595.37,21.12 597.43,21.12C599.5,21.12 601.56,21.12 603.63,21.12C605.7,21.12 607.76,21.12 609.83,21.12C611.89,21.12 613.96,21.12 616.02,21.12C618.09,21.12 620.15,21.12 622.22,21.12C624.29,21.12 626.35,21.12 628.42,21.12C630.48,21.12 632.55,21.12 634.61,21.12C636.68,21.12 638.74,21.12 640.81,21.12C642.87,21.12 644.94,21.12 647,21.12C649.07,21.12 651.13,21.12 653.2,21.12C655.27,21.12 657.33,21.12 659.4,21.12C661.46,21.12 663.53,21.12 665.59,21.12C667.66,21.12 669.72,21.12 671.79,21.12C673.86,21.12 675.92,21.12 677.99,21.12C680.05,21.12 682.12,21.12 684.18,21.12C686.25,21.12 688.31,21.12 690.38,21.12C692.45,21.12 694.51,21.12 696.58,21.12C698.64,21.12 700.71,21.12 702.77,21.12C704.84,21.12 706.9,21.12 708.97,21.12C711.04,21.12 713.1,21.12 715.17,21.12C717.23,21.12 719.3,21.12 721.36,21.12C723.43,21.12 725.49,21.12 727.56,21.12C729.63,21.12 731.69,21.12 733.76,21.12C735.82,21.12 737.89,21.12 739.95,21.12C742.02,21.12 744.08,21.12 746.15,21.12C748.22,21.12 750.28,21.12 752.35,21.12C754.41,21.12 756.48,21.12 758.54,21.12C760.61,21.12 762.67,21.12 764.74,21.12C766.81,21.12 768.87,21.12 770.94,21.12C773,21.12 775.07,21.12 777.13,21.12C779.2,21.12 781.26,21.12 783.33,21.12C785.4,21.12 787.46,21.12 789.53,21.12C791.59,21.12 793.66,21.12 795.72,21.12C797.79,21.12 799.85,21.12 801.92,21.12C803.98,21.12 806.05,21.12 808.11,21.12C810.18,21.12 812.24,21.12 814.31,21.12C816.38,21.12 818.44,21.12 820.51,21.12C822.57,21.12 824.64,21.12 826.7,21.12C828.77,21.12 830.83,21.12 832.9,21.12C834.97,21.12 837.03,21.12 839.1,21.12C841.16,21.12 843.23,21.12 845.29,21.12C847.36,21.12 849.42,21.12 851.49,21.12C853.56,21.12 855.62,21.12 857.69,21.12C859.75,21.12 861.82,21.12 863.88,21.12C865.95,21.12 868.01,21.12 870.08,21.12C872.15,21.12 874.21,21.12 876.28,21.12C878.34,21.12 880.41,21.12 882.47,21.12C884.54,21.12 886.6,21.12 888.67,21.12C890.74,21.12 892.8,21.12 894.87,21.12C896.93,21.12 899,21.12 901.06,21.12C903.13,21.12 905.19,21.12 907.26,21.12C909.33,21.12 911.39,21.12 913.46,21.12C915.52,21.12 917.59,21.12 919.65,21.12C921.72,21.12 923.78,21.11 925.85,21.11C927.92,21.11 929.98,21.11 932.05,21.11C934.11,21.11 936.18,21.11 938.24,21.11C940.31,21.11 942.37,21.11 944.44,21.1C946.5,21.1 948.57,21.09 950.63,21.08C952.7,21.07 954.76,21.05 956.83,21.03C958.9,21 960.96,20.97 963.03,20.93C965.09,20.89 967.16,20.84 969.22,20.78C971.29,20.72 973.35,20.65 975.42,20.57C977.49,20.49 979.55,20.4 981.62,20.32C983.68,20.24 985.75,20.14 987.81,20.07C989.88,20 991.94,19.93 994.01,19.89C996.08,19.85 998.14,19.82 1000.21,19.82C1002.27,19.82 1004.34,19.86 1006.4,19.9C1008.47,19.95 1010.53,20.02 1012.6,20.09C1014.67,20.16 1016.73,20.26 1018.8,20.34C1020.86,20.42 1022.93,20.52 1024.99,20.59C1027.06,20.67 1029.12,20.73 1031.19,20.79Q1033.26,20.85 1037.39,20.94L1037.39,21.29Q1033.26,21.38 1031.19,21.44C1029.12,21.5 1027.06,21.56 1024.99,21.64C1022.93,21.72 1020.86,21.82 1018.8,21.9C1016.73,21.99 1014.67,22.08 1012.6,22.15C1010.53,22.22 1008.47,22.29 1006.4,22.33C1004.34,22.37 1002.27,22.41 1000.21,22.41C998.14,22.41 996.08,22.38 994.01,22.34C991.94,22.3 989.88,22.23 987.81,22.16C985.75,22.09 983.68,21.99 981.62,21.91C979.55,21.83 977.49,21.74 975.42,21.66C973.35,21.58 971.29,21.51 969.22,21.45C967.16,21.39 965.09,21.34 963.03,21.3C960.96,21.26 958.9,21.24 956.83,21.21C954.76,21.19 952.7,21.16 950.63,21.15C948.57,21.14 946.5,21.13 944.44,21.13C942.37,21.12 940.31,21.12 938.24,21.12C936.18,21.12 934.11,21.12 932.05,21.12C929.98,21.12 927.92,21.12 925.85,21.12C923.78,21.12 921.72,21.12 919.65,21.12C917.59,21.12 915.52,21.12 913.46,21.12C911.39,21.12 909.33,21.12 907.26,21.12C905.19,21.12 903.13,21.12 901.06,21.12C899,21.12 896.93,21.12 894.87,21.12C892.8,21.12 890.74,21.12 888.67,21.12C886.6,21.12 884.54,21.12 882.47,21.12C880.41,21.12 878.34,21.12 876.28,21.12C874.21,21.12 872.15,21.12 870.08,21.12C868.01,21.12 865.95,21.12 863.88,21.12C861.82,21.12 859.75,21.12 857.69,21.12C855.62,21.12 853.56,21.12 851.49,21.12C849.42,21.12 847.36,21.12 845.29,21.12C843.23,21.12 841.16,21.12 839.1,21.12C837.03,21.12 834.97,21.12 832.9,21.12C830.83,21.12 828.77,21.12 826.7,21.12C824.64,21.12 822.57,21.12 820.51,21.12C818.44,21.12 816.38,21.12 814.31,21.12C812.24,21.12 810.18,21.12 808.11,21.12C806.05,21.12 803.98,21.12 801.92,21.12C799.85,21.12 797.79,21.12 795.72,21.12C793.66,21.12 791.59,21.12 789.53,21.12C787.46,21.12 785.4,21.12 783.33,21.12C781.26,21.12 779.2,21.12 777.13,21.12C775.07,21.12 773,21.12 770.94,21.12C768.87,21.12 766.81,21.12 764.74,21.12C762.67,21.12 760.61,21.12 758.54,21.12C756.48,21.12 754.41,21.12 752.35,21.12C750.28,21.12 748.22,21.12 746.15,21.12C744.08,21.12 742.02,21.12 739.95,21.12C737.89,21.12 735.82,21.12 733.76,21.12C731.69,21.12 729.63,21.12 727.56,21.12C725.49,21.12 723.43,21.12 721.36,21.12C719.3,21.12 717.23,21.12 715.17,21.12C713.1,21.12 711.04,21.12 708.97,21.12C706.9,21.12 704.84,21.12 702.77,21.12C700.71,21.12 698.64,21.12 696.58,21.12C694.51,21.12 692.45,21.12 690.38,21.12C688.31,21.12 686.25,21.12 684.18,21.12C682.12,21.12 680.05,21.12 677.99,21.12C675.92,21.12 673.86,21.12 671.79,21.12C669.72,21.12 667.66,21.12 665.59,21.12C663.53,21.12 661.46,21.12 659.4,21.12C657.33,21.12 655.27,21.12 653.2,21.12C651.13,21.12 649.07,21.12 647,21.12C644.94,21.12 642.87,21.12 640.81,21.12C638.74,21.12 636.68,21.12 634.61,21.12C632.55,21.12 630.48,21.12 628.42,21.12C626.35,21.12 624.29,21.12 622.22,21.12C620.15,21.12 618.09,21.12 616.02,21.12C613.96,21.12 611.89,21.12 609.83,21.12C607.76,21.12 605.7,21.12 603.63,21.12C601.56,21.12 599.5,21.12 597.43,21.12C595.37,21.12 593.3,21.12 591.24,21.12C589.17,21.12 587.11,21.12 585.04,21.12C582.97,21.12 580.91,21.12 578.84,21.12C576.78,21.12 574.71,21.12 572.65,21.12C570.58,21.12 568.52,21.12 566.45,21.12C564.38,21.12 562.32,21.12 560.25,21.12C558.19,21.12 556.12,21.12 554.06,21.12C551.99,21.12 549.93,21.12 547.86,21.12C545.79,21.12 543.73,21.12 541.66,21.12C539.6,21.12 537.53,21.12 535.47,21.12C533.4,21.12 531.34,21.12 529.27,21.12C527.2,21.12 525.14,21.12 523.07,21.12C521.01,21.12 518.94,21.12 516.88,21.12C514.81,21.12 512.75,21.12 510.68,21.12C508.61,21.12 506.55,21.12 504.48,21.12C502.42,21.12 500.35,21.12 498.29,21.12C496.22,21.12 494.16,21.12 492.09,21.13C490.03,21.14 487.96,21.15 485.9,21.16C483.83,21.17 481.77,21.19 479.7,21.21C477.63,21.24 475.57,21.27 473.5,21.31C471.44,21.35 469.37,21.41 467.31,21.47C465.24,21.53 463.18,21.6 461.11,21.68C459.04,21.76 456.98,21.86 454.91,21.94C452.85,22.02 450.78,22.11 448.72,22.18C446.65,22.25 444.59,22.31 442.52,22.35C440.45,22.39 438.39,22.42 436.32,22.41C434.26,22.4 432.19,22.37 430.13,22.32C428.06,22.27 426,22.19 423.93,22.12C421.86,22.04 419.8,21.95 417.73,21.87C415.67,21.79 413.6,21.69 411.54,21.62C409.47,21.54 407.41,21.48 405.34,21.42C403.27,21.36 401.21,21.32 399.14,21.28C397.08,21.24 395.01,21.21 392.95,21.19C390.88,21.17 388.82,21.16 386.75,21.15C384.68,21.14 382.62,21.14 380.55,21.13C378.49,21.13 376.42,21.12 374.36,21.12C372.29,21.12 370.23,21.12 368.16,21.12C366.09,21.12 364.03,21.12 361.96,21.12C359.9,21.12 357.83,21.12 355.77,21.12C353.7,21.12 351.64,21.12 349.57,21.12C347.51,21.12 345.44,21.12 343.38,21.12C341.31,21.12 339.25,21.12 337.18,21.12C335.11,21.12 333.05,21.12 330.98,21.12C328.92,21.12 326.85,21.12 324.79,21.12C322.72,21.12 320.66,21.12 318.59,21.12C316.52,21.12 314.46,21.12 312.39,21.12C310.33,21.12 308.26,21.12 306.2,21.12C304.13,21.12 302.07,21.12 300,21.12C297.93,21.12 295.87,21.12 293.8,21.12C291.74,21.12 289.67,21.12 287.61,21.12C285.54,21.12 283.48,21.12 281.41,21.12C279.34,21.12 277.28,21.12 275.21,21.12C273.15,21.12 271.08,21.13 269.02,21.13C266.95,21.13 264.89,21.13 262.82,21.14C260.75,21.15 258.69,21.16 256.62,21.18C254.56,21.2 252.49,21.22 250.43,21.25C248.36,21.28 246.3,21.33 244.23,21.38C242.16,21.43 240.1,21.5 238.03,21.57C235.97,21.64 233.9,21.73 231.84,21.81C229.77,21.89 227.71,21.98 225.64,22.06C223.57,22.14 221.51,22.22 219.44,22.28C217.38,22.34 215.31,22.39 213.25,22.41C211.18,22.43 209.12,22.43 207.05,22.41C204.98,22.39 202.92,22.35 200.85,22.31C198.79,22.27 196.72,22.2 194.66,22.16C192.59,22.11 190.53,22.07 188.46,22.04C186.4,22.01 184.33,21.99 182.27,22C180.2,22.01 178.14,22.04 176.07,22.08C174,22.12 171.94,22.17 169.87,22.22C167.81,22.27 165.74,22.33 163.68,22.36C161.61,22.4 159.55,22.43 157.48,22.43C155.41,22.43 153.35,22.42 151.28,22.38C149.22,22.34 147.15,22.28 145.09,22.21C143.02,22.14 140.96,22.05 138.89,21.98C136.82,21.91 134.76,21.83 132.69,21.77C130.63,21.71 128.56,21.66 126.5,21.64C124.43,21.62 122.37,21.63 120.3,21.67C118.23,21.71 116.16,21.78 114.1,21.9C112.03,22.02 109.97,22.18 107.91,22.39C105.84,22.6 103.77,22.86 101.71,23.16C99.64,23.46 97.57,23.81 95.51,24.18C93.44,24.56 91.38,24.98 89.32,25.41C87.25,25.84 85.19,26.31 83.12,26.78C81.05,27.25 78.98,27.74 76.92,28.23C74.85,28.72 72.79,29.22 70.73,29.74C68.66,30.26 66.6,30.8 64.53,31.34C62.46,31.88 60.4,32.45 58.33,32.97C56.27,33.49 54.21,34.04 52.14,34.47C50.08,34.9 48.01,35.31 45.94,35.55C43.88,35.79 41.81,35.94 39.75,35.9C37.68,35.86 35.6,35.65 33.55,35.3C31.47,34.95 29.4,34.4 27.35,33.78C25.27,33.16 23.22,32.35 21.16,31.57C19.09,30.78 17.03,29.88 14.96,29.06C12.9,28.24 10.84,27.4 8.76,26.66C6.71,25.93 4.65,25.24 2.57,24.66C0.52,24.09 -1.56,23.6 -3.63,23.19C-5.69,22.79 -7.76,22.48 -9.83,22.22Q-11.89,21.96 -16.02,21.65Z" style="vector-effect: none; stroke-width: 2px; stroke: rgb(181, 181, 181); stroke-opacity: 1; fill: rgb(181, 181, 181); fill-opacity: 1;"/><path class="box" d="M46.73,24.81V17.42M36.2,24.81V17.42H79.55V24.81ZM36.2,21.12H21.36M79.55,21.12H84.46" style="vector-effect: non-scaling-stroke; stroke-width: 2px; stroke: rgb(181, 181, 181); stroke-opacity: 1; fill: rgb(181, 181, 181); fill-opacity: 1;"/><path class="mean" d="M127.44,24.81V17.42" style="fill: none; vector-effect: non-scaling-stroke; stroke-width: 2px; stroke-dasharray: 4px, 2px; stroke: rgb(181, 181, 181); stroke-opacity: 1;"/></g></g><g class="scatterlayer mlayer"><g class="trace scatter tracea55844" style="stroke-miterlimit: 2; opacity: 1;"><g class="fills"/><g class="errorbars"/><g class="lines"/><g class="points"><path class="point" transform="translate(1000,21.12)" d="M2,0A2,2 0 1,1 0,-2A2,2 0 0,1 2,0Z" style="opacity: 1; stroke-width: 0px; fill: rgb(11, 121, 230); fill-opacity: 1;"/></g><g class="text"/></g><g class="trace scatter tracede6cc7" style="stroke-miterlimit: 2; opacity: 1;"><g class="fills"/><g class="errorbars"/><g class="lines"/><g class="points"><path class="point" transform="translate(437.11,21.12)" d="M2,0A2,2 0 1,1 0,-2A2,2 0 0,1 2,0Z" style="opacity: 1; stroke-width: 0px; fill: rgb(11, 121, 230); fill-opacity: 1;"/></g><g class="text"/></g><g class="trace scatter trace424a4a" style="stroke-miterlimit: 2; opacity: 1;"><g class="fills"/><g class="errorbars"/><g class="lines"/><g class="points"><path class="point" transform="translate(156.16,21.12)" d="M2,0A2,2 0 1,1 0,-2A2,2 0 0,1 2,0Z" style="opacity: 1; stroke-width: 0px; fill: rgb(11, 121, 230); fill-opacity: 1;"/></g><g class="text"/></g><g class="trace scatter tracedbf743" style="stroke-miterlimit: 2; opacity: 1;"><g class="fills"/><g class="errorbars"/><g class="lines"/><g class="points"><path class="point" transform="translate(210.89,21.12)" d="M2,0A2,2 0 1,1 0,-2A2,2 0 0,1 2,0Z" style="opacity: 1; stroke-width: 0px; fill: rgb(11, 121, 230); fill-opacity: 1;"/></g><g class="text"/></g><g class="trace scatter trace7bf844" style="stroke-miterlimit: 2; opacity: 1;"><g class="fills"/><g class="errorbars"/><g class="lines"/><g class="points"><path class="point" transform="translate(84.46,21.12)" d="M2,0A2,2 0 1,1 0,-2A2,2 0 0,1 2,0Z" style="opacity: 1; stroke-width: 0px; fill: rgb(11, 121, 230); fill-opacity: 1;"/></g><g class="text"/></g><g class="trace scatter trace13cf6c" style="stroke-miterlimit: 2; opacity: 1;"><g class="fills"/><g class="errorbars"/><g class="lines"/><g class="points"><path class="point" transform="translate(44.83,21.12)" d="M2,0A2,2 0 1,1 0,-2A2,2 0 0,1 2,0Z" style="opacity: 1; stroke-width: 0px; fill: rgb(11, 121, 230); fill-opacity: 1;"/></g><g class="text"/></g><g class="trace scatter traced451b6" style="stroke-miterlimit: 2; opacity: 1;"><g class="fills"/><g class="errorbars"/><g class="lines"/><g class="points"><path class="point" transform="translate(35.42,21.12)" d="M2,0A2,2 0 1,1 0,-2A2,2 0 0,1 2,0Z" style="opacity: 1; stroke-width: 0px; fill: rgb(11, 121, 230); fill-opacity: 1;"/></g><g class="text"/></g><g class="trace scatter trace6c73cf" style="stroke-miterlimit: 2; opacity: 1;"><g class="fills"/><g class="errorbars"/><g class="lines"/><g class="points"><path class="point" transform="translate(42.41,21.12)" d="M2,0A2,2 0 1,1 0,-2A2,2 0 0,1 2,0Z" style="opacity: 1; stroke-width: 0px; fill: rgb(11, 121, 230); fill-opacity: 1;"/></g><g class="text"/></g><g class="trace scatter traceee222b" style="stroke-miterlimit: 2; opacity: 1;"><g class="fills"/><g class="errorbars"/><g class="lines"/><g class="points"><path class="point" transform="translate(51.24,21.12)" d="M2,0A2,2 0 1,1 0,-2A2,2 0 0,1 2,0Z" style="opacity: 1; stroke-width: 0px; fill: rgb(11, 121, 230); fill-opacity: 1;"/></g><g class="text"/></g><g class="trace scatter trace1f9eab" style="stroke-miterlimit: 2; opacity: 1;"><g class="fills"/><g class="errorbars"/><g class="lines"/><g class="points"><path class="point" transform="translate(38.26,21.12)" d="M2,0A2,2 0 1,1 0,-2A2,2 0 0,1 2,0Z" style="opacity: 1; stroke-width: 0px; fill: rgb(11, 121, 230); fill-opacity: 1;"/></g><g class="text"/></g><g class="trace scatter tracee2b82e" style="stroke-miterlimit: 2; opacity: 1;"><g class="fills"/><g class="errorbars"/><g class="lines"/><g class="points"><path class="point" transform="translate(74.65,21.12)" d="M2,0A2,2 0 1,1 0,-2A2,2 0 0,1 2,0Z" style="opacity: 1; stroke-width: 0px; fill: rgb(11, 121, 230); fill-opacity: 1;"/></g><g class="text"/></g><g class="trace scatter trace4736bd" style="stroke-miterlimit: 2; opacity: 1;"><g class="fills"/><g class="errorbars"/><g class="lines"/><g class="points"><path class="point" transform="translate(29.27,21.12)" d="M2,0A2,2 0 1,1 0,-2A2,2 0 0,1 2,0Z" style="opacity: 1; stroke-width: 0px; fill: rgb(11, 121, 230); fill-opacity: 1;"/></g><g class="text"/></g><g class="trace scatter tracefea6a2" style="stroke-miterlimit: 2; opacity: 1;"><g class="fills"/><g class="errorbars"/><g class="lines"/><g class="points"><path class="point" transform="translate(43.49,21.12)" d="M2,0A2,2 0 1,1 0,-2A2,2 0 0,1 2,0Z" style="opacity: 1; stroke-width: 0px; fill: rgb(11, 121, 230); fill-opacity: 1;"/></g><g class="text"/></g><g class="trace scatter trace5cb9bf" style="stroke-miterlimit: 2; opacity: 1;"><g class="fills"/><g class="errorbars"/><g class="lines"/><g class="points"><path class="point" transform="translate(48.63,21.12)" d="M2,0A2,2 0 1,1 0,-2A2,2 0 0,1 2,0Z" style="opacity: 1; stroke-width: 0px; fill: rgb(11, 121, 230); fill-opacity: 1;"/></g><g class="text"/></g><g class="trace scatter trace454c7f" style="stroke-miterlimit: 2; opacity: 1;"><g class="fills"/><g class="errorbars"/><g class="lines"/><g class="points"><path class="point" transform="translate(36.98,21.12)" d="M2,0A2,2 0 1,1 0,-2A2,2 0 0,1 2,0Z" style="opacity: 1; stroke-width: 0px; fill: rgb(11, 121, 230); fill-opacity: 1;"/></g><g class="text"/></g><g class="trace scatter trace875c2a" style="stroke-miterlimit: 2; opacity: 1;"><g class="fills"/><g class="errorbars"/><g class="lines"/><g class="points"><path class="point" transform="translate(72.54,21.12)" d="M2,0A2,2 0 1,1 0,-2A2,2 0 0,1 2,0Z" style="opacity: 1; stroke-width: 0px; fill: rgb(11, 121, 230); fill-opacity: 1;"/></g><g class="text"/></g><g class="trace scatter trace5e1ce7" style="stroke-miterlimit: 2; opacity: 1;"><g class="fills"/><g class="errorbars"/><g class="lines"/><g class="points"><path class="point" transform="translate(67.57,21.12)" d="M2,0A2,2 0 1,1 0,-2A2,2 0 0,1 2,0Z" style="opacity: 1; stroke-width: 0px; fill: rgb(11, 121, 230); fill-opacity: 1;"/></g><g class="text"/></g><g class="trace scatter trace6bb8ed" style="stroke-miterlimit: 2; opacity: 1;"><g class="fills"/><g class="errorbars"/><g class="lines"/><g class="points"><path class="point" transform="translate(26.19,21.12)" d="M2,0A2,2 0 1,1 0,-2A2,2 0 0,1 2,0Z" style="opacity: 1; stroke-width: 0px; fill: rgb(11, 121, 230); fill-opacity: 1;"/></g><g class="text"/></g><g class="trace scatter trace08f04b" style="stroke-miterlimit: 2; opacity: 1;"><g class="fills"/><g class="errorbars"/><g class="lines"/><g class="points"><path class="point" transform="translate(27.38,21.12)" d="M2,0A2,2 0 1,1 0,-2A2,2 0 0,1 2,0Z" style="opacity: 1; stroke-width: 0px; fill: rgb(11, 121, 230); fill-opacity: 1;"/></g><g class="text"/></g><g class="trace scatter traced3f7f4" style="stroke-miterlimit: 2; opacity: 1;"><g class="fills"/><g class="errorbars"/><g class="lines"/><g class="points"><path class="point" transform="translate(21.36,21.12)" d="M2,0A2,2 0 1,1 0,-2A2,2 0 0,1 2,0Z" style="opacity: 1; stroke-width: 0px; fill: rgb(11, 121, 230); fill-opacity: 1;"/></g><g class="text"/></g></g></g></g><path class="xlines-above crisp" d="M0,0" style="fill: none;"/><path class="ylines-above crisp" d="M0,0" style="fill: none;"/><g class="overlines-above"/><g class="xaxislayer-above"><g class="x2tick"><text text-anchor="middle" x="0" y="172.61538461538464" transform="translate(84.98,0)" style="font-family: 'Lucida Grande', 'Open Sans', verdana, arial, sans-serif; font-size: 9px; fill: rgb(0, 0, 0); fill-opacity: 0.5; white-space: pre; opacity: 1;">0</text></g><g class="x2tick"><text text-anchor="middle" x="0" y="172.61538461538464" style="font-family: 'Lucida Grande', 'Open Sans', verdana, arial, sans-serif; font-size: 9px; fill: rgb(0, 0, 0); fill-opacity: 0.5; white-space: pre; opacity: 1;" transform="translate(228.5,0)">0.5M</text></g><g class="x2tick"><text text-anchor="middle" x="0" y="172.61538461538464" style="font-family: 'Lucida Grande', 'Open Sans', verdana, arial, sans-serif; font-size: 9px; fill: rgb(0, 0, 0); fill-opacity: 0.5; white-space: pre; opacity: 1;" transform="translate(372.03,0)">1M</text></g><g class="x2tick"><text text-anchor="middle" x="0" y="172.61538461538464" style="font-family: 'Lucida Grande', 'Open Sans', verdana, arial, sans-serif; font-size: 9px; fill: rgb(0, 0, 0); fill-opacity: 0.5; white-space: pre; opacity: 1;" transform="translate(515.55,0)">1.5M</text></g><g class="x2tick"><text text-anchor="middle" x="0" y="172.61538461538464" style="font-family: 'Lucida Grande', 'Open Sans', verdana, arial, sans-serif; font-size: 9px; fill: rgb(0, 0, 0); fill-opacity: 0.5; white-space: pre; opacity: 1;" transform="translate(659.08,0)">2M</text></g><g class="x2tick"><text text-anchor="middle" x="0" y="172.61538461538464" style="font-family: 'Lucida Grande', 'Open Sans', verdana, arial, sans-serif; font-size: 9px; fill: rgb(0, 0, 0); fill-opacity: 0.5; white-space: pre; opacity: 1;" transform="translate(802.61,0)">2.5M</text></g><g class="x2tick"><text text-anchor="middle" x="0" y="172.61538461538464" style="font-family: 'Lucida Grande', 'Open Sans', verdana, arial, sans-serif; font-size: 9px; fill: rgb(0, 0, 0); fill-opacity: 0.5; white-space: pre; opacity: 1;" transform="translate(946.13,0)">3M</text></g></g><g class="yaxislayer-above"><g class="y2tick"><text text-anchor="end" x="79" y="3.15" transform="translate(0,141.5046153846154)" style="font-family: 'Lucida Grande', 'Open Sans', verdana, arial, sans-serif; font-size: 9px; fill: rgb(0, 0, 0); fill-opacity: 0.5; white-space: pre; opacity: 1;">Occurrences  </text></g></g><g class="overaxes-above"/></g><g class="subplot x3y3"><g class="layer-subplot"><g class="shapelayer"/><g class="imagelayer"/></g><g class="minor-gridlayer"><g class="x3"/><g class="y3"/></g><g class="gridlayer"><g class="x3"><path class="x3grid crisp" transform="translate(283.98,0)" d="M0,190.76923076923077v42.230769230769226" style="stroke: rgb(0, 0, 0); stroke-opacity: 0.1; stroke-width: 1px;"/><path class="x3grid crisp" transform="translate(482.99,0)" d="M0,190.76923076923077v42.230769230769226" style="stroke: rgb(0, 0, 0); stroke-opacity: 0.1; stroke-width: 1px;"/><path class="x3grid crisp" transform="translate(681.99,0)" d="M0,190.76923076923077v42.230769230769226" style="stroke: rgb(0, 0, 0); stroke-opacity: 0.1; stroke-width: 1px;"/><path class="x3grid crisp" transform="translate(881,0)" d="M0,190.76923076923077v42.230769230769226" style="stroke: rgb(0, 0, 0); stroke-opacity: 0.1; stroke-width: 1px;"/><path class="x3grid crisp" transform="translate(1080,0)" d="M0,190.76923076923077v42.230769230769226" style="stroke: rgb(0, 0, 0); stroke-opacity: 0.1; stroke-width: 1px;"/></g><g class="y3"><path class="y3grid crisp" transform="translate(0,211.88923076923078)" d="M80,0h1005" style="stroke: rgb(0, 0, 0); stroke-opacity: 0.1; stroke-width: 1px;"/></g></g><g class="zerolinelayer"><path class="x3zl zl crisp" transform="translate(84.98,0)" d="M0,190.76923076923077v42.230769230769226" style="stroke: rgb(0, 0, 0); stroke-opacity: 0.1; stroke-width: 2px;"/></g><g class="layer-between"><g class="shapelayer"/><g class="imagelayer"/></g><path class="xlines-below"/><path class="ylines-below"/><g class="overlines-below"/><g class="xaxislayer-below"/><g class="yaxislayer-below"/><g class="overaxes-below"/><g class="overplot"><g class="x3y3" transform="translate(80,190.76923076923077)" clip-path="url(#clip03e342x3y3plot)"><g class="violinlayer mlayer"><g class="trace violins" style="opacity: 0.5;"><path class="violin" d="M4.86,20.58Q4.89,20.23 4.9,20.01C4.91,19.73 4.92,19.4 4.93,19.04C4.94,18.6 4.95,18.1 4.96,17.57C4.97,16.95 4.99,16.27 5,15.57C5.01,14.81 5.02,13.98 5.03,13.17C5.04,12.34 5.05,11.47 5.06,10.66C5.07,9.9 5.08,9.12 5.09,8.45C5.1,7.9 5.12,7.32 5.13,6.93C5.14,6.68 5.15,6.33 5.16,6.33C5.17,6.33 5.18,6.53 5.19,6.68C5.21,6.94 5.22,7.37 5.23,7.76C5.24,8.22 5.25,8.75 5.26,9.26C5.27,9.79 5.28,10.35 5.29,10.89C5.3,11.43 5.31,11.96 5.32,12.49C5.33,13 5.35,13.51 5.36,14.01C5.37,14.5 5.38,14.98 5.39,15.45C5.4,15.91 5.41,16.38 5.42,16.82C5.43,17.24 5.44,17.66 5.45,18.05C5.46,18.41 5.48,18.75 5.49,19.07C5.5,19.34 5.51,19.61 5.52,19.84C5.53,20.02 5.53,20.2 5.55,20.33C5.56,20.42 5.57,20.52 5.59,20.56C5.6,20.58 5.61,20.59 5.62,20.59C5.63,20.59 5.64,20.51 5.65,20.46C5.66,20.4 5.67,20.32 5.68,20.25C5.69,20.17 5.71,20.09 5.72,20.02C5.73,19.96 5.74,19.9 5.75,19.86C5.76,19.83 5.77,19.8 5.78,19.8C5.79,19.8 5.81,19.84 5.82,19.87C5.83,19.91 5.84,19.96 5.85,20.01C5.86,20.06 5.87,20.11 5.88,20.15C5.89,20.18 5.9,20.23 5.91,20.23C5.92,20.23 5.94,20.22 5.95,20.2C5.97,20.17 5.97,20.11 5.98,20.07C5.99,20.02 6,19.96 6.01,19.92C6.02,19.88 6.03,19.83 6.05,19.82C6.06,19.81 6.07,19.81 6.08,19.82C6.1,19.83 6.1,19.9 6.11,19.95C6.12,20.01 6.13,20.09 6.14,20.17C6.15,20.25 6.17,20.34 6.18,20.42C6.19,20.5 6.2,20.58 6.21,20.66C6.22,20.73 6.23,20.79 6.24,20.85C6.25,20.9 6.27,20.94 6.28,20.98C6.29,21.01 6.3,21.03 6.31,21.05C6.32,21.07 6.33,21.08 6.34,21.09C6.35,21.1 6.36,21.11 6.37,21.11C6.38,21.11 6.4,21.11 6.41,21.11C6.42,21.11 6.43,21.11 6.44,21.11C6.45,21.11 6.46,21.12 6.47,21.12C6.48,21.12 6.5,21.12 6.51,21.12C6.52,21.12 6.53,21.12 6.54,21.12C6.55,21.12 6.56,21.12 6.57,21.12C6.58,21.12 6.59,21.12 6.6,21.12C6.61,21.12 6.63,21.12 6.64,21.12C6.65,21.12 6.66,21.12 6.67,21.12C6.68,21.12 6.69,21.12 6.7,21.12C6.71,21.12 6.73,21.12 6.74,21.12C6.75,21.12 6.76,21.12 6.77,21.12C6.78,21.12 6.79,21.12 6.8,21.12C6.81,21.12 6.82,21.12 6.83,21.12C6.84,21.12 6.86,21.11 6.87,21.11C6.88,21.11 6.89,21.11 6.9,21.11C6.91,21.11 6.92,21.11 6.93,21.11C6.94,21.11 6.96,21.11 6.97,21.1C6.98,21.1 6.99,21.09 7,21.08C7.01,21.07 7.02,21.06 7.03,21.04C7.04,21.02 7.05,20.98 7.06,20.95C7.07,20.91 7.09,20.86 7.1,20.81C7.11,20.75 7.12,20.68 7.13,20.61C7.14,20.53 7.15,20.44 7.16,20.36C7.17,20.28 7.19,20.19 7.2,20.11C7.21,20.04 7.22,19.96 7.23,19.91C7.24,19.87 7.25,19.82 7.26,19.82C7.27,19.82 7.28,19.85 7.29,19.88C7.31,19.92 7.32,19.99 7.33,20.05C7.34,20.12 7.35,20.21 7.36,20.29C7.37,20.37 7.38,20.47 7.39,20.55C7.4,20.62 7.42,20.69 7.43,20.76C7.44,20.82 7.45,20.87 7.46,20.92C7.47,20.96 7.48,20.99 7.49,21.02C7.5,21.04 7.51,21.06 7.52,21.07C7.53,21.08 7.55,21.09 7.56,21.1C7.57,21.11 7.58,21.11 7.59,21.11C7.6,21.11 7.61,21.11 7.62,21.11C7.63,21.11 7.64,21.11 7.65,21.11C7.66,21.11 7.68,21.12 7.69,21.12C7.7,21.12 7.71,21.12 7.72,21.12C7.73,21.12 7.74,21.12 7.75,21.12C7.76,21.12 7.78,21.12 7.79,21.12C7.8,21.12 7.81,21.12 7.82,21.12C7.83,21.12 7.84,21.12 7.85,21.12C7.86,21.12 7.87,21.12 7.88,21.12C7.89,21.12 7.91,21.12 7.92,21.12C7.93,21.12 7.94,21.12 7.95,21.12C7.96,21.12 7.97,21.12 7.98,21.12C7.99,21.12 8.01,21.12 8.02,21.12C8.03,21.12 8.04,21.12 8.05,21.12C8.06,21.12 8.07,21.12 8.08,21.12C8.09,21.12 8.1,21.12 8.11,21.12C8.12,21.12 8.14,21.12 8.15,21.12C8.16,21.12 8.17,21.12 8.18,21.12C8.19,21.12 8.2,21.12 8.21,21.12C8.22,21.12 8.24,21.12 8.25,21.12C8.26,21.12 8.27,21.12 8.28,21.12C8.29,21.12 8.3,21.12 8.31,21.12C8.32,21.12 8.33,21.12 8.34,21.12C8.35,21.12 8.37,21.12 8.38,21.12C8.39,21.12 8.4,21.12 8.41,21.12C8.42,21.12 8.43,21.12 8.44,21.12C8.45,21.12 8.47,21.12 8.48,21.12C8.49,21.12 8.5,21.12 8.51,21.12C8.52,21.12 8.53,21.12 8.54,21.12C8.55,21.12 8.56,21.12 8.57,21.12C8.58,21.12 8.6,21.12 8.61,21.12C8.62,21.12 8.63,21.12 8.64,21.12C8.65,21.12 8.66,21.12 8.67,21.12C8.68,21.12 8.7,21.12 8.71,21.12C8.72,21.12 8.73,21.12 8.74,21.12C8.75,21.12 8.76,21.12 8.77,21.12C8.78,21.12 8.79,21.12 8.8,21.12C8.81,21.12 8.83,21.12 8.84,21.12C8.85,21.12 8.86,21.12 8.87,21.12C8.88,21.12 8.89,21.12 8.9,21.12C8.91,21.12 8.93,21.12 8.94,21.12C8.95,21.12 8.96,21.12 8.97,21.12C8.98,21.12 8.99,21.12 9,21.12C9.01,21.12 9.02,21.12 9.03,21.12C9.04,21.12 9.06,21.12 9.07,21.12C9.08,21.12 9.09,21.12 9.1,21.12C9.11,21.12 9.12,21.12 9.13,21.12C9.14,21.12 9.16,21.12 9.17,21.12C9.18,21.12 9.19,21.12 9.2,21.12C9.21,21.12 9.22,21.12 9.23,21.12C9.24,21.12 9.25,21.12 9.26,21.12C9.27,21.12 9.29,21.12 9.3,21.12C9.31,21.12 9.32,21.12 9.33,21.12C9.34,21.12 9.35,21.12 9.36,21.12C9.37,21.12 9.39,21.12 9.4,21.12C9.41,21.12 9.42,21.12 9.43,21.12C9.44,21.12 9.45,21.12 9.46,21.12C9.47,21.12 9.48,21.12 9.49,21.12C9.5,21.12 9.52,21.12 9.53,21.12C9.54,21.12 9.55,21.12 9.56,21.12C9.57,21.12 9.58,21.12 9.59,21.12C9.6,21.12 9.62,21.12 9.63,21.12C9.64,21.12 9.65,21.12 9.66,21.12C9.67,21.12 9.68,21.12 9.69,21.12C9.7,21.12 9.71,21.12 9.72,21.12C9.73,21.12 9.75,21.12 9.76,21.12C9.77,21.12 9.78,21.12 9.79,21.12C9.8,21.12 9.81,21.12 9.82,21.12C9.83,21.12 9.84,21.11 9.85,21.11C9.86,21.11 9.88,21.11 9.89,21.11C9.9,21.11 9.91,21.11 9.92,21.11C9.93,21.11 9.94,21.1 9.95,21.1C9.96,21.09 9.98,21.09 9.99,21.08C10,21.07 10.01,21.05 10.02,21.03C10.03,21 10.04,20.97 10.05,20.93C10.06,20.89 10.07,20.83 10.08,20.78C10.09,20.72 10.11,20.64 10.12,20.57C10.13,20.49 10.14,20.4 10.15,20.32C10.16,20.24 10.17,20.15 10.18,20.07C10.19,20 10.21,19.94 10.22,19.89C10.23,19.86 10.24,19.82 10.25,19.82C10.26,19.82 10.27,19.87 10.28,19.9C10.29,19.95 10.3,20.02 10.31,20.09C10.32,20.17 10.34,20.26 10.35,20.34C10.36,20.42 10.37,20.51 10.38,20.59C10.39,20.66 10.4,20.73 10.41,20.79Q10.42,20.84 10.45,20.94L10.45,21.29Q10.42,21.39 10.41,21.44C10.4,21.5 10.39,21.57 10.38,21.64C10.37,21.72 10.36,21.81 10.35,21.9C10.34,21.98 10.32,22.07 10.31,22.15C10.3,22.21 10.29,22.28 10.28,22.33C10.27,22.36 10.26,22.41 10.25,22.41C10.24,22.41 10.23,22.37 10.22,22.34C10.21,22.29 10.19,22.23 10.18,22.16C10.17,22.08 10.16,21.99 10.15,21.91C10.14,21.83 10.13,21.74 10.12,21.66C10.11,21.59 10.09,21.51 10.08,21.45C10.07,21.4 10.06,21.34 10.05,21.3C10.04,21.27 10.03,21.24 10.02,21.21C10.01,21.19 10,21.16 9.99,21.15C9.98,21.14 9.96,21.14 9.95,21.13C9.94,21.13 9.93,21.12 9.92,21.12C9.91,21.12 9.9,21.12 9.89,21.12C9.88,21.12 9.86,21.12 9.85,21.12C9.84,21.12 9.83,21.12 9.82,21.12C9.81,21.12 9.8,21.12 9.79,21.12C9.78,21.12 9.77,21.12 9.76,21.12C9.75,21.12 9.73,21.12 9.72,21.12C9.71,21.12 9.7,21.12 9.69,21.12C9.68,21.12 9.67,21.12 9.66,21.12C9.65,21.12 9.64,21.12 9.63,21.12C9.62,21.12 9.6,21.12 9.59,21.12C9.58,21.12 9.57,21.12 9.56,21.12C9.55,21.12 9.54,21.12 9.53,21.12C9.52,21.12 9.5,21.12 9.49,21.12C9.48,21.12 9.47,21.12 9.46,21.12C9.45,21.12 9.44,21.12 9.43,21.12C9.42,21.12 9.41,21.12 9.4,21.12C9.39,21.12 9.37,21.12 9.36,21.12C9.35,21.12 9.34,21.12 9.33,21.12C9.32,21.12 9.31,21.12 9.3,21.12C9.29,21.12 9.27,21.12 9.26,21.12C9.25,21.12 9.24,21.12 9.23,21.12C9.22,21.12 9.21,21.12 9.2,21.12C9.19,21.12 9.18,21.12 9.17,21.12C9.16,21.12 9.14,21.12 9.13,21.12C9.12,21.12 9.11,21.12 9.1,21.12C9.09,21.12 9.08,21.12 9.07,21.12C9.06,21.12 9.04,21.12 9.03,21.12C9.02,21.12 9.01,21.12 9,21.12C8.99,21.12 8.98,21.12 8.97,21.12C8.96,21.12 8.95,21.12 8.94,21.12C8.93,21.12 8.91,21.12 8.9,21.12C8.89,21.12 8.88,21.12 8.87,21.12C8.86,21.12 8.85,21.12 8.84,21.12C8.83,21.12 8.81,21.12 8.8,21.12C8.79,21.12 8.78,21.12 8.77,21.12C8.76,21.12 8.75,21.12 8.74,21.12C8.73,21.12 8.72,21.12 8.71,21.12C8.7,21.12 8.68,21.12 8.67,21.12C8.66,21.12 8.65,21.12 8.64,21.12C8.63,21.12 8.62,21.12 8.61,21.12C8.6,21.12 8.58,21.12 8.57,21.12C8.56,21.12 8.55,21.12 8.54,21.12C8.53,21.12 8.52,21.12 8.51,21.12C8.5,21.12 8.49,21.12 8.48,21.12C8.47,21.12 8.45,21.12 8.44,21.12C8.43,21.12 8.42,21.12 8.41,21.12C8.4,21.12 8.39,21.12 8.38,21.12C8.37,21.12 8.35,21.12 8.34,21.12C8.33,21.12 8.32,21.12 8.31,21.12C8.3,21.12 8.29,21.12 8.28,21.12C8.27,21.12 8.26,21.12 8.25,21.12C8.24,21.12 8.22,21.12 8.21,21.12C8.2,21.12 8.19,21.12 8.18,21.12C8.17,21.12 8.16,21.12 8.15,21.12C8.14,21.12 8.12,21.12 8.11,21.12C8.1,21.12 8.09,21.12 8.08,21.12C8.07,21.12 8.06,21.12 8.05,21.12C8.04,21.12 8.03,21.12 8.02,21.12C8.01,21.12 7.99,21.12 7.98,21.12C7.97,21.12 7.96,21.12 7.95,21.12C7.94,21.12 7.93,21.12 7.92,21.12C7.91,21.12 7.89,21.12 7.88,21.12C7.87,21.12 7.86,21.12 7.85,21.12C7.84,21.12 7.83,21.12 7.82,21.12C7.81,21.12 7.8,21.12 7.79,21.12C7.78,21.12 7.76,21.12 7.75,21.12C7.74,21.12 7.73,21.12 7.72,21.12C7.71,21.12 7.7,21.12 7.69,21.12C7.68,21.12 7.66,21.12 7.65,21.12C7.64,21.12 7.63,21.12 7.62,21.12C7.61,21.12 7.6,21.12 7.59,21.12C7.58,21.12 7.57,21.12 7.56,21.13C7.55,21.14 7.53,21.15 7.52,21.16C7.51,21.17 7.5,21.19 7.49,21.21C7.48,21.24 7.47,21.27 7.46,21.31C7.45,21.36 7.44,21.41 7.43,21.47C7.42,21.54 7.4,21.61 7.39,21.68C7.38,21.76 7.37,21.86 7.36,21.94C7.35,22.02 7.34,22.11 7.33,22.18C7.32,22.24 7.31,22.31 7.29,22.35C7.28,22.38 7.27,22.41 7.26,22.41C7.25,22.41 7.24,22.36 7.23,22.32C7.22,22.27 7.21,22.19 7.2,22.12C7.19,22.04 7.17,21.95 7.16,21.87C7.15,21.79 7.14,21.7 7.13,21.62C7.12,21.55 7.11,21.48 7.1,21.42C7.09,21.37 7.07,21.32 7.06,21.28C7.05,21.25 7.04,21.21 7.03,21.19C7.02,21.17 7.01,21.16 7,21.15C6.99,21.14 6.98,21.13 6.97,21.13C6.96,21.12 6.94,21.12 6.93,21.12C6.92,21.12 6.91,21.12 6.9,21.12C6.89,21.12 6.88,21.12 6.87,21.12C6.86,21.12 6.84,21.12 6.83,21.12C6.82,21.12 6.81,21.12 6.8,21.12C6.79,21.12 6.78,21.12 6.77,21.12C6.76,21.12 6.75,21.12 6.74,21.12C6.73,21.12 6.71,21.12 6.7,21.12C6.69,21.12 6.68,21.12 6.67,21.12C6.66,21.12 6.65,21.12 6.64,21.12C6.63,21.12 6.61,21.12 6.6,21.12C6.59,21.12 6.58,21.12 6.57,21.12C6.56,21.12 6.55,21.12 6.54,21.12C6.53,21.12 6.52,21.12 6.51,21.12C6.5,21.12 6.48,21.12 6.47,21.12C6.46,21.12 6.45,21.12 6.44,21.12C6.43,21.12 6.42,21.12 6.41,21.12C6.4,21.12 6.38,21.13 6.37,21.13C6.36,21.13 6.35,21.13 6.34,21.14C6.33,21.15 6.32,21.16 6.31,21.18C6.3,21.2 6.29,21.22 6.28,21.25C6.27,21.29 6.25,21.33 6.24,21.38C6.23,21.44 6.22,21.5 6.21,21.57C6.2,21.65 6.19,21.73 6.18,21.81C6.17,21.89 6.15,21.98 6.14,22.06C6.13,22.14 6.12,22.22 6.11,22.28C6.1,22.33 6.1,22.4 6.08,22.41C6.07,22.42 6.06,22.42 6.05,22.41C6.03,22.4 6.02,22.35 6.01,22.31C6,22.27 5.99,22.21 5.98,22.16C5.97,22.12 5.97,22.07 5.95,22.04C5.94,22.02 5.92,22 5.91,22C5.9,22 5.89,22.05 5.88,22.08C5.87,22.12 5.86,22.17 5.85,22.22C5.84,22.27 5.83,22.32 5.82,22.36C5.81,22.39 5.79,22.43 5.78,22.43C5.77,22.43 5.76,22.4 5.75,22.38C5.74,22.34 5.73,22.27 5.72,22.21C5.71,22.14 5.69,22.06 5.68,21.98C5.67,21.91 5.66,21.83 5.65,21.77C5.64,21.72 5.63,21.64 5.62,21.64C5.61,21.64 5.6,21.65 5.59,21.67C5.57,21.71 5.56,21.81 5.55,21.9C5.53,22.03 5.53,22.21 5.52,22.39C5.51,22.62 5.5,22.89 5.49,23.16C5.48,23.48 5.46,23.82 5.45,24.18C5.44,24.57 5.43,24.99 5.42,25.41C5.41,25.85 5.4,26.32 5.39,26.78C5.38,27.26 5.37,27.74 5.36,28.23C5.35,28.73 5.33,29.23 5.32,29.74C5.31,30.27 5.3,30.8 5.29,31.34C5.28,31.88 5.27,32.44 5.26,32.97C5.25,33.48 5.24,34.01 5.23,34.47C5.22,34.86 5.21,35.29 5.19,35.55C5.18,35.7 5.17,35.9 5.16,35.9C5.15,35.9 5.14,35.55 5.13,35.3C5.12,34.91 5.1,34.33 5.09,33.78C5.08,33.11 5.07,32.33 5.06,31.57C5.05,30.76 5.04,29.89 5.03,29.06C5.02,28.25 5.01,27.42 5,26.66C4.99,25.96 4.97,25.28 4.96,24.66C4.95,24.13 4.94,23.63 4.93,23.19C4.92,22.83 4.91,22.5 4.9,22.22Q4.89,22 4.86,21.65Z" style="vector-effect: none; stroke-width: 2px; stroke: rgb(181, 181, 181); stroke-opacity: 1; fill: rgb(181, 181, 181); fill-opacity: 1;"/><path class="box" d="M5.2,24.81V17.42M5.14,24.81V17.42H5.37V24.81ZM5.14,21.12H5.06M5.37,21.12H5.4" style="vector-effect: non-scaling-stroke; stroke-width: 2px; stroke: rgb(181, 181, 181); stroke-opacity: 1; fill: rgb(181, 181, 181); fill-opacity: 1;"/><path class="mean" d="M5.62,24.81V17.42" style="fill: none; vector-effect: non-scaling-stroke; stroke-width: 2px; stroke-dasharray: 4px, 2px; stroke: rgb(181, 181, 181); stroke-opacity: 1;"/></g></g><g class="scatterlayer mlayer"><g class="trace scatter trace513fe2" style="stroke-miterlimit: 2; opacity: 1;"><g class="fills"/><g class="errorbars"/><g class="lines"/><g class="points"><path class="point" transform="translate(10.25,21.12)" d="M2,0A2,2 0 1,1 0,-2A2,2 0 0,1 2,0Z" style="opacity: 1; stroke-width: 0px; fill: rgb(11, 121, 230); fill-opacity: 1;"/></g><g class="text"/></g><g class="trace scatter trace00a4ee" style="stroke-miterlimit: 2; opacity: 1;"><g class="fills"/><g class="errorbars"/><g class="lines"/><g class="points"><path class="point" transform="translate(7.27,21.12)" d="M2,0A2,2 0 1,1 0,-2A2,2 0 0,1 2,0Z" style="opacity: 1; stroke-width: 0px; fill: rgb(11, 121, 230); fill-opacity: 1;"/></g><g class="text"/></g><g class="trace scatter tracee660db" style="stroke-miterlimit: 2; opacity: 1;"><g class="fills"/><g class="errorbars"/><g class="lines"/><g class="points"><path class="point" transform="translate(5.78,21.12)" d="M2,0A2,2 0 1,1 0,-2A2,2 0 0,1 2,0Z" style="opacity: 1; stroke-width: 0px; fill: rgb(11, 121, 230); fill-opacity: 1;"/></g><g class="text"/></g><g class="trace scatter trace184dbb" style="stroke-miterlimit: 2; opacity: 1;"><g class="fills"/><g class="errorbars"/><g class="lines"/><g class="points"><path class="point" transform="translate(6.07,21.12)" d="M2,0A2,2 0 1,1 0,-2A2,2 0 0,1 2,0Z" style="opacity: 1; stroke-width: 0px; fill: rgb(11, 121, 230); fill-opacity: 1;"/></g><g class="text"/></g><g class="trace scatter tracef4fe68" style="stroke-miterlimit: 2; opacity: 1;"><g class="fills"/><g class="errorbars"/><g class="lines"/><g class="points"><path class="point" transform="translate(5.4,21.12)" d="M2,0A2,2 0 1,1 0,-2A2,2 0 0,1 2,0Z" style="opacity: 1; stroke-width: 0px; fill: rgb(11, 121, 230); fill-opacity: 1;"/></g><g class="text"/></g><g class="trace scatter trace246c77" style="stroke-miterlimit: 2; opacity: 1;"><g class="fills"/><g class="errorbars"/><g class="lines"/><g class="points"><path class="point" transform="translate(5.19,21.12)" d="M2,0A2,2 0 1,1 0,-2A2,2 0 0,1 2,0Z" style="opacity: 1; stroke-width: 0px; fill: rgb(11, 121, 230); fill-opacity: 1;"/></g><g class="text"/></g><g class="trace scatter trace378b14" style="stroke-miterlimit: 2; opacity: 1;"><g class="fills"/><g class="errorbars"/><g class="lines"/><g class="points"><path class="point" transform="translate(5.14,21.12)" d="M2,0A2,2 0 1,1 0,-2A2,2 0 0,1 2,0Z" style="opacity: 1; stroke-width: 0px; fill: rgb(11, 121, 230); fill-opacity: 1;"/></g><g class="text"/></g><g class="trace scatter traced405aa" style="stroke-miterlimit: 2; opacity: 1;"><g class="fills"/><g class="errorbars"/><g class="lines"/><g class="points"><path class="point" transform="translate(5.17,21.12)" d="M2,0A2,2 0 1,1 0,-2A2,2 0 0,1 2,0Z" style="opacity: 1; stroke-width: 0px; fill: rgb(11, 121, 230); fill-opacity: 1;"/></g><g class="text"/></g><g class="trace scatter trace21d5aa" style="stroke-miterlimit: 2; opacity: 1;"><g class="fills"/><g class="errorbars"/><g class="lines"/><g class="points"><path class="point" transform="translate(5.22,21.12)" d="M2,0A2,2 0 1,1 0,-2A2,2 0 0,1 2,0Z" style="opacity: 1; stroke-width: 0px; fill: rgb(11, 121, 230); fill-opacity: 1;"/></g><g class="text"/></g><g class="trace scatter trace2dce0a" style="stroke-miterlimit: 2; opacity: 1;"><g class="fills"/><g class="errorbars"/><g class="lines"/><g class="points"><path class="point" transform="translate(5.15,21.12)" d="M2,0A2,2 0 1,1 0,-2A2,2 0 0,1 2,0Z" style="opacity: 1; stroke-width: 0px; fill: rgb(11, 121, 230); fill-opacity: 1;"/></g><g class="text"/></g><g class="trace scatter trace5ec2ad" style="stroke-miterlimit: 2; opacity: 1;"><g class="fills"/><g class="errorbars"/><g class="lines"/><g class="points"><path class="point" transform="translate(5.34,21.12)" d="M2,0A2,2 0 1,1 0,-2A2,2 0 0,1 2,0Z" style="opacity: 1; stroke-width: 0px; fill: rgb(11, 121, 230); fill-opacity: 1;"/></g><g class="text"/></g><g class="trace scatter trace03fc5d" style="stroke-miterlimit: 2; opacity: 1;"><g class="fills"/><g class="errorbars"/><g class="lines"/><g class="points"><path class="point" transform="translate(5.1,21.12)" d="M2,0A2,2 0 1,1 0,-2A2,2 0 0,1 2,0Z" style="opacity: 1; stroke-width: 0px; fill: rgb(11, 121, 230); fill-opacity: 1;"/></g><g class="text"/></g><g class="trace scatter traceef5456" style="stroke-miterlimit: 2; opacity: 1;"><g class="fills"/><g class="errorbars"/><g class="lines"/><g class="points"><path class="point" transform="translate(5.18,21.12)" d="M2,0A2,2 0 1,1 0,-2A2,2 0 0,1 2,0Z" style="opacity: 1; stroke-width: 0px; fill: rgb(11, 121, 230); fill-opacity: 1;"/></g><g class="text"/></g><g class="trace scatter tracecbb0a0" style="stroke-miterlimit: 2; opacity: 1;"><g class="fills"/><g class="errorbars"/><g class="lines"/><g class="points"><path class="point" transform="translate(5.21,21.12)" d="M2,0A2,2 0 1,1 0,-2A2,2 0 0,1 2,0Z" style="opacity: 1; stroke-width: 0px; fill: rgb(11, 121, 230); fill-opacity: 1;"/></g><g class="text"/></g><g class="trace scatter trace0d0d42" style="stroke-miterlimit: 2; opacity: 1;"><g class="fills"/><g class="errorbars"/><g class="lines"/><g class="points"><path class="point" transform="translate(5.14,21.12)" d="M2,0A2,2 0 1,1 0,-2A2,2 0 0,1 2,0Z" style="opacity: 1; stroke-width: 0px; fill: rgb(11, 121, 230); fill-opacity: 1;"/></g><g class="text"/></g><g class="trace scatter tracee3755a" style="stroke-miterlimit: 2; opacity: 1;"><g class="fills"/><g class="errorbars"/><g class="lines"/><g class="points"><path class="point" transform="translate(5.33,21.12)" d="M2,0A2,2 0 1,1 0,-2A2,2 0 0,1 2,0Z" style="opacity: 1; stroke-width: 0px; fill: rgb(11, 121, 230); fill-opacity: 1;"/></g><g class="text"/></g><g class="trace scatter trace22ece7" style="stroke-miterlimit: 2; opacity: 1;"><g class="fills"/><g class="errorbars"/><g class="lines"/><g class="points"><path class="point" transform="translate(5.31,21.12)" d="M2,0A2,2 0 1,1 0,-2A2,2 0 0,1 2,0Z" style="opacity: 1; stroke-width: 0px; fill: rgb(11, 121, 230); fill-opacity: 1;"/></g><g class="text"/></g><g class="trace scatter trace31eced" style="stroke-miterlimit: 2; opacity: 1;"><g class="fills"/><g class="errorbars"/><g class="lines"/><g class="points"><path class="point" transform="translate(5.09,21.12)" d="M2,0A2,2 0 1,1 0,-2A2,2 0 0,1 2,0Z" style="opacity: 1; stroke-width: 0px; fill: rgb(11, 121, 230); fill-opacity: 1;"/></g><g class="text"/></g><g class="trace scatter trace36283d" style="stroke-miterlimit: 2; opacity: 1;"><g class="fills"/><g class="errorbars"/><g class="lines"/><g class="points"><path class="point" transform="translate(5.09,21.12)" d="M2,0A2,2 0 1,1 0,-2A2,2 0 0,1 2,0Z" style="opacity: 1; stroke-width: 0px; fill: rgb(11, 121, 230); fill-opacity: 1;"/></g><g class="text"/></g><g class="trace scatter trace41c1a2" style="stroke-miterlimit: 2; opacity: 1;"><g class="fills"/><g class="errorbars"/><g class="lines"/><g class="points"><path class="point" transform="translate(5.06,21.12)" d="M2,0A2,2 0 1,1 0,-2A2,2 0 0,1 2,0Z" style="opacity: 1; stroke-width: 0px; fill: rgb(11, 121, 230); fill-opacity: 1;"/></g><g class="text"/></g></g></g></g><path class="xlines-above crisp" d="M0,0" style="fill: none;"/><path class="ylines-above crisp" d="M0,0" style="fill: none;"/><g class="overlines-above"/><g class="xaxislayer-above"><g class="x3tick"><text text-anchor="middle" x="0" y="243" transform="translate(84.98,0)" style="font-family: 'Lucida Grande', 'Open Sans', verdana, arial, sans-serif; font-size: 9px; fill: rgb(0, 0, 0); fill-opacity: 0.5; white-space: pre; opacity: 1;">0%</text></g><g class="x3tick"><text text-anchor="middle" x="0" y="243" style="font-family: 'Lucida Grande', 'Open Sans', verdana, arial, sans-serif; font-size: 9px; fill: rgb(0, 0, 0); fill-opacity: 0.5; white-space: pre; opacity: 1;" transform="translate(283.98,0)">20%</text></g><g class="x3tick"><text text-anchor="middle" x="0" y="243" style="font-family: 'Lucida Grande', 'Open Sans', verdana, arial, sans-serif; font-size: 9px; fill: rgb(0, 0, 0); fill-opacity: 0.5; white-space: pre; opacity: 1;" transform="translate(482.99,0)">40%</text></g><g class="x3tick"><text text-anchor="middle" x="0" y="243" style="font-family: 'Lucida Grande', 'Open Sans', verdana, arial, sans-serif; font-size: 9px; fill: rgb(0, 0, 0); fill-opacity: 0.5; white-space: pre; opacity: 1;" transform="translate(681.99,0)">60%</text></g><g class="x3tick"><text text-anchor="middle" x="0" y="243" style="font-family: 'Lucida Grande', 'Open Sans', verdana, arial, sans-serif; font-size: 9px; fill: rgb(0, 0, 0); fill-opacity: 0.5; white-space: pre; opacity: 1;" transform="translate(881,0)">80%</text></g><g class="x3tick"><text text-anchor="middle" x="0" y="243" style="font-family: 'Lucida Grande', 'Open Sans', verdana, arial, sans-serif; font-size: 9px; fill: rgb(0, 0, 0); fill-opacity: 0.5; white-space: pre; opacity: 1;" transform="translate(1080,0)">100%</text></g></g><g class="yaxislayer-above"><g class="y3tick"><text text-anchor="end" x="79" y="3.15" transform="translate(0,211.88923076923078)" style="font-family: 'Lucida Grande', 'Open Sans', verdana, arial, sans-serif; font-size: 9px; fill: rgb(0, 0, 0); fill-opacity: 0.5; white-space: pre; opacity: 1;">% of all reads  </text></g></g><g class="overaxes-above"/></g></g><g class="polarlayer"/><g class="smithlayer"/><g class="ternarylayer"/><g class="geolayer"/><g class="funnelarealayer"/><g class="pielayer"/><g class="iciclelayer"/><g class="treemaplayer"/><g class="sunburstlayer"/><g class="glimages"/><defs id="topdefs-03e342"><g class="clips"/></defs><g class="layer-above"><g class="imagelayer"/><g class="shapelayer"/></g><g class="infolayer"><g class="g-gtitle"><text class="gtitle" x="550" y="25" text-anchor="middle" dy="0em" style="opacity: 1; font-family: 'Lucida Grande', 'Open Sans', verdana, arial, sans-serif; font-size: 20px; fill: rgb(42, 63, 95); fill-opacity: 1; white-space: pre;"><tspan class="line" dy="0em" x="550" y="25">FastQC: Top overrepresented sequences</tspan><tspan class="line" dy="1.3em" x="550" y="25"><tspan style="font-size:70%" dy="-0.6em">20 samples</tspan><tspan dy="0.42em"></tspan></tspan></text></g><g class="g-xtitle"/><g class="g-x2title"/><g class="g-x3title"/><g class="g-ytitle"/><g class="g-y2title"/><g class="g-y3title"/></g></svg>