<svg class="main-svg" xmlns="http://www.w3.org/2000/svg" xmlns:xlink="http://www.w3.org/1999/xlink" width="2200" height="1000" style="" viewBox="0 0 1100 500"><rect x="0" y="0" width="1100" height="500" style="fill: rgb(255, 255, 255); fill-opacity: 1;"/><defs id="defs-e79945"><g class="clips"><clipPath id="clipe79945xyplot" class="plotclip"><rect width="1011" height="385"/></clipPath><clipPath class="axesclip" id="clipe79945x"><rect x="60" y="0" width="1011" height="500"/></clipPath><clipPath class="axesclip" id="clipe79945y"><rect x="0" y="50" width="1100" height="385"/></clipPath><clipPath class="axesclip" id="clipe79945xy"><rect x="60" y="50" width="1011" height="385"/></clipPath></g><g class="gradients"/><g class="patterns"/></defs><g class="bglayer"/><g class="layer-below"><g class="imagelayer"/><g class="shapelayer"><g class="shape-group" data-index="0" clip-path="url(#clipe79945y)"><path data-index="0" fill-rule="evenodd" d="M60,-1105H1071V-7265H60Z" style="opacity: 1; stroke: rgb(0, 0, 0); stroke-opacity: 0; fill: rgb(230, 195, 195); fill-opacity: 1; stroke-width: 0px;"/></g><g class="shape-group" data-index="1" clip-path="url(#clipe79945y)"><path data-index="1" fill-rule="evenodd" d="M60,50H1071V-1105H60Z" style="opacity: 1; stroke: rgb(0, 0, 0); stroke-opacity: 0; fill: rgb(230, 220, 195); fill-opacity: 1; stroke-width: 0px;"/></g><g class="shape-group" data-index="2" clip-path="url(#clipe79945y)"><path data-index="2" fill-rule="evenodd" d="M60,435H1071V50H60Z" style="opacity: 1; stroke: rgb(0, 0, 0); stroke-opacity: 0; fill: rgb(195, 230, 195); fill-opacity: 1; stroke-width: 0px;"/></g><g class="shape-group" data-index="3" clip-path="url(#clipe79945y)"><path data-index="3" fill-rule="evenodd" d="M60,-1105H1071V-7265H60Z" style="opacity: 1; stroke: rgb(0, 0, 0); stroke-opacity: 0; fill: rgb(230, 195, 195); fill-opacity: 1; stroke-width: 0px;"/></g><g class="shape-group" data-index="4" clip-path="url(#clipe79945y)"><path data-index="4" fill-rule="evenodd" d="M60,50H1071V-1105H60Z" style="opacity: 1; stroke: rgb(0, 0, 0); stroke-opacity: 0; fill: rgb(230, 220, 195); fill-opacity: 1; stroke-width: 0px;"/></g><g class="shape-group" data-index="5" clip-path="url(#clipe79945y)"><path data-index="5" fill-rule="evenodd" d="M60,435H1071V50H60Z" style="opacity: 1; stroke: rgb(0, 0, 0); stroke-opacity: 0; fill: rgb(195, 230, 195); fill-opacity: 1; stroke-width: 0px;"/></g></g></g><g class="cartesianlayer"><g class="subplot xy"><g class="layer-subplot"><g class="shapelayer"/><g class="imagelayer"/></g><g class="minor-gridlayer"><g class="x"/><g class="y"/></g><g class="gridlayer"><g class="x"><path class="xgrid crisp" transform="translate(312.75,0)" d="M0,50v385" style="stroke: rgb(0, 0, 0); stroke-opacity: 0.05; stroke-width: 1px;"/><path class="xgrid crisp" transform="translate(565.5,0)" d="M0,50v385" style="stroke: rgb(0, 0, 0); stroke-opacity: 0.05; stroke-width: 1px;"/><path class="xgrid crisp" transform="translate(818.25,0)" d="M0,50v385" style="stroke: rgb(0, 0, 0); stroke-opacity: 0.05; stroke-width: 1px;"/></g><g class="y"><path class="ygrid crisp" transform="translate(0,358)" d="M60,0h1011" style="stroke: rgb(0, 0, 0); stroke-opacity: 0.05; stroke-width: 1px;"/><path class="ygrid crisp" transform="translate(0,281)" d="M60,0h1011" style="stroke: rgb(0, 0, 0); stroke-opacity: 0.05; stroke-width: 1px;"/><path class="ygrid crisp" transform="translate(0,204)" d="M60,0h1011" style="stroke: rgb(0, 0, 0); stroke-opacity: 0.05; stroke-width: 1px;"/><path class="ygrid crisp" transform="translate(0,127)" d="M60,0h1011" style="stroke: rgb(0, 0, 0); stroke-opacity: 0.05; stroke-width: 1px;"/></g></g><g class="zerolinelayer"><path class="xzl zl crisp" transform="translate(60,0)" d="M0,50v385" style="stroke: rgb(0, 0, 0); stroke-opacity: 0.05; stroke-width: 2px;"/><path class="yzl zl crisp" transform="translate(0,435)" d="M60,0h1011" style="stroke: rgb(0, 0, 0); stroke-opacity: 0.05; stroke-width: 2px;"/></g><g class="layer-between"><g class="shapelayer"/><g class="imagelayer"/></g><path class="xlines-below"/><path class="ylines-below"/><g class="overlines-below"/><g class="xaxislayer-below"/><g class="yaxislayer-below"/><g class="overaxes-below"/><g class="overplot"><g class="xy" transform="translate(60,50)" clip-path="url(#clipe79945xyplot)"><g class="scatterlayer mlayer"><g class="trace scatter trace3a8f33" style="stroke-miterlimit: 2; opacity: 1;"><g class="fills"/><g class="errorbars"/><g class="lines"><path class="js-line" d="M5.06,380.82L10.11,380.53L15.17,342.29L20.22,385L25.28,384.74L40.44,384.98L45.5,385L758.25,384.99" style="vector-effect: none; fill: none; stroke: rgb(92, 184, 92); stroke-opacity: 1; stroke-width: 2px; opacity: 1;"/></g><g class="points"/><g class="text"/></g><g class="trace scatter trace7c5e8d" style="stroke-miterlimit: 2; opacity: 1;"><g class="fills"/><g class="errorbars"/><g class="lines"><path class="js-line" d="M5.06,378.51L10.11,383.41L15.17,384.99L30.33,384.83L35.39,384.98L202.2,384.94L227.48,384.92L581.32,384.97L606.6,384.91L758.25,384.93" style="vector-effect: none; fill: none; stroke: rgb(92, 184, 92); stroke-opacity: 1; stroke-width: 2px; opacity: 1;"/></g><g class="points"/><g class="text"/></g><g class="trace scatter trace17dfde" style="stroke-miterlimit: 2; opacity: 1;"><g class="fills"/><g class="errorbars"/><g class="lines"><path class="js-line" d="M5.06,382.96L10.11,380.24L15.17,385L758.25,384.97" style="vector-effect: none; fill: none; stroke: rgb(92, 184, 92); stroke-opacity: 1; stroke-width: 2px; opacity: 1;"/></g><g class="points"/><g class="text"/></g><g class="trace scatter trace326b81" style="stroke-miterlimit: 2; opacity: 1;"><g class="fills"/><g class="errorbars"/><g class="lines"><path class="js-line" d="M5.06,377.7L10.11,383.99L15.17,384.94L101.1,384.99L126.38,385L758.25,385" style="vector-effect: none; fill: none; stroke: rgb(92, 184, 92); stroke-opacity: 1; stroke-width: 2px; opacity: 1;"/></g><g class="points"/><g class="text"/></g><g class="trace scatter trace8c3fa3" style="stroke-miterlimit: 2; opacity: 1;"><g class="fills"/><g class="errorbars"/><g class="lines"><path class="js-line" d="M5.06,380.87L10.11,380.48L15.17,342.24L20.22,385L25.28,384.75L40.44,384.99L45.5,385L758.25,384.99" style="vector-effect: none; fill: none; stroke: rgb(92, 184, 92); stroke-opacity: 1; stroke-width: 2px; opacity: 1;"/></g><g class="points"/><g class="text"/></g><g class="trace scatter tracee3cb1f" style="stroke-miterlimit: 2; opacity: 1;"><g class="fills"/><g class="errorbars"/><g class="lines"><path class="js-line" d="M5.06,378.49L10.11,383.4L15.17,384.99L30.33,384.83L35.39,384.98L202.2,384.94L227.48,384.92L581.32,384.96L606.6,384.91L758.25,384.92" style="vector-effect: none; fill: none; stroke: rgb(92, 184, 92); stroke-opacity: 1; stroke-width: 2px; opacity: 1;"/></g><g class="points"/><g class="text"/></g><g class="trace scatter tracef1f06c" style="stroke-miterlimit: 2; opacity: 1;"><g class="fills"/><g class="errorbars"/><g class="lines"><path class="js-line" d="M5.06,383.01L10.11,380.09L15.17,385L758.25,384.96" style="vector-effect: none; fill: none; stroke: rgb(92, 184, 92); stroke-opacity: 1; stroke-width: 2px; opacity: 1;"/></g><g class="points"/><g class="text"/></g><g class="trace scatter tracea122a5" style="stroke-miterlimit: 2; opacity: 1;"><g class="fills"/><g class="errorbars"/><g class="lines"><path class="js-line" d="M5.06,377.69L10.11,383.98L15.17,384.95L126.38,385L151.65,384.99L758.25,385" style="vector-effect: none; fill: none; stroke: rgb(92, 184, 92); stroke-opacity: 1; stroke-width: 2px; opacity: 1;"/></g><g class="points"/><g class="text"/></g><g class="trace scatter trace86d96f" style="stroke-miterlimit: 2; opacity: 1;"><g class="fills"/><g class="errorbars"/><g class="lines"><path class="js-line" d="M5.06,380.87L10.11,380.44L15.17,342.64L20.22,385L25.28,384.77L45.5,385L50.55,385L126.38,384.9L151.65,384.9L404.4,384.79L429.67,384.89L758.25,384.99" style="vector-effect: none; fill: none; stroke: rgb(92, 184, 92); stroke-opacity: 1; stroke-width: 2px; opacity: 1;"/></g><g class="points"/><g class="text"/></g><g class="trace scatter trace1b24cf" style="stroke-miterlimit: 2; opacity: 1;"><g class="fills"/><g class="errorbars"/><g class="lines"><path class="js-line" d="M5.06,378.56L10.11,383.38L15.17,384.99L30.33,384.8L35.39,384.98L202.2,384.94L227.48,384.92L707.7,384.94L732.97,384.92L758.25,384.92" style="vector-effect: none; fill: none; stroke: rgb(92, 184, 92); stroke-opacity: 1; stroke-width: 2px; opacity: 1;"/></g><g class="points"/><g class="text"/></g><g class="trace scatter traced903d9" style="stroke-miterlimit: 2; opacity: 1;"><g class="fills"/><g class="errorbars"/><g class="lines"><path class="js-line" d="M5.06,383L10.11,380.14L15.17,385L758.25,384.97" style="vector-effect: none; fill: none; stroke: rgb(92, 184, 92); stroke-opacity: 1; stroke-width: 2px; opacity: 1;"/></g><g class="points"/><g class="text"/></g><g class="trace scatter trace23bf04" style="stroke-miterlimit: 2; opacity: 1;"><g class="fills"/><g class="errorbars"/><g class="lines"><path class="js-line" d="M5.06,377.58L10.11,384L15.17,384.95L126.38,385L151.65,384.99L758.25,385" style="vector-effect: none; fill: none; stroke: rgb(92, 184, 92); stroke-opacity: 1; stroke-width: 2px; opacity: 1;"/></g><g class="points"/><g class="text"/></g><g class="trace scatter trace507b0b" style="stroke-miterlimit: 2; opacity: 1;"><g class="fills"/><g class="errorbars"/><g class="lines"><path class="js-line" d="M5.06,380.9L10.11,380.52L15.17,342.51L20.22,385L25.28,384.73L40.44,384.99L45.5,385L758.25,385" style="vector-effect: none; fill: none; stroke: rgb(92, 184, 92); stroke-opacity: 1; stroke-width: 2px; opacity: 1;"/></g><g class="points"/><g class="text"/></g><g class="trace scatter trace980c56" style="stroke-miterlimit: 2; opacity: 1;"><g class="fills"/><g class="errorbars"/><g class="lines"><path class="js-line" d="M5.06,378.41L10.11,383.48L15.17,385L30.33,384.82L35.39,384.98L202.2,384.94L227.48,384.92L707.7,384.95L732.97,384.92L758.25,384.92" style="vector-effect: none; fill: none; stroke: rgb(92, 184, 92); stroke-opacity: 1; stroke-width: 2px; opacity: 1;"/></g><g class="points"/><g class="text"/></g><g class="trace scatter trace82a0ed" style="stroke-miterlimit: 2; opacity: 1;"><g class="fills"/><g class="errorbars"/><g class="lines"><path class="js-line" d="M5.06,383.11L10.11,380.21L15.17,385L758.25,384.96" style="vector-effect: none; fill: none; stroke: rgb(92, 184, 92); stroke-opacity: 1; stroke-width: 2px; opacity: 1;"/></g><g class="points"/><g class="text"/></g><g class="trace scatter trace819954" style="stroke-miterlimit: 2; opacity: 1;"><g class="fills"/><g class="errorbars"/><g class="lines"><path class="js-line" d="M5.06,377.62L10.11,384.01L15.17,384.95L101.1,384.99L126.38,385L758.25,385" style="vector-effect: none; fill: none; stroke: rgb(92, 184, 92); stroke-opacity: 1; stroke-width: 2px; opacity: 1;"/></g><g class="points"/><g class="text"/></g><g class="trace scatter tracee6fecf" style="stroke-miterlimit: 2; opacity: 1;"><g class="fills"/><g class="errorbars"/><g class="lines"><path class="js-line" d="M5.06,380.92L10.11,380.5L15.17,342.69L20.22,385L25.28,384.76L45.5,385L50.55,385L126.38,384.9L151.65,384.91L404.4,384.8L429.67,384.9L707.7,384.85L732.97,384.97L758.25,384.99" style="vector-effect: none; fill: none; stroke: rgb(92, 184, 92); stroke-opacity: 1; stroke-width: 2px; opacity: 1;"/></g><g class="points"/><g class="text"/></g><g class="trace scatter trace495bf4" style="stroke-miterlimit: 2; opacity: 1;"><g class="fills"/><g class="errorbars"/><g class="lines"><path class="js-line" d="M5.06,378.69L10.11,383.44L15.17,384.99L30.33,384.84L35.39,384.97L151.65,384.94L176.93,385L505.5,384.93L530.78,385L758.25,384.93" style="vector-effect: none; fill: none; stroke: rgb(92, 184, 92); stroke-opacity: 1; stroke-width: 2px; opacity: 1;"/></g><g class="points"/><g class="text"/></g><g class="trace scatter traceca7044" style="stroke-miterlimit: 2; opacity: 1;"><g class="fills"/><g class="errorbars"/><g class="lines"><path class="js-line" d="M5.06,383.08L10.11,380.35L15.17,385L758.25,384.97" style="vector-effect: none; fill: none; stroke: rgb(92, 184, 92); stroke-opacity: 1; stroke-width: 2px; opacity: 1;"/></g><g class="points"/><g class="text"/></g><g class="trace scatter traced3a566" style="stroke-miterlimit: 2; opacity: 1;"><g class="fills"/><g class="errorbars"/><g class="lines"><path class="js-line" d="M5.06,377.77L10.11,384.03L15.17,384.96L404.4,385L429.67,385L758.25,385" style="vector-effect: none; fill: none; stroke: rgb(92, 184, 92); stroke-opacity: 1; stroke-width: 2px; opacity: 1;"/></g><g class="points"/><g class="text"/></g><g class="trace scatter trace6cd132" style="stroke-miterlimit: 2; opacity: 1;"><g class="fills"/><g class="errorbars"/><g class="lines"><path class="js-line" d="M5.06,380.89L10.11,380.56L15.17,342.83L20.22,385L25.28,384.73L40.44,384.99L45.5,385L758.25,384.99" style="vector-effect: none; fill: none; stroke: rgb(92, 184, 92); stroke-opacity: 1; stroke-width: 2px; opacity: 1;"/></g><g class="points"/><g class="text"/></g><g class="trace scatter tracedfda10" style="stroke-miterlimit: 2; opacity: 1;"><g class="fills"/><g class="errorbars"/><g class="lines"><path class="js-line" d="M5.06,378.54L10.11,383.39L15.17,385L30.33,384.83L35.39,384.99L379.13,384.97L404.4,384.96L758.25,384.92" style="vector-effect: none; fill: none; stroke: rgb(92, 184, 92); stroke-opacity: 1; stroke-width: 2px; opacity: 1;"/></g><g class="points"/><g class="text"/></g><g class="trace scatter traceb49797" style="stroke-miterlimit: 2; opacity: 1;"><g class="fills"/><g class="errorbars"/><g class="lines"><path class="js-line" d="M5.06,383.14L10.11,380.27L15.17,385L758.25,384.97" style="vector-effect: none; fill: none; stroke: rgb(92, 184, 92); stroke-opacity: 1; stroke-width: 2px; opacity: 1;"/></g><g class="points"/><g class="text"/></g><g class="trace scatter trace23b3a5" style="stroke-miterlimit: 2; opacity: 1;"><g class="fills"/><g class="errorbars"/><g class="lines"><path class="js-line" d="M5.06,377.75L10.11,383.98L15.17,384.95L126.38,385L151.65,384.98L758.25,385" style="vector-effect: none; fill: none; stroke: rgb(92, 184, 92); stroke-opacity: 1; stroke-width: 2px; opacity: 1;"/></g><g class="points"/><g class="text"/></g><g class="trace scatter tracee27c14" style="stroke-miterlimit: 2; opacity: 1;"><g class="fills"/><g class="errorbars"/><g class="lines"><path class="js-line" d="M5.06,385L10.11,369.76L15.17,384.49L20.22,375.13L25.28,385L30.33,385L35.39,377.3L40.44,384.92L45.5,384.83L50.55,384.82L60.66,380.7L70.77,385L80.88,385L212.31,384.99L222.42,376.13L232.53,385L242.64,384.98L252.75,380.05L262.86,384.45L283.08,384.72L293.19,384.84L323.52,383.97L333.63,385L363.96,384.96L374.07,384.9L384.18,384.46L394.29,381.11L404.4,385L414.51,384.99L424.62,384.97L434.73,375.67L444.84,384.75L454.95,384.71L465.06,384.78L475.17,380.41L485.28,384.36L495.39,384.99L505.5,384.76" style="vector-effect: none; fill: none; stroke: rgb(92, 184, 92); stroke-opacity: 1; stroke-width: 2px; opacity: 1;"/></g><g class="points"/><g class="text"/></g><g class="trace scatter tracecb06b9" style="stroke-miterlimit: 2; opacity: 1;"><g class="fills"/><g class="errorbars"/><g class="lines"><path class="js-line" d="M5.06,371.06L10.11,373.58L15.17,383.7L25.28,384.59L30.33,376.32L35.39,384.99L40.44,384.97L75.82,384.92L101.1,380.49L126.38,384.71L151.65,379.38L176.93,383.08L202.2,384.82L227.48,377.79L252.75,383.05L278.02,377.58L303.3,384.8L328.58,384.01L353.85,384.91L480.23,384.64L505.5,379.39L530.78,379.75L556.05,383.14L581.32,384.94L606.6,384.91L682.43,384.93L707.7,383.2L732.97,384.84L758.25,383.12L783.53,384.96L808.8,384.77L834.08,384.16L859.35,377.57L884.63,384.65L909.9,382.9L935.18,381.43L960.45,384.81L985.72,385L1011,380.01" style="vector-effect: none; fill: none; stroke: rgb(92, 184, 92); stroke-opacity: 1; stroke-width: 2px; opacity: 1;"/></g><g class="points"/><g class="text"/></g><g class="trace scatter trace04dff9" style="stroke-miterlimit: 2; opacity: 1;"><g class="fills"/><g class="errorbars"/><g class="lines"><path class="js-line" d="M5.06,385L10.11,370.15L15.17,384.48L20.22,375.24L25.28,385L30.33,385L35.39,377.14L40.44,384.9L45.5,384.85L50.55,384.8L60.66,380.72L70.77,385L80.88,385L212.31,384.99L222.42,376.14L232.53,385L242.64,384.98L252.75,380L262.86,384.44L283.08,384.71L293.19,384.86L323.52,383.97L333.63,385L363.96,384.97L374.07,384.89L384.18,384.46L394.29,380.65L404.4,385L414.51,384.99L424.62,384.97L434.73,375.8L444.84,384.78L454.95,384.74L465.06,384.78L475.17,380.4L485.28,384.36L495.39,384.99L505.5,384.76" style="vector-effect: none; fill: none; stroke: rgb(92, 184, 92); stroke-opacity: 1; stroke-width: 2px; opacity: 1;"/></g><g class="points"/><g class="text"/></g><g class="trace scatter traced0735a" style="stroke-miterlimit: 2; opacity: 1;"><g class="fills"/><g class="errorbars"/><g class="lines"><path class="js-line" d="M5.06,371.22L10.11,373.94L15.17,383.61L25.28,384.59L30.33,375.36L35.39,385L40.44,384.97L75.82,384.93L101.1,380.54L126.38,384.71L151.65,379.43L176.93,383.09L202.2,384.84L227.48,377.8L252.75,383.04L278.02,377.56L303.3,384.82L328.58,384.01L353.85,384.92L480.23,384.65L505.5,379.45L530.78,379.66L556.05,383.12L581.32,384.95L606.6,384.92L682.43,384.92L707.7,383.21L732.97,384.83L758.25,383.14L783.53,384.95L808.8,384.78L834.08,384.15L859.35,377.63L884.63,384.67L909.9,382.88L935.18,381.41L960.45,384.81L985.72,385L1011,379.9" style="vector-effect: none; fill: none; stroke: rgb(92, 184, 92); stroke-opacity: 1; stroke-width: 2px; opacity: 1;"/></g><g class="points"/><g class="text"/></g><g class="trace scatter tracebb8885" style="stroke-miterlimit: 2; opacity: 1;"><g class="fills"/><g class="errorbars"/><g class="lines"><path class="js-line" d="M5.06,385L10.11,370.76L15.17,384.48L20.22,375.13L25.28,385L30.33,385L35.39,376.99L40.44,384.92L45.5,384.87L50.55,384.8L60.66,380.82L70.77,385L80.88,385L212.31,384.99L222.42,376.07L232.53,385L242.64,384.97L252.75,380.14L262.86,384.46L283.08,384.72L293.19,384.85L323.52,384.05L333.63,385L384.18,384.46L394.29,380.72L404.4,385L414.51,384.98L424.62,384.97L434.73,375.93L444.84,384.78L454.95,384.76L465.06,384.81L475.17,380.47L485.28,384.39L495.39,384.99L505.5,384.78" style="vector-effect: none; fill: none; stroke: rgb(92, 184, 92); stroke-opacity: 1; stroke-width: 2px; opacity: 1;"/></g><g class="points"/><g class="text"/></g><g class="trace scatter tracedef4bb" style="stroke-miterlimit: 2; opacity: 1;"><g class="fills"/><g class="errorbars"/><g class="lines"><path class="js-line" d="M5.06,371.27L10.11,374.46L15.17,383.62L25.28,384.65L30.33,375.49L35.39,384.99L40.44,384.97L75.82,384.94L101.1,380.58L126.38,384.72L151.65,379.46L176.93,383.06L202.2,384.84L227.48,377.86L252.75,383.03L278.02,377.56L303.3,384.83L328.58,384.04L353.85,384.93L480.23,384.66L505.5,379.51L530.78,379.69L556.05,383.14L581.32,384.95L606.6,384.92L682.43,384.92L707.7,383.19L732.97,384.83L758.25,383.16L783.53,384.95L808.8,384.8L834.08,384.18L859.35,377.65L884.63,384.68L909.9,382.88L935.18,381.43L960.45,384.81L985.72,385L1011,379.7" style="vector-effect: none; fill: none; stroke: rgb(92, 184, 92); stroke-opacity: 1; stroke-width: 2px; opacity: 1;"/></g><g class="points"/><g class="text"/></g><g class="trace scatter traced9f2b5" style="stroke-miterlimit: 2; opacity: 1;"><g class="fills"/><g class="errorbars"/><g class="lines"><path class="js-line" d="M5.06,385L10.11,371.04L15.17,384.46L20.22,375.16L25.28,385L30.33,385L35.39,377.1L40.44,384.91L45.5,384.86L50.55,384.83L60.66,380.86L70.77,385L80.88,385L212.31,384.99L222.42,376.01L232.53,385L242.64,384.97L252.75,380.03L262.86,384.47L283.08,384.72L293.19,384.85L323.52,384.04L333.63,385L384.18,384.47L394.29,380.82L404.4,385L414.51,384.98L424.62,384.97L434.73,375.95L444.84,384.8L454.95,384.76L465.06,384.81L475.17,380.42L485.28,384.38L495.39,384.99L505.5,384.77" style="vector-effect: none; fill: none; stroke: rgb(92, 184, 92); stroke-opacity: 1; stroke-width: 2px; opacity: 1;"/></g><g class="points"/><g class="text"/></g><g class="trace scatter trace14e331" style="stroke-miterlimit: 2; opacity: 1;"><g class="fills"/><g class="errorbars"/><g class="lines"><path class="js-line" d="M5.06,371.51L10.11,374.83L15.17,383.62L25.28,384.63L30.33,375.77L35.39,385L40.44,384.97L75.82,384.93L101.1,380.55L126.38,384.71L151.65,379.46L176.93,383.12L202.2,384.85L227.48,377.87L252.75,383.03L278.02,377.56L303.3,384.83L328.58,384.03L353.85,384.93L480.23,384.66L505.5,379.57L530.78,379.58L556.05,383.17L581.32,384.95L606.6,384.92L682.43,384.93L707.7,383.19L732.97,384.84L758.25,383.13L783.53,384.96L808.8,384.79L834.08,384.19L859.35,377.6L884.63,384.69L909.9,382.88L935.18,381.4L960.45,384.81L985.72,385L1011,379.62" style="vector-effect: none; fill: none; stroke: rgb(92, 184, 92); stroke-opacity: 1; stroke-width: 2px; opacity: 1;"/></g><g class="points"/><g class="text"/></g><g class="trace scatter trace8802ef" style="stroke-miterlimit: 2; opacity: 1;"><g class="fills"/><g class="errorbars"/><g class="lines"><path class="js-line" d="M5.06,385L10.11,370.34L15.17,384.5L20.22,375.12L25.28,385L30.33,385L35.39,376.96L40.44,384.93L45.5,384.87L50.55,384.82L60.66,380.73L70.77,385L80.88,385L212.31,384.99L222.42,376.11L232.53,385L242.64,384.98L252.75,379.99L262.86,384.45L283.08,384.71L293.19,384.84L323.52,384.01L333.63,385L363.96,384.96L374.07,384.9L384.18,384.45L394.29,380.73L404.4,385L414.51,384.99L424.62,384.97L434.73,375.85L444.84,384.77L454.95,384.73L465.06,384.79L475.17,380.45L485.28,384.37L495.39,384.99L505.5,384.75" style="vector-effect: none; fill: none; stroke: rgb(92, 184, 92); stroke-opacity: 1; stroke-width: 2px; opacity: 1;"/></g><g class="points"/><g class="text"/></g><g class="trace scatter trace6ceb39" style="stroke-miterlimit: 2; opacity: 1;"><g class="fills"/><g class="errorbars"/><g class="lines"><path class="js-line" d="M5.06,371.32L10.11,374.18L15.17,383.67L20.22,383.75L25.28,384.61L30.33,375.57L35.39,384.99L75.82,384.93L101.1,380.54L126.38,384.71L151.65,379.43L176.93,383.09L202.2,384.84L227.48,377.91L252.75,383.07L278.02,377.63L303.3,384.81L328.58,384.01L353.85,384.92L480.23,384.65L505.5,379.5L530.78,379.71L556.05,383.16L581.32,384.95L606.6,384.91L682.43,384.93L707.7,383.19L732.97,384.84L758.25,383.14L783.53,384.95L808.8,384.78L834.08,384.16L859.35,377.61L884.63,384.67L909.9,382.91L935.18,381.47L960.45,384.81L985.72,385L1011,379.63" style="vector-effect: none; fill: none; stroke: rgb(92, 184, 92); stroke-opacity: 1; stroke-width: 2px; opacity: 1;"/></g><g class="points"/><g class="text"/></g><g class="trace scatter trace9450a0" style="stroke-miterlimit: 2; opacity: 1;"><g class="fills"/><g class="errorbars"/><g class="lines"><path class="js-line" d="M5.06,385L10.11,370.26L15.17,384.47L20.22,375.2L25.28,385L30.33,385L35.39,376.91L40.44,384.91L45.5,384.83L50.55,384.82L60.66,380.7L70.77,385L80.88,385L212.31,384.98L222.42,376.04L232.53,384.99L242.64,384.97L252.75,379.97L262.86,384.46L283.08,384.73L293.19,384.85L323.52,384L333.63,385L363.96,384.97L374.07,384.9L384.18,384.47L394.29,380.88L404.4,385L414.51,384.98L424.62,384.97L434.73,375.83L444.84,384.76L454.95,384.73L465.06,384.78L475.17,380.37L485.28,384.36L495.39,384.99L505.5,384.75" style="vector-effect: none; fill: none; stroke: rgb(92, 184, 92); stroke-opacity: 1; stroke-width: 2px; opacity: 1;"/></g><g class="points"/><g class="text"/></g><g class="trace scatter trace243c0c" style="stroke-miterlimit: 2; opacity: 1;"><g class="fills"/><g class="errorbars"/><g class="lines"><path class="js-line" d="M5.06,371.24L10.11,374.22L15.17,383.58L25.28,384.58L30.33,375.88L35.39,384.99L40.44,384.97L75.82,384.92L101.1,380.51L126.38,384.7L151.65,379.41L176.93,383.08L202.2,384.83L227.48,377.83L252.75,383.06L278.02,377.56L303.3,384.8L328.58,384.01L353.85,384.92L480.23,384.65L505.5,379.49L530.78,379.7L556.05,383.13L581.32,384.95L606.6,384.92L682.43,384.92L707.7,383.22L732.97,384.82L758.25,383.14L783.53,384.95L808.8,384.77L834.08,384.15L859.35,377.61L884.63,384.66L909.9,382.89L935.18,381.44L960.45,384.81L985.72,384.99L1011,379.86" style="vector-effect: none; fill: none; stroke: rgb(92, 184, 92); stroke-opacity: 1; stroke-width: 2px; opacity: 1;"/></g><g class="points"/><g class="text"/></g><g class="trace scatter trace59adee" style="stroke-miterlimit: 2; opacity: 1;"><g class="fills"/><g class="errorbars"/><g class="lines"><path class="js-line" d="M5.06,385L10.11,371.2L15.17,384.54L20.22,375.39L25.28,385L30.33,385L35.39,376.73L40.44,384.92L45.5,384.82L50.55,384.81L60.66,380.83L70.77,385L80.88,385L212.31,384.98L222.42,375.96L232.53,385L242.64,384.98L252.75,379.96L262.86,384.46L283.08,384.73L293.19,384.84L323.52,384.03L333.63,385L384.18,384.47L394.29,380.81L404.4,385L414.51,384.99L424.62,384.97L434.73,375.62L444.84,384.79L454.95,384.78L465.06,384.78L475.17,380.34L485.28,384.39L495.39,384.99L505.5,384.74" style="vector-effect: none; fill: none; stroke: rgb(92, 184, 92); stroke-opacity: 1; stroke-width: 2px; opacity: 1;"/></g><g class="points"/><g class="text"/></g><g class="trace scatter trace21f73c" style="stroke-miterlimit: 2; opacity: 1;"><g class="fills"/><g class="errorbars"/><g class="lines"><path class="js-line" d="M5.06,371.8L10.11,374.8L15.17,383.78L25.28,384.59L30.33,375.69L35.39,385L40.44,384.96L75.82,384.93L101.1,380.58L126.38,384.69L151.65,379.4L176.93,383.11L202.2,384.85L227.48,377.85L252.75,383.09L278.02,377.52L303.3,384.82L328.58,384.06L353.85,384.92L480.23,384.67L505.5,379.49L530.78,379.65L556.05,383.14L581.32,384.95L606.6,384.92L682.43,384.93L707.7,383.18L732.97,384.84L758.25,383.16L783.53,384.96L808.8,384.79L834.08,384.23L859.35,377.67L884.63,384.69L909.9,382.9L935.18,381.43L960.45,384.81L985.72,385L1011,379.62" style="vector-effect: none; fill: none; stroke: rgb(92, 184, 92); stroke-opacity: 1; stroke-width: 2px; opacity: 1;"/></g><g class="points"/><g class="text"/></g><g class="trace scatter tracedf3889" style="stroke-miterlimit: 2; opacity: 1;"><g class="fills"/><g class="errorbars"/><g class="lines"><path class="js-line" d="M5.06,385L10.11,369.55L15.17,384.47L20.22,375.15L25.28,385L30.33,385L35.39,377.15L40.44,384.9L45.5,384.85L50.55,384.8L60.66,380.6L70.77,385L80.88,385L212.31,384.99L222.42,376.1L232.53,385L242.64,384.97L252.75,380.08L262.86,384.46L283.08,384.71L293.19,384.84L323.52,383.95L333.63,385L363.96,384.97L374.07,384.89L384.18,384.46L394.29,380.69L404.4,385L414.51,384.99L424.62,384.97L434.73,375.56L444.84,384.76L454.95,384.71L465.06,384.8L475.17,380.37L485.28,384.37L495.39,384.99L505.5,384.78" style="vector-effect: none; fill: none; stroke: rgb(92, 184, 92); stroke-opacity: 1; stroke-width: 2px; opacity: 1;"/></g><g class="points"/><g class="text"/></g><g class="trace scatter trace242a89" style="stroke-miterlimit: 2; opacity: 1;"><g class="fills"/><g class="errorbars"/><g class="lines"><path class="js-line" d="M5.06,370.77L10.11,373.52L15.17,383.63L25.28,384.62L30.33,375.43L35.39,385L40.44,384.98L75.82,384.93L101.1,380.46L126.38,384.71L151.65,379.3L176.93,383.09L202.2,384.83L227.48,377.9L252.75,383.09L278.02,377.5L303.3,384.8L328.58,383.99L353.85,384.92L480.23,384.65L505.5,379.24L530.78,379.77L556.05,383.15L581.32,384.94L606.6,384.91L682.43,384.93L707.7,383.25L732.97,384.83L758.25,383.14L783.53,384.95L808.8,384.77L834.08,384.15L859.35,377.47L884.63,384.66L909.9,382.87L935.18,381.41L960.45,384.81L985.72,385L1011,380.25" style="vector-effect: none; fill: none; stroke: rgb(92, 184, 92); stroke-opacity: 1; stroke-width: 2px; opacity: 1;"/></g><g class="points"/><g class="text"/></g><g class="trace scatter trace2afc28" style="stroke-miterlimit: 2; opacity: 1;"><g class="fills"/><g class="errorbars"/><g class="lines"><path class="js-line" d="M5.06,385L10.11,371.12L15.17,384.46L20.22,375.21L25.28,385L30.33,385L35.39,377.12L40.44,384.92L45.5,384.88L50.55,384.81L60.66,380.85L70.77,385L80.88,385L212.31,384.99L222.42,375.96L232.53,385L242.64,384.98L252.75,380.05L262.86,384.49L283.08,384.73L293.19,384.88L323.52,384.09L333.63,385L384.18,384.5L394.29,380.64L404.4,385L414.51,384.99L424.62,384.97L434.73,375.85L444.84,384.79L454.95,384.74L465.06,384.82L475.17,380.45L485.28,384.42L495.39,384.99L505.5,384.79" style="vector-effect: none; fill: none; stroke: rgb(92, 184, 92); stroke-opacity: 1; stroke-width: 2px; opacity: 1;"/></g><g class="points"/><g class="text"/></g><g class="trace scatter trace1fecc7" style="stroke-miterlimit: 2; opacity: 1;"><g class="fills"/><g class="errorbars"/><g class="lines"><path class="js-line" d="M5.06,371.63L10.11,374.7L15.17,383.63L25.28,384.66L30.33,375.38L35.39,384.99L40.44,384.97L75.82,384.93L101.1,380.56L126.38,384.73L151.65,379.43L176.93,383.13L202.2,384.85L227.48,377.88L252.75,383.04L278.02,377.68L303.3,384.83L328.58,384.04L353.85,384.93L480.23,384.69L505.5,379.53L530.78,379.7L556.05,383.19L581.32,384.95L606.6,384.92L682.43,384.94L707.7,383.21L732.97,384.84L758.25,383.14L783.53,384.95L808.8,384.8L834.08,384.19L859.35,377.57L884.63,384.71L909.9,382.91L935.18,381.45L960.45,384.82L985.72,385L1011,379.68" style="vector-effect: none; fill: none; stroke: rgb(92, 184, 92); stroke-opacity: 1; stroke-width: 2px; opacity: 1;"/></g><g class="points"/><g class="text"/></g><g class="trace scatter tracef993db" style="stroke-miterlimit: 2; opacity: 1;"><g class="fills"/><g class="errorbars"/><g class="lines"><path class="js-line" d="M5.06,384.99L10.11,369.55L15.17,384.45L20.22,375.15L25.28,384.99L30.33,384.99L35.39,377.22L40.44,384.91L45.5,384.81L50.55,384.8L60.66,380.57L70.77,384.99L80.88,384.99L212.31,384.98L222.42,376.09L232.53,385L242.64,384.97L252.75,380.09L262.86,384.44L283.08,384.72L293.19,384.82L323.52,383.91L333.63,385L363.96,384.96L374.07,384.89L384.18,384.45L394.29,380.72L404.4,385L414.51,384.99L424.62,384.97L434.73,375.5L444.84,384.75L454.95,384.71L465.06,384.76L475.17,380.3L485.28,384.33L495.39,384.99L505.5,384.74" style="vector-effect: none; fill: none; stroke: rgb(92, 184, 92); stroke-opacity: 1; stroke-width: 2px; opacity: 1;"/></g><g class="points"/><g class="text"/></g><g class="trace scatter trace5375dc" style="stroke-miterlimit: 2; opacity: 1;"><g class="fills"/><g class="errorbars"/><g class="lines"><path class="js-line" d="M5.06,370.97L10.11,373.48L15.17,383.67L25.28,384.56L30.33,375.47L35.39,385L40.44,384.97L75.82,384.92L101.1,380.4L126.38,384.69L151.65,379.25L176.93,383.1L202.2,384.82L227.48,377.87L252.75,383.09L278.02,377.51L303.3,384.79L328.58,383.98L353.85,384.91L480.23,384.61L505.5,379.21L530.78,379.86L556.05,383.14L581.32,384.94L606.6,384.91L682.43,384.93L707.7,383.25L732.97,384.82L758.25,383.16L783.53,384.95L808.8,384.75L834.08,384.12L859.35,377.41L884.63,384.63L909.9,382.87L935.18,381.4L960.45,384.8L985.72,385L1011,380.33" style="vector-effect: none; fill: none; stroke: rgb(92, 184, 92); stroke-opacity: 1; stroke-width: 2px; opacity: 1;"/></g><g class="points"/><g class="text"/></g><g class="trace scatter traced37514" style="stroke-miterlimit: 2; opacity: 1;"><g class="fills"/><g class="errorbars"/><g class="lines"><path class="js-line" d="M5.06,385L10.11,371.38L15.17,384.47L20.22,375.32L25.28,385L30.33,385L35.39,376.97L40.44,384.88L45.5,384.86L50.55,384.81L60.66,380.82L70.77,385L80.88,385L212.31,384.99L222.42,376L232.53,385L242.64,384.97L252.75,380.05L262.86,384.45L283.08,384.71L293.19,384.87L323.52,384.07L333.63,385L384.18,384.46L394.29,380.74L404.4,385L414.51,384.99L424.62,384.98L434.73,375.95L444.84,384.79L454.95,384.75L465.06,384.81L475.17,380.42L485.28,384.38L495.39,384.99L505.5,384.78" style="vector-effect: none; fill: none; stroke: rgb(92, 184, 92); stroke-opacity: 1; stroke-width: 2px; opacity: 1;"/></g><g class="points"/><g class="text"/></g><g class="trace scatter trace43bd79" style="stroke-miterlimit: 2; opacity: 1;"><g class="fills"/><g class="errorbars"/><g class="lines"><path class="js-line" d="M5.06,371.88L10.11,374.99L15.17,383.63L25.28,384.64L30.33,375.56L35.39,385L40.44,384.98L75.82,384.93L101.1,380.52L126.38,384.72L151.65,379.45L176.93,383.07L202.2,384.85L227.48,377.77L252.75,383.07L278.02,377.58L303.3,384.83L328.58,384.03L353.85,384.93L480.23,384.68L505.5,379.5L530.78,379.59L556.05,383.14L581.32,384.95L606.6,384.92L682.43,384.93L707.7,383.2L732.97,384.84L758.25,383.15L783.53,384.95L808.8,384.8L834.08,384.17L859.35,377.59L884.63,384.7L909.9,382.87L935.18,381.4L960.45,384.81L985.72,385L1011,379.58" style="vector-effect: none; fill: none; stroke: rgb(92, 184, 92); stroke-opacity: 1; stroke-width: 2px; opacity: 1;"/></g><g class="points"/><g class="text"/></g><g class="trace scatter tracecc6f28" style="stroke-miterlimit: 2; opacity: 1;"><g class="fills"/><g class="errorbars"/><g class="lines"><path class="js-line" d="M5.06,385L10.11,370.45L15.17,384.46L20.22,375.36L25.28,385L30.33,384.99L35.39,376.99L40.44,384.9L45.5,384.85L50.55,384.79L60.66,380.76L70.77,385L80.88,385L212.31,384.98L222.42,376.03L232.53,385L242.64,384.97L252.75,380.01L262.86,384.44L283.08,384.71L293.19,384.85L323.52,383.98L333.63,385L363.96,384.97L374.07,384.89L384.18,384.46L394.29,380.66L404.4,385L414.51,384.99L424.62,384.97L434.73,375.74L444.84,384.77L454.95,384.74L465.06,384.79L475.17,380.4L485.28,384.36L495.39,384.99L505.5,384.77" style="vector-effect: none; fill: none; stroke: rgb(92, 184, 92); stroke-opacity: 1; stroke-width: 2px; opacity: 1;"/></g><g class="points"/><g class="text"/></g><g class="trace scatter trace23f54b" style="stroke-miterlimit: 2; opacity: 1;"><g class="fills"/><g class="errorbars"/><g class="lines"><path class="js-line" d="M5.06,371.25L10.11,374.36L15.17,383.6L25.28,384.59L30.33,375.37L35.39,384.99L40.44,384.98L75.82,384.93L101.1,380.49L126.38,384.7L151.65,379.37L176.93,383.08L202.2,384.84L227.48,377.8L252.75,383.04L278.02,377.58L303.3,384.82L328.58,384.01L353.85,384.92L480.23,384.64L505.5,379.5L530.78,379.68L556.05,383.11L581.32,384.95L606.6,384.91L682.43,384.92L707.7,383.2L732.97,384.83L758.25,383.14L783.53,384.95L808.8,384.78L834.08,384.15L859.35,377.54L884.63,384.67L909.9,382.84L935.18,381.37L960.45,384.81L985.72,385L1011,379.9" style="vector-effect: none; fill: none; stroke: rgb(92, 184, 92); stroke-opacity: 1; stroke-width: 2px; opacity: 1;"/></g><g class="points"/><g class="text"/></g><g class="trace scatter traced35dc1" style="stroke-miterlimit: 2; opacity: 1;"><g class="fills"/><g class="errorbars"/><g class="lines"><path class="js-line" d="M5.06,384.99L10.11,370.72L15.17,384.48L20.22,375.36L25.28,384.99L30.33,384.99L35.39,377.12L40.44,384.91L45.5,384.83L50.55,384.8L60.66,380.75L70.77,384.99L80.88,384.99L212.31,384.98L222.42,376.04L232.53,385L242.64,384.97L252.75,380L262.86,384.45L283.08,384.71L293.19,384.84L323.52,384.03L333.63,385L363.96,384.96L374.07,384.89L384.18,384.47L394.29,380.69L404.4,385L414.51,384.98L424.62,384.98L434.73,375.58L444.84,384.77L454.95,384.73L465.06,384.78L475.17,380.24L485.28,384.37L495.39,384.99L505.5,384.77" style="vector-effect: none; fill: none; stroke: rgb(92, 184, 92); stroke-opacity: 1; stroke-width: 2px; opacity: 1;"/></g><g class="points"/><g class="text"/></g><g class="trace scatter trace5a9dd6" style="stroke-miterlimit: 2; opacity: 1;"><g class="fills"/><g class="errorbars"/><g class="lines"><path class="js-line" d="M5.06,371.5L10.11,374.42L15.17,383.62L25.28,384.6L30.33,375.46L35.39,384.99L40.44,384.97L75.82,384.93L101.1,380.44L126.38,384.7L151.65,379.28L176.93,383.08L202.2,384.83L227.48,377.81L252.75,383.05L278.02,377.55L303.3,384.81L328.58,384.01L353.85,384.92L480.23,384.64L505.5,379.29L530.78,379.71L556.05,383.15L581.32,384.94L606.6,384.92L682.43,384.92L707.7,383.23L732.97,384.83L758.25,383.11L783.53,384.95L808.8,384.79L834.08,384.15L859.35,377.42L884.63,384.66L909.9,382.86L935.18,381.38L960.45,384.81L985.72,385L1011,380.13" style="vector-effect: none; fill: none; stroke: rgb(92, 184, 92); stroke-opacity: 1; stroke-width: 2px; opacity: 1;"/></g><g class="points"/><g class="text"/></g><g class="trace scatter tracede4687" style="stroke-miterlimit: 2; opacity: 1;"><g class="fills"/><g class="errorbars"/><g class="lines"><path class="js-line" d="M5.06,385L10.11,370.47L15.17,384.47L20.22,375.07L25.28,385L30.33,384.99L35.39,376.96L40.44,384.91L45.5,384.85L50.55,384.81L60.66,380.8L70.77,385L80.88,385L212.31,384.99L222.42,376.02L232.53,385L242.64,384.98L252.75,380.06L262.86,384.47L283.08,384.72L293.19,384.85L323.52,383.98L333.63,385L363.96,384.97L374.07,384.89L384.18,384.49L394.29,380.65L404.4,385L414.51,384.98L424.62,384.97L434.73,375.69L444.84,384.77L454.95,384.73L465.06,384.78L475.17,380.32L485.28,384.39L495.39,384.99L505.5,384.76" style="vector-effect: none; fill: none; stroke: rgb(92, 184, 92); stroke-opacity: 1; stroke-width: 2px; opacity: 1;"/></g><g class="points"/><g class="text"/></g><g class="trace scatter tracedcaf29" style="stroke-miterlimit: 2; opacity: 1;"><g class="fills"/><g class="errorbars"/><g class="lines"><path class="js-line" d="M5.06,371.44L10.11,374.29L15.17,383.63L25.28,384.59L30.33,375.37L35.39,384.99L40.44,384.97L75.82,384.93L101.1,380.44L126.38,384.72L151.65,379.35L176.93,383.09L202.2,384.84L227.48,377.73L252.75,383.05L278.02,377.49L303.3,384.81L328.58,384L353.85,384.92L480.23,384.64L505.5,379.43L530.78,379.66L556.05,383.11L581.32,384.95L606.6,384.91L682.43,384.93L707.7,383.2L732.97,384.84L758.25,383.13L783.53,384.95L808.8,384.78L834.08,384.16L859.35,377.51L884.63,384.66L909.9,382.88L935.18,381.4L960.45,384.82L985.72,385L1011,379.9" style="vector-effect: none; fill: none; stroke: rgb(92, 184, 92); stroke-opacity: 1; stroke-width: 2px; opacity: 1;"/></g><g class="points"/><g class="text"/></g><g class="trace scatter tracec73f8a" style="stroke-miterlimit: 2; opacity: 1;"><g class="fills"/><g class="errorbars"/><g class="lines"><path class="js-line" d="M5.06,385L10.11,371.38L15.17,384.5L20.22,375.36L25.28,385L30.33,385L35.39,377.16L40.44,384.91L45.5,384.89L50.55,384.82L60.66,380.92L70.77,385L80.88,385L212.31,384.99L222.42,375.98L232.53,385L242.64,384.97L252.75,380.02L262.86,384.47L283.08,384.73L293.19,384.88L323.52,384.11L333.63,385L384.18,384.48L394.29,380.63L404.4,385L414.51,384.99L424.62,384.97L434.73,375.91L444.84,384.8L454.95,384.77L465.06,384.82L475.17,380.44L485.28,384.41L495.39,384.99L505.5,384.8" style="vector-effect: none; fill: none; stroke: rgb(92, 184, 92); stroke-opacity: 1; stroke-width: 2px; opacity: 1;"/></g><g class="points"/><g class="text"/></g><g class="trace scatter trace753ca0" style="stroke-miterlimit: 2; opacity: 1;"><g class="fills"/><g class="errorbars"/><g class="lines"><path class="js-line" d="M5.06,371.92L10.11,374.89L15.17,383.68L25.28,384.63L30.33,375.43L35.39,384.99L40.44,384.96L75.82,384.94L101.1,380.55L126.38,384.73L151.65,379.38L176.93,383.09L202.2,384.86L227.48,377.72L252.75,383.01L278.02,377.63L303.3,384.84L328.58,384.05L353.85,384.93L480.23,384.68L505.5,379.63L530.78,379.55L556.05,383.15L581.32,384.95L606.6,384.92L682.43,384.92L707.7,383.23L732.97,384.83L758.25,383.16L783.53,384.95L808.8,384.82L834.08,384.19L859.35,377.49L884.63,384.71L909.9,382.84L935.18,381.35L960.45,384.82L985.72,385L1011,379.6" style="vector-effect: none; fill: none; stroke: rgb(92, 184, 92); stroke-opacity: 1; stroke-width: 2px; opacity: 1;"/></g><g class="points"/><g class="text"/></g><g class="trace scatter traced5c94a" style="stroke-miterlimit: 2; opacity: 1;"><g class="fills"/><g class="errorbars"/><g class="lines"><path class="js-line" d="M5.06,385L10.11,370.86L15.17,384.49L20.22,375.15L25.28,385L30.33,385L35.39,376.95L40.44,384.91L45.5,384.86L50.55,384.8L60.66,380.75L70.77,385L80.88,385L212.31,384.99L222.42,375.99L232.53,385L242.64,384.97L252.75,379.98L262.86,384.45L283.08,384.71L293.19,384.86L323.52,384.05L333.63,385L384.18,384.47L394.29,380.72L404.4,385L414.51,384.99L424.62,384.97L434.73,375.89L444.84,384.78L454.95,384.74L465.06,384.81L475.17,380.43L485.28,384.37L495.39,384.99L505.5,384.78" style="vector-effect: none; fill: none; stroke: rgb(92, 184, 92); stroke-opacity: 1; stroke-width: 2px; opacity: 1;"/></g><g class="points"/><g class="text"/></g><g class="trace scatter trace1a52ba" style="stroke-miterlimit: 2; opacity: 1;"><g class="fills"/><g class="errorbars"/><g class="lines"><path class="js-line" d="M5.06,371.62L10.11,374.63L15.17,383.63L25.28,384.62L30.33,375.53L35.39,385L40.44,384.97L75.82,384.93L101.1,380.53L126.38,384.72L151.65,379.42L176.93,383.09L202.2,384.84L227.48,377.79L252.75,383.02L278.02,377.56L303.3,384.82L328.58,384.02L353.85,384.92L480.23,384.68L505.5,379.56L530.78,379.62L556.05,383.14L581.32,384.95L606.6,384.92L682.43,384.93L707.7,383.2L732.97,384.83L758.25,383.14L783.53,384.95L808.8,384.8L834.08,384.17L859.35,377.56L884.63,384.69L909.9,382.88L935.18,381.41L960.45,384.81L985.72,385L1011,379.67" style="vector-effect: none; fill: none; stroke: rgb(92, 184, 92); stroke-opacity: 1; stroke-width: 2px; opacity: 1;"/></g><g class="points"/><g class="text"/></g><g class="trace scatter tracefa23b7" style="stroke-miterlimit: 2; opacity: 1;"><g class="fills"/><g class="errorbars"/><g class="lines"><path class="js-line" d="M5.06,384.97L10.11,370.43L15.17,384.45L20.22,375.15L25.28,384.97L30.33,384.97L35.39,377.18L40.44,384.88L45.5,384.81L50.55,384.76L60.66,380.66L70.77,384.97L80.88,384.97L212.31,384.98L222.42,375.96L232.53,385L242.64,384.98L252.75,379.96L262.86,384.45L283.08,384.71L293.19,384.84L323.52,384.01L333.63,385L363.96,384.97L374.07,384.89L384.18,384.46L394.29,380.76L404.4,385L414.51,384.99L424.62,384.97L434.73,375.7L444.84,384.77L454.95,384.71L465.06,384.78L475.17,380.27L485.28,384.34L495.39,384.98L505.5,384.78" style="vector-effect: none; fill: none; stroke: rgb(92, 184, 92); stroke-opacity: 1; stroke-width: 2px; opacity: 1;"/></g><g class="points"/><g class="text"/></g><g class="trace scatter trace251126" style="stroke-miterlimit: 2; opacity: 1;"><g class="fills"/><g class="errorbars"/><g class="lines"><path class="js-line" d="M5.06,371.67L10.11,374.28L15.17,383.71L25.28,384.61L30.33,375.56L35.39,384.99L40.44,384.98L75.82,384.92L101.1,380.44L126.38,384.71L151.65,379.35L176.93,383.08L202.2,384.83L227.48,377.82L252.75,383.1L278.02,377.49L303.3,384.8L328.58,384.02L353.85,384.91L480.23,384.66L505.5,379.3L530.78,379.68L556.05,383.13L581.32,384.94L606.6,384.92L682.43,384.92L707.7,383.22L732.97,384.83L758.25,383.17L783.53,384.95L808.8,384.78L834.08,384.17L859.35,377.53L884.63,384.66L909.9,382.85L935.18,381.41L960.45,384.8L985.72,385L1011,380.22" style="vector-effect: none; fill: none; stroke: rgb(92, 184, 92); stroke-opacity: 1; stroke-width: 2px; opacity: 1;"/></g><g class="points"/><g class="text"/></g><g class="trace scatter trace158101" style="stroke-miterlimit: 2; opacity: 1;"><g class="fills"/><g class="errorbars"/><g class="lines"><path class="js-line" d="M5.06,385L10.11,369.95L15.17,384.47L20.22,375.15L25.28,385L30.33,385L35.39,376.94L40.44,384.9L45.5,384.84L50.55,384.8L60.66,380.64L70.77,385L80.88,385L212.31,384.99L222.42,375.96L232.53,385L242.64,384.98L252.75,380.03L262.86,384.46L283.08,384.72L293.19,384.84L323.52,383.96L333.63,385L363.96,384.96L374.07,384.89L384.18,384.47L394.29,380.7L404.4,385L414.51,384.98L424.62,384.97L434.73,375.54L444.84,384.76L454.95,384.72L465.06,384.78L475.17,380.35L485.28,384.37L495.39,384.99L505.5,384.77" style="vector-effect: none; fill: none; stroke: rgb(92, 184, 92); stroke-opacity: 1; stroke-width: 2px; opacity: 1;"/></g><g class="points"/><g class="text"/></g><g class="trace scatter tracedd56f9" style="stroke-miterlimit: 2; opacity: 1;"><g class="fills"/><g class="errorbars"/><g class="lines"><path class="js-line" d="M5.06,371.19L10.11,373.75L15.17,383.61L25.28,384.58L30.33,375.47L35.39,385L40.44,384.97L75.82,384.93L101.1,380.45L126.38,384.7L151.65,379.27L176.93,383.08L202.2,384.83L227.48,377.81L252.75,383.09L278.02,377.52L303.3,384.8L328.58,384L353.85,384.92L480.23,384.63L505.5,379.26L530.78,379.78L556.05,383.13L581.32,384.95L606.6,384.91L682.43,384.93L707.7,383.21L732.97,384.83L758.25,383.12L783.53,384.95L808.8,384.78L834.08,384.15L859.35,377.43L884.63,384.65L909.9,382.84L935.18,381.38L960.45,384.82L985.72,385L1011,380.12" style="vector-effect: none; fill: none; stroke: rgb(92, 184, 92); stroke-opacity: 1; stroke-width: 2px; opacity: 1;"/></g><g class="points"/><g class="text"/></g></g></g></g><path class="xlines-above crisp" d="M0,0" style="fill: none;"/><path class="ylines-above crisp" d="M0,0" style="fill: none;"/><g class="overlines-above"/><g class="xaxislayer-above"><g class="xtick"><text text-anchor="middle" x="0" y="451" transform="translate(60,0)" style="font-family: 'Lucida Grande', 'Open Sans', verdana, arial, sans-serif; font-size: 10px; fill: rgb(0, 0, 0); fill-opacity: 1; white-space: pre; opacity: 1;">0 bp</text></g><g class="xtick"><text text-anchor="middle" x="0" y="451" style="font-family: 'Lucida Grande', 'Open Sans', verdana, arial, sans-serif; font-size: 10px; fill: rgb(0, 0, 0); fill-opacity: 1; white-space: pre; opacity: 1;" transform="translate(312.75,0)">50 bp</text></g><g class="xtick"><text text-anchor="middle" x="0" y="451" style="font-family: 'Lucida Grande', 'Open Sans', verdana, arial, sans-serif; font-size: 10px; fill: rgb(0, 0, 0); fill-opacity: 1; white-space: pre; opacity: 1;" transform="translate(565.5,0)">100 bp</text></g><g class="xtick"><text text-anchor="middle" x="0" y="451" style="font-family: 'Lucida Grande', 'Open Sans', verdana, arial, sans-serif; font-size: 10px; fill: rgb(0, 0, 0); fill-opacity: 1; white-space: pre; opacity: 1;" transform="translate(818.25,0)">150 bp</text></g><g class="xtick"><text text-anchor="middle" x="0" y="451" style="font-family: 'Lucida Grande', 'Open Sans', verdana, arial, sans-serif; font-size: 10px; fill: rgb(0, 0, 0); fill-opacity: 1; white-space: pre; opacity: 1;" transform="translate(1071,0)">200 bp</text></g></g><g class="yaxislayer-above"><g class="ytick"><text text-anchor="end" x="54" y="3.5" transform="translate(0,435)" style="font-family: 'Lucida Grande', 'Open Sans', verdana, arial, sans-serif; font-size: 10px; fill: rgb(0, 0, 0); fill-opacity: 1; white-space: pre; opacity: 1;">0%</text></g><g class="ytick"><text text-anchor="end" x="54" y="3.5" style="font-family: 'Lucida Grande', 'Open Sans', verdana, arial, sans-serif; font-size: 10px; fill: rgb(0, 0, 0); fill-opacity: 1; white-space: pre; opacity: 1;" transform="translate(0,358)">1%</text></g><g class="ytick"><text text-anchor="end" x="54" y="3.5" style="font-family: 'Lucida Grande', 'Open Sans', verdana, arial, sans-serif; font-size: 10px; fill: rgb(0, 0, 0); fill-opacity: 1; white-space: pre; opacity: 1;" transform="translate(0,281)">2%</text></g><g class="ytick"><text text-anchor="end" x="54" y="3.5" style="font-family: 'Lucida Grande', 'Open Sans', verdana, arial, sans-serif; font-size: 10px; fill: rgb(0, 0, 0); fill-opacity: 1; white-space: pre; opacity: 1;" transform="translate(0,204)">3%</text></g><g class="ytick"><text text-anchor="end" x="54" y="3.5" style="font-family: 'Lucida Grande', 'Open Sans', verdana, arial, sans-serif; font-size: 10px; fill: rgb(0, 0, 0); fill-opacity: 1; white-space: pre; opacity: 1;" transform="translate(0,127)">4%</text></g><g class="ytick"><text text-anchor="end" x="54" y="3.5" style="font-family: 'Lucida Grande', 'Open Sans', verdana, arial, sans-serif; font-size: 10px; fill: rgb(0, 0, 0); fill-opacity: 1; white-space: pre; opacity: 1;" transform="translate(0,50)">5%</text></g></g><g class="overaxes-above"/></g></g><g class="polarlayer"/><g class="smithlayer"/><g class="ternarylayer"/><g class="geolayer"/><g class="funnelarealayer"/><g class="pielayer"/><g class="iciclelayer"/><g class="treemaplayer"/><g class="sunburstlayer"/><g class="glimages"/><defs id="topdefs-e79945"><g class="clips"/></defs><g class="layer-above"><g class="imagelayer"/><g class="shapelayer"/></g><g class="infolayer"><g class="g-gtitle"><text class="gtitle" x="550" y="25" text-anchor="middle" dy="0em" style="opacity: 1; font-family: 'Lucida Grande', 'Open Sans', verdana, arial, sans-serif; font-size: 20px; fill: rgb(42, 63, 95); fill-opacity: 1; white-space: pre;"><tspan class="line" dy="0em" x="550" y="25">FastQC: Per Base N Content</tspan><tspan class="line" dy="1.3em" x="550" y="25">​<tspan style="font-size:70%" dy="-0.6em">60 samples</tspan><tspan dy="0.42em">​</tspan></tspan></text></g><g class="g-xtitle"><text class="xtitle" x="565.5" y="472.3" text-anchor="middle" style="opacity: 0.3; font-family: 'Lucida Grande', 'Open Sans', verdana, arial, sans-serif; font-size: 14px; fill: rgb(0, 0, 0); fill-opacity: 1; white-space: pre;">Position in Read (bp)</text></g><g class="g-ytitle"><text class="ytitle" transform="rotate(-90,23.725,242.5)" x="23.725" y="242.5" text-anchor="middle" style="opacity: 0.3; font-family: 'Lucida Grande', 'Open Sans', verdana, arial, sans-serif; font-size: 14px; fill: rgb(0, 0, 0); fill-opacity: 1; white-space: pre;">Percentage N-Count</text></g></g></svg>