<svg class="main-svg" xmlns="http://www.w3.org/2000/svg" xmlns:xlink="http://www.w3.org/1999/xlink" width="2200" height="546" style="" viewBox="0 0 1100 273"><rect x="0" y="0" width="1100" height="273" style="fill: rgb(255, 255, 255); fill-opacity: 1;"/><defs id="defs-6bdb91"><g class="clips"><clipPath id="clip6bdb91xyplot" class="plotclip"><rect width="1005" height="42.230769230769226"/></clipPath><clipPath id="clip6bdb91x2y2plot" class="plotclip"><rect width="1005" height="42.230769230769226"/></clipPath><clipPath id="clip6bdb91x3y3plot" class="plotclip"><rect width="1005" height="42.230769230769226"/></clipPath><clipPath class="axesclip" id="clip6bdb91x"><rect x="80" y="0" width="1005" height="273"/></clipPath><clipPath class="axesclip" id="clip6bdb91y"><rect x="0" y="50.00000000000002" width="1100" height="42.230769230769226"/></clipPath><clipPath class="axesclip" id="clip6bdb91xy"><rect x="80" y="50.00000000000002" width="1005" height="42.230769230769226"/></clipPath><clipPath class="axesclip" id="clip6bdb91y2"><rect x="0" y="120.3846153846154" width="1100" height="42.230769230769226"/></clipPath><clipPath class="axesclip" id="clip6bdb91xy2"><rect x="80" y="120.3846153846154" width="1005" height="42.230769230769226"/></clipPath><clipPath class="axesclip" id="clip6bdb91y3"><rect x="0" y="190.76923076923077" width="1100" height="42.230769230769226"/></clipPath><clipPath class="axesclip" id="clip6bdb91xy3"><rect x="80" y="190.76923076923077" width="1005" height="42.230769230769226"/></clipPath><clipPath class="axesclip" id="clip6bdb91x2"><rect x="80" y="0" width="1005" height="273"/></clipPath><clipPath class="axesclip" id="clip6bdb91x2y"><rect x="80" y="50.00000000000002" width="1005" height="42.230769230769226"/></clipPath><clipPath class="axesclip" id="clip6bdb91x2y2"><rect x="80" y="120.3846153846154" width="1005" height="42.230769230769226"/></clipPath><clipPath class="axesclip" id="clip6bdb91x2y3"><rect x="80" y="190.76923076923077" width="1005" height="42.230769230769226"/></clipPath><clipPath class="axesclip" id="clip6bdb91x3"><rect x="80" y="0" width="1005" height="273"/></clipPath><clipPath class="axesclip" id="clip6bdb91x3y"><rect x="80" y="50.00000000000002" width="1005" height="42.230769230769226"/></clipPath><clipPath class="axesclip" id="clip6bdb91x3y2"><rect x="80" y="120.3846153846154" width="1005" height="42.230769230769226"/></clipPath><clipPath class="axesclip" id="clip6bdb91x3y3"><rect x="80" y="190.76923076923077" width="1005" height="42.230769230769226"/></clipPath></g><g class="gradients"/><g class="patterns"/></defs><g class="bglayer"/><g class="layer-below"><g class="imagelayer"/><g class="shapelayer"/></g><g class="cartesianlayer"><g class="subplot xy"><g class="layer-subplot"><g class="shapelayer"/><g class="imagelayer"/></g><g class="minor-gridlayer"><g class="x"/><g class="y"/></g><g class="gridlayer"><g class="x"><path class="xgrid crisp" transform="translate(231.3,0)" d="M0,50.00000000000002v42.230769230769226" style="stroke: rgb(0, 0, 0); stroke-opacity: 0.1; stroke-width: 1px;"/><path class="xgrid crisp" transform="translate(377.63,0)" d="M0,50.00000000000002v42.230769230769226" style="stroke: rgb(0, 0, 0); stroke-opacity: 0.1; stroke-width: 1px;"/><path class="xgrid crisp" transform="translate(523.96,0)" d="M0,50.00000000000002v42.230769230769226" style="stroke: rgb(0, 0, 0); stroke-opacity: 0.1; stroke-width: 1px;"/><path class="xgrid crisp" transform="translate(670.28,0)" d="M0,50.00000000000002v42.230769230769226" style="stroke: rgb(0, 0, 0); stroke-opacity: 0.1; stroke-width: 1px;"/><path class="xgrid crisp" transform="translate(816.61,0)" d="M0,50.00000000000002v42.230769230769226" style="stroke: rgb(0, 0, 0); stroke-opacity: 0.1; stroke-width: 1px;"/><path class="xgrid crisp" transform="translate(962.94,0)" d="M0,50.00000000000002v42.230769230769226" style="stroke: rgb(0, 0, 0); stroke-opacity: 0.1; stroke-width: 1px;"/></g><g class="y"><path class="ygrid crisp" transform="translate(0,71.12000000000002)" d="M80,0h1005" style="stroke: rgb(0, 0, 0); stroke-opacity: 0.1; stroke-width: 1px;"/></g></g><g class="zerolinelayer"><path class="xzl zl crisp" transform="translate(84.98,0)" d="M0,50.00000000000002v42.230769230769226" style="stroke: rgb(0, 0, 0); stroke-opacity: 0.1; stroke-width: 2px;"/></g><g class="layer-between"><g class="shapelayer"/><g class="imagelayer"/></g><path class="xlines-below"/><path class="ylines-below"/><g class="overlines-below"/><g class="xaxislayer-below"/><g class="yaxislayer-below"/><g class="overaxes-below"/><g class="overplot"><g class="xy" transform="translate(80,50.00000000000002)" clip-path="url(#clip6bdb91xyplot)"><g class="violinlayer mlayer"><g class="trace violins" style="opacity: 0.5;"><path class="violin" d="M-4.16,19.7Q9.8,18.98 16.78,18.47C23.76,17.96 30.74,17.34 37.71,16.64C44.69,15.94 51.67,15.12 58.64,14.29C65.62,13.46 72.59,12.51 79.57,11.66C86.55,10.81 93.53,9.91 100.51,9.18C107.48,8.45 114.46,7.78 121.44,7.3C128.41,6.83 135.39,6.49 142.37,6.33C149.34,6.17 156.32,6.21 163.3,6.36C170.28,6.51 177.26,6.84 184.24,7.22C191.22,7.6 198.19,8.11 205.17,8.62C212.15,9.13 219.12,9.73 226.1,10.29C233.08,10.85 240.05,11.44 247.03,11.99C254.01,12.54 260.99,13.08 267.97,13.59C274.95,14.09 281.92,14.58 288.9,15.02C295.88,15.46 302.85,15.86 309.83,16.23C316.81,16.6 323.78,16.94 330.76,17.26C337.74,17.57 344.71,17.86 351.69,18.12C358.67,18.39 365.65,18.62 372.63,18.85C379.61,19.08 386.58,19.29 393.56,19.48C400.54,19.67 407.51,19.84 414.49,20C421.47,20.15 428.44,20.29 435.42,20.41C442.4,20.53 449.38,20.62 456.36,20.7C463.34,20.78 470.31,20.84 477.29,20.89C484.27,20.94 491.24,20.98 498.22,21.01C505.2,21.04 512.17,21.06 519.15,21.07C526.13,21.09 533.11,21.09 540.09,21.1C547.07,21.11 554.04,21.11 561.02,21.11C568,21.11 574.97,21.11 581.95,21.11C588.93,21.11 595.9,21.11 602.88,21.11C609.86,21.11 616.84,21.12 623.82,21.12C630.8,21.12 637.77,21.12 644.75,21.12C651.73,21.12 658.7,21.12 665.68,21.12C672.66,21.12 679.63,21.11 686.61,21.11C693.59,21.11 700.57,21.11 707.55,21.11C714.53,21.11 721.5,21.11 728.48,21.11C735.46,21.11 742.43,21.11 749.41,21.1C756.39,21.09 763.36,21.08 770.34,21.07C777.32,21.06 784.29,21.05 791.27,21.02C798.25,20.99 805.23,20.96 812.21,20.9C819.19,20.84 826.16,20.77 833.14,20.68C840.12,20.58 847.09,20.47 854.07,20.33C861.05,20.19 868.02,20.02 875,19.84C881.98,19.65 888.96,19.43 895.94,19.22C902.92,19.01 909.89,18.78 916.87,18.58C923.85,18.38 930.82,18.18 937.8,18.03C944.78,17.88 951.75,17.76 958.73,17.7C965.71,17.64 972.69,17.63 979.67,17.67C986.65,17.71 993.62,17.82 1000.6,17.96C1007.58,18.1 1014.55,18.3 1021.53,18.49C1028.51,18.69 1035.48,18.92 1042.46,19.13C1049.44,19.34 1056.42,19.56 1063.4,19.75C1070.38,19.94 1077.35,20.12 1084.33,20.27C1091.31,20.42 1098.28,20.54 1105.26,20.64Q1112.24,20.74 1126.19,20.87L1126.19,21.36Q1112.24,21.49 1105.26,21.59C1098.28,21.69 1091.31,21.82 1084.33,21.97C1077.35,22.12 1070.38,22.29 1063.4,22.48C1056.42,22.67 1049.44,22.89 1042.46,23.1C1035.48,23.31 1028.51,23.54 1021.53,23.74C1014.55,23.93 1007.58,24.13 1000.6,24.27C993.62,24.41 986.65,24.52 979.67,24.56C972.69,24.6 965.71,24.59 958.73,24.53C951.75,24.47 944.78,24.35 937.8,24.2C930.82,24.05 923.85,23.85 916.87,23.65C909.89,23.45 902.92,23.22 895.94,23.01C888.96,22.8 881.98,22.59 875,22.4C868.02,22.22 861.05,22.04 854.07,21.9C847.09,21.76 840.12,21.64 833.14,21.55C826.16,21.46 819.19,21.39 812.21,21.34C805.23,21.28 798.25,21.25 791.27,21.22C784.29,21.19 777.32,21.18 770.34,21.16C763.36,21.15 756.39,21.14 749.41,21.13C742.43,21.12 735.46,21.12 728.48,21.12C721.5,21.12 714.53,21.12 707.55,21.12C700.57,21.12 693.59,21.12 686.61,21.12C679.63,21.12 672.66,21.12 665.68,21.12C658.7,21.12 651.73,21.12 644.75,21.12C637.77,21.12 630.8,21.12 623.82,21.12C616.84,21.12 609.86,21.12 602.88,21.12C595.9,21.12 588.93,21.12 581.95,21.12C574.97,21.12 568,21.12 561.02,21.12C554.04,21.12 547.07,21.12 540.09,21.13C533.11,21.14 526.13,21.14 519.15,21.16C512.17,21.17 505.2,21.19 498.22,21.22C491.24,21.25 484.27,21.29 477.29,21.34C470.31,21.39 463.34,21.45 456.36,21.53C449.38,21.61 442.4,21.7 435.42,21.82C428.44,21.94 421.47,22.08 414.49,22.23C407.51,22.39 400.54,22.56 393.56,22.75C386.58,22.94 379.61,23.15 372.63,23.38C365.65,23.61 358.67,23.84 351.69,24.11C344.71,24.37 337.74,24.66 330.76,24.97C323.78,25.29 316.81,25.63 309.83,26C302.85,26.38 295.88,26.78 288.9,27.22C281.92,27.66 274.95,28.14 267.97,28.64C260.99,29.14 254.01,29.69 247.03,30.24C240.05,30.79 233.08,31.38 226.1,31.94C219.12,32.5 212.15,33.1 205.17,33.61C198.19,34.12 191.22,34.63 184.24,35.01C177.26,35.39 170.28,35.72 163.3,35.87C156.32,36.02 149.34,36.06 142.37,35.9C135.39,35.74 128.41,35.4 121.44,34.93C114.46,34.45 107.48,33.78 100.51,33.05C93.53,32.32 86.55,31.42 79.57,30.57C72.59,29.72 65.62,28.77 58.64,27.94C51.67,27.11 44.69,26.29 37.71,25.59C30.74,24.89 23.76,24.27 16.78,23.76Q9.8,23.25 -4.16,22.53Z" style="vector-effect: none; stroke-width: 2px; stroke: rgb(181, 181, 181); stroke-opacity: 1; fill: rgb(181, 181, 181); fill-opacity: 1;"/><path class="box" d="M180.57,24.81V17.42M122.04,24.81V17.42H268.36V24.81ZM122.04,21.12H122.04M268.36,21.12H356.16" style="vector-effect: non-scaling-stroke; stroke-width: 2px; stroke: rgb(181, 181, 181); stroke-opacity: 1; fill: rgb(181, 181, 181); fill-opacity: 1;"/><path class="mean" d="M299.09,24.81V17.42" style="fill: none; vector-effect: non-scaling-stroke; stroke-width: 2px; stroke-dasharray: 4px, 2px; stroke: rgb(181, 181, 181); stroke-opacity: 1;"/></g></g><g class="scatterlayer mlayer"><g class="trace scatter traceb76aeb" style="stroke-miterlimit: 2; opacity: 1;"><g class="fills"/><g class="errorbars"/><g class="lines"/><g class="points"><path class="point" transform="translate(1000,21.12)" d="M2,0A2,2 0 1,1 0,-2A2,2 0 0,1 2,0Z" style="opacity: 1; stroke-width: 0px; fill: rgb(11, 121, 230); fill-opacity: 1;"/></g><g class="text"/></g><g class="trace scatter trace99d21f" style="stroke-miterlimit: 2; opacity: 1;"><g class="fills"/><g class="errorbars"/><g class="lines"/><g class="points"><path class="point" transform="translate(970.73,21.12)" d="M2,0A2,2 0 1,1 0,-2A2,2 0 0,1 2,0Z" style="opacity: 1; stroke-width: 0px; fill: rgb(11, 121, 230); fill-opacity: 1;"/></g><g class="text"/></g><g class="trace scatter traced69e20" style="stroke-miterlimit: 2; opacity: 1;"><g class="fills"/><g class="errorbars"/><g class="lines"/><g class="points"><path class="point" transform="translate(941.47,21.12)" d="M2,0A2,2 0 1,1 0,-2A2,2 0 0,1 2,0Z" style="opacity: 1; stroke-width: 0px; fill: rgb(11, 121, 230); fill-opacity: 1;"/></g><g class="text"/></g><g class="trace scatter trace2ae55e" style="stroke-miterlimit: 2; opacity: 1;"><g class="fills"/><g class="errorbars"/><g class="lines"/><g class="points"><path class="point" transform="translate(356.16,21.12)" d="M2,0A2,2 0 1,1 0,-2A2,2 0 0,1 2,0Z" style="opacity: 1; stroke-width: 0px; fill: rgb(11, 121, 230); fill-opacity: 1;"/></g><g class="text"/></g><g class="trace scatter traceb9ad82" style="stroke-miterlimit: 2; opacity: 1;"><g class="fills"/><g class="errorbars"/><g class="lines"/><g class="points"><path class="point" transform="translate(297.63,21.12)" d="M2,0A2,2 0 1,1 0,-2A2,2 0 0,1 2,0Z" style="opacity: 1; stroke-width: 0px; fill: rgb(11, 121, 230); fill-opacity: 1;"/></g><g class="text"/></g><g class="trace scatter trace8e1b3c" style="stroke-miterlimit: 2; opacity: 1;"><g class="fills"/><g class="errorbars"/><g class="lines"/><g class="points"><path class="point" transform="translate(239.1,21.12)" d="M2,0A2,2 0 1,1 0,-2A2,2 0 0,1 2,0Z" style="opacity: 1; stroke-width: 0px; fill: rgb(11, 121, 230); fill-opacity: 1;"/></g><g class="text"/></g><g class="trace scatter trace162326" style="stroke-miterlimit: 2; opacity: 1;"><g class="fills"/><g class="errorbars"/><g class="lines"/><g class="points"><path class="point" transform="translate(239.1,21.12)" d="M2,0A2,2 0 1,1 0,-2A2,2 0 0,1 2,0Z" style="opacity: 1; stroke-width: 0px; fill: rgb(11, 121, 230); fill-opacity: 1;"/></g><g class="text"/></g><g class="trace scatter tracea0a621" style="stroke-miterlimit: 2; opacity: 1;"><g class="fills"/><g class="errorbars"/><g class="lines"/><g class="points"><path class="point" transform="translate(239.1,21.12)" d="M2,0A2,2 0 1,1 0,-2A2,2 0 0,1 2,0Z" style="opacity: 1; stroke-width: 0px; fill: rgb(11, 121, 230); fill-opacity: 1;"/></g><g class="text"/></g><g class="trace scatter tracebf0ba9" style="stroke-miterlimit: 2; opacity: 1;"><g class="fills"/><g class="errorbars"/><g class="lines"/><g class="points"><path class="point" transform="translate(180.57,21.12)" d="M2,0A2,2 0 1,1 0,-2A2,2 0 0,1 2,0Z" style="opacity: 1; stroke-width: 0px; fill: rgb(11, 121, 230); fill-opacity: 1;"/></g><g class="text"/></g><g class="trace scatter trace09598d" style="stroke-miterlimit: 2; opacity: 1;"><g class="fills"/><g class="errorbars"/><g class="lines"/><g class="points"><path class="point" transform="translate(180.57,21.12)" d="M2,0A2,2 0 1,1 0,-2A2,2 0 0,1 2,0Z" style="opacity: 1; stroke-width: 0px; fill: rgb(11, 121, 230); fill-opacity: 1;"/></g><g class="text"/></g><g class="trace scatter trace4cb3b3" style="stroke-miterlimit: 2; opacity: 1;"><g class="fills"/><g class="errorbars"/><g class="lines"/><g class="points"><path class="point" transform="translate(180.57,21.12)" d="M2,0A2,2 0 1,1 0,-2A2,2 0 0,1 2,0Z" style="opacity: 1; stroke-width: 0px; fill: rgb(11, 121, 230); fill-opacity: 1;"/></g><g class="text"/></g><g class="trace scatter trace8cb358" style="stroke-miterlimit: 2; opacity: 1;"><g class="fills"/><g class="errorbars"/><g class="lines"/><g class="points"><path class="point" transform="translate(180.57,21.12)" d="M2,0A2,2 0 1,1 0,-2A2,2 0 0,1 2,0Z" style="opacity: 1; stroke-width: 0px; fill: rgb(11, 121, 230); fill-opacity: 1;"/></g><g class="text"/></g><g class="trace scatter trace8f2d9a" style="stroke-miterlimit: 2; opacity: 1;"><g class="fills"/><g class="errorbars"/><g class="lines"/><g class="points"><path class="point" transform="translate(122.04,21.12)" d="M2,0A2,2 0 1,1 0,-2A2,2 0 0,1 2,0Z" style="opacity: 1; stroke-width: 0px; fill: rgb(11, 121, 230); fill-opacity: 1;"/></g><g class="text"/></g><g class="trace scatter trace91383e" style="stroke-miterlimit: 2; opacity: 1;"><g class="fills"/><g class="errorbars"/><g class="lines"/><g class="points"><path class="point" transform="translate(122.04,21.12)" d="M2,0A2,2 0 1,1 0,-2A2,2 0 0,1 2,0Z" style="opacity: 1; stroke-width: 0px; fill: rgb(11, 121, 230); fill-opacity: 1;"/></g><g class="text"/></g><g class="trace scatter trace3a0d6f" style="stroke-miterlimit: 2; opacity: 1;"><g class="fills"/><g class="errorbars"/><g class="lines"/><g class="points"><path class="point" transform="translate(122.04,21.12)" d="M2,0A2,2 0 1,1 0,-2A2,2 0 0,1 2,0Z" style="opacity: 1; stroke-width: 0px; fill: rgb(11, 121, 230); fill-opacity: 1;"/></g><g class="text"/></g><g class="trace scatter trace7a6e92" style="stroke-miterlimit: 2; opacity: 1;"><g class="fills"/><g class="errorbars"/><g class="lines"/><g class="points"><path class="point" transform="translate(122.04,21.12)" d="M2,0A2,2 0 1,1 0,-2A2,2 0 0,1 2,0Z" style="opacity: 1; stroke-width: 0px; fill: rgb(11, 121, 230); fill-opacity: 1;"/></g><g class="text"/></g><g class="trace scatter tracea72a2e" style="stroke-miterlimit: 2; opacity: 1;"><g class="fills"/><g class="errorbars"/><g class="lines"/><g class="points"><path class="point" transform="translate(122.04,21.12)" d="M2,0A2,2 0 1,1 0,-2A2,2 0 0,1 2,0Z" style="opacity: 1; stroke-width: 0px; fill: rgb(11, 121, 230); fill-opacity: 1;"/></g><g class="text"/></g><g class="trace scatter trace959cb1" style="stroke-miterlimit: 2; opacity: 1;"><g class="fills"/><g class="errorbars"/><g class="lines"/><g class="points"><path class="point" transform="translate(122.04,21.12)" d="M2,0A2,2 0 1,1 0,-2A2,2 0 0,1 2,0Z" style="opacity: 1; stroke-width: 0px; fill: rgb(11, 121, 230); fill-opacity: 1;"/></g><g class="text"/></g><g class="trace scatter trace6f9ff8" style="stroke-miterlimit: 2; opacity: 1;"><g class="fills"/><g class="errorbars"/><g class="lines"/><g class="points"><path class="point" transform="translate(122.04,21.12)" d="M2,0A2,2 0 1,1 0,-2A2,2 0 0,1 2,0Z" style="opacity: 1; stroke-width: 0px; fill: rgb(11, 121, 230); fill-opacity: 1;"/></g><g class="text"/></g><g class="trace scatter trace9762e2" style="stroke-miterlimit: 2; opacity: 1;"><g class="fills"/><g class="errorbars"/><g class="lines"/><g class="points"><path class="point" transform="translate(122.04,21.12)" d="M2,0A2,2 0 1,1 0,-2A2,2 0 0,1 2,0Z" style="opacity: 1; stroke-width: 0px; fill: rgb(11, 121, 230); fill-opacity: 1;"/></g><g class="text"/></g></g></g></g><path class="xlines-above crisp" d="M0,0" style="fill: none;"/><path class="ylines-above crisp" d="M0,0" style="fill: none;"/><g class="overlines-above"/><g class="xaxislayer-above"><g class="xtick"><text text-anchor="middle" x="0" y="102.23076923076925" transform="translate(84.98,0)" style="font-family: 'Lucida Grande', 'Open Sans', verdana, arial, sans-serif; font-size: 9px; fill: rgb(0, 0, 0); fill-opacity: 0.5; white-space: pre; opacity: 1;">0</text></g><g class="xtick"><text text-anchor="middle" x="0" y="102.23076923076925" style="font-family: 'Lucida Grande', 'Open Sans', verdana, arial, sans-serif; font-size: 9px; fill: rgb(0, 0, 0); fill-opacity: 0.5; white-space: pre; opacity: 1;" transform="translate(231.3,0)">5</text></g><g class="xtick"><text text-anchor="middle" x="0" y="102.23076923076925" style="font-family: 'Lucida Grande', 'Open Sans', verdana, arial, sans-serif; font-size: 9px; fill: rgb(0, 0, 0); fill-opacity: 0.5; white-space: pre; opacity: 1;" transform="translate(377.63,0)">10</text></g><g class="xtick"><text text-anchor="middle" x="0" y="102.23076923076925" style="font-family: 'Lucida Grande', 'Open Sans', verdana, arial, sans-serif; font-size: 9px; fill: rgb(0, 0, 0); fill-opacity: 0.5; white-space: pre; opacity: 1;" transform="translate(523.96,0)">15</text></g><g class="xtick"><text text-anchor="middle" x="0" y="102.23076923076925" style="font-family: 'Lucida Grande', 'Open Sans', verdana, arial, sans-serif; font-size: 9px; fill: rgb(0, 0, 0); fill-opacity: 0.5; white-space: pre; opacity: 1;" transform="translate(670.28,0)">20</text></g><g class="xtick"><text text-anchor="middle" x="0" y="102.23076923076925" style="font-family: 'Lucida Grande', 'Open Sans', verdana, arial, sans-serif; font-size: 9px; fill: rgb(0, 0, 0); fill-opacity: 0.5; white-space: pre; opacity: 1;" transform="translate(816.61,0)">25</text></g><g class="xtick"><text text-anchor="middle" x="0" y="102.23076923076925" style="font-family: 'Lucida Grande', 'Open Sans', verdana, arial, sans-serif; font-size: 9px; fill: rgb(0, 0, 0); fill-opacity: 0.5; white-space: pre; opacity: 1;" transform="translate(962.94,0)">30</text></g></g><g class="yaxislayer-above"><g class="ytick"><text text-anchor="end" x="79" y="3.15" transform="translate(0,71.12000000000002)" style="font-family: 'Lucida Grande', 'Open Sans', verdana, arial, sans-serif; font-size: 9px; fill: rgb(0, 0, 0); fill-opacity: 0.5; white-space: pre; opacity: 1;">Reports  </text></g></g><g class="overaxes-above"/></g><g class="subplot x2y2"><g class="layer-subplot"><g class="shapelayer"/><g class="imagelayer"/></g><g class="minor-gridlayer"><g class="x2"/><g class="y2"/></g><g class="gridlayer"><g class="x2"><path class="x2grid crisp" transform="translate(277.95,0)" d="M0,120.3846153846154v42.230769230769226" style="stroke: rgb(0, 0, 0); stroke-opacity: 0.1; stroke-width: 1px;"/><path class="x2grid crisp" transform="translate(470.93,0)" d="M0,120.3846153846154v42.230769230769226" style="stroke: rgb(0, 0, 0); stroke-opacity: 0.1; stroke-width: 1px;"/><path class="x2grid crisp" transform="translate(663.91,0)" d="M0,120.3846153846154v42.230769230769226" style="stroke: rgb(0, 0, 0); stroke-opacity: 0.1; stroke-width: 1px;"/><path class="x2grid crisp" transform="translate(856.89,0)" d="M0,120.3846153846154v42.230769230769226" style="stroke: rgb(0, 0, 0); stroke-opacity: 0.1; stroke-width: 1px;"/><path class="x2grid crisp" transform="translate(1049.87,0)" d="M0,120.3846153846154v42.230769230769226" style="stroke: rgb(0, 0, 0); stroke-opacity: 0.1; stroke-width: 1px;"/></g><g class="y2"><path class="y2grid crisp" transform="translate(0,141.5046153846154)" d="M80,0h1005" style="stroke: rgb(0, 0, 0); stroke-opacity: 0.1; stroke-width: 1px;"/></g></g><g class="zerolinelayer"><path class="x2zl zl crisp" transform="translate(84.98,0)" d="M0,120.3846153846154v42.230769230769226" style="stroke: rgb(0, 0, 0); stroke-opacity: 0.1; stroke-width: 2px;"/></g><g class="layer-between"><g class="shapelayer"/><g class="imagelayer"/></g><path class="xlines-below"/><path class="ylines-below"/><g class="overlines-below"/><g class="xaxislayer-below"/><g class="yaxislayer-below"/><g class="overaxes-below"/><g class="overplot"><g class="x2y2" transform="translate(80,120.3846153846154)" clip-path="url(#clip6bdb91x2y2plot)"><g class="violinlayer mlayer"><g class="trace violins" style="opacity: 0.5;"><path class="violin" d="M-23.99,20.27Q-20.04,19.78 -18.07,19.41C-16.09,19.03 -14.11,18.58 -12.15,18.02C-10.16,17.45 -8.19,16.77 -6.23,16.03C-4.24,15.28 -2.28,14.4 -0.31,13.54C1.67,12.68 3.63,11.72 5.61,10.88C7.57,10.05 9.54,9.18 11.53,8.51C13.48,7.86 15.46,7.26 17.45,6.9C19.41,6.54 21.4,6.34 23.37,6.33C25.34,6.32 27.33,6.53 29.29,6.83C31.27,7.13 33.25,7.64 35.21,8.15C37.19,8.67 39.16,9.32 41.13,9.93C43.11,10.54 45.07,11.22 47.05,11.83C49.02,12.44 50.99,13.06 52.97,13.61C54.94,14.16 56.91,14.68 58.89,15.14C60.86,15.6 62.83,16.02 64.81,16.39C66.78,16.76 68.75,17.09 70.73,17.38C72.7,17.67 74.67,17.91 76.64,18.13C78.61,18.35 80.59,18.53 82.56,18.7C84.53,18.87 86.51,19.02 88.48,19.16C90.45,19.3 92.43,19.42 94.4,19.55C96.37,19.68 98.35,19.8 100.32,19.92C102.29,20.04 104.27,20.15 106.24,20.25C108.21,20.35 110.19,20.45 112.16,20.54C114.13,20.63 116.11,20.71 118.08,20.77C120.05,20.83 122.03,20.88 124,20.92C125.97,20.96 127.95,20.99 129.92,21.02C131.89,21.04 133.87,21.06 135.84,21.07C137.81,21.08 139.79,21.08 141.76,21.08C143.73,21.08 145.71,21.08 147.68,21.07C149.65,21.06 151.63,21.04 153.6,21.02C155.57,20.99 157.55,20.96 159.52,20.92C161.49,20.88 163.47,20.83 165.44,20.77C167.41,20.71 169.39,20.64 171.36,20.57C173.33,20.5 175.31,20.41 177.28,20.33C179.25,20.25 181.23,20.17 183.2,20.11C185.17,20.05 187.15,19.99 189.12,19.96C191.09,19.93 193.07,19.92 195.04,19.93C197.01,19.94 198.99,19.97 200.96,20.02C202.93,20.07 204.9,20.14 206.87,20.21C208.84,20.28 210.82,20.37 212.79,20.45C214.76,20.53 216.74,20.6 218.71,20.67C220.68,20.74 222.66,20.8 224.63,20.85C226.6,20.9 228.58,20.95 230.55,20.98C232.52,21.01 234.5,21.03 236.47,21.05C238.44,21.07 240.42,21.08 242.39,21.09C244.36,21.1 246.34,21.1 248.31,21.1C250.28,21.1 252.26,21.11 254.23,21.11C256.2,21.11 258.18,21.11 260.15,21.11C262.12,21.11 264.1,21.12 266.07,21.12C268.04,21.12 270.02,21.12 271.99,21.12C273.96,21.12 275.94,21.12 277.91,21.12C279.88,21.12 281.86,21.12 283.83,21.12C285.8,21.12 287.78,21.12 289.75,21.12C291.72,21.12 293.7,21.12 295.67,21.12C297.64,21.12 299.62,21.12 301.59,21.12C303.56,21.12 305.54,21.12 307.51,21.12C309.48,21.12 311.46,21.12 313.43,21.12C315.4,21.12 317.38,21.12 319.35,21.12C321.32,21.12 323.3,21.12 325.27,21.12C327.24,21.12 329.22,21.12 331.19,21.12C333.16,21.12 335.14,21.12 337.11,21.12C339.08,21.12 341.05,21.12 343.02,21.12C344.99,21.12 346.97,21.12 348.94,21.12C350.91,21.12 352.89,21.12 354.86,21.12C356.83,21.12 358.81,21.12 360.78,21.12C362.75,21.12 364.73,21.12 366.7,21.12C368.67,21.12 370.65,21.12 372.62,21.12C374.59,21.12 376.57,21.12 378.54,21.12C380.51,21.12 382.49,21.12 384.46,21.12C386.43,21.12 388.41,21.12 390.38,21.12C392.35,21.12 394.33,21.12 396.3,21.12C398.27,21.12 400.25,21.12 402.22,21.12C404.19,21.12 406.17,21.12 408.14,21.12C410.11,21.12 412.09,21.12 414.06,21.12C416.03,21.12 418.01,21.12 419.98,21.12C421.95,21.12 423.93,21.12 425.9,21.12C427.87,21.12 429.85,21.12 431.82,21.12C433.79,21.12 435.77,21.11 437.74,21.11C439.71,21.11 441.69,21.11 443.66,21.11C445.63,21.11 447.61,21.1 449.58,21.1C451.55,21.1 453.53,21.1 455.5,21.09C457.47,21.08 459.45,21.07 461.42,21.05C463.39,21.03 465.37,21 467.34,20.97C469.31,20.94 471.28,20.9 473.25,20.85C475.22,20.8 477.2,20.74 479.17,20.67C481.14,20.6 483.12,20.52 485.09,20.44C487.06,20.36 489.04,20.27 491.01,20.2C492.98,20.13 494.96,20.07 496.93,20.02C498.9,19.98 500.88,19.94 502.85,19.93C504.82,19.92 506.8,19.94 508.77,19.97C510.74,20 512.72,20.06 514.69,20.12C516.66,20.18 518.64,20.26 520.61,20.34C522.58,20.42 524.56,20.51 526.53,20.58C528.5,20.65 530.48,20.72 532.45,20.78C534.42,20.84 536.4,20.89 538.37,20.93C540.34,20.97 542.32,21 544.29,21.02C546.26,21.04 548.24,21.06 550.21,21.07C552.18,21.08 554.16,21.09 556.13,21.1C558.1,21.11 560.08,21.11 562.05,21.11C564.02,21.11 566,21.11 567.97,21.11C569.94,21.11 571.92,21.11 573.89,21.11C575.86,21.11 577.84,21.12 579.81,21.12C581.78,21.12 583.76,21.12 585.73,21.12C587.7,21.12 589.68,21.12 591.65,21.12C593.62,21.12 595.6,21.12 597.57,21.12C599.54,21.12 601.51,21.12 603.48,21.12C605.45,21.12 607.43,21.12 609.4,21.12C611.37,21.12 613.35,21.12 615.32,21.12C617.29,21.12 619.27,21.12 621.24,21.12C623.21,21.12 625.19,21.12 627.16,21.12C629.13,21.12 631.11,21.12 633.08,21.12C635.05,21.12 637.03,21.12 639,21.12C640.97,21.12 642.95,21.12 644.92,21.12C646.89,21.12 648.87,21.12 650.84,21.12C652.81,21.12 654.79,21.12 656.76,21.12C658.73,21.12 660.71,21.12 662.68,21.12C664.65,21.12 666.63,21.12 668.6,21.12C670.57,21.12 672.55,21.12 674.52,21.12C676.49,21.12 678.47,21.12 680.44,21.12C682.41,21.12 684.39,21.12 686.36,21.12C688.33,21.12 690.31,21.12 692.28,21.12C694.25,21.12 696.23,21.12 698.2,21.12C700.17,21.12 702.15,21.12 704.12,21.12C706.09,21.12 708.07,21.12 710.04,21.12C712.01,21.12 713.99,21.12 715.96,21.12C717.93,21.12 719.91,21.12 721.88,21.12C723.85,21.12 725.83,21.12 727.8,21.12C729.77,21.12 731.75,21.12 733.72,21.12C735.69,21.12 737.66,21.12 739.63,21.12C741.6,21.12 743.58,21.12 745.55,21.12C747.52,21.12 749.5,21.12 751.47,21.12C753.44,21.12 755.42,21.12 757.39,21.12C759.36,21.12 761.34,21.12 763.31,21.12C765.28,21.12 767.26,21.12 769.23,21.12C771.2,21.12 773.18,21.12 775.15,21.12C777.12,21.12 779.1,21.12 781.07,21.12C783.04,21.12 785.02,21.12 786.99,21.12C788.96,21.12 790.94,21.12 792.91,21.12C794.88,21.12 796.86,21.12 798.83,21.12C800.8,21.12 802.78,21.12 804.75,21.12C806.72,21.12 808.7,21.12 810.67,21.12C812.64,21.12 814.62,21.12 816.59,21.12C818.56,21.12 820.54,21.12 822.51,21.12C824.48,21.12 826.46,21.12 828.43,21.12C830.4,21.12 832.38,21.12 834.35,21.12C836.32,21.12 838.3,21.12 840.27,21.12C842.24,21.12 844.22,21.12 846.19,21.12C848.16,21.12 850.14,21.12 852.11,21.12C854.08,21.12 856.06,21.12 858.03,21.12C860,21.12 861.98,21.12 863.95,21.12C865.92,21.12 867.89,21.12 869.86,21.12C871.83,21.12 873.81,21.12 875.78,21.12C877.75,21.12 879.73,21.12 881.7,21.12C883.67,21.12 885.65,21.12 887.62,21.12C889.59,21.12 891.57,21.12 893.54,21.12C895.51,21.12 897.49,21.12 899.46,21.12C901.43,21.12 903.41,21.12 905.38,21.12C907.35,21.12 909.33,21.12 911.3,21.12C913.27,21.12 915.25,21.12 917.22,21.12C919.19,21.12 921.17,21.12 923.14,21.12C925.11,21.12 927.09,21.11 929.06,21.11C931.03,21.11 933.01,21.11 934.98,21.11C936.95,21.11 938.93,21.11 940.9,21.11C942.87,21.11 944.85,21.1 946.82,21.1C948.79,21.09 950.77,21.09 952.74,21.08C954.71,21.07 956.69,21.05 958.66,21.03C960.63,21.01 962.61,20.99 964.58,20.95C966.55,20.91 968.53,20.86 970.5,20.81C972.47,20.75 974.45,20.69 976.42,20.62C978.39,20.55 980.37,20.47 982.34,20.39C984.31,20.31 986.29,20.23 988.26,20.16C990.23,20.09 992.21,20.03 994.18,19.99C996.15,19.95 998.12,19.92 1000.09,19.92C1002.06,19.92 1004.04,19.95 1006.01,19.99C1007.98,20.03 1009.96,20.09 1011.93,20.16C1013.9,20.23 1015.88,20.31 1017.85,20.39C1019.82,20.47 1021.8,20.56 1023.77,20.63C1025.74,20.7 1027.72,20.77 1029.69,20.82Q1031.66,20.87 1035.61,20.95L1035.61,21.28Q1031.66,21.36 1029.69,21.41C1027.72,21.46 1025.74,21.53 1023.77,21.6C1021.8,21.67 1019.82,21.76 1017.85,21.84C1015.88,21.92 1013.9,22 1011.93,22.07C1009.96,22.14 1007.98,22.2 1006.01,22.24C1004.04,22.28 1002.06,22.31 1000.09,22.31C998.12,22.31 996.15,22.28 994.18,22.24C992.21,22.2 990.23,22.14 988.26,22.07C986.29,22 984.31,21.92 982.34,21.84C980.37,21.76 978.39,21.68 976.42,21.61C974.45,21.54 972.47,21.48 970.5,21.42C968.53,21.37 966.55,21.32 964.58,21.28C962.61,21.24 960.63,21.22 958.66,21.2C956.69,21.18 954.71,21.16 952.74,21.15C950.77,21.14 948.79,21.14 946.82,21.13C944.85,21.13 942.87,21.12 940.9,21.12C938.93,21.12 936.95,21.12 934.98,21.12C933.01,21.12 931.03,21.12 929.06,21.12C927.09,21.12 925.11,21.12 923.14,21.12C921.17,21.12 919.19,21.12 917.22,21.12C915.25,21.12 913.27,21.12 911.3,21.12C909.33,21.12 907.35,21.12 905.38,21.12C903.41,21.12 901.43,21.12 899.46,21.12C897.49,21.12 895.51,21.12 893.54,21.12C891.57,21.12 889.59,21.12 887.62,21.12C885.65,21.12 883.67,21.12 881.7,21.12C879.73,21.12 877.75,21.12 875.78,21.12C873.81,21.12 871.83,21.12 869.86,21.12C867.89,21.12 865.92,21.12 863.95,21.12C861.98,21.12 860,21.12 858.03,21.12C856.06,21.12 854.08,21.12 852.11,21.12C850.14,21.12 848.16,21.12 846.19,21.12C844.22,21.12 842.24,21.12 840.27,21.12C838.3,21.12 836.32,21.12 834.35,21.12C832.38,21.12 830.4,21.12 828.43,21.12C826.46,21.12 824.48,21.12 822.51,21.12C820.54,21.12 818.56,21.12 816.59,21.12C814.62,21.12 812.64,21.12 810.67,21.12C808.7,21.12 806.72,21.12 804.75,21.12C802.78,21.12 800.8,21.12 798.83,21.12C796.86,21.12 794.88,21.12 792.91,21.12C790.94,21.12 788.96,21.12 786.99,21.12C785.02,21.12 783.04,21.12 781.07,21.12C779.1,21.12 777.12,21.12 775.15,21.12C773.18,21.12 771.2,21.12 769.23,21.12C767.26,21.12 765.28,21.12 763.31,21.12C761.34,21.12 759.36,21.12 757.39,21.12C755.42,21.12 753.44,21.12 751.47,21.12C749.5,21.12 747.52,21.12 745.55,21.12C743.58,21.12 741.6,21.12 739.63,21.12C737.66,21.12 735.69,21.12 733.72,21.12C731.75,21.12 729.77,21.12 727.8,21.12C725.83,21.12 723.85,21.12 721.88,21.12C719.91,21.12 717.93,21.12 715.96,21.12C713.99,21.12 712.01,21.12 710.04,21.12C708.07,21.12 706.09,21.12 704.12,21.12C702.15,21.12 700.17,21.12 698.2,21.12C696.23,21.12 694.25,21.12 692.28,21.12C690.31,21.12 688.33,21.12 686.36,21.12C684.39,21.12 682.41,21.12 680.44,21.12C678.47,21.12 676.49,21.12 674.52,21.12C672.55,21.12 670.57,21.12 668.6,21.12C666.63,21.12 664.65,21.12 662.68,21.12C660.71,21.12 658.73,21.12 656.76,21.12C654.79,21.12 652.81,21.12 650.84,21.12C648.87,21.12 646.89,21.12 644.92,21.12C642.95,21.12 640.97,21.12 639,21.12C637.03,21.12 635.05,21.12 633.08,21.12C631.11,21.12 629.13,21.12 627.16,21.12C625.19,21.12 623.21,21.12 621.24,21.12C619.27,21.12 617.29,21.12 615.32,21.12C613.35,21.12 611.37,21.12 609.4,21.12C607.43,21.12 605.45,21.12 603.48,21.12C601.51,21.12 599.54,21.12 597.57,21.12C595.6,21.12 593.62,21.12 591.65,21.12C589.68,21.12 587.7,21.12 585.73,21.12C583.76,21.12 581.78,21.12 579.81,21.12C577.84,21.12 575.86,21.12 573.89,21.12C571.92,21.12 569.94,21.12 567.97,21.12C566,21.12 564.02,21.12 562.05,21.12C560.08,21.12 558.1,21.12 556.13,21.13C554.16,21.14 552.18,21.15 550.21,21.16C548.24,21.17 546.26,21.19 544.29,21.21C542.32,21.23 540.34,21.26 538.37,21.3C536.4,21.34 534.42,21.39 532.45,21.45C530.48,21.51 528.5,21.58 526.53,21.65C524.56,21.72 522.58,21.81 520.61,21.89C518.64,21.97 516.66,22.05 514.69,22.11C512.72,22.17 510.74,22.24 508.77,22.27C506.8,22.3 504.82,22.31 502.85,22.3C500.88,22.29 498.9,22.25 496.93,22.21C494.96,22.16 492.98,22.1 491.01,22.03C489.04,21.96 487.06,21.87 485.09,21.79C483.12,21.71 481.14,21.63 479.17,21.56C477.2,21.49 475.22,21.43 473.25,21.38C471.28,21.33 469.31,21.29 467.34,21.26C465.37,21.23 463.39,21.2 461.42,21.18C459.45,21.16 457.47,21.15 455.5,21.14C453.53,21.13 451.55,21.13 449.58,21.13C447.61,21.13 445.63,21.12 443.66,21.12C441.69,21.12 439.71,21.12 437.74,21.12C435.77,21.12 433.79,21.12 431.82,21.12C429.85,21.12 427.87,21.12 425.9,21.12C423.93,21.12 421.95,21.12 419.98,21.12C418.01,21.12 416.03,21.12 414.06,21.12C412.09,21.12 410.11,21.12 408.14,21.12C406.17,21.12 404.19,21.12 402.22,21.12C400.25,21.12 398.27,21.12 396.3,21.12C394.33,21.12 392.35,21.12 390.38,21.12C388.41,21.12 386.43,21.12 384.46,21.12C382.49,21.12 380.51,21.12 378.54,21.12C376.57,21.12 374.59,21.12 372.62,21.12C370.65,21.12 368.67,21.12 366.7,21.12C364.73,21.12 362.75,21.12 360.78,21.12C358.81,21.12 356.83,21.12 354.86,21.12C352.89,21.12 350.91,21.12 348.94,21.12C346.97,21.12 344.99,21.12 343.02,21.12C341.05,21.12 339.08,21.12 337.11,21.12C335.14,21.12 333.16,21.12 331.19,21.12C329.22,21.12 327.24,21.12 325.27,21.12C323.3,21.12 321.32,21.12 319.35,21.12C317.38,21.12 315.4,21.12 313.43,21.12C311.46,21.12 309.48,21.12 307.51,21.12C305.54,21.12 303.56,21.12 301.59,21.12C299.62,21.12 297.64,21.12 295.67,21.12C293.7,21.12 291.72,21.12 289.75,21.12C287.78,21.12 285.8,21.12 283.83,21.12C281.86,21.12 279.88,21.12 277.91,21.12C275.94,21.12 273.96,21.12 271.99,21.12C270.02,21.12 268.04,21.12 266.07,21.12C264.1,21.12 262.12,21.12 260.15,21.12C258.18,21.12 256.2,21.12 254.23,21.12C252.26,21.12 250.28,21.13 248.31,21.13C246.34,21.13 244.36,21.13 242.39,21.14C240.42,21.15 238.44,21.16 236.47,21.18C234.5,21.2 232.52,21.22 230.55,21.25C228.58,21.28 226.6,21.33 224.63,21.38C222.66,21.43 220.68,21.49 218.71,21.56C216.74,21.63 214.76,21.7 212.79,21.78C210.82,21.86 208.84,21.95 206.87,22.02C204.9,22.09 202.93,22.16 200.96,22.21C198.99,22.26 197.01,22.29 195.04,22.3C193.07,22.31 191.09,22.3 189.12,22.27C187.15,22.24 185.17,22.18 183.2,22.12C181.23,22.06 179.25,21.98 177.28,21.9C175.31,21.82 173.33,21.73 171.36,21.66C169.39,21.59 167.41,21.52 165.44,21.46C163.47,21.4 161.49,21.35 159.52,21.31C157.55,21.27 155.57,21.24 153.6,21.21C151.63,21.19 149.65,21.17 147.68,21.16C145.71,21.15 143.73,21.15 141.76,21.15C139.79,21.15 137.81,21.15 135.84,21.16C133.87,21.17 131.89,21.19 129.92,21.21C127.95,21.24 125.97,21.27 124,21.31C122.03,21.35 120.05,21.4 118.08,21.46C116.11,21.52 114.13,21.6 112.16,21.69C110.19,21.78 108.21,21.88 106.24,21.98C104.27,22.09 102.29,22.2 100.32,22.32C98.35,22.44 96.37,22.56 94.4,22.68C92.43,22.81 90.45,22.93 88.48,23.07C86.51,23.21 84.53,23.36 82.56,23.53C80.59,23.7 78.61,23.88 76.64,24.1C74.67,24.32 72.7,24.56 70.73,24.85C68.75,25.14 66.78,25.47 64.81,25.84C62.83,26.21 60.86,26.63 58.89,27.09C56.91,27.55 54.94,28.07 52.97,28.62C50.99,29.17 49.02,29.79 47.05,30.4C45.07,31.01 43.11,31.69 41.13,32.3C39.16,32.91 37.19,33.56 35.21,34.08C33.25,34.59 31.27,35.1 29.29,35.4C27.33,35.7 25.34,35.91 23.37,35.9C21.4,35.89 19.41,35.69 17.45,35.33C15.46,34.97 13.48,34.37 11.53,33.72C9.54,33.05 7.57,32.18 5.61,31.35C3.63,30.51 1.67,29.55 -0.31,28.69C-2.28,27.83 -4.24,26.95 -6.23,26.2C-8.19,25.46 -10.16,24.78 -12.15,24.21C-14.11,23.65 -16.09,23.2 -18.07,22.82Q-20.04,22.45 -23.99,21.96Z" style="vector-effect: none; stroke-width: 2px; stroke: rgb(181, 181, 181); stroke-opacity: 1; fill: rgb(181, 181, 181); fill-opacity: 1;"/><path class="box" d="M29.38,24.81V17.42M18.6,24.81V17.42H59.89V24.81ZM18.6,21.12H11.62M59.89,21.12H89.71" style="vector-effect: non-scaling-stroke; stroke-width: 2px; stroke: rgb(181, 181, 181); stroke-opacity: 1; fill: rgb(181, 181, 181); fill-opacity: 1;"/><path class="mean" d="M111.93,24.81V17.42" style="fill: none; vector-effect: non-scaling-stroke; stroke-width: 2px; stroke-dasharray: 4px, 2px; stroke: rgb(181, 181, 181); stroke-opacity: 1;"/></g></g><g class="scatterlayer mlayer"><g class="trace scatter trace93e5a2" style="stroke-miterlimit: 2; opacity: 1;"><g class="fills"/><g class="errorbars"/><g class="lines"/><g class="points"><path class="point" transform="translate(1000,21.12)" d="M2,0A2,2 0 1,1 0,-2A2,2 0 0,1 2,0Z" style="opacity: 1; stroke-width: 0px; fill: rgb(11, 121, 230); fill-opacity: 1;"/></g><g class="text"/></g><g class="trace scatter trace31796e" style="stroke-miterlimit: 2; opacity: 1;"><g class="fills"/><g class="errorbars"/><g class="lines"/><g class="points"><path class="point" transform="translate(193.62,21.12)" d="M2,0A2,2 0 1,1 0,-2A2,2 0 0,1 2,0Z" style="opacity: 1; stroke-width: 0px; fill: rgb(11, 121, 230); fill-opacity: 1;"/></g><g class="text"/></g><g class="trace scatter trace028cad" style="stroke-miterlimit: 2; opacity: 1;"><g class="fills"/><g class="errorbars"/><g class="lines"/><g class="points"><path class="point" transform="translate(504.06,21.12)" d="M2,0A2,2 0 1,1 0,-2A2,2 0 0,1 2,0Z" style="opacity: 1; stroke-width: 0px; fill: rgb(11, 121, 230); fill-opacity: 1;"/></g><g class="text"/></g><g class="trace scatter trace628689" style="stroke-miterlimit: 2; opacity: 1;"><g class="fills"/><g class="errorbars"/><g class="lines"/><g class="points"><path class="point" transform="translate(89.71,21.12)" d="M2,0A2,2 0 1,1 0,-2A2,2 0 0,1 2,0Z" style="opacity: 1; stroke-width: 0px; fill: rgb(11, 121, 230); fill-opacity: 1;"/></g><g class="text"/></g><g class="trace scatter trace6576f4" style="stroke-miterlimit: 2; opacity: 1;"><g class="fills"/><g class="errorbars"/><g class="lines"/><g class="points"><path class="point" transform="translate(57.14,21.12)" d="M2,0A2,2 0 1,1 0,-2A2,2 0 0,1 2,0Z" style="opacity: 1; stroke-width: 0px; fill: rgb(11, 121, 230); fill-opacity: 1;"/></g><g class="text"/></g><g class="trace scatter traced6aa12" style="stroke-miterlimit: 2; opacity: 1;"><g class="fills"/><g class="errorbars"/><g class="lines"/><g class="points"><path class="point" transform="translate(34.82,21.12)" d="M2,0A2,2 0 1,1 0,-2A2,2 0 0,1 2,0Z" style="opacity: 1; stroke-width: 0px; fill: rgb(11, 121, 230); fill-opacity: 1;"/></g><g class="text"/></g><g class="trace scatter trace515a6f" style="stroke-miterlimit: 2; opacity: 1;"><g class="fills"/><g class="errorbars"/><g class="lines"/><g class="points"><path class="point" transform="translate(40.59,21.12)" d="M2,0A2,2 0 1,1 0,-2A2,2 0 0,1 2,0Z" style="opacity: 1; stroke-width: 0px; fill: rgb(11, 121, 230); fill-opacity: 1;"/></g><g class="text"/></g><g class="trace scatter trace89c1c9" style="stroke-miterlimit: 2; opacity: 1;"><g class="fills"/><g class="errorbars"/><g class="lines"/><g class="points"><path class="point" transform="translate(23.93,21.12)" d="M2,0A2,2 0 1,1 0,-2A2,2 0 0,1 2,0Z" style="opacity: 1; stroke-width: 0px; fill: rgb(11, 121, 230); fill-opacity: 1;"/></g><g class="text"/></g><g class="trace scatter tracec0e19a" style="stroke-miterlimit: 2; opacity: 1;"><g class="fills"/><g class="errorbars"/><g class="lines"/><g class="points"><path class="point" transform="translate(62.63,21.12)" d="M2,0A2,2 0 1,1 0,-2A2,2 0 0,1 2,0Z" style="opacity: 1; stroke-width: 0px; fill: rgb(11, 121, 230); fill-opacity: 1;"/></g><g class="text"/></g><g class="trace scatter trace4cd6ac" style="stroke-miterlimit: 2; opacity: 1;"><g class="fills"/><g class="errorbars"/><g class="lines"/><g class="points"><path class="point" transform="translate(35.77,21.12)" d="M2,0A2,2 0 1,1 0,-2A2,2 0 0,1 2,0Z" style="opacity: 1; stroke-width: 0px; fill: rgb(11, 121, 230); fill-opacity: 1;"/></g><g class="text"/></g><g class="trace scatter traceef188c" style="stroke-miterlimit: 2; opacity: 1;"><g class="fills"/><g class="errorbars"/><g class="lines"/><g class="points"><path class="point" transform="translate(41.58,21.12)" d="M2,0A2,2 0 1,1 0,-2A2,2 0 0,1 2,0Z" style="opacity: 1; stroke-width: 0px; fill: rgb(11, 121, 230); fill-opacity: 1;"/></g><g class="text"/></g><g class="trace scatter trace417d35" style="stroke-miterlimit: 2; opacity: 1;"><g class="fills"/><g class="errorbars"/><g class="lines"/><g class="points"><path class="point" transform="translate(20.14,21.12)" d="M2,0A2,2 0 1,1 0,-2A2,2 0 0,1 2,0Z" style="opacity: 1; stroke-width: 0px; fill: rgb(11, 121, 230); fill-opacity: 1;"/></g><g class="text"/></g><g class="trace scatter tracee2aaee" style="stroke-miterlimit: 2; opacity: 1;"><g class="fills"/><g class="errorbars"/><g class="lines"/><g class="points"><path class="point" transform="translate(19.3,21.12)" d="M2,0A2,2 0 1,1 0,-2A2,2 0 0,1 2,0Z" style="opacity: 1; stroke-width: 0px; fill: rgb(11, 121, 230); fill-opacity: 1;"/></g><g class="text"/></g><g class="trace scatter tracec04d1b" style="stroke-miterlimit: 2; opacity: 1;"><g class="fills"/><g class="errorbars"/><g class="lines"/><g class="points"><path class="point" transform="translate(14.83,21.12)" d="M2,0A2,2 0 1,1 0,-2A2,2 0 0,1 2,0Z" style="opacity: 1; stroke-width: 0px; fill: rgb(11, 121, 230); fill-opacity: 1;"/></g><g class="text"/></g><g class="trace scatter traceb1e787" style="stroke-miterlimit: 2; opacity: 1;"><g class="fills"/><g class="errorbars"/><g class="lines"/><g class="points"><path class="point" transform="translate(18,21.12)" d="M2,0A2,2 0 1,1 0,-2A2,2 0 0,1 2,0Z" style="opacity: 1; stroke-width: 0px; fill: rgb(11, 121, 230); fill-opacity: 1;"/></g><g class="text"/></g><g class="trace scatter tracebc2d78" style="stroke-miterlimit: 2; opacity: 1;"><g class="fills"/><g class="errorbars"/><g class="lines"/><g class="points"><path class="point" transform="translate(22.86,21.12)" d="M2,0A2,2 0 1,1 0,-2A2,2 0 0,1 2,0Z" style="opacity: 1; stroke-width: 0px; fill: rgb(11, 121, 230); fill-opacity: 1;"/></g><g class="text"/></g><g class="trace scatter trace897a2a" style="stroke-miterlimit: 2; opacity: 1;"><g class="fills"/><g class="errorbars"/><g class="lines"/><g class="points"><path class="point" transform="translate(11.62,21.12)" d="M2,0A2,2 0 1,1 0,-2A2,2 0 0,1 2,0Z" style="opacity: 1; stroke-width: 0px; fill: rgb(11, 121, 230); fill-opacity: 1;"/></g><g class="text"/></g><g class="trace scatter trace92cacf" style="stroke-miterlimit: 2; opacity: 1;"><g class="fills"/><g class="errorbars"/><g class="lines"/><g class="points"><path class="point" transform="translate(13.04,21.12)" d="M2,0A2,2 0 1,1 0,-2A2,2 0 0,1 2,0Z" style="opacity: 1; stroke-width: 0px; fill: rgb(11, 121, 230); fill-opacity: 1;"/></g><g class="text"/></g><g class="trace scatter trace6717e2" style="stroke-miterlimit: 2; opacity: 1;"><g class="fills"/><g class="errorbars"/><g class="lines"/><g class="points"><path class="point" transform="translate(19.19,21.12)" d="M2,0A2,2 0 1,1 0,-2A2,2 0 0,1 2,0Z" style="opacity: 1; stroke-width: 0px; fill: rgb(11, 121, 230); fill-opacity: 1;"/></g><g class="text"/></g><g class="trace scatter trace95d546" style="stroke-miterlimit: 2; opacity: 1;"><g class="fills"/><g class="errorbars"/><g class="lines"/><g class="points"><path class="point" transform="translate(15.66,21.12)" d="M2,0A2,2 0 1,1 0,-2A2,2 0 0,1 2,0Z" style="opacity: 1; stroke-width: 0px; fill: rgb(11, 121, 230); fill-opacity: 1;"/></g><g class="text"/></g></g></g></g><path class="xlines-above crisp" d="M0,0" style="fill: none;"/><path class="ylines-above crisp" d="M0,0" style="fill: none;"/><g class="overlines-above"/><g class="xaxislayer-above"><g class="x2tick"><text text-anchor="middle" x="0" y="172.61538461538464" transform="translate(84.98,0)" style="font-family: 'Lucida Grande', 'Open Sans', verdana, arial, sans-serif; font-size: 9px; fill: rgb(0, 0, 0); fill-opacity: 0.5; white-space: pre; opacity: 1;">0</text></g><g class="x2tick"><text text-anchor="middle" x="0" y="172.61538461538464" style="font-family: 'Lucida Grande', 'Open Sans', verdana, arial, sans-serif; font-size: 9px; fill: rgb(0, 0, 0); fill-opacity: 0.5; white-space: pre; opacity: 1;" transform="translate(277.95,0)">1M</text></g><g class="x2tick"><text text-anchor="middle" x="0" y="172.61538461538464" style="font-family: 'Lucida Grande', 'Open Sans', verdana, arial, sans-serif; font-size: 9px; fill: rgb(0, 0, 0); fill-opacity: 0.5; white-space: pre; opacity: 1;" transform="translate(470.93,0)">2M</text></g><g class="x2tick"><text text-anchor="middle" x="0" y="172.61538461538464" style="font-family: 'Lucida Grande', 'Open Sans', verdana, arial, sans-serif; font-size: 9px; fill: rgb(0, 0, 0); fill-opacity: 0.5; white-space: pre; opacity: 1;" transform="translate(663.91,0)">3M</text></g><g class="x2tick"><text text-anchor="middle" x="0" y="172.61538461538464" style="font-family: 'Lucida Grande', 'Open Sans', verdana, arial, sans-serif; font-size: 9px; fill: rgb(0, 0, 0); fill-opacity: 0.5; white-space: pre; opacity: 1;" transform="translate(856.89,0)">4M</text></g><g class="x2tick"><text text-anchor="middle" x="0" y="172.61538461538464" style="font-family: 'Lucida Grande', 'Open Sans', verdana, arial, sans-serif; font-size: 9px; fill: rgb(0, 0, 0); fill-opacity: 0.5; white-space: pre; opacity: 1;" transform="translate(1049.87,0)">5M</text></g></g><g class="yaxislayer-above"><g class="y2tick"><text text-anchor="end" x="79" y="3.15" transform="translate(0,141.5046153846154)" style="font-family: 'Lucida Grande', 'Open Sans', verdana, arial, sans-serif; font-size: 9px; fill: rgb(0, 0, 0); fill-opacity: 0.5; white-space: pre; opacity: 1;">Occurrences  </text></g></g><g class="overaxes-above"/></g><g class="subplot x3y3"><g class="layer-subplot"><g class="shapelayer"/><g class="imagelayer"/></g><g class="minor-gridlayer"><g class="x3"/><g class="y3"/></g><g class="gridlayer"><g class="x3"><path class="x3grid crisp" transform="translate(283.98,0)" d="M0,190.76923076923077v42.230769230769226" style="stroke: rgb(0, 0, 0); stroke-opacity: 0.1; stroke-width: 1px;"/><path class="x3grid crisp" transform="translate(482.99,0)" d="M0,190.76923076923077v42.230769230769226" style="stroke: rgb(0, 0, 0); stroke-opacity: 0.1; stroke-width: 1px;"/><path class="x3grid crisp" transform="translate(681.99,0)" d="M0,190.76923076923077v42.230769230769226" style="stroke: rgb(0, 0, 0); stroke-opacity: 0.1; stroke-width: 1px;"/><path class="x3grid crisp" transform="translate(881,0)" d="M0,190.76923076923077v42.230769230769226" style="stroke: rgb(0, 0, 0); stroke-opacity: 0.1; stroke-width: 1px;"/><path class="x3grid crisp" transform="translate(1080,0)" d="M0,190.76923076923077v42.230769230769226" style="stroke: rgb(0, 0, 0); stroke-opacity: 0.1; stroke-width: 1px;"/></g><g class="y3"><path class="y3grid crisp" transform="translate(0,211.88923076923078)" d="M80,0h1005" style="stroke: rgb(0, 0, 0); stroke-opacity: 0.1; stroke-width: 1px;"/></g></g><g class="zerolinelayer"><path class="x3zl zl crisp" transform="translate(84.98,0)" d="M0,190.76923076923077v42.230769230769226" style="stroke: rgb(0, 0, 0); stroke-opacity: 0.1; stroke-width: 2px;"/></g><g class="layer-between"><g class="shapelayer"/><g class="imagelayer"/></g><path class="xlines-below"/><path class="ylines-below"/><g class="overlines-below"/><g class="xaxislayer-below"/><g class="yaxislayer-below"/><g class="overaxes-below"/><g class="overplot"><g class="x3y3" transform="translate(80,190.76923076923077)" clip-path="url(#clip6bdb91x3y3plot)"><g class="violinlayer mlayer"><g class="trace violins" style="opacity: 0.5;"><path class="violin" d="M4.8,20.27Q4.83,19.73 4.84,19.41C4.85,19 4.86,18.52 4.87,18.02C4.88,17.42 4.9,16.73 4.91,16.03C4.92,15.25 4.93,14.38 4.94,13.54C4.95,12.67 4.97,11.74 4.98,10.88C4.99,10.07 5,9.22 5.01,8.51C5.02,7.92 5.03,7.3 5.05,6.9C5.06,6.66 5.08,6.33 5.09,6.33C5.1,6.33 5.11,6.62 5.12,6.83C5.14,7.17 5.15,7.68 5.16,8.15C5.17,8.7 5.18,9.33 5.19,9.93C5.2,10.55 5.22,11.21 5.23,11.83C5.24,12.43 5.25,13.04 5.26,13.61C5.27,14.14 5.29,14.66 5.3,15.14C5.31,15.58 5.33,16 5.34,16.39C5.35,16.74 5.36,17.07 5.37,17.38C5.38,17.65 5.4,17.9 5.41,18.13C5.42,18.33 5.43,18.52 5.44,18.7C5.45,18.86 5.47,19.01 5.48,19.16C5.49,19.3 5.5,19.42 5.51,19.55C5.52,19.68 5.54,19.8 5.55,19.92C5.56,20.03 5.58,20.14 5.59,20.25C5.6,20.35 5.61,20.45 5.62,20.54C5.63,20.62 5.65,20.7 5.66,20.77C5.67,20.83 5.68,20.88 5.69,20.92C5.7,20.96 5.72,20.99 5.73,21.02C5.74,21.04 5.75,21.06 5.76,21.07C5.77,21.08 5.79,21.08 5.8,21.08C5.81,21.08 5.83,21.08 5.84,21.07C5.85,21.06 5.86,21.04 5.87,21.02C5.88,20.99 5.9,20.96 5.91,20.92C5.92,20.88 5.93,20.82 5.94,20.77C5.95,20.71 5.97,20.64 5.98,20.57C5.99,20.49 6,20.41 6.01,20.33C6.02,20.25 6.04,20.18 6.05,20.11C6.06,20.05 6.07,19.99 6.09,19.96C6.1,19.94 6.11,19.93 6.12,19.93C6.13,19.93 6.15,19.98 6.16,20.02C6.18,20.07 6.18,20.14 6.19,20.21C6.2,20.29 6.22,20.37 6.23,20.45C6.24,20.52 6.25,20.6 6.26,20.67C6.27,20.73 6.29,20.8 6.3,20.85C6.31,20.9 6.33,20.94 6.34,20.98C6.35,21.01 6.36,21.03 6.37,21.05C6.38,21.07 6.4,21.08 6.41,21.09C6.42,21.1 6.43,21.1 6.44,21.1C6.45,21.1 6.47,21.11 6.48,21.11C6.49,21.11 6.5,21.11 6.51,21.11C6.52,21.11 6.54,21.12 6.55,21.12C6.56,21.12 6.58,21.12 6.59,21.12C6.6,21.12 6.61,21.12 6.62,21.12C6.63,21.12 6.65,21.12 6.66,21.12C6.67,21.12 6.68,21.12 6.69,21.12C6.7,21.12 6.72,21.12 6.73,21.12C6.74,21.12 6.75,21.12 6.76,21.12C6.77,21.12 6.79,21.12 6.8,21.12C6.81,21.12 6.83,21.12 6.84,21.12C6.85,21.12 6.86,21.12 6.87,21.12C6.88,21.12 6.9,21.12 6.91,21.12C6.92,21.12 6.93,21.12 6.94,21.12C6.95,21.12 6.97,21.12 6.98,21.12C6.99,21.12 7,21.12 7.01,21.12C7.02,21.12 7.04,21.12 7.05,21.12C7.06,21.12 7.08,21.12 7.09,21.12C7.1,21.12 7.11,21.12 7.12,21.12C7.13,21.12 7.15,21.12 7.16,21.12C7.17,21.12 7.18,21.12 7.19,21.12C7.2,21.12 7.22,21.12 7.23,21.12C7.24,21.12 7.25,21.12 7.26,21.12C7.27,21.12 7.29,21.12 7.3,21.12C7.31,21.12 7.33,21.12 7.34,21.12C7.35,21.12 7.36,21.12 7.37,21.12C7.38,21.12 7.4,21.12 7.41,21.12C7.42,21.12 7.43,21.12 7.44,21.12C7.45,21.12 7.47,21.12 7.48,21.12C7.49,21.12 7.5,21.12 7.51,21.12C7.52,21.12 7.54,21.12 7.55,21.12C7.56,21.12 7.58,21.11 7.59,21.11C7.6,21.11 7.61,21.11 7.62,21.11C7.63,21.11 7.65,21.1 7.66,21.1C7.67,21.1 7.68,21.1 7.69,21.09C7.7,21.08 7.72,21.07 7.73,21.05C7.74,21.03 7.75,21 7.76,20.97C7.77,20.93 7.79,20.89 7.8,20.85C7.81,20.8 7.83,20.73 7.84,20.67C7.85,20.6 7.86,20.52 7.87,20.44C7.88,20.36 7.9,20.27 7.91,20.2C7.92,20.14 7.93,20.07 7.94,20.02C7.95,19.98 7.97,19.93 7.98,19.93C7.99,19.93 8,19.95 8.01,19.97C8.03,20 8.04,20.06 8.05,20.12C8.06,20.19 8.08,20.26 8.09,20.34C8.1,20.42 8.11,20.5 8.12,20.58C8.13,20.65 8.15,20.72 8.16,20.78C8.17,20.83 8.18,20.89 8.19,20.93C8.2,20.96 8.22,20.99 8.23,21.02C8.24,21.04 8.25,21.06 8.26,21.07C8.27,21.08 8.29,21.09 8.3,21.1C8.31,21.11 8.33,21.11 8.34,21.11C8.35,21.11 8.36,21.11 8.37,21.11C8.38,21.11 8.4,21.11 8.41,21.11C8.42,21.11 8.43,21.12 8.44,21.12C8.45,21.12 8.47,21.12 8.48,21.12C8.49,21.12 8.5,21.12 8.51,21.12C8.52,21.12 8.54,21.12 8.55,21.12C8.56,21.12 8.58,21.12 8.59,21.12C8.6,21.12 8.61,21.12 8.62,21.12C8.63,21.12 8.65,21.12 8.66,21.12C8.67,21.12 8.68,21.12 8.69,21.12C8.7,21.12 8.72,21.12 8.73,21.12C8.74,21.12 8.75,21.12 8.76,21.12C8.77,21.12 8.79,21.12 8.8,21.12C8.81,21.12 8.83,21.12 8.84,21.12C8.85,21.12 8.86,21.12 8.87,21.12C8.88,21.12 8.9,21.12 8.91,21.12C8.92,21.12 8.93,21.12 8.94,21.12C8.95,21.12 8.97,21.12 8.98,21.12C8.99,21.12 9,21.12 9.01,21.12C9.02,21.12 9.04,21.12 9.05,21.12C9.06,21.12 9.08,21.12 9.09,21.12C9.1,21.12 9.11,21.12 9.12,21.12C9.13,21.12 9.15,21.12 9.16,21.12C9.17,21.12 9.18,21.12 9.19,21.12C9.2,21.12 9.22,21.12 9.23,21.12C9.24,21.12 9.25,21.12 9.26,21.12C9.27,21.12 9.29,21.12 9.3,21.12C9.31,21.12 9.33,21.12 9.34,21.12C9.35,21.12 9.36,21.12 9.37,21.12C9.38,21.12 9.4,21.12 9.41,21.12C9.42,21.12 9.43,21.12 9.44,21.12C9.45,21.12 9.47,21.12 9.48,21.12C9.49,21.12 9.5,21.12 9.51,21.12C9.52,21.12 9.54,21.12 9.55,21.12C9.56,21.12 9.58,21.12 9.59,21.12C9.6,21.12 9.61,21.12 9.62,21.12C9.63,21.12 9.65,21.12 9.66,21.12C9.67,21.12 9.68,21.12 9.69,21.12C9.7,21.12 9.72,21.12 9.73,21.12C9.74,21.12 9.75,21.12 9.76,21.12C9.77,21.12 9.79,21.12 9.8,21.12C9.81,21.12 9.83,21.12 9.84,21.12C9.85,21.12 9.86,21.12 9.87,21.12C9.88,21.12 9.9,21.12 9.91,21.12C9.92,21.12 9.93,21.12 9.94,21.12C9.95,21.12 9.97,21.12 9.98,21.12C9.99,21.12 10,21.12 10.01,21.12C10.02,21.12 10.04,21.12 10.05,21.12C10.06,21.12 10.08,21.12 10.09,21.12C10.1,21.12 10.11,21.12 10.12,21.12C10.13,21.12 10.15,21.12 10.16,21.12C10.17,21.12 10.18,21.12 10.19,21.12C10.2,21.12 10.22,21.12 10.23,21.12C10.24,21.12 10.25,21.12 10.26,21.12C10.27,21.12 10.29,21.12 10.3,21.12C10.31,21.12 10.33,21.12 10.34,21.12C10.35,21.12 10.36,21.12 10.37,21.12C10.38,21.12 10.4,21.12 10.41,21.12C10.42,21.12 10.43,21.12 10.44,21.12C10.45,21.12 10.47,21.12 10.48,21.12C10.49,21.12 10.5,21.12 10.51,21.12C10.52,21.12 10.54,21.11 10.55,21.11C10.56,21.11 10.58,21.11 10.59,21.11C10.6,21.11 10.61,21.11 10.62,21.11C10.63,21.11 10.65,21.11 10.66,21.1C10.67,21.1 10.68,21.09 10.69,21.08C10.7,21.07 10.72,21.05 10.73,21.03C10.74,21.01 10.75,20.98 10.76,20.95C10.77,20.91 10.79,20.86 10.8,20.81C10.81,20.75 10.83,20.69 10.84,20.62C10.85,20.55 10.86,20.47 10.87,20.39C10.88,20.31 10.9,20.23 10.91,20.16C10.92,20.1 10.92,20.03 10.94,19.99C10.95,19.96 10.97,19.92 10.98,19.92C10.99,19.92 11,19.96 11.01,19.99C11.02,20.03 11.04,20.1 11.05,20.16C11.06,20.23 11.08,20.31 11.09,20.39C11.1,20.47 11.11,20.55 11.12,20.63C11.13,20.7 11.15,20.76 11.16,20.82Q11.17,20.87 11.19,20.95L11.19,21.28Q11.17,21.36 11.16,21.41C11.15,21.47 11.13,21.53 11.12,21.6C11.11,21.68 11.1,21.76 11.09,21.84C11.08,21.92 11.06,22 11.05,22.07C11.04,22.13 11.02,22.2 11.01,22.24C11,22.27 10.99,22.31 10.98,22.31C10.97,22.31 10.95,22.27 10.94,22.24C10.92,22.2 10.92,22.13 10.91,22.07C10.9,22 10.88,21.92 10.87,21.84C10.86,21.76 10.85,21.68 10.84,21.61C10.83,21.54 10.81,21.48 10.8,21.42C10.79,21.37 10.77,21.32 10.76,21.28C10.75,21.25 10.74,21.22 10.73,21.2C10.72,21.18 10.7,21.16 10.69,21.15C10.68,21.14 10.67,21.13 10.66,21.13C10.65,21.12 10.63,21.12 10.62,21.12C10.61,21.12 10.6,21.12 10.59,21.12C10.58,21.12 10.56,21.12 10.55,21.12C10.54,21.12 10.52,21.12 10.51,21.12C10.5,21.12 10.49,21.12 10.48,21.12C10.47,21.12 10.45,21.12 10.44,21.12C10.43,21.12 10.42,21.12 10.41,21.12C10.4,21.12 10.38,21.12 10.37,21.12C10.36,21.12 10.35,21.12 10.34,21.12C10.33,21.12 10.31,21.12 10.3,21.12C10.29,21.12 10.27,21.12 10.26,21.12C10.25,21.12 10.24,21.12 10.23,21.12C10.22,21.12 10.2,21.12 10.19,21.12C10.18,21.12 10.17,21.12 10.16,21.12C10.15,21.12 10.13,21.12 10.12,21.12C10.11,21.12 10.1,21.12 10.09,21.12C10.08,21.12 10.06,21.12 10.05,21.12C10.04,21.12 10.02,21.12 10.01,21.12C10,21.12 9.99,21.12 9.98,21.12C9.97,21.12 9.95,21.12 9.94,21.12C9.93,21.12 9.92,21.12 9.91,21.12C9.9,21.12 9.88,21.12 9.87,21.12C9.86,21.12 9.85,21.12 9.84,21.12C9.83,21.12 9.81,21.12 9.8,21.12C9.79,21.12 9.77,21.12 9.76,21.12C9.75,21.12 9.74,21.12 9.73,21.12C9.72,21.12 9.7,21.12 9.69,21.12C9.68,21.12 9.67,21.12 9.66,21.12C9.65,21.12 9.63,21.12 9.62,21.12C9.61,21.12 9.6,21.12 9.59,21.12C9.58,21.12 9.56,21.12 9.55,21.12C9.54,21.12 9.52,21.12 9.51,21.12C9.5,21.12 9.49,21.12 9.48,21.12C9.47,21.12 9.45,21.12 9.44,21.12C9.43,21.12 9.42,21.12 9.41,21.12C9.4,21.12 9.38,21.12 9.37,21.12C9.36,21.12 9.35,21.12 9.34,21.12C9.33,21.12 9.31,21.12 9.3,21.12C9.29,21.12 9.27,21.12 9.26,21.12C9.25,21.12 9.24,21.12 9.23,21.12C9.22,21.12 9.2,21.12 9.19,21.12C9.18,21.12 9.17,21.12 9.16,21.12C9.15,21.12 9.13,21.12 9.12,21.12C9.11,21.12 9.1,21.12 9.09,21.12C9.08,21.12 9.06,21.12 9.05,21.12C9.04,21.12 9.02,21.12 9.01,21.12C9,21.12 8.99,21.12 8.98,21.12C8.97,21.12 8.95,21.12 8.94,21.12C8.93,21.12 8.92,21.12 8.91,21.12C8.9,21.12 8.88,21.12 8.87,21.12C8.86,21.12 8.85,21.12 8.84,21.12C8.83,21.12 8.81,21.12 8.8,21.12C8.79,21.12 8.77,21.12 8.76,21.12C8.75,21.12 8.74,21.12 8.73,21.12C8.72,21.12 8.7,21.12 8.69,21.12C8.68,21.12 8.67,21.12 8.66,21.12C8.65,21.12 8.63,21.12 8.62,21.12C8.61,21.12 8.6,21.12 8.59,21.12C8.58,21.12 8.56,21.12 8.55,21.12C8.54,21.12 8.52,21.12 8.51,21.12C8.5,21.12 8.49,21.12 8.48,21.12C8.47,21.12 8.45,21.12 8.44,21.12C8.43,21.12 8.42,21.12 8.41,21.12C8.4,21.12 8.38,21.12 8.37,21.12C8.36,21.12 8.35,21.12 8.34,21.12C8.33,21.12 8.31,21.12 8.3,21.13C8.29,21.14 8.27,21.15 8.26,21.16C8.25,21.17 8.24,21.19 8.23,21.21C8.22,21.24 8.2,21.27 8.19,21.3C8.18,21.34 8.17,21.4 8.16,21.45C8.15,21.51 8.13,21.58 8.12,21.65C8.11,21.73 8.1,21.81 8.09,21.89C8.08,21.97 8.06,22.04 8.05,22.11C8.04,22.17 8.03,22.24 8.01,22.27C8,22.29 7.99,22.3 7.98,22.3C7.97,22.3 7.95,22.25 7.94,22.21C7.93,22.16 7.92,22.09 7.91,22.03C7.9,21.96 7.88,21.87 7.87,21.79C7.86,21.71 7.85,21.63 7.84,21.56C7.83,21.5 7.81,21.43 7.8,21.38C7.79,21.34 7.77,21.3 7.76,21.26C7.75,21.23 7.74,21.2 7.73,21.18C7.72,21.16 7.7,21.15 7.69,21.14C7.68,21.13 7.67,21.13 7.66,21.13C7.65,21.13 7.63,21.12 7.62,21.12C7.61,21.12 7.6,21.12 7.59,21.12C7.58,21.12 7.56,21.12 7.55,21.12C7.54,21.12 7.52,21.12 7.51,21.12C7.5,21.12 7.49,21.12 7.48,21.12C7.47,21.12 7.45,21.12 7.44,21.12C7.43,21.12 7.42,21.12 7.41,21.12C7.4,21.12 7.38,21.12 7.37,21.12C7.36,21.12 7.35,21.12 7.34,21.12C7.33,21.12 7.31,21.12 7.3,21.12C7.29,21.12 7.27,21.12 7.26,21.12C7.25,21.12 7.24,21.12 7.23,21.12C7.22,21.12 7.2,21.12 7.19,21.12C7.18,21.12 7.17,21.12 7.16,21.12C7.15,21.12 7.13,21.12 7.12,21.12C7.11,21.12 7.1,21.12 7.09,21.12C7.08,21.12 7.06,21.12 7.05,21.12C7.04,21.12 7.02,21.12 7.01,21.12C7,21.12 6.99,21.12 6.98,21.12C6.97,21.12 6.95,21.12 6.94,21.12C6.93,21.12 6.92,21.12 6.91,21.12C6.9,21.12 6.88,21.12 6.87,21.12C6.86,21.12 6.85,21.12 6.84,21.12C6.83,21.12 6.81,21.12 6.8,21.12C6.79,21.12 6.77,21.12 6.76,21.12C6.75,21.12 6.74,21.12 6.73,21.12C6.72,21.12 6.7,21.12 6.69,21.12C6.68,21.12 6.67,21.12 6.66,21.12C6.65,21.12 6.63,21.12 6.62,21.12C6.61,21.12 6.6,21.12 6.59,21.12C6.58,21.12 6.56,21.12 6.55,21.12C6.54,21.12 6.52,21.12 6.51,21.12C6.5,21.12 6.49,21.12 6.48,21.12C6.47,21.12 6.45,21.13 6.44,21.13C6.43,21.13 6.42,21.13 6.41,21.14C6.4,21.15 6.38,21.16 6.37,21.18C6.36,21.2 6.35,21.22 6.34,21.25C6.33,21.29 6.31,21.33 6.3,21.38C6.29,21.43 6.27,21.5 6.26,21.56C6.25,21.63 6.24,21.71 6.23,21.78C6.22,21.86 6.2,21.94 6.19,22.02C6.18,22.09 6.18,22.16 6.16,22.21C6.15,22.25 6.13,22.3 6.12,22.3C6.11,22.3 6.1,22.29 6.09,22.27C6.07,22.24 6.06,22.18 6.05,22.12C6.04,22.05 6.02,21.98 6.01,21.9C6,21.82 5.99,21.74 5.98,21.66C5.97,21.59 5.95,21.52 5.94,21.46C5.93,21.41 5.92,21.35 5.91,21.31C5.9,21.27 5.88,21.24 5.87,21.21C5.86,21.19 5.85,21.17 5.84,21.16C5.83,21.15 5.81,21.15 5.8,21.15C5.79,21.15 5.77,21.15 5.76,21.16C5.75,21.17 5.74,21.19 5.73,21.21C5.72,21.24 5.7,21.27 5.69,21.31C5.68,21.35 5.67,21.4 5.66,21.46C5.65,21.53 5.63,21.61 5.62,21.69C5.61,21.78 5.6,21.88 5.59,21.98C5.58,22.09 5.56,22.21 5.55,22.32C5.54,22.44 5.52,22.56 5.51,22.68C5.5,22.81 5.49,22.93 5.48,23.07C5.47,23.22 5.45,23.37 5.44,23.53C5.43,23.71 5.42,23.9 5.41,24.1C5.4,24.33 5.38,24.58 5.37,24.85C5.36,25.16 5.35,25.49 5.34,25.84C5.33,26.23 5.31,26.65 5.3,27.09C5.29,27.57 5.27,28.09 5.26,28.62C5.25,29.19 5.24,29.8 5.23,30.4C5.22,31.02 5.2,31.68 5.19,32.3C5.18,32.9 5.17,33.53 5.16,34.08C5.15,34.55 5.14,35.06 5.12,35.4C5.11,35.61 5.1,35.9 5.09,35.9C5.08,35.9 5.06,35.57 5.05,35.33C5.03,34.93 5.02,34.31 5.01,33.72C5,33.01 4.99,32.16 4.98,31.35C4.97,30.49 4.95,29.56 4.94,28.69C4.93,27.85 4.92,26.98 4.91,26.2C4.9,25.5 4.88,24.81 4.87,24.21C4.86,23.71 4.85,23.23 4.84,22.82Q4.83,22.5 4.8,21.96Z" style="vector-effect: none; stroke-width: 2px; stroke: rgb(181, 181, 181); stroke-opacity: 1; fill: rgb(181, 181, 181); fill-opacity: 1;"/><path class="box" d="M5.12,24.81V17.42M5.06,24.81V17.42H5.31V24.81ZM5.06,21.12H5.02M5.31,21.12H5.49" style="vector-effect: non-scaling-stroke; stroke-width: 2px; stroke: rgb(181, 181, 181); stroke-opacity: 1; fill: rgb(181, 181, 181); fill-opacity: 1;"/><path class="mean" d="M5.62,24.81V17.42" style="fill: none; vector-effect: non-scaling-stroke; stroke-width: 2px; stroke-dasharray: 4px, 2px; stroke: rgb(181, 181, 181); stroke-opacity: 1;"/></g></g><g class="scatterlayer mlayer"><g class="trace scatter tracee9dade" style="stroke-miterlimit: 2; opacity: 1;"><g class="fills"/><g class="errorbars"/><g class="lines"/><g class="points"><path class="point" transform="translate(10.98,21.12)" d="M2,0A2,2 0 1,1 0,-2A2,2 0 0,1 2,0Z" style="opacity: 1; stroke-width: 0px; fill: rgb(11, 121, 230); fill-opacity: 1;"/></g><g class="text"/></g><g class="trace scatter tracefd96cd" style="stroke-miterlimit: 2; opacity: 1;"><g class="fills"/><g class="errorbars"/><g class="lines"/><g class="points"><path class="point" transform="translate(6.11,21.12)" d="M2,0A2,2 0 1,1 0,-2A2,2 0 0,1 2,0Z" style="opacity: 1; stroke-width: 0px; fill: rgb(11, 121, 230); fill-opacity: 1;"/></g><g class="text"/></g><g class="trace scatter tracec91c66" style="stroke-miterlimit: 2; opacity: 1;"><g class="fills"/><g class="errorbars"/><g class="lines"/><g class="points"><path class="point" transform="translate(7.99,21.12)" d="M2,0A2,2 0 1,1 0,-2A2,2 0 0,1 2,0Z" style="opacity: 1; stroke-width: 0px; fill: rgb(11, 121, 230); fill-opacity: 1;"/></g><g class="text"/></g><g class="trace scatter trace6c0197" style="stroke-miterlimit: 2; opacity: 1;"><g class="fills"/><g class="errorbars"/><g class="lines"/><g class="points"><path class="point" transform="translate(5.49,21.12)" d="M2,0A2,2 0 1,1 0,-2A2,2 0 0,1 2,0Z" style="opacity: 1; stroke-width: 0px; fill: rgb(11, 121, 230); fill-opacity: 1;"/></g><g class="text"/></g><g class="trace scatter tracea6fa80" style="stroke-miterlimit: 2; opacity: 1;"><g class="fills"/><g class="errorbars"/><g class="lines"/><g class="points"><path class="point" transform="translate(5.29,21.12)" d="M2,0A2,2 0 1,1 0,-2A2,2 0 0,1 2,0Z" style="opacity: 1; stroke-width: 0px; fill: rgb(11, 121, 230); fill-opacity: 1;"/></g><g class="text"/></g><g class="trace scatter tracee7663e" style="stroke-miterlimit: 2; opacity: 1;"><g class="fills"/><g class="errorbars"/><g class="lines"/><g class="points"><path class="point" transform="translate(5.16,21.12)" d="M2,0A2,2 0 1,1 0,-2A2,2 0 0,1 2,0Z" style="opacity: 1; stroke-width: 0px; fill: rgb(11, 121, 230); fill-opacity: 1;"/></g><g class="text"/></g><g class="trace scatter trace010c07" style="stroke-miterlimit: 2; opacity: 1;"><g class="fills"/><g class="errorbars"/><g class="lines"/><g class="points"><path class="point" transform="translate(5.19,21.12)" d="M2,0A2,2 0 1,1 0,-2A2,2 0 0,1 2,0Z" style="opacity: 1; stroke-width: 0px; fill: rgb(11, 121, 230); fill-opacity: 1;"/></g><g class="text"/></g><g class="trace scatter trace1aef6d" style="stroke-miterlimit: 2; opacity: 1;"><g class="fills"/><g class="errorbars"/><g class="lines"/><g class="points"><path class="point" transform="translate(5.09,21.12)" d="M2,0A2,2 0 1,1 0,-2A2,2 0 0,1 2,0Z" style="opacity: 1; stroke-width: 0px; fill: rgb(11, 121, 230); fill-opacity: 1;"/></g><g class="text"/></g><g class="trace scatter trace99e303" style="stroke-miterlimit: 2; opacity: 1;"><g class="fills"/><g class="errorbars"/><g class="lines"/><g class="points"><path class="point" transform="translate(5.32,21.12)" d="M2,0A2,2 0 1,1 0,-2A2,2 0 0,1 2,0Z" style="opacity: 1; stroke-width: 0px; fill: rgb(11, 121, 230); fill-opacity: 1;"/></g><g class="text"/></g><g class="trace scatter tracea51f38" style="stroke-miterlimit: 2; opacity: 1;"><g class="fills"/><g class="errorbars"/><g class="lines"/><g class="points"><path class="point" transform="translate(5.16,21.12)" d="M2,0A2,2 0 1,1 0,-2A2,2 0 0,1 2,0Z" style="opacity: 1; stroke-width: 0px; fill: rgb(11, 121, 230); fill-opacity: 1;"/></g><g class="text"/></g><g class="trace scatter traceaecdb6" style="stroke-miterlimit: 2; opacity: 1;"><g class="fills"/><g class="errorbars"/><g class="lines"/><g class="points"><path class="point" transform="translate(5.2,21.12)" d="M2,0A2,2 0 1,1 0,-2A2,2 0 0,1 2,0Z" style="opacity: 1; stroke-width: 0px; fill: rgb(11, 121, 230); fill-opacity: 1;"/></g><g class="text"/></g><g class="trace scatter traceaca1f1" style="stroke-miterlimit: 2; opacity: 1;"><g class="fills"/><g class="errorbars"/><g class="lines"/><g class="points"><path class="point" transform="translate(5.07,21.12)" d="M2,0A2,2 0 1,1 0,-2A2,2 0 0,1 2,0Z" style="opacity: 1; stroke-width: 0px; fill: rgb(11, 121, 230); fill-opacity: 1;"/></g><g class="text"/></g><g class="trace scatter trace98f71c" style="stroke-miterlimit: 2; opacity: 1;"><g class="fills"/><g class="errorbars"/><g class="lines"/><g class="points"><path class="point" transform="translate(5.06,21.12)" d="M2,0A2,2 0 1,1 0,-2A2,2 0 0,1 2,0Z" style="opacity: 1; stroke-width: 0px; fill: rgb(11, 121, 230); fill-opacity: 1;"/></g><g class="text"/></g><g class="trace scatter tracef3da25" style="stroke-miterlimit: 2; opacity: 1;"><g class="fills"/><g class="errorbars"/><g class="lines"/><g class="points"><path class="point" transform="translate(5.03,21.12)" d="M2,0A2,2 0 1,1 0,-2A2,2 0 0,1 2,0Z" style="opacity: 1; stroke-width: 0px; fill: rgb(11, 121, 230); fill-opacity: 1;"/></g><g class="text"/></g><g class="trace scatter trace460515" style="stroke-miterlimit: 2; opacity: 1;"><g class="fills"/><g class="errorbars"/><g class="lines"/><g class="points"><path class="point" transform="translate(5.05,21.12)" d="M2,0A2,2 0 1,1 0,-2A2,2 0 0,1 2,0Z" style="opacity: 1; stroke-width: 0px; fill: rgb(11, 121, 230); fill-opacity: 1;"/></g><g class="text"/></g><g class="trace scatter trace79db62" style="stroke-miterlimit: 2; opacity: 1;"><g class="fills"/><g class="errorbars"/><g class="lines"/><g class="points"><path class="point" transform="translate(5.08,21.12)" d="M2,0A2,2 0 1,1 0,-2A2,2 0 0,1 2,0Z" style="opacity: 1; stroke-width: 0px; fill: rgb(11, 121, 230); fill-opacity: 1;"/></g><g class="text"/></g><g class="trace scatter tracef4f1e8" style="stroke-miterlimit: 2; opacity: 1;"><g class="fills"/><g class="errorbars"/><g class="lines"/><g class="points"><path class="point" transform="translate(5.02,21.12)" d="M2,0A2,2 0 1,1 0,-2A2,2 0 0,1 2,0Z" style="opacity: 1; stroke-width: 0px; fill: rgb(11, 121, 230); fill-opacity: 1;"/></g><g class="text"/></g><g class="trace scatter trace4eaee8" style="stroke-miterlimit: 2; opacity: 1;"><g class="fills"/><g class="errorbars"/><g class="lines"/><g class="points"><path class="point" transform="translate(5.02,21.12)" d="M2,0A2,2 0 1,1 0,-2A2,2 0 0,1 2,0Z" style="opacity: 1; stroke-width: 0px; fill: rgb(11, 121, 230); fill-opacity: 1;"/></g><g class="text"/></g><g class="trace scatter trace1db362" style="stroke-miterlimit: 2; opacity: 1;"><g class="fills"/><g class="errorbars"/><g class="lines"/><g class="points"><path class="point" transform="translate(5.06,21.12)" d="M2,0A2,2 0 1,1 0,-2A2,2 0 0,1 2,0Z" style="opacity: 1; stroke-width: 0px; fill: rgb(11, 121, 230); fill-opacity: 1;"/></g><g class="text"/></g><g class="trace scatter trace8a1f96" style="stroke-miterlimit: 2; opacity: 1;"><g class="fills"/><g class="errorbars"/><g class="lines"/><g class="points"><path class="point" transform="translate(5.04,21.12)" d="M2,0A2,2 0 1,1 0,-2A2,2 0 0,1 2,0Z" style="opacity: 1; stroke-width: 0px; fill: rgb(11, 121, 230); fill-opacity: 1;"/></g><g class="text"/></g></g></g></g><path class="xlines-above crisp" d="M0,0" style="fill: none;"/><path class="ylines-above crisp" d="M0,0" style="fill: none;"/><g class="overlines-above"/><g class="xaxislayer-above"><g class="x3tick"><text text-anchor="middle" x="0" y="243" transform="translate(84.98,0)" style="font-family: 'Lucida Grande', 'Open Sans', verdana, arial, sans-serif; font-size: 9px; fill: rgb(0, 0, 0); fill-opacity: 0.5; white-space: pre; opacity: 1;">0%</text></g><g class="x3tick"><text text-anchor="middle" x="0" y="243" style="font-family: 'Lucida Grande', 'Open Sans', verdana, arial, sans-serif; font-size: 9px; fill: rgb(0, 0, 0); fill-opacity: 0.5; white-space: pre; opacity: 1;" transform="translate(283.98,0)">20%</text></g><g class="x3tick"><text text-anchor="middle" x="0" y="243" style="font-family: 'Lucida Grande', 'Open Sans', verdana, arial, sans-serif; font-size: 9px; fill: rgb(0, 0, 0); fill-opacity: 0.5; white-space: pre; opacity: 1;" transform="translate(482.99,0)">40%</text></g><g class="x3tick"><text text-anchor="middle" x="0" y="243" style="font-family: 'Lucida Grande', 'Open Sans', verdana, arial, sans-serif; font-size: 9px; fill: rgb(0, 0, 0); fill-opacity: 0.5; white-space: pre; opacity: 1;" transform="translate(681.99,0)">60%</text></g><g class="x3tick"><text text-anchor="middle" x="0" y="243" style="font-family: 'Lucida Grande', 'Open Sans', verdana, arial, sans-serif; font-size: 9px; fill: rgb(0, 0, 0); fill-opacity: 0.5; white-space: pre; opacity: 1;" transform="translate(881,0)">80%</text></g><g class="x3tick"><text text-anchor="middle" x="0" y="243" style="font-family: 'Lucida Grande', 'Open Sans', verdana, arial, sans-serif; font-size: 9px; fill: rgb(0, 0, 0); fill-opacity: 0.5; white-space: pre; opacity: 1;" transform="translate(1080,0)">100%</text></g></g><g class="yaxislayer-above"><g class="y3tick"><text text-anchor="end" x="79" y="3.15" transform="translate(0,211.88923076923078)" style="font-family: 'Lucida Grande', 'Open Sans', verdana, arial, sans-serif; font-size: 9px; fill: rgb(0, 0, 0); fill-opacity: 0.5; white-space: pre; opacity: 1;">% of all reads  </text></g></g><g class="overaxes-above"/></g></g><g class="polarlayer"/><g class="smithlayer"/><g class="ternarylayer"/><g class="geolayer"/><g class="funnelarealayer"/><g class="pielayer"/><g class="iciclelayer"/><g class="treemaplayer"/><g class="sunburstlayer"/><g class="glimages"/><defs id="topdefs-6bdb91"><g class="clips"/></defs><g class="layer-above"><g class="imagelayer"/><g class="shapelayer"/></g><g class="infolayer"><g class="g-gtitle"><text class="gtitle" x="550" y="25" text-anchor="middle" dy="0em" style="opacity: 1; font-family: 'Lucida Grande', 'Open Sans', verdana, arial, sans-serif; font-size: 20px; fill: rgb(42, 63, 95); fill-opacity: 1; white-space: pre;"><tspan class="line" dy="0em" x="550" y="25">FastQC: Top overrepresented sequences</tspan><tspan class="line" dy="1.3em" x="550" y="25"><tspan style="font-size:70%" dy="-0.6em">20 samples</tspan><tspan dy="0.42em"></tspan></tspan></text></g><g class="g-xtitle"/><g class="g-x2title"/><g class="g-x3title"/><g class="g-ytitle"/><g class="g-y2title"/><g class="g-y3title"/></g></svg>