<svg class="main-svg" xmlns="http://www.w3.org/2000/svg" xmlns:xlink="http://www.w3.org/1999/xlink" width="2200" height="1000" style="" viewBox="0 0 1100 500"><rect x="0" y="0" width="1100" height="500" style="fill: rgb(255, 255, 255); fill-opacity: 1;"/><defs id="defs-aad79a"><g class="clips"><clipPath id="clipaad79axyplot" class="plotclip"><rect width="1011" height="385"/></clipPath><clipPath class="axesclip" id="clipaad79ax"><rect x="60" y="0" width="1011" height="500"/></clipPath><clipPath class="axesclip" id="clipaad79ay"><rect x="0" y="50" width="1100" height="385"/></clipPath><clipPath class="axesclip" id="clipaad79axy"><rect x="60" y="50" width="1011" height="385"/></clipPath></g><g class="gradients"/><g class="patterns"/></defs><g class="bglayer"/><g class="layer-below"><g class="imagelayer"/><g class="shapelayer"><g class="shape-group" data-index="0" clip-path="url(#clipaad79ay)"><path data-index="0" fill-rule="evenodd" d="M60,176.59H1071V-487.90999999999997H60Z" style="opacity: 1; stroke: rgb(0, 0, 0); stroke-opacity: 0; fill: rgb(195, 230, 195); fill-opacity: 1; stroke-width: 0px;"/></g><g class="shape-group" data-index="1" clip-path="url(#clipaad79ay)"><path data-index="1" fill-rule="evenodd" d="M60,250.42H1071V176.59H60Z" style="opacity: 1; stroke: rgb(0, 0, 0); stroke-opacity: 0; fill: rgb(230, 220, 195); fill-opacity: 1; stroke-width: 0px;"/></g><g class="shape-group" data-index="2" clip-path="url(#clipaad79ay)"><path data-index="2" fill-rule="evenodd" d="M60,435H1071V250.42H60Z" style="opacity: 1; stroke: rgb(0, 0, 0); stroke-opacity: 0; fill: rgb(230, 195, 195); fill-opacity: 1; stroke-width: 0px;"/></g><g class="shape-group" data-index="3" clip-path="url(#clipaad79ay)"><path data-index="3" fill-rule="evenodd" d="M60,176.59H1071V-487.90999999999997H60Z" style="opacity: 1; stroke: rgb(0, 0, 0); stroke-opacity: 0; fill: rgb(195, 230, 195); fill-opacity: 1; stroke-width: 0px;"/></g><g class="shape-group" data-index="4" clip-path="url(#clipaad79ay)"><path data-index="4" fill-rule="evenodd" d="M60,250.42H1071V176.59H60Z" style="opacity: 1; stroke: rgb(0, 0, 0); stroke-opacity: 0; fill: rgb(230, 220, 195); fill-opacity: 1; stroke-width: 0px;"/></g><g class="shape-group" data-index="5" clip-path="url(#clipaad79ay)"><path data-index="5" fill-rule="evenodd" d="M60,435H1071V250.42H60Z" style="opacity: 1; stroke: rgb(0, 0, 0); stroke-opacity: 0; fill: rgb(230, 195, 195); fill-opacity: 1; stroke-width: 0px;"/></g></g></g><g class="cartesianlayer"><g class="subplot xy"><g class="layer-subplot"><g class="shapelayer"/><g class="imagelayer"/></g><g class="minor-gridlayer"><g class="x"/><g class="y"/></g><g class="gridlayer"><g class="x"><path class="xgrid crisp" transform="translate(312.75,0)" d="M0,50v385" style="stroke: rgb(0, 0, 0); stroke-opacity: 0.05; stroke-width: 1px;"/><path class="xgrid crisp" transform="translate(565.5,0)" d="M0,50v385" style="stroke: rgb(0, 0, 0); stroke-opacity: 0.05; stroke-width: 1px;"/><path class="xgrid crisp" transform="translate(818.25,0)" d="M0,50v385" style="stroke: rgb(0, 0, 0); stroke-opacity: 0.05; stroke-width: 1px;"/></g><g class="y"><path class="ygrid crisp" transform="translate(0,388.85)" d="M60,0h1011" style="stroke: rgb(0, 0, 0); stroke-opacity: 0.05; stroke-width: 1px;"/><path class="ygrid crisp" transform="translate(0,342.71)" d="M60,0h1011" style="stroke: rgb(0, 0, 0); stroke-opacity: 0.05; stroke-width: 1px;"/><path class="ygrid crisp" transform="translate(0,296.56)" d="M60,0h1011" style="stroke: rgb(0, 0, 0); stroke-opacity: 0.05; stroke-width: 1px;"/><path class="ygrid crisp" transform="translate(0,250.42)" d="M60,0h1011" style="stroke: rgb(0, 0, 0); stroke-opacity: 0.05; stroke-width: 1px;"/><path class="ygrid crisp" transform="translate(0,204.27)" d="M60,0h1011" style="stroke: rgb(0, 0, 0); stroke-opacity: 0.05; stroke-width: 1px;"/><path class="ygrid crisp" transform="translate(0,158.13)" d="M60,0h1011" style="stroke: rgb(0, 0, 0); stroke-opacity: 0.05; stroke-width: 1px;"/><path class="ygrid crisp" transform="translate(0,111.97999999999999)" d="M60,0h1011" style="stroke: rgb(0, 0, 0); stroke-opacity: 0.05; stroke-width: 1px;"/><path class="ygrid crisp" transform="translate(0,65.84)" d="M60,0h1011" style="stroke: rgb(0, 0, 0); stroke-opacity: 0.05; stroke-width: 1px;"/></g></g><g class="zerolinelayer"><path class="xzl zl crisp" transform="translate(60,0)" d="M0,50v385" style="stroke: rgb(0, 0, 0); stroke-opacity: 0.05; stroke-width: 2px;"/><path class="yzl zl crisp" transform="translate(0,435)" d="M60,0h1011" style="stroke: rgb(0, 0, 0); stroke-opacity: 0.05; stroke-width: 2px;"/></g><g class="layer-between"><g class="shapelayer"/><g class="imagelayer"/></g><path class="xlines-below"/><path class="ylines-below"/><g class="overlines-below"/><g class="xaxislayer-below"/><g class="yaxislayer-below"/><g class="overaxes-below"/><g class="overplot"><g class="xy" transform="translate(60,50)" clip-path="url(#clipaad79axyplot)"><g class="scatterlayer mlayer"><g class="trace scatter trace614598" style="stroke-miterlimit: 2; opacity: 1;"><g class="fills"/><g class="errorbars"/><g class="lines"><path class="js-line" d="M5.06,52.03L15.17,55.2L20.22,52.5L25.28,51.85L30.33,52.63L45.5,53.25L50.55,54.58L75.82,53.47L101.1,50.3L126.38,52.29L151.65,57.07L176.93,89.83L202.2,136.54L227.48,142.96L252.75,146.02L278.02,147.44L303.3,147.36L328.58,150.41L353.85,155.16L379.13,159.73L404.4,161.82L429.67,163.51L454.95,163.32L505.5,160.55L530.78,158.35L556.05,155.63L581.32,150.45L606.6,142.09L631.88,136.31L682.43,130.57L707.7,128.9L732.97,127.68L758.25,121.83" style="vector-effect: none; fill: none; stroke: rgb(92, 184, 92); stroke-opacity: 1; stroke-width: 2px; opacity: 1;"/></g><g class="points"/><g class="text"/></g><g class="trace scatter tracec3677a" style="stroke-miterlimit: 2; opacity: 1;"><g class="fills"/><g class="errorbars"/><g class="lines"><path class="js-line" d="M5.06,62.2L10.11,60.02L15.17,60.3L30.33,55.43L35.39,55.01L40.44,55.47L45.5,54.67L75.82,56.31L101.1,58.19L126.38,60.94L151.65,67.18L176.93,75.51L202.2,80.91L252.75,89.75L278.02,93.45L353.85,102.69L379.13,105.29L404.4,107.44L429.67,107.45L480.23,109.61L505.5,108.69L530.78,108.27L556.05,106.59L606.6,103.58L631.88,103.28L657.15,102.91L682.43,103.35L707.7,104.29L732.97,104.29L758.25,105.01" style="vector-effect: none; fill: none; stroke: rgb(92, 184, 92); stroke-opacity: 1; stroke-width: 2px; opacity: 1;"/></g><g class="points"/><g class="text"/></g><g class="trace scatter trace337265" style="stroke-miterlimit: 2; opacity: 1;"><g class="fills"/><g class="errorbars"/><g class="lines"><path class="js-line" d="M5.06,51.1L10.11,53.19L15.17,54.2L20.22,52.72L25.28,52.78L35.39,52.94L40.44,54.11L45.5,53.55L50.55,54.81L75.82,53.67L101.1,50.44L126.38,52.24L151.65,56.92L176.93,90.31L202.2,137.5L227.48,144.08L252.75,147.21L278.02,148.79L303.3,148.74L328.58,151.81L353.85,156.87L379.13,161.32L404.4,163.15L429.67,164.97L454.95,164.7L505.5,161.78L530.78,159.47L556.05,156.64L581.32,151.39L606.6,142.88L631.88,136.93L682.43,131.17L707.7,129.55L732.97,128.17L758.25,122.43" style="vector-effect: none; fill: none; stroke: rgb(92, 184, 92); stroke-opacity: 1; stroke-width: 2px; opacity: 1;"/></g><g class="points"/><g class="text"/></g><g class="trace scatter trace579cf9" style="stroke-miterlimit: 2; opacity: 1;"><g class="fills"/><g class="errorbars"/><g class="lines"><path class="js-line" d="M5.06,61.16L10.11,58.48L15.17,59.3L25.28,55.61L30.33,54.57L50.55,54.24L75.82,55.89L101.1,57.71L126.38,60.42L151.65,66.86L176.93,75.28L202.2,80.84L227.48,85.39L278.02,93.46L303.3,96.57L353.85,102.78L379.13,105.3L404.4,107.44L429.67,107.28L480.23,109.68L505.5,108.65L530.78,107.89L556.05,105.81L606.6,102.83L631.88,102.21L707.7,102.81L732.97,103.36L758.25,103.96" style="vector-effect: none; fill: none; stroke: rgb(92, 184, 92); stroke-opacity: 1; stroke-width: 2px; opacity: 1;"/></g><g class="points"/><g class="text"/></g><g class="trace scatter trace872f09" style="stroke-miterlimit: 2; opacity: 1;"><g class="fills"/><g class="errorbars"/><g class="lines"><path class="js-line" d="M5.06,52.38L15.17,55.5L20.22,52.81L25.28,51.97L30.33,52.67L40.44,52.55L45.5,54.01L50.55,54.66L75.82,53.62L101.1,50.51L126.38,52.28L151.65,55.56L176.93,79.2L202.2,134.25L227.48,147.44L252.75,151.29L278.02,152.53L303.3,151.96L328.58,153.37L379.13,160.31L404.4,162.58L429.67,165.68L454.95,167.37L480.23,169.09L505.5,171.83L530.78,173.36L556.05,172.72L581.32,168.77L606.6,161.26L631.88,155.08L657.15,151.79L682.43,148.79L707.7,146.72L732.97,145.18L758.25,140.22" style="vector-effect: none; fill: none; stroke: rgb(92, 184, 92); stroke-opacity: 1; stroke-width: 2px; opacity: 1;"/></g><g class="points"/><g class="text"/></g><g class="trace scatter trace0d1a05" style="stroke-miterlimit: 2; opacity: 1;"><g class="fills"/><g class="errorbars"/><g class="lines"><path class="js-line" d="M5.06,61L10.11,57.7L15.17,58.38L30.33,54.03L35.39,53.93L40.44,54.41L45.5,53.67L75.82,53.8L101.1,54.29L126.38,56.26L151.65,61.98L176.93,71.1L202.2,77.58L252.75,88.17L278.02,92.16L404.4,104.87L429.67,105.53L454.95,107.23L480.23,109.73L530.78,109.87L556.05,108.8L606.6,106.49L631.88,106.2L657.15,105.96L682.43,106.8L707.7,108L732.97,107.66L758.25,109.3" style="vector-effect: none; fill: none; stroke: rgb(92, 184, 92); stroke-opacity: 1; stroke-width: 2px; opacity: 1;"/></g><g class="points"/><g class="text"/></g><g class="trace scatter trace2439fc" style="stroke-miterlimit: 2; opacity: 1;"><g class="fills"/><g class="errorbars"/><g class="lines"><path class="js-line" d="M5.06,51.37L10.11,53.48L15.17,54.52L20.22,53.01L25.28,52.91L35.39,52.77L40.44,53.28L50.55,54.85L75.82,53.77L101.1,50.64L126.38,52.19L151.65,55.32L176.93,79.51L202.2,134.99L227.48,148.39L252.75,152.34L278.02,153.6L303.3,152.94L328.58,154.27L379.13,161.3L404.4,163.42L429.67,166.67L454.95,168.49L480.23,170.15L505.5,172.89L530.78,174.36L556.05,173.59L581.32,169.49L606.6,161.78L631.88,155.38L657.15,151.97L682.43,148.95L707.7,146.88L732.97,145.26L758.25,140.28" style="vector-effect: none; fill: none; stroke: rgb(92, 184, 92); stroke-opacity: 1; stroke-width: 2px; opacity: 1;"/></g><g class="points"/><g class="text"/></g><g class="trace scatter trace0cb5b4" style="stroke-miterlimit: 2; opacity: 1;"><g class="fills"/><g class="errorbars"/><g class="lines"><path class="js-line" d="M5.06,59.85L10.11,56.36L15.17,57.37L25.28,54.14L30.33,53.2L101.1,53.76L126.38,55.67L151.65,61.59L176.93,70.8L202.2,77.44L227.48,82.88L252.75,88.12L278.02,92.19L404.4,104.94L429.67,105.5L454.95,107.22L480.23,110.05L530.78,109.94L556.05,108.48L606.6,106.04L631.88,105.46L657.15,105.38L682.43,106.14L732.97,106.83L758.25,108.29" style="vector-effect: none; fill: none; stroke: rgb(92, 184, 92); stroke-opacity: 1; stroke-width: 2px; opacity: 1;"/></g><g class="points"/><g class="text"/></g><g class="trace scatter trace385379" style="stroke-miterlimit: 2; opacity: 1;"><g class="fills"/><g class="errorbars"/><g class="lines"><path class="js-line" d="M5.06,52.57L15.17,55.65L20.22,52.96L25.28,52.11L30.33,52.79L40.44,52.67L45.5,54.15L50.55,54.72L75.82,53.7L101.1,50.67L126.38,52.29L151.65,55.68L176.93,80.72L202.2,133.71L227.48,146.48L252.75,152.33L278.02,155.21L303.3,155.69L328.58,158.39L379.13,165.34L404.4,165.82L480.23,175.18L505.5,177.53L530.78,177.58L556.05,174.68L581.32,167.77L606.6,156.18L631.88,146.74L657.15,141.34L682.43,137.04L707.7,134.21L732.97,132.24L758.25,126.5" style="vector-effect: none; fill: none; stroke: rgb(92, 184, 92); stroke-opacity: 1; stroke-width: 2px; opacity: 1;"/></g><g class="points"/><g class="text"/></g><g class="trace scatter tracec26d6a" style="stroke-miterlimit: 2; opacity: 1;"><g class="fills"/><g class="errorbars"/><g class="lines"><path class="js-line" d="M5.06,61.41L10.11,59L15.17,59.68L30.33,55.1L35.39,54.9L40.44,55.35L45.5,54.59L50.55,54.45L75.82,54.83L101.1,55.64L126.38,58.13L151.65,65.71L176.93,76.95L202.2,84.43L227.48,90.63L252.75,96.43L278.02,100.56L353.85,107.66L379.13,109.82L404.4,111.7L429.67,111.16L480.23,113.94L505.5,112.07L530.78,110.52L556.05,107.31L581.32,103.91L606.6,101.63L657.15,99.39L682.43,99.45L732.97,99.31L758.25,100.96" style="vector-effect: none; fill: none; stroke: rgb(92, 184, 92); stroke-opacity: 1; stroke-width: 2px; opacity: 1;"/></g><g class="points"/><g class="text"/></g><g class="trace scatter trace69bfd9" style="stroke-miterlimit: 2; opacity: 1;"><g class="fills"/><g class="errorbars"/><g class="lines"><path class="js-line" d="M5.06,51.59L10.11,53.64L15.17,54.64L20.22,53.14L25.28,53.02L35.39,52.86L40.44,53.4L50.55,54.89L75.82,53.86L101.1,50.78L126.38,52.17L151.65,55.46L176.93,81.02L202.2,134.37L227.48,147.41L252.75,153.31L278.02,156.34L303.3,156.76L328.58,159.37L353.85,163.4L379.13,166.33L404.4,166.57L429.67,169.92L480.23,176.18L505.5,178.55L530.78,178.54L556.05,175.65L581.32,168.71L606.6,156.88L631.88,147.2L657.15,141.64L682.43,137.31L707.7,134.45L732.97,132.38L758.25,126.64" style="vector-effect: none; fill: none; stroke: rgb(92, 184, 92); stroke-opacity: 1; stroke-width: 2px; opacity: 1;"/></g><g class="points"/><g class="text"/></g><g class="trace scatter trace8a7b2d" style="stroke-miterlimit: 2; opacity: 1;"><g class="fills"/><g class="errorbars"/><g class="lines"><path class="js-line" d="M5.06,60.35L10.11,57.49L15.17,58.63L25.28,55.28L30.33,54.22L75.82,54.35L101.1,55.08L126.38,57.56L151.65,65.31L176.93,76.68L202.2,84.34L252.75,96.4L278.02,100.67L353.85,107.77L379.13,109.92L404.4,111.8L429.67,111.16L480.23,114.28L505.5,112.41L530.78,110.52L556.05,106.87L581.32,103.37L606.6,101.01L631.88,99.31L657.15,98.63L732.97,98.37L758.25,99.86" style="vector-effect: none; fill: none; stroke: rgb(92, 184, 92); stroke-opacity: 1; stroke-width: 2px; opacity: 1;"/></g><g class="points"/><g class="text"/></g><g class="trace scatter trace09d963" style="stroke-miterlimit: 2; opacity: 1;"><g class="fills"/><g class="errorbars"/><g class="lines"><path class="js-line" d="M5.06,52.4L15.17,55.5L20.22,52.71L25.28,52.01L30.33,52.56L45.5,53.57L50.55,54.86L75.82,54.1L101.1,50.19L126.38,51.95L151.65,55.95L176.93,93.12L202.2,141.08L227.48,146.2L252.75,147.77L303.3,147.49L328.58,149.38L379.13,155.63L404.4,155.89L429.67,157.2L454.95,160.06L480.23,163.62L505.5,165.37L530.78,165.8L556.05,165.27L581.32,161.44L606.6,154.46L631.88,150.58L657.15,149.06L707.7,148.31L732.97,148.6L758.25,145.98" style="vector-effect: none; fill: none; stroke: rgb(92, 184, 92); stroke-opacity: 1; stroke-width: 2px; opacity: 1;"/></g><g class="points"/><g class="text"/></g><g class="trace scatter tracea2e637" style="stroke-miterlimit: 2; opacity: 1;"><g class="fills"/><g class="errorbars"/><g class="lines"><path class="js-line" d="M5.06,61.71L10.11,58.75L15.17,58.56L25.28,55.15L30.33,54.46L50.55,54.11L75.82,54.5L101.1,55.08L126.38,57.26L151.65,63.02L176.93,70.03L227.48,77.82L252.75,81.18L278.02,83.64L303.3,85.24L353.85,89.46L379.13,92.17L429.67,95.81L454.95,98.95L480.23,101.72L505.5,102.79L530.78,104.73L556.05,105.28L606.6,107.64L631.88,109.23L682.43,112.4L707.7,114.32L732.97,115.3L758.25,117.82" style="vector-effect: none; fill: none; stroke: rgb(92, 184, 92); stroke-opacity: 1; stroke-width: 2px; opacity: 1;"/></g><g class="points"/><g class="text"/></g><g class="trace scatter tracec97b5b" style="stroke-miterlimit: 2; opacity: 1;"><g class="fills"/><g class="errorbars"/><g class="lines"><path class="js-line" d="M5.06,51.4L10.11,53.5L15.17,54.48L20.22,52.86L25.28,52.95L30.33,52.5L35.39,52.92L40.44,53.93L45.5,53.86L50.55,55.05L75.82,54.3L101.1,50.31L126.38,51.83L151.65,55.74L176.93,93.59L202.2,142L227.48,147.24L252.75,148.79L278.02,149.04L303.3,148.48L328.58,150.25L379.13,156.59L404.4,156.68L429.67,158.18L454.95,161.07L480.23,164.65L505.5,166.37L530.78,166.73L556.05,166.2L581.32,162.33L606.6,155.29L631.88,151.24L657.15,149.59L707.7,148.93L732.97,149.03L758.25,146.47" style="vector-effect: none; fill: none; stroke: rgb(92, 184, 92); stroke-opacity: 1; stroke-width: 2px; opacity: 1;"/></g><g class="points"/><g class="text"/></g><g class="trace scatter trace41e19b" style="stroke-miterlimit: 2; opacity: 1;"><g class="fills"/><g class="errorbars"/><g class="lines"><path class="js-line" d="M5.06,60.61L10.11,57.36L15.17,57.6L25.28,54.42L30.33,53.67L75.82,54.1L101.1,54.62L126.38,56.8L151.65,62.74L176.93,69.85L202.2,74.14L252.75,81.14L278.02,83.7L328.58,87.47L353.85,89.44L404.4,94.27L429.67,95.61L480.23,101.92L505.5,102.99L530.78,104.66L556.05,104.79L631.88,108.58L657.15,110.23L707.7,113.31L732.97,114.86L758.25,117.25" style="vector-effect: none; fill: none; stroke: rgb(92, 184, 92); stroke-opacity: 1; stroke-width: 2px; opacity: 1;"/></g><g class="points"/><g class="text"/></g><g class="trace scatter tracea56b35" style="stroke-miterlimit: 2; opacity: 1;"><g class="fills"/><g class="errorbars"/><g class="lines"><path class="js-line" d="M5.06,52.4L15.17,55.5L20.22,52.71L25.28,51.98L30.33,52.59L45.5,53.61L50.55,55.35L75.82,54.51L101.1,50.52L126.38,52.61L151.65,56.45L176.93,82.19L202.2,134.88L227.48,146.19L252.75,149.98L278.02,150.95L303.3,150.47L328.58,152L353.85,155.36L379.13,159.13L404.4,162.11L429.67,165.54L454.95,167.12L505.5,171.96L530.78,172.55L556.05,171.74L581.32,168.08L606.6,160.45L631.88,154.78L657.15,152.02L682.43,150.23L732.97,149.09L758.25,145.62" style="vector-effect: none; fill: none; stroke: rgb(92, 184, 92); stroke-opacity: 1; stroke-width: 2px; opacity: 1;"/></g><g class="points"/><g class="text"/></g><g class="trace scatter traceb1be43" style="stroke-miterlimit: 2; opacity: 1;"><g class="fills"/><g class="errorbars"/><g class="lines"><path class="js-line" d="M5.06,61.76L10.11,58.53L15.17,58.98L30.33,54.52L35.39,54.41L40.44,54.98L45.5,54.31L75.82,54.58L101.1,55.16L126.38,57.35L151.65,63.48L176.93,72.56L202.2,78.58L252.75,88.25L278.02,91.51L379.13,100.13L404.4,102.6L429.67,103.37L454.95,105.84L480.23,108.42L505.5,108.58L530.78,109.21L556.05,108.45L606.6,108.26L631.88,108.86L657.15,109.67L682.43,111.54L707.7,113.72L732.97,114.68L758.25,117.12" style="vector-effect: none; fill: none; stroke: rgb(92, 184, 92); stroke-opacity: 1; stroke-width: 2px; opacity: 1;"/></g><g class="points"/><g class="text"/></g><g class="trace scatter trace91f5fd" style="stroke-miterlimit: 2; opacity: 1;"><g class="fills"/><g class="errorbars"/><g class="lines"><path class="js-line" d="M5.06,51.41L10.11,53.45L15.17,54.5L20.22,52.9L25.28,52.97L30.33,52.55L35.39,52.91L40.44,54L45.5,53.93L50.55,55.59L75.82,54.73L101.1,50.66L126.38,52.51L151.65,56.24L176.93,82.58L202.2,135.66L227.48,147.24L252.75,151.08L278.02,152.13L303.3,151.54L328.58,152.92L429.67,166.63L454.95,168.27L505.5,173.02L530.78,173.47L556.05,172.54L581.32,168.77L606.6,160.86L631.88,154.98L657.15,152.09L682.43,150.32L732.97,149.17L758.25,145.76" style="vector-effect: none; fill: none; stroke: rgb(92, 184, 92); stroke-opacity: 1; stroke-width: 2px; opacity: 1;"/></g><g class="points"/><g class="text"/></g><g class="trace scatter traceb3298c" style="stroke-miterlimit: 2; opacity: 1;"><g class="fills"/><g class="errorbars"/><g class="lines"><path class="js-line" d="M5.06,60.65L10.11,57.17L15.17,58.03L25.28,54.75L30.33,53.77L75.82,54.19L101.1,54.72L126.38,56.86L151.65,63.17L176.93,72.43L202.2,78.64L252.75,88.37L278.02,91.7L353.85,97.77L379.13,100.27L404.4,102.7L429.67,103.34L480.23,108.71L505.5,108.86L530.78,109.17L556.05,108.04L606.6,107.72L631.88,108.08L657.15,109.05L682.43,110.88L732.97,113.99L758.25,116.22" style="vector-effect: none; fill: none; stroke: rgb(92, 184, 92); stroke-opacity: 1; stroke-width: 2px; opacity: 1;"/></g><g class="points"/><g class="text"/></g><g class="trace scatter traced946cb" style="stroke-miterlimit: 2; opacity: 1;"><g class="fills"/><g class="errorbars"/><g class="lines"><path class="js-line" d="M5.06,53.17L10.11,54.1L15.17,55.89L20.22,53.25L25.28,52.43L30.33,52.76L35.39,52.32L50.55,55.38L75.82,54.26L101.1,50.82L126.38,52.79L151.65,55.97L176.93,78.39L202.2,134.53L227.48,148.94L252.75,152.53L278.02,153.93L353.85,156.56L379.13,157.86L480.23,161.29L505.5,162.76L556.05,164.84L581.32,165.39L682.43,165.32L707.7,165.43L758.25,165.81" style="vector-effect: none; fill: none; stroke: rgb(92, 184, 92); stroke-opacity: 1; stroke-width: 2px; opacity: 1;"/></g><g class="points"/><g class="text"/></g><g class="trace scatter tracee914a8" style="stroke-miterlimit: 2; opacity: 1;"><g class="fills"/><g class="errorbars"/><g class="lines"><path class="js-line" d="M5.06,63.67L10.11,59.77L15.17,59.6L25.28,56.84L30.33,56.24L40.44,56.79L45.5,55.96L75.82,56.27L101.1,56.37L151.65,59.01L176.93,61.19L252.75,66.03L278.02,67.52L480.23,77.13L505.5,78.78L682.43,90.56L707.7,93.28L732.97,95.15L758.25,101.59" style="vector-effect: none; fill: none; stroke: rgb(92, 184, 92); stroke-opacity: 1; stroke-width: 2px; opacity: 1;"/></g><g class="points"/><g class="text"/></g><g class="trace scatter trace35ea32" style="stroke-miterlimit: 2; opacity: 1;"><g class="fills"/><g class="errorbars"/><g class="lines"><path class="js-line" d="M5.06,52.19L10.11,53.98L15.17,54.95L20.22,53.41L25.28,53.39L35.39,52.23L40.44,53.96L50.55,55.57L75.82,54.45L101.1,50.98L126.38,52.72L151.65,55.79L176.93,78.67L202.2,135.15L227.48,149.62L252.75,153.32L278.02,154.73L328.58,156.1L353.85,157.35L404.4,159.06L429.67,159.78L480.23,161.88L505.5,163.27L556.05,165.34L581.32,165.72L682.43,165.71L707.7,165.91L758.25,166.15" style="vector-effect: none; fill: none; stroke: rgb(92, 184, 92); stroke-opacity: 1; stroke-width: 2px; opacity: 1;"/></g><g class="points"/><g class="text"/></g><g class="trace scatter tracefaf955" style="stroke-miterlimit: 2; opacity: 1;"><g class="fills"/><g class="errorbars"/><g class="lines"><path class="js-line" d="M5.06,62.39L10.11,58.25L15.17,58.5L25.28,56.11L30.33,55.43L50.55,55.39L75.82,55.77L101.1,55.76L126.38,56.89L176.93,60.69L202.2,62.68L353.85,70.74L379.13,71.91L480.23,77.09L505.5,78.76L581.32,83.28L606.6,85.06L657.15,88.66L682.43,90.77L707.7,92.49L732.97,95.17L758.25,101.43" style="vector-effect: none; fill: none; stroke: rgb(92, 184, 92); stroke-opacity: 1; stroke-width: 2px; opacity: 1;"/></g><g class="points"/><g class="text"/></g><g class="trace scatter trace33d310" style="stroke-miterlimit: 2; opacity: 1;"><g class="fills"/><g class="errorbars"/><g class="lines"><path class="js-line" d="M5.06,34.77L10.11,27.77L15.17,26.71L25.28,24.48L30.33,25.4L35.39,26.28L40.44,24.7L45.5,22.61L50.55,24.47L60.66,24.12L70.77,24.61L80.88,21.57L90.99,19.37L111.21,18.48L121.32,18.51L131.43,21.76L141.54,21.85L161.76,23.09L171.87,25.86L181.98,35.85L192.09,57.83L202.2,80.45L212.31,93.53L222.42,100.49L232.53,104.58L272.97,122.02L283.08,125.36L313.41,134.92L323.52,139.06L343.74,144.88L353.85,146.97L384.18,150.68L394.29,151.54L414.51,152.88L424.62,154.01L434.73,155.08L444.84,154.82L454.95,153.8L465.06,151.97L485.28,150.17L495.39,150.75L505.5,151.68" style="vector-effect: none; fill: none; stroke: rgb(240, 173, 78); stroke-opacity: 1; stroke-width: 2px; opacity: 1;"/></g><g class="points"/><g class="text"/></g><g class="trace scatter trace62e809" style="stroke-miterlimit: 2; opacity: 1;"><g class="fills"/><g class="errorbars"/><g class="lines"><path class="js-line" d="M5.06,31L10.11,25.82L15.17,23.42L30.33,23.62L35.39,22.67L50.55,21.59L75.82,22.4L101.1,23.03L126.38,26.63L151.65,33.19L176.93,41.98L252.75,60.52L278.02,65.26L353.85,76.55L379.13,79.04L404.4,81.27L429.67,84.85L454.95,87.28L480.23,90.9L505.5,89.31L530.78,89.77L581.32,83.52L606.6,80.67L682.43,69.8L707.7,67.14L732.97,65.21L758.25,64.37L783.53,63.52L808.8,63.99L884.63,68.54L909.9,70.46L960.45,74.61L985.72,76.86L1011,74.29" style="vector-effect: none; fill: none; stroke: rgb(92, 184, 92); stroke-opacity: 1; stroke-width: 2px; opacity: 1;"/></g><g class="points"/><g class="text"/></g><g class="trace scatter trace70779e" style="stroke-miterlimit: 2; opacity: 1;"><g class="fills"/><g class="errorbars"/><g class="lines"><path class="js-line" d="M5.06,35.54L10.11,28.05L15.17,26.92L25.28,24.75L30.33,25.66L35.39,26.16L40.44,24.75L45.5,23.61L50.55,24.35L70.77,25.08L80.88,22.84L90.99,19.77L101.1,18.97L121.32,18.63L131.43,21.84L151.65,22.29L161.76,23.17L171.87,26.61L181.98,39.26L202.2,94.52L212.31,110.09L222.42,118.09L232.53,122.83L252.75,132.82L262.86,138.11L272.97,143.51L283.08,148.04L303.3,155.59L313.41,158.73L333.63,164.26L343.74,166.16L434.73,179.42L444.84,180.26L495.39,184.93L505.5,187.81" style="vector-effect: none; fill: none; stroke: rgb(240, 173, 78); stroke-opacity: 1; stroke-width: 2px; opacity: 1;"/></g><g class="points"/><g class="text"/></g><g class="trace scatter traceed8e3f" style="stroke-miterlimit: 2; opacity: 1;"><g class="fills"/><g class="errorbars"/><g class="lines"><path class="js-line" d="M5.06,32.08L10.11,26.04L15.17,23.77L30.33,23.6L35.39,22.77L50.55,21.64L75.82,22.2L101.1,22.73L126.38,26.05L151.65,31.23L176.93,37.96L252.75,51.6L278.02,54.99L379.13,65.47L404.4,67.65L429.67,70.28L454.95,71.75L480.23,74.94L505.5,74.11L530.78,74.73L556.05,73.31L657.15,65.95L682.43,63.77L732.97,61.68L758.25,61.93L783.53,62.18L808.8,63.52L884.63,69.82L909.9,72.2L960.45,77.3L985.72,80.07L1011,78.88" style="vector-effect: none; fill: none; stroke: rgb(92, 184, 92); stroke-opacity: 1; stroke-width: 2px; opacity: 1;"/></g><g class="points"/><g class="text"/></g><g class="trace scatter trace9303fb" style="stroke-miterlimit: 2; opacity: 1;"><g class="fills"/><g class="errorbars"/><g class="lines"><path class="js-line" d="M5.06,35.09L10.11,27.46L15.17,26.92L20.22,25.27L25.28,24.89L35.39,26.59L40.44,25.05L45.5,22.81L50.55,25.2L60.66,24.57L70.77,24.89L90.99,19.74L101.1,19.11L121.32,18.86L131.43,22L151.65,22.6L161.76,23.62L171.87,27.24L181.98,40.19L192.09,66.21L202.2,88.15L212.31,97.36L222.42,101.56L232.53,104.01L242.64,107.25L333.63,138.32L343.74,141.74L363.96,146.82L374.07,148.2L404.4,151.47L414.51,151.91L465.06,153.96L475.17,154.52L495.39,154.56L505.5,158.65" style="vector-effect: none; fill: none; stroke: rgb(240, 173, 78); stroke-opacity: 1; stroke-width: 2px; opacity: 1;"/></g><g class="points"/><g class="text"/></g><g class="trace scatter trace40e0fc" style="stroke-miterlimit: 2; opacity: 1;"><g class="fills"/><g class="errorbars"/><g class="lines"><path class="js-line" d="M5.06,33.63L10.11,25.4L15.17,23.75L30.33,23.78L35.39,22.63L40.44,22.24L45.5,22.62L50.55,21.85L75.82,22.14L101.1,22.35L126.38,25.06L176.93,26.67L202.2,27L379.13,32.01L404.4,32.58L429.67,34.28L454.95,33.59L480.23,35L505.5,35.2L556.05,36.1L581.32,37.46L631.88,39.68L657.15,41.24L707.7,45.43L732.97,47.89L808.8,58L834.08,62.31L909.9,75.45L935.18,79.63L985.72,88.61L1011,90.13" style="vector-effect: none; fill: none; stroke: rgb(92, 184, 92); stroke-opacity: 1; stroke-width: 2px; opacity: 1;"/></g><g class="points"/><g class="text"/></g><g class="trace scatter trace03826e" style="stroke-miterlimit: 2; opacity: 1;"><g class="fills"/><g class="errorbars"/><g class="lines"><path class="js-line" d="M5.06,36.31L10.11,27.92L15.17,27.28L20.22,25.65L25.28,25.24L35.39,26.55L40.44,25.32L45.5,24.39L50.55,25.11L70.77,25.5L80.88,23L90.99,20.11L101.1,19.3L121.32,18.99L131.43,22.29L151.65,22.78L161.76,23.78L171.87,27.56L181.98,41.4L192.09,69.49L202.2,94.46L212.31,106.17L222.42,112.19L242.64,119.53L252.75,123.69L303.3,143.24L313.41,146.52L343.74,155.6L353.85,158.13L374.07,161.64L384.18,163L394.29,164.36L404.4,164.94L454.95,167.36L465.06,167.56L485.28,167.77L495.39,167.91L505.5,170.43" style="vector-effect: none; fill: none; stroke: rgb(240, 173, 78); stroke-opacity: 1; stroke-width: 2px; opacity: 1;"/></g><g class="points"/><g class="text"/></g><g class="trace scatter trace4483c5" style="stroke-miterlimit: 2; opacity: 1;"><g class="fills"/><g class="errorbars"/><g class="lines"><path class="js-line" d="M5.06,32.91L10.11,25.4L15.17,24.01L30.33,24.23L35.39,23.09L50.55,22.18L75.82,22.45L101.1,22.42L126.38,25.15L151.65,26.24L176.93,26.56L252.75,27.62L278.02,28.49L379.13,30.38L404.4,31.03L429.67,32.62L454.95,31.84L480.23,33.16L505.5,33.23L556.05,33.82L581.32,34.97L631.88,36.44L657.15,37.61L732.97,42.58L758.25,45.15L808.8,50.75L834.08,54.32L909.9,65.74L935.18,69.61L985.72,78.32L1011,80.41" style="vector-effect: none; fill: none; stroke: rgb(92, 184, 92); stroke-opacity: 1; stroke-width: 2px; opacity: 1;"/></g><g class="points"/><g class="text"/></g><g class="trace scatter trace4dd53a" style="stroke-miterlimit: 2; opacity: 1;"><g class="fills"/><g class="errorbars"/><g class="lines"><path class="js-line" d="M5.06,34.22L10.11,27.79L15.17,27.25L25.28,25.48L30.33,26.2L35.39,26.42L40.44,25.08L45.5,23.33L50.55,24.91L70.77,24.78L80.88,21.07L101.1,19.24L111.21,18.91L121.32,18.93L131.43,22.36L151.65,22.88L161.76,23.73L171.87,26.91L181.98,39.67L192.09,68.29L202.2,93.5L212.31,103.58L222.42,107.93L242.64,113.1L252.75,116.51L272.97,123.63L283.08,127.36L303.3,134.72L313.41,138.02L333.63,144.66L343.74,147.7L363.96,152.68L374.07,154.46L404.4,158.6L414.51,159.52L475.17,162.02L485.28,162.02L495.39,162.48L505.5,166.03" style="vector-effect: none; fill: none; stroke: rgb(240, 173, 78); stroke-opacity: 1; stroke-width: 2px; opacity: 1;"/></g><g class="points"/><g class="text"/></g><g class="trace scatter tracee39039" style="stroke-miterlimit: 2; opacity: 1;"><g class="fills"/><g class="errorbars"/><g class="lines"><path class="js-line" d="M5.06,32.09L10.11,24.83L15.17,23.28L30.33,23.57L35.39,22.45L50.55,21.72L75.82,22.12L101.1,22.38L126.38,25.14L176.93,27.01L202.2,27.51L278.02,30L303.3,30.55L379.13,32.62L404.4,33.36L429.67,34.58L454.95,33.98L480.23,35.06L505.5,35.04L581.32,36.26L606.6,36.72L657.15,38.87L682.43,40.45L732.97,44.71L758.25,47.82L783.53,50.92L808.8,54.84L884.63,69.07L909.9,74.19L985.72,89.75L1011,90.23" style="vector-effect: none; fill: none; stroke: rgb(92, 184, 92); stroke-opacity: 1; stroke-width: 2px; opacity: 1;"/></g><g class="points"/><g class="text"/></g><g class="trace scatter traceb8549f" style="stroke-miterlimit: 2; opacity: 1;"><g class="fills"/><g class="errorbars"/><g class="lines"><path class="js-line" d="M5.06,34.05L10.11,27.61L15.17,26.8L25.28,24.81L30.33,25.5L35.39,25.89L40.44,24.6L45.5,23.21L50.55,23.94L70.77,25.15L80.88,21.6L90.99,19.56L101.1,19.04L121.32,18.99L131.43,22.13L151.65,23.39L161.76,24.72L171.87,28.7L181.98,42.48L192.09,71.13L202.2,94.14L212.31,102.35L222.42,105.91L242.64,110.63L252.75,114.14L272.97,122.3L283.08,126.6L303.3,135.07L313.41,139.98L323.52,145.02L333.63,149.06L353.85,158.57L363.96,162.2L384.18,167.89L394.29,169.59L414.51,171.29L424.62,171.72L444.84,172.07L454.95,171.72L495.39,169.45L505.5,172.03" style="vector-effect: none; fill: none; stroke: rgb(240, 173, 78); stroke-opacity: 1; stroke-width: 2px; opacity: 1;"/></g><g class="points"/><g class="text"/></g><g class="trace scatter trace07ffb4" style="stroke-miterlimit: 2; opacity: 1;"><g class="fills"/><g class="errorbars"/><g class="lines"><path class="js-line" d="M5.06,31.8L10.11,24.32L15.17,22.44L30.33,22.57L35.39,21.48L50.55,20.83L75.82,21.76L101.1,23.4L126.38,26.8L176.93,29.94L202.2,30.57L303.3,35.06L328.58,36.97L379.13,39.95L404.4,40.26L429.67,40.39L454.95,38.93L480.23,39.08L505.5,38.11L556.05,37.05L581.32,37.02L631.88,37.39L657.15,38.25L707.7,41.18L732.97,42.98L808.8,51.26L834.08,55L985.72,79L1011,78.19" style="vector-effect: none; fill: none; stroke: rgb(92, 184, 92); stroke-opacity: 1; stroke-width: 2px; opacity: 1;"/></g><g class="points"/><g class="text"/></g><g class="trace scatter trace463c3c" style="stroke-miterlimit: 2; opacity: 1;"><g class="fills"/><g class="errorbars"/><g class="lines"><path class="js-line" d="M5.06,37.75L10.11,28.79L15.17,28.06L20.22,26.37L25.28,26.03L35.39,27.4L40.44,26.62L45.5,25.08L50.55,25.82L60.66,26.37L70.77,26.15L80.88,22.91L90.99,20.51L111.21,19.22L121.32,19.22L131.43,23.04L141.54,23.05L161.76,24.22L171.87,27.06L181.98,38L192.09,62.91L202.2,88.8L212.31,102.78L222.42,109.71L232.53,113.69L303.3,142.2L313.41,145.58L343.74,154.26L353.85,156.8L374.07,160L384.18,161.09L404.4,163.21L414.51,163.71L434.73,165.16L444.84,165.69L485.28,168.36L495.39,168.67L505.5,171.75" style="vector-effect: none; fill: none; stroke: rgb(240, 173, 78); stroke-opacity: 1; stroke-width: 2px; opacity: 1;"/></g><g class="points"/><g class="text"/></g><g class="trace scatter trace06cda4" style="stroke-miterlimit: 2; opacity: 1;"><g class="fills"/><g class="errorbars"/><g class="lines"><path class="js-line" d="M5.06,33.54L10.11,25.55L15.17,24.05L30.33,24.28L35.39,23.48L50.55,22.74L75.82,23.07L101.1,23.3L126.38,26.52L176.93,28.72L202.2,29.61L278.02,33.23L303.3,34.02L404.4,37.75L429.67,40L454.95,40.14L480.23,42.32L556.05,44.74L581.32,46.62L631.88,49.62L657.15,51.74L707.7,56.74L732.97,59.47L808.8,70.09L834.08,74.36L909.9,86.86L935.18,90.81L985.72,98.94L1011,100.13" style="vector-effect: none; fill: none; stroke: rgb(92, 184, 92); stroke-opacity: 1; stroke-width: 2px; opacity: 1;"/></g><g class="points"/><g class="text"/></g><g class="trace scatter trace83f073" style="stroke-miterlimit: 2; opacity: 1;"><g class="fills"/><g class="errorbars"/><g class="lines"><path class="js-line" d="M5.06,35.35L10.11,28.45L15.17,26.78L25.28,24.56L30.33,25.19L35.39,25.98L40.44,24.87L45.5,22.9L50.55,23.7L70.77,24.33L80.88,21.67L90.99,19.39L101.1,18.63L121.32,18.37L131.43,21.51L151.65,22.22L161.76,23.21L171.87,26.35L181.98,37.55L192.09,63.32L202.2,91.4L212.31,107.72L222.42,116.67L252.75,134.79L262.86,141.02L272.97,146.99L283.08,151.41L303.3,158.55L313.41,161.42L323.52,164.39L333.63,166.47L363.96,171.25L374.07,173.38L424.62,182.01L434.73,184.56L454.95,187.35L465.06,188.27L485.28,192.18L495.39,194.56L505.5,198.42" style="vector-effect: none; fill: none; stroke: rgb(217, 83, 79); stroke-opacity: 1; stroke-width: 2px; opacity: 1;"/></g><g class="points"/><g class="text"/></g><g class="trace scatter trace292a98" style="stroke-miterlimit: 2; opacity: 1;"><g class="fills"/><g class="errorbars"/><g class="lines"><path class="js-line" d="M5.06,31.16L15.17,23.15L20.22,23.41L30.33,23.63L35.39,22.44L50.55,21.19L75.82,22.01L101.1,22.87L126.38,26.7L151.65,35.55L176.93,49.08L252.75,81.32L278.02,89.35L303.3,96.29L328.58,102.08L429.67,123.78L454.95,128.41L480.23,134.57L505.5,131.71L530.78,133L556.05,129.31L631.88,111.62L657.15,104.23L682.43,96.05L707.7,89.07L732.97,83.05L758.25,78.17L783.53,73.66L808.8,70.81L884.63,66.73L909.9,66.01L960.45,64.88L985.72,64.58L1011,61.78" style="vector-effect: none; fill: none; stroke: rgb(240, 173, 78); stroke-opacity: 1; stroke-width: 2px; opacity: 1;"/></g><g class="points"/><g class="text"/></g><g class="trace scatter trace89596b" style="stroke-miterlimit: 2; opacity: 1;"><g class="fills"/><g class="errorbars"/><g class="lines"><path class="js-line" d="M5.06,36.6L10.11,28.14L15.17,27.46L20.22,25.77L25.28,25.34L35.39,26.89L40.44,25.48L45.5,24.03L50.55,24.98L70.77,25.87L80.88,23.25L90.99,19.98L101.1,19.18L121.32,18.91L131.43,22.02L151.65,22.59L161.76,23.51L171.87,26.61L181.98,38.22L202.2,89.32L212.31,101.92L222.42,107.95L232.53,111.31L262.86,123.05L272.97,127.36L313.41,141.8L323.52,144.98L353.85,153.3L363.96,155.24L394.29,159.58L404.4,160.26L444.84,162.93L454.95,163.82L485.28,165.32L495.39,165.63L505.5,169.09" style="vector-effect: none; fill: none; stroke: rgb(240, 173, 78); stroke-opacity: 1; stroke-width: 2px; opacity: 1;"/></g><g class="points"/><g class="text"/></g><g class="trace scatter trace44629f" style="stroke-miterlimit: 2; opacity: 1;"><g class="fills"/><g class="errorbars"/><g class="lines"><path class="js-line" d="M5.06,32.94L10.11,24.66L15.17,23.2L25.28,23.33L30.33,23.39L40.44,22.15L45.5,22.35L50.55,21.77L75.82,22.12L101.1,22.6L126.38,25.53L176.93,27.95L202.2,28.96L278.02,32.7L303.3,33.59L404.4,37.75L429.67,40.01L454.95,40.1L480.23,42.25L556.05,44.61L581.32,46.38L631.88,49.42L657.15,51.55L707.7,56.68L732.97,59.5L808.8,70.44L834.08,74.9L909.9,87.69L935.18,91.67L985.72,99.81L1011,100.13" style="vector-effect: none; fill: none; stroke: rgb(92, 184, 92); stroke-opacity: 1; stroke-width: 2px; opacity: 1;"/></g><g class="points"/><g class="text"/></g><g class="trace scatter trace63d470" style="stroke-miterlimit: 2; opacity: 1;"><g class="fills"/><g class="errorbars"/><g class="lines"><path class="js-line" d="M5.06,36.1L10.11,28.8L15.17,27.26L25.28,24.97L30.33,25.73L35.39,26.89L40.44,25.09L45.5,23.32L50.55,24.13L70.77,25.12L80.88,22.66L90.99,19.69L101.1,19.04L121.32,18.88L131.43,22.88L151.65,24.08L161.76,25.28L171.87,28.56L181.98,39.95L202.2,91.53L212.31,105.63L222.42,113.19L232.53,117.98L272.97,139.05L283.08,142.84L323.52,156.6L333.63,159.06L374.07,166.68L384.18,168.89L394.29,170.74L404.4,171.68L424.62,174.93L434.73,177.11L444.84,177.78L454.95,177.37L465.06,176.5L475.17,177.53L485.28,179.89L495.39,183.45L505.5,189.48" style="vector-effect: none; fill: none; stroke: rgb(240, 173, 78); stroke-opacity: 1; stroke-width: 2px; opacity: 1;"/></g><g class="points"/><g class="text"/></g><g class="trace scatter trace3b0853" style="stroke-miterlimit: 2; opacity: 1;"><g class="fills"/><g class="errorbars"/><g class="lines"><path class="js-line" d="M5.06,32.44L10.11,27.29L15.17,24.01L30.33,24.18L35.39,23.16L50.55,21.85L75.82,22.87L101.1,23.98L126.38,28.78L151.65,39.42L176.93,54.25L227.48,76.56L252.75,86.56L278.02,94.26L303.3,101.03L404.4,123.31L429.67,128.05L454.95,132.95L480.23,138.63L505.5,134.98L530.78,135.78L556.05,130.99L581.32,123.94L606.6,117.93L631.88,110.66L682.43,93.69L707.7,86.35L732.97,80.14L758.25,75.22L783.53,70.69L808.8,67.91L884.63,64.27L909.9,63.65L960.45,62.75L985.72,62.54L1011,59.45" style="vector-effect: none; fill: none; stroke: rgb(240, 173, 78); stroke-opacity: 1; stroke-width: 2px; opacity: 1;"/></g><g class="points"/><g class="text"/></g><g class="trace scatter trace825107" style="stroke-miterlimit: 2; opacity: 1;"><g class="fills"/><g class="errorbars"/><g class="lines"><path class="js-line" d="M5.06,37.93L10.11,28.69L15.17,28.12L20.22,26.38L25.28,26.08L30.33,26.99L35.39,28.68L45.5,25.1L50.55,26.53L70.77,25.96L80.88,23L90.99,20.71L101.1,19.98L121.32,19.8L131.43,24.61L151.65,26.15L161.76,27.71L171.87,32.02L181.98,46.14L192.09,74.45L202.2,98.04L212.31,107.03L222.42,110.57L242.64,115.61L252.75,118.5L272.97,124.7L283.08,127.87L303.3,134.5L313.41,137.62L343.74,145.67L353.85,147.76L374.07,150.24L384.18,151.37L434.73,158.74L444.84,159.33L465.06,160.34L475.17,160.54L495.39,159.49L505.5,161.23" style="vector-effect: none; fill: none; stroke: rgb(240, 173, 78); stroke-opacity: 1; stroke-width: 2px; opacity: 1;"/></g><g class="points"/><g class="text"/></g><g class="trace scatter trace09cb67" style="stroke-miterlimit: 2; opacity: 1;"><g class="fills"/><g class="errorbars"/><g class="lines"><path class="js-line" d="M5.06,34.11L10.11,26.59L15.17,25.05L30.33,25.18L35.39,24.34L50.55,23.62L75.82,24.79L101.1,25.88L126.38,30.11L151.65,32L176.93,32.6L252.75,33.7L278.02,34.63L404.4,38.61L429.67,40.46L454.95,39.13L480.23,39.51L556.05,37.98L581.32,38.4L631.88,38.93L657.15,39.78L707.7,42.41L732.97,44.05L808.8,51.48L834.08,54.92L935.18,70.14L960.45,74.72L985.72,79.2L1011,80.47" style="vector-effect: none; fill: none; stroke: rgb(92, 184, 92); stroke-opacity: 1; stroke-width: 2px; opacity: 1;"/></g><g class="points"/><g class="text"/></g><g class="trace scatter trace6701f6" style="stroke-miterlimit: 2; opacity: 1;"><g class="fills"/><g class="errorbars"/><g class="lines"><path class="js-line" d="M5.06,35.94L10.11,28.16L15.17,27.27L20.22,25.7L25.28,25.04L35.39,26.94L40.44,25.55L45.5,23.97L50.55,24.87L70.77,25.4L80.88,22.4L90.99,20.13L101.1,19.46L121.32,19.54L131.43,24.14L151.65,26.65L161.76,28.61L171.87,33.59L181.98,48.81L192.09,78.43L202.2,102.51L212.31,111.64L222.42,115.34L262.86,126.13L272.97,129.68L303.3,139.44L313.41,143.2L333.63,150.06L343.74,152.29L374.07,155.67L384.18,157.67L424.62,167.78L434.73,169.78L454.95,169.93L465.06,169.34L495.39,168.58L505.5,172.26" style="vector-effect: none; fill: none; stroke: rgb(240, 173, 78); stroke-opacity: 1; stroke-width: 2px; opacity: 1;"/></g><g class="points"/><g class="text"/></g><g class="trace scatter trace50e2a2" style="stroke-miterlimit: 2; opacity: 1;"><g class="fills"/><g class="errorbars"/><g class="lines"><path class="js-line" d="M5.06,32.82L10.11,26.8L15.17,24.43L35.39,23.52L40.44,23.08L50.55,22.75L75.82,24.45L101.1,25.94L126.38,30.32L176.93,38.73L202.2,41.14L227.48,44.08L252.75,45.79L303.3,49.07L328.58,50.42L404.4,55.35L429.67,57.53L454.95,56.56L480.23,56.97L505.5,55.01L530.78,54.22L606.6,48.28L631.88,46.76L682.43,44.32L707.7,43.92L732.97,44.23L758.25,45.42L783.53,46.41L808.8,48.47L884.63,57.04L909.9,60.24L960.45,67.21L985.72,71.06L1011,71.24" style="vector-effect: none; fill: none; stroke: rgb(92, 184, 92); stroke-opacity: 1; stroke-width: 2px; opacity: 1;"/></g><g class="points"/><g class="text"/></g><g class="trace scatter traceba0d58" style="stroke-miterlimit: 2; opacity: 1;"><g class="fills"/><g class="errorbars"/><g class="lines"><path class="js-line" d="M5.06,37.22L10.11,28.21L15.17,27.37L25.28,24.98L30.33,25.91L35.39,26.49L40.44,25.97L45.5,23.83L50.55,24.73L70.77,25.31L80.88,23.41L90.99,19.94L101.1,19.44L111.21,19.56L121.32,21.43L131.43,28.69L141.54,32.2L161.76,38.1L171.87,42.74L181.98,53.13L192.09,72.68L202.2,89.65L212.31,97.31L222.42,100.88L232.53,102.57L252.75,107.02L262.86,109.85L293.19,118.85L303.3,121.02L313.41,124.72L323.52,130.61L333.63,136.54L343.74,139.92L353.85,141.77L363.96,145.07L374.07,150.26L384.18,158.17L394.29,164.83L404.4,169.43L414.51,172.35L424.62,174.39L444.84,177.42L454.95,178.67L475.17,176.7L485.28,173.43L495.39,171.19L505.5,173.83" style="vector-effect: none; fill: none; stroke: rgb(240, 173, 78); stroke-opacity: 1; stroke-width: 2px; opacity: 1;"/></g><g class="points"/><g class="text"/></g><g class="trace scatter trace88ffea" style="stroke-miterlimit: 2; opacity: 1;"><g class="fills"/><g class="errorbars"/><g class="lines"><path class="js-line" d="M5.06,31.55L10.11,25.76L15.17,23.74L35.39,22.94L40.44,22.54L50.55,23.15L75.82,26.39L101.1,29.63L126.38,35.45L151.65,38.6L176.93,39.71L252.75,41.77L278.02,43.7L328.58,48.22L353.85,50.97L379.13,52.17L404.4,56.73L429.67,59.26L454.95,52.23L480.23,50.35L505.5,47.32L530.78,44.05L556.05,41.71L606.6,38.98L631.88,38.39L682.43,38.66L707.7,39.31L783.53,42.8L808.8,44.57L935.18,56.7L960.45,59.65L985.72,62.56L1011,61.46" style="vector-effect: none; fill: none; stroke: rgb(92, 184, 92); stroke-opacity: 1; stroke-width: 2px; opacity: 1;"/></g><g class="points"/><g class="text"/></g><g class="trace scatter trace96e079" style="stroke-miterlimit: 2; opacity: 1;"><g class="fills"/><g class="errorbars"/><g class="lines"><path class="js-line" d="M5.06,36.23L10.11,28.06L15.17,27.17L20.22,25.64L25.28,24.9L35.39,26.44L40.44,26.09L45.5,23.97L50.55,24.71L70.77,25.9L80.88,25.28L90.99,20.18L101.1,19.54L121.32,19.85L131.43,24.95L151.65,28.17L161.76,30.47L171.87,35.41L181.98,49.33L192.09,75.61L202.2,97.06L212.31,105.44L222.42,109.03L262.86,119.15L272.97,122.7L343.74,146.22L353.85,148.46L394.29,157.93L404.4,159.06L434.73,162.78L444.84,163.24L475.17,164.51L485.28,163.98L505.5,164.01" style="vector-effect: none; fill: none; stroke: rgb(240, 173, 78); stroke-opacity: 1; stroke-width: 2px; opacity: 1;"/></g><g class="points"/><g class="text"/></g><g class="trace scatter tracee5bccb" style="stroke-miterlimit: 2; opacity: 1;"><g class="fills"/><g class="errorbars"/><g class="lines"><path class="js-line" d="M5.06,31.94L10.11,25.69L15.17,23.99L25.28,23.23L30.33,23.72L40.44,22.87L45.5,22.99L50.55,22.65L75.82,24.67L101.1,27.12L126.38,31.86L151.65,35.06L176.93,37.02L252.75,40.12L278.02,41.49L404.4,48.8L429.67,51.16L454.95,49.42L480.23,49.17L530.78,46.38L556.05,45.05L606.6,43.43L631.88,43.26L682.43,44.09L707.7,45.11L758.25,48.71L783.53,50.53L834.08,56.43L859.35,59.92L909.9,66.5L935.18,70L985.72,78.01L1011,77.84" style="vector-effect: none; fill: none; stroke: rgb(92, 184, 92); stroke-opacity: 1; stroke-width: 2px; opacity: 1;"/></g><g class="points"/><g class="text"/></g><g class="trace scatter trace60f5e4" style="stroke-miterlimit: 2; opacity: 1;"><g class="fills"/><g class="errorbars"/><g class="lines"><path class="js-line" d="M5.06,37.94L10.11,28.64L15.17,28.08L20.22,26.31L25.28,25.91L35.39,28.36L40.44,26.48L45.5,24.89L50.55,26.18L70.77,26.49L80.88,23.64L90.99,20.72L101.1,19.96L121.32,19.74L131.43,24.5L151.65,25.38L161.76,26.41L171.87,29.91L181.98,42.56L192.09,69.99L202.2,94.86L212.31,105.35L222.42,109.64L272.97,123.18L283.08,126.33L303.3,133.25L313.41,136.62L343.74,145.63L353.85,147.58L394.29,154.4L404.4,155.68L434.73,159.02L444.84,159.29L475.17,161.08L485.28,161.01L495.39,161.13L505.5,163.18" style="vector-effect: none; fill: none; stroke: rgb(240, 173, 78); stroke-opacity: 1; stroke-width: 2px; opacity: 1;"/></g><g class="points"/><g class="text"/></g><g class="trace scatter tracee1680b" style="stroke-miterlimit: 2; opacity: 1;"><g class="fills"/><g class="errorbars"/><g class="lines"><path class="js-line" d="M5.06,34.71L10.11,26.82L15.17,25.32L30.33,25.47L35.39,24.57L50.55,23.73L75.82,24.52L101.1,25.1L126.38,29.35L151.65,31.11L176.93,31.76L252.75,33.18L278.02,34.08L404.4,37.53L429.67,39.46L454.95,38.33L480.23,39.27L556.05,38.66L581.32,39.29L631.88,40.06L657.15,40.97L732.97,45.25L758.25,47.51L783.53,49.46L808.8,52.18L909.9,65.58L935.18,69.2L985.72,77.56L1011,79.73" style="vector-effect: none; fill: none; stroke: rgb(92, 184, 92); stroke-opacity: 1; stroke-width: 2px; opacity: 1;"/></g><g class="points"/><g class="text"/></g><g class="trace scatter trace0aa1a3" style="stroke-miterlimit: 2; opacity: 1;"><g class="fills"/><g class="errorbars"/><g class="lines"><path class="js-line" d="M5.06,35.19L10.11,27.24L15.17,26.73L20.22,25.06L25.28,24.56L35.39,26.58L40.44,24.91L45.5,23.56L50.55,24.78L70.77,25.29L80.88,22.88L90.99,19.94L101.1,19.2L121.32,18.93L131.43,22.24L151.65,22.91L161.76,23.94L171.87,27.84L181.98,42.38L192.09,72.7L202.2,98.33L212.31,108.75L222.42,113.02L272.97,126.23L283.08,129.72L313.41,140.75L323.52,144.13L343.74,149.5L353.85,151.25L384.18,155.6L394.29,157.13L424.62,159.65L434.73,160.89L495.39,163.64L505.5,165.18" style="vector-effect: none; fill: none; stroke: rgb(240, 173, 78); stroke-opacity: 1; stroke-width: 2px; opacity: 1;"/></g><g class="points"/><g class="text"/></g><g class="trace scatter trace6b9c78" style="stroke-miterlimit: 2; opacity: 1;"><g class="fills"/><g class="errorbars"/><g class="lines"><path class="js-line" d="M5.06,32.62L10.11,25.31L15.17,23.87L35.39,22.99L40.44,22.54L50.55,22.09L75.82,22.64L101.1,22.93L126.38,26.03L176.93,28.83L202.2,29.42L252.75,30.78L278.02,31.69L353.85,33.14L379.13,33.67L404.4,34.54L429.67,36.21L454.95,35.7L480.23,36.93L556.05,36.68L581.32,37.01L631.88,37.68L657.15,38.49L707.7,41.08L732.97,42.91L808.8,51.17L834.08,54.92L935.18,71.25L960.45,76.1L985.72,81.12L1011,83.25" style="vector-effect: none; fill: none; stroke: rgb(92, 184, 92); stroke-opacity: 1; stroke-width: 2px; opacity: 1;"/></g><g class="points"/><g class="text"/></g><g class="trace scatter trace7dbd53" style="stroke-miterlimit: 2; opacity: 1;"><g class="fills"/><g class="errorbars"/><g class="lines"><path class="js-line" d="M5.06,37.82L10.11,28.84L15.17,27.88L20.22,26.19L25.28,25.42L35.39,27.84L40.44,25.98L45.5,24.46L50.55,24.97L70.77,26.42L80.88,23.86L90.99,21.15L101.1,20.64L111.21,20.59L121.32,21.49L131.43,28.15L141.54,30.4L161.76,36.07L171.87,40.97L181.98,49.96L192.09,65.31L202.2,78.95L212.31,84.19L232.53,88.91L242.64,90.28L262.86,94.99L272.97,98.85L293.19,105.95L303.3,107.3L323.52,116.41L333.63,122.03L343.74,126.14L353.85,128.72L374.07,134.26L384.18,139.55L394.29,144.74L404.4,147.8L424.62,153.24L434.73,154.74L465.06,155.94L475.17,155.71L495.39,152.93L505.5,150.65" style="vector-effect: none; fill: none; stroke: rgb(240, 173, 78); stroke-opacity: 1; stroke-width: 2px; opacity: 1;"/></g><g class="points"/><g class="text"/></g><g class="trace scatter trace11c429" style="stroke-miterlimit: 2; opacity: 1;"><g class="fills"/><g class="errorbars"/><g class="lines"><path class="js-line" d="M5.06,32.08L10.11,26.11L15.17,24.11L20.22,24.36L25.28,23.82L30.33,24.36L35.39,23.65L45.5,23.41L50.55,23.36L75.82,26.14L101.1,30.41L126.38,37.48L151.65,41.56L176.93,44.12L202.2,45.61L227.48,47.93L252.75,49.33L278.02,51.82L303.3,55.25L379.13,63.35L404.4,65.6L429.67,68.81L454.95,65.82L480.23,64.36L505.5,61.63L556.05,57.49L581.32,56.04L631.88,54.68L657.15,54.82L707.7,56.21L732.97,57.58L758.25,59.31L783.53,59.58L834.08,63.06L859.35,65.28L935.18,71.1L960.45,73.52L985.72,75.89L1011,73.81" style="vector-effect: none; fill: none; stroke: rgb(92, 184, 92); stroke-opacity: 1; stroke-width: 2px; opacity: 1;"/></g><g class="points"/><g class="text"/></g><g class="trace scatter trace2ee799" style="stroke-miterlimit: 2; opacity: 1;"><g class="fills"/><g class="errorbars"/><g class="lines"><path class="js-line" d="M5.06,35.83L10.11,27.55L15.17,26.93L25.28,24.25L30.33,25.32L35.39,26.67L40.44,24.69L45.5,23.19L50.55,23.63L60.66,23.82L70.77,24.81L80.88,22.8L90.99,19.82L111.21,19.15L121.32,20.04L131.43,25.38L141.54,28.06L161.76,34.42L171.87,40.27L181.98,51.67L192.09,70.32L202.2,85.53L212.31,91L232.53,96.23L242.64,97.72L262.86,103.42L272.97,107.54L283.08,110.8L293.19,116.08L303.3,119.53L313.41,125.08L323.52,129.26L333.63,134.55L343.74,138.05L353.85,139.52L374.07,142.85L384.18,147.01L394.29,150.75L404.4,152.72L434.73,159.58L444.84,160.38L465.06,161.82L475.17,161.72L505.5,157.23" style="vector-effect: none; fill: none; stroke: rgb(240, 173, 78); stroke-opacity: 1; stroke-width: 2px; opacity: 1;"/></g><g class="points"/><g class="text"/></g><g class="trace scatter trace70b834" style="stroke-miterlimit: 2; opacity: 1;"><g class="fills"/><g class="errorbars"/><g class="lines"><path class="js-line" d="M5.06,31.62L10.11,25.33L15.17,23.17L30.33,23.24L35.39,22.23L45.5,21.9L50.55,21.87L75.82,24.76L101.1,29.21L126.38,35.11L151.65,38.88L176.93,41.37L202.2,42.5L278.02,47.65L303.3,50.47L328.58,54.35L353.85,56.67L379.13,57.32L404.4,59.81L429.67,63.79L454.95,60.26L480.23,58.8L505.5,55.62L581.32,49.12L606.6,47.9L657.15,47.23L682.43,47.72L732.97,49.78L758.25,51.42L783.53,52.05L808.8,53.74L960.45,67.85L985.72,70.59L1011,69.17" style="vector-effect: none; fill: none; stroke: rgb(92, 184, 92); stroke-opacity: 1; stroke-width: 2px; opacity: 1;"/></g><g class="points"/><g class="text"/></g><g class="trace scatter tracec3612d" style="stroke-miterlimit: 2; opacity: 1;"><g class="fills"/><g class="errorbars"/><g class="lines"><path class="js-line" d="M5.06,34.77L10.11,27.77L15.17,26.71L25.28,24.48L30.33,25.4L35.39,26.28L40.44,24.7L45.5,22.61L50.55,24.47L60.66,24.12L70.77,24.61L80.88,21.57L90.99,19.37L111.21,18.48L121.32,18.51L131.43,21.76L141.54,21.85L161.76,23.09L171.87,25.86L181.98,35.85L192.09,57.83L202.2,80.45L212.31,93.53L222.42,100.49L232.53,104.58L272.97,122.02L283.08,125.36L313.41,134.92L323.52,139.06L343.74,144.88L353.85,146.97L384.18,150.68L394.29,151.54L414.51,152.88L424.62,154.01L434.73,155.08L444.84,154.82L454.95,153.8L465.06,151.97L485.28,150.17L495.39,150.75L505.5,151.68" style="vector-effect: none; fill: none; stroke: rgb(240, 173, 78); stroke-opacity: 1; stroke-width: 2px; opacity: 1;"/></g><g class="points"/><g class="text"/></g><g class="trace scatter trace864566" style="stroke-miterlimit: 2; opacity: 1;"><g class="fills"/><g class="errorbars"/><g class="lines"><path class="js-line" d="M5.06,31L10.11,25.82L15.17,23.42L30.33,23.62L35.39,22.67L50.55,21.59L75.82,22.4L101.1,23.03L126.38,26.63L151.65,33.19L176.93,41.98L252.75,60.52L278.02,65.26L353.85,76.55L379.13,79.04L404.4,81.27L429.67,84.85L454.95,87.28L480.23,90.9L505.5,89.31L530.78,89.77L581.32,83.52L606.6,80.67L682.43,69.8L707.7,67.14L732.97,65.21L758.25,64.37L783.53,63.52L808.8,63.99L884.63,68.54L909.9,70.46L960.45,74.61L985.72,76.86L1011,74.29" style="vector-effect: none; fill: none; stroke: rgb(92, 184, 92); stroke-opacity: 1; stroke-width: 2px; opacity: 1;"/></g><g class="points"/><g class="text"/></g><g class="trace scatter trace55dc3b" style="stroke-miterlimit: 2; opacity: 1;"><g class="fills"/><g class="errorbars"/><g class="lines"><path class="js-line" d="M5.06,35.09L10.11,27.46L15.17,26.92L20.22,25.27L25.28,24.89L35.39,26.59L40.44,25.05L45.5,22.81L50.55,25.2L60.66,24.57L70.77,24.89L90.99,19.74L101.1,19.11L121.32,18.86L131.43,22L151.65,22.6L161.76,23.62L171.87,27.24L181.98,40.19L192.09,66.21L202.2,88.15L212.31,97.36L222.42,101.56L232.53,104.01L242.64,107.25L333.63,138.32L343.74,141.74L363.96,146.82L374.07,148.2L404.4,151.47L414.51,151.91L465.06,153.96L475.17,154.52L495.39,154.56L505.5,158.65" style="vector-effect: none; fill: none; stroke: rgb(240, 173, 78); stroke-opacity: 1; stroke-width: 2px; opacity: 1;"/></g><g class="points"/><g class="text"/></g><g class="trace scatter tracec73247" style="stroke-miterlimit: 2; opacity: 1;"><g class="fills"/><g class="errorbars"/><g class="lines"><path class="js-line" d="M5.06,33.63L10.11,25.4L15.17,23.75L30.33,23.78L35.39,22.63L40.44,22.24L45.5,22.62L50.55,21.85L75.82,22.14L101.1,22.35L126.38,25.06L176.93,26.67L202.2,27L379.13,32.01L404.4,32.58L429.67,34.28L454.95,33.59L480.23,35L505.5,35.2L556.05,36.1L581.32,37.46L631.88,39.68L657.15,41.24L707.7,45.43L732.97,47.89L808.8,58L834.08,62.31L909.9,75.45L935.18,79.63L985.72,88.61L1011,90.13" style="vector-effect: none; fill: none; stroke: rgb(92, 184, 92); stroke-opacity: 1; stroke-width: 2px; opacity: 1;"/></g><g class="points"/><g class="text"/></g><g class="trace scatter trace2f9e4d" style="stroke-miterlimit: 2; opacity: 1;"><g class="fills"/><g class="errorbars"/><g class="lines"><path class="js-line" d="M5.06,35.54L10.11,28.05L15.17,26.92L25.28,24.75L30.33,25.66L35.39,26.16L40.44,24.75L45.5,23.61L50.55,24.35L70.77,25.08L80.88,22.84L90.99,19.77L101.1,18.97L121.32,18.63L131.43,21.84L151.65,22.29L161.76,23.17L171.87,26.61L181.98,39.26L202.2,94.52L212.31,110.09L222.42,118.09L232.53,122.83L252.75,132.82L262.86,138.11L272.97,143.51L283.08,148.04L303.3,155.59L313.41,158.73L333.63,164.26L343.74,166.16L434.73,179.42L444.84,180.26L495.39,184.93L505.5,187.81" style="vector-effect: none; fill: none; stroke: rgb(240, 173, 78); stroke-opacity: 1; stroke-width: 2px; opacity: 1;"/></g><g class="points"/><g class="text"/></g><g class="trace scatter traced05969" style="stroke-miterlimit: 2; opacity: 1;"><g class="fills"/><g class="errorbars"/><g class="lines"><path class="js-line" d="M5.06,32.08L10.11,26.04L15.17,23.77L30.33,23.6L35.39,22.77L50.55,21.64L75.82,22.2L101.1,22.73L126.38,26.05L151.65,31.23L176.93,37.96L252.75,51.6L278.02,54.99L379.13,65.47L404.4,67.65L429.67,70.28L454.95,71.75L480.23,74.94L505.5,74.11L530.78,74.73L556.05,73.31L657.15,65.95L682.43,63.77L732.97,61.68L758.25,61.93L783.53,62.18L808.8,63.52L884.63,69.82L909.9,72.2L960.45,77.3L985.72,80.07L1011,78.88" style="vector-effect: none; fill: none; stroke: rgb(92, 184, 92); stroke-opacity: 1; stroke-width: 2px; opacity: 1;"/></g><g class="points"/><g class="text"/></g><g class="trace scatter tracedaf25d" style="stroke-miterlimit: 2; opacity: 1;"><g class="fills"/><g class="errorbars"/><g class="lines"><path class="js-line" d="M5.06,36.31L10.11,27.92L15.17,27.28L20.22,25.65L25.28,25.24L35.39,26.55L40.44,25.32L45.5,24.39L50.55,25.11L70.77,25.5L80.88,23L90.99,20.11L101.1,19.3L121.32,18.99L131.43,22.29L151.65,22.78L161.76,23.78L171.87,27.56L181.98,41.4L192.09,69.49L202.2,94.46L212.31,106.17L222.42,112.19L242.64,119.53L252.75,123.69L303.3,143.24L313.41,146.52L343.74,155.6L353.85,158.13L374.07,161.64L384.18,163L394.29,164.36L404.4,164.94L454.95,167.36L465.06,167.56L485.28,167.77L495.39,167.91L505.5,170.43" style="vector-effect: none; fill: none; stroke: rgb(240, 173, 78); stroke-opacity: 1; stroke-width: 2px; opacity: 1;"/></g><g class="points"/><g class="text"/></g><g class="trace scatter trace4014cc" style="stroke-miterlimit: 2; opacity: 1;"><g class="fills"/><g class="errorbars"/><g class="lines"><path class="js-line" d="M5.06,32.91L10.11,25.4L15.17,24.01L30.33,24.23L35.39,23.09L50.55,22.18L75.82,22.45L101.1,22.42L126.38,25.15L151.65,26.24L176.93,26.56L252.75,27.62L278.02,28.49L379.13,30.38L404.4,31.03L429.67,32.62L454.95,31.84L480.23,33.16L505.5,33.23L556.05,33.82L581.32,34.97L631.88,36.44L657.15,37.61L732.97,42.58L758.25,45.15L808.8,50.75L834.08,54.32L909.9,65.74L935.18,69.61L985.72,78.32L1011,80.41" style="vector-effect: none; fill: none; stroke: rgb(92, 184, 92); stroke-opacity: 1; stroke-width: 2px; opacity: 1;"/></g><g class="points"/><g class="text"/></g><g class="trace scatter tracec10d04" style="stroke-miterlimit: 2; opacity: 1;"><g class="fills"/><g class="errorbars"/><g class="lines"><path class="js-line" d="M5.06,35.35L10.11,28.45L15.17,26.78L25.28,24.56L30.33,25.19L35.39,25.98L40.44,24.87L45.5,22.9L50.55,23.7L70.77,24.33L80.88,21.67L90.99,19.39L101.1,18.63L121.32,18.37L131.43,21.51L151.65,22.22L161.76,23.21L171.87,26.35L181.98,37.55L192.09,63.32L202.2,91.4L212.31,107.72L222.42,116.67L252.75,134.79L262.86,141.02L272.97,146.99L283.08,151.41L303.3,158.55L313.41,161.42L323.52,164.39L333.63,166.47L363.96,171.25L374.07,173.38L424.62,182.01L434.73,184.56L454.95,187.35L465.06,188.27L485.28,192.18L495.39,194.56L505.5,198.42" style="vector-effect: none; fill: none; stroke: rgb(217, 83, 79); stroke-opacity: 1; stroke-width: 2px; opacity: 1;"/></g><g class="points"/><g class="text"/></g><g class="trace scatter trace29f08c" style="stroke-miterlimit: 2; opacity: 1;"><g class="fills"/><g class="errorbars"/><g class="lines"><path class="js-line" d="M5.06,31.16L15.17,23.15L20.22,23.41L30.33,23.63L35.39,22.44L50.55,21.19L75.82,22.01L101.1,22.87L126.38,26.7L151.65,35.55L176.93,49.08L252.75,81.32L278.02,89.35L303.3,96.29L328.58,102.08L429.67,123.78L454.95,128.41L480.23,134.57L505.5,131.71L530.78,133L556.05,129.31L631.88,111.62L657.15,104.23L682.43,96.05L707.7,89.07L732.97,83.05L758.25,78.17L783.53,73.66L808.8,70.81L884.63,66.73L909.9,66.01L960.45,64.88L985.72,64.58L1011,61.78" style="vector-effect: none; fill: none; stroke: rgb(240, 173, 78); stroke-opacity: 1; stroke-width: 2px; opacity: 1;"/></g><g class="points"/><g class="text"/></g><g class="trace scatter trace0499f3" style="stroke-miterlimit: 2; opacity: 1;"><g class="fills"/><g class="errorbars"/><g class="lines"><path class="js-line" d="M5.06,37.75L10.11,28.79L15.17,28.06L20.22,26.37L25.28,26.03L35.39,27.4L40.44,26.62L45.5,25.08L50.55,25.82L60.66,26.37L70.77,26.15L80.88,22.91L90.99,20.51L111.21,19.22L121.32,19.22L131.43,23.04L141.54,23.05L161.76,24.22L171.87,27.06L181.98,38L192.09,62.91L202.2,88.8L212.31,102.78L222.42,109.71L232.53,113.69L303.3,142.2L313.41,145.58L343.74,154.26L353.85,156.8L374.07,160L384.18,161.09L404.4,163.21L414.51,163.71L434.73,165.16L444.84,165.69L485.28,168.36L495.39,168.67L505.5,171.75" style="vector-effect: none; fill: none; stroke: rgb(240, 173, 78); stroke-opacity: 1; stroke-width: 2px; opacity: 1;"/></g><g class="points"/><g class="text"/></g><g class="trace scatter trace6c3de3" style="stroke-miterlimit: 2; opacity: 1;"><g class="fills"/><g class="errorbars"/><g class="lines"><path class="js-line" d="M5.06,33.54L10.11,25.55L15.17,24.05L30.33,24.28L35.39,23.48L50.55,22.74L75.82,23.07L101.1,23.3L126.38,26.52L176.93,28.72L202.2,29.61L278.02,33.23L303.3,34.02L404.4,37.75L429.67,40L454.95,40.14L480.23,42.32L556.05,44.74L581.32,46.62L631.88,49.62L657.15,51.74L707.7,56.74L732.97,59.47L808.8,70.09L834.08,74.36L909.9,86.86L935.18,90.81L985.72,98.94L1011,100.13" style="vector-effect: none; fill: none; stroke: rgb(92, 184, 92); stroke-opacity: 1; stroke-width: 2px; opacity: 1;"/></g><g class="points"/><g class="text"/></g><g class="trace scatter traceebe314" style="stroke-miterlimit: 2; opacity: 1;"><g class="fills"/><g class="errorbars"/><g class="lines"><path class="js-line" d="M5.06,36.1L10.11,28.8L15.17,27.26L25.28,24.97L30.33,25.73L35.39,26.89L40.44,25.09L45.5,23.32L50.55,24.13L70.77,25.12L80.88,22.66L90.99,19.69L101.1,19.04L121.32,18.88L131.43,22.88L151.65,24.08L161.76,25.28L171.87,28.56L181.98,39.95L202.2,91.53L212.31,105.63L222.42,113.19L232.53,117.98L272.97,139.05L283.08,142.84L323.52,156.6L333.63,159.06L374.07,166.68L384.18,168.89L394.29,170.74L404.4,171.68L424.62,174.93L434.73,177.11L444.84,177.78L454.95,177.37L465.06,176.5L475.17,177.53L485.28,179.89L495.39,183.45L505.5,189.48" style="vector-effect: none; fill: none; stroke: rgb(240, 173, 78); stroke-opacity: 1; stroke-width: 2px; opacity: 1;"/></g><g class="points"/><g class="text"/></g><g class="trace scatter trace1fa9cb" style="stroke-miterlimit: 2; opacity: 1;"><g class="fills"/><g class="errorbars"/><g class="lines"><path class="js-line" d="M5.06,32.44L10.11,27.29L15.17,24.01L30.33,24.18L35.39,23.16L50.55,21.85L75.82,22.87L101.1,23.98L126.38,28.78L151.65,39.42L176.93,54.25L227.48,76.56L252.75,86.56L278.02,94.26L303.3,101.03L404.4,123.31L429.67,128.05L454.95,132.95L480.23,138.63L505.5,134.98L530.78,135.78L556.05,130.99L581.32,123.94L606.6,117.93L631.88,110.66L682.43,93.69L707.7,86.35L732.97,80.14L758.25,75.22L783.53,70.69L808.8,67.91L884.63,64.27L909.9,63.65L960.45,62.75L985.72,62.54L1011,59.45" style="vector-effect: none; fill: none; stroke: rgb(240, 173, 78); stroke-opacity: 1; stroke-width: 2px; opacity: 1;"/></g><g class="points"/><g class="text"/></g><g class="trace scatter trace5ba646" style="stroke-miterlimit: 2; opacity: 1;"><g class="fills"/><g class="errorbars"/><g class="lines"><path class="js-line" d="M5.06,36.6L10.11,28.14L15.17,27.46L20.22,25.77L25.28,25.34L35.39,26.89L40.44,25.48L45.5,24.03L50.55,24.98L70.77,25.87L80.88,23.25L90.99,19.98L101.1,19.18L121.32,18.91L131.43,22.02L151.65,22.59L161.76,23.51L171.87,26.61L181.98,38.22L202.2,89.32L212.31,101.92L222.42,107.95L232.53,111.31L262.86,123.05L272.97,127.36L313.41,141.8L323.52,144.98L353.85,153.3L363.96,155.24L394.29,159.58L404.4,160.26L444.84,162.93L454.95,163.82L485.28,165.32L495.39,165.63L505.5,169.09" style="vector-effect: none; fill: none; stroke: rgb(240, 173, 78); stroke-opacity: 1; stroke-width: 2px; opacity: 1;"/></g><g class="points"/><g class="text"/></g><g class="trace scatter traceffc7a7" style="stroke-miterlimit: 2; opacity: 1;"><g class="fills"/><g class="errorbars"/><g class="lines"><path class="js-line" d="M5.06,32.94L10.11,24.66L15.17,23.2L25.28,23.33L30.33,23.39L40.44,22.15L45.5,22.35L50.55,21.77L75.82,22.12L101.1,22.6L126.38,25.53L176.93,27.95L202.2,28.96L278.02,32.7L303.3,33.59L404.4,37.75L429.67,40.01L454.95,40.1L480.23,42.25L556.05,44.61L581.32,46.38L631.88,49.42L657.15,51.55L707.7,56.68L732.97,59.5L808.8,70.44L834.08,74.9L909.9,87.69L935.18,91.67L985.72,99.81L1011,100.13" style="vector-effect: none; fill: none; stroke: rgb(92, 184, 92); stroke-opacity: 1; stroke-width: 2px; opacity: 1;"/></g><g class="points"/><g class="text"/></g><g class="trace scatter traceace0d5" style="stroke-miterlimit: 2; opacity: 1;"><g class="fills"/><g class="errorbars"/><g class="lines"><path class="js-line" d="M5.06,35.94L10.11,28.16L15.17,27.27L20.22,25.7L25.28,25.04L35.39,26.94L40.44,25.55L45.5,23.97L50.55,24.87L70.77,25.4L80.88,22.4L90.99,20.13L101.1,19.46L121.32,19.54L131.43,24.14L151.65,26.65L161.76,28.61L171.87,33.59L181.98,48.81L192.09,78.43L202.2,102.51L212.31,111.64L222.42,115.34L262.86,126.13L272.97,129.68L303.3,139.44L313.41,143.2L333.63,150.06L343.74,152.29L374.07,155.67L384.18,157.67L424.62,167.78L434.73,169.78L454.95,169.93L465.06,169.34L495.39,168.58L505.5,172.26" style="vector-effect: none; fill: none; stroke: rgb(240, 173, 78); stroke-opacity: 1; stroke-width: 2px; opacity: 1;"/></g><g class="points"/><g class="text"/></g><g class="trace scatter tracec683d8" style="stroke-miterlimit: 2; opacity: 1;"><g class="fills"/><g class="errorbars"/><g class="lines"><path class="js-line" d="M5.06,32.82L10.11,26.8L15.17,24.43L35.39,23.52L40.44,23.08L50.55,22.75L75.82,24.45L101.1,25.94L126.38,30.32L176.93,38.73L202.2,41.14L227.48,44.08L252.75,45.79L303.3,49.07L328.58,50.42L404.4,55.35L429.67,57.53L454.95,56.56L480.23,56.97L505.5,55.01L530.78,54.22L606.6,48.28L631.88,46.76L682.43,44.32L707.7,43.92L732.97,44.23L758.25,45.42L783.53,46.41L808.8,48.47L884.63,57.04L909.9,60.24L960.45,67.21L985.72,71.06L1011,71.24" style="vector-effect: none; fill: none; stroke: rgb(92, 184, 92); stroke-opacity: 1; stroke-width: 2px; opacity: 1;"/></g><g class="points"/><g class="text"/></g><g class="trace scatter trace62870f" style="stroke-miterlimit: 2; opacity: 1;"><g class="fills"/><g class="errorbars"/><g class="lines"><path class="js-line" d="M5.06,37.93L10.11,28.69L15.17,28.12L20.22,26.38L25.28,26.08L30.33,26.99L35.39,28.68L45.5,25.1L50.55,26.53L70.77,25.96L80.88,23L90.99,20.71L101.1,19.98L121.32,19.8L131.43,24.61L151.65,26.15L161.76,27.71L171.87,32.02L181.98,46.14L192.09,74.45L202.2,98.04L212.31,107.03L222.42,110.57L242.64,115.61L252.75,118.5L272.97,124.7L283.08,127.87L303.3,134.5L313.41,137.62L343.74,145.67L353.85,147.76L374.07,150.24L384.18,151.37L434.73,158.74L444.84,159.33L465.06,160.34L475.17,160.54L495.39,159.49L505.5,161.23" style="vector-effect: none; fill: none; stroke: rgb(240, 173, 78); stroke-opacity: 1; stroke-width: 2px; opacity: 1;"/></g><g class="points"/><g class="text"/></g><g class="trace scatter traceb7b80b" style="stroke-miterlimit: 2; opacity: 1;"><g class="fills"/><g class="errorbars"/><g class="lines"><path class="js-line" d="M5.06,34.11L10.11,26.59L15.17,25.05L30.33,25.18L35.39,24.34L50.55,23.62L75.82,24.79L101.1,25.88L126.38,30.11L151.65,32L176.93,32.6L252.75,33.7L278.02,34.63L404.4,38.61L429.67,40.46L454.95,39.13L480.23,39.51L556.05,37.98L581.32,38.4L631.88,38.93L657.15,39.78L707.7,42.41L732.97,44.05L808.8,51.48L834.08,54.92L935.18,70.14L960.45,74.72L985.72,79.2L1011,80.47" style="vector-effect: none; fill: none; stroke: rgb(92, 184, 92); stroke-opacity: 1; stroke-width: 2px; opacity: 1;"/></g><g class="points"/><g class="text"/></g><g class="trace scatter tracea5b00b" style="stroke-miterlimit: 2; opacity: 1;"><g class="fills"/><g class="errorbars"/><g class="lines"><path class="js-line" d="M5.06,36.23L10.11,28.06L15.17,27.17L20.22,25.64L25.28,24.9L35.39,26.44L40.44,26.09L45.5,23.97L50.55,24.71L70.77,25.9L80.88,25.28L90.99,20.18L101.1,19.54L121.32,19.85L131.43,24.95L151.65,28.17L161.76,30.47L171.87,35.41L181.98,49.33L192.09,75.61L202.2,97.06L212.31,105.44L222.42,109.03L262.86,119.15L272.97,122.7L343.74,146.22L353.85,148.46L394.29,157.93L404.4,159.06L434.73,162.78L444.84,163.24L475.17,164.51L485.28,163.98L505.5,164.01" style="vector-effect: none; fill: none; stroke: rgb(240, 173, 78); stroke-opacity: 1; stroke-width: 2px; opacity: 1;"/></g><g class="points"/><g class="text"/></g><g class="trace scatter traceed116b" style="stroke-miterlimit: 2; opacity: 1;"><g class="fills"/><g class="errorbars"/><g class="lines"><path class="js-line" d="M5.06,31.94L10.11,25.69L15.17,23.99L25.28,23.23L30.33,23.72L40.44,22.87L45.5,22.99L50.55,22.65L75.82,24.67L101.1,27.12L126.38,31.86L151.65,35.06L176.93,37.02L252.75,40.12L278.02,41.49L404.4,48.8L429.67,51.16L454.95,49.42L480.23,49.17L530.78,46.38L556.05,45.05L606.6,43.43L631.88,43.26L682.43,44.09L707.7,45.11L758.25,48.71L783.53,50.53L834.08,56.43L859.35,59.92L909.9,66.5L935.18,70L985.72,78.01L1011,77.84" style="vector-effect: none; fill: none; stroke: rgb(92, 184, 92); stroke-opacity: 1; stroke-width: 2px; opacity: 1;"/></g><g class="points"/><g class="text"/></g><g class="trace scatter trace174944" style="stroke-miterlimit: 2; opacity: 1;"><g class="fills"/><g class="errorbars"/><g class="lines"><path class="js-line" d="M5.06,37.22L10.11,28.21L15.17,27.37L25.28,24.98L30.33,25.91L35.39,26.49L40.44,25.97L45.5,23.83L50.55,24.73L70.77,25.31L80.88,23.41L90.99,19.94L101.1,19.44L111.21,19.56L121.32,21.43L131.43,28.69L141.54,32.2L161.76,38.1L171.87,42.74L181.98,53.13L192.09,72.68L202.2,89.65L212.31,97.31L222.42,100.88L232.53,102.57L252.75,107.02L262.86,109.85L293.19,118.85L303.3,121.02L313.41,124.72L323.52,130.61L333.63,136.54L343.74,139.92L353.85,141.77L363.96,145.07L374.07,150.26L384.18,158.17L394.29,164.83L404.4,169.43L414.51,172.35L424.62,174.39L444.84,177.42L454.95,178.67L475.17,176.7L485.28,173.43L495.39,171.19L505.5,173.83" style="vector-effect: none; fill: none; stroke: rgb(240, 173, 78); stroke-opacity: 1; stroke-width: 2px; opacity: 1;"/></g><g class="points"/><g class="text"/></g><g class="trace scatter traceb9c259" style="stroke-miterlimit: 2; opacity: 1;"><g class="fills"/><g class="errorbars"/><g class="lines"><path class="js-line" d="M5.06,31.55L10.11,25.76L15.17,23.74L35.39,22.94L40.44,22.54L50.55,23.15L75.82,26.39L101.1,29.63L126.38,35.45L151.65,38.6L176.93,39.71L252.75,41.77L278.02,43.7L328.58,48.22L353.85,50.97L379.13,52.17L404.4,56.73L429.67,59.26L454.95,52.23L480.23,50.35L505.5,47.32L530.78,44.05L556.05,41.71L606.6,38.98L631.88,38.39L682.43,38.66L707.7,39.31L783.53,42.8L808.8,44.57L935.18,56.7L960.45,59.65L985.72,62.56L1011,61.46" style="vector-effect: none; fill: none; stroke: rgb(92, 184, 92); stroke-opacity: 1; stroke-width: 2px; opacity: 1;"/></g><g class="points"/><g class="text"/></g><g class="trace scatter tracef53cb6" style="stroke-miterlimit: 2; opacity: 1;"><g class="fills"/><g class="errorbars"/><g class="lines"><path class="js-line" d="M5.06,35.19L10.11,27.24L15.17,26.73L20.22,25.06L25.28,24.56L35.39,26.58L40.44,24.91L45.5,23.56L50.55,24.78L70.77,25.29L80.88,22.88L90.99,19.94L101.1,19.2L121.32,18.93L131.43,22.24L151.65,22.91L161.76,23.94L171.87,27.84L181.98,42.38L192.09,72.7L202.2,98.33L212.31,108.75L222.42,113.02L272.97,126.23L283.08,129.72L313.41,140.75L323.52,144.13L343.74,149.5L353.85,151.25L384.18,155.6L394.29,157.13L424.62,159.65L434.73,160.89L495.39,163.64L505.5,165.18" style="vector-effect: none; fill: none; stroke: rgb(240, 173, 78); stroke-opacity: 1; stroke-width: 2px; opacity: 1;"/></g><g class="points"/><g class="text"/></g><g class="trace scatter trace269792" style="stroke-miterlimit: 2; opacity: 1;"><g class="fills"/><g class="errorbars"/><g class="lines"><path class="js-line" d="M5.06,32.62L10.11,25.31L15.17,23.87L35.39,22.99L40.44,22.54L50.55,22.09L75.82,22.64L101.1,22.93L126.38,26.03L176.93,28.83L202.2,29.42L252.75,30.78L278.02,31.69L353.85,33.14L379.13,33.67L404.4,34.54L429.67,36.21L454.95,35.7L480.23,36.93L556.05,36.68L581.32,37.01L631.88,37.68L657.15,38.49L707.7,41.08L732.97,42.91L808.8,51.17L834.08,54.92L935.18,71.25L960.45,76.1L985.72,81.12L1011,83.25" style="vector-effect: none; fill: none; stroke: rgb(92, 184, 92); stroke-opacity: 1; stroke-width: 2px; opacity: 1;"/></g><g class="points"/><g class="text"/></g><g class="trace scatter trace6dd44c" style="stroke-miterlimit: 2; opacity: 1;"><g class="fills"/><g class="errorbars"/><g class="lines"><path class="js-line" d="M5.06,37.94L10.11,28.64L15.17,28.08L20.22,26.31L25.28,25.91L35.39,28.36L40.44,26.48L45.5,24.89L50.55,26.18L70.77,26.49L80.88,23.64L90.99,20.72L101.1,19.96L121.32,19.74L131.43,24.5L151.65,25.38L161.76,26.41L171.87,29.91L181.98,42.56L192.09,69.99L202.2,94.86L212.31,105.35L222.42,109.64L272.97,123.18L283.08,126.33L303.3,133.25L313.41,136.62L343.74,145.63L353.85,147.58L394.29,154.4L404.4,155.68L434.73,159.02L444.84,159.29L475.17,161.08L485.28,161.01L495.39,161.13L505.5,163.18" style="vector-effect: none; fill: none; stroke: rgb(240, 173, 78); stroke-opacity: 1; stroke-width: 2px; opacity: 1;"/></g><g class="points"/><g class="text"/></g><g class="trace scatter trace0bf078" style="stroke-miterlimit: 2; opacity: 1;"><g class="fills"/><g class="errorbars"/><g class="lines"><path class="js-line" d="M5.06,34.71L10.11,26.82L15.17,25.32L30.33,25.47L35.39,24.57L50.55,23.73L75.82,24.52L101.1,25.1L126.38,29.35L151.65,31.11L176.93,31.76L252.75,33.18L278.02,34.08L404.4,37.53L429.67,39.46L454.95,38.33L480.23,39.27L556.05,38.66L581.32,39.29L631.88,40.06L657.15,40.97L732.97,45.25L758.25,47.51L783.53,49.46L808.8,52.18L909.9,65.58L935.18,69.2L985.72,77.56L1011,79.73" style="vector-effect: none; fill: none; stroke: rgb(92, 184, 92); stroke-opacity: 1; stroke-width: 2px; opacity: 1;"/></g><g class="points"/><g class="text"/></g><g class="trace scatter tracee0e7b4" style="stroke-miterlimit: 2; opacity: 1;"><g class="fills"/><g class="errorbars"/><g class="lines"><path class="js-line" d="M5.06,35.83L10.11,27.55L15.17,26.93L25.28,24.25L30.33,25.32L35.39,26.67L40.44,24.69L45.5,23.19L50.55,23.63L60.66,23.82L70.77,24.81L80.88,22.8L90.99,19.82L111.21,19.15L121.32,20.04L131.43,25.38L141.54,28.06L161.76,34.42L171.87,40.27L181.98,51.67L192.09,70.32L202.2,85.53L212.31,91L232.53,96.23L242.64,97.72L262.86,103.42L272.97,107.54L283.08,110.8L293.19,116.08L303.3,119.53L313.41,125.08L323.52,129.26L333.63,134.55L343.74,138.05L353.85,139.52L374.07,142.85L384.18,147.01L394.29,150.75L404.4,152.72L434.73,159.58L444.84,160.38L465.06,161.82L475.17,161.72L505.5,157.23" style="vector-effect: none; fill: none; stroke: rgb(240, 173, 78); stroke-opacity: 1; stroke-width: 2px; opacity: 1;"/></g><g class="points"/><g class="text"/></g><g class="trace scatter traceae539a" style="stroke-miterlimit: 2; opacity: 1;"><g class="fills"/><g class="errorbars"/><g class="lines"><path class="js-line" d="M5.06,31.62L10.11,25.33L15.17,23.17L30.33,23.24L35.39,22.23L45.5,21.9L50.55,21.87L75.82,24.76L101.1,29.21L126.38,35.11L151.65,38.88L176.93,41.37L202.2,42.5L278.02,47.65L303.3,50.47L328.58,54.35L353.85,56.67L379.13,57.32L404.4,59.81L429.67,63.79L454.95,60.26L480.23,58.8L505.5,55.62L581.32,49.12L606.6,47.9L657.15,47.23L682.43,47.72L732.97,49.78L758.25,51.42L783.53,52.05L808.8,53.74L960.45,67.85L985.72,70.59L1011,69.17" style="vector-effect: none; fill: none; stroke: rgb(92, 184, 92); stroke-opacity: 1; stroke-width: 2px; opacity: 1;"/></g><g class="points"/><g class="text"/></g><g class="trace scatter traceee8b2c" style="stroke-miterlimit: 2; opacity: 1;"><g class="fills"/><g class="errorbars"/><g class="lines"><path class="js-line" d="M5.06,37.82L10.11,28.84L15.17,27.88L20.22,26.19L25.28,25.42L35.39,27.84L40.44,25.98L45.5,24.46L50.55,24.97L70.77,26.42L80.88,23.86L90.99,21.15L101.1,20.64L111.21,20.59L121.32,21.49L131.43,28.15L141.54,30.4L161.76,36.07L171.87,40.97L181.98,49.96L192.09,65.31L202.2,78.95L212.31,84.19L232.53,88.91L242.64,90.28L262.86,94.99L272.97,98.85L293.19,105.95L303.3,107.3L323.52,116.41L333.63,122.03L343.74,126.14L353.85,128.72L374.07,134.26L384.18,139.55L394.29,144.74L404.4,147.8L424.62,153.24L434.73,154.74L465.06,155.94L475.17,155.71L495.39,152.93L505.5,150.65" style="vector-effect: none; fill: none; stroke: rgb(240, 173, 78); stroke-opacity: 1; stroke-width: 2px; opacity: 1;"/></g><g class="points"/><g class="text"/></g><g class="trace scatter traceedd4c7" style="stroke-miterlimit: 2; opacity: 1;"><g class="fills"/><g class="errorbars"/><g class="lines"><path class="js-line" d="M5.06,32.08L10.11,26.11L15.17,24.11L20.22,24.36L25.28,23.82L30.33,24.36L35.39,23.65L45.5,23.41L50.55,23.36L75.82,26.14L101.1,30.41L126.38,37.48L151.65,41.56L176.93,44.12L202.2,45.61L227.48,47.93L252.75,49.33L278.02,51.82L303.3,55.25L379.13,63.35L404.4,65.6L429.67,68.81L454.95,65.82L480.23,64.36L505.5,61.63L556.05,57.49L581.32,56.04L631.88,54.68L657.15,54.82L707.7,56.21L732.97,57.58L758.25,59.31L783.53,59.58L834.08,63.06L859.35,65.28L935.18,71.1L960.45,73.52L985.72,75.89L1011,73.81" style="vector-effect: none; fill: none; stroke: rgb(92, 184, 92); stroke-opacity: 1; stroke-width: 2px; opacity: 1;"/></g><g class="points"/><g class="text"/></g></g></g></g><path class="xlines-above crisp" d="M0,0" style="fill: none;"/><path class="ylines-above crisp" d="M0,0" style="fill: none;"/><g class="overlines-above"/><g class="xaxislayer-above"><g class="xtick"><text text-anchor="middle" x="0" y="451" transform="translate(60,0)" style="font-family: 'Lucida Grande', 'Open Sans', verdana, arial, sans-serif; font-size: 10px; fill: rgb(0, 0, 0); fill-opacity: 1; white-space: pre; opacity: 1;">0 bp</text></g><g class="xtick"><text text-anchor="middle" x="0" y="451" style="font-family: 'Lucida Grande', 'Open Sans', verdana, arial, sans-serif; font-size: 10px; fill: rgb(0, 0, 0); fill-opacity: 1; white-space: pre; opacity: 1;" transform="translate(312.75,0)">50 bp</text></g><g class="xtick"><text text-anchor="middle" x="0" y="451" style="font-family: 'Lucida Grande', 'Open Sans', verdana, arial, sans-serif; font-size: 10px; fill: rgb(0, 0, 0); fill-opacity: 1; white-space: pre; opacity: 1;" transform="translate(565.5,0)">100 bp</text></g><g class="xtick"><text text-anchor="middle" x="0" y="451" style="font-family: 'Lucida Grande', 'Open Sans', verdana, arial, sans-serif; font-size: 10px; fill: rgb(0, 0, 0); fill-opacity: 1; white-space: pre; opacity: 1;" transform="translate(818.25,0)">150 bp</text></g><g class="xtick"><text text-anchor="middle" x="0" y="451" style="font-family: 'Lucida Grande', 'Open Sans', verdana, arial, sans-serif; font-size: 10px; fill: rgb(0, 0, 0); fill-opacity: 1; white-space: pre; opacity: 1;" transform="translate(1071,0)">200 bp</text></g></g><g class="yaxislayer-above"><g class="ytick"><text text-anchor="end" x="54" y="3.5" transform="translate(0,435)" style="font-family: 'Lucida Grande', 'Open Sans', verdana, arial, sans-serif; font-size: 10px; fill: rgb(0, 0, 0); fill-opacity: 1; white-space: pre; opacity: 1;">0</text></g><g class="ytick"><text text-anchor="end" x="54" y="3.5" style="font-family: 'Lucida Grande', 'Open Sans', verdana, arial, sans-serif; font-size: 10px; fill: rgb(0, 0, 0); fill-opacity: 1; white-space: pre; opacity: 1;" transform="translate(0,388.85)">5</text></g><g class="ytick"><text text-anchor="end" x="54" y="3.5" style="font-family: 'Lucida Grande', 'Open Sans', verdana, arial, sans-serif; font-size: 10px; fill: rgb(0, 0, 0); fill-opacity: 1; white-space: pre; opacity: 1;" transform="translate(0,342.71)">10</text></g><g class="ytick"><text text-anchor="end" x="54" y="3.5" style="font-family: 'Lucida Grande', 'Open Sans', verdana, arial, sans-serif; font-size: 10px; fill: rgb(0, 0, 0); fill-opacity: 1; white-space: pre; opacity: 1;" transform="translate(0,296.56)">15</text></g><g class="ytick"><text text-anchor="end" x="54" y="3.5" style="font-family: 'Lucida Grande', 'Open Sans', verdana, arial, sans-serif; font-size: 10px; fill: rgb(0, 0, 0); fill-opacity: 1; white-space: pre; opacity: 1;" transform="translate(0,250.42)">20</text></g><g class="ytick"><text text-anchor="end" x="54" y="3.5" style="font-family: 'Lucida Grande', 'Open Sans', verdana, arial, sans-serif; font-size: 10px; fill: rgb(0, 0, 0); fill-opacity: 1; white-space: pre; opacity: 1;" transform="translate(0,204.27)">25</text></g><g class="ytick"><text text-anchor="end" x="54" y="3.5" style="font-family: 'Lucida Grande', 'Open Sans', verdana, arial, sans-serif; font-size: 10px; fill: rgb(0, 0, 0); fill-opacity: 1; white-space: pre; opacity: 1;" transform="translate(0,158.13)">30</text></g><g class="ytick"><text text-anchor="end" x="54" y="3.5" style="font-family: 'Lucida Grande', 'Open Sans', verdana, arial, sans-serif; font-size: 10px; fill: rgb(0, 0, 0); fill-opacity: 1; white-space: pre; opacity: 1;" transform="translate(0,111.97999999999999)">35</text></g><g class="ytick"><text text-anchor="end" x="54" y="3.5" style="font-family: 'Lucida Grande', 'Open Sans', verdana, arial, sans-serif; font-size: 10px; fill: rgb(0, 0, 0); fill-opacity: 1; white-space: pre; opacity: 1;" transform="translate(0,65.84)">40</text></g></g><g class="overaxes-above"/></g></g><g class="polarlayer"/><g class="smithlayer"/><g class="ternarylayer"/><g class="geolayer"/><g class="funnelarealayer"/><g class="pielayer"/><g class="iciclelayer"/><g class="treemaplayer"/><g class="sunburstlayer"/><g class="glimages"/><defs id="topdefs-aad79a"><g class="clips"/></defs><g class="layer-above"><g class="imagelayer"/><g class="shapelayer"/></g><g class="infolayer"><g class="g-gtitle"><text class="gtitle" x="550" y="25" text-anchor="middle" dy="0em" style="opacity: 1; font-family: 'Lucida Grande', 'Open Sans', verdana, arial, sans-serif; font-size: 20px; fill: rgb(42, 63, 95); fill-opacity: 1; white-space: pre;"><tspan class="line" dy="0em" x="550" y="25">FastQC: Mean Quality Scores</tspan><tspan class="line" dy="1.3em" x="550" y="25"><tspan style="font-size:70%" dy="-0.6em">92 samples</tspan><tspan dy="0.42em"></tspan></tspan></text></g><g class="g-xtitle"><text class="xtitle" x="565.5" y="472.3" text-anchor="middle" style="opacity: 0.3; font-family: 'Lucida Grande', 'Open Sans', verdana, arial, sans-serif; font-size: 14px; fill: rgb(0, 0, 0); fill-opacity: 1; white-space: pre;">Position (bp)</text></g><g class="g-ytitle"><text class="ytitle" transform="rotate(-90,26.865625,242.5)" x="26.865625" y="242.5" text-anchor="middle" style="opacity: 0.3; font-family: 'Lucida Grande', 'Open Sans', verdana, arial, sans-serif; font-size: 14px; fill: rgb(0, 0, 0); fill-opacity: 1; white-space: pre;">Phred Score</text></g></g></svg>