<svg class="main-svg" xmlns="http://www.w3.org/2000/svg" xmlns:xlink="http://www.w3.org/1999/xlink" width="2200" height="546" style="" viewBox="0 0 1100 273"><rect x="0" y="0" width="1100" height="273" style="fill: rgb(255, 255, 255); fill-opacity: 1;"/><defs id="defs-28a53e"><g class="clips"><clipPath id="clip28a53exyplot" class="plotclip"><rect width="1005" height="42.230769230769226"/></clipPath><clipPath id="clip28a53ex2y2plot" class="plotclip"><rect width="1005" height="42.230769230769226"/></clipPath><clipPath id="clip28a53ex3y3plot" class="plotclip"><rect width="1005" height="42.230769230769226"/></clipPath><clipPath class="axesclip" id="clip28a53ex"><rect x="80" y="0" width="1005" height="273"/></clipPath><clipPath class="axesclip" id="clip28a53ey"><rect x="0" y="50.00000000000002" width="1100" height="42.230769230769226"/></clipPath><clipPath class="axesclip" id="clip28a53exy"><rect x="80" y="50.00000000000002" width="1005" height="42.230769230769226"/></clipPath><clipPath class="axesclip" id="clip28a53ey2"><rect x="0" y="120.3846153846154" width="1100" height="42.230769230769226"/></clipPath><clipPath class="axesclip" id="clip28a53exy2"><rect x="80" y="120.3846153846154" width="1005" height="42.230769230769226"/></clipPath><clipPath class="axesclip" id="clip28a53ey3"><rect x="0" y="190.76923076923077" width="1100" height="42.230769230769226"/></clipPath><clipPath class="axesclip" id="clip28a53exy3"><rect x="80" y="190.76923076923077" width="1005" height="42.230769230769226"/></clipPath><clipPath class="axesclip" id="clip28a53ex2"><rect x="80" y="0" width="1005" height="273"/></clipPath><clipPath class="axesclip" id="clip28a53ex2y"><rect x="80" y="50.00000000000002" width="1005" height="42.230769230769226"/></clipPath><clipPath class="axesclip" id="clip28a53ex2y2"><rect x="80" y="120.3846153846154" width="1005" height="42.230769230769226"/></clipPath><clipPath class="axesclip" id="clip28a53ex2y3"><rect x="80" y="190.76923076923077" width="1005" height="42.230769230769226"/></clipPath><clipPath class="axesclip" id="clip28a53ex3"><rect x="80" y="0" width="1005" height="273"/></clipPath><clipPath class="axesclip" id="clip28a53ex3y"><rect x="80" y="50.00000000000002" width="1005" height="42.230769230769226"/></clipPath><clipPath class="axesclip" id="clip28a53ex3y2"><rect x="80" y="120.3846153846154" width="1005" height="42.230769230769226"/></clipPath><clipPath class="axesclip" id="clip28a53ex3y3"><rect x="80" y="190.76923076923077" width="1005" height="42.230769230769226"/></clipPath></g><g class="gradients"/><g class="patterns"/></defs><g class="bglayer"/><g class="layer-below"><g class="imagelayer"/><g class="shapelayer"/></g><g class="cartesianlayer"><g class="subplot xy"><g class="layer-subplot"><g class="shapelayer"/><g class="imagelayer"/></g><g class="minor-gridlayer"><g class="x"/><g class="y"/></g><g class="gridlayer"><g class="x"><path class="xgrid crisp" transform="translate(198.05,0)" d="M0,50.00000000000002v42.230769230769226" style="stroke: rgb(0, 0, 0); stroke-opacity: 0.1; stroke-width: 1px;"/><path class="xgrid crisp" transform="translate(311.12,0)" d="M0,50.00000000000002v42.230769230769226" style="stroke: rgb(0, 0, 0); stroke-opacity: 0.1; stroke-width: 1px;"/><path class="xgrid crisp" transform="translate(424.19,0)" d="M0,50.00000000000002v42.230769230769226" style="stroke: rgb(0, 0, 0); stroke-opacity: 0.1; stroke-width: 1px;"/><path class="xgrid crisp" transform="translate(537.26,0)" d="M0,50.00000000000002v42.230769230769226" style="stroke: rgb(0, 0, 0); stroke-opacity: 0.1; stroke-width: 1px;"/><path class="xgrid crisp" transform="translate(650.33,0)" d="M0,50.00000000000002v42.230769230769226" style="stroke: rgb(0, 0, 0); stroke-opacity: 0.1; stroke-width: 1px;"/><path class="xgrid crisp" transform="translate(763.4,0)" d="M0,50.00000000000002v42.230769230769226" style="stroke: rgb(0, 0, 0); stroke-opacity: 0.1; stroke-width: 1px;"/><path class="xgrid crisp" transform="translate(876.47,0)" d="M0,50.00000000000002v42.230769230769226" style="stroke: rgb(0, 0, 0); stroke-opacity: 0.1; stroke-width: 1px;"/><path class="xgrid crisp" transform="translate(989.54,0)" d="M0,50.00000000000002v42.230769230769226" style="stroke: rgb(0, 0, 0); stroke-opacity: 0.1; stroke-width: 1px;"/></g><g class="y"><path class="ygrid crisp" transform="translate(0,71.12000000000002)" d="M80,0h1005" style="stroke: rgb(0, 0, 0); stroke-opacity: 0.1; stroke-width: 1px;"/></g></g><g class="zerolinelayer"><path class="xzl zl crisp" transform="translate(84.98,0)" d="M0,50.00000000000002v42.230769230769226" style="stroke: rgb(0, 0, 0); stroke-opacity: 0.1; stroke-width: 2px;"/></g><g class="layer-between"><g class="shapelayer"/><g class="imagelayer"/></g><path class="xlines-below"/><path class="ylines-below"/><g class="overlines-below"/><g class="xaxislayer-below"/><g class="yaxislayer-below"/><g class="overaxes-below"/><g class="overplot"><g class="xy" transform="translate(80,50.00000000000002)" clip-path="url(#clip28a53exyplot)"><g class="violinlayer mlayer"><g class="trace violins" style="opacity: 0.5;"><path class="violin" d="M62.65,20.68Q71.22,20.44 75.5,20.25C79.79,20.06 84.08,19.85 88.36,19.56C92.65,19.27 96.93,18.93 101.21,18.51C105.5,18.09 109.78,17.6 114.06,17.05C118.35,16.5 122.63,15.86 126.91,15.19C131.2,14.52 135.49,13.76 139.77,13.02C144.06,12.28 148.33,11.48 152.62,10.75C156.9,10.03 161.18,9.28 165.47,8.67C169.75,8.06 174.03,7.5 178.32,7.11C182.6,6.72 186.89,6.45 191.18,6.33C195.46,6.21 199.75,6.26 204.03,6.41C208.32,6.56 212.6,6.87 216.88,7.21C221.17,7.56 225.45,8.02 229.73,8.48C234.02,8.94 238.3,9.46 242.59,9.96C246.87,10.46 251.16,10.98 255.44,11.49C259.72,11.99 264.01,12.49 268.29,12.99C272.58,13.49 276.86,13.99 281.15,14.48C285.43,14.97 289.72,15.47 294,15.94C298.28,16.41 302.57,16.89 306.85,17.32C311.13,17.75 315.41,18.17 319.7,18.53C323.98,18.89 328.27,19.22 332.56,19.49C336.84,19.76 341.13,19.99 345.41,20.17C349.69,20.35 353.98,20.48 358.26,20.58C362.54,20.68 366.83,20.73 371.11,20.77C375.4,20.81 379.68,20.81 383.97,20.79C388.25,20.77 392.54,20.73 396.82,20.67C401.1,20.61 405.39,20.53 409.67,20.45C413.95,20.37 418.24,20.27 422.52,20.19C426.81,20.1 431.09,20.01 435.38,19.94C439.66,19.87 443.95,19.81 448.23,19.78C452.51,19.75 456.8,19.74 461.08,19.75C465.37,19.76 469.65,19.8 473.94,19.86C478.22,19.91 482.51,20 486.79,20.08C491.07,20.16 495.36,20.26 499.64,20.35C503.92,20.44 508.21,20.53 512.49,20.61C516.78,20.69 521.06,20.76 525.35,20.82C529.63,20.88 533.92,20.92 538.2,20.96C542.48,21 546.77,21.02 551.05,21.04C555.33,21.06 559.62,21.07 563.9,21.08C568.19,21.09 572.47,21.09 576.76,21.1C581.04,21.1 585.33,21.11 589.61,21.11C593.89,21.11 598.18,21.11 602.46,21.11C606.74,21.11 611.03,21.11 615.31,21.11C619.6,21.11 623.88,21.12 628.17,21.12C632.45,21.12 636.74,21.11 641.02,21.11C645.3,21.11 649.59,21.11 653.87,21.11C658.16,21.11 662.44,21.11 666.73,21.11C671.01,21.11 675.3,21.1 679.58,21.1C683.86,21.09 688.15,21.09 692.43,21.08C696.71,21.07 701,21.05 705.28,21.03C709.57,21 713.85,20.97 718.14,20.93C722.42,20.89 726.71,20.84 730.99,20.78C735.27,20.72 739.56,20.63 743.84,20.55C748.12,20.46 752.41,20.37 756.69,20.27C760.98,20.17 765.26,20.06 769.55,19.96C773.83,19.86 778.12,19.76 782.4,19.68C786.68,19.6 790.97,19.52 795.25,19.46C799.53,19.4 803.82,19.34 808.1,19.31C812.39,19.27 816.67,19.26 820.96,19.25C825.24,19.24 829.53,19.23 833.81,19.23C838.09,19.23 842.38,19.25 846.66,19.27C850.94,19.3 855.23,19.33 859.51,19.38C863.8,19.43 868.08,19.49 872.37,19.56C876.65,19.63 880.94,19.71 885.22,19.8C889.5,19.89 893.79,19.99 898.07,20.08C902.36,20.17 906.64,20.25 910.93,20.32C915.21,20.39 919.5,20.45 923.78,20.48C928.06,20.51 932.35,20.51 936.63,20.5C940.91,20.49 945.2,20.44 949.48,20.39C953.77,20.34 958.05,20.26 962.34,20.19C966.62,20.12 970.91,20.04 975.19,19.97C979.47,19.91 983.76,19.84 988.04,19.8C992.32,19.76 996.61,19.74 1000.89,19.74C1005.18,19.74 1009.46,19.77 1013.75,19.82C1018.03,19.87 1022.32,19.95 1026.6,20.03C1030.88,20.11 1035.17,20.2 1039.45,20.29C1043.73,20.38 1048.02,20.48 1052.3,20.56C1056.59,20.64 1060.87,20.72 1065.16,20.78Q1069.44,20.84 1078.01,20.93L1078.01,21.3Q1069.44,21.4 1065.16,21.46C1060.87,21.52 1056.59,21.59 1052.3,21.67C1048.02,21.75 1043.73,21.85 1039.45,21.94C1035.17,22.03 1030.88,22.12 1026.6,22.2C1022.32,22.28 1018.03,22.36 1013.75,22.41C1009.46,22.46 1005.18,22.49 1000.89,22.49C996.61,22.49 992.32,22.48 988.04,22.44C983.76,22.4 979.47,22.33 975.19,22.26C970.91,22.19 966.62,22.11 962.34,22.04C958.05,21.97 953.77,21.89 949.48,21.84C945.2,21.79 940.91,21.74 936.63,21.73C932.35,21.72 928.06,21.73 923.78,21.76C919.5,21.79 915.21,21.85 910.93,21.91C906.64,21.98 902.36,22.06 898.07,22.15C893.79,22.24 889.5,22.34 885.22,22.43C880.94,22.52 876.65,22.6 872.37,22.67C868.08,22.74 863.8,22.8 859.51,22.85C855.23,22.9 850.94,22.93 846.66,22.96C842.38,22.98 838.09,23 833.81,23C829.53,23 825.24,22.99 820.96,22.98C816.67,22.97 812.39,22.95 808.1,22.92C803.82,22.89 799.53,22.84 795.25,22.78C790.97,22.72 786.68,22.63 782.4,22.55C778.12,22.46 773.83,22.37 769.55,22.27C765.26,22.17 760.98,22.06 756.69,21.96C752.41,21.86 748.12,21.76 743.84,21.68C739.56,21.6 735.27,21.52 730.99,21.46C726.71,21.4 722.42,21.34 718.14,21.3C713.85,21.26 709.57,21.24 705.28,21.21C701,21.19 696.71,21.16 692.43,21.15C688.15,21.14 683.86,21.14 679.58,21.13C675.3,21.13 671.01,21.12 666.73,21.12C662.44,21.12 658.16,21.12 653.87,21.12C649.59,21.12 645.3,21.12 641.02,21.12C636.74,21.12 632.45,21.12 628.17,21.12C623.88,21.12 619.6,21.12 615.31,21.12C611.03,21.12 606.74,21.12 602.46,21.12C598.18,21.12 593.89,21.12 589.61,21.12C585.33,21.12 581.04,21.13 576.76,21.13C572.47,21.14 568.19,21.14 563.9,21.15C559.62,21.16 555.33,21.17 551.05,21.19C546.77,21.21 542.48,21.23 538.2,21.27C533.92,21.31 529.63,21.35 525.35,21.41C521.06,21.47 516.78,21.54 512.49,21.62C508.21,21.7 503.92,21.79 499.64,21.88C495.36,21.97 491.07,22.07 486.79,22.15C482.51,22.23 478.22,22.32 473.94,22.37C469.65,22.43 465.37,22.47 461.08,22.48C456.8,22.49 452.51,22.48 448.23,22.45C443.95,22.42 439.66,22.36 435.38,22.29C431.09,22.22 426.81,22.13 422.52,22.04C418.24,21.96 413.95,21.86 409.67,21.78C405.39,21.7 401.1,21.62 396.82,21.56C392.54,21.5 388.25,21.46 383.97,21.44C379.68,21.42 375.4,21.42 371.11,21.46C366.83,21.5 362.54,21.55 358.26,21.65C353.98,21.75 349.69,21.88 345.41,22.06C341.13,22.24 336.84,22.47 332.56,22.74C328.27,23.01 323.98,23.34 319.7,23.7C315.41,24.06 311.13,24.48 306.85,24.91C302.57,25.34 298.28,25.82 294,26.29C289.72,26.76 285.43,27.26 281.15,27.75C276.86,28.24 272.58,28.74 268.29,29.24C264.01,29.74 259.72,30.24 255.44,30.74C251.16,31.25 246.87,31.77 242.59,32.27C238.3,32.77 234.02,33.29 229.73,33.75C225.45,34.21 221.17,34.67 216.88,35.02C212.6,35.36 208.32,35.67 204.03,35.82C199.75,35.97 195.46,36.02 191.18,35.9C186.89,35.78 182.6,35.51 178.32,35.12C174.03,34.73 169.75,34.18 165.47,33.57C161.18,32.96 156.9,32.21 152.62,31.48C148.33,30.75 144.06,29.95 139.77,29.21C135.49,28.47 131.2,27.71 126.91,27.04C122.63,26.37 118.35,25.73 114.06,25.18C109.78,24.63 105.5,24.14 101.21,23.72C96.93,23.3 92.65,22.96 88.36,22.67C84.08,22.38 79.79,22.17 75.5,21.98Q71.22,21.79 62.65,21.55Z" style="vector-effect: none; stroke-width: 2px; stroke: rgb(181, 181, 181); stroke-opacity: 1; fill: rgb(181, 181, 181); fill-opacity: 1;"/><path class="box" d="M219.81,24.81V17.42M185.89,24.81V17.42H276.35V24.81ZM185.89,21.12H140.66M276.35,21.12H276.35" style="vector-effect: non-scaling-stroke; stroke-width: 2px; stroke: rgb(181, 181, 181); stroke-opacity: 1; fill: rgb(181, 181, 181); fill-opacity: 1;"/><path class="mean" d="M321.57,24.81V17.42" style="fill: none; vector-effect: non-scaling-stroke; stroke-width: 2px; stroke-dasharray: 4px, 2px; stroke: rgb(181, 181, 181); stroke-opacity: 1;"/></g></g><g class="scatterlayer mlayer"><g class="trace scatter trace5b9db9" style="stroke-miterlimit: 2; opacity: 1;"><g class="fills"/><g class="errorbars"/><g class="lines"/><g class="points"><path class="point" transform="translate(1000,21.12)" d="M2,0A2,2 0 1,1 0,-2A2,2 0 0,1 2,0Z" style="opacity: 1; stroke-width: 0px; fill: rgb(11, 121, 230); fill-opacity: 1;"/></g><g class="text"/></g><g class="trace scatter tracee46b7f" style="stroke-miterlimit: 2; opacity: 1;"><g class="fills"/><g class="errorbars"/><g class="lines"/><g class="points"><path class="point" transform="translate(864.31,21.12)" d="M2,0A2,2 0 1,1 0,-2A2,2 0 0,1 2,0Z" style="opacity: 1; stroke-width: 0px; fill: rgb(11, 121, 230); fill-opacity: 1;"/></g><g class="text"/></g><g class="trace scatter trace025abd" style="stroke-miterlimit: 2; opacity: 1;"><g class="fills"/><g class="errorbars"/><g class="lines"/><g class="points"><path class="point" transform="translate(796.47,21.12)" d="M2,0A2,2 0 1,1 0,-2A2,2 0 0,1 2,0Z" style="opacity: 1; stroke-width: 0px; fill: rgb(11, 121, 230); fill-opacity: 1;"/></g><g class="text"/></g><g class="trace scatter trace5bfc19" style="stroke-miterlimit: 2; opacity: 1;"><g class="fills"/><g class="errorbars"/><g class="lines"/><g class="points"><path class="point" transform="translate(457.26,21.12)" d="M2,0A2,2 0 1,1 0,-2A2,2 0 0,1 2,0Z" style="opacity: 1; stroke-width: 0px; fill: rgb(11, 121, 230); fill-opacity: 1;"/></g><g class="text"/></g><g class="trace scatter trace18600f" style="stroke-miterlimit: 2; opacity: 1;"><g class="fills"/><g class="errorbars"/><g class="lines"/><g class="points"><path class="point" transform="translate(276.35,21.12)" d="M2,0A2,2 0 1,1 0,-2A2,2 0 0,1 2,0Z" style="opacity: 1; stroke-width: 0px; fill: rgb(11, 121, 230); fill-opacity: 1;"/></g><g class="text"/></g><g class="trace scatter trace505be0" style="stroke-miterlimit: 2; opacity: 1;"><g class="fills"/><g class="errorbars"/><g class="lines"/><g class="points"><path class="point" transform="translate(276.35,21.12)" d="M2,0A2,2 0 1,1 0,-2A2,2 0 0,1 2,0Z" style="opacity: 1; stroke-width: 0px; fill: rgb(11, 121, 230); fill-opacity: 1;"/></g><g class="text"/></g><g class="trace scatter trace96d157" style="stroke-miterlimit: 2; opacity: 1;"><g class="fills"/><g class="errorbars"/><g class="lines"/><g class="points"><path class="point" transform="translate(276.35,21.12)" d="M2,0A2,2 0 1,1 0,-2A2,2 0 0,1 2,0Z" style="opacity: 1; stroke-width: 0px; fill: rgb(11, 121, 230); fill-opacity: 1;"/></g><g class="text"/></g><g class="trace scatter tracec504f4" style="stroke-miterlimit: 2; opacity: 1;"><g class="fills"/><g class="errorbars"/><g class="lines"/><g class="points"><path class="point" transform="translate(231.12,21.12)" d="M2,0A2,2 0 1,1 0,-2A2,2 0 0,1 2,0Z" style="opacity: 1; stroke-width: 0px; fill: rgb(11, 121, 230); fill-opacity: 1;"/></g><g class="text"/></g><g class="trace scatter trace79f280" style="stroke-miterlimit: 2; opacity: 1;"><g class="fills"/><g class="errorbars"/><g class="lines"/><g class="points"><path class="point" transform="translate(231.12,21.12)" d="M2,0A2,2 0 1,1 0,-2A2,2 0 0,1 2,0Z" style="opacity: 1; stroke-width: 0px; fill: rgb(11, 121, 230); fill-opacity: 1;"/></g><g class="text"/></g><g class="trace scatter tracef7507c" style="stroke-miterlimit: 2; opacity: 1;"><g class="fills"/><g class="errorbars"/><g class="lines"/><g class="points"><path class="point" transform="translate(231.12,21.12)" d="M2,0A2,2 0 1,1 0,-2A2,2 0 0,1 2,0Z" style="opacity: 1; stroke-width: 0px; fill: rgb(11, 121, 230); fill-opacity: 1;"/></g><g class="text"/></g><g class="trace scatter traceaae419" style="stroke-miterlimit: 2; opacity: 1;"><g class="fills"/><g class="errorbars"/><g class="lines"/><g class="points"><path class="point" transform="translate(208.5,21.12)" d="M2,0A2,2 0 1,1 0,-2A2,2 0 0,1 2,0Z" style="opacity: 1; stroke-width: 0px; fill: rgb(11, 121, 230); fill-opacity: 1;"/></g><g class="text"/></g><g class="trace scatter trace871dd5" style="stroke-miterlimit: 2; opacity: 1;"><g class="fills"/><g class="errorbars"/><g class="lines"/><g class="points"><path class="point" transform="translate(185.89,21.12)" d="M2,0A2,2 0 1,1 0,-2A2,2 0 0,1 2,0Z" style="opacity: 1; stroke-width: 0px; fill: rgb(11, 121, 230); fill-opacity: 1;"/></g><g class="text"/></g><g class="trace scatter trace92c0bd" style="stroke-miterlimit: 2; opacity: 1;"><g class="fills"/><g class="errorbars"/><g class="lines"/><g class="points"><path class="point" transform="translate(185.89,21.12)" d="M2,0A2,2 0 1,1 0,-2A2,2 0 0,1 2,0Z" style="opacity: 1; stroke-width: 0px; fill: rgb(11, 121, 230); fill-opacity: 1;"/></g><g class="text"/></g><g class="trace scatter trace25bcca" style="stroke-miterlimit: 2; opacity: 1;"><g class="fills"/><g class="errorbars"/><g class="lines"/><g class="points"><path class="point" transform="translate(185.89,21.12)" d="M2,0A2,2 0 1,1 0,-2A2,2 0 0,1 2,0Z" style="opacity: 1; stroke-width: 0px; fill: rgb(11, 121, 230); fill-opacity: 1;"/></g><g class="text"/></g><g class="trace scatter trace5a93ef" style="stroke-miterlimit: 2; opacity: 1;"><g class="fills"/><g class="errorbars"/><g class="lines"/><g class="points"><path class="point" transform="translate(185.89,21.12)" d="M2,0A2,2 0 1,1 0,-2A2,2 0 0,1 2,0Z" style="opacity: 1; stroke-width: 0px; fill: rgb(11, 121, 230); fill-opacity: 1;"/></g><g class="text"/></g><g class="trace scatter trace602c49" style="stroke-miterlimit: 2; opacity: 1;"><g class="fills"/><g class="errorbars"/><g class="lines"/><g class="points"><path class="point" transform="translate(185.89,21.12)" d="M2,0A2,2 0 1,1 0,-2A2,2 0 0,1 2,0Z" style="opacity: 1; stroke-width: 0px; fill: rgb(11, 121, 230); fill-opacity: 1;"/></g><g class="text"/></g><g class="trace scatter trace09914a" style="stroke-miterlimit: 2; opacity: 1;"><g class="fills"/><g class="errorbars"/><g class="lines"/><g class="points"><path class="point" transform="translate(185.89,21.12)" d="M2,0A2,2 0 1,1 0,-2A2,2 0 0,1 2,0Z" style="opacity: 1; stroke-width: 0px; fill: rgb(11, 121, 230); fill-opacity: 1;"/></g><g class="text"/></g><g class="trace scatter tracef716e6" style="stroke-miterlimit: 2; opacity: 1;"><g class="fills"/><g class="errorbars"/><g class="lines"/><g class="points"><path class="point" transform="translate(185.89,21.12)" d="M2,0A2,2 0 1,1 0,-2A2,2 0 0,1 2,0Z" style="opacity: 1; stroke-width: 0px; fill: rgb(11, 121, 230); fill-opacity: 1;"/></g><g class="text"/></g><g class="trace scatter trace1d9e80" style="stroke-miterlimit: 2; opacity: 1;"><g class="fills"/><g class="errorbars"/><g class="lines"/><g class="points"><path class="point" transform="translate(140.66,21.12)" d="M2,0A2,2 0 1,1 0,-2A2,2 0 0,1 2,0Z" style="opacity: 1; stroke-width: 0px; fill: rgb(11, 121, 230); fill-opacity: 1;"/></g><g class="text"/></g><g class="trace scatter tracebfb047" style="stroke-miterlimit: 2; opacity: 1;"><g class="fills"/><g class="errorbars"/><g class="lines"/><g class="points"><path class="point" transform="translate(140.66,21.12)" d="M2,0A2,2 0 1,1 0,-2A2,2 0 0,1 2,0Z" style="opacity: 1; stroke-width: 0px; fill: rgb(11, 121, 230); fill-opacity: 1;"/></g><g class="text"/></g></g></g></g><path class="xlines-above crisp" d="M0,0" style="fill: none;"/><path class="ylines-above crisp" d="M0,0" style="fill: none;"/><g class="overlines-above"/><g class="xaxislayer-above"><g class="xtick"><text text-anchor="middle" x="0" y="102.23076923076925" transform="translate(84.98,0)" style="font-family: 'Lucida Grande', 'Open Sans', verdana, arial, sans-serif; font-size: 9px; fill: rgb(0, 0, 0); fill-opacity: 0.5; white-space: pre; opacity: 1;">0</text></g><g class="xtick"><text text-anchor="middle" x="0" y="102.23076923076925" style="font-family: 'Lucida Grande', 'Open Sans', verdana, arial, sans-serif; font-size: 9px; fill: rgb(0, 0, 0); fill-opacity: 0.5; white-space: pre; opacity: 1;" transform="translate(198.05,0)">5</text></g><g class="xtick"><text text-anchor="middle" x="0" y="102.23076923076925" style="font-family: 'Lucida Grande', 'Open Sans', verdana, arial, sans-serif; font-size: 9px; fill: rgb(0, 0, 0); fill-opacity: 0.5; white-space: pre; opacity: 1;" transform="translate(311.12,0)">10</text></g><g class="xtick"><text text-anchor="middle" x="0" y="102.23076923076925" style="font-family: 'Lucida Grande', 'Open Sans', verdana, arial, sans-serif; font-size: 9px; fill: rgb(0, 0, 0); fill-opacity: 0.5; white-space: pre; opacity: 1;" transform="translate(424.19,0)">15</text></g><g class="xtick"><text text-anchor="middle" x="0" y="102.23076923076925" style="font-family: 'Lucida Grande', 'Open Sans', verdana, arial, sans-serif; font-size: 9px; fill: rgb(0, 0, 0); fill-opacity: 0.5; white-space: pre; opacity: 1;" transform="translate(537.26,0)">20</text></g><g class="xtick"><text text-anchor="middle" x="0" y="102.23076923076925" style="font-family: 'Lucida Grande', 'Open Sans', verdana, arial, sans-serif; font-size: 9px; fill: rgb(0, 0, 0); fill-opacity: 0.5; white-space: pre; opacity: 1;" transform="translate(650.33,0)">25</text></g><g class="xtick"><text text-anchor="middle" x="0" y="102.23076923076925" style="font-family: 'Lucida Grande', 'Open Sans', verdana, arial, sans-serif; font-size: 9px; fill: rgb(0, 0, 0); fill-opacity: 0.5; white-space: pre; opacity: 1;" transform="translate(763.4,0)">30</text></g><g class="xtick"><text text-anchor="middle" x="0" y="102.23076923076925" style="font-family: 'Lucida Grande', 'Open Sans', verdana, arial, sans-serif; font-size: 9px; fill: rgb(0, 0, 0); fill-opacity: 0.5; white-space: pre; opacity: 1;" transform="translate(876.47,0)">35</text></g><g class="xtick"><text text-anchor="middle" x="0" y="102.23076923076925" style="font-family: 'Lucida Grande', 'Open Sans', verdana, arial, sans-serif; font-size: 9px; fill: rgb(0, 0, 0); fill-opacity: 0.5; white-space: pre; opacity: 1;" transform="translate(989.54,0)">40</text></g></g><g class="yaxislayer-above"><g class="ytick"><text text-anchor="end" x="79" y="3.15" transform="translate(0,71.12000000000002)" style="font-family: 'Lucida Grande', 'Open Sans', verdana, arial, sans-serif; font-size: 9px; fill: rgb(0, 0, 0); fill-opacity: 0.5; white-space: pre; opacity: 1;">Reports  </text></g></g><g class="overaxes-above"/></g><g class="subplot x2y2"><g class="layer-subplot"><g class="shapelayer"/><g class="imagelayer"/></g><g class="minor-gridlayer"><g class="x2"/><g class="y2"/></g><g class="gridlayer"><g class="x2"><path class="x2grid crisp" transform="translate(252.46,0)" d="M0,120.3846153846154v42.230769230769226" style="stroke: rgb(0, 0, 0); stroke-opacity: 0.1; stroke-width: 1px;"/><path class="x2grid crisp" transform="translate(419.95,0)" d="M0,120.3846153846154v42.230769230769226" style="stroke: rgb(0, 0, 0); stroke-opacity: 0.1; stroke-width: 1px;"/><path class="x2grid crisp" transform="translate(587.4300000000001,0)" d="M0,120.3846153846154v42.230769230769226" style="stroke: rgb(0, 0, 0); stroke-opacity: 0.1; stroke-width: 1px;"/><path class="x2grid crisp" transform="translate(754.92,0)" d="M0,120.3846153846154v42.230769230769226" style="stroke: rgb(0, 0, 0); stroke-opacity: 0.1; stroke-width: 1px;"/><path class="x2grid crisp" transform="translate(922.41,0)" d="M0,120.3846153846154v42.230769230769226" style="stroke: rgb(0, 0, 0); stroke-opacity: 0.1; stroke-width: 1px;"/></g><g class="y2"><path class="y2grid crisp" transform="translate(0,141.5046153846154)" d="M80,0h1005" style="stroke: rgb(0, 0, 0); stroke-opacity: 0.1; stroke-width: 1px;"/></g></g><g class="zerolinelayer"><path class="x2zl zl crisp" transform="translate(84.98,0)" d="M0,120.3846153846154v42.230769230769226" style="stroke: rgb(0, 0, 0); stroke-opacity: 0.1; stroke-width: 2px;"/></g><g class="layer-between"><g class="shapelayer"/><g class="imagelayer"/></g><path class="xlines-below"/><path class="ylines-below"/><g class="overlines-below"/><g class="xaxislayer-below"/><g class="yaxislayer-below"/><g class="overaxes-below"/><g class="overplot"><g class="x2y2" transform="translate(80,120.3846153846154)" clip-path="url(#clip28a53ex2y2plot)"><g class="violinlayer mlayer"><g class="trace violins" style="opacity: 0.5;"><path class="violin" d="M-14.2,20.27Q-10.24,19.78 -8.27,19.4C-6.28,19.02 -4.3,18.55 -2.34,17.98C-0.35,17.4 1.63,16.7 3.59,15.95C5.58,15.19 7.55,14.3 9.52,13.43C11.5,12.56 13.46,11.59 15.45,10.74C17.42,9.9 19.38,9.04 21.38,8.38C23.34,7.73 25.32,7.15 27.31,6.81C29.27,6.47 31.27,6.31 33.25,6.33C35.23,6.35 37.21,6.59 39.18,6.91C41.17,7.23 43.14,7.75 45.11,8.27C47.1,8.79 49.07,9.44 51.04,10.04C53.02,10.64 54.99,11.29 56.97,11.89C58.94,12.49 60.92,13.09 62.9,13.65C64.87,14.21 66.85,14.75 68.83,15.26C70.81,15.77 72.79,16.24 74.77,16.69C76.74,17.14 78.72,17.57 80.7,17.95C82.67,18.33 84.65,18.68 86.63,18.99C88.6,19.3 90.58,19.57 92.56,19.79C94.53,20.01 96.51,20.19 98.49,20.33C100.47,20.47 102.44,20.58 104.42,20.65C106.4,20.72 108.37,20.76 110.35,20.77C112.33,20.78 114.3,20.77 116.28,20.74C118.26,20.71 120.24,20.65 122.22,20.58C124.2,20.51 126.17,20.43 128.15,20.34C130.13,20.25 132.1,20.15 134.08,20.06C136.06,19.97 138.03,19.88 140.01,19.8C141.99,19.72 143.96,19.64 145.94,19.58C147.92,19.52 149.89,19.48 151.87,19.44C153.85,19.41 155.82,19.38 157.8,19.37C159.78,19.36 161.75,19.37 163.73,19.38C165.71,19.39 167.69,19.42 169.67,19.46C171.65,19.5 173.62,19.56 175.6,19.62C177.58,19.68 179.55,19.76 181.53,19.84C183.51,19.92 185.48,20.03 187.46,20.12C189.44,20.21 191.41,20.31 193.39,20.4C195.37,20.49 197.34,20.58 199.32,20.65C201.3,20.72 203.27,20.79 205.25,20.84C207.23,20.89 209.2,20.94 211.18,20.97C213.16,21.01 215.14,21.03 217.12,21.05C219.1,21.07 221.07,21.08 223.05,21.09C225.03,21.1 227,21.1 228.98,21.1C230.96,21.1 232.93,21.11 234.91,21.11C236.89,21.11 238.86,21.11 240.84,21.11C242.82,21.11 244.79,21.12 246.77,21.12C248.75,21.12 250.72,21.12 252.7,21.12C254.68,21.12 256.65,21.12 258.63,21.12C260.61,21.12 262.59,21.12 264.57,21.12C266.55,21.12 268.52,21.12 270.5,21.12C272.48,21.12 274.45,21.12 276.43,21.12C278.41,21.12 280.38,21.12 282.36,21.12C284.34,21.12 286.31,21.12 288.29,21.12C290.27,21.12 292.24,21.12 294.22,21.12C296.2,21.12 298.17,21.12 300.15,21.12C302.13,21.12 304.11,21.12 306.09,21.12C308.07,21.12 310.04,21.12 312.02,21.12C314,21.12 315.97,21.12 317.95,21.12C319.93,21.12 321.9,21.12 323.88,21.12C325.86,21.12 327.83,21.12 329.81,21.12C331.79,21.12 333.76,21.12 335.74,21.12C337.72,21.12 339.69,21.12 341.67,21.12C343.65,21.12 345.62,21.12 347.6,21.12C349.58,21.12 351.56,21.12 353.54,21.12C355.52,21.12 357.49,21.12 359.47,21.12C361.45,21.12 363.42,21.12 365.4,21.12C367.38,21.12 369.35,21.12 371.33,21.12C373.31,21.12 375.28,21.12 377.26,21.12C379.24,21.12 381.21,21.12 383.19,21.12C385.17,21.12 387.14,21.12 389.12,21.12C391.1,21.12 393.07,21.11 395.05,21.11C397.03,21.11 399.01,21.11 400.99,21.11C402.97,21.11 404.94,21.11 406.92,21.11C408.9,21.11 410.87,21.11 412.85,21.1C414.83,21.09 416.8,21.08 418.78,21.07C420.76,21.06 422.73,21.04 424.71,21.02C426.69,20.99 428.66,20.96 430.64,20.92C432.62,20.88 434.59,20.82 436.57,20.76C438.55,20.7 440.52,20.62 442.5,20.55C444.48,20.47 446.46,20.39 448.44,20.31C450.42,20.23 452.39,20.15 454.37,20.09C456.35,20.03 458.32,19.98 460.3,19.95C462.28,19.92 464.25,19.91 466.23,19.92C468.21,19.93 470.18,19.97 472.16,20.02C474.14,20.07 476.11,20.15 478.09,20.22C480.07,20.29 482.04,20.38 484.02,20.46C486,20.54 487.97,20.62 489.95,20.69C491.93,20.76 493.91,20.81 495.89,20.86C497.87,20.91 499.84,20.95 501.82,20.98C503.8,21.01 505.77,21.03 507.75,21.05C509.73,21.07 511.7,21.08 513.68,21.09C515.66,21.1 517.63,21.11 519.61,21.11C521.59,21.11 523.56,21.11 525.54,21.11C527.52,21.11 529.49,21.11 531.47,21.11C533.45,21.11 535.43,21.12 537.41,21.12C539.39,21.12 541.36,21.12 543.34,21.12C545.32,21.12 547.29,21.12 549.27,21.12C551.25,21.12 553.22,21.12 555.2,21.12C557.18,21.12 559.15,21.12 561.13,21.12C563.11,21.12 565.08,21.12 567.06,21.12C569.04,21.12 571.01,21.12 572.99,21.12C574.97,21.12 576.94,21.12 578.92,21.12C580.9,21.12 582.88,21.12 584.86,21.12C586.84,21.12 588.81,21.12 590.79,21.12C592.77,21.12 594.74,21.12 596.72,21.12C598.7,21.12 600.67,21.12 602.65,21.12C604.63,21.12 606.6,21.12 608.58,21.12C610.56,21.12 612.53,21.12 614.51,21.12C616.49,21.12 618.46,21.12 620.44,21.12C622.42,21.12 624.39,21.12 626.37,21.12C628.35,21.12 630.33,21.12 632.31,21.12C634.29,21.12 636.26,21.12 638.24,21.12C640.22,21.12 642.19,21.12 644.17,21.12C646.15,21.12 648.12,21.12 650.1,21.12C652.08,21.12 654.05,21.12 656.03,21.12C658.01,21.12 659.98,21.12 661.96,21.12C663.94,21.12 665.91,21.12 667.89,21.12C669.87,21.12 671.84,21.12 673.82,21.12C675.8,21.12 677.78,21.12 679.76,21.12C681.74,21.12 683.71,21.12 685.69,21.12C687.67,21.12 689.64,21.12 691.62,21.12C693.6,21.12 695.57,21.12 697.55,21.12C699.53,21.12 701.5,21.12 703.48,21.12C705.46,21.12 707.43,21.12 709.41,21.12C711.39,21.12 713.36,21.12 715.34,21.12C717.32,21.12 719.3,21.12 721.28,21.12C723.26,21.12 725.23,21.12 727.21,21.12C729.19,21.12 731.16,21.12 733.14,21.12C735.12,21.12 737.09,21.12 739.07,21.12C741.05,21.12 743.02,21.12 745,21.12C746.98,21.12 748.95,21.12 750.93,21.12C752.91,21.12 754.88,21.12 756.86,21.12C758.84,21.12 760.81,21.12 762.79,21.12C764.77,21.12 766.75,21.12 768.73,21.12C770.71,21.12 772.68,21.12 774.66,21.12C776.64,21.12 778.61,21.12 780.59,21.12C782.57,21.12 784.54,21.12 786.52,21.12C788.5,21.12 790.47,21.12 792.45,21.12C794.43,21.12 796.4,21.12 798.38,21.12C800.36,21.12 802.33,21.12 804.31,21.12C806.29,21.12 808.26,21.12 810.24,21.12C812.22,21.12 814.2,21.12 816.18,21.12C818.16,21.12 820.13,21.12 822.11,21.12C824.09,21.12 826.06,21.12 828.04,21.12C830.02,21.12 831.99,21.12 833.97,21.12C835.95,21.12 837.92,21.12 839.9,21.12C841.88,21.12 843.85,21.12 845.83,21.12C847.81,21.12 849.78,21.12 851.76,21.12C853.74,21.12 855.71,21.12 857.69,21.12C859.67,21.12 861.65,21.12 863.63,21.12C865.61,21.12 867.58,21.12 869.56,21.12C871.54,21.12 873.51,21.12 875.49,21.12C877.47,21.12 879.44,21.12 881.42,21.12C883.4,21.12 885.37,21.12 887.35,21.12C889.33,21.12 891.3,21.12 893.28,21.12C895.26,21.12 897.23,21.12 899.21,21.12C901.19,21.12 903.16,21.12 905.14,21.12C907.12,21.12 909.1,21.12 911.08,21.12C913.06,21.12 915.03,21.12 917.01,21.12C918.99,21.12 920.96,21.12 922.94,21.12C924.92,21.12 926.89,21.11 928.87,21.11C930.85,21.11 932.82,21.11 934.8,21.11C936.78,21.11 938.75,21.11 940.73,21.11C942.71,21.11 944.68,21.1 946.66,21.1C948.64,21.09 950.62,21.09 952.6,21.08C954.58,21.07 956.55,21.06 958.53,21.04C960.51,21.02 962.48,20.99 964.46,20.95C966.44,20.91 968.41,20.86 970.39,20.81C972.37,20.75 974.34,20.69 976.32,20.62C978.3,20.55 980.27,20.47 982.25,20.39C984.23,20.31 986.2,20.22 988.18,20.15C990.16,20.08 992.13,20.02 994.11,19.98C996.09,19.94 998.07,19.92 1000.05,19.92C1002.03,19.92 1004,19.94 1005.98,19.98C1007.96,20.02 1009.93,20.09 1011.91,20.16C1013.89,20.23 1015.86,20.31 1017.84,20.39C1019.82,20.47 1021.79,20.55 1023.77,20.62C1025.75,20.69 1027.72,20.76 1029.7,20.82Q1031.68,20.87 1035.63,20.95L1035.63,21.28Q1031.68,21.36 1029.7,21.41C1027.72,21.47 1025.75,21.54 1023.77,21.61C1021.79,21.68 1019.82,21.76 1017.84,21.84C1015.86,21.92 1013.89,22 1011.91,22.07C1009.93,22.14 1007.96,22.21 1005.98,22.25C1004,22.29 1002.03,22.31 1000.05,22.31C998.07,22.31 996.09,22.29 994.11,22.25C992.13,22.21 990.16,22.15 988.18,22.08C986.2,22.01 984.23,21.93 982.25,21.85C980.27,21.77 978.3,21.68 976.32,21.61C974.34,21.54 972.37,21.48 970.39,21.42C968.41,21.37 966.44,21.32 964.46,21.28C962.48,21.24 960.51,21.22 958.53,21.2C956.55,21.18 954.58,21.16 952.6,21.15C950.62,21.14 948.64,21.14 946.66,21.13C944.68,21.13 942.71,21.12 940.73,21.12C938.75,21.12 936.78,21.12 934.8,21.12C932.82,21.12 930.85,21.12 928.87,21.12C926.89,21.12 924.92,21.12 922.94,21.12C920.96,21.12 918.99,21.12 917.01,21.12C915.03,21.12 913.06,21.12 911.08,21.12C909.1,21.12 907.12,21.12 905.14,21.12C903.16,21.12 901.19,21.12 899.21,21.12C897.23,21.12 895.26,21.12 893.28,21.12C891.3,21.12 889.33,21.12 887.35,21.12C885.37,21.12 883.4,21.12 881.42,21.12C879.44,21.12 877.47,21.12 875.49,21.12C873.51,21.12 871.54,21.12 869.56,21.12C867.58,21.12 865.61,21.12 863.63,21.12C861.65,21.12 859.67,21.12 857.69,21.12C855.71,21.12 853.74,21.12 851.76,21.12C849.78,21.12 847.81,21.12 845.83,21.12C843.85,21.12 841.88,21.12 839.9,21.12C837.92,21.12 835.95,21.12 833.97,21.12C831.99,21.12 830.02,21.12 828.04,21.12C826.06,21.12 824.09,21.12 822.11,21.12C820.13,21.12 818.16,21.12 816.18,21.12C814.2,21.12 812.22,21.12 810.24,21.12C808.26,21.12 806.29,21.12 804.31,21.12C802.33,21.12 800.36,21.12 798.38,21.12C796.4,21.12 794.43,21.12 792.45,21.12C790.47,21.12 788.5,21.12 786.52,21.12C784.54,21.12 782.57,21.12 780.59,21.12C778.61,21.12 776.64,21.12 774.66,21.12C772.68,21.12 770.71,21.12 768.73,21.12C766.75,21.12 764.77,21.12 762.79,21.12C760.81,21.12 758.84,21.12 756.86,21.12C754.88,21.12 752.91,21.12 750.93,21.12C748.95,21.12 746.98,21.12 745,21.12C743.02,21.12 741.05,21.12 739.07,21.12C737.09,21.12 735.12,21.12 733.14,21.12C731.16,21.12 729.19,21.12 727.21,21.12C725.23,21.12 723.26,21.12 721.28,21.12C719.3,21.12 717.32,21.12 715.34,21.12C713.36,21.12 711.39,21.12 709.41,21.12C707.43,21.12 705.46,21.12 703.48,21.12C701.5,21.12 699.53,21.12 697.55,21.12C695.57,21.12 693.6,21.12 691.62,21.12C689.64,21.12 687.67,21.12 685.69,21.12C683.71,21.12 681.74,21.12 679.76,21.12C677.78,21.12 675.8,21.12 673.82,21.12C671.84,21.12 669.87,21.12 667.89,21.12C665.91,21.12 663.94,21.12 661.96,21.12C659.98,21.12 658.01,21.12 656.03,21.12C654.05,21.12 652.08,21.12 650.1,21.12C648.12,21.12 646.15,21.12 644.17,21.12C642.19,21.12 640.22,21.12 638.24,21.12C636.26,21.12 634.29,21.12 632.31,21.12C630.33,21.12 628.35,21.12 626.37,21.12C624.39,21.12 622.42,21.12 620.44,21.12C618.46,21.12 616.49,21.12 614.51,21.12C612.53,21.12 610.56,21.12 608.58,21.12C606.6,21.12 604.63,21.12 602.65,21.12C600.67,21.12 598.7,21.12 596.72,21.12C594.74,21.12 592.77,21.12 590.79,21.12C588.81,21.12 586.84,21.12 584.86,21.12C582.88,21.12 580.9,21.12 578.92,21.12C576.94,21.12 574.97,21.12 572.99,21.12C571.01,21.12 569.04,21.12 567.06,21.12C565.08,21.12 563.11,21.12 561.13,21.12C559.15,21.12 557.18,21.12 555.2,21.12C553.22,21.12 551.25,21.12 549.27,21.12C547.29,21.12 545.32,21.12 543.34,21.12C541.36,21.12 539.39,21.12 537.41,21.12C535.43,21.12 533.45,21.12 531.47,21.12C529.49,21.12 527.52,21.12 525.54,21.12C523.56,21.12 521.59,21.13 519.61,21.13C517.63,21.13 515.66,21.13 513.68,21.14C511.7,21.15 509.73,21.16 507.75,21.18C505.77,21.2 503.8,21.22 501.82,21.25C499.84,21.28 497.87,21.32 495.89,21.37C493.91,21.42 491.93,21.48 489.95,21.55C487.97,21.62 486,21.69 484.02,21.77C482.04,21.85 480.07,21.94 478.09,22.01C476.11,22.08 474.14,22.16 472.16,22.21C470.18,22.26 468.21,22.3 466.23,22.31C464.25,22.32 462.28,22.31 460.3,22.28C458.32,22.25 456.35,22.2 454.37,22.14C452.39,22.08 450.42,22 448.44,21.92C446.46,21.84 444.48,21.76 442.5,21.68C440.52,21.61 438.55,21.53 436.57,21.47C434.59,21.41 432.62,21.35 430.64,21.31C428.66,21.27 426.69,21.25 424.71,21.22C422.73,21.2 420.76,21.18 418.78,21.16C416.8,21.15 414.83,21.14 412.85,21.13C410.87,21.12 408.9,21.12 406.92,21.12C404.94,21.12 402.97,21.12 400.99,21.12C399.01,21.12 397.03,21.12 395.05,21.12C393.07,21.12 391.1,21.12 389.12,21.12C387.14,21.12 385.17,21.12 383.19,21.12C381.21,21.12 379.24,21.12 377.26,21.12C375.28,21.12 373.31,21.12 371.33,21.12C369.35,21.12 367.38,21.12 365.4,21.12C363.42,21.12 361.45,21.12 359.47,21.12C357.49,21.12 355.52,21.12 353.54,21.12C351.56,21.12 349.58,21.12 347.6,21.12C345.62,21.12 343.65,21.12 341.67,21.12C339.69,21.12 337.72,21.12 335.74,21.12C333.76,21.12 331.79,21.12 329.81,21.12C327.83,21.12 325.86,21.12 323.88,21.12C321.9,21.12 319.93,21.12 317.95,21.12C315.97,21.12 314,21.12 312.02,21.12C310.04,21.12 308.07,21.12 306.09,21.12C304.11,21.12 302.13,21.12 300.15,21.12C298.17,21.12 296.2,21.12 294.22,21.12C292.24,21.12 290.27,21.12 288.29,21.12C286.31,21.12 284.34,21.12 282.36,21.12C280.38,21.12 278.41,21.12 276.43,21.12C274.45,21.12 272.48,21.12 270.5,21.12C268.52,21.12 266.55,21.12 264.57,21.12C262.59,21.12 260.61,21.12 258.63,21.12C256.65,21.12 254.68,21.12 252.7,21.12C250.72,21.12 248.75,21.12 246.77,21.12C244.79,21.12 242.82,21.12 240.84,21.12C238.86,21.12 236.89,21.12 234.91,21.12C232.93,21.12 230.96,21.13 228.98,21.13C227,21.13 225.03,21.13 223.05,21.14C221.07,21.15 219.1,21.16 217.12,21.18C215.14,21.2 213.16,21.22 211.18,21.26C209.2,21.29 207.23,21.34 205.25,21.39C203.27,21.44 201.3,21.51 199.32,21.58C197.34,21.65 195.37,21.74 193.39,21.83C191.41,21.92 189.44,22.02 187.46,22.11C185.48,22.2 183.51,22.3 181.53,22.39C179.55,22.47 177.58,22.56 175.6,22.62C173.62,22.68 171.65,22.73 169.67,22.77C167.69,22.81 165.71,22.84 163.73,22.85C161.75,22.86 159.78,22.87 157.8,22.86C155.82,22.85 153.85,22.82 151.87,22.79C149.89,22.75 147.92,22.71 145.94,22.65C143.96,22.59 141.99,22.51 140.01,22.43C138.03,22.35 136.06,22.26 134.08,22.17C132.1,22.08 130.13,21.98 128.15,21.89C126.17,21.8 124.2,21.72 122.22,21.65C120.24,21.58 118.26,21.52 116.28,21.49C114.3,21.46 112.33,21.45 110.35,21.46C108.37,21.47 106.4,21.51 104.42,21.58C102.44,21.65 100.47,21.76 98.49,21.9C96.51,22.04 94.53,22.22 92.56,22.44C90.58,22.66 88.6,22.93 86.63,23.24C84.65,23.55 82.67,23.9 80.7,24.28C78.72,24.66 76.74,25.09 74.77,25.54C72.79,25.99 70.81,26.46 68.83,26.97C66.85,27.48 64.87,28.02 62.9,28.58C60.92,29.14 58.94,29.74 56.97,30.34C54.99,30.94 53.02,31.59 51.04,32.19C49.07,32.79 47.1,33.44 45.11,33.96C43.14,34.48 41.17,35 39.18,35.32C37.21,35.64 35.23,35.88 33.25,35.9C31.27,35.92 29.27,35.76 27.31,35.42C25.32,35.08 23.34,34.51 21.38,33.86C19.38,33.2 17.42,32.33 15.45,31.49C13.46,30.64 11.5,29.67 9.52,28.8C7.55,27.93 5.58,27.04 3.59,26.28C1.63,25.53 -0.35,24.83 -2.34,24.25C-4.3,23.68 -6.28,23.21 -8.27,22.83Q-10.24,22.45 -14.2,21.96Z" style="vector-effect: none; stroke-width: 2px; stroke: rgb(181, 181, 181); stroke-opacity: 1; fill: rgb(181, 181, 181); fill-opacity: 1;"/><path class="box" d="M38.24,24.81V17.42M27.52,24.81V17.42H68.84V24.81ZM27.52,21.12H21.43M68.84,21.12H69.42" style="vector-effect: non-scaling-stroke; stroke-width: 2px; stroke: rgb(181, 181, 181); stroke-opacity: 1; fill: rgb(181, 181, 181); fill-opacity: 1;"/><path class="mean" d="M119.69,24.81V17.42" style="fill: none; vector-effect: non-scaling-stroke; stroke-width: 2px; stroke-dasharray: 4px, 2px; stroke: rgb(181, 181, 181); stroke-opacity: 1;"/></g></g><g class="scatterlayer mlayer"><g class="trace scatter tracea6064b" style="stroke-miterlimit: 2; opacity: 1;"><g class="fills"/><g class="errorbars"/><g class="lines"/><g class="points"><path class="point" transform="translate(1000,21.12)" d="M2,0A2,2 0 1,1 0,-2A2,2 0 0,1 2,0Z" style="opacity: 1; stroke-width: 0px; fill: rgb(11, 121, 230); fill-opacity: 1;"/></g><g class="text"/></g><g class="trace scatter trace45301d" style="stroke-miterlimit: 2; opacity: 1;"><g class="fills"/><g class="errorbars"/><g class="lines"/><g class="points"><path class="point" transform="translate(464.43,21.12)" d="M2,0A2,2 0 1,1 0,-2A2,2 0 0,1 2,0Z" style="opacity: 1; stroke-width: 0px; fill: rgb(11, 121, 230); fill-opacity: 1;"/></g><g class="text"/></g><g class="trace scatter trace5d26eb" style="stroke-miterlimit: 2; opacity: 1;"><g class="fills"/><g class="errorbars"/><g class="lines"/><g class="points"><path class="point" transform="translate(174.43,21.12)" d="M2,0A2,2 0 1,1 0,-2A2,2 0 0,1 2,0Z" style="opacity: 1; stroke-width: 0px; fill: rgb(11, 121, 230); fill-opacity: 1;"/></g><g class="text"/></g><g class="trace scatter traceae2ab0" style="stroke-miterlimit: 2; opacity: 1;"><g class="fills"/><g class="errorbars"/><g class="lines"/><g class="points"><path class="point" transform="translate(146.06,21.12)" d="M2,0A2,2 0 1,1 0,-2A2,2 0 0,1 2,0Z" style="opacity: 1; stroke-width: 0px; fill: rgb(11, 121, 230); fill-opacity: 1;"/></g><g class="text"/></g><g class="trace scatter traceb54648" style="stroke-miterlimit: 2; opacity: 1;"><g class="fills"/><g class="errorbars"/><g class="lines"/><g class="points"><path class="point" transform="translate(51.35,21.12)" d="M2,0A2,2 0 1,1 0,-2A2,2 0 0,1 2,0Z" style="opacity: 1; stroke-width: 0px; fill: rgb(11, 121, 230); fill-opacity: 1;"/></g><g class="text"/></g><g class="trace scatter traceab8e06" style="stroke-miterlimit: 2; opacity: 1;"><g class="fills"/><g class="errorbars"/><g class="lines"/><g class="points"><path class="point" transform="translate(28.23,21.12)" d="M2,0A2,2 0 1,1 0,-2A2,2 0 0,1 2,0Z" style="opacity: 1; stroke-width: 0px; fill: rgb(11, 121, 230); fill-opacity: 1;"/></g><g class="text"/></g><g class="trace scatter traceeb6c5f" style="stroke-miterlimit: 2; opacity: 1;"><g class="fills"/><g class="errorbars"/><g class="lines"/><g class="points"><path class="point" transform="translate(68.27,21.12)" d="M2,0A2,2 0 1,1 0,-2A2,2 0 0,1 2,0Z" style="opacity: 1; stroke-width: 0px; fill: rgb(11, 121, 230); fill-opacity: 1;"/></g><g class="text"/></g><g class="trace scatter traceef84a1" style="stroke-miterlimit: 2; opacity: 1;"><g class="fills"/><g class="errorbars"/><g class="lines"/><g class="points"><path class="point" transform="translate(25.76,21.12)" d="M2,0A2,2 0 1,1 0,-2A2,2 0 0,1 2,0Z" style="opacity: 1; stroke-width: 0px; fill: rgb(11, 121, 230); fill-opacity: 1;"/></g><g class="text"/></g><g class="trace scatter trace7cc7fe" style="stroke-miterlimit: 2; opacity: 1;"><g class="fills"/><g class="errorbars"/><g class="lines"/><g class="points"><path class="point" transform="translate(42.9,21.12)" d="M2,0A2,2 0 1,1 0,-2A2,2 0 0,1 2,0Z" style="opacity: 1; stroke-width: 0px; fill: rgb(11, 121, 230); fill-opacity: 1;"/></g><g class="text"/></g><g class="trace scatter trace0aa909" style="stroke-miterlimit: 2; opacity: 1;"><g class="fills"/><g class="errorbars"/><g class="lines"/><g class="points"><path class="point" transform="translate(43.39,21.12)" d="M2,0A2,2 0 1,1 0,-2A2,2 0 0,1 2,0Z" style="opacity: 1; stroke-width: 0px; fill: rgb(11, 121, 230); fill-opacity: 1;"/></g><g class="text"/></g><g class="trace scatter tracee0fc37" style="stroke-miterlimit: 2; opacity: 1;"><g class="fills"/><g class="errorbars"/><g class="lines"/><g class="points"><path class="point" transform="translate(26.82,21.12)" d="M2,0A2,2 0 1,1 0,-2A2,2 0 0,1 2,0Z" style="opacity: 1; stroke-width: 0px; fill: rgb(11, 121, 230); fill-opacity: 1;"/></g><g class="text"/></g><g class="trace scatter tracee88734" style="stroke-miterlimit: 2; opacity: 1;"><g class="fills"/><g class="errorbars"/><g class="lines"/><g class="points"><path class="point" transform="translate(69.42,21.12)" d="M2,0A2,2 0 1,1 0,-2A2,2 0 0,1 2,0Z" style="opacity: 1; stroke-width: 0px; fill: rgb(11, 121, 230); fill-opacity: 1;"/></g><g class="text"/></g><g class="trace scatter trace804112" style="stroke-miterlimit: 2; opacity: 1;"><g class="fills"/><g class="errorbars"/><g class="lines"/><g class="points"><path class="point" transform="translate(57.38,21.12)" d="M2,0A2,2 0 1,1 0,-2A2,2 0 0,1 2,0Z" style="opacity: 1; stroke-width: 0px; fill: rgb(11, 121, 230); fill-opacity: 1;"/></g><g class="text"/></g><g class="trace scatter trace2419ff" style="stroke-miterlimit: 2; opacity: 1;"><g class="fills"/><g class="errorbars"/><g class="lines"/><g class="points"><path class="point" transform="translate(21.43,21.12)" d="M2,0A2,2 0 1,1 0,-2A2,2 0 0,1 2,0Z" style="opacity: 1; stroke-width: 0px; fill: rgb(11, 121, 230); fill-opacity: 1;"/></g><g class="text"/></g><g class="trace scatter trace3fa7c1" style="stroke-miterlimit: 2; opacity: 1;"><g class="fills"/><g class="errorbars"/><g class="lines"/><g class="points"><path class="point" transform="translate(23.93,21.12)" d="M2,0A2,2 0 1,1 0,-2A2,2 0 0,1 2,0Z" style="opacity: 1; stroke-width: 0px; fill: rgb(11, 121, 230); fill-opacity: 1;"/></g><g class="text"/></g><g class="trace scatter tracefa76eb" style="stroke-miterlimit: 2; opacity: 1;"><g class="fills"/><g class="errorbars"/><g class="lines"/><g class="points"><path class="point" transform="translate(31.97,21.12)" d="M2,0A2,2 0 1,1 0,-2A2,2 0 0,1 2,0Z" style="opacity: 1; stroke-width: 0px; fill: rgb(11, 121, 230); fill-opacity: 1;"/></g><g class="text"/></g><g class="trace scatter tracee3d32d" style="stroke-miterlimit: 2; opacity: 1;"><g class="fills"/><g class="errorbars"/><g class="lines"/><g class="points"><path class="point" transform="translate(29.68,21.12)" d="M2,0A2,2 0 1,1 0,-2A2,2 0 0,1 2,0Z" style="opacity: 1; stroke-width: 0px; fill: rgb(11, 121, 230); fill-opacity: 1;"/></g><g class="text"/></g><g class="trace scatter trace96e99d" style="stroke-miterlimit: 2; opacity: 1;"><g class="fills"/><g class="errorbars"/><g class="lines"/><g class="points"><path class="point" transform="translate(29.87,21.12)" d="M2,0A2,2 0 1,1 0,-2A2,2 0 0,1 2,0Z" style="opacity: 1; stroke-width: 0px; fill: rgb(11, 121, 230); fill-opacity: 1;"/></g><g class="text"/></g><g class="trace scatter trace5bc407" style="stroke-miterlimit: 2; opacity: 1;"><g class="fills"/><g class="errorbars"/><g class="lines"/><g class="points"><path class="point" transform="translate(33.59,21.12)" d="M2,0A2,2 0 1,1 0,-2A2,2 0 0,1 2,0Z" style="opacity: 1; stroke-width: 0px; fill: rgb(11, 121, 230); fill-opacity: 1;"/></g><g class="text"/></g><g class="trace scatter trace683fb6" style="stroke-miterlimit: 2; opacity: 1;"><g class="fills"/><g class="errorbars"/><g class="lines"/><g class="points"><path class="point" transform="translate(24.83,21.12)" d="M2,0A2,2 0 1,1 0,-2A2,2 0 0,1 2,0Z" style="opacity: 1; stroke-width: 0px; fill: rgb(11, 121, 230); fill-opacity: 1;"/></g><g class="text"/></g></g></g></g><path class="xlines-above crisp" d="M0,0" style="fill: none;"/><path class="ylines-above crisp" d="M0,0" style="fill: none;"/><g class="overlines-above"/><g class="xaxislayer-above"><g class="x2tick"><text text-anchor="middle" x="0" y="172.61538461538464" transform="translate(84.98,0)" style="font-family: 'Lucida Grande', 'Open Sans', verdana, arial, sans-serif; font-size: 9px; fill: rgb(0, 0, 0); fill-opacity: 0.5; white-space: pre; opacity: 1;">0</text></g><g class="x2tick"><text text-anchor="middle" x="0" y="172.61538461538464" style="font-family: 'Lucida Grande', 'Open Sans', verdana, arial, sans-serif; font-size: 9px; fill: rgb(0, 0, 0); fill-opacity: 0.5; white-space: pre; opacity: 1;" transform="translate(252.46,0)">1M</text></g><g class="x2tick"><text text-anchor="middle" x="0" y="172.61538461538464" style="font-family: 'Lucida Grande', 'Open Sans', verdana, arial, sans-serif; font-size: 9px; fill: rgb(0, 0, 0); fill-opacity: 0.5; white-space: pre; opacity: 1;" transform="translate(419.95,0)">2M</text></g><g class="x2tick"><text text-anchor="middle" x="0" y="172.61538461538464" style="font-family: 'Lucida Grande', 'Open Sans', verdana, arial, sans-serif; font-size: 9px; fill: rgb(0, 0, 0); fill-opacity: 0.5; white-space: pre; opacity: 1;" transform="translate(587.4300000000001,0)">3M</text></g><g class="x2tick"><text text-anchor="middle" x="0" y="172.61538461538464" style="font-family: 'Lucida Grande', 'Open Sans', verdana, arial, sans-serif; font-size: 9px; fill: rgb(0, 0, 0); fill-opacity: 0.5; white-space: pre; opacity: 1;" transform="translate(754.92,0)">4M</text></g><g class="x2tick"><text text-anchor="middle" x="0" y="172.61538461538464" style="font-family: 'Lucida Grande', 'Open Sans', verdana, arial, sans-serif; font-size: 9px; fill: rgb(0, 0, 0); fill-opacity: 0.5; white-space: pre; opacity: 1;" transform="translate(922.41,0)">5M</text></g></g><g class="yaxislayer-above"><g class="y2tick"><text text-anchor="end" x="79" y="3.15" transform="translate(0,141.5046153846154)" style="font-family: 'Lucida Grande', 'Open Sans', verdana, arial, sans-serif; font-size: 9px; fill: rgb(0, 0, 0); fill-opacity: 0.5; white-space: pre; opacity: 1;">Occurrences  </text></g></g><g class="overaxes-above"/></g><g class="subplot x3y3"><g class="layer-subplot"><g class="shapelayer"/><g class="imagelayer"/></g><g class="minor-gridlayer"><g class="x3"/><g class="y3"/></g><g class="gridlayer"><g class="x3"><path class="x3grid crisp" transform="translate(283.98,0)" d="M0,190.76923076923077v42.230769230769226" style="stroke: rgb(0, 0, 0); stroke-opacity: 0.1; stroke-width: 1px;"/><path class="x3grid crisp" transform="translate(482.99,0)" d="M0,190.76923076923077v42.230769230769226" style="stroke: rgb(0, 0, 0); stroke-opacity: 0.1; stroke-width: 1px;"/><path class="x3grid crisp" transform="translate(681.99,0)" d="M0,190.76923076923077v42.230769230769226" style="stroke: rgb(0, 0, 0); stroke-opacity: 0.1; stroke-width: 1px;"/><path class="x3grid crisp" transform="translate(881,0)" d="M0,190.76923076923077v42.230769230769226" style="stroke: rgb(0, 0, 0); stroke-opacity: 0.1; stroke-width: 1px;"/><path class="x3grid crisp" transform="translate(1080,0)" d="M0,190.76923076923077v42.230769230769226" style="stroke: rgb(0, 0, 0); stroke-opacity: 0.1; stroke-width: 1px;"/></g><g class="y3"><path class="y3grid crisp" transform="translate(0,211.88923076923078)" d="M80,0h1005" style="stroke: rgb(0, 0, 0); stroke-opacity: 0.1; stroke-width: 1px;"/></g></g><g class="zerolinelayer"><path class="x3zl zl crisp" transform="translate(84.98,0)" d="M0,190.76923076923077v42.230769230769226" style="stroke: rgb(0, 0, 0); stroke-opacity: 0.1; stroke-width: 2px;"/></g><g class="layer-between"><g class="shapelayer"/><g class="imagelayer"/></g><path class="xlines-below"/><path class="ylines-below"/><g class="overlines-below"/><g class="xaxislayer-below"/><g class="yaxislayer-below"/><g class="overaxes-below"/><g class="overplot"><g class="x3y3" transform="translate(80,190.76923076923077)" clip-path="url(#clip28a53ex3y3plot)"><g class="violinlayer mlayer"><g class="trace violins" style="opacity: 0.5;"><path class="violin" d="M4.87,20.27Q4.89,19.73 4.9,19.4C4.91,18.98 4.92,18.5 4.93,17.98C4.94,17.36 4.96,16.66 4.97,15.95C4.98,15.16 4.99,14.28 5,13.43C5.01,12.55 5.02,11.61 5.03,10.74C5.04,9.93 5.06,9.09 5.07,8.38C5.08,7.8 5.08,7.18 5.1,6.81C5.11,6.6 5.12,6.33 5.13,6.33C5.14,6.33 5.16,6.68 5.17,6.91C5.19,7.27 5.19,7.79 5.2,8.27C5.21,8.82 5.22,9.44 5.23,10.04C5.24,10.65 5.26,11.28 5.27,11.89C5.28,12.48 5.29,13.08 5.3,13.65C5.31,14.2 5.33,14.74 5.34,15.26C5.35,15.75 5.36,16.23 5.37,16.69C5.38,17.12 5.39,17.55 5.4,17.95C5.41,18.31 5.43,18.67 5.44,18.99C5.45,19.27 5.46,19.55 5.47,19.79C5.48,19.99 5.49,20.17 5.5,20.33C5.51,20.45 5.52,20.57 5.54,20.65C5.55,20.7 5.56,20.77 5.57,20.77C5.58,20.77 5.59,20.76 5.6,20.74C5.62,20.71 5.63,20.64 5.64,20.58C5.65,20.51 5.66,20.42 5.67,20.34C5.68,20.25 5.69,20.15 5.7,20.06C5.71,19.97 5.73,19.88 5.74,19.8C5.75,19.72 5.76,19.64 5.77,19.58C5.78,19.53 5.79,19.48 5.8,19.44C5.81,19.41 5.83,19.38 5.84,19.37C5.85,19.37 5.86,19.37 5.87,19.38C5.88,19.39 5.89,19.43 5.9,19.46C5.91,19.5 5.93,19.56 5.94,19.62C5.95,19.69 5.96,19.76 5.97,19.84C5.98,19.93 5.99,20.03 6,20.12C6.01,20.21 6.03,20.31 6.04,20.4C6.05,20.49 6.06,20.57 6.07,20.65C6.08,20.72 6.09,20.78 6.1,20.84C6.11,20.89 6.13,20.93 6.14,20.97C6.15,21 6.16,21.03 6.17,21.05C6.18,21.07 6.19,21.08 6.2,21.09C6.21,21.1 6.23,21.1 6.24,21.1C6.25,21.1 6.26,21.11 6.27,21.11C6.28,21.11 6.29,21.11 6.3,21.11C6.31,21.11 6.33,21.12 6.34,21.12C6.35,21.12 6.36,21.12 6.37,21.12C6.38,21.12 6.4,21.12 6.41,21.12C6.42,21.12 6.43,21.12 6.44,21.12C6.45,21.12 6.46,21.12 6.47,21.12C6.48,21.12 6.5,21.12 6.51,21.12C6.52,21.12 6.53,21.12 6.54,21.12C6.55,21.12 6.56,21.12 6.57,21.12C6.58,21.12 6.6,21.12 6.61,21.12C6.62,21.12 6.63,21.12 6.64,21.12C6.65,21.12 6.66,21.12 6.67,21.12C6.68,21.12 6.7,21.12 6.71,21.12C6.72,21.12 6.73,21.12 6.74,21.12C6.75,21.12 6.76,21.12 6.77,21.12C6.78,21.12 6.8,21.12 6.81,21.12C6.82,21.12 6.83,21.12 6.84,21.12C6.85,21.12 6.86,21.12 6.87,21.12C6.88,21.12 6.9,21.12 6.91,21.12C6.92,21.12 6.93,21.12 6.94,21.12C6.95,21.12 6.96,21.12 6.97,21.12C6.98,21.12 7,21.12 7.01,21.12C7.02,21.12 7.03,21.12 7.04,21.12C7.05,21.12 7.06,21.12 7.07,21.12C7.08,21.12 7.1,21.12 7.11,21.12C7.12,21.12 7.13,21.12 7.14,21.12C7.15,21.12 7.16,21.11 7.17,21.11C7.18,21.11 7.2,21.11 7.21,21.11C7.22,21.11 7.23,21.11 7.24,21.11C7.25,21.11 7.26,21.11 7.27,21.1C7.28,21.09 7.3,21.08 7.31,21.07C7.32,21.06 7.33,21.04 7.34,21.02C7.35,20.99 7.36,20.96 7.37,20.92C7.38,20.87 7.4,20.82 7.41,20.76C7.42,20.7 7.43,20.62 7.44,20.55C7.45,20.47 7.46,20.39 7.47,20.31C7.48,20.23 7.5,20.15 7.51,20.09C7.52,20.04 7.52,19.98 7.54,19.95C7.55,19.93 7.57,19.92 7.58,19.92C7.6,19.93 7.6,19.98 7.61,20.02C7.62,20.07 7.63,20.15 7.64,20.22C7.65,20.3 7.67,20.38 7.68,20.46C7.69,20.54 7.7,20.62 7.71,20.69C7.72,20.75 7.73,20.81 7.74,20.86C7.75,20.9 7.77,20.95 7.78,20.98C7.79,21.01 7.8,21.03 7.81,21.05C7.82,21.07 7.83,21.08 7.84,21.09C7.85,21.1 7.87,21.11 7.88,21.11C7.89,21.11 7.9,21.11 7.91,21.11C7.92,21.11 7.93,21.11 7.94,21.11C7.95,21.11 7.97,21.12 7.98,21.12C7.99,21.12 8,21.12 8.01,21.12C8.02,21.12 8.03,21.12 8.04,21.12C8.05,21.12 8.07,21.12 8.08,21.12C8.09,21.12 8.1,21.12 8.11,21.12C8.12,21.12 8.13,21.12 8.14,21.12C8.15,21.12 8.17,21.12 8.18,21.12C8.19,21.12 8.2,21.12 8.21,21.12C8.22,21.12 8.23,21.12 8.24,21.12C8.25,21.12 8.27,21.12 8.28,21.12C8.29,21.12 8.3,21.12 8.31,21.12C8.32,21.12 8.33,21.12 8.34,21.12C8.35,21.12 8.37,21.12 8.38,21.12C8.39,21.12 8.4,21.12 8.41,21.12C8.42,21.12 8.43,21.12 8.44,21.12C8.45,21.12 8.47,21.12 8.48,21.12C8.49,21.12 8.5,21.12 8.51,21.12C8.52,21.12 8.53,21.12 8.54,21.12C8.55,21.12 8.57,21.12 8.58,21.12C8.59,21.12 8.6,21.12 8.61,21.12C8.62,21.12 8.64,21.12 8.65,21.12C8.66,21.12 8.67,21.12 8.68,21.12C8.69,21.12 8.7,21.12 8.71,21.12C8.72,21.12 8.74,21.12 8.75,21.12C8.76,21.12 8.77,21.12 8.78,21.12C8.79,21.12 8.8,21.12 8.81,21.12C8.82,21.12 8.84,21.12 8.85,21.12C8.86,21.12 8.87,21.12 8.88,21.12C8.89,21.12 8.9,21.12 8.91,21.12C8.92,21.12 8.94,21.12 8.95,21.12C8.96,21.12 8.97,21.12 8.98,21.12C8.99,21.12 9,21.12 9.01,21.12C9.02,21.12 9.04,21.12 9.05,21.12C9.06,21.12 9.07,21.12 9.08,21.12C9.09,21.12 9.1,21.12 9.11,21.12C9.12,21.12 9.14,21.12 9.15,21.12C9.16,21.12 9.17,21.12 9.18,21.12C9.19,21.12 9.2,21.12 9.21,21.12C9.22,21.12 9.24,21.12 9.25,21.12C9.26,21.12 9.27,21.12 9.28,21.12C9.29,21.12 9.3,21.12 9.31,21.12C9.32,21.12 9.34,21.12 9.35,21.12C9.36,21.12 9.37,21.12 9.38,21.12C9.39,21.12 9.4,21.12 9.41,21.12C9.42,21.12 9.44,21.12 9.45,21.12C9.46,21.12 9.47,21.12 9.48,21.12C9.49,21.12 9.5,21.12 9.51,21.12C9.52,21.12 9.54,21.12 9.55,21.12C9.56,21.12 9.57,21.12 9.58,21.12C9.59,21.12 9.6,21.12 9.61,21.12C9.62,21.12 9.64,21.12 9.65,21.12C9.66,21.12 9.67,21.12 9.68,21.12C9.69,21.12 9.71,21.12 9.72,21.12C9.73,21.12 9.74,21.12 9.75,21.12C9.76,21.12 9.77,21.12 9.78,21.12C9.79,21.12 9.81,21.12 9.82,21.12C9.83,21.12 9.84,21.12 9.85,21.12C9.86,21.12 9.87,21.12 9.88,21.12C9.89,21.12 9.91,21.12 9.92,21.12C9.93,21.12 9.94,21.12 9.95,21.12C9.96,21.12 9.97,21.12 9.98,21.12C9.99,21.12 10.01,21.12 10.02,21.12C10.03,21.12 10.04,21.12 10.05,21.12C10.06,21.12 10.07,21.12 10.08,21.12C10.09,21.12 10.11,21.12 10.12,21.12C10.13,21.12 10.14,21.12 10.15,21.12C10.16,21.12 10.17,21.11 10.18,21.11C10.19,21.11 10.21,21.11 10.22,21.11C10.23,21.11 10.24,21.11 10.25,21.11C10.26,21.11 10.27,21.1 10.28,21.1C10.29,21.09 10.31,21.09 10.32,21.08C10.33,21.07 10.34,21.06 10.35,21.04C10.36,21.02 10.37,20.98 10.38,20.95C10.39,20.91 10.41,20.86 10.42,20.81C10.43,20.75 10.44,20.69 10.45,20.62C10.46,20.55 10.47,20.47 10.48,20.39C10.49,20.31 10.51,20.22 10.52,20.15C10.53,20.09 10.54,20.02 10.55,19.98C10.56,19.95 10.57,19.92 10.58,19.92C10.59,19.92 10.61,19.95 10.62,19.98C10.64,20.02 10.64,20.1 10.65,20.16C10.66,20.23 10.67,20.31 10.68,20.39C10.69,20.47 10.71,20.55 10.72,20.62C10.73,20.69 10.74,20.76 10.75,20.82Q10.76,20.87 10.79,20.95L10.79,21.28Q10.76,21.36 10.75,21.41C10.74,21.47 10.73,21.54 10.72,21.61C10.71,21.68 10.69,21.76 10.68,21.84C10.67,21.92 10.66,22 10.65,22.07C10.64,22.13 10.64,22.21 10.62,22.25C10.61,22.28 10.59,22.31 10.58,22.31C10.57,22.31 10.56,22.28 10.55,22.25C10.54,22.21 10.53,22.14 10.52,22.08C10.51,22.01 10.49,21.93 10.48,21.85C10.47,21.77 10.46,21.69 10.45,21.61C10.44,21.54 10.43,21.48 10.42,21.42C10.41,21.37 10.39,21.32 10.38,21.28C10.37,21.25 10.36,21.22 10.35,21.2C10.34,21.18 10.33,21.16 10.32,21.15C10.31,21.14 10.29,21.14 10.28,21.13C10.27,21.13 10.26,21.12 10.25,21.12C10.24,21.12 10.23,21.12 10.22,21.12C10.21,21.12 10.19,21.12 10.18,21.12C10.17,21.12 10.16,21.12 10.15,21.12C10.14,21.12 10.13,21.12 10.12,21.12C10.11,21.12 10.09,21.12 10.08,21.12C10.07,21.12 10.06,21.12 10.05,21.12C10.04,21.12 10.03,21.12 10.02,21.12C10.01,21.12 9.99,21.12 9.98,21.12C9.97,21.12 9.96,21.12 9.95,21.12C9.94,21.12 9.93,21.12 9.92,21.12C9.91,21.12 9.89,21.12 9.88,21.12C9.87,21.12 9.86,21.12 9.85,21.12C9.84,21.12 9.83,21.12 9.82,21.12C9.81,21.12 9.79,21.12 9.78,21.12C9.77,21.12 9.76,21.12 9.75,21.12C9.74,21.12 9.73,21.12 9.72,21.12C9.71,21.12 9.69,21.12 9.68,21.12C9.67,21.12 9.66,21.12 9.65,21.12C9.64,21.12 9.62,21.12 9.61,21.12C9.6,21.12 9.59,21.12 9.58,21.12C9.57,21.12 9.56,21.12 9.55,21.12C9.54,21.12 9.52,21.12 9.51,21.12C9.5,21.12 9.49,21.12 9.48,21.12C9.47,21.12 9.46,21.12 9.45,21.12C9.44,21.12 9.42,21.12 9.41,21.12C9.4,21.12 9.39,21.12 9.38,21.12C9.37,21.12 9.36,21.12 9.35,21.12C9.34,21.12 9.32,21.12 9.31,21.12C9.3,21.12 9.29,21.12 9.28,21.12C9.27,21.12 9.26,21.12 9.25,21.12C9.24,21.12 9.22,21.12 9.21,21.12C9.2,21.12 9.19,21.12 9.18,21.12C9.17,21.12 9.16,21.12 9.15,21.12C9.14,21.12 9.12,21.12 9.11,21.12C9.1,21.12 9.09,21.12 9.08,21.12C9.07,21.12 9.06,21.12 9.05,21.12C9.04,21.12 9.02,21.12 9.01,21.12C9,21.12 8.99,21.12 8.98,21.12C8.97,21.12 8.96,21.12 8.95,21.12C8.94,21.12 8.92,21.12 8.91,21.12C8.9,21.12 8.89,21.12 8.88,21.12C8.87,21.12 8.86,21.12 8.85,21.12C8.84,21.12 8.82,21.12 8.81,21.12C8.8,21.12 8.79,21.12 8.78,21.12C8.77,21.12 8.76,21.12 8.75,21.12C8.74,21.12 8.72,21.12 8.71,21.12C8.7,21.12 8.69,21.12 8.68,21.12C8.67,21.12 8.66,21.12 8.65,21.12C8.64,21.12 8.62,21.12 8.61,21.12C8.6,21.12 8.59,21.12 8.58,21.12C8.57,21.12 8.55,21.12 8.54,21.12C8.53,21.12 8.52,21.12 8.51,21.12C8.5,21.12 8.49,21.12 8.48,21.12C8.47,21.12 8.45,21.12 8.44,21.12C8.43,21.12 8.42,21.12 8.41,21.12C8.4,21.12 8.39,21.12 8.38,21.12C8.37,21.12 8.35,21.12 8.34,21.12C8.33,21.12 8.32,21.12 8.31,21.12C8.3,21.12 8.29,21.12 8.28,21.12C8.27,21.12 8.25,21.12 8.24,21.12C8.23,21.12 8.22,21.12 8.21,21.12C8.2,21.12 8.19,21.12 8.18,21.12C8.17,21.12 8.15,21.12 8.14,21.12C8.13,21.12 8.12,21.12 8.11,21.12C8.1,21.12 8.09,21.12 8.08,21.12C8.07,21.12 8.05,21.12 8.04,21.12C8.03,21.12 8.02,21.12 8.01,21.12C8,21.12 7.99,21.12 7.98,21.12C7.97,21.12 7.95,21.12 7.94,21.12C7.93,21.12 7.92,21.12 7.91,21.12C7.9,21.12 7.89,21.13 7.88,21.13C7.87,21.13 7.85,21.13 7.84,21.14C7.83,21.15 7.82,21.16 7.81,21.18C7.8,21.2 7.79,21.22 7.78,21.25C7.77,21.28 7.75,21.33 7.74,21.37C7.73,21.42 7.72,21.49 7.71,21.55C7.7,21.62 7.69,21.7 7.68,21.77C7.67,21.85 7.65,21.93 7.64,22.01C7.63,22.08 7.62,22.16 7.61,22.21C7.6,22.25 7.6,22.3 7.58,22.31C7.57,22.31 7.55,22.3 7.54,22.28C7.52,22.25 7.52,22.19 7.51,22.14C7.5,22.08 7.48,22 7.47,21.92C7.46,21.84 7.45,21.76 7.44,21.68C7.43,21.61 7.42,21.53 7.41,21.47C7.4,21.41 7.38,21.36 7.37,21.31C7.36,21.28 7.35,21.25 7.34,21.22C7.33,21.2 7.32,21.18 7.31,21.16C7.3,21.15 7.28,21.14 7.27,21.13C7.26,21.12 7.25,21.12 7.24,21.12C7.23,21.12 7.22,21.12 7.21,21.12C7.2,21.12 7.18,21.12 7.17,21.12C7.16,21.12 7.15,21.12 7.14,21.12C7.13,21.12 7.12,21.12 7.11,21.12C7.1,21.12 7.08,21.12 7.07,21.12C7.06,21.12 7.05,21.12 7.04,21.12C7.03,21.12 7.02,21.12 7.01,21.12C7,21.12 6.98,21.12 6.97,21.12C6.96,21.12 6.95,21.12 6.94,21.12C6.93,21.12 6.92,21.12 6.91,21.12C6.9,21.12 6.88,21.12 6.87,21.12C6.86,21.12 6.85,21.12 6.84,21.12C6.83,21.12 6.82,21.12 6.81,21.12C6.8,21.12 6.78,21.12 6.77,21.12C6.76,21.12 6.75,21.12 6.74,21.12C6.73,21.12 6.72,21.12 6.71,21.12C6.7,21.12 6.68,21.12 6.67,21.12C6.66,21.12 6.65,21.12 6.64,21.12C6.63,21.12 6.62,21.12 6.61,21.12C6.6,21.12 6.58,21.12 6.57,21.12C6.56,21.12 6.55,21.12 6.54,21.12C6.53,21.12 6.52,21.12 6.51,21.12C6.5,21.12 6.48,21.12 6.47,21.12C6.46,21.12 6.45,21.12 6.44,21.12C6.43,21.12 6.42,21.12 6.41,21.12C6.4,21.12 6.38,21.12 6.37,21.12C6.36,21.12 6.35,21.12 6.34,21.12C6.33,21.12 6.31,21.12 6.3,21.12C6.29,21.12 6.28,21.12 6.27,21.12C6.26,21.12 6.25,21.13 6.24,21.13C6.23,21.13 6.21,21.13 6.2,21.14C6.19,21.15 6.18,21.16 6.17,21.18C6.16,21.2 6.15,21.23 6.14,21.26C6.13,21.3 6.11,21.34 6.1,21.39C6.09,21.45 6.08,21.51 6.07,21.58C6.06,21.66 6.05,21.74 6.04,21.83C6.03,21.92 6.01,22.02 6,22.11C5.99,22.2 5.98,22.3 5.97,22.39C5.96,22.47 5.95,22.55 5.94,22.62C5.93,22.68 5.91,22.73 5.9,22.77C5.89,22.8 5.88,22.84 5.87,22.85C5.86,22.86 5.85,22.86 5.84,22.86C5.83,22.85 5.81,22.82 5.8,22.79C5.79,22.75 5.78,22.7 5.77,22.65C5.76,22.59 5.75,22.51 5.74,22.43C5.73,22.35 5.71,22.26 5.7,22.17C5.69,22.08 5.68,21.98 5.67,21.89C5.66,21.81 5.65,21.72 5.64,21.65C5.63,21.59 5.62,21.52 5.6,21.49C5.59,21.47 5.58,21.46 5.57,21.46C5.56,21.46 5.55,21.53 5.54,21.58C5.52,21.66 5.51,21.78 5.5,21.9C5.49,22.06 5.48,22.24 5.47,22.44C5.46,22.68 5.45,22.96 5.44,23.24C5.43,23.56 5.41,23.92 5.4,24.28C5.39,24.68 5.38,25.11 5.37,25.54C5.36,26 5.35,26.48 5.34,26.97C5.33,27.49 5.31,28.03 5.3,28.58C5.29,29.15 5.28,29.75 5.27,30.34C5.26,30.95 5.24,31.58 5.23,32.19C5.22,32.79 5.21,33.41 5.2,33.96C5.19,34.44 5.19,34.96 5.17,35.32C5.16,35.55 5.14,35.9 5.13,35.9C5.12,35.9 5.11,35.63 5.1,35.42C5.08,35.05 5.08,34.43 5.07,33.86C5.06,33.15 5.04,32.31 5.03,31.49C5.02,30.62 5.01,29.68 5,28.8C4.99,27.95 4.98,27.07 4.97,26.28C4.96,25.57 4.94,24.87 4.93,24.25C4.92,23.73 4.91,23.25 4.9,22.83Q4.89,22.5 4.87,21.96Z" style="vector-effect: none; stroke-width: 2px; stroke: rgb(181, 181, 181); stroke-opacity: 1; fill: rgb(181, 181, 181); fill-opacity: 1;"/><path class="box" d="M5.16,24.81V17.42M5.1,24.81V17.42H5.34V24.81ZM5.1,21.12H5.07M5.34,21.12H5.34" style="vector-effect: non-scaling-stroke; stroke-width: 2px; stroke: rgb(181, 181, 181); stroke-opacity: 1; fill: rgb(181, 181, 181); fill-opacity: 1;"/><path class="mean" d="M5.62,24.81V17.42" style="fill: none; vector-effect: non-scaling-stroke; stroke-width: 2px; stroke-dasharray: 4px, 2px; stroke: rgb(181, 181, 181); stroke-opacity: 1;"/></g></g><g class="scatterlayer mlayer"><g class="trace scatter trace53493e" style="stroke-miterlimit: 2; opacity: 1;"><g class="fills"/><g class="errorbars"/><g class="lines"/><g class="points"><path class="point" transform="translate(10.58,21.12)" d="M2,0A2,2 0 1,1 0,-2A2,2 0 0,1 2,0Z" style="opacity: 1; stroke-width: 0px; fill: rgb(11, 121, 230); fill-opacity: 1;"/></g><g class="text"/></g><g class="trace scatter trace59551a" style="stroke-miterlimit: 2; opacity: 1;"><g class="fills"/><g class="errorbars"/><g class="lines"/><g class="points"><path class="point" transform="translate(7.57,21.12)" d="M2,0A2,2 0 1,1 0,-2A2,2 0 0,1 2,0Z" style="opacity: 1; stroke-width: 0px; fill: rgb(11, 121, 230); fill-opacity: 1;"/></g><g class="text"/></g><g class="trace scatter traced24ccd" style="stroke-miterlimit: 2; opacity: 1;"><g class="fills"/><g class="errorbars"/><g class="lines"/><g class="points"><path class="point" transform="translate(5.93,21.12)" d="M2,0A2,2 0 1,1 0,-2A2,2 0 0,1 2,0Z" style="opacity: 1; stroke-width: 0px; fill: rgb(11, 121, 230); fill-opacity: 1;"/></g><g class="text"/></g><g class="trace scatter traceeb37e6" style="stroke-miterlimit: 2; opacity: 1;"><g class="fills"/><g class="errorbars"/><g class="lines"/><g class="points"><path class="point" transform="translate(5.77,21.12)" d="M2,0A2,2 0 1,1 0,-2A2,2 0 0,1 2,0Z" style="opacity: 1; stroke-width: 0px; fill: rgb(11, 121, 230); fill-opacity: 1;"/></g><g class="text"/></g><g class="trace scatter trace758104" style="stroke-miterlimit: 2; opacity: 1;"><g class="fills"/><g class="errorbars"/><g class="lines"/><g class="points"><path class="point" transform="translate(5.24,21.12)" d="M2,0A2,2 0 1,1 0,-2A2,2 0 0,1 2,0Z" style="opacity: 1; stroke-width: 0px; fill: rgb(11, 121, 230); fill-opacity: 1;"/></g><g class="text"/></g><g class="trace scatter traceefe5e1" style="stroke-miterlimit: 2; opacity: 1;"><g class="fills"/><g class="errorbars"/><g class="lines"/><g class="points"><path class="point" transform="translate(5.11,21.12)" d="M2,0A2,2 0 1,1 0,-2A2,2 0 0,1 2,0Z" style="opacity: 1; stroke-width: 0px; fill: rgb(11, 121, 230); fill-opacity: 1;"/></g><g class="text"/></g><g class="trace scatter tracea83f3a" style="stroke-miterlimit: 2; opacity: 1;"><g class="fills"/><g class="errorbars"/><g class="lines"/><g class="points"><path class="point" transform="translate(5.33,21.12)" d="M2,0A2,2 0 1,1 0,-2A2,2 0 0,1 2,0Z" style="opacity: 1; stroke-width: 0px; fill: rgb(11, 121, 230); fill-opacity: 1;"/></g><g class="text"/></g><g class="trace scatter tracecabf8d" style="stroke-miterlimit: 2; opacity: 1;"><g class="fills"/><g class="errorbars"/><g class="lines"/><g class="points"><path class="point" transform="translate(5.09,21.12)" d="M2,0A2,2 0 1,1 0,-2A2,2 0 0,1 2,0Z" style="opacity: 1; stroke-width: 0px; fill: rgb(11, 121, 230); fill-opacity: 1;"/></g><g class="text"/></g><g class="trace scatter trace72dc03" style="stroke-miterlimit: 2; opacity: 1;"><g class="fills"/><g class="errorbars"/><g class="lines"/><g class="points"><path class="point" transform="translate(5.19,21.12)" d="M2,0A2,2 0 1,1 0,-2A2,2 0 0,1 2,0Z" style="opacity: 1; stroke-width: 0px; fill: rgb(11, 121, 230); fill-opacity: 1;"/></g><g class="text"/></g><g class="trace scatter trace312473" style="stroke-miterlimit: 2; opacity: 1;"><g class="fills"/><g class="errorbars"/><g class="lines"/><g class="points"><path class="point" transform="translate(5.19,21.12)" d="M2,0A2,2 0 1,1 0,-2A2,2 0 0,1 2,0Z" style="opacity: 1; stroke-width: 0px; fill: rgb(11, 121, 230); fill-opacity: 1;"/></g><g class="text"/></g><g class="trace scatter trace8c085c" style="stroke-miterlimit: 2; opacity: 1;"><g class="fills"/><g class="errorbars"/><g class="lines"/><g class="points"><path class="point" transform="translate(5.1,21.12)" d="M2,0A2,2 0 1,1 0,-2A2,2 0 0,1 2,0Z" style="opacity: 1; stroke-width: 0px; fill: rgb(11, 121, 230); fill-opacity: 1;"/></g><g class="text"/></g><g class="trace scatter tracecad7e4" style="stroke-miterlimit: 2; opacity: 1;"><g class="fills"/><g class="errorbars"/><g class="lines"/><g class="points"><path class="point" transform="translate(5.34,21.12)" d="M2,0A2,2 0 1,1 0,-2A2,2 0 0,1 2,0Z" style="opacity: 1; stroke-width: 0px; fill: rgb(11, 121, 230); fill-opacity: 1;"/></g><g class="text"/></g><g class="trace scatter trace9a8f6e" style="stroke-miterlimit: 2; opacity: 1;"><g class="fills"/><g class="errorbars"/><g class="lines"/><g class="points"><path class="point" transform="translate(5.27,21.12)" d="M2,0A2,2 0 1,1 0,-2A2,2 0 0,1 2,0Z" style="opacity: 1; stroke-width: 0px; fill: rgb(11, 121, 230); fill-opacity: 1;"/></g><g class="text"/></g><g class="trace scatter trace051215" style="stroke-miterlimit: 2; opacity: 1;"><g class="fills"/><g class="errorbars"/><g class="lines"/><g class="points"><path class="point" transform="translate(5.07,21.12)" d="M2,0A2,2 0 1,1 0,-2A2,2 0 0,1 2,0Z" style="opacity: 1; stroke-width: 0px; fill: rgb(11, 121, 230); fill-opacity: 1;"/></g><g class="text"/></g><g class="trace scatter tracee81db3" style="stroke-miterlimit: 2; opacity: 1;"><g class="fills"/><g class="errorbars"/><g class="lines"/><g class="points"><path class="point" transform="translate(5.08,21.12)" d="M2,0A2,2 0 1,1 0,-2A2,2 0 0,1 2,0Z" style="opacity: 1; stroke-width: 0px; fill: rgb(11, 121, 230); fill-opacity: 1;"/></g><g class="text"/></g><g class="trace scatter trace9ece4d" style="stroke-miterlimit: 2; opacity: 1;"><g class="fills"/><g class="errorbars"/><g class="lines"/><g class="points"><path class="point" transform="translate(5.13,21.12)" d="M2,0A2,2 0 1,1 0,-2A2,2 0 0,1 2,0Z" style="opacity: 1; stroke-width: 0px; fill: rgb(11, 121, 230); fill-opacity: 1;"/></g><g class="text"/></g><g class="trace scatter trace4e537f" style="stroke-miterlimit: 2; opacity: 1;"><g class="fills"/><g class="errorbars"/><g class="lines"/><g class="points"><path class="point" transform="translate(5.11,21.12)" d="M2,0A2,2 0 1,1 0,-2A2,2 0 0,1 2,0Z" style="opacity: 1; stroke-width: 0px; fill: rgb(11, 121, 230); fill-opacity: 1;"/></g><g class="text"/></g><g class="trace scatter tracec17f92" style="stroke-miterlimit: 2; opacity: 1;"><g class="fills"/><g class="errorbars"/><g class="lines"/><g class="points"><path class="point" transform="translate(5.12,21.12)" d="M2,0A2,2 0 1,1 0,-2A2,2 0 0,1 2,0Z" style="opacity: 1; stroke-width: 0px; fill: rgb(11, 121, 230); fill-opacity: 1;"/></g><g class="text"/></g><g class="trace scatter traced1b56f" style="stroke-miterlimit: 2; opacity: 1;"><g class="fills"/><g class="errorbars"/><g class="lines"/><g class="points"><path class="point" transform="translate(5.14,21.12)" d="M2,0A2,2 0 1,1 0,-2A2,2 0 0,1 2,0Z" style="opacity: 1; stroke-width: 0px; fill: rgb(11, 121, 230); fill-opacity: 1;"/></g><g class="text"/></g><g class="trace scatter trace4aa921" style="stroke-miterlimit: 2; opacity: 1;"><g class="fills"/><g class="errorbars"/><g class="lines"/><g class="points"><path class="point" transform="translate(5.09,21.12)" d="M2,0A2,2 0 1,1 0,-2A2,2 0 0,1 2,0Z" style="opacity: 1; stroke-width: 0px; fill: rgb(11, 121, 230); fill-opacity: 1;"/></g><g class="text"/></g></g></g></g><path class="xlines-above crisp" d="M0,0" style="fill: none;"/><path class="ylines-above crisp" d="M0,0" style="fill: none;"/><g class="overlines-above"/><g class="xaxislayer-above"><g class="x3tick"><text text-anchor="middle" x="0" y="243" transform="translate(84.98,0)" style="font-family: 'Lucida Grande', 'Open Sans', verdana, arial, sans-serif; font-size: 9px; fill: rgb(0, 0, 0); fill-opacity: 0.5; white-space: pre; opacity: 1;">0%</text></g><g class="x3tick"><text text-anchor="middle" x="0" y="243" style="font-family: 'Lucida Grande', 'Open Sans', verdana, arial, sans-serif; font-size: 9px; fill: rgb(0, 0, 0); fill-opacity: 0.5; white-space: pre; opacity: 1;" transform="translate(283.98,0)">20%</text></g><g class="x3tick"><text text-anchor="middle" x="0" y="243" style="font-family: 'Lucida Grande', 'Open Sans', verdana, arial, sans-serif; font-size: 9px; fill: rgb(0, 0, 0); fill-opacity: 0.5; white-space: pre; opacity: 1;" transform="translate(482.99,0)">40%</text></g><g class="x3tick"><text text-anchor="middle" x="0" y="243" style="font-family: 'Lucida Grande', 'Open Sans', verdana, arial, sans-serif; font-size: 9px; fill: rgb(0, 0, 0); fill-opacity: 0.5; white-space: pre; opacity: 1;" transform="translate(681.99,0)">60%</text></g><g class="x3tick"><text text-anchor="middle" x="0" y="243" style="font-family: 'Lucida Grande', 'Open Sans', verdana, arial, sans-serif; font-size: 9px; fill: rgb(0, 0, 0); fill-opacity: 0.5; white-space: pre; opacity: 1;" transform="translate(881,0)">80%</text></g><g class="x3tick"><text text-anchor="middle" x="0" y="243" style="font-family: 'Lucida Grande', 'Open Sans', verdana, arial, sans-serif; font-size: 9px; fill: rgb(0, 0, 0); fill-opacity: 0.5; white-space: pre; opacity: 1;" transform="translate(1080,0)">100%</text></g></g><g class="yaxislayer-above"><g class="y3tick"><text text-anchor="end" x="79" y="3.15" transform="translate(0,211.88923076923078)" style="font-family: 'Lucida Grande', 'Open Sans', verdana, arial, sans-serif; font-size: 9px; fill: rgb(0, 0, 0); fill-opacity: 0.5; white-space: pre; opacity: 1;">% of all reads  </text></g></g><g class="overaxes-above"/></g></g><g class="polarlayer"/><g class="smithlayer"/><g class="ternarylayer"/><g class="geolayer"/><g class="funnelarealayer"/><g class="pielayer"/><g class="iciclelayer"/><g class="treemaplayer"/><g class="sunburstlayer"/><g class="glimages"/><defs id="topdefs-28a53e"><g class="clips"/></defs><g class="layer-above"><g class="imagelayer"/><g class="shapelayer"/></g><g class="infolayer"><g class="g-gtitle"><text class="gtitle" x="550" y="25" text-anchor="middle" dy="0em" style="opacity: 1; font-family: 'Lucida Grande', 'Open Sans', verdana, arial, sans-serif; font-size: 20px; fill: rgb(42, 63, 95); fill-opacity: 1; white-space: pre;"><tspan class="line" dy="0em" x="550" y="25">FastQC: Top overrepresented sequences</tspan><tspan class="line" dy="1.3em" x="550" y="25"><tspan style="font-size:70%" dy="-0.6em">20 samples</tspan><tspan dy="0.42em"></tspan></tspan></text></g><g class="g-xtitle"/><g class="g-x2title"/><g class="g-x3title"/><g class="g-ytitle"/><g class="g-y2title"/><g class="g-y3title"/></g></svg>